<svg version="1.1" xmlns="http://www.w3.org/2000/svg" xmlns:xlink="http://www.w3.org/1999/xlink" width="486.99512" height="366.75" viewBox="0,0,486.99512,366.75"><defs><radialGradient cx="246.02196" cy="178.75002" r="357.10247" gradientUnits="userSpaceOnUse" id="color-1"><stop offset="0" stop-color="#071f57"/><stop offset="1" stop-color="#090f3e"/></radialGradient><linearGradient x1="241.66855" y1="246.75002" x2="241.66855" y2="360.75" gradientUnits="userSpaceOnUse" id="color-2"><stop offset="0" stop-color="#050b2c" stop-opacity="0"/><stop offset="1" stop-color="#050b2c"/></linearGradient><linearGradient x1="239.70645" y1="111.75" x2="239.70645" y2="-2.25001" gradientUnits="userSpaceOnUse" id="color-3"><stop offset="0" stop-color="#050b2c" stop-opacity="0"/><stop offset="1" stop-color="#050b2c"/></linearGradient></defs><g transform="translate(3.49756,3.375)"><g data-paper-data="{&quot;isPaintingLayer&quot;:true}" fill-rule="nonzero" stroke-linecap="butt" stroke-linejoin="miter" stroke-miterlimit="10" stroke-dasharray="" stroke-dashoffset="0" style="mix-blend-mode: normal"><g stroke="none"><path d="M-1.20283,362.25v-364h484.63907v364z" fill="url(#color-1)" stroke-width="NaN"/><path d="M-0.16046,360.75v-114h483.65802v114z" fill="url(#color-2)" stroke-width="0"/><path d="M481.53546,-2.25001v114h-483.65802v-114z" data-paper-data="{&quot;index&quot;:null}" fill="url(#color-3)" stroke-width="0"/><path d="M-3.24756,-0.875c0,-1.38071 1.11929,-2.5 2.5,-2.5c1.38071,0 2.5,1.11929 2.5,2.5c0,1.38071 -1.11929,2.5 -2.5,2.5c-1.38071,0 -2.5,-1.11929 -2.5,-2.5z" fill="#000000" stroke-width="0.5"/><path d="M-3.49756,360.875c0,-1.38071 1.11929,-2.5 2.5,-2.5c1.38071,0 2.5,1.11929 2.5,2.5c0,1.38071 -1.11929,2.5 -2.5,2.5c-1.38071,0 -2.5,-1.11929 -2.5,-2.5z" fill="#000000" stroke-width="0.5"/></g><g stroke="#000000" stroke-width="0"><g><path d="M279.59788,136.375c0,-5.79899 4.70101,-10.5 10.5,-10.5c5.79899,0 10.5,4.70101 10.5,10.5c0,5.79899 -4.70101,10.5 -10.5,10.5c-5.79899,0 -10.5,-4.70101 -10.5,-10.5z" fill="#153267"/><path d="M267.59788,141.375c0,-5.79899 4.70101,-10.5 10.5,-10.5c5.79899,0 10.5,4.70101 10.5,10.5c0,5.79899 -4.70101,10.5 -10.5,10.5c-5.79899,0 -10.5,-4.70101 -10.5,-10.5z" fill="#153267"/><path d="M286.09788,130.375c0,-5.79899 4.70101,-10.5 10.5,-10.5c5.79899,0 10.5,4.70101 10.5,10.5c0,5.79899 -4.70101,10.5 -10.5,10.5c-5.79899,0 -10.5,-4.70101 -10.5,-10.5z" fill="#153267"/><path d="M316.59788,145.125c0,-4.2802 3.46979,-7.75 7.75,-7.75c4.28021,0 7.75,3.4698 7.75,7.75c0,4.2802 -3.46979,7.75 -7.75,7.75c-4.28021,0 -7.75,-3.4698 -7.75,-7.75z" fill="#153267"/><path d="M295.59788,130.625c0,-4.83249 3.41751,-5.25 8.25,-5.25c4.83249,0 14.75,8.91751 14.75,13.75c0,4.83249 -5.91751,4.25 -10.75,4.25c-4.83249,0 -12.25,-7.91751 -12.25,-12.75z" fill="#153267"/><path d="M279.91038,146.375c0,-10.0792 8.1708,-18.25 18.25,-18.25c10.0792,0 18.25,8.1708 18.25,18.25c0,10.0792 -8.1708,18.25 -18.25,18.25c-10.0792,0 -18.25,-8.1708 -18.25,-18.25z" fill="#0c295d"/><path d="M267.09788,152.875c0,-5.79899 4.70101,-10.5 10.5,-10.5c5.79899,0 10.5,4.70101 10.5,10.5c0,5.79899 -4.70101,10.5 -10.5,10.5c-5.79899,0 -10.5,-4.70101 -10.5,-10.5z" fill="#0c295d"/><path d="M255.59788,147.875c0,-4.14213 3.35787,-7.5 7.5,-7.5c4.14213,0 7.5,3.35787 7.5,7.5c0,4.14213 -3.35787,7.5 -7.5,7.5c-4.14213,0 -7.5,-3.35787 -7.5,-7.5z" fill="#153267"/><path d="M304.59788,145.125c0,-5.66091 4.58909,-10.25 10.25,-10.25c5.66091,0 10.25,4.58909 10.25,10.25c0,5.66091 -4.58909,10.25 -10.25,10.25c-5.66091,0 -10.25,-4.58909 -10.25,-10.25z" fill="#153267"/></g><g fill="#0c295d"><path d="M279.19788,139.875c0,-5.79899 4.70101,-10.5 10.5,-10.5c5.79899,0 10.5,4.70101 10.5,10.5c0,5.79899 -4.70101,10.5 -10.5,10.5c-5.79899,0 -10.5,-4.70101 -10.5,-10.5z"/><path d="M267.19788,144.875c0,-5.79899 4.70101,-10.5 10.5,-10.5c5.79899,0 10.5,4.70101 10.5,10.5c0,5.79899 -4.70101,10.5 -10.5,10.5c-5.79899,0 -10.5,-4.70101 -10.5,-10.5z"/><path d="M285.69788,133.875c0,-5.79899 4.70101,-10.5 10.5,-10.5c5.79899,0 10.5,4.70101 10.5,10.5c0,5.79899 -4.70101,10.5 -10.5,10.5c-5.79899,0 -10.5,-4.70101 -10.5,-10.5z"/><path d="M316.19788,148.625c0,-4.2802 3.46979,-7.75 7.75,-7.75c4.28021,0 7.75,3.4698 7.75,7.75c0,4.2802 -3.46979,7.75 -7.75,7.75c-4.28021,0 -7.75,-3.4698 -7.75,-7.75z"/><path d="M295.19788,134.125c0,-4.83249 3.41751,-5.25 8.25,-5.25c4.83249,0 14.75,8.91751 14.75,13.75c0,4.83249 -5.91751,4.25 -10.75,4.25c-4.83249,0 -12.25,-7.91751 -12.25,-12.75z"/><path d="M279.51038,149.875c0,-10.0792 8.1708,-18.25 18.25,-18.25c10.0792,0 18.25,8.1708 18.25,18.25c0,10.0792 -8.1708,15.25 -18.25,15.25c-10.0792,0 -18.25,-5.1708 -18.25,-15.25z"/><path d="M267.69788,156.375c0,-5.79899 4.70101,-10.5 10.5,-10.5c5.79899,0 10.5,4.70101 10.5,10.5c0,5.79899 -3.70101,7.5 -9.5,7.5c-5.79899,0 -11.5,-1.70101 -11.5,-7.5z"/><path d="M255.19788,151.375c0,-4.14214 3.35786,-7.5 7.5,-7.5c4.14214,0 7.5,3.35786 7.5,7.5c0,4.14214 -3.35786,7.5 -7.5,7.5c-4.14214,0 -7.5,-3.35786 -7.5,-7.5z"/><path d="M304.19788,148.625c0,-5.66091 4.58909,-10.25 10.25,-10.25c5.66091,0 10.25,4.58909 10.25,10.25c0,5.66091 -4.58909,10.25 -10.25,10.25c-5.66091,0 -10.25,-4.58909 -10.25,-10.25z"/></g></g><path d="M477.69788,-0.62499c0,-1.38071 1.11929,-2.5 2.5,-2.5c1.38071,0 2.5,1.11929 2.5,2.5c0,1.38071 -1.11929,2.5 -2.5,2.5c-1.38071,0 -2.5,-1.11929 -2.5,-2.5z" fill="#000000" stroke="none" stroke-width="0.5"/><path d="M477.69788,360.62501c0,-1.38071 1.11929,-2.5 2.5,-2.5c1.38071,0 2.5,1.11929 2.5,2.5c0,1.38071 -1.11929,2.5 -2.5,2.5c-1.38071,0 -2.5,-1.11929 -2.5,-2.5z" fill="#000000" stroke="none" stroke-width="0.5"/><g stroke="#000000" stroke-width="0"><path d="M170.99632,118.21372c0,-3.93208 3.18759,-7.11967 7.11967,-7.11967c3.93208,0 7.11967,3.18759 7.11967,7.11967c0,3.93208 -3.18759,7.11967 -7.11967,7.11967c-3.93208,0 -7.11967,-3.18759 -7.11967,-7.11967z" fill="#153267"/><path d="M158.24832,120.88197c0,-7.00104 5.67546,-12.67649 12.67649,-12.67649c7.00104,0 12.67649,5.67546 12.67649,12.67649c0,7.00104 -5.67546,12.67649 -12.67649,12.67649c-7.00104,0 -12.67649,-5.67546 -12.67649,-12.67649z" fill="#153267"/><path d="M145.73154,123.41372c0,-2.97304 2.41012,-5.38317 5.38317,-5.38317c2.97304,0 5.38317,2.41013 5.38317,5.38317c0,2.97304 -2.41012,5.38317 -5.38317,5.38317c-2.97304,0 -5.38317,-2.41013 -5.38317,-5.38317z" fill="#153267"/><path d="M153.83126,119.53595c0,-4.02799 3.26533,-7.29332 7.29332,-7.29332c4.02799,0 7.29332,3.26533 7.29332,7.29332c0,4.02799 -3.26533,7.29332 -7.29332,7.29332c-4.02799,0 -7.29332,-3.26533 -7.29332,-7.29332z" fill="#153267"/><path d="M162.34618,112.31833c0,-3.61378 3.26533,-6.54332 7.29332,-6.54332c4.02799,0 7.29332,2.92955 7.29332,6.54332c0,3.61378 -3.26533,6.54332 -7.29332,6.54332c-4.02799,0 -7.29332,-2.92954 -7.29332,-6.54332z" fill="#153267"/><path d="M180.93154,123.01373c0,-2.97304 2.41012,-5.38317 5.38317,-5.38317c2.97304,0 5.38317,2.41013 5.38317,5.38317c0,2.97304 -2.41012,5.38317 -5.38317,5.38317c-2.97304,0 -5.38317,-2.41013 -5.38317,-5.38317z" fill="#153267"/><path d="M148.94873,127.7969c0,-4.02799 3.26533,-7.29332 7.29332,-7.29332c4.02799,0 7.29332,3.26533 7.29332,7.29332c0,4.02799 -2.26533,5.29332 -6.29332,5.29332c-4.02799,0 -8.29332,-1.26533 -8.29332,-5.29332z" fill="#0c295d"/><path d="M153.18581,121.89277c0,-4.02799 3.26533,-7.29332 7.29332,-7.29332c4.02799,0 7.29332,3.26533 7.29332,7.29332c0,4.02799 -3.26533,7.29332 -7.29332,7.29332c-4.02799,0 -7.29332,-3.26533 -7.29332,-7.29332z" fill="#0c295d"/><path d="M162.36833,115.59944c0,-4.02799 3.26533,-7.29332 7.29332,-7.29332c4.02799,0 7.29332,3.26533 7.29332,7.29332c0,4.02799 -3.26533,7.29332 -7.29332,7.29332c-4.02799,0 -7.29332,-3.26533 -7.29332,-7.29332z" fill="#0c295d"/><path d="M180.5537,125.34483c0,-2.97304 2.41012,-5.38317 5.38317,-5.38317c2.97304,0 5.38317,2.41013 5.38317,5.38317c0,2.97304 -2.41012,5.38317 -5.38317,5.38317c-2.97304,0 -5.38317,-2.41013 -5.38317,-5.38317z" fill="#0c295d"/><path d="M157.57048,125.71309c0,-7.00104 5.67546,-12.67649 12.67649,-12.67649c7.00104,0 12.67649,5.67546 12.67649,12.67649c0,7.00104 -6.67546,8.67649 -13.67649,8.67649c-7.00104,0 -11.67649,-1.67546 -11.67649,-8.67649z" fill="#0c295d"/><path d="M145.19788,125.19214c0,-2.58942 2.09914,-4.68857 4.68857,-4.68857c2.58942,0 4.68857,2.09914 4.68857,4.68857c0,1.44899 -0.65731,2.74447 -1.69002,3.60451c-0.81279,0.67689 -1.85812,1.08406 -2.99855,1.08406c-2.58942,0 -4.68857,-2.09914 -4.68857,-4.68857z" fill="#0c295d"/><path d="M172.21848,124.84483c0,-3.93208 3.18759,-7.11967 7.11967,-7.11967c3.93208,0 7.11967,3.18759 7.11967,7.11967c0,3.93208 -3.18759,7.11967 -7.11967,7.11967c-3.93208,0 -7.11967,-3.18759 -7.11967,-7.11967z" fill="#0c295d"/><path d="M158.64832,122.68198c0,-7.00104 5.67546,-12.67649 12.67649,-12.67649c7.00104,0 12.67649,5.67546 12.67649,12.67649c0,7.00104 -5.67546,9.67649 -12.67649,9.67649c-4.23178,0 -7.97925,-0.97751 -10.28176,-3.29693c-1.50675,-1.51782 -2.39473,-3.6103 -2.39473,-6.37956z" fill="#0c295d"/></g><g stroke="#000000" stroke-width="0"><g><path d="M386.61042,296.98122c0,-8.88375 7.2017,-16.08545 16.08545,-16.08545c8.88375,0 16.08545,7.2017 16.08545,16.08545c0,8.88375 -7.2017,16.08545 -16.08545,16.08545c-8.88375,0 -16.08545,-7.2017 -16.08545,-16.08545z" fill="#153267"/><path d="M368.22705,304.6409c0,-8.88375 7.2017,-16.08545 16.08545,-16.08545c8.88375,0 16.08545,7.2017 16.08545,16.08545c0,8.88375 -7.2017,16.08545 -16.08545,16.08545c-8.88375,0 -16.08545,-7.2017 -16.08545,-16.08545z" fill="#153267"/><path d="M396.56808,287.78954c0,-8.88375 7.2017,-16.08545 16.08545,-16.08545c8.88375,0 16.08545,7.2017 16.08545,16.08545c0,8.88375 -7.2017,16.08545 -16.08545,16.08545c-8.88375,0 -16.08545,-7.2017 -16.08545,-16.08545z" fill="#153267"/><path d="M443.29246,310.38572c0,-6.55704 5.31553,-11.87259 11.87259,-11.87259c6.55706,0 11.87259,5.31555 11.87259,11.87259c0,6.55704 -5.31553,11.87259 -11.87259,11.87259c-6.55706,0 -11.87259,-5.31555 -11.87259,-11.87259z" fill="#153267"/><path d="M411.12157,288.17251c0,-7.40312 5.23544,-8.04272 12.63856,-8.04272c7.40312,0 22.59622,13.66115 22.59622,21.06427c0,7.40312 -9.06531,6.51078 -16.46843,6.51078c-7.40312,0 -18.76635,-12.12921 -18.76635,-19.53233z" fill="#153267"/><path d="M387.08915,312.30066c0,-15.4408 12.51723,-27.95804 27.95804,-27.95804c15.4408,0 27.95804,12.51723 27.95804,27.95804c0,15.4408 -12.51723,27.95804 -27.95804,27.95804c-15.4408,0 -27.95804,-12.51723 -27.95804,-27.95804z" fill="#0c295d"/><path d="M367.46108,322.25834c0,-8.88375 7.2017,-16.08545 16.08545,-16.08545c8.88375,0 16.08545,7.2017 16.08545,16.08545c0,8.88375 -7.2017,16.08545 -16.08545,16.08545c-8.88375,0 -16.08545,-7.2017 -16.08545,-16.08545z" fill="#0c295d"/><path d="M349.84369,314.59861c0,-6.34552 5.14408,-11.4896 11.4896,-11.4896c6.34552,0 11.4896,5.14408 11.4896,11.4896c0,6.34552 -5.14408,11.4896 -11.4896,11.4896c-6.34552,0 -11.4896,-5.14408 -11.4896,-11.4896z" fill="#153267"/><path d="M424.9091,310.38572c0,-8.67221 7.03024,-15.70246 15.70246,-15.70246c8.67221,0 15.70246,7.03024 15.70246,15.70246c0,8.67221 -7.03024,15.70246 -15.70246,15.70246c-8.67221,0 -15.70246,-7.03024 -15.70246,-15.70246z" fill="#153267"/></g><g fill="#0c295d"><path d="M385.99764,302.34299c0,-8.88375 7.2017,-16.08545 16.08545,-16.08545c8.88375,0 16.08545,7.2017 16.08545,16.08545c0,8.88375 -7.2017,16.08545 -16.08545,16.08545c-8.88375,0 -16.08545,-7.2017 -16.08545,-16.08545z"/><path d="M367.61428,310.00275c0,-8.88375 7.2017,-16.08545 16.08545,-16.08545c8.88375,0 16.08545,7.2017 16.08545,16.08545c0,8.88375 -7.2017,16.08545 -16.08545,16.08545c-8.88375,0 -16.08545,-7.2017 -16.08545,-16.08545z"/><path d="M395.9553,293.1513c0,-8.88375 7.2017,-16.08545 16.08545,-16.08545c8.88375,0 16.08545,7.2017 16.08545,16.08545c0,8.88375 -7.2017,16.08545 -16.08545,16.08545c-8.88375,0 -16.08545,-7.2017 -16.08545,-16.08545z"/><path d="M442.67969,315.74757c0,-6.55704 5.31553,-11.87259 11.87259,-11.87259c6.55706,0 11.87259,5.31555 11.87259,11.87259c0,6.55704 -5.31553,11.87259 -11.87259,11.87259c-6.55706,0 -11.87259,-5.31555 -11.87259,-11.87259z"/><path d="M410.5088,293.53432c0,-7.40312 5.23544,-8.04272 12.63856,-8.04272c7.40312,0 22.59622,13.66115 22.59622,21.06427c0,7.40312 -9.06531,6.51078 -16.46843,6.51078c-7.40312,0 -18.76635,-12.12921 -18.76635,-19.53233z"/><path d="M386.47638,316.66247c0,-15.4408 12.51723,-27.95804 27.95804,-27.95804c15.4408,0 27.95804,12.51723 27.95804,27.95804c0,15.4408 -12.51723,23.95804 -27.95804,23.95804c-15.4408,0 -27.95804,-8.51723 -27.95804,-23.95804z"/><path d="M366.8483,327.62014c0,-8.88375 7.2017,-16.08545 16.08545,-16.08545c8.88375,0 16.08545,7.2017 16.08545,16.08545c0,8.88375 -6.2017,10.08545 -15.08545,10.08545c-8.88375,0 -17.08545,-1.2017 -17.08545,-10.08545z"/><path d="M349.23091,319.96038c0,-6.34554 5.14406,-11.4896 11.4896,-11.4896c6.34554,0 11.4896,5.14406 11.4896,11.4896c0,6.34554 -5.14406,11.4896 -11.4896,11.4896c-6.34554,0 -11.4896,-5.14406 -11.4896,-11.4896z"/><path d="M424.29632,315.74757c0,-8.67221 7.03024,-15.70246 15.70246,-15.70246c8.67221,0 15.70246,7.03024 15.70246,15.70246c0,8.67221 -7.03024,15.70246 -15.70246,15.70246c-7.09229,0 -31.08639,-0.702 -33.03503,-7.15876c-0.43409,-1.43835 17.33257,-6.96378 17.33257,-8.5437z"/></g></g><g stroke="#000000" stroke-width="0"><path d="M284.42556,276.79062c0,-5.28338 4.28304,-9.56642 9.56642,-9.56642c5.28338,0 9.56642,4.28304 9.56642,9.56642c0,5.28338 -4.28304,9.56642 -9.56642,9.56642c-5.28338,0 -9.56642,-4.28304 -9.56642,-9.56642z" fill="#153267"/><path d="M267.29657,280.37582c0,-9.40702 7.62589,-17.0329 17.0329,-17.0329c9.40702,0 17.0329,7.62589 17.0329,17.0329c0,9.40702 -7.62589,17.0329 -17.0329,17.0329c-9.40702,0 -17.0329,-7.62589 -17.0329,-17.0329z" fill="#153267"/><path d="M250.47827,283.77765c0,-3.99476 3.23838,-7.23315 7.23315,-7.23315c3.99476,0 7.23315,3.2384 7.23315,7.23315c0,3.99476 -3.23838,7.23315 -7.23315,7.23315c-3.99476,0 -7.23315,-3.2384 -7.23315,-7.23315z" fill="#153267"/><path d="M261.36155,278.56723c0,-5.41225 4.38749,-9.79974 9.79974,-9.79974c5.41225,0 9.79974,4.38749 9.79974,9.79974c0,5.41225 -4.38749,9.79974 -9.79974,9.79974c-5.41225,0 -9.79974,-4.38749 -9.79974,-9.79974z" fill="#153267"/><path d="M272.80271,268.8692c0,-4.85569 4.38749,-8.792 9.79974,-8.792c5.41225,0 9.79974,3.93632 9.79974,8.792c0,4.85569 -4.38749,8.792 -9.79974,8.792c-5.41225,0 -9.79974,-3.93631 -9.79974,-8.792z" fill="#153267"/><path d="M297.77512,283.24019c0,-3.99476 3.23838,-7.23315 7.23315,-7.23315c3.99476,0 7.23315,3.2384 7.23315,7.23315c0,3.99476 -3.23838,7.23315 -7.23315,7.23315c-3.99476,0 -7.23315,-3.2384 -7.23315,-7.23315z" fill="#153267"/><path d="M254.80108,289.66715c0,-5.41225 4.38749,-9.79974 9.79974,-9.79974c5.41225,0 9.79974,4.38749 9.79974,9.79974c0,5.41225 -3.38749,4.79974 -8.79974,4.79974c-5.41225,0 -10.79974,0.61251 -10.79974,-4.79974z" fill="#0c295d"/><path d="M260.49428,281.73398c0,-5.41225 4.38749,-9.79974 9.79974,-9.79974c5.41225,0 9.79974,4.38749 9.79974,9.79974c0,5.41225 -4.38749,9.79974 -9.79974,9.79974c-5.41225,0 -9.79974,-4.38749 -9.79974,-9.79974z" fill="#0c295d"/><path d="M272.83247,273.27792c0,-5.41225 4.38749,-9.79974 9.79974,-9.79974c5.41225,0 9.79974,4.38749 9.79974,9.79974c0,5.41225 -4.38749,9.79974 -9.79974,9.79974c-5.41225,0 -9.79974,-4.38749 -9.79974,-9.79974z" fill="#0c295d"/><path d="M297.26743,286.37239c0,-3.99476 3.23838,-7.23315 7.23315,-7.23315c3.99476,0 7.23315,3.2384 7.23315,7.23315c0,3.99476 -3.23838,7.23315 -7.23315,7.23315c-3.99476,0 -7.23315,-3.2384 -7.23315,-7.23315z" fill="#0c295d"/><path d="M266.38579,286.86717c0,-9.40702 7.62589,-17.0329 17.0329,-17.0329c9.40702,0 17.0329,7.62589 17.0329,17.0329c0,9.40702 -6.62589,11.0329 -16.0329,11.0329c-9.40702,0 -18.0329,-1.62589 -18.0329,-11.0329z" fill="#0c295d"/><path d="M249.76121,286.1672c0,-3.4793 2.82053,-6.29985 6.29985,-6.29985c3.4793,0 6.29985,2.82053 6.29985,6.29985c0,3.4793 -2.82053,6.29985 -6.29985,6.29985c-3.4793,0 -6.29985,-2.82053 -6.29985,-6.29985z" fill="#0c295d"/><path d="M286.06772,285.70056c0,-5.28338 4.28304,-9.56642 9.56642,-9.56642c5.28338,0 9.56642,4.28304 9.56642,9.56642c0,5.28338 -4.28304,9.56642 -9.56642,9.56642c-5.28338,0 -9.56642,-4.28304 -9.56642,-9.56642z" fill="#0c295d"/><path d="M267.83404,282.7944c0,-9.40702 7.62589,-17.0329 17.0329,-17.0329c9.40702,0 17.0329,7.62589 17.0329,17.0329c0,9.40702 -8.62589,8.0329 -18.0329,8.0329c-9.40702,0 -16.0329,1.37411 -16.0329,-8.0329z" fill="#0c295d"/></g><g stroke="#000000" stroke-width="0"><path d="M82.39272,57.66267c0,-3.93208 3.18759,-7.11967 7.11967,-7.11967c3.93208,0 7.11967,3.18759 7.11967,7.11967c0,3.93208 -3.18759,7.11967 -7.11967,7.11967c-3.93208,0 -7.11967,-3.18759 -7.11967,-7.11967z" fill="#153267"/><path d="M69.64471,60.33092c0,-7.00104 5.67546,-12.67649 12.67649,-12.67649c7.00104,0 12.67649,5.67546 12.67649,12.67649c0,7.00104 -5.67546,12.67649 -12.67649,12.67649c-7.00104,0 -12.67649,-5.67546 -12.67649,-12.67649z" fill="#153267"/><path d="M57.12794,62.86268c0,-2.97304 2.41012,-5.38317 5.38317,-5.38317c2.97304,0 5.38317,2.41013 5.38317,5.38317c0,2.97304 -2.41012,5.38317 -5.38317,5.38317c-2.97304,0 -5.38317,-2.41013 -5.38317,-5.38317z" fill="#153267"/><path d="M65.22766,58.9849c0,-4.02799 3.26533,-7.29332 7.29332,-7.29332c4.02799,0 7.29332,3.26533 7.29332,7.29332c0,4.02799 -3.26533,7.29332 -7.29332,7.29332c-4.02799,0 -7.29332,-3.26533 -7.29332,-7.29332z" fill="#153267"/><path d="M73.74258,51.76728c0,-3.61378 3.26533,-6.54332 7.29332,-6.54332c4.02799,0 7.29332,2.92955 7.29332,6.54332c0,3.61378 -3.26533,6.54332 -7.29332,6.54332c-4.02799,0 -7.29332,-2.92954 -7.29332,-6.54332z" fill="#153267"/><path d="M92.32794,62.46267c0,-2.97304 2.41012,-5.38317 5.38317,-5.38317c2.97304,0 5.38317,2.41013 5.38317,5.38317c0,2.97304 -2.41012,5.38317 -5.38317,5.38317c-2.97304,0 -5.38317,-2.41013 -5.38317,-5.38317z" fill="#153267"/><path d="M60.34513,67.24584c0,-4.02799 3.26533,-7.29332 7.29332,-7.29332c4.02799,0 7.29332,3.26533 7.29332,7.29332c0,4.02799 -2.26533,5.29332 -6.29332,5.29332c-4.02799,0 -8.29332,-1.26533 -8.29332,-5.29332z" fill="#0c295d"/><path d="M64.58221,61.34173c0,-4.02799 3.26533,-7.29332 7.29332,-7.29332c4.02799,0 7.29332,3.26533 7.29332,7.29332c0,4.02799 -3.26533,7.29332 -7.29332,7.29332c-4.02799,0 -7.29332,-3.26533 -7.29332,-7.29332z" fill="#0c295d"/><path d="M73.76473,55.04839c0,-4.02799 3.26533,-7.29332 7.29332,-7.29332c4.02799,0 7.29332,3.26533 7.29332,7.29332c0,4.02799 -3.26533,7.29332 -7.29332,7.29332c-4.02799,0 -7.29332,-3.26533 -7.29332,-7.29332z" fill="#0c295d"/><path d="M91.9501,64.79376c0,-2.97304 2.41012,-5.38317 5.38317,-5.38317c2.97304,0 5.38317,2.41013 5.38317,5.38317c0,2.97304 -2.41012,5.38317 -5.38317,5.38317c-2.97304,0 -5.38317,-2.41013 -5.38317,-5.38317z" fill="#0c295d"/><path d="M68.96688,65.16203c0,-7.00104 5.67546,-12.67649 12.67649,-12.67649c7.00104,0 12.67649,5.67546 12.67649,12.67649c0,7.00104 -6.67546,8.67649 -13.67649,8.67649c-7.00104,0 -11.67649,-1.67546 -11.67649,-8.67649z" fill="#0c295d"/><path d="M56.59428,64.64108c0,-2.58942 2.09914,-4.68857 4.68857,-4.68857c2.58942,0 4.68857,2.09914 4.68857,4.68857c0,1.44899 -0.65731,2.74447 -1.69002,3.60451c-0.81279,0.67689 -1.85812,1.08406 -2.99855,1.08406c-2.58942,0 -4.68857,-2.09914 -4.68857,-4.68857z" fill="#0c295d"/><path d="M83.61488,64.29376c0,-3.93208 3.18759,-7.11967 7.11967,-7.11967c3.93208,0 7.11967,3.18759 7.11967,7.11967c0,3.93208 -3.18759,7.11967 -7.11967,7.11967c-3.93208,0 -7.11967,-3.18759 -7.11967,-7.11967z" fill="#0c295d"/><path d="M70.04472,62.13092c0,-7.00104 5.67546,-12.67649 12.67649,-12.67649c7.00104,0 12.67649,5.67546 12.67649,12.67649c0,7.00104 -5.67546,9.67649 -12.67649,9.67649c-4.23178,0 -7.97925,-0.97751 -10.28176,-3.29693c-1.50675,-1.51782 -2.39473,-3.6103 -2.39473,-6.37956z" fill="#0c295d"/></g><g stroke="#000000" stroke-width="0"><g><path d="M388.18346,53.77141c0,-5.79899 4.70101,-10.5 10.5,-10.5c5.79899,0 10.5,4.70101 10.5,10.5c0,5.79899 -4.70101,10.5 -10.5,10.5c-5.79899,0 -10.5,-4.70101 -10.5,-10.5z" fill="#153267"/><path d="M376.18346,58.77141c0,-5.79899 4.70101,-10.5 10.5,-10.5c5.79899,0 10.5,4.70101 10.5,10.5c0,5.79899 -4.70101,10.5 -10.5,10.5c-5.79899,0 -10.5,-4.70101 -10.5,-10.5z" fill="#153267"/><path d="M394.68346,47.77141c0,-5.79899 4.70101,-10.5 10.5,-10.5c5.79899,0 10.5,4.70101 10.5,10.5c0,5.79899 -4.70101,10.5 -10.5,10.5c-5.79899,0 -10.5,-4.70101 -10.5,-10.5z" fill="#153267"/><path d="M425.18346,62.52141c0,-4.2802 3.46979,-7.75 7.75,-7.75c4.28021,0 7.75,3.4698 7.75,7.75c0,4.2802 -3.46979,7.75 -7.75,7.75c-4.28021,0 -7.75,-3.4698 -7.75,-7.75z" fill="#153267"/><path d="M404.18346,48.02141c0,-4.83249 3.41751,-5.25 8.25,-5.25c4.83249,0 14.75,8.91751 14.75,13.75c0,4.83249 -5.91751,4.25 -10.75,4.25c-4.83249,0 -12.25,-7.91751 -12.25,-12.75z" fill="#153267"/><path d="M388.49596,63.77141c0,-10.0792 8.1708,-18.25 18.25,-18.25c10.0792,0 18.25,8.1708 18.25,18.25c0,10.0792 -8.1708,18.25 -18.25,18.25c-10.0792,0 -18.25,-8.1708 -18.25,-18.25z" fill="#0c295d"/><path d="M375.68346,70.27141c0,-5.79899 4.70101,-10.5 10.5,-10.5c5.79899,0 10.5,4.70101 10.5,10.5c0,5.79899 -4.70101,10.5 -10.5,10.5c-5.79899,0 -10.5,-4.70101 -10.5,-10.5z" fill="#0c295d"/><path d="M364.18346,65.27141c0,-4.14213 3.35787,-7.5 7.5,-7.5c4.14213,0 7.5,3.35787 7.5,7.5c0,4.14213 -3.35787,7.5 -7.5,7.5c-4.14213,0 -7.5,-3.35787 -7.5,-7.5z" fill="#153267"/><path d="M413.18346,62.52141c0,-5.66091 4.58909,-10.25 10.25,-10.25c5.66091,0 10.25,4.58909 10.25,10.25c0,5.66091 -4.58909,10.25 -10.25,10.25c-5.66091,0 -10.25,-4.58909 -10.25,-10.25z" fill="#153267"/></g><g fill="#0c295d"><path d="M387.78346,57.27141c0,-5.79899 4.70101,-10.5 10.5,-10.5c5.79899,0 10.5,4.70101 10.5,10.5c0,5.79899 -4.70101,10.5 -10.5,10.5c-5.79899,0 -10.5,-4.70101 -10.5,-10.5z"/><path d="M375.78346,62.27141c0,-5.79899 4.70101,-10.5 10.5,-10.5c5.79899,0 10.5,4.70101 10.5,10.5c0,5.79899 -4.70101,10.5 -10.5,10.5c-5.79899,0 -10.5,-4.70101 -10.5,-10.5z"/><path d="M394.28346,51.27141c0,-5.79899 4.70101,-10.5 10.5,-10.5c5.79899,0 10.5,4.70101 10.5,10.5c0,5.79899 -4.70101,10.5 -10.5,10.5c-5.79899,0 -10.5,-4.70101 -10.5,-10.5z"/><path d="M424.78346,66.02141c0,-4.2802 3.46979,-7.75 7.75,-7.75c4.28021,0 7.75,3.4698 7.75,7.75c0,4.2802 -3.46979,7.75 -7.75,7.75c-4.28021,0 -7.75,-3.4698 -7.75,-7.75z"/><path d="M403.78346,51.52141c0,-4.83249 3.41751,-5.25 8.25,-5.25c4.83249,0 14.75,8.91751 14.75,13.75c0,4.83249 -5.91751,4.25 -10.75,4.25c-4.83249,0 -12.25,-7.91751 -12.25,-12.75z"/><path d="M388.09596,67.27141c0,-10.0792 8.1708,-18.25 18.25,-18.25c10.0792,0 18.25,8.1708 18.25,18.25c0,10.0792 -8.1708,15.25 -18.25,15.25c-10.0792,0 -18.25,-5.1708 -18.25,-15.25z"/><path d="M376.28346,73.77141c0,-5.79899 4.70101,-10.5 10.5,-10.5c5.79899,0 10.5,4.70101 10.5,10.5c0,5.79899 -3.70101,7.5 -9.5,7.5c-5.79899,0 -11.5,-1.70101 -11.5,-7.5z"/><path d="M363.78346,68.77141c0,-4.14214 3.35786,-7.5 7.5,-7.5c4.14214,0 7.5,3.35786 7.5,7.5c0,4.14214 -3.35786,7.5 -7.5,7.5c-4.14214,0 -7.5,-3.35786 -7.5,-7.5z"/><path d="M412.78346,66.02141c0,-5.66091 4.58909,-10.25 10.25,-10.25c5.66091,0 10.25,4.58909 10.25,10.25c0,5.66091 -4.58909,10.25 -10.25,10.25c-5.66091,0 -10.25,-4.58909 -10.25,-10.25z"/></g></g><g stroke="#000000" stroke-width="0"><g><path d="M74.88317,281.51018c0,-5.79899 4.70101,-10.5 10.5,-10.5c5.79899,0 10.5,4.70101 10.5,10.5c0,5.79899 -4.70101,10.5 -10.5,10.5c-5.79899,0 -10.5,-4.70101 -10.5,-10.5z" fill="#153267"/><path d="M62.88317,286.51018c0,-5.79899 4.70101,-10.5 10.5,-10.5c5.79899,0 10.5,4.70101 10.5,10.5c0,5.79899 -4.70101,10.5 -10.5,10.5c-5.79899,0 -10.5,-4.70101 -10.5,-10.5z" fill="#153267"/><path d="M81.38317,275.51018c0,-5.79899 4.70101,-10.5 10.5,-10.5c5.79899,0 10.5,4.70101 10.5,10.5c0,5.79899 -4.70101,10.5 -10.5,10.5c-5.79899,0 -10.5,-4.70101 -10.5,-10.5z" fill="#153267"/><path d="M111.88317,290.26018c0,-4.2802 3.46979,-7.75 7.75,-7.75c4.28021,0 7.75,3.4698 7.75,7.75c0,4.2802 -3.46979,7.75 -7.75,7.75c-4.28021,0 -7.75,-3.4698 -7.75,-7.75z" fill="#153267"/><path d="M90.88317,275.76018c0,-4.83249 3.41751,-5.25 8.25,-5.25c4.83249,0 14.75,8.91751 14.75,13.75c0,4.83249 -5.91751,4.25 -10.75,4.25c-4.83249,0 -12.25,-7.91751 -12.25,-12.75z" fill="#153267"/><path d="M75.19567,291.51018c0,-10.0792 8.1708,-18.25 18.25,-18.25c10.0792,0 18.25,8.1708 18.25,18.25c0,10.0792 -8.1708,18.25 -18.25,18.25c-10.0792,0 -18.25,-8.1708 -18.25,-18.25z" fill="#0c295d"/><path d="M62.38317,298.01018c0,-5.79899 4.70101,-10.5 10.5,-10.5c5.79899,0 10.5,4.70101 10.5,10.5c0,5.79899 -4.70101,10.5 -10.5,10.5c-5.79899,0 -10.5,-4.70101 -10.5,-10.5z" fill="#0c295d"/><path d="M50.88317,293.01018c0,-4.14213 3.35787,-7.5 7.5,-7.5c4.14213,0 7.5,3.35787 7.5,7.5c0,4.14213 -3.35787,7.5 -7.5,7.5c-4.14213,0 -7.5,-3.35787 -7.5,-7.5z" fill="#153267"/><path d="M99.88317,290.26018c0,-5.66091 4.58909,-10.25 10.25,-10.25c5.66091,0 10.25,4.58909 10.25,10.25c0,5.66091 -4.58909,10.25 -10.25,10.25c-5.66091,0 -10.25,-4.58909 -10.25,-10.25z" fill="#153267"/></g><g fill="#0c295d"><path d="M74.48317,285.01018c0,-5.79899 4.70101,-10.5 10.5,-10.5c5.79899,0 10.5,4.70101 10.5,10.5c0,5.79899 -4.70101,10.5 -10.5,10.5c-5.79899,0 -10.5,-4.70101 -10.5,-10.5z"/><path d="M62.48317,290.01018c0,-5.79899 4.70101,-10.5 10.5,-10.5c5.79899,0 10.5,4.70101 10.5,10.5c0,5.79899 -4.70101,10.5 -10.5,10.5c-5.79899,0 -10.5,-4.70101 -10.5,-10.5z"/><path d="M80.98317,279.01018c0,-5.79899 4.70101,-10.5 10.5,-10.5c5.79899,0 10.5,4.70101 10.5,10.5c0,5.79899 -4.70101,10.5 -10.5,10.5c-5.79899,0 -10.5,-4.70101 -10.5,-10.5z"/><path d="M111.48317,293.76018c0,-4.2802 3.46979,-7.75 7.75,-7.75c4.28021,0 7.75,3.4698 7.75,7.75c0,4.2802 -3.46979,7.75 -7.75,7.75c-4.28021,0 -7.75,-3.4698 -7.75,-7.75z"/><path d="M90.48317,279.26018c0,-4.83249 3.41751,-5.25 8.25,-5.25c4.83249,0 14.75,8.91751 14.75,13.75c0,4.83249 -5.91751,4.25 -10.75,4.25c-4.83249,0 -12.25,-7.91751 -12.25,-12.75z"/><path d="M74.79567,295.01018c0,-10.0792 8.1708,-18.25 18.25,-18.25c10.0792,0 18.25,8.1708 18.25,18.25c0,10.0792 -8.1708,15.25 -18.25,15.25c-10.0792,0 -18.25,-5.1708 -18.25,-15.25z"/><path d="M62.98317,301.51018c0,-5.79899 4.70101,-10.5 10.5,-10.5c5.79899,0 10.5,4.70101 10.5,10.5c0,5.79899 -3.70101,7.5 -9.5,7.5c-5.79899,0 -11.5,-1.70101 -11.5,-7.5z"/><path d="M50.48317,296.51018c0,-4.14214 3.35786,-7.5 7.5,-7.5c4.14214,0 7.5,3.35786 7.5,7.5c0,4.14214 -3.35786,7.5 -7.5,7.5c-4.14214,0 -7.5,-3.35786 -7.5,-7.5z"/><path d="M99.48317,293.76018c0,-5.66091 4.58909,-10.25 10.25,-10.25c5.66091,0 10.25,4.58909 10.25,10.25c0,5.66091 -4.58909,10.25 -10.25,10.25c-5.66091,0 -10.25,-4.58909 -10.25,-10.25z"/></g></g><g stroke="#000000" stroke-width="0"><path d="M146.98241,217.38402c0,-3.03757 2.46243,-5.5 5.5,-5.5c3.03757,0 5.5,2.46243 5.5,5.5c0,3.03757 -2.46243,5.5 -5.5,5.5c-3.03757,0 -5.5,-2.46243 -5.5,-5.5z" fill="#153267"/><g><path d="M178.13241,203.38402c0,-5.79899 4.70101,-10.5 10.5,-10.5c5.79899,0 10.5,4.70101 10.5,10.5c0,5.79899 -4.70101,10.5 -10.5,10.5c-5.79899,0 -10.5,-4.70101 -10.5,-10.5z" fill="#153267"/><path d="M166.13241,208.38402c0,-5.79899 4.70101,-10.5 10.5,-10.5c5.79899,0 10.5,4.70101 10.5,10.5c0,5.79899 -4.70101,10.5 -10.5,10.5c-5.79899,0 -10.5,-4.70101 -10.5,-10.5z" fill="#153267"/><path d="M184.63241,197.38402c0,-5.79899 4.70101,-10.5 10.5,-10.5c5.79899,0 10.5,4.70101 10.5,10.5c0,5.79899 -4.70101,10.5 -10.5,10.5c-5.79899,0 -10.5,-4.70101 -10.5,-10.5z" fill="#153267"/><path d="M215.13241,212.13402c0,-4.2802 3.46979,-7.75 7.75,-7.75c4.28021,0 7.75,3.4698 7.75,7.75c0,4.2802 -3.46979,7.75 -7.75,7.75c-4.28021,0 -7.75,-3.4698 -7.75,-7.75z" fill="#153267"/><path d="M194.13241,197.63402c0,-4.83249 3.41751,-5.25 8.25,-5.25c4.83249,0 14.75,8.91751 14.75,13.75c0,4.83249 -5.91751,4.25 -10.75,4.25c-4.83249,0 -12.25,-7.91751 -12.25,-12.75z" fill="#153267"/><path d="M178.44491,213.38402c0,-10.0792 8.1708,-18.25 18.25,-18.25c10.0792,0 18.25,8.1708 18.25,18.25c0,10.0792 -8.1708,18.25 -18.25,18.25c-10.0792,0 -18.25,-8.1708 -18.25,-18.25z" fill="#0c295d"/><path d="M165.63241,219.88402c0,-5.79899 4.70101,-10.5 10.5,-10.5c5.79899,0 10.5,4.70101 10.5,10.5c0,5.79899 -4.70101,10.5 -10.5,10.5c-5.79899,0 -10.5,-4.70101 -10.5,-10.5z" fill="#0c295d"/><path d="M154.13241,214.88402c0,-4.14213 3.35787,-7.5 7.5,-7.5c4.14213,0 7.5,3.35787 7.5,7.5c0,4.14213 -3.35787,7.5 -7.5,7.5c-4.14213,0 -7.5,-3.35787 -7.5,-7.5z" fill="#153267"/><path d="M203.13241,212.13402c0,-5.66091 4.58909,-10.25 10.25,-10.25c5.66091,0 10.25,4.58909 10.25,10.25c0,5.66091 -4.58909,10.25 -10.25,10.25c-5.66091,0 -10.25,-4.58909 -10.25,-10.25z" fill="#153267"/></g><path d="M177.73241,206.88402c0,-5.79899 4.70101,-10.5 10.5,-10.5c5.79899,0 10.5,4.70101 10.5,10.5c0,5.79899 -4.70101,10.5 -10.5,10.5c-5.79899,0 -10.5,-4.70101 -10.5,-10.5z" fill="#0c295d"/><path d="M165.73241,211.88402c0,-5.79899 4.70101,-10.5 10.5,-10.5c5.79899,0 10.5,4.70101 10.5,10.5c0,5.79899 -4.70101,10.5 -10.5,10.5c-5.79899,0 -10.5,-4.70101 -10.5,-10.5z" fill="#0c295d"/><path d="M184.23241,200.88402c0,-5.79899 4.70101,-10.5 10.5,-10.5c5.79899,0 10.5,4.70101 10.5,10.5c0,5.79899 -4.70101,10.5 -10.5,10.5c-5.79899,0 -10.5,-4.70101 -10.5,-10.5z" fill="#0c295d"/><path d="M214.73241,215.63402c0,-4.2802 3.46979,-7.75 7.75,-7.75c4.28021,0 7.75,3.4698 7.75,7.75c0,4.2802 -3.46979,7.75 -7.75,7.75c-4.28021,0 -7.75,-3.4698 -7.75,-7.75z" fill="#0c295d"/><path d="M193.73241,201.13402c0,-4.83249 3.41751,-5.25 8.25,-5.25c4.83249,0 14.75,8.91751 14.75,13.75c0,4.83249 -5.91751,4.25 -10.75,4.25c-4.83249,0 -12.25,-7.91751 -12.25,-12.75z" fill="#0c295d"/><path d="M178.04491,216.88402c0,-10.0792 8.1708,-18.25 18.25,-18.25c10.0792,0 18.25,8.1708 18.25,18.25c0,10.0792 -11.1708,15.25 -21.25,15.25c-10.0792,0 -15.25,-5.1708 -15.25,-15.25z" fill="#0c295d"/><path d="M165.23241,223.38402c0,-5.79899 4.70101,-10.5 10.5,-10.5c5.79899,0 10.5,4.70101 10.5,10.5c0,5.79899 -4.70101,7.5 -10.5,7.5c-5.79899,0 -10.5,-1.70101 -10.5,-7.5z" fill="#0c295d"/><path d="M153.73241,218.38402c0,-4.14214 3.35786,-7.5 7.5,-7.5c4.14214,0 7.5,3.35786 7.5,7.5c0,4.14214 -3.35786,5.5 -7.5,5.5c-4.14214,0 -7.5,-1.35786 -7.5,-5.5z" fill="#0c295d"/><path d="M202.73241,215.63402c0,-5.66091 4.58909,-10.25 10.25,-10.25c5.66091,0 10.25,4.58909 10.25,10.25c0,5.66091 -4.58909,10.25 -10.25,10.25c-5.66091,0 -10.25,-4.58909 -10.25,-10.25z" fill="#0c295d"/><path d="M146.23241,219.38402c0,-3.03757 2.46243,-5.5 5.5,-5.5c3.03757,0 5.5,2.46243 5.5,5.5c0,3.03757 -2.46243,5.5 -5.5,5.5c-3.03757,0 -5.5,-2.46243 -5.5,-5.5z" fill="#0c295d"/></g><g stroke="#000000" stroke-width="0"><g><path d="M211.59788,40.375c0,-5.79899 4.70101,-10.5 10.5,-10.5c5.79899,0 10.5,4.70101 10.5,10.5c0,5.79899 -4.70101,10.5 -10.5,10.5c-5.79899,0 -10.5,-4.70101 -10.5,-10.5z" fill="#153267"/><path d="M199.59788,45.375c0,-5.79899 4.70101,-10.5 10.5,-10.5c5.79899,0 10.5,4.70101 10.5,10.5c0,5.79899 -4.70101,10.5 -10.5,10.5c-5.79899,0 -10.5,-4.70101 -10.5,-10.5z" fill="#153267"/><path d="M218.09788,34.375c0,-5.79899 4.70101,-10.5 10.5,-10.5c5.79899,0 10.5,4.70101 10.5,10.5c0,5.79899 -4.70101,10.5 -10.5,10.5c-5.79899,0 -10.5,-4.70101 -10.5,-10.5z" fill="#153267"/><path d="M248.59788,49.125c0,-4.2802 3.46979,-7.75 7.75,-7.75c4.28021,0 7.75,3.4698 7.75,7.75c0,4.2802 -3.46979,7.75 -7.75,7.75c-4.28021,0 -7.75,-3.4698 -7.75,-7.75z" fill="#153267"/><path d="M227.59788,34.625c0,-4.83249 3.41751,-5.25 8.25,-5.25c4.83249,0 14.75,8.91751 14.75,13.75c0,4.83249 -5.91751,4.25 -10.75,4.25c-4.83249,0 -12.25,-7.91751 -12.25,-12.75z" fill="#153267"/><path d="M211.91038,50.375c0,-10.0792 8.1708,-18.25 18.25,-18.25c10.0792,0 18.25,8.1708 18.25,18.25c0,10.0792 -8.1708,18.25 -18.25,18.25c-10.0792,0 -18.25,-8.1708 -18.25,-18.25z" fill="#0c295d"/><path d="M199.09788,56.875c0,-5.79899 4.70101,-10.5 10.5,-10.5c5.79899,0 10.5,4.70101 10.5,10.5c0,5.79899 -4.70101,10.5 -10.5,10.5c-5.79899,0 -10.5,-4.70101 -10.5,-10.5z" fill="#0c295d"/><path d="M187.59788,51.875c0,-4.14213 3.35787,-7.5 7.5,-7.5c4.14213,0 7.5,3.35787 7.5,7.5c0,4.14213 -3.35787,7.5 -7.5,7.5c-4.14213,0 -7.5,-3.35787 -7.5,-7.5z" fill="#153267"/><path d="M236.59788,49.125c0,-5.66091 4.58909,-10.25 10.25,-10.25c5.66091,0 10.25,4.58909 10.25,10.25c0,5.66091 -4.58909,10.25 -10.25,10.25c-5.66091,0 -10.25,-4.58909 -10.25,-10.25z" fill="#153267"/></g><g fill="#0c295d"><path d="M211.19788,43.875c0,-5.79899 4.70101,-10.5 10.5,-10.5c5.79899,0 10.5,4.70101 10.5,10.5c0,5.79899 -4.70101,10.5 -10.5,10.5c-5.79899,0 -10.5,-4.70101 -10.5,-10.5z"/><path d="M199.19788,48.875c0,-5.79899 4.70101,-10.5 10.5,-10.5c5.79899,0 10.5,4.70101 10.5,10.5c0,5.79899 -4.70101,10.5 -10.5,10.5c-5.79899,0 -10.5,-4.70101 -10.5,-10.5z"/><path d="M217.69788,37.875c0,-5.79899 4.70101,-10.5 10.5,-10.5c5.79899,0 10.5,4.70101 10.5,10.5c0,5.79899 -4.70101,10.5 -10.5,10.5c-5.79899,0 -10.5,-4.70101 -10.5,-10.5z"/><path d="M248.19788,52.625c0,-4.2802 3.46979,-7.75 7.75,-7.75c4.28021,0 7.75,3.4698 7.75,7.75c0,4.2802 -3.46979,7.75 -7.75,7.75c-4.28021,0 -7.75,-3.4698 -7.75,-7.75z"/><path d="M227.19788,38.125c0,-4.83249 3.41751,-5.25 8.25,-5.25c4.83249,0 14.75,8.91751 14.75,13.75c0,4.83249 -5.91751,4.25 -10.75,4.25c-4.83249,0 -12.25,-7.91751 -12.25,-12.75z"/><path d="M211.51038,53.875c0,-10.0792 8.1708,-18.25 18.25,-18.25c10.0792,0 18.25,8.1708 18.25,18.25c0,10.0792 -8.1708,15.25 -18.25,15.25c-10.0792,0 -18.25,-5.1708 -18.25,-15.25z"/><path d="M199.69788,60.375c0,-5.79899 4.70101,-10.5 10.5,-10.5c5.79899,0 10.5,4.70101 10.5,10.5c0,5.79899 -3.70101,7.5 -9.5,7.5c-5.79899,0 -11.5,-1.70101 -11.5,-7.5z"/><path d="M187.19788,55.375c0,-4.14214 3.35786,-7.5 7.5,-7.5c4.14214,0 7.5,3.35786 7.5,7.5c0,4.14214 -3.35786,7.5 -7.5,7.5c-4.14214,0 -7.5,-3.35786 -7.5,-7.5z"/><path d="M236.19788,52.625c0,-5.66091 4.58909,-10.25 10.25,-10.25c5.66091,0 10.25,4.58909 10.25,10.25c0,5.66091 -4.58909,10.25 -10.25,10.25c-5.66091,0 -10.25,-4.58909 -10.25,-10.25z"/></g></g></g></g></svg>