<svg version="1.1" xmlns="http://www.w3.org/2000/svg" xmlns:xlink="http://www.w3.org/1999/xlink" width="127.26397" height="63.86871" viewBox="0,0,127.26397,63.86871"><defs><radialGradient cx="234.22628" cy="159.21128" r="1.09792" gradientUnits="userSpaceOnUse" id="color-1"><stop offset="0" stop-color="#ffffff"/><stop offset="1" stop-color="#ffffff" stop-opacity="0"/></radialGradient><radialGradient cx="244.40533" cy="166.9474" r="9.18106" gradientUnits="userSpaceOnUse" id="color-2"><stop offset="0" stop-color="#ff8a00"/><stop offset="1" stop-color="#ffa100"/></radialGradient><radialGradient cx="236.40855" cy="159.69872" r="5.52248" gradientUnits="userSpaceOnUse" id="color-3"><stop offset="0" stop-color="#ffc600"/><stop offset="1" stop-color="#ffa100"/></radialGradient><radialGradient cx="234.85866" cy="162.15332" r="2.18151" gradientUnits="userSpaceOnUse" id="color-4"><stop offset="0" stop-color="#ffde00"/><stop offset="1" stop-color="#ffde00" stop-opacity="0"/></radialGradient></defs><g transform="translate(-176.36807,-147.87459)"><g data-paper-data="{&quot;isPaintingLayer&quot;:true}" stroke-miterlimit="10" stroke-dasharray="" stroke-dashoffset="0" style="mix-blend-mode: normal"><g><path d="M187.80297,150.81559c13.2702,0.00651 75.03576,0.03299 102.33449,0.04636c9.64494,0.00472 11.27898,3.06784 11.2538,6.10262c-0.05734,6.91446 -0.28854,34.79052 -0.39094,47.13724c-0.03023,3.64435 -4.0556,5.69152 -11.87951,5.69766c-26.53985,0.02081 -87.8545,0.31573 -100.86482,0.32593c-4.90366,0.00384 -8.87445,-2.64204 -8.8723,-5.36418c0.0054,-6.82821 0.02903,-36.64598 0.03862,-48.78343c0.00254,-3.19739 2.59395,-5.16504 8.38066,-5.16219z" data-paper-data="{&quot;origRot&quot;:0,&quot;index&quot;:null}" fill="#000000" fill-rule="evenodd" stroke="none" stroke-width="1" stroke-linecap="round" stroke-linejoin="round" opacity="0.42445"/><path d="M187.80297,150.81557c13.2702,0.00651 75.03576,0.03299 102.33449,0.04636c9.64494,0.00472 11.27898,3.06784 11.2538,6.10262c-0.05734,6.91446 -0.28854,34.79052 -0.39094,47.13724c-0.03023,3.64435 -4.0556,5.69152 -11.87951,5.69766c-26.53985,0.02081 -87.8545,0.31573 -100.86482,0.32593c-4.90366,0.00384 -8.87445,-2.64204 -8.8723,-5.36418c0.0054,-6.82821 0.02903,-36.64598 0.03862,-48.78343c0.00254,-3.19739 2.59395,-5.16504 8.38066,-5.16219z" data-paper-data="{&quot;origRot&quot;:0,&quot;index&quot;:null}" fill="#000000" fill-rule="evenodd" stroke="none" stroke-width="1" stroke-linecap="round" stroke-linejoin="round" opacity="0.42445"/><path d="M178.36807,195.52035c0,-10.92861 0,-25.17662 0,-31.4228c0,-5.96867 3.56373,-14.22296 8.26928,-14.22296c13.23289,0 77.82522,0.20715 103.88024,0.29359c6.86983,0.02279 11.11445,5.7616 11.11445,13.26784c0,10.81711 0,25.33461 0,31.75357c0,6.18466 -3.50625,14.55371 -9.30294,14.55371c-24.77054,0 -91.36565,0 -104.91649,0c-4.70554,0 -9.04452,-6.22188 -9.04452,-14.22296z" fill="none" fill-rule="nonzero" stroke="#000000" stroke-width="4" stroke-linecap="butt" stroke-linejoin="miter"/></g><text transform="translate(186.94495,196.29252) scale(0.35847,0.35847)" font-size="40" xml:space="preserve" fill="#ffffff" fill-rule="nonzero" stroke="none" stroke-width="1" stroke-linecap="butt" stroke-linejoin="miter" stroke-miterlimit="10" stroke-dasharray="" stroke-dashoffset="0" font-family="Malgun Gothic" font-weight="normal" text-anchor="start" style="mix-blend-mode: normal"><tspan x="0" dy="0">PROFESSIONAL</tspan></text><g fill-rule="nonzero" stroke-linecap="butt" stroke-linejoin="miter"><path d="M236.0166,157.98266c0.45031,0.40609 -0.32348,1.11536 -0.69833,1.53103c-0.37485,0.41567 -1.13237,0.82627 -1.58268,0.42019c-0.45031,-0.40609 -0.02079,-1.79483 0.35405,-2.2105c0.37485,-0.41567 1.47665,-0.1468 1.92695,0.25928z" fill="url(#color-1)" stroke="none" stroke-width="NaN"/><path d="M236.31058,177.60243c-5.67923,-1.61317 -8.97543,-7.52482 -7.36226,-13.20406c1.61317,-5.67923 7.52482,-8.97543 13.20405,-7.36226c5.67924,1.61317 8.97544,7.52482 7.36226,13.20405c-1.61317,5.67923 -7.52482,8.97543 -13.20405,7.36226z" fill="#9f2c00" stroke="none" stroke-width="0"/><path d="M248.07373,164.35608c0.57888,1.72224 0.66153,3.63124 0.12759,5.51104c-1.40714,4.9539 -6.56378,7.82912 -11.51768,6.42199c-2.7563,-0.78292 -4.8691,-2.72657 -5.95885,-5.15021c-0.86885,-1.93236 -1.08737,-4.16986 -0.46314,-6.36747c1.40714,-4.9539 6.56378,-7.82912 11.51768,-6.42199c3.0741,0.87319 5.34776,3.1902 6.2944,6.00664z" data-paper-data="{&quot;index&quot;:null}" fill="#ff6700" stroke="#ffffff" stroke-width="0"/><path d="M241.66889,158.4092c1.74687,0.49619 3.22756,1.4415 4.34591,2.66952c1.03832,1.14013 1.58582,1.99544 1.92249,3.48976c0.13127,0.5827 0.33339,2.19426 0.05089,3.37156c-0.49253,1.92789 -0.44968,1.63939 -1.24611,3.19224c-1.09645,1.56819 -1.10585,1.5829 -2.37835,2.62153c-1.17416,0.88423 -1.70335,1.15135 -2.68515,1.57584c-0.97174,0.25717 -1.46871,0.53621 -3.04986,0.54355c-1.77822,-0.08208 -1.78824,-0.12149 -2.66163,-0.39792c-1.24049,-0.263 -1.43554,-0.75915 -2.54735,-1.13854c-2.75595,-2.20585 -4.12133,-5.9266 -3.07393,-9.61405c1.38336,-4.8702 6.45288,-7.69684 11.32309,-6.31348z" data-paper-data="{&quot;index&quot;:null}" fill="url(#color-2)" stroke="#ffffff" stroke-width="0"/><path d="M232.44453,165.57097c-0.55727,-2.99864 1.42185,-5.88127 4.42049,-6.43854c2.99864,-0.55727 5.88128,1.42185 6.43855,4.42048c0.55727,2.99864 -1.42184,5.88128 -4.42048,6.43855c-2.99864,0.55727 -5.88128,-1.42185 -6.43855,-4.42049z" fill="url(#color-3)" stroke="#9f2c00" stroke-width="0"/><path d="M246.57876,161.31439c0,0 -0.87721,0.50157 -0.98692,0.54873c-1.99787,1.58573 -4.89171,5.32938 -6.46595,7.38393c-1.77285,1.41204 -2.75771,1.40642 -4.93003,0.81284c-0.04337,0.38093 -0.07277,0.76192 -0.08489,1.14183c0.92709,0.36409 1.89898,0.63467 2.99405,0.94024c2.80368,0.7977 6.94979,-0.06849 9.5967,-1.32305c0.11962,-0.03505 1.55507,-0.68042 1.55507,-0.68042l-0.32504,0.85624c-0.11456,0.03322 -0.91462,0.39748 -1.02919,0.4307c-2.77987,1.30139 -6.98802,1.99006 -9.97469,1.34018c-1.02148,-0.29639 -1.94188,-0.55683 -2.8194,-0.88362c0.0089,0.34504 0.03383,0.68862 0.07734,1.02989c1.48911,0.27159 3.00377,0.69712 4.27382,1.35833c0.93273,0.49035 1.58282,1.24079 2.58514,1.63504l1.33041,0.25428l-1.16898,0.33426c-1.0812,-0.30711 -2.05464,-1.15707 -3.03161,-1.66011c-1.16587,-0.60736 -2.5497,-1.00581 -3.92136,-1.26711c0.0138,0.25501 0.03911,0.49488 0.10261,0.75476l0.55377,1.31067l-0.79181,-0.52539c-0.09741,-0.38612 -0.47664,-1.25886 -0.4918,-1.65048c-0.49484,-0.08027 -1.03407,-0.15829 -1.50541,-0.20872l-0.5128,-0.68437c0.42222,0.04516 1.49432,0.17221 1.93525,0.24057c-0.04309,-0.38802 -0.06343,-0.77904 -0.06452,-1.1718c-0.95187,-0.40375 -2.17945,-0.78831 -3.13968,-1.55378l-0.17903,-0.84092c0.83623,0.66662 2.51284,1.33282 3.33582,1.70524c0.01866,-0.36404 0.05203,-0.72892 0.09734,-1.09368c-0.10861,-0.04653 -0.21762,-0.09789 -0.32705,-0.15427c-2.26749,-1.08683 -2.78813,-2.61811 -2.52815,-5.10622c0,0 0.23696,-1.43802 0.40315,-1.69605c0.15535,-0.24119 0.55794,-0.91877 0.55794,-0.91877l-0.51532,2.66734c-0.19769,2.2629 0.30326,3.50062 2.35862,4.48576c0.04799,0.02532 0.09587,0.04949 0.14365,0.07255c0.23839,-1.48333 0.64794,-2.95434 1.0436,-4.34556c0.7028,-2.07309 1.7118,-5.44172 3.76456,-6.6623c0.13624,-0.08101 0.59607,-0.11698 0.74283,-0.17827l0.71061,0.05017l-0.85233,0.38303c-2.14242,0.89873 -3.11145,4.64017 -3.77431,6.59306c-0.3995,1.40829 -0.81425,2.89526 -1.0413,4.39258c1.99316,0.60292 3.04907,0.47954 4.67717,-0.7738c1.55435,-2.0969 4.3024,-5.76304 6.3319,-7.33837c0.05966,-0.02656 0.84852,-0.43934 0.84852,-0.43934c0,0 0.36838,0.46675 0.44166,0.43414z" data-paper-data="{&quot;index&quot;:null}" fill="#9f2c00" stroke="#9f2c00" stroke-width="1"/><path d="M237.64981,163.18072c-0.32913,1.15871 -1.53525,1.83122 -2.69396,1.50209c-1.15871,-0.32913 -1.83122,-1.53525 -1.50209,-2.69396c0.32913,-1.15872 1.53526,-1.83122 2.69397,-1.5021c1.15872,0.32913 1.83122,1.53525 1.50209,2.69397z" data-paper-data="{&quot;index&quot;:null}" fill="url(#color-4)" stroke="none" stroke-width="0"/></g></g></g></svg>