<svg version="1.1" xmlns="http://www.w3.org/2000/svg" xmlns:xlink="http://www.w3.org/1999/xlink" width="23.43544" height="26.88104" viewBox="0,0,23.43544,26.88104"><g transform="translate(-228.28228,-166.55948)"><g data-paper-data="{&quot;isPaintingLayer&quot;:true}" stroke-linejoin="miter" stroke-miterlimit="10" stroke-dasharray="" stroke-dashoffset="0" style="mix-blend-mode: normal"><path d="M228.29235,177.67219h23.3866v4.78473h-23.3866z" fill="#2082cf" fill-rule="nonzero" stroke="none" stroke-width="1" stroke-linecap="butt"/><path d="M240.02441,170.05392c3.22657,0 6.14985,1.31004 8.26607,3.42733c2.1172,2.11612 3.42724,5.03949 3.42724,8.26597c0,3.22657 -1.31004,6.14985 -3.42724,8.26607c-2.11622,2.1172 -5.03949,3.42724 -8.26607,3.42724c-3.22657,0 -6.14985,-1.31004 -8.26607,-3.42724c-2.1172,-2.11622 -3.42724,-5.03949 -3.42724,-8.26607c0,-3.22647 1.31004,-6.14985 3.42724,-8.26597c2.11622,-2.11729 5.03949,-3.42733 8.26607,-3.42733z" fill="#ff7408" fill-rule="nonzero" stroke="none" stroke-width="1.05974" stroke-linecap="butt"/><path d="M234.44415,185.87459l9.2277,-9.96005l7.61651,8.78828l-0.34176,0.87883l-0.39059,1.12295l-0.63471,1.17177l-0.53706,0.83001l-0.53706,0.63471l-0.58589,0.68354l-0.58589,0.63471l-0.97648,0.73236l-1.0253,0.68354l-1.0253,0.43941l-1.07412,0.43941l-1.17177,0.29294l-1.22059,0.09765z" fill="#ff7408" fill-rule="nonzero" stroke="none" stroke-width="1" stroke-linecap="round"/><path d="M240.14091,174.96433c1.90589,0 3.63327,0.77395 4.88346,2.02521c1.25116,1.25018 2.02511,2.97757 2.02511,4.88336c0,1.90589 -0.77395,3.63327 -2.02511,4.88346c-1.25018,1.25116 -2.97757,2.02511 -4.88346,2.02511c-1.90579,0 -3.63318,-0.77395 -4.88336,-2.02511c-1.25126,-1.25018 -2.02521,-2.97757 -2.02521,-4.88346c0,-1.90579 0.77395,-3.63318 2.02521,-4.88336c1.25018,-1.25126 2.97757,-2.02521 4.88336,-2.02521z" fill="#ffffff" fill-rule="nonzero" stroke="#2082cf" stroke-width="2.08856" stroke-linecap="butt"/><path d="M240.16053,175.55978c1.74457,0 3.32529,0.70844 4.46953,1.85316c1.14482,1.14423 1.85316,2.72495 1.85316,4.46953c0,1.74467 -0.70834,3.32529 -1.85316,4.46953c-1.14423,1.14482 -2.72495,1.85316 -4.46953,1.85316c-1.74467,0 -3.32529,-0.70834 -4.46953,-1.85316c-1.14482,-1.14423 -1.85316,-2.72485 -1.85316,-4.46953c0,-1.74457 0.70834,-3.32529 1.85316,-4.46953c1.14423,-1.14472 2.72485,-1.85316 4.46953,-1.85316z" fill="#2082cf" fill-rule="nonzero" stroke="#2082cf" stroke-width="1.14602" stroke-linecap="butt"/><path d="M236.99353,185.08052h6.1518v4.54061l-6.00982,-1.39968z" fill="#2082cf" fill-rule="nonzero" stroke="none" stroke-width="0.84509" stroke-linecap="butt"/><path d="M241.44948,187.56672l1.39617,-0.89806l1.21503,1.8889l-1.39617,0.89806z" fill="#e3474f" fill-rule="nonzero" stroke="#ff7408" stroke-width="2" stroke-linecap="butt"/><path d="M237.1857,186.43929l1.45231,1.81058l-2.42801,0.04902z" fill="#ffffff" fill-rule="nonzero" stroke="#ff7408" stroke-width="2" stroke-linecap="round"/><path d="M239.97559,166.55948c3.22657,0 6.14985,1.31004 8.26607,3.42733c2.1172,2.11612 3.42724,5.03949 3.42724,8.26597c0,3.22657 -1.31004,6.14985 -3.42724,8.26607c-2.11622,2.1172 -5.03949,3.42724 -8.26607,3.42724c-3.22657,0 -6.14985,-1.31004 -8.26607,-3.42724c-2.1172,-2.11622 -3.42724,-5.03949 -3.42724,-8.26607c0,-3.22647 1.31004,-6.14985 3.42724,-8.26597c2.11622,-2.11729 5.03949,-3.42733 8.26607,-3.42733z" fill="#ffa208" fill-rule="nonzero" stroke="none" stroke-width="1.05974" stroke-linecap="butt"/><path d="M241.26646,174.4654c0,-0.59976 0.76367,-0.90602 1.20579,-0.48491l4.76959,4.54412c0.26795,0.25395 0.26795,0.68909 0,0.95706l-4.76959,4.52881c-0.44213,0.42239 -1.20579,0.12762 -1.20579,-0.48363v-2.1451l-7.12759,-0.94302c-0.64309,-0.07784 -1.17901,-0.5755 -1.27278,-1.21355c-0.12058,-0.79117 0.45552,-1.51854 1.27278,-1.62062l7.12759,-0.94302v-2.19614" data-paper-data="{&quot;index&quot;:null}" fill="#ffffff" fill-rule="evenodd" stroke="none" stroke-width="1" stroke-linecap="butt"/></g></g></svg>