<svg version="1.1" xmlns="http://www.w3.org/2000/svg" xmlns:xlink="http://www.w3.org/1999/xlink" width="206.91171" height="172.50523" viewBox="0,0,206.91171,172.50523"><defs><radialGradient cx="190.41573" cy="200.71417" r="1.66365" gradientUnits="userSpaceOnUse" id="color-1"><stop offset="0" stop-color="#ffffff"/><stop offset="1" stop-color="#ffffff" stop-opacity="0"/></radialGradient><radialGradient cx="205.83983" cy="212.43651" r="13.91184" gradientUnits="userSpaceOnUse" id="color-2"><stop offset="0" stop-color="#ff8a00"/><stop offset="1" stop-color="#ffa100"/></radialGradient><radialGradient cx="193.72249" cy="201.45276" r="8.36808" gradientUnits="userSpaceOnUse" id="color-3"><stop offset="0" stop-color="#ffc600"/><stop offset="1" stop-color="#ffa100"/></radialGradient><radialGradient cx="191.37396" cy="205.17217" r="3.30559" gradientUnits="userSpaceOnUse" id="color-4"><stop offset="0" stop-color="#ffde00"/><stop offset="1" stop-color="#ffde00" stop-opacity="0"/></radialGradient><linearGradient x1="281.79131" y1="198.83945" x2="281.79131" y2="225.16051" gradientUnits="userSpaceOnUse" id="color-5"><stop offset="0" stop-color="#ffaa21"/><stop offset="1" stop-color="#ff8c14"/></linearGradient><linearGradient x1="281.79131" y1="198.83945" x2="281.79131" y2="225.16051" gradientUnits="userSpaceOnUse" id="color-6"><stop offset="0" stop-color="#ffaa21"/><stop offset="1" stop-color="#ff8c14"/></linearGradient><linearGradient x1="281.79131" y1="198.83945" x2="281.79131" y2="225.16051" gradientUnits="userSpaceOnUse" id="color-7"><stop offset="0" stop-color="#ffaa21"/><stop offset="1" stop-color="#ff8c14"/></linearGradient></defs><g transform="translate(-136.54414,-93.74738)"><g data-paper-data="{&quot;isPaintingLayer&quot;:true}" stroke-miterlimit="10" stroke-dasharray="" stroke-dashoffset="0" style="mix-blend-mode: normal"><g><path d="M142.11238,96.82576l195.8506,0.16771l-0.78765,165.91357l-195.13832,0.26723z" data-paper-data="{&quot;origRot&quot;:0,&quot;index&quot;:null}" fill="#000000" fill-rule="evenodd" stroke="#000000" stroke-width="4" stroke-linecap="round" stroke-linejoin="round" opacity="0.42445"/><path d="M142.11238,96.82576l195.8506,0.16771l-0.78765,165.91357l-195.13832,0.26723z" data-paper-data="{&quot;origRot&quot;:0,&quot;index&quot;:null}" fill="#000000" fill-rule="evenodd" stroke="#000000" stroke-width="5" stroke-linecap="round" stroke-linejoin="round" opacity="0.42445"/><path d="M139.04414,263.75262v-167.50523h201.91171v167.50523z" fill="none" fill-rule="nonzero" stroke="#333333" stroke-width="5" stroke-linecap="butt" stroke-linejoin="miter"/></g><text transform="translate(193.03919,117.07461) scale(0.33643,0.33643)" font-size="40" xml:space="preserve" fill="#ffffff" fill-rule="nonzero" stroke="none" stroke-width="1" stroke-linecap="butt" stroke-linejoin="miter" stroke-miterlimit="10" stroke-dasharray="" stroke-dashoffset="0" font-family="Sans Serif" font-weight="normal" text-anchor="start" style="mix-blend-mode: normal"><tspan x="0" dy="0">WHAT TO DO ?</tspan></text><text transform="translate(155.79468,254.75974) scale(0.24522,0.24522)" font-size="40" xml:space="preserve" fill="#ffffff" fill-rule="nonzero" stroke="none" stroke-width="1" stroke-linecap="butt" stroke-linejoin="miter" stroke-miterlimit="10" stroke-dasharray="" stroke-dashoffset="0" font-family="Sans Serif" font-weight="normal" text-anchor="start" style="mix-blend-mode: normal"><tspan x="0" dy="0">CLICK TO SWITCH TO THE NEXT PAGE</tspan></text><text transform="translate(144.77224,142.08542) scale(0.228,0.228)" font-size="40" xml:space="preserve" fill="#ffffff" fill-rule="nonzero" stroke="none" stroke-width="1" stroke-linecap="butt" stroke-linejoin="miter" stroke-miterlimit="10" stroke-dasharray="" stroke-dashoffset="0" font-family="Sans Serif" font-weight="normal" text-anchor="start" style="mix-blend-mode: normal"><tspan x="0" dy="0">COLLECT ALL THE BALLS TO THE NET</tspan><tspan x="0" dy="46.15px">AND COLLECT ALL THE STARS TO UNLOCK</tspan><tspan x="0" dy="46.15px">NEW BALL SKINS IN THE SHOP. TRY TO BEAT</tspan><tspan x="0" dy="46.15px">THE HIGHSCORE.</tspan></text><g fill-rule="nonzero" stroke-linecap="butt" stroke-linejoin="miter"><path d="M193.12855,198.85246c0.68234,0.61533 -0.49016,1.69008 -1.05815,2.31993c-0.56799,0.62985 -1.71586,1.25203 -2.39819,0.6367c-0.68234,-0.61533 -0.03151,-2.71966 0.53648,-3.34951c0.56799,-0.62985 2.23753,-0.22245 2.91986,0.39288z" fill="url(#color-1)" stroke="none" stroke-width="NaN"/><path d="M193.57403,228.58181c-8.60559,-2.44439 -13.60025,-11.40217 -11.15585,-20.00778c2.4444,-8.60559 11.40219,-13.60026 20.00778,-11.15585c8.6056,2.4444 13.60027,11.40218 11.15586,20.00778c-2.44439,8.60559 -11.40219,13.60026 -20.00779,11.15586z" fill="#9f2c00" stroke="none" stroke-width="0"/><path d="M211.39844,208.50994c0.87716,2.60967 1.00241,5.50234 0.19333,8.35075c-2.13221,7.50652 -9.94593,11.86327 -17.45246,9.73108c-4.17656,-1.18634 -7.37803,-4.1315 -9.02929,-7.80398c-1.31654,-2.92806 -1.64766,-6.3185 -0.70179,-9.64847c2.13221,-7.50652 9.94592,-11.86328 17.45246,-9.73108c4.65811,1.32312 8.10333,4.83403 9.53775,9.10172z" data-paper-data="{&quot;index&quot;:null}" fill="#ff6700" stroke="#ffffff" stroke-width="0"/><path d="M201.69333,199.49879c2.647,0.75187 4.89064,2.18426 6.58524,4.04506c1.57334,1.72761 2.40296,3.02365 2.91311,5.28795c0.19891,0.88296 0.50518,3.32491 0.07712,5.10883c-0.74631,2.92129 -0.68139,2.48413 -1.8882,4.83713c-1.66143,2.37625 -1.67567,2.39853 -3.60385,3.97233c-1.77918,1.33986 -2.58104,1.74462 -4.06874,2.38783c-1.47246,0.38968 -2.22549,0.81251 -4.62138,0.82363c-2.6945,-0.12437 -2.70968,-0.18409 -4.0331,-0.60295c-1.87968,-0.39852 -2.17525,-1.15032 -3.85994,-1.72519c-4.17603,-3.34248 -6.24495,-8.98044 -4.65785,-14.56794c2.09618,-7.3797 9.77789,-11.66282 17.15759,-9.56666z" data-paper-data="{&quot;index&quot;:null}" fill="url(#color-2)" stroke="#ffffff" stroke-width="0"/><path d="M187.7159,210.35083c-0.84441,-4.54377 2.15449,-8.91174 6.69825,-9.75617c4.54377,-0.84441 8.91176,2.15449 9.75618,6.69825c0.84441,4.54377 -2.15448,8.91176 -6.69826,9.75618c-4.54377,0.84441 -8.91175,-2.15449 -9.75617,-6.69826z" fill="url(#color-3)" stroke="#9f2c00" stroke-width="0"/><path d="M209.13316,203.90094c0,0 -1.32921,0.76002 -1.49545,0.83148c-3.02732,2.40283 -7.41229,8.07548 -9.7977,11.18869c-2.68635,2.13963 -4.17869,2.13111 -7.47036,1.23168c-0.06571,0.57721 -0.11027,1.15451 -0.12864,1.73019c1.4048,0.5517 2.87748,0.9617 4.53681,1.42472c4.24834,1.20873 10.53085,-0.10378 14.54165,-2.00478c0.18125,-0.05311 2.35636,-1.03102 2.35636,-1.03102l-0.49253,1.29744c-0.17359,0.05033 -1.38591,0.60229 -1.55951,0.65263c-4.21227,1.97197 -10.58877,3.01548 -15.1144,2.03074c-1.54782,-0.44912 -2.94249,-0.84375 -4.27218,-1.33892c0.01349,0.52283 0.05127,1.04345 0.11719,1.56058c2.25642,0.41153 4.55155,1.05632 6.47601,2.05824c1.41333,0.74302 2.39842,1.88014 3.9172,2.47753l2.01593,0.3853l-1.77133,0.50649c-1.63832,-0.46536 -3.11335,-1.75328 -4.59372,-2.51552c-1.76661,-0.92031 -3.8635,-1.52409 -5.94195,-1.92002c0.0209,0.3864 0.05927,0.74989 0.15548,1.14366l0.83911,1.98603l-1.1998,-0.79612c-0.1476,-0.58507 -0.72225,-1.90752 -0.74522,-2.50092c-0.74982,-0.12163 -1.56691,-0.23985 -2.2811,-0.31626l-0.77704,-1.03701c0.63978,0.06843 2.26431,0.26095 2.93245,0.36453c-0.06529,-0.58795 -0.09612,-1.18046 -0.09777,-1.7756c-1.44235,-0.6118 -3.30246,-1.1945 -4.75748,-2.3544l-0.27128,-1.27422c1.26712,1.01011 3.80765,2.01959 5.05469,2.58391c0.02828,-0.55163 0.07885,-1.10452 0.14749,-1.65722c-0.16458,-0.0705 -0.32975,-0.14832 -0.49557,-0.23376c-3.43588,-1.64684 -4.22479,-3.96715 -3.83085,-7.73732c0,0 0.35906,-2.179 0.61088,-2.56999c0.2354,-0.36548 0.84544,-1.39218 0.84544,-1.39218l-0.78086,4.04175c-0.29955,3.42891 0.45952,5.3044 3.57396,6.79716c0.07272,0.03836 0.14527,0.075 0.21767,0.10993c0.36122,-2.24766 0.98182,-4.47664 1.58134,-6.58472c1.06493,-3.1413 2.59386,-8.2457 5.70435,-10.09522c0.20644,-0.12276 0.90321,-0.17726 1.12559,-0.27013l1.07676,0.07603l-1.29152,0.5804c-3.24635,1.36183 -4.71471,7.03113 -5.71912,9.99031c-0.60536,2.13395 -1.23381,4.38711 -1.57785,6.65598c3.02019,0.91359 4.62019,0.72664 7.0872,-1.17252c2.35528,-3.17738 6.51932,-8.73259 9.59458,-11.11965c0.09041,-0.04025 1.28574,-0.66572 1.28574,-0.66572c0,0 0.5582,0.70726 0.66924,0.65785z" data-paper-data="{&quot;index&quot;:null}" fill="#9f2c00" stroke="#9f2c00" stroke-width="1"/><path d="M195.60332,206.72895c-0.49873,1.75576 -2.32633,2.77479 -4.0821,2.27607c-1.75576,-0.49873 -2.7748,-2.32633 -2.27608,-4.08209c0.49873,-1.75578 2.32634,-2.77481 4.0821,-2.27609c1.75578,0.49873 2.77481,2.32634 2.27609,4.08211z" data-paper-data="{&quot;index&quot;:null}" fill="url(#color-4)" stroke="none" stroke-width="0"/></g><g fill-rule="evenodd" stroke-linecap="butt" stroke-linejoin="round"><path d="M267.94408,208.89322l9.42573,-2.16114l4.42148,-7.8926l5.14188,8.32486l8.70534,1.72892l-6.54101,7.36618l1.25183,8.90111l-8.41401,-2.89977l-8.70215,2.89977l1.39589,-9.62153z" fill="url(#color-5)" stroke="url(#color-6)" stroke-width="6.5"/><path d="M267.94408,208.89322l9.42573,-2.16114l4.42148,-7.89263l5.14188,8.32486l8.70534,1.72892l-6.54101,7.36618l1.25183,8.90111l-8.41398,-2.89977l-8.70212,2.89977l1.39592,-9.62153z" fill="url(#color-7)" stroke="#fff0a6" stroke-width="4"/><path d="M270.60968,209.8141l7.62613,-1.74857l3.5773,-6.38571l4.16021,6.73542l7.04332,1.39885l-5.29218,5.95978l1.01281,7.20172l-6.80756,-2.34618l-7.04069,2.34618l1.12941,-7.78458z" fill="#f2cc41" stroke="#f2cc41" stroke-width="2.5"/></g></g></g></svg>