<svg version="1.1" xmlns="http://www.w3.org/2000/svg" xmlns:xlink="http://www.w3.org/1999/xlink" width="40.00002" height="45.88104" viewBox="0,0,40.00002,45.88104"><g transform="translate(-219.99999,-159.05948)"><g data-paper-data="{&quot;isPaintingLayer&quot;:true}" fill-rule="nonzero" stroke-linejoin="miter" stroke-miterlimit="10" stroke-dasharray="" stroke-dashoffset="0" style="mix-blend-mode: normal"><g><path d="M242.474,194.91502l2.383,-1.53283l2.07383,3.224l-2.383,1.53283z" fill="#e3474f" stroke="#ff7408" stroke-width="2" stroke-linecap="butt"/><g><path d="M220.01717,178.02685h39.91667v8.16667h-39.91667z" fill="#2082cf" stroke="none" stroke-width="1" stroke-linecap="butt"/><path d="M240.04167,165.02385c5.50717,0 10.49667,2.236 14.10867,5.84983c3.61367,3.61183 5.84967,8.6015 5.84967,14.1085c0,5.50717 -2.236,10.49667 -5.84967,14.10867c-3.612,3.61367 -8.6015,5.84967 -14.10867,5.84967c-5.50717,0 -10.49667,-2.236 -14.10867,-5.84967c-3.61367,-3.612 -5.84967,-8.6015 -5.84967,-14.10867c0,-5.507 2.236,-10.49667 5.84967,-14.1085c3.612,-3.61383 8.6015,-5.84983 14.10867,-5.84983z" fill="#ff7408" stroke="none" stroke-width="1.05974" stroke-linecap="butt"/><path d="M230.51717,192.02685l15.75,-17l13,15l-0.58333,1.5l-0.66667,1.91667l-1.08333,2l-0.91667,1.41667l-0.91667,1.08333l-1,1.16667l-1,1.08333l-1.66667,1.25l-1.75,1.16667l-1.75,0.75l-1.83333,0.75l-2,0.5l-2.08333,0.16667z" fill="#ff7408" stroke="none" stroke-width="1" stroke-linecap="round"/><path d="M240.2405,173.40502c3.253,0 6.20133,1.321 8.33517,3.45667c2.1355,2.13383 3.4565,5.08217 3.4565,8.335c0,3.253 -1.321,6.20133 -3.4565,8.33517c-2.13383,2.1355 -5.08217,3.4565 -8.33517,3.4565c-3.25283,0 -6.20117,-1.321 -8.335,-3.4565c-2.13567,-2.13383 -3.45667,-5.08217 -3.45667,-8.33517c0,-3.25283 1.321,-6.20117 3.45667,-8.335c2.13383,-2.13567 5.08217,-3.45667 8.335,-3.45667z" fill="#ffffff" stroke="#2082cf" stroke-width="2.08856" stroke-linecap="butt"/><path d="M240.274,174.42135c2.97767,0 5.67567,1.20917 7.62867,3.163c1.954,1.953 3.163,4.651 3.163,7.62867c0,2.97783 -1.209,5.67567 -3.163,7.62867c-1.953,1.954 -4.651,3.163 -7.62867,3.163c-2.97783,0 -5.67567,-1.209 -7.62867,-3.163c-1.954,-1.953 -3.163,-4.65083 -3.163,-7.62867c0,-2.97767 1.209,-5.67567 3.163,-7.62867c1.953,-1.95383 4.65083,-3.163 7.62867,-3.163z" fill="#2082cf" stroke="#2082cf" stroke-width="1.14602" stroke-linecap="butt"/><path d="M234.8685,190.67152h10.5v7.75l-10.25767,-2.389z" fill="#2082cf" stroke="none" stroke-width="0.84509" stroke-linecap="butt"/><path d="M235.1965,192.99069l2.47883,3.09033l-4.14417,0.08367z" fill="#ffffff" stroke="#ff7408" stroke-width="2" stroke-linecap="round"/><path d="M239.95833,159.05948c5.50717,0 10.49667,2.236 14.10867,5.84983c3.61367,3.61183 5.84967,8.6015 5.84967,14.1085c0,5.50717 -2.236,10.49667 -5.84967,14.10867c-3.612,3.61367 -8.6015,5.84967 -14.10867,5.84967c-5.50717,0 -10.49667,-2.236 -14.10867,-5.84967c-3.61367,-3.612 -5.84967,-8.6015 -5.84967,-14.10867c0,-5.507 2.236,-10.49667 5.84967,-14.1085c3.612,-3.61383 8.6015,-5.84983 14.10867,-5.84983z" fill="#ffa208" stroke="none" stroke-width="1.05974" stroke-linecap="butt"/></g></g><path d="M230.81734,180c0,-5.07144 4.11121,-9.18266 9.18266,-9.18266c5.07144,0 9.18266,4.11121 9.18266,9.18266c0,5.07144 -4.11121,9.18266 -9.18266,9.18266c-5.07144,0 -9.18266,-4.11121 -9.18266,-9.18266z" fill="#ffffff" stroke="none" stroke-width="0" stroke-linecap="butt"/><path d="M232.80524,173.93875c0,0 0.40697,-0.47537 0.7672,-0.80442c0.40534,-0.37026 0.86705,-0.69898 0.86705,-0.69898c0,0 -0.38366,-1.93801 -0.47959,-2.40189c-0.0831,-0.40181 0.0522,-0.86314 0.0522,-0.86314c0,0 0.21694,-0.41355 0.48028,-0.51577c0.31556,-0.1225 1.03739,-0.42109 1.59155,-0.65177c0.4062,-0.16909 0.7748,0.01315 0.7748,0.01315c0,0 0.25889,0.16409 0.52223,0.56914c0.24402,0.37534 1.30932,2.01393 1.30932,2.01393c0,0 0.66334,-0.10207 1.31039,-0.07221c0.84058,0.03879 1.65273,0.09963 1.65273,0.09963z" fill="#ffffff" stroke="#eae131" stroke-width="0" stroke-linecap="butt"/><path d="M239.22373,170.65935c0,0 0.62352,-0.05311 1.11107,-0.03477c0.5486,0.02063 1.10823,0.1104 1.10823,0.1104c0,0 1.08657,-1.64999 1.34372,-2.04779c0.22275,-0.34458 0.64286,-0.57833 0.64286,-0.57833c0,0 0.44475,-0.14242 0.7041,-0.03046c0.31078,0.13415 1.03459,0.42793 1.59128,0.65243c0.40806,0.16456 0.54279,0.55305 0.54279,0.55305c0,0 0.0693,0.29857 -0.0273,0.77194c-0.08952,0.43864 -0.48034,2.35361 -0.48034,2.35361c0,0 0.54423,0.39276 0.98428,0.86806c0.57166,0.61748 1.10761,1.23071 1.10761,1.23071z" fill="#ffffff" stroke="#eae131" stroke-width="0" stroke-linecap="butt"/><path d="M230.64696,180.93319c0,0 -0.00539,-0.81441 0.01315,-1.65568c0.01428,-0.64758 0.16128,-1.30243 0.16128,-1.30243c0,0 -1.56224,-1.17442 -1.92008,-1.44343c-0.38618,-0.29031 -0.53225,-0.55978 -0.53225,-0.55978c0,0 -0.15672,-0.38015 0.03965,-0.77389c0.26788,-0.53717 0.61495,-1.23699 0.75865,-1.54347c0.11992,-0.25577 0.54728,-0.44404 0.54728,-0.44404c0,0 0.46947,-0.10357 0.86469,0.0067c0.45627,0.1273 2.36365,0.64206 2.36365,0.64206c0,0 0.35941,-0.43825 0.75641,-0.81743c0.35282,-0.33698 0.8548,-0.71063 0.8548,-0.71063z" data-paper-data="{&quot;index&quot;:null}" fill="#ffffff" stroke="#eae131" stroke-width="0" stroke-linecap="butt"/><path d="M249.19856,179.0908c0,0 0.01899,0.81422 0.01451,1.65567c-0.00346,0.64772 -0.13951,1.30494 -0.13951,1.30494c0,0 1.58164,1.14816 1.94393,1.41115c0.39097,0.28382 0.54153,0.55081 0.54153,0.55081c0,0 0.16304,0.37747 -0.02672,0.77445c-0.25888,0.54157 -0.59419,1.24709 -0.73276,1.55592c-0.11563,0.25773 -0.53979,0.45311 -0.53979,0.45311c0,0 -0.46768,0.11139 -0.86467,0.00774c-0.45833,-0.11966 -2.37405,-0.60248 -2.37405,-0.60248c0,0 -0.35203,0.44419 -0.74265,0.82995c-0.34714,0.34283 -0.84281,0.72482 -0.84281,0.72482z" data-paper-data="{&quot;index&quot;:null}" fill="#ffffff" stroke="#eae131" stroke-width="0" stroke-linecap="butt"/><path d="M245.73256,172.24159c0,0 0.58487,0.56677 1.17212,1.16944c0.45205,0.46391 0.81629,1.02763 0.81629,1.02763c0,0 1.93254,-0.29181 2.3752,-0.35866c0.47772,-0.07214 0.77233,0.01244 0.77233,0.01244c0,0 0.38104,0.15453 0.5244,0.57051c0.19558,0.5675 0.45174,1.30546 0.56973,1.62272c0.09847,0.26477 -0.06663,0.70161 -0.06663,0.70161c0,0 -0.25504,0.40753 -0.61063,0.61226c-0.41051,0.23636 -2.1142,1.23663 -2.1142,1.23663c0,0 0.06088,0.56349 0.05326,1.11243c-0.00677,0.48785 -0.09187,1.10781 -0.09187,1.10781z" data-paper-data="{&quot;index&quot;:null}" fill="#ffffff" stroke="#eae131" stroke-width="0" stroke-linecap="butt"/><path d="M247.13097,186.0011c0,0 -0.39898,0.4821 -0.75366,0.81712c-0.3991,0.37697 -0.85525,0.71337 -0.85525,0.71337c0,0 0.41598,1.93133 0.51964,2.39355c0.08979,0.40037 -0.03777,0.86389 -0.03777,0.86389c0,0 -0.21,0.41711 -0.4716,0.52372c-0.31347,0.12775 -1.03021,0.43836 -1.58044,0.67826c-0.40332,0.17584 -0.77491,-0.00021 -0.77491,-0.00021c0,0 -0.2616,-0.15975 -0.53166,-0.56034c-0.25025,-0.37121 -1.34277,-1.99177 -1.34277,-1.99177c0,0 -0.66155,0.11314 -1.309,0.09408c-0.84111,-0.02474 -1.65416,-0.07201 -1.65416,-0.07201z" data-paper-data="{&quot;index&quot;:null}" fill="#ffffff" stroke="#eae131" stroke-width="0" stroke-linecap="butt"/><path d="M234.07006,187.07694c0,0 -0.48165,-0.39952 -0.81627,-0.75457c-0.37653,-0.39952 -0.71241,-0.85605 -0.71241,-0.85605c0,0 -1.9318,0.41381 -2.39412,0.51696c-0.40047,0.08935 -0.86385,-0.03874 -0.86385,-0.03874c0,0 -0.41688,-0.21047 -0.52319,-0.47218c-0.1274,-0.31361 -0.43721,-1.0307 -0.6765,-1.5812c-0.1754,-0.40352 0.00108,-0.77491 0.00108,-0.77491c0,0 0.16003,-0.26142 0.56094,-0.53103c0.37148,-0.24983 1.99328,-1.34054 1.99328,-1.34054c0,0 -0.11239,-0.66167 -0.09262,-1.3091c0.02569,-0.84108 0.07387,-1.65409 0.07387,-1.65409z" fill="#ffffff" stroke="#eae131" stroke-width="0" stroke-linecap="butt"/><path d="M241.46459,189.49326c0,0 -0.81423,0.01808 -1.65568,0.01265c-0.64772,-0.00419 -1.30479,-0.14097 -1.30479,-0.14097c0,0 -1.14993,1.58035 -1.41333,1.94234c-0.28426,0.39066 -0.55141,0.54092 -0.55141,0.54092c0,0 -0.37766,0.16261 -0.77441,-0.02758c-0.54128,-0.25948 -1.24642,-0.59559 -1.5551,-0.7345c-0.2576,-0.11592 -0.45251,-0.5403 -0.45251,-0.5403c0,0 -0.11086,-0.4678 -0.00677,-0.86469c0.12018,-0.4582 0.60514,-2.37337 0.60514,-2.37337c0,0 -0.4438,-0.35253 -0.82912,-0.74358c-0.34243,-0.34753 -0.72387,-0.84362 -0.72387,-0.84362z" data-paper-data="{&quot;index&quot;:null}" fill="#ffffff" stroke="#eae131" stroke-width="0" stroke-linecap="butt"/><path d="M235.33793,179.92806c0,-2.53572 2.05561,-4.59133 4.59133,-4.59133c2.53572,0 4.59133,2.0556 4.59133,4.59133c0,2.53572 -2.05561,4.59133 -4.59133,4.59133c-2.53572,0 -4.59133,-2.05561 -4.59133,-4.59133z" fill="#ffa208" stroke="none" stroke-width="0" stroke-linecap="butt"/></g></g></svg>