<svg version="1.1" xmlns="http://www.w3.org/2000/svg" xmlns:xlink="http://www.w3.org/1999/xlink" width="206.91171" height="172.50523" viewBox="0,0,206.91171,172.50523"><defs><radialGradient cx="237.0432" cy="212.72319" r="15.03358" gradientUnits="userSpaceOnUse" id="color-1"><stop offset="0" stop-color="#ff6a00"/><stop offset="1" stop-color="#ff4343"/></radialGradient><radialGradient cx="179.36654" cy="210.04846" r="21.83186" gradientUnits="userSpaceOnUse" id="color-2"><stop offset="0" stop-color="#ffffff"/><stop offset="1" stop-color="#ffffff" stop-opacity="0"/></radialGradient></defs><g transform="translate(-136.54414,-93.74739)"><g data-paper-data="{&quot;isPaintingLayer&quot;:true}" stroke-miterlimit="10" stroke-dasharray="" stroke-dashoffset="0" style="mix-blend-mode: normal"><g><path d="M142.11238,96.82576l195.8506,0.16771l-0.78765,165.91357l-195.13832,0.26723z" data-paper-data="{&quot;origRot&quot;:0,&quot;index&quot;:null}" fill="#000000" fill-rule="evenodd" stroke="#000000" stroke-width="4" stroke-linecap="round" stroke-linejoin="round" opacity="0.42445"/><path d="M142.11238,96.82576l195.8506,0.16771l-0.78765,165.91357l-195.13832,0.26723z" data-paper-data="{&quot;origRot&quot;:0,&quot;index&quot;:null}" fill="#000000" fill-rule="evenodd" stroke="#000000" stroke-width="5" stroke-linecap="round" stroke-linejoin="round" opacity="0.42445"/><path d="M139.04414,263.75262v-167.50523h201.91171v167.50523z" fill="none" fill-rule="nonzero" stroke="#333333" stroke-width="5" stroke-linecap="butt" stroke-linejoin="miter"/></g><text transform="translate(220.03919,117.07462) scale(0.33643,0.33643)" font-size="40" xml:space="preserve" fill="#ffffff" fill-rule="nonzero" stroke="none" stroke-width="1" stroke-linecap="butt" stroke-linejoin="miter" stroke-miterlimit="10" stroke-dasharray="" stroke-dashoffset="0" font-family="Sans Serif" font-weight="normal" text-anchor="start" style="mix-blend-mode: normal"><tspan x="0" dy="0">STARS</tspan></text><text transform="translate(155.79468,254.75975) scale(0.24522,0.24522)" font-size="40" xml:space="preserve" fill="#ffffff" fill-rule="nonzero" stroke="none" stroke-width="1" stroke-linecap="butt" stroke-linejoin="miter" stroke-miterlimit="10" stroke-dasharray="" stroke-dashoffset="0" font-family="Sans Serif" font-weight="normal" text-anchor="start" style="mix-blend-mode: normal"><tspan x="0" dy="0">CLICK TO SWITCH TO THE NEXT PAGE</tspan></text><g fill-rule="nonzero" stroke-linecap="butt" stroke-linejoin="miter"><path d="M254.74871,214.25001c0,8.17605 -6.73076,14.80406 -15.03358,14.80406c-8.30281,0 -15.03358,-6.62801 -15.03358,-14.80406c0,-8.17605 6.73076,-14.80406 15.03358,-14.80406c8.30281,0 15.03358,6.62801 15.03358,14.80406z" fill="url(#color-1)" stroke="#ff0000" stroke-width="2"/><g fill="#ffffff" stroke="none" stroke-width="0"><path d="M236.48035,212.61916c0,0 3.10147,0.1547 3.20199,0.26236c0.15143,0.16222 -7.8059,10.49469 -8.36867,10.52611c-0.23476,0.0131 2.77139,-7.7066 2.63265,-7.94172c-0.129,-0.21863 -2.25391,-0.19069 -2.25391,-0.19497c0,-0.19789 3.7567,-8.6183 3.7567,-8.6183c0,0 3.9615,-0.07366 6.11385,-0.07366c2.3484,0 7.58706,0.22098 7.58706,0.22098l-2.4308,2.94643c0,0 -6.3994,0.20658 -8.23135,0.06313c-0.57705,-0.04518 -2.00749,2.80964 -2.00749,2.80964z"/><path d="M238.69021,215.34461l1.91517,-2.50446h4.125l-2.13616,2.50446z"/></g></g><g fill-rule="nonzero" stroke-linejoin="miter"><path d="M273.29632,198.65614c0,-2.64674 0,-8.86077 0,-13.34675c0,-2.91688 1.73775,-5.10317 4.51435,-5.10317c9.61429,0 31.6841,0 37.19427,0c2.43579,0 4.9069,2.99291 4.9069,5.29945c0,2.61212 0,8.87504 0,13.4449c0,3.01924 -2.52758,5.29945 -5.00503,5.29945c-5.57745,0 -27.81207,0 -37.29241,0c-2.66174,0 -4.31807,-3.18888 -4.31807,-5.59386z" fill="#ff7408" stroke="none" stroke-width="0" stroke-linecap="butt"/><path d="M273.29632,195.44993c0,-2.64674 0,-8.86077 0,-13.34675c0,-2.91688 1.73775,-5.10317 4.51435,-5.10317c9.61429,0 31.6841,0 37.19427,0c2.43579,0 4.9069,2.99291 4.9069,5.29945c0,2.61212 0,8.87504 0,13.4449c0,3.01925 -2.52757,5.29945 -5.00503,5.29945c-5.57745,0 -27.81207,0 -37.29241,0c-2.66173,0 -4.31807,-3.18888 -4.31807,-5.59386z" fill="#ffa208" stroke="none" stroke-width="0" stroke-linecap="butt"/><path d="M285.93897,185.07347l21.2475,0.15739l-1.88866,8.65639l-17.31278,-0.15739l-4.72167,-13.85023" fill="none" stroke="#ffffff" stroke-width="2.5" stroke-linecap="round"/><path d="M289.87368,185.54563v7.0825" fill="none" stroke="#ffffff" stroke-width="2.5" stroke-linecap="round"/><path d="M294.53827,193.10029l0.14196,-7.23989" fill="none" stroke="#ffffff" stroke-width="2.5" stroke-linecap="round"/><path d="M298.84486,185.38824v7.39728" fill="none" stroke="#ffffff" stroke-width="2.5" stroke-linecap="round"/><path d="M303.09435,193.0224l0.15739,-6.92511" fill="none" stroke="#ffffff" stroke-width="2.5" stroke-linecap="round"/><path d="M304.51086,196.95632c0,1.26039 -1.02175,2.28214 -2.28214,2.28214c-1.26039,0 -2.28213,-1.02175 -2.28213,-2.28214c0,-1.26039 1.02175,-2.28213 2.28213,-2.28213c1.26039,0 2.28214,1.02175 2.28214,2.28213z" fill="none" stroke="#ffffff" stroke-width="1.5" stroke-linecap="butt"/><path d="M292.77212,196.90331c0,1.26039 -1.02175,2.28214 -2.28214,2.28214c-1.26039,0 -2.28213,-1.02175 -2.28213,-2.28214c0,-1.26039 1.02175,-2.28213 2.28213,-2.28213c1.26039,0 2.28214,1.02175 2.28214,2.28213z" fill="none" stroke="#ffffff" stroke-width="1.5" stroke-linecap="butt"/></g><g fill-rule="nonzero" stroke-linejoin="miter"><path d="M180.68243,193.30576c4.53688,0.39518 8.48745,2.59589 11.20484,5.83218c2.71769,3.23602 4.20223,7.50759 3.80704,12.04447c-0.39518,4.53688 -2.59593,8.48744 -5.83218,11.20484c-3.23602,2.71769 -7.50758,4.2022 -12.04447,3.80701c-4.53688,-0.39518 -8.48745,-2.59589 -11.20484,-5.83216c-2.71769,-3.23602 -4.20223,-7.50759 -3.80704,-12.04447c0.39518,-4.53688 2.59593,-8.48744 5.83218,-11.20484c3.23602,-2.71771 7.50759,-4.20223 12.04447,-3.80704z" fill="url(#color-2)" stroke="none" stroke-width="1.07468" stroke-linecap="butt"/><path d="M173.76462,197.17692c3.46876,-1.51336 7.22683,-1.47616 10.49579,-0.19275c3.26924,1.28273 6.04933,3.81167 7.56269,7.28042c1.51336,3.46876 1.47616,7.22685 0.19275,10.49582c-1.28273,3.26921 -3.81167,6.04933 -7.28042,7.56269c-3.46876,1.51336 -7.22685,1.47616 -10.49579,0.19275c-3.26924,-1.28273 -6.04935,-3.81167 -7.56272,-7.28042c-1.51336,-3.46879 -1.47616,-7.22685 -0.19275,-10.49582c1.28273,-3.26921 3.81167,-6.04933 7.28046,-7.56268z" fill="#b1462e" stroke="#ffd008" stroke-width="3.8061" stroke-linecap="butt"/><g stroke="none"><path d="M173.1615,204.26774c0.45969,1.00922 -0.87395,2.12288 -0.71669,3.19821c0.10219,0.77578 1.59315,1.2053 1.42324,1.84272c-0.16759,0.62172 -1.45853,0.49199 -2.18875,0.71296c-0.93241,0.30417 -1.81629,1.01505 -2.73855,0.84005c-1.00621,-0.16639 -2.48354,-0.75376 -2.4578,-1.74372c0.0368,-1.38664 1.68535,-2.20475 2.5282,-3.2765c0.53783,-0.72128 0.80664,-1.8153 1.61774,-2.10864c0.81127,-0.29249 2.17496,-0.24692 2.53261,0.53491z" fill="#ffa105" stroke-width="2.23487" stroke-linecap="round"/><path d="M172.80918,204.89799c0.38079,0.37701 -0.1049,1.01174 -0.11185,1.51699c-0.00378,0.54332 0.09767,1.10084 -0.04111,1.62342c-0.15776,0.59474 -0.31646,1.28773 -0.77496,1.69691c-0.68843,0.57122 -1.56642,1.13062 -2.45433,1.06375c-0.83364,-0.06277 -2.13104,-0.58305 -2.05764,-1.40994c0.12123,-1.31266 1.61865,-2.08159 2.46761,-3.09838c0.46706,-0.55974 0.7961,-1.33497 1.46255,-1.6322c0.45944,-0.20507 1.15268,-0.11801 1.50971,0.23946z" fill="#ff770d" stroke-width="2.12111" stroke-linecap="butt"/></g><g stroke="none"><path d="M180.67634,199.45176c0.76673,-0.39504 1.75155,0.15203 2.64609,0.24839c1.35892,0.11115 3.07997,-0.54083 4.12144,0.37539c0.7432,0.65448 0.1689,2.13695 -0.39354,2.9877c-0.49906,0.79509 -1.62135,0.95946 -2.47854,1.43608c-0.65865,0.38496 -1.44165,1.4195 -2.01137,1.11948c-0.58284,-0.30903 0.11646,-1.69414 -0.38271,-2.29671c-0.68132,-0.84668 -2.40479,-0.62658 -2.8319,-1.65001c-0.32984,-0.79396 0.56431,-1.82459 1.33053,-2.22033z" fill="#ffa105" stroke-width="2.23487" stroke-linecap="round"/><path d="M180.91239,200.46439c0.67118,-0.28632 1.46328,-0.00024 2.19127,0.0381c1.32278,0.06932 2.90498,-0.50532 3.94968,0.29865c0.65606,0.50864 0.15496,1.81356 -0.36604,2.46736c-0.55495,0.69636 -1.56221,0.95945 -2.44919,1.07556c-0.61182,0.05777 -1.22776,-0.29726 -1.77099,-0.58615c-0.47749,-0.25374 -0.81717,-0.70728 -1.218,-1.07411c-0.37511,-0.33854 -1.17074,-0.41426 -1.18809,-0.94984c-0.01921,-0.50488 0.38852,-1.07226 0.85137,-1.26957z" fill="#ff770d" stroke-width="2.12111" stroke-linecap="butt"/></g><path d="M181.64063,214.76961c1.89338,-0.97447 3.24617,-3.13798 5.34152,-3.51523c0.93149,-0.16755 1.48758,1.29286 1.72905,2.17652c0.22314,0.80874 0.06672,1.81239 -0.46069,2.44594c-1.23174,1.47903 -2.77167,2.77196 -4.51023,3.52673c-1.77667,0.78883 -3.79917,0.99711 -5.72016,0.96778c-0.73644,-0.00421 -1.49162,-0.4187 -1.9692,-1.01166c-0.47059,-0.5798 -1.22397,-1.65918 -0.62943,-2.1574c1.70463,-1.42716 4.22582,-1.40714 6.21913,-2.43268z" fill="#3c20ff" stroke="none" stroke-width="2.12111" stroke-linecap="round"/><path d="M176.54401,203.48922c2.09833,-0.92354 4.59204,-2.01278 6.76126,-1.29727c2.02503,0.71228 3.18767,3.03555 4.0777,4.98698c0.86017,1.88586 1.83266,4.20352 1.00015,6.0802c-0.93939,2.21204 -3.40655,3.58648 -5.59943,4.53197c-2.21959,0.95715 -4.89647,1.84815 -7.1832,1.04486c-1.94166,-0.68132 -3.05987,-2.96848 -3.82909,-4.846c-0.8051,-1.9654 -1.79203,-4.37904 -0.88539,-6.31736c0.94515,-2.13596 3.49444,-3.23071 5.65801,-4.18339z" fill="#ffd008" stroke="none" stroke-width="2.12111" stroke-linecap="butt"/><path d="M177.36553,205.00512c1.34144,-0.57151 2.71333,-1.15758 4.15624,-1.40796c0.64914,-0.11297 1.41472,-0.0005 1.93874,0.37017c0.73822,0.52291 1.5963,1.2261 1.68001,2.13558c0.10581,1.0844 -0.47261,2.21853 -1.18462,3.07357c-0.93676,1.12459 -2.19665,2.02595 -3.54054,2.60477c-1.31825,0.59323 -2.81307,0.90616 -4.25381,0.82694c-1.18323,-0.06495 -2.42594,-0.5006 -3.3517,-1.25034c-0.51616,-0.41837 -0.67254,-1.30425 -0.51183,-1.9593c0.23909,-0.97422 0.90188,-1.87638 1.66844,-2.53633c0.9703,-0.84049 2.21518,-1.33749 3.39906,-1.85711z" fill="#ffa105" stroke="none" stroke-width="2.12111" stroke-linecap="round"/><path d="M178.5091,207.51448c0.93232,-0.42298 1.99625,-0.76867 3.02796,-0.6351c0.70414,0.05884 1.43872,0.51909 1.78818,1.16857c0.29493,0.54732 0.21085,1.3666 -0.15488,1.86042c-0.6746,0.85367 -1.71697,1.39887 -2.69375,1.83001c-1.00035,0.44142 -2.10598,0.8502 -3.19989,0.74128c-0.61267,-0.04639 -1.2055,-0.5934 -1.44293,-1.1633c-0.26813,-0.64317 -0.27345,-1.47149 0.12395,-2.00282c0.58838,-0.86971 1.60487,-1.36993 2.55136,-1.79905z" fill="#ff770d" stroke="none" stroke-width="2.12111" stroke-linecap="round"/><path d="M174.05109,207.34633c0.71561,-0.31221 1.49051,-0.30419 2.16469,-0.03957c0.67418,0.26459 1.24766,0.78579 1.55987,1.5014c0.3122,0.71564 0.30419,1.49051 0.0396,2.1647c-0.26462,0.67418 -0.78581,1.24766 -1.50143,1.55989c-0.71561,0.31221 -1.4905,0.30417 -2.16469,0.03957c-0.67418,-0.26462 -1.24766,-0.78579 -1.55987,-1.50142c-0.31221,-0.71561 -0.30419,-1.49051 -0.0396,-2.1647c0.26462,-0.67418 0.78581,-1.24766 1.50142,-1.55987z" fill="#ffffff" stroke="none" stroke-width="2.12111" stroke-linecap="butt"/><path d="M181.25248,204.32204c0.71561,-0.31221 1.49051,-0.30419 2.16469,-0.03957c0.67418,0.26459 1.24766,0.78579 1.55987,1.5014c0.3122,0.71564 0.30419,1.49051 0.0396,2.1647c-0.26462,0.67418 -0.78581,1.24766 -1.50143,1.55989c-0.71561,0.31221 -1.4905,0.30417 -2.16469,0.03957c-0.67418,-0.26462 -1.24766,-0.78579 -1.55987,-1.50142c-0.31221,-0.71561 -0.30419,-1.49051 -0.0396,-2.1647c0.26462,-0.67418 0.78581,-1.24766 1.50142,-1.55987z" fill="#ffffff" stroke="none" stroke-width="2.12111" stroke-linecap="butt"/><path d="M174.76245,210.96117c0.42581,-0.18328 0.93376,-0.23963 1.38779,-0.10657c0.37557,0.10615 0.72031,0.38603 0.93527,0.71441c0.2425,0.37002 0.55688,0.85334 0.38328,1.23586c-0.26941,0.55594 -0.91817,0.86705 -1.47713,1.08098c-0.41138,0.15765 -0.91097,0.18602 -1.32277,0.02397c-0.41212,-0.16132 -0.75694,-0.52284 -0.95335,-0.91733c-0.15908,-0.32032 -0.19776,-0.78487 -0.02421,-1.12749c0.21195,-0.40612 0.62858,-0.71324 1.07112,-0.90382z" fill="#ffd008" stroke="none" stroke-width="2.12111" stroke-linecap="round"/><path d="M184.58034,207.28497c0.36919,0.10581 0.68342,0.45014 0.81004,0.78464c0.15556,0.4123 0.18605,0.91098 0.024,1.32279c-0.16133,0.4121 -0.52193,0.75902 -0.91733,0.95335c-0.53701,0.2642 -1.20634,0.52816 -1.79712,0.34751c-0.39848,-0.13295 -0.53895,-0.69216 -0.64522,-1.12159c-0.09448,-0.38093 -0.06517,-0.82401 0.11246,-1.17153c0.21131,-0.42332 0.59812,-0.75733 1.02208,-0.9448c0.44074,-0.19477 0.94924,-0.29129 1.3911,-0.17038z" fill="#ffd008" stroke="none" stroke-width="2.12111" stroke-linecap="round"/><path d="M175.22601,204.59755c0.29964,-0.13073 0.62479,-0.12729 0.90748,-0.01679c0.2824,0.11129 0.52308,0.32992 0.65384,0.62957c0.13072,0.29967 0.12729,0.62482 0.01676,0.9075c-0.11126,0.28238 -0.3299,0.52308 -0.62957,0.65381c-0.29964,0.13073 -0.62479,0.12729 -0.90748,0.01679c-0.2824,-0.11129 -0.52308,-0.32992 -0.65381,-0.62957c-0.13075,-0.29968 -0.12729,-0.62482 -0.01678,-0.90751c0.11126,-0.28238 0.3299,-0.52308 0.62957,-0.65381z" fill="#ffa105" stroke="none" stroke-width="2.12111" stroke-linecap="butt"/><path d="M175.59882,213.69328c1.59155,-0.66834 3.3201,-0.93952 4.87857,-1.61465c1.58773,-0.6975 2.97665,-1.78641 4.53073,-2.49044c0.38881,-0.17649 1.04388,-0.46503 1.21529,-0.11918c0.43395,0.88001 0.37219,1.95848 0.25407,2.93754c-0.14136,0.94469 -0.43229,1.92654 -1.01303,2.70256c-0.72016,0.95265 -1.70963,1.78577 -2.7886,2.24416c-1.12697,0.47868 -2.42615,0.58309 -3.65325,0.49781c-0.89696,-0.10737 -1.77446,-0.5281 -2.51736,-1.05957c-0.80255,-0.57399 -1.69348,-1.27517 -1.96432,-2.22566c-0.12589,-0.44242 0.63699,-0.69579 1.0579,-0.87257z" fill="#9f4610" stroke="none" stroke-width="2.33008" stroke-linecap="round"/><path d="M178.79607,203.20446c0.29964,-0.13073 0.62479,-0.12729 0.90748,-0.01679c0.2824,0.11129 0.52308,0.32992 0.65384,0.62957c0.13072,0.29967 0.12729,0.62482 0.01676,0.9075c-0.11126,0.28238 -0.3299,0.52308 -0.62957,0.65381c-0.29964,0.13073 -0.62479,0.12729 -0.90748,0.01679c-0.2824,-0.11129 -0.52308,-0.32992 -0.65381,-0.62957c-0.13075,-0.29968 -0.12729,-0.62482 -0.01678,-0.90751c0.11126,-0.28238 0.3299,-0.52308 0.62957,-0.65381z" fill="#ffa105" stroke="none" stroke-width="2.12111" stroke-linecap="butt"/><g stroke="none" stroke-linecap="butt"><path d="M175.44404,208.26871c0.3182,-0.13882 0.66273,-0.13523 0.96212,-0.01774c0.29942,0.11753 0.5544,0.34926 0.69322,0.66746c0.13882,0.31817 0.13527,0.66274 0.01774,0.96212c-0.1175,0.29942 -0.34923,0.5544 -0.66743,0.69322c-0.3182,0.13882 -0.66274,0.13527 -0.96212,0.01774c-0.29942,-0.1175 -0.5544,-0.34923 -0.69322,-0.66743c-0.13882,-0.3182 -0.13527,-0.66274 -0.01774,-0.96212c0.1175,-0.29942 0.34923,-0.5544 0.66744,-0.69325z" fill="#000000" stroke-width="2.02888"/><path d="M175.19185,208.13952c0.15874,-0.06924 0.33091,-0.06766 0.48118,-0.00913c0.14996,0.05929 0.27726,0.17525 0.3465,0.33399c0.06927,0.15872 0.06768,0.33091 0.00913,0.48118c-0.05929,0.14996 -0.17524,0.27724 -0.33397,0.34651c-0.15874,0.06924 -0.33094,0.06766 -0.48118,0.00913c-0.14996,-0.05929 -0.27726,-0.17525 -0.3465,-0.33399c-0.06927,-0.15872 -0.06768,-0.33091 -0.00913,-0.48118c0.05929,-0.14996 0.17524,-0.27724 0.33397,-0.34651z" fill="#ffffff" stroke-width="2.12111"/></g><g stroke="none" stroke-linecap="butt"><path d="M181.68792,206.06112c0.29942,0.1175 0.5544,0.34923 0.69322,0.66743c0.13882,0.3182 0.13527,0.66274 0.01773,0.96215c-0.1175,0.29939 -0.34923,0.5544 -0.66743,0.69322c-0.3182,0.13882 -0.66273,0.13523 -0.96215,0.01773c-0.29939,-0.11753 -0.55437,-0.34926 -0.69322,-0.66743c-0.13882,-0.3182 -0.13524,-0.66276 -0.01773,-0.96215c0.11753,-0.29942 0.34926,-0.5544 0.66743,-0.69322c0.3182,-0.13882 0.66276,-0.13526 0.96215,-0.01773z" fill="#000000" stroke-width="2.02888"/><path d="M181.40333,205.85109c0.14996,0.05929 0.27726,0.17525 0.3465,0.33399c0.06927,0.15872 0.06768,0.33091 0.00913,0.48115c-0.05929,0.14996 -0.17525,0.27726 -0.33397,0.34651c-0.15875,0.06927 -0.33091,0.06768 -0.48118,0.00913c-0.14996,-0.05929 -0.27726,-0.17525 -0.34651,-0.33397c-0.06927,-0.15875 -0.06768,-0.33091 -0.00913,-0.48118c0.05929,-0.14996 0.17524,-0.27724 0.33397,-0.34651c0.15874,-0.06924 0.33091,-0.06766 0.48118,-0.00913z" fill="#ffffff" stroke-width="2.12111"/></g><path d="M175.78497,214.21587c1.53567,-0.72527 3.13328,-1.39944 4.70774,-2.08395c1.52875,-0.66815 3.03275,-1.36819 4.56735,-1.99264c0.38928,-0.15422 0.49474,-0.29394 0.55971,-0.09401c0.24417,0.8102 0.3264,1.71749 0.2228,2.57608c-0.12396,0.82844 -0.37911,1.68949 -0.88837,2.37003c-0.63157,0.83543 -1.49928,1.56603 -2.44546,1.96803c-0.98832,0.41974 -2.12763,0.51131 -3.20374,0.43654c-0.78659,-0.09416 -1.5561,-0.46311 -2.2076,-0.92918c-0.7038,-0.50336 -1.27344,-1.21002 -1.72261,-1.95182c-0.09567,-0.19313 0.02613,-0.11771 0.41017,-0.29908z" fill="#5b2809" stroke="none" stroke-width="2.04337" stroke-linecap="round"/><path d="M179.59579,210.39038c0.35046,-0.15289 0.69955,-0.2197 0.9804,-0.20386c0.2805,0.01667 0.49311,0.11511 0.57033,0.29211c0.0772,0.17697 0.00477,0.39976 -0.17382,0.61675c-0.17943,0.21664 -0.46582,0.4271 -0.81629,0.58001c-0.35046,0.15289 -0.69954,0.21967 -0.98039,0.20384c-0.2805,-0.01667 -0.49311,-0.11511 -0.5703,-0.29208c-0.07723,-0.17697 -0.00478,-0.39979 0.17379,-0.61674c0.17943,-0.21664 0.46585,-0.42712 0.81629,-0.58001z" fill="#5b2809" stroke="none" stroke-width="2.36491" stroke-linecap="butt"/><path d="M179.04862,211.40105c0.31066,-0.13556 0.62701,-0.17941 0.88681,-0.13995c0.25955,0.03892 0.46307,0.16089 0.54807,0.35577c0.08502,0.19488 0.03602,0.42704 -0.11199,0.64377c-0.14779,0.21728 -0.39514,0.41935 -0.70578,0.55488c-0.31067,0.13553 -0.62704,0.17938 -0.88681,0.13995c-0.25955,-0.03892 -0.46307,-0.16092 -0.54809,-0.3558c-0.08502,-0.19488 -0.03602,-0.42704 0.11199,-0.64377c0.14781,-0.21726 0.39514,-0.41932 0.7058,-0.55485z" fill="#ffffff" stroke="none" stroke-width="2.12111" stroke-linecap="butt"/><path d="M180.62094,210.74007c0.31066,-0.13556 0.62701,-0.17941 0.88681,-0.13995c0.25955,0.03892 0.46307,0.16089 0.54807,0.35577c0.08502,0.19488 0.03602,0.42704 -0.11199,0.64377c-0.14779,0.21728 -0.39514,0.41935 -0.70578,0.55488c-0.31067,0.13553 -0.62704,0.17938 -0.88681,0.13995c-0.25955,-0.03892 -0.46307,-0.16092 -0.54809,-0.3558c-0.08502,-0.19488 -0.03602,-0.42704 0.11199,-0.64377c0.14781,-0.21726 0.39514,-0.41932 0.7058,-0.55485z" fill="#ffffff" stroke="none" stroke-width="2.12111" stroke-linecap="butt"/><g stroke="none" stroke-width="2.04595" stroke-linecap="round"><path d="M181.28557,214.16295c0.59774,-0.26638 1.41851,-0.14617 2.01608,0.21172c0.65311,0.39105 1.1141,1.14529 1.47318,1.85167c0.28411,0.60876 0.60921,1.36054 0.39971,1.97702c-0.23249,0.68447 -0.90077,1.17373 -1.53697,1.45003c-0.62481,0.25201 -1.40809,0.3437 -2.034,0.04555c-0.59448,-0.28316 -0.96195,-1.00212 -1.22596,-1.61653c-0.26922,-0.72314 -0.48302,-1.55528 -0.321,-2.2608c0.15825,-0.69013 0.61204,-1.38324 1.22897,-1.65866z" fill="#73265b"/><path d="M180.99153,213.5017c0.59774,-0.26638 1.41851,-0.14617 2.01608,0.21172c0.65311,0.39105 1.1141,1.14529 1.47318,1.85167c0.28411,0.60876 0.60921,1.36054 0.39971,1.97702c-0.23249,0.68447 -0.90077,1.17373 -1.53697,1.45003c-0.62481,0.25201 -1.40809,0.3437 -2.034,0.04555c-0.59448,-0.28316 -0.96195,-1.00212 -1.22596,-1.61653c-0.26922,-0.72314 -0.48302,-1.55528 -0.321,-2.2608c0.15825,-0.69013 0.61204,-1.38324 1.22897,-1.65866z" fill="#bd3f95"/></g></g><text transform="translate(149.00001,138.38857) scale(0.24398,0.24398)" font-size="40" xml:space="preserve" fill="#ffffff" fill-rule="nonzero" stroke="none" stroke-width="1" stroke-linecap="butt" stroke-linejoin="miter" stroke-miterlimit="10" stroke-dasharray="" stroke-dashoffset="0" font-family="Sans Serif" font-weight="normal" text-anchor="start" style="mix-blend-mode: normal"><tspan x="0" dy="0">NEW SKINS CAN BE UNLOCKED BY</tspan><tspan x="0" dy="46.15px">COLLECTING STARS. TRY TO</tspan><tspan x="0" dy="46.15px">UNLOCK FEW OF THEM BY ❤️ AND ⭐️</tspan><tspan x="0" dy="46.15px">THE PROJECT ( YOU CAN EARN 100 </tspan><tspan x="0" dy="46.15px">STARS</tspan></text></g></g></svg>