<svg version="1.1" xmlns="http://www.w3.org/2000/svg" xmlns:xlink="http://www.w3.org/1999/xlink" width="60" height="65.6029" viewBox="0,0,60,65.6029"><defs><radialGradient cx="231.63255" cy="160.34276" r="1.71782" gradientUnits="userSpaceOnUse" id="color-1"><stop offset="0" stop-color="#ffffff"/><stop offset="1" stop-color="#ffffff" stop-opacity="0"/></radialGradient><radialGradient cx="247.5588" cy="172.44674" r="14.36476" gradientUnits="userSpaceOnUse" id="color-2"><stop offset="0" stop-color="#ff8a00"/><stop offset="1" stop-color="#ffa100"/></radialGradient><radialGradient cx="235.04697" cy="161.1054" r="8.64052" gradientUnits="userSpaceOnUse" id="color-3"><stop offset="0" stop-color="#ffc600"/><stop offset="1" stop-color="#ffa100"/></radialGradient><radialGradient cx="232.62198" cy="164.9459" r="3.41321" gradientUnits="userSpaceOnUse" id="color-4"><stop offset="0" stop-color="#ffde00"/><stop offset="1" stop-color="#ffde00" stop-opacity="0"/></radialGradient></defs><g transform="translate(-210,-146.94729)"><g data-paper-data="{&quot;isPaintingLayer&quot;:true}" fill-rule="nonzero" stroke-linecap="butt" stroke-linejoin="miter" stroke-miterlimit="10" stroke-dasharray="" stroke-dashoffset="0" style="mix-blend-mode: normal"><path d="M210,199.14729c0,-7.04774 0,-31.40226 0,-44.2c0,-4.81949 3.05034,-8 7.7,-8c12.62451,0 37.03921,0 44.2,0c3.87081,0 8.1,3.00621 8.1,7.6c0,12.6245 0,37.2391 0,44.4c0,3.83078 -3.40007,8 -8.5,8c-13.01549,0 -37.10248,0 -44,0c-3.62854,0 -7.5,-4.0497 -7.5,-7.8z" fill="#d1d1d1" stroke="none" stroke-width="0"/><path d="M215.57804,204.175c0.08847,-4.6005 4.04058,-8.05913 7.98013,-8.05913c5.79891,0 22.44949,0 32.71065,0c4.9794,0 8.13815,3.24293 8.13815,7.90112c0,4.6582 -3.15609,8.5332 -8.13815,8.5332c-10.36204,0 -27.25579,0 -33.0267,0c-3.82167,0 -7.75257,-3.7747 -7.66408,-8.3752z" fill="#3be690" stroke="none" stroke-width="0.5"/><text transform="translate(218.52928,207.29591) scale(0.20585,0.20585)" font-size="40" xml:space="preserve" fill="#ffffff" fill-rule="nonzero" stroke="none" stroke-width="1" stroke-linecap="butt" stroke-linejoin="miter" stroke-miterlimit="10" stroke-dasharray="" stroke-dashoffset="0" font-family="Sans Serif" font-weight="normal" text-anchor="start" style="mix-blend-mode: normal"><tspan x="0" dy="0">UNLOCKED</tspan></text><g><path d="M234.43369,158.42044c0.70455,0.63537 -0.50612,1.7451 -1.0926,2.39546c-0.58649,0.65036 -1.77172,1.29279 -2.47627,0.65743c-0.70455,-0.63537 -0.03253,-2.80821 0.55395,-3.45857c0.58649,-0.65036 2.31037,-0.22969 3.01492,0.40568z" fill="url(#color-1)" stroke="none" stroke-width="NaN"/><path d="M234.89367,189.11767c-8.88576,-2.52397 -14.04302,-11.77339 -11.51904,-20.65916c2.52397,-8.88576 11.77339,-14.04303 20.65915,-11.51904c8.88577,2.52397 14.04304,11.77339 11.51905,20.65916c-2.52397,8.88576 -11.77339,14.04303 -20.65916,11.51904z" fill="#9f2c00" stroke="none" stroke-width="0"/><path d="M253.29838,168.39234c0.90572,2.69462 1.03504,5.68147 0.19963,8.62262c-2.20163,7.75091 -10.26973,12.2495 -18.02064,10.04789c-4.31253,-1.22497 -7.61824,-4.26601 -9.32325,-8.05805c-1.35941,-3.02338 -1.7013,-6.5242 -0.72463,-9.96259c2.20163,-7.75091 10.26973,-12.2495 18.02065,-10.04789c4.80976,1.3662 8.36715,4.9914 9.84826,9.39803z" data-paper-data="{&quot;index&quot;:null}" fill="#ff6700" stroke="#ffffff" stroke-width="0"/><path d="M243.27731,159.08782c2.73317,0.77634 5.04987,2.25538 6.79964,4.17676c1.62456,1.78386 2.48119,3.12208 3.00794,5.4601c0.20539,0.9117 0.52162,3.43315 0.07963,5.27516c-0.77061,3.01639 -0.70357,2.565 -1.94967,4.9946c-1.71552,2.45361 -1.73023,2.47662 -3.72118,4.10166c-1.8371,1.38347 -2.66507,1.80142 -4.2012,2.46557c-1.5204,0.40236 -2.29795,0.83896 -4.77183,0.85045c-2.78222,-0.12842 -2.7979,-0.19009 -4.1644,-0.62258c-1.94088,-0.41149 -2.24606,-1.18778 -3.9856,-1.78136c-4.31198,-3.45129 -6.44826,-9.27281 -4.80949,-15.04221c2.16442,-7.61996 10.09622,-12.04253 17.71618,-9.87812z" data-paper-data="{&quot;index&quot;:null}" fill="url(#color-2)" stroke="#ffffff" stroke-width="0"/><path d="M228.84483,170.29316c-0.87191,-4.69169 2.22463,-9.20188 6.91633,-10.07379c4.69169,-0.87191 9.20189,2.22463 10.0738,6.91632c0.87191,4.69169 -2.22462,9.20189 -6.91632,10.0738c-4.69169,0.87191 -9.20189,-2.22464 -10.0738,-6.91633z" fill="url(#color-3)" stroke="#9f2c00" stroke-width="0"/><path d="M250.95935,163.63329c0,0 -1.37249,0.78475 -1.54413,0.85855c-3.12588,2.48105 -7.65361,8.33839 -10.11668,11.55296c-2.77381,2.20929 -4.31473,2.20049 -7.71357,1.27177c-0.06785,0.59601 -0.11386,1.1921 -0.13282,1.78652c1.45053,0.56966 2.97116,0.99301 4.68451,1.47111c4.38665,1.24808 10.87369,-0.10716 15.01507,-2.07005c0.18715,-0.05484 2.43307,-1.06459 2.43307,-1.06459l-0.50856,1.33968c-0.17924,0.05197 -1.43103,0.6219 -1.61028,0.67387c-4.3494,2.03617 -10.93351,3.11366 -15.60647,2.09686c-1.59822,-0.46374 -3.03829,-0.87122 -4.41126,-1.38251c0.01392,0.53984 0.05293,1.07742 0.121,1.61138c2.32987,0.42493 4.69972,1.09071 6.68684,2.12525c1.45935,0.76721 2.4765,1.94136 4.04473,2.55819l2.08156,0.39785l-1.829,0.52298c-1.69165,-0.48051 -3.21471,-1.81036 -4.74327,-2.59742c-1.82413,-0.95027 -3.98927,-1.5737 -6.13539,-1.98252c0.02159,0.39898 0.0612,0.7743 0.16055,1.1809l0.86643,2.05069l-1.23887,-0.82204c-0.15241,-0.60412 -0.74576,-1.96962 -0.76947,-2.58235c-0.77422,-0.12559 -1.61792,-0.24766 -2.35537,-0.32656l-0.80234,-1.07077c0.66061,0.07066 2.33802,0.26945 3.02791,0.3764c-0.06742,-0.60709 -0.09925,-1.2189 -0.10094,-1.83341c-1.48931,-0.63171 -3.40998,-1.23339 -4.91237,-2.43105l-0.28011,-1.3157c1.30838,1.043 3.93161,2.08534 5.21925,2.66803c0.0292,-0.56958 0.08141,-1.14048 0.1523,-1.71117c-0.16994,-0.0728 -0.34049,-0.15315 -0.51171,-0.24136c-3.54773,-1.70046 -4.36234,-4.09631 -3.95557,-7.98923c0,0 0.37076,-2.24994 0.63078,-2.65366c0.24306,-0.37737 0.87296,-1.43751 0.87296,-1.43751l-0.80628,4.17333c-0.3093,3.54055 0.47448,5.47709 3.69031,7.01845c0.07509,0.03961 0.15,0.07744 0.22476,0.11351c0.37298,-2.32083 1.01378,-4.62238 1.63282,-6.7991c1.09961,-3.24358 2.6783,-8.51415 5.89006,-10.42389c0.21316,-0.12676 0.93262,-0.18303 1.16223,-0.27892l1.11182,0.0785l-1.33356,0.5993c-3.35204,1.40616 -4.8682,7.26004 -5.90531,10.31556c-0.62507,2.20342 -1.27398,4.52994 -1.62922,6.87267c3.11852,0.94333 4.7706,0.7503 7.31793,-1.21069c2.43195,-3.28083 6.73156,-9.01689 9.90694,-11.48167c0.09335,-0.04156 1.3276,-0.68739 1.3276,-0.68739c0,0 0.57637,0.73028 0.69103,0.67927z" data-paper-data="{&quot;index&quot;:null}" fill="#9f2c00" stroke="#9f2c00" stroke-width="1"/><path d="M236.98903,166.55337c-0.51496,1.81293 -2.40207,2.86514 -4.21499,2.35018c-1.81293,-0.51496 -2.86514,-2.40207 -2.35018,-4.21499c0.51496,-1.81294 2.40208,-2.86514 4.215,-2.35019c1.81294,0.51496 2.86514,2.40207 2.35018,4.215z" data-paper-data="{&quot;index&quot;:null}" fill="url(#color-4)" stroke="none" stroke-width="0"/></g></g></g></svg>