<svg version="1.1" xmlns="http://www.w3.org/2000/svg" xmlns:xlink="http://www.w3.org/1999/xlink" width="57.40741" height="33.55861" viewBox="0,0,57.40741,33.55861"><g transform="translate(-211.29629,-163.22069)"><g data-paper-data="{&quot;isPaintingLayer&quot;:true}" fill-rule="nonzero" stroke="none" stroke-width="0" stroke-linecap="butt" stroke-linejoin="miter" stroke-miterlimit="10" stroke-dasharray="" stroke-dashoffset="0" style="mix-blend-mode: normal"><path d="M211.2963,189.89041c0,-3.25949 0,-10.91211 0,-16.43665c0,-3.59217 2.14005,-6.2846 5.55946,-6.2846c11.84009,0 39.01925,0 45.80507,0c2.9997,0 6.04289,3.68579 6.04289,6.52632c0,3.21684 0,10.9297 0,16.55751c0,3.71822 -3.11273,6.52632 -6.16374,6.52632c-6.86867,0 -34.25081,0 -45.92593,0c-3.27795,0 -5.31774,-3.92713 -5.31774,-6.88889z" fill="#ff7408"/><path d="M211.2963,185.94194c0,-3.25949 0,-10.91211 0,-16.43665c0,-3.59217 2.14005,-6.2846 5.55946,-6.2846c11.84009,0 39.01925,0 45.80507,0c2.9997,0 6.04289,3.68579 6.04289,6.52632c0,3.21684 0,10.9297 0,16.55751c0,3.71823 -3.11273,6.52632 -6.16374,6.52632c-6.86867,0 -34.25081,0 -45.92593,0c-3.27795,0 -5.31774,-3.92713 -5.31774,-6.88889z" fill="#ffa208"/><path d="M231.04957,183.53407v-3.9976v-3.9976c0,-4.21549 3.02114,-6.0298 6.74154,-4.04817l4.18427,2.22762l4.18427,2.22824c3.72102,1.98163 3.72102,5.19819 0,7.17982l-4.18427,2.22824c0,0 -0.46388,0.24599 -4.18427,2.22762c-3.72039,1.98163 -6.74154,0.16732 -6.74154,-4.04817z" data-paper-data="{&quot;index&quot;:null}" fill="#ffffff"/></g></g></svg>