<svg version="1.1" xmlns="http://www.w3.org/2000/svg" xmlns:xlink="http://www.w3.org/1999/xlink" width="77.40741" height="45.25" viewBox="0,0,77.40741,45.25"><g transform="translate(-201.2963,-158.00001)"><g data-paper-data="{&quot;isPaintingLayer&quot;:true}" fill-rule="nonzero" stroke="none" stroke-linejoin="miter" stroke-miterlimit="10" stroke-dasharray="" stroke-dashoffset="0" style="mix-blend-mode: normal"><path d="M201.2963,193.96111c0,-4.39505 0,-14.71375 0,-22.16296c0,-4.84363 2.88562,-8.47407 7.4963,-8.47407c15.96502,0 52.61305,0 61.76296,0c4.04476,0 8.14815,4.96987 8.14815,8.8c0,4.33755 0,14.73746 0,22.32593c0,5.0136 -4.19717,8.8 -8.31111,8.8c-9.26163,0 -46.18335,0 -61.92593,0c-4.41995,0 -7.17037,-5.29529 -7.17037,-9.28889z" fill="#ff7408" stroke-width="0" stroke-linecap="butt"/><path d="M201.2963,188.63704c0,-4.39505 0,-14.71375 0,-22.16296c0,-4.84363 2.88562,-8.47407 7.4963,-8.47407c15.96502,0 52.61305,0 61.76296,0c4.04476,0 8.14815,4.96987 8.14815,8.8c0,4.33755 0,14.73746 0,22.32593c0,5.01361 -4.19716,8.8 -8.31111,8.8c-9.26163,0 -46.18335,0 -61.92593,0c-4.41994,0 -7.17037,-5.29529 -7.17037,-9.28889z" fill="#ffa208" stroke-width="0" stroke-linecap="butt"/><path d="M213.69099,188.35434c-0.93375,0 -1.89593,-0.09577 -2.88653,-0.28731c-0.98762,-0.19154 -1.83308,-0.46239 -2.53638,-0.81254c-0.41301,-0.20051 -0.7048,-0.46837 -0.87539,-0.80356c-0.1676,-0.33819 -0.22895,-0.68684 -0.18405,-1.04598c0.04788,-0.36213 0.17807,-0.68385 0.39056,-0.96517c0.21548,-0.28431 0.4998,-0.47585 0.85294,-0.57461c0.35314,-0.10176 0.75119,-0.05238 1.19412,0.14815c0.58359,0.2903 1.242,0.50877 1.97523,0.65542c0.73622,0.14365 1.42606,0.21548 2.06951,0.21548c1.01156,0 1.71935,-0.13318 2.12338,-0.39954c0.40702,-0.26935 0.61053,-0.60305 0.61053,-1.00108c0,-0.35315 -0.14216,-0.63597 -0.42647,-0.84845c-0.28132,-0.21548 -0.78261,-0.39954 -1.50387,-0.55217l-2.68901,-0.57461c-2.91198,-0.62848 -4.36796,-2.15331 -4.36796,-4.57447c0,-1.05945 0.28731,-1.98721 0.86192,-2.78329c0.57461,-0.79608 1.37518,-1.41259 2.40171,-1.84954c1.02952,-0.43694 2.22513,-0.65542 3.58685,-0.65542c0.79608,0 1.60413,0.08829 2.42415,0.26486c0.82002,0.17657 1.52931,0.44143 2.12787,0.79458c0.46089,0.24541 0.75268,0.57911 0.87539,1.00109c0.1227,0.41899 0.10624,0.82751 -0.04938,1.22555c-0.15263,0.39804 -0.42497,0.68983 -0.81703,0.87539c-0.38906,0.18256 -0.88287,0.15114 -1.48143,-0.09427c-0.45789,-0.19752 -0.96368,-0.34566 -1.51734,-0.44443c-0.55067,-0.10175 -1.08638,-0.15263 -1.60712,-0.15263c-0.85893,0 -1.51884,0.14964 -1.97972,0.44891c-0.45789,0.29928 -0.68684,0.68684 -0.68684,1.16269c0,0.33519 0.13767,0.61053 0.41301,0.82601c0.27534,0.21548 0.76615,0.39954 1.47245,0.55217l2.66657,0.57461c2.95686,0.62848 4.4353,2.1144 4.4353,4.45775c0,1.05645 -0.28432,1.97673 -0.85294,2.76084c-0.56564,0.78112 -1.36172,1.38566 -2.38824,1.81363c-1.02652,0.42797 -2.2371,0.64195 -3.63174,0.64195zM224.74834,188.30944c-0.67637,0 -1.19861,-0.18405 -1.56672,-0.55217c-0.36512,-0.36811 -0.54768,-0.90382 -0.54768,-1.60712v-12.29584c0,-0.7063 0.18256,-1.2435 0.54768,-1.61161c0.36811,-0.36811 0.89035,-0.55217 1.56672,-0.55217c0.67337,0 1.19412,0.18405 1.56223,0.55217c0.36811,0.36811 0.55217,0.90532 0.55217,1.61162v4.29613h6.68887v-4.29613c0,-0.7063 0.18256,-1.2435 0.54768,-1.61161c0.36811,-0.36811 0.89035,-0.55217 1.56672,-0.55217c0.67337,0 1.18963,0.18405 1.54876,0.55217c0.36212,0.36811 0.54319,0.90532 0.54319,1.61162v12.29584c0,0.7033 -0.18106,1.23901 -0.54319,1.60712c-0.35913,0.36811 -0.87539,0.55217 -1.54876,0.55217c-0.69133,0 -1.21656,-0.18405 -1.5757,-0.55217c-0.35913,-0.36811 -0.5387,-0.90382 -0.5387,-1.60712v-4.52958h-6.68887v4.52958c0,0.7033 -0.18106,1.23901 -0.54319,1.60712c-0.35913,0.36811 -0.88287,0.55217 -1.57121,0.55217zM248.51094,188.35434c-1.63705,0 -3.07359,-0.34866 -4.3096,-1.04598c-1.23302,-0.69732 -2.19371,-1.67297 -2.88205,-2.92694c-0.68834,-1.25697 -1.03251,-2.72044 -1.03251,-4.39041c0,-1.68793 0.33968,-3.15589 1.01904,-4.40388c0.68235,-1.24799 1.64453,-2.21615 2.88654,-2.9045c1.242,-0.69133 2.68153,-1.037 4.31858,-1.037c1.64004,0 3.07658,0.34567 4.3096,1.037c1.23602,0.68834 2.19819,1.65651 2.88654,2.9045c0.68834,1.24799 1.03251,2.71595 1.03251,4.40388c0,1.66997 -0.34417,3.13344 -1.03251,4.39041c-0.68834,1.25397 -1.65052,2.22962 -2.88653,2.92694c-1.23303,0.69731 -2.66956,1.04598 -4.3096,1.04598zM248.51094,184.81687c1.19711,0 2.13684,-0.42497 2.8192,-1.27492c0.68235,-0.84995 1.02353,-2.03359 1.02353,-3.55093c0,-1.51734 -0.33818,-2.6965 -1.01455,-3.53746c-0.67337,-0.84396 -1.6161,-1.26595 -2.82818,-1.26595c-1.20908,0 -2.15181,0.42198 -2.82818,1.26595c-0.67337,0.84097 -1.01006,2.02013 -1.01006,3.53746c0,1.51734 0.33669,2.70098 1.01007,3.55094c0.67637,0.84995 1.6191,1.27492 2.82818,1.27492zM261.3627,188.30944c-0.67637,0 -1.19861,-0.18405 -1.56672,-0.55217c-0.36512,-0.36811 -0.54768,-0.89634 -0.54768,-1.58468v-12.13423c0,-0.69133 0.18256,-1.22106 0.54768,-1.58917c0.36811,-0.36811 0.89784,-0.55217 1.58917,-0.55217h5.65187c1.84056,0 3.26213,0.47136 4.26471,1.41409c1.00258,0.94272 1.50387,2.2416 1.50387,3.8966c0,1.65501 -0.50129,2.95387 -1.50387,3.8966c-1.00259,0.94272 -2.42415,1.41409 -4.26471,1.41409h-3.55991v3.65419c0,0.68834 -0.18106,1.21656 -0.54319,1.58468c-0.35913,0.36811 -0.88287,0.55217 -1.57121,0.55217zM263.4771,179.27723h2.82818c1.65202,0 2.47802,-0.68983 2.47802,-2.06951c0,-1.37967 -0.82601,-2.06951 -2.47802,-2.06951h-2.82818z" fill="#ffffff" stroke-width="1" stroke-linecap="square"/></g></g></svg>