<svg version="1.1" xmlns="http://www.w3.org/2000/svg" xmlns:xlink="http://www.w3.org/1999/xlink" width="218.92333" height="67.07949" viewBox="0,0,218.92333,67.07949"><defs><radialGradient cx="134.33049" cy="41.85662" r="2.99849" gradientUnits="userSpaceOnUse" id="color-1"><stop offset="0" stop-color="#ffffff"/><stop offset="1" stop-color="#ffffff" stop-opacity="0"/></radialGradient><radialGradient cx="162.13014" cy="62.9844" r="25.07403" gradientUnits="userSpaceOnUse" id="color-2"><stop offset="0" stop-color="#ff8a00"/><stop offset="1" stop-color="#ffa100"/></radialGradient><radialGradient cx="140.29045" cy="43.18783" r="15.08223" gradientUnits="userSpaceOnUse" id="color-3"><stop offset="0" stop-color="#ffc600"/><stop offset="1" stop-color="#ffa100"/></radialGradient><radialGradient cx="136.05757" cy="49.89149" r="5.95783" gradientUnits="userSpaceOnUse" id="color-4"><stop offset="0" stop-color="#ffde00"/><stop offset="1" stop-color="#ffde00" stop-opacity="0"/></radialGradient><linearGradient x1="220.88705" y1="46.40362" x2="220.88705" y2="88.29066" gradientUnits="userSpaceOnUse" id="color-5"><stop offset="0" stop-color="#ffaa21"/><stop offset="1" stop-color="#ff8c14"/></linearGradient><linearGradient x1="220.88705" y1="46.40362" x2="220.88705" y2="88.29066" gradientUnits="userSpaceOnUse" id="color-6"><stop offset="0" stop-color="#ffaa21"/><stop offset="1" stop-color="#ff8c14"/></linearGradient><linearGradient x1="220.88707" y1="46.40362" x2="220.88707" y2="88.29068" gradientUnits="userSpaceOnUse" id="color-7"><stop offset="0" stop-color="#ffaa21"/><stop offset="1" stop-color="#ff8c14"/></linearGradient></defs><g transform="translate(-28.25,-26.12288)"><g data-paper-data="{&quot;isPaintingLayer&quot;:true}" stroke-miterlimit="10" stroke-dasharray="" stroke-dashoffset="0" style="mix-blend-mode: normal"><path d="M34.3856,33.19492c0,0 5.78191,11.62882 7.08656,19.04899c1.83376,10.42951 2.87954,37.63321 2.87954,37.63321" fill="none" fill-rule="nonzero" stroke="#eeeeee" stroke-width="4" stroke-linecap="round" stroke-linejoin="miter"/><path d="M83.61017,89.27119c0,0 1.04578,-27.2037 2.87954,-37.63321c1.30464,-7.42017 7.08656,-19.04899 7.08656,-19.04899" data-paper-data="{&quot;index&quot;:null}" fill="none" fill-rule="nonzero" stroke="#eeeeee" stroke-width="4" stroke-linecap="round" stroke-linejoin="miter"/><path d="M53.69492,31.94915l3.73729,10.58899l-14.32628,10.58898" fill="none" fill-rule="nonzero" stroke="#eeeeee" stroke-width="4" stroke-linecap="round" stroke-linejoin="miter"/><path d="M56.80932,41.29237l26.7839,28.65254l-13.08051,18.68644l-27.40678,-30.52119" fill="none" fill-rule="nonzero" stroke="#eeeeee" stroke-width="4" stroke-linecap="round" stroke-linejoin="miter"/><path d="M36.87712,38.80085l45.47034,45.47034" fill="none" fill-rule="nonzero" stroke="#eeeeee" stroke-width="4" stroke-linecap="round" stroke-linejoin="miter"/><path d="M73.62712,31.94915l-1.24576,9.9661l-28.65254,28.02966" fill="none" fill-rule="nonzero" stroke="#eeeeee" stroke-width="4" stroke-linecap="round" stroke-linejoin="miter"/><path d="M71.75847,41.91525l13.08051,12.45763l-29.27542,34.25847l-11.21186,-13.70339" fill="none" fill-rule="nonzero" stroke="#eeeeee" stroke-width="4" stroke-linecap="round" stroke-linejoin="miter"/><path d="M90.44492,37.4849l-45.47034,48.03205" fill="none" fill-rule="nonzero" stroke="#eeeeee" stroke-width="4" stroke-linecap="round" stroke-linejoin="miter"/><path d="M99,28.87288h-68" fill="none" fill-rule="nonzero" stroke="#d9652a" stroke-width="5.5" stroke-linecap="round" stroke-linejoin="miter"/><g fill-rule="nonzero" stroke-linecap="butt" stroke-linejoin="miter"><path d="M139.21995,38.50116c1.22981,1.10905 -0.88344,3.04612 -1.90717,4.18133c-1.02373,1.13522 -3.09258,2.25659 -4.32239,1.14756c-1.22981,-1.10905 -0.05679,-4.90179 0.96694,-6.03701c1.02373,-1.13522 4.03281,-0.40092 5.26262,0.70812z" fill="url(#color-1)" stroke="none" stroke-width="NaN"/><path d="M140.02286,92.08391c-15.5103,-4.40565 -24.51243,-20.55073 -20.10677,-36.06106c4.40566,-15.5103 20.55074,-24.51244 36.06104,-20.10677c15.51033,4.40566 24.51246,20.55074 20.10677,36.06106c-4.40565,15.5103 -20.55074,24.51244 -36.06106,20.10677z" fill="#9f2c00" stroke="none" stroke-width="0"/><path d="M172.14871,55.90734c1.58095,4.70353 1.80669,9.91714 0.34845,15.05098c-3.843,13.52939 -17.92607,21.38179 -31.45546,17.53882c-7.52762,-2.13821 -13.29781,-7.44642 -16.27396,-14.06552c-2.37288,-5.27739 -2.96966,-11.38815 -1.26486,-17.38994c3.843,-13.52939 17.92606,-21.38179 31.45547,-17.53882c8.39554,2.38473 14.60506,8.71261 17.19038,16.40449z" data-paper-data="{&quot;index&quot;:null}" fill="#ff6700" stroke="#ffffff" stroke-width="0"/><path d="M154.6567,39.66609c4.77082,1.35513 8.81466,3.93682 11.86893,7.29063c2.83571,3.11377 4.33097,5.44967 5.25044,9.53074c0.35852,1.5914 0.9105,5.99265 0.13899,9.20792c-1.34512,5.26518 -1.22811,4.47727 -3.4032,8.7182c-2.99448,4.28283 -3.02015,4.323 -6.49541,7.15954c-3.2067,2.41489 -4.65194,3.14441 -7.3333,4.30372c-2.65389,0.70233 -4.01112,1.46443 -8.32934,1.48448c-4.85643,-0.22416 -4.88379,-0.33181 -7.26907,-1.08673c-3.38785,-0.71826 -3.92055,-2.07329 -6.95696,-3.10941c-7.52667,-6.02431 -11.25559,-16.1859 -8.39508,-26.25654c3.77805,-13.30082 17.6232,-21.02052 30.92402,-17.2425z" data-paper-data="{&quot;index&quot;:null}" fill="url(#color-2)" stroke="#ffffff" stroke-width="0"/><path d="M129.46445,59.22528c-1.52193,-8.18946 3.88315,-16.0621 12.07261,-17.58404c8.18946,-1.52193 16.06211,3.88315 17.58405,12.07261c1.52193,8.18946 -3.88313,16.06211 -12.07261,17.58405c-8.18946,1.52193 -16.06211,-3.88316 -17.58406,-12.07262z" fill="url(#color-3)" stroke="#9f2c00" stroke-width="0"/><path d="M168.1292,47.78035c0,0 -2.39571,1.3698 -2.69532,1.49861c-5.4563,4.33073 -13.35956,14.55486 -17.6589,20.16596c-4.84176,3.85637 -7.53146,3.841 -13.46422,2.21991c-0.11844,1.04035 -0.19874,2.08084 -0.23185,3.11842c2.53193,0.99435 5.18623,1.73333 8.17693,2.56786c7.65701,2.17856 18.98028,-0.18705 26.20916,-3.61333c0.32668,-0.09573 4.24698,-1.85827 4.24698,-1.85827l-0.88771,2.33845c-0.31287,0.09072 -2.49789,1.08554 -2.81078,1.17626c-7.59198,3.55419 -19.0847,5.43497 -27.24147,3.66012c-2.78973,-0.80947 -5.3034,-1.52074 -7.69996,-2.41321c0.0243,0.94231 0.09239,1.88066 0.21121,2.8127c4.06685,0.74173 8.20348,1.90387 11.67204,3.70967c2.54733,1.33918 4.32279,3.38868 7.06018,4.46538l3.63342,0.69445l-3.19256,0.91288c-2.95282,-0.83874 -5.61136,-3.16002 -8.27949,-4.53386c-3.18406,-1.65873 -6.96337,-2.74694 -10.70947,-3.46054c0.03768,0.69644 0.10682,1.35156 0.28024,2.06128l1.51237,3.57953l-2.16247,-1.43488c-0.26603,-1.05451 -1.30174,-3.43802 -1.34314,-4.50755c-1.35143,-0.21923 -2.82412,-0.4323 -4.11135,-0.57002l-1.4005,-1.86905c1.15311,0.12334 4.08107,0.47033 5.28529,0.65701c-0.11767,-1.0597 -0.17324,-2.12761 -0.1762,-3.20026c-2.59962,-1.10267 -5.9522,-2.15292 -8.57466,-4.24345l-0.48894,-2.29659c2.2838,1.82058 6.86273,3.64 9.11032,4.65711c0.05096,-0.99422 0.14211,-1.99074 0.26584,-2.9869c-0.29663,-0.12707 -0.59433,-0.26733 -0.8932,-0.42131c-6.19265,-2.96819 -7.61456,-7.1502 -6.90454,-13.94538c0,0 0.64716,-3.92732 1.10103,-4.63202c0.42427,-0.65871 1.52377,-2.50921 1.52377,-2.50921l-1.40738,7.28466c-0.5399,6.18011 0.82821,9.5604 6.44153,12.25088c0.13106,0.06915 0.26183,0.13517 0.39233,0.19813c0.65105,-4.05106 1.76957,-8.06847 2.85013,-11.86799c1.91939,-5.66174 4.67504,-14.86165 10.28125,-18.19515c0.37208,-0.22125 1.62791,-0.31948 2.0287,-0.48686l1.94071,0.13703l-2.32777,1.04609c-5.85107,2.45449 -8.49756,12.67257 -10.30786,18.00605c-1.09107,3.84612 -2.22377,7.90712 -2.84385,11.99641c5.44345,1.6466 8.3272,1.30966 12.77362,-2.11329c4.24503,-5.72677 11.7501,-15.7392 17.2928,-20.04152c0.16294,-0.07255 2.31735,-1.19985 2.31735,-1.19985c0,0 1.00608,1.27473 1.20621,1.18567z" data-paper-data="{&quot;index&quot;:null}" fill="#9f2c00" stroke="#9f2c00" stroke-width="1"/><path d="M143.68034,52.69737c-0.89888,3.16451 -4.19287,5.00116 -7.35737,4.10229c-3.16451,-0.89888 -5.00116,-4.19287 -4.10229,-7.35737c0.89888,-3.16454 4.19289,-5.00118 7.35738,-4.10232c3.16452,0.89888 5.00118,4.19287 4.1023,7.35739z" data-paper-data="{&quot;index&quot;:null}" fill="url(#color-4)" stroke="none" stroke-width="0"/></g><g fill-rule="evenodd" stroke-linecap="butt" stroke-linejoin="round"><path d="M198.85073,62.40305l15,-3.43923l7.0363,-12.5602l8.18274,13.24807l13.85357,2.75136l-10.40928,11.72245l1.99215,14.16514l-13.38993,-4.61466l-13.84847,4.61466l2.22142,-15.3116z" fill="url(#color-5)" stroke="url(#color-6)" stroke-width="8.5"/><path d="M198.85074,62.40305l15,-3.43921l7.0363,-12.5602l8.18274,13.24807l13.85357,2.75136l-10.40928,11.72245l1.99215,14.16514l-13.38991,-4.61466l-13.84847,4.61466l2.22142,-15.3116z" fill="url(#color-7)" stroke="#fff0a6" stroke-width="4"/><path d="M203.09274,63.86857l12.13617,-2.7826l5.69291,-10.16218l6.62049,10.71872l11.20863,2.22607l-8.42193,9.48437l1.6118,11.46072l-10.83347,-3.73365l-11.20447,3.73365l1.79731,-12.38829z" fill="#f2cc41" stroke="#f2cc41" stroke-width="2.5"/></g></g></g></svg>