<svg version="1.1" xmlns="http://www.w3.org/2000/svg" xmlns:xlink="http://www.w3.org/1999/xlink" width="399" height="83.03394" viewBox="0,0,399,83.03394"><g transform="translate(-43.5,-75)"><g data-paper-data="{&quot;isPaintingLayer&quot;:true}" fill-rule="nonzero" stroke-linejoin="miter" stroke-miterlimit="10" stroke-dasharray="" stroke-dashoffset="0" style="mix-blend-mode: normal"><path d="M425,92.5h-364" fill="none" stroke="#999999" stroke-width="35" stroke-linecap="round"/><path d="M230.56454,108.41689c-3.43871,-2.28276 -5.81781,-6.0798 -6.12932,-10.51544c-0.53286,-7.58757 5.18611,-14.17047 12.77368,-14.70333c7.58757,-0.53286 14.17047,5.18611 14.70333,12.77368c0.35217,5.01461 -2.02639,9.5904 -5.87034,12.27091" fill="none" stroke="#666666" stroke-width="4" stroke-linecap="butt"/><path d="M254.19849,158.03394c-2.59719,0 -7.46199,-0.1816 -12.10391,-2.93106c-2.44547,-1.44848 -12.01787,-10.69231 -18.12702,-20.0447c-4.94905,-7.57642 -6.86907,-15.56782 -6.86907,-16.82424c0,-1.40134 2.45038,-4.53598 5.42079,-3.24794c3.40068,1.47461 7.48296,7.56533 9.3503,8.50537c2.69503,1.35671 -0.32746,-18.16333 0.76476,-27.8871c0.65344,-5.81742 6.30588,-4.34766 8.57791,-3.67782c0.44203,0.13032 1.6174,1.81197 1.943,3.14253c1.50291,6.14157 -0.45432,31.04729 0.59138,26.57622c0.46637,-1.99405 1.42579,-16.51326 2.20609,-16.90552c0.35383,-0.17787 1.95224,-2.21251 3.54105,-2.35738c1.51435,-0.13808 3.01998,1.16878 3.43092,2.74017c1.34638,5.14837 0.10113,16.51146 0.87378,16.51146c0.88557,0 0.49134,-8.37938 1.28663,-10.87688c0.60208,-1.89076 3.19816,-2.70533 3.81831,-2.54187c0.5206,0.13722 3.05905,0.56904 3.59432,2.35917c0.92019,3.07743 -0.56902,12.81377 0.22553,13.25213c0.84705,0.46733 0.30538,-7.11605 1.98085,-8.58612c0.88891,-0.77994 2.27947,-1.60466 3.60099,-1.53817c1.58304,0.07966 3.66701,1.5772 4.07097,2.03884c1.42373,1.62705 2.1853,19.22423 -1.45702,28.90063c-3.55491,9.44417 -11.83766,13.39226 -16.72057,13.39226z" fill="#3e3e3e" stroke="none" stroke-width="0" stroke-linecap="butt"/></g></g></svg>