<svg version="1.1" xmlns="http://www.w3.org/2000/svg" xmlns:xlink="http://www.w3.org/1999/xlink" width="206.91171" height="172.50523" viewBox="0,0,206.91171,172.50523"><defs><linearGradient x1="281.86037" y1="218.03945" x2="281.86037" y2="222.76055" gradientUnits="userSpaceOnUse" id="color-1"><stop offset="0" stop-color="#ffaa21"/><stop offset="1" stop-color="#ff8c14"/></linearGradient><linearGradient x1="281.86037" y1="218.03945" x2="281.86037" y2="222.76055" gradientUnits="userSpaceOnUse" id="color-2"><stop offset="0" stop-color="#ffaa21"/><stop offset="1" stop-color="#ff8c14"/></linearGradient><linearGradient x1="281.86037" y1="218.03945" x2="281.86037" y2="222.76055" gradientUnits="userSpaceOnUse" id="color-3"><stop offset="0" stop-color="#ffaa21"/><stop offset="1" stop-color="#ff8c14"/></linearGradient></defs><g transform="translate(-136.54414,-93.74739)"><g data-paper-data="{&quot;isPaintingLayer&quot;:true}" stroke-dasharray="" stroke-dashoffset="0" style="mix-blend-mode: normal"><g stroke-miterlimit="10"><path d="M142.11238,96.82576l195.8506,0.16771l-0.78765,165.91357l-195.13832,0.26723z" data-paper-data="{&quot;origRot&quot;:0,&quot;index&quot;:null}" fill="#000000" fill-rule="evenodd" stroke="#000000" stroke-width="4" stroke-linecap="round" stroke-linejoin="round" opacity="0.42445"/><path d="M142.11238,96.82576l195.8506,0.16771l-0.78765,165.91357l-195.13832,0.26723z" data-paper-data="{&quot;origRot&quot;:0,&quot;index&quot;:null}" fill="#000000" fill-rule="evenodd" stroke="#000000" stroke-width="5" stroke-linecap="round" stroke-linejoin="round" opacity="0.42445"/><path d="M139.04414,263.75262v-167.50523h201.91171v167.50523z" fill="none" fill-rule="nonzero" stroke="#333333" stroke-width="5" stroke-linecap="butt" stroke-linejoin="miter"/></g><text transform="translate(155.79468,254.75975) scale(0.24522,0.24522)" font-size="40" xml:space="preserve" fill="#ffffff" fill-rule="nonzero" stroke="none" stroke-width="1" stroke-linecap="butt" stroke-linejoin="miter" stroke-miterlimit="10" stroke-dasharray="" stroke-dashoffset="0" font-family="Sans Serif" font-weight="normal" text-anchor="start" style="mix-blend-mode: normal"><tspan x="0" dy="0">CLICK TO SWITCH TO THE NEXT PAGE</tspan></text><text transform="translate(189.90003,172.76875) scale(0.5,0.5)" font-size="40" xml:space="preserve" fill="#ffffff" fill-rule="nonzero" stroke="none" stroke-width="1" stroke-linecap="butt" stroke-linejoin="miter" stroke-miterlimit="10" stroke-dasharray="" stroke-dashoffset="0" font-family="Sans Serif" font-weight="normal" text-anchor="start" style="mix-blend-mode: normal"><tspan x="0" dy="0">HAVE FUN!</tspan></text><text transform="translate(202.00004,202.70117) scale(0.41192,0.41192)" font-size="40" xml:space="preserve" fill="#ffffff" fill-rule="nonzero" stroke="none" stroke-width="1" stroke-linecap="butt" stroke-linejoin="miter" stroke-miterlimit="10" stroke-dasharray="" stroke-dashoffset="0" font-family="Sans Serif" font-weight="normal" text-anchor="start" style="mix-blend-mode: normal"><tspan x="0" dy="0">❤️ AND ⭐️</tspan></text><text transform="translate(160.50001,130.41547) scale(0.34588,0.34588)" font-size="40" xml:space="preserve" fill="#ffffff" fill-rule="nonzero" stroke="none" stroke-width="1" stroke-linecap="butt" stroke-linejoin="miter" stroke-miterlimit="10" stroke-dasharray="" stroke-dashoffset="0" font-family="Sans Serif" font-weight="normal" text-anchor="start" style="mix-blend-mode: normal"><tspan x="0" dy="0">HOPE YOU UNDERSOOD</tspan></text><path d="M190.17175,213.12756c0,-1.96808 2.34865,-3.56375 5.24544,-3.56375h92.17273c2.89679,0 5.24544,1.59567 5.24544,3.56375v15.3241c0,1.96808 -2.34865,3.56375 -5.24544,3.56375h-92.17273c-2.89679,0 -5.24544,-1.59567 -5.24544,-3.56375z" data-paper-data="{&quot;index&quot;:null}" fill="#000000" fill-rule="evenodd" stroke="none" stroke-width="1" stroke-linecap="butt" stroke-linejoin="round" stroke-miterlimit="2"/><path d="M290.14842,226.08691c0,1.36067 -1.41832,2.46386 -3.16766,2.46386h-55.66214c-1.74934,0 -3.16766,-1.1032 -3.16766,-2.46386v-10.5946c0,-1.36067 1.41832,-2.46386 3.16766,-2.46386h55.66214c1.74934,0 3.16766,1.1032 3.16766,2.46386z" data-paper-data="{&quot;index&quot;:null}" fill="#2cbcff" fill-rule="evenodd" stroke="none" stroke-width="1" stroke-linecap="butt" stroke-linejoin="round" stroke-miterlimit="2"/><path d="M197.01845,221.89173c-1.37134,-1.38877 -1.36604,-3.62981 0.01619,-5.01205c1.38753,-1.38753 3.64071,-1.38753 5.02855,0.00031l0.00467,0.00467c1.39563,-1.23682 3.5339,-1.18731 4.87006,0.14885c1.33584,1.33584 1.38566,3.47443 0.14885,4.87006l0.00467,0.00467l-4.40547,4.40547c-0.16503,0.16503 -0.38923,0.25783 -0.62277,0.25783c-0.23354,0 -0.45773,-0.09279 -0.62277,-0.25783l-4.40547,-4.40547z" data-paper-data="{&quot;index&quot;:null}" fill="#ff363f" fill-rule="evenodd" stroke="none" stroke-width="1" stroke-linecap="butt" stroke-linejoin="round" stroke-miterlimit="2"/><path d="M217.69962,215.59937c0.11651,-0.35934 0.45173,-0.60299 0.82988,-0.60299c0.37814,0 0.71337,0.24365 0.82988,0.60299c0.30906,0.9513 0.63283,1.94756 0.83274,2.56282c0.11692,0.35976 0.45214,0.60299 0.83029,0.60299c0.64674,0 1.69451,0 2.69445,0c0.37814,0 0.71296,0.24365 0.82988,0.60299c0.11692,0.35976 -0.01104,0.75344 -0.31683,0.97583c-0.80903,0.58787 -1.6569,1.20353 -2.18017,1.58372c-0.30578,0.22239 -0.43374,0.61648 -0.31683,0.97583c0.19991,0.61525 0.52368,1.61152 0.83233,2.56282c0.11692,0.35934 -0.01104,0.75344 -0.31683,0.97583c-0.30578,0.22198 -0.72032,0.22198 -1.02611,0c-0.80903,-0.58787 -1.65649,-1.20394 -2.17976,-1.58413c-0.30578,-0.22198 -0.72032,-0.22198 -1.02611,0c-0.52327,0.38019 -1.37073,0.99626 -2.17976,1.58413c-0.30578,0.22198 -0.72032,0.22198 -1.02611,0c-0.30578,-0.22239 -0.43374,-0.61648 -0.31683,-0.97583c0.30865,-0.9513 0.63243,-1.94756 0.83233,-2.56282c0.11692,-0.35934 -0.01104,-0.75344 -0.31683,-0.97583c-0.52327,-0.38019 -1.37115,-0.99586 -2.18017,-1.58372c-0.30578,-0.22239 -0.43374,-0.61607 -0.31683,-0.97583c0.11692,-0.35934 0.45173,-0.60299 0.82988,-0.60299c0.99994,0 2.04772,0 2.69445,0c0.37814,0 0.71337,-0.24324 0.83029,-0.60299c0.19991,-0.61525 0.52368,-1.61152 0.83274,-2.56282z" data-paper-data="{&quot;index&quot;:null}" fill="#ffbc3f" fill-rule="evenodd" stroke="none" stroke-width="1" stroke-linecap="butt" stroke-linejoin="round" stroke-miterlimit="2"/><text transform="translate(231.46388,222.92755) scale(0.15897,0.15897)" font-size="40" xml:space="preserve" fill="#ffffff" fill-rule="nonzero" stroke="none" stroke-width="1" stroke-linecap="butt" stroke-linejoin="miter" stroke-miterlimit="10" stroke-dasharray="" stroke-dashoffset="0" font-family="Sans Serif" font-weight="normal" text-anchor="start" style="mix-blend-mode: normal"><tspan x="0" dy="0">TO EARN 100+</tspan></text><g fill-rule="evenodd" stroke-linecap="butt" stroke-linejoin="round" stroke-miterlimit="10"><path d="M284.34408,219.84276l-1.69065,-0.38763l-0.79306,-1.41566l-0.92228,1.49319l-1.56144,0.31011l1.17323,1.32124l-0.22454,1.59655l1.50918,-0.52012l1.56087,0.52012l-0.25037,-1.72577z" fill="url(#color-1)" stroke="url(#color-2)" stroke-width="6.5"/><path d="M284.34408,219.84276l-1.69065,-0.38763l-0.79306,-1.41567l-0.92228,1.49319l-1.56144,0.31011l1.17323,1.32124l-0.22454,1.59655l1.50918,-0.52012l1.56086,0.52012l-0.25038,-1.72577z" fill="url(#color-3)" stroke="#fff0a6" stroke-width="4"/><path d="M283.86597,220.00793l-1.36787,-0.31363l-0.64164,-1.14538l-0.7462,1.2081l-1.26333,0.25091l0.94924,1.06898l-0.18166,1.29174l1.22104,-0.42082l1.26286,0.42082l-0.20258,-1.39629z" fill="#f2cc41" stroke="#f2cc41" stroke-width="2.5"/></g></g></g></svg>