<svg version="1.1" xmlns="http://www.w3.org/2000/svg" xmlns:xlink="http://www.w3.org/1999/xlink" width="33.01185" height="31.69712" viewBox="0,0,33.01185,31.69712"><defs><linearGradient x1="240" y1="167.40142" x2="240" y2="192.59853" gradientUnits="userSpaceOnUse" id="color-1"><stop offset="0" stop-color="#ffaa21"/><stop offset="1" stop-color="#ff8c14"/></linearGradient><linearGradient x1="240" y1="167.40142" x2="240" y2="192.59853" gradientUnits="userSpaceOnUse" id="color-2"><stop offset="0" stop-color="#ffaa21"/><stop offset="1" stop-color="#ff8c14"/></linearGradient><linearGradient x1="240" y1="167.40142" x2="240" y2="192.59853" gradientUnits="userSpaceOnUse" id="color-3"><stop offset="0" stop-color="#ffaa21"/><stop offset="1" stop-color="#ff8c14"/></linearGradient></defs><g transform="translate(-223.49407,-164.15145)"><g data-paper-data="{&quot;isPaintingLayer&quot;:true}" fill-rule="evenodd" stroke-linecap="butt" stroke-linejoin="round" stroke-miterlimit="10" stroke-dasharray="" stroke-dashoffset="0" style="mix-blend-mode: normal"><path d="M226.74408,177.02588l9.02324,-2.06885l4.23268,-7.55557l4.92232,7.96938l8.33361,1.65509l-6.2617,7.05164l1.19838,8.52102l-8.05472,-2.77594l-8.33056,2.77594l1.33629,-9.21068z" fill="url(#color-1)" stroke="url(#color-2)" stroke-width="6.5"/><path d="M226.74408,177.02588l9.02324,-2.06885l4.23268,-7.5556l4.92232,7.96938l8.33361,1.65509l-6.2617,7.05164l1.19838,8.52102l-8.05469,-2.77594l-8.33053,2.77594l1.33632,-9.21068z" fill="url(#color-3)" stroke="#fff0a6" stroke-width="4"/><path d="M229.29584,177.90743l7.30049,-1.67391l3.42454,-6.11303l3.98256,6.44781l6.74256,1.33912l-5.0662,5.70529l0.96956,6.8942l-6.51687,-2.24599l-6.74004,2.24599l1.08118,-7.45217z" fill="#f2cc41" stroke="#f2cc41" stroke-width="2.5"/></g></g></svg>