<svg version="1.1" xmlns="http://www.w3.org/2000/svg" xmlns:xlink="http://www.w3.org/1999/xlink" width="720" height="540" viewBox="0,0,720,540"><defs><linearGradient x1="159.1473" y1="146.14498" x2="320.44519" y2="146.14498" gradientUnits="userSpaceOnUse" id="color-1"><stop offset="0" stop-color="#ffae23"/><stop offset="1" stop-color="#ff7b00"/></linearGradient><linearGradient x1="177.67076" y1="193.77396" x2="298.85376" y2="193.77396" gradientUnits="userSpaceOnUse" id="color-2"><stop offset="0" stop-color="#ffae23"/><stop offset="1" stop-color="#ff7b00"/></linearGradient><clipPath id="clip-1"><path d="M-120,450v-540h720v540z" fill="none" fill-rule="nonzero" stroke-linecap="butt"/></clipPath></defs><g transform="translate(120,90)"><g clip-path="url(#clip-1)" data-paper-data="{&quot;isPaintingLayer&quot;:true}" stroke="none" stroke-width="1" stroke-linejoin="miter" stroke-miterlimit="10" stroke-dasharray="" stroke-dashoffset="0" style="mix-blend-mode: normal"><path d="M-240,-180h960v720h-960z" fill-opacity="0" fill="#000000" fill-rule="evenodd" stroke-linecap="square"/><g fill-rule="nonzero" stroke-linecap="square"><g fill="#ffffff"><path d="M164.88507,170.0035c-3.55351,0 -5.33026,-1.75866 -5.33026,-5.27599v-28.62712c0,-3.52456 1.77675,-5.28685 5.33026,-5.28685h10.89936c6.78135,0 12.04285,1.70438 15.78454,5.11315c3.74168,3.40877 5.61253,8.2288 5.61253,14.46011c0,6.22407 -1.87084,11.05135 -5.61253,14.48182c-3.74168,3.42324 -9.00319,5.13486 -15.78454,5.13486zM169.7811,161.72041h5.33026c3.89366,0 6.77411,-0.93361 8.64133,-2.80083c1.87446,-1.87446 2.81169,-4.71871 2.81169,-8.53277c0,-3.82129 -0.94447,-6.65831 -2.8334,-8.51106c-1.88894,-1.85275 -4.76214,-2.77912 -8.61962,-2.77912h-5.33026zM220.57948,170.61143c-5.70299,0 -10.06708,-1.44384 -13.09227,-4.33152c-3.01795,-2.88768 -4.52693,-7.20472 -4.52693,-12.95113v-17.84716c0,-1.66458 0.4451,-2.94196 1.33528,-3.83214c0.89019,-0.89019 2.14948,-1.33528 3.77787,-1.33528c1.62839,0 2.88768,0.4451 3.77787,1.33528c0.89019,0.89019 1.33528,2.16757 1.33528,3.83214v17.95573c0,2.8515 0.62965,5.00097 1.88894,6.44843c1.25929,1.44746 3.09394,2.17119 5.50396,2.17119c2.37383,0 4.19039,-0.72373 5.44968,-2.17119c1.25929,-1.44746 1.88894,-3.59693 1.88894,-6.44843v-17.95573c0,-1.66458 0.43424,-2.94196 1.30272,-3.83214c0.87571,-0.89019 2.12776,-1.33528 3.75616,-1.33528c1.62839,0 2.86959,0.4451 3.72359,1.33528c0.854,0.89019 1.281,2.16757 1.281,3.83214v17.84716c0,5.74641 -1.47279,10.06346 -4.41836,12.95113c-2.94558,2.88768 -7.27348,4.33152 -12.9837,4.33152zM249.59478,170.50287c-3.18441,0 -4.77661,-1.6103 -4.77661,-4.83089v-30.29893c0,-1.62839 0.40529,-2.87683 1.21587,-3.7453c0.81781,-0.87571 1.89255,-1.31357 3.22421,-1.31357c1.18692,0 2.10243,0.22435 2.74655,0.67307c0.65136,0.44148 1.40403,1.1833 2.25804,2.22547l16.06677,20.06178v-18.17284c0,-3.19164 1.57411,-4.78747 4.72233,-4.78747c1.55602,0 2.73208,0.41977 3.52818,1.25929c0.7961,0.83229 1.19415,2.00835 1.19415,3.52818v30.78745c0,1.41127 -0.37272,2.53306 -1.11816,3.36534c-0.73821,0.83229 -1.73695,1.24843 -2.99624,1.24843c-1.25929,0 -2.2508,-0.22074 -2.97453,-0.66221c-0.7165,-0.44872 -1.48364,-1.19053 -2.30146,-2.22547l-16.06677,-20.06178v18.11856c0,3.22059 -1.57411,4.83089 -4.72233,4.83089zM292.06273,170.50287c-1.63563,0 -2.89853,-0.4451 -3.78873,-1.33528c-0.88295,-0.89019 -1.32443,-2.16757 -1.32443,-3.83214v-29.85384c0,-1.66458 0.44148,-2.94196 1.32443,-3.83214c0.89019,-0.89019 2.1531,-1.33528 3.78873,-1.33528c1.62839,0 2.88768,0.4451 3.77787,1.33528c0.89019,0.89019 1.33528,2.16757 1.33528,3.83214v12.12609h0.10856l13.50479,-14.90521c0.70202,-0.73821 1.45108,-1.32081 2.24718,-1.7478c0.80334,-0.427 1.70438,-0.6405 2.70313,-0.6405c1.51983,0 2.63075,0.39805 3.33277,1.19415c0.70202,0.7961 1.01684,1.73333 0.94447,2.81169c-0.07237,1.07112 -0.49937,2.03368 -1.281,2.88768l-11.56158,12.23465l12.23465,13.83046c0.96256,1.07835 1.44384,2.17481 1.44384,3.28935c0,1.1073 -0.39082,2.04091 -1.17244,2.80083c-0.77439,0.75991 -1.88532,1.13987 -3.33277,1.13987c-1.25929,0 -2.27974,-0.24969 -3.06138,-0.74906c-0.77439,-0.49937 -1.58859,-1.24843 -2.44259,-2.24718l-13.55907,-15.1766h-0.10856v13.00542c0,1.66458 -0.43786,2.94196 -1.31357,3.83214c-0.86847,0.89019 -2.135,1.33528 -3.79958,1.33528z"/><path d="M182.62666,213.5775c-3.03225,0 -4.54838,-1.50069 -4.54838,-4.50206v-24.42789c0,-3.00756 1.51613,-4.51132 4.54838,-4.51132h11.57013c3.6066,0 6.398,0.78431 8.37422,2.35293c1.97622,1.56245 2.96433,3.656 2.96433,6.28066c0,1.74154 -0.43538,3.26076 -1.30615,4.55764c-0.8646,1.29689 -2.07194,2.2603 -3.62203,2.89022c1.86506,0.56817 3.3009,1.52539 4.30754,2.87169c1.01281,1.34012 1.51921,3.00755 1.51921,5.0023c0,2.93962 -1.05295,5.2555 -3.15885,6.94764c-2.09973,1.69213 -4.96525,2.5382 -8.59654,2.5382zM186.4247,193.42009h6.21582c1.58097,0 2.742,-0.28408 3.48308,-0.85225c0.74108,-0.56817 1.11162,-1.43894 1.11162,-2.61231c0,-1.1672 -0.37054,-2.02562 -1.11162,-2.57526c-0.74108,-0.55581 -1.90211,-0.83372 -3.48308,-0.83372h-6.21581zM186.4247,207.1764h7.06807c1.61185,0 2.78832,-0.30879 3.5294,-0.92635c0.74108,-0.61756 1.11162,-1.54391 1.11162,-2.77906c0,-1.22896 -0.37054,-2.14296 -1.11162,-2.742c-0.74108,-0.60522 -1.91755,-0.90783 -3.52939,-0.90783h-7.06806zM212.84421,214.00362c-1.48833,0 -2.58143,-0.5064 -3.27928,-1.51921c-0.69167,-1.01281 -0.69167,-2.27574 0,-3.78878l11.81098,-25.42834c0.56817,-1.22896 1.26293,-2.12752 2.08429,-2.69568c0.82754,-0.57434 1.79403,-0.8615 2.89949,-0.8615c1.07457,0 2.02253,0.28717 2.8439,0.86151c0.82136,0.56816 1.51613,1.46673 2.08429,2.69569l11.81098,25.42834c0.72872,1.5501 0.75961,2.82228 0.09263,3.81657c-0.6608,0.99429 -1.70139,1.49142 -3.1218,1.49142c-1.26601,0 -2.23868,-0.28408 -2.91801,-0.85225c-0.67933,-0.56817 -1.28762,-1.48525 -1.82491,-2.75126l-1.51921,-3.60351h-14.94204l-1.51921,3.60351c-0.56817,1.26601 -1.15485,2.1831 -1.76007,2.75127c-0.59903,0.56817 -1.51305,0.85225 -2.742,0.85225zM226.26704,189.24226l-4.55764,10.8661h9.19867l-4.54838,-10.8661zM251.87655,213.5775c-1.42658,0 -2.51967,-0.38598 -3.27928,-1.15793c-0.75343,-0.77814 -1.13015,-1.86196 -1.13015,-3.25149v-24.66874c0,-1.42041 0.37672,-2.51041 1.13015,-3.27002c0.75961,-0.75961 1.83726,-1.13941 3.23297,-1.13941c1.38952,0 2.46409,0.3798 3.2237,1.13941c0.75961,0.75961 1.13941,1.84961 1.13941,3.27002v21.82484h11.57013c1.20426,0 2.13061,0.31496 2.77906,0.94488c0.64845,0.62992 0.97267,1.51613 0.97267,2.65863c0,1.1672 -0.32422,2.06885 -0.97267,2.70495c-0.64845,0.62992 -1.5748,0.94488 -2.77906,0.94488zM279.62262,213.5775c-1.42658,0 -2.51967,-0.38598 -3.27928,-1.15793c-0.75343,-0.77814 -1.13015,-1.86196 -1.13015,-3.25149v-24.66874c0,-1.42041 0.37672,-2.51041 1.13015,-3.27002c0.75961,-0.75961 1.83726,-1.13941 3.23297,-1.13941c1.38952,0 2.46409,0.3798 3.2237,1.13941c0.75961,0.75961 1.13941,1.84961 1.13941,3.27002v21.82484h11.57013c1.20426,0 2.13061,0.31496 2.77906,0.94488c0.64845,0.62992 0.97267,1.51613 0.97267,2.65863c0,1.1672 -0.32422,2.06885 -0.97267,2.70495c-0.64845,0.62992 -1.5748,0.94488 -2.77906,0.94488z"/></g><g><path d="M164.47756,165.68567c-3.55351,0 -5.33026,-1.75866 -5.33026,-5.27599v-28.62712c0,-3.52456 1.77675,-5.28685 5.33026,-5.28685h10.89936c6.78135,0 12.04285,1.70438 15.78454,5.11315c3.74168,3.40877 5.61253,8.2288 5.61253,14.46011c0,6.22407 -1.87084,11.05135 -5.61253,14.48182c-3.74168,3.42324 -9.00319,5.13486 -15.78454,5.13486zM169.37359,157.40259h5.33026c3.89366,0 6.77411,-0.93361 8.64133,-2.80083c1.87446,-1.87446 2.81169,-4.71871 2.81169,-8.53277c0,-3.82129 -0.94447,-6.65831 -2.8334,-8.51106c-1.88894,-1.85275 -4.76214,-2.77912 -8.61962,-2.77912h-5.33026zM220.17197,166.29361c-5.70299,0 -10.06708,-1.44384 -13.09227,-4.33152c-3.01795,-2.88768 -4.52693,-7.20472 -4.52693,-12.95113v-17.84716c0,-1.66458 0.4451,-2.94196 1.33528,-3.83214c0.89019,-0.89019 2.14948,-1.33528 3.77787,-1.33528c1.62839,0 2.88768,0.4451 3.77787,1.33528c0.89019,0.89019 1.33528,2.16757 1.33528,3.83214v17.95573c0,2.8515 0.62965,5.00097 1.88894,6.44843c1.25929,1.44746 3.09394,2.17119 5.50396,2.17119c2.37383,0 4.19039,-0.72373 5.44968,-2.17119c1.25929,-1.44746 1.88894,-3.59693 1.88894,-6.44843v-17.95573c0,-1.66458 0.43424,-2.94196 1.30272,-3.83214c0.87571,-0.89019 2.12776,-1.33528 3.75616,-1.33528c1.62839,0 2.86959,0.4451 3.72359,1.33528c0.854,0.89019 1.281,2.16757 1.281,3.83214v17.84716c0,5.74641 -1.47279,10.06346 -4.41836,12.95113c-2.94558,2.88768 -7.27348,4.33152 -12.9837,4.33152zM249.18727,166.18505c-3.18441,0 -4.77661,-1.6103 -4.77661,-4.83089v-30.29893c0,-1.62839 0.40529,-2.87683 1.21587,-3.7453c0.81781,-0.87571 1.89255,-1.31357 3.22421,-1.31357c1.18692,0 2.10243,0.22435 2.74655,0.67307c0.65136,0.44148 1.40403,1.1833 2.25804,2.22547l16.06677,20.06178v-18.17284c0,-3.19164 1.57411,-4.78747 4.72233,-4.78747c1.55602,0 2.73208,0.41977 3.52818,1.25929c0.7961,0.83229 1.19415,2.00835 1.19415,3.52818v30.78745c0,1.41127 -0.37272,2.53306 -1.11816,3.36534c-0.73821,0.83229 -1.73695,1.24843 -2.99624,1.24843c-1.25929,0 -2.2508,-0.22074 -2.97453,-0.66221c-0.7165,-0.44872 -1.48364,-1.19053 -2.30146,-2.22547l-16.06677,-20.06178v18.11856c0,3.22059 -1.57411,4.83089 -4.72233,4.83089zM291.65522,166.18505c-1.63563,0 -2.89853,-0.4451 -3.78873,-1.33528c-0.88295,-0.89019 -1.32443,-2.16757 -1.32443,-3.83214v-29.85384c0,-1.66458 0.44148,-2.94196 1.32443,-3.83214c0.89019,-0.89019 2.1531,-1.33528 3.78873,-1.33528c1.62839,0 2.88768,0.4451 3.77787,1.33528c0.89019,0.89019 1.33528,2.16757 1.33528,3.83214v12.12609h0.10856l13.50479,-14.90521c0.70202,-0.73821 1.45108,-1.32081 2.24718,-1.7478c0.80334,-0.427 1.70438,-0.6405 2.70313,-0.6405c1.51983,0 2.63075,0.39805 3.33277,1.19415c0.70202,0.7961 1.01684,1.73333 0.94447,2.81169c-0.07237,1.07112 -0.49937,2.03368 -1.281,2.88768l-11.56158,12.23465l12.23465,13.83046c0.96256,1.07835 1.44384,2.17481 1.44384,3.28935c0,1.1073 -0.39082,2.04091 -1.17244,2.80083c-0.77439,0.75991 -1.88532,1.13987 -3.33277,1.13987c-1.25929,0 -2.27974,-0.24969 -3.06138,-0.74906c-0.77439,-0.49937 -1.58859,-1.24843 -2.44259,-2.24718l-13.55907,-15.1766h-0.10856v13.00542c0,1.66458 -0.43786,2.94196 -1.31357,3.83214c-0.86847,0.89019 -2.135,1.33528 -3.79958,1.33528z" fill="url(#color-1)"/><path d="M182.21915,210.49458c-3.03225,0 -4.54838,-1.50069 -4.54838,-4.50206v-24.42789c0,-3.00756 1.51613,-4.51132 4.54838,-4.51132h11.57013c3.6066,0 6.398,0.78431 8.37422,2.35293c1.97622,1.56245 2.96433,3.656 2.96433,6.28066c0,1.74154 -0.43538,3.26076 -1.30615,4.55764c-0.8646,1.29689 -2.07194,2.2603 -3.62203,2.89022c1.86506,0.56817 3.3009,1.52539 4.30754,2.87169c1.01281,1.34012 1.51921,3.00755 1.51921,5.0023c0,2.93962 -1.05295,5.2555 -3.15885,6.94764c-2.09973,1.69213 -4.96525,2.5382 -8.59654,2.5382zM186.01719,190.33717h6.21582c1.58097,0 2.742,-0.28408 3.48308,-0.85225c0.74108,-0.56817 1.11162,-1.43894 1.11162,-2.61231c0,-1.1672 -0.37054,-2.02562 -1.11162,-2.57526c-0.74108,-0.55581 -1.90211,-0.83372 -3.48308,-0.83372h-6.21581zM186.01719,204.09349h7.06807c1.61185,0 2.78832,-0.30879 3.5294,-0.92635c0.74108,-0.61756 1.11162,-1.54391 1.11162,-2.77906c0,-1.22896 -0.37054,-2.14296 -1.11162,-2.742c-0.74108,-0.60522 -1.91755,-0.90783 -3.52939,-0.90783h-7.06806zM212.43669,210.9207c-1.48833,0 -2.58143,-0.5064 -3.27928,-1.51921c-0.69167,-1.01281 -0.69167,-2.27574 0,-3.78878l11.81098,-25.42834c0.56817,-1.22896 1.26293,-2.12752 2.08429,-2.69568c0.82754,-0.57434 1.79403,-0.8615 2.89949,-0.8615c1.07457,0 2.02253,0.28717 2.8439,0.86151c0.82136,0.56816 1.51613,1.46673 2.08429,2.69569l11.81098,25.42834c0.72872,1.5501 0.75961,2.82228 0.09263,3.81657c-0.6608,0.99429 -1.70139,1.49142 -3.1218,1.49142c-1.26601,0 -2.23868,-0.28408 -2.91801,-0.85225c-0.67933,-0.56817 -1.28762,-1.48525 -1.82491,-2.75126l-1.51921,-3.60351h-14.94204l-1.51921,3.60351c-0.56817,1.26601 -1.15485,2.1831 -1.76007,2.75127c-0.59903,0.56817 -1.51305,0.85225 -2.742,0.85225zM225.85952,186.15933l-4.55764,10.8661h9.19867l-4.54838,-10.8661zM251.46904,210.49458c-1.42658,0 -2.51967,-0.38598 -3.27928,-1.15793c-0.75343,-0.77814 -1.13015,-1.86196 -1.13015,-3.25149v-24.66874c0,-1.42041 0.37672,-2.51041 1.13015,-3.27002c0.75961,-0.75961 1.83726,-1.13941 3.23297,-1.13941c1.38952,0 2.46409,0.3798 3.2237,1.13941c0.75961,0.75961 1.13941,1.84961 1.13941,3.27002v21.82484h11.57013c1.20426,0 2.13061,0.31496 2.77906,0.94488c0.64845,0.62992 0.97267,1.51613 0.97267,2.65863c0,1.1672 -0.32422,2.06885 -0.97267,2.70495c-0.64845,0.62992 -1.5748,0.94488 -2.77906,0.94488zM279.2151,210.49458c-1.42658,0 -2.51967,-0.38598 -3.27928,-1.15793c-0.75343,-0.77814 -1.13015,-1.86196 -1.13015,-3.25149v-24.66874c0,-1.42041 0.37672,-2.51041 1.13015,-3.27002c0.75961,-0.75961 1.83726,-1.13941 3.23297,-1.13941c1.38952,0 2.46409,0.3798 3.2237,1.13941c0.75961,0.75961 1.13941,1.84961 1.13941,3.27002v21.82484h11.57013c1.20426,0 2.13061,0.31496 2.77906,0.94488c0.64845,0.62992 0.97267,1.51613 0.97267,2.65863c0,1.1672 -0.32422,2.06885 -0.97267,2.70495c-0.64845,0.62992 -1.5748,0.94488 -2.77906,0.94488z" fill="url(#color-2)"/></g></g></g></g></svg>