<svg version="1.1" xmlns="http://www.w3.org/2000/svg" xmlns:xlink="http://www.w3.org/1999/xlink" width="504.55782" height="385.61902" viewBox="0,0,504.55782,385.61902"><defs><radialGradient cx="50.79857" cy="158.61489" r="2.89581" gradientUnits="userSpaceOnUse" id="color-1"><stop offset="0" stop-color="#ffffff"/><stop offset="1" stop-color="#ffffff" stop-opacity="0"/></radialGradient><radialGradient cx="77.64626" cy="179.01917" r="24.2154" gradientUnits="userSpaceOnUse" id="color-2"><stop offset="0" stop-color="#ff8a00"/><stop offset="1" stop-color="#ffa100"/></radialGradient><radialGradient cx="56.55443" cy="159.90051" r="14.56575" gradientUnits="userSpaceOnUse" id="color-3"><stop offset="0" stop-color="#ffc600"/><stop offset="1" stop-color="#ffa100"/></radialGradient><radialGradient cx="52.46651" cy="166.37463" r="5.75382" gradientUnits="userSpaceOnUse" id="color-4"><stop offset="0" stop-color="#ffde00"/><stop offset="1" stop-color="#ffde00" stop-opacity="0"/></radialGradient><linearGradient x1="411.04786" y1="216.83943" x2="411.04786" y2="272.16044" gradientUnits="userSpaceOnUse" id="color-5"><stop offset="0" stop-color="#ffaa21"/><stop offset="1" stop-color="#ff8c14"/></linearGradient><linearGradient x1="411.04786" y1="216.83943" x2="411.04786" y2="272.16044" gradientUnits="userSpaceOnUse" id="color-6"><stop offset="0" stop-color="#ffaa21"/><stop offset="1" stop-color="#ff8c14"/></linearGradient><linearGradient x1="411.04786" y1="216.83943" x2="411.04786" y2="272.16044" gradientUnits="userSpaceOnUse" id="color-7"><stop offset="0" stop-color="#ffaa21"/><stop offset="1" stop-color="#ff8c14"/></linearGradient></defs><g transform="translate(12.27891,12.80951)"><g data-paper-data="{&quot;isPaintingLayer&quot;:true}" stroke-miterlimit="10" stroke-dasharray="" stroke-dashoffset="0" style="mix-blend-mode: normal"><g fill="#000000" fill-rule="evenodd" stroke="none" stroke-width="1" stroke-linecap="round" stroke-linejoin="round"><path d="M-12.0848,-12.80951l504.36371,0.38878l-2.0284,384.61076l-502.52942,0.61948z" data-paper-data="{&quot;origRot&quot;:0,&quot;index&quot;:null}" opacity="0.42445"/><path d="M-12.0848,-12.80951l504.36371,0.38878l-2.0284,384.61076l-502.52942,0.61948z" data-paper-data="{&quot;origRot&quot;:0,&quot;index&quot;:null}" opacity="0.42445"/></g><text transform="translate(174.65392,42.29905) scale(0.7513,0.7513)" font-size="40" xml:space="preserve" fill="#ffffff" fill-rule="nonzero" stroke="#ffffff" stroke-width="3" stroke-linecap="butt" stroke-linejoin="miter" stroke-miterlimit="10" stroke-dasharray="" stroke-dashoffset="0" font-family="Malgun Gothic" font-weight="normal" text-anchor="start" style="mix-blend-mode: normal"><tspan x="0" dy="0">CREDITS</tspan></text><text transform="translate(155.22109,341.5) scale(0.5,0.5)" font-size="40" xml:space="preserve" fill="#ffffff" fill-rule="nonzero" stroke="none" stroke-width="1" stroke-linecap="butt" stroke-linejoin="miter" stroke-miterlimit="10" stroke-dasharray="" stroke-dashoffset="0" font-family="Malgun Gothic" font-weight="normal" text-anchor="start" style="mix-blend-mode: normal"><tspan x="0" dy="0">CLICK TO CLOSE</tspan></text><text transform="translate(133.01557,86.69259) scale(0.45533,0.45533)" font-size="40" xml:space="preserve" fill="#ffffff" fill-rule="nonzero" stroke="none" stroke-width="1" stroke-linecap="butt" stroke-linejoin="miter" stroke-miterlimit="10" stroke-dasharray="" stroke-dashoffset="0" font-family="Malgun Gothic" font-weight="normal" text-anchor="start" style="mix-blend-mode: normal"><tspan x="0" dy="0">ALL THE THINGS WERE</tspan><tspan x="0" dy="46.150000000000006px">INSPIRED BY KEVIN</tspan><tspan x="0" dy="46.150000000000006px">AND RACINGACE.</tspan><tspan x="0" dy="46.150000000000006px"> </tspan><tspan x="0" dy="46.150000000000006px">HUGE CREDIT WILL BE </tspan><tspan x="0" dy="46.150000000000006px">GIVEN TO KEVIN AND</tspan><tspan x="0" dy="46.150000000000006px">ACE FOR SOME OF THE  </tspan><tspan x="0" dy="46.150000000000006px">ASSETS.</tspan><tspan x="0" dy="46.150000000000006px"> </tspan><tspan x="0" dy="46.150000000000006px">REST BY = -SKYSBANE-</tspan><tspan x="0" dy="46.150000000000006px">AND FREEZING_BLAZER</tspan></text><g fill-rule="nonzero" stroke-linecap="butt" stroke-linejoin="miter"><path d="M55.5206,155.37433c1.1877,1.07107 -0.85319,2.94181 -1.84186,4.03815c-0.98867,1.09634 -2.98668,2.17932 -4.17437,1.10826c-1.1877,-1.07107 -0.05484,-4.73394 0.93383,-5.83028c0.98867,-1.09634 3.89471,-0.38719 5.0824,0.68387z" fill="url(#color-1)" stroke="none" stroke-width="NaN"/><path d="M56.29601,207.12221c-14.97917,-4.25478 -23.67303,-19.84699 -19.41824,-34.8262c4.25479,-14.97917 19.84701,-23.67305 34.82618,-19.41824c14.9792,4.25479 23.67306,19.84701 19.41824,34.82619c-4.25478,14.97917 -19.84701,23.67305 -34.82619,19.41824z" fill="#9f2c00" stroke="none" stroke-width="0"/><path d="M87.32175,172.18447c1.52681,4.54247 1.74482,9.57754 0.33652,14.53558c-3.7114,13.06609 -17.31221,20.6496 -30.37831,16.93823c-7.26984,-2.06499 -12.84245,-7.19143 -15.71668,-13.58387c-2.29162,-5.09667 -2.86797,-10.99817 -1.22155,-16.79444c3.7114,-13.06609 17.3122,-20.6496 30.37832,-16.93823c8.10805,2.30307 14.10493,8.41426 16.60172,15.84274z" data-paper-data="{&quot;index&quot;:null}" fill="#ff6700" stroke="#ffffff" stroke-width="0"/><path d="M70.42874,156.49936c4.60745,1.30872 8.51282,3.80201 11.46249,7.04097c2.7386,3.00715 4.18266,5.26306 5.07064,9.20437c0.34624,1.5369 0.87932,5.78744 0.13423,8.8926c-1.29905,5.08488 -1.18605,4.32396 -3.28666,8.41965c-2.89194,4.13617 -2.91673,4.17496 -6.27298,6.91437c-3.09689,2.33219 -4.49264,3.03674 -7.08218,4.15634c-2.56301,0.67828 -3.87377,1.41428 -8.04411,1.43364c-4.69013,-0.21648 -4.71656,-0.32045 -7.02015,-1.04952c-3.27183,-0.69367 -3.7863,-2.0023 -6.71872,-3.00293c-7.26893,-5.81802 -10.87016,-15.63164 -8.1076,-25.35742c3.64867,-12.84535 17.01971,-20.3007 29.86506,-16.65205z" data-paper-data="{&quot;index&quot;:null}" fill="url(#color-2)" stroke="#ffffff" stroke-width="0"/><path d="M46.09917,175.38878c-1.46982,-7.90903 3.75018,-15.51207 11.6592,-16.9819c7.90903,-1.46982 15.51208,3.75018 16.98191,11.6592c1.46982,7.90903 -3.75016,15.51208 -11.6592,16.98191c-7.90903,1.46982 -15.51208,-3.75018 -16.98191,-11.65921z" fill="url(#color-3)" stroke="#9f2c00" stroke-width="0"/><path d="M83.37874,164.16189c0,0 -2.31367,1.3229 -2.60303,1.4473c-5.26945,4.18243 -12.90208,14.05644 -17.05419,19.47541c-4.67596,3.72432 -7.27355,3.70947 -13.00315,2.14389c-0.11438,1.00472 -0.19194,2.00959 -0.22391,3.01163c2.44523,0.9603 5.00863,1.67397 7.89692,2.47993c7.3948,2.10396 18.33033,-0.18065 25.31167,-3.48959c0.31549,-0.09245 4.10154,-1.79463 4.10154,-1.79463l-0.85731,2.25837c-0.30216,0.08761 -2.41236,1.04837 -2.71453,1.13598c-7.332,3.43248 -18.43117,5.24886 -26.30862,3.53478c-2.6942,-0.78175 -5.12179,-1.46866 -7.43628,-2.33057c0.02347,0.91004 0.08923,1.81626 0.20398,2.71638c3.92759,0.71633 7.92256,1.83867 11.27235,3.58264c2.4601,1.29332 4.17476,3.27264 6.81841,4.31247l3.50899,0.67067l-3.08324,0.88162c-2.8517,-0.81002 -5.4192,-3.05181 -7.99597,-4.3786c-3.07502,-1.60193 -6.72492,-2.65287 -10.34274,-3.34204c0.03639,0.67259 0.10316,1.30528 0.27065,1.9907l1.46058,3.45695l-2.08842,-1.38575c-0.25692,-1.0184 -1.25716,-3.32029 -1.29714,-4.35319c-1.30515,-0.21172 -2.72741,-0.4175 -3.97056,-0.5505l-1.35254,-1.80505c1.11362,0.11911 3.94132,0.45422 5.1043,0.63451c-0.11365,-1.02341 -0.16731,-2.05475 -0.17017,-3.09067c-2.5106,-1.06491 -5.74837,-2.07919 -8.28103,-4.09814l-0.4722,-2.21795c2.2056,1.75823 6.62772,3.51536 8.79835,4.49763c0.04922,-0.96018 0.13724,-1.92257 0.25673,-2.88461c-0.28647,-0.12272 -0.57398,-0.25818 -0.86261,-0.40688c-5.98059,-2.86654 -7.35381,-6.90535 -6.6681,-13.46784c0,0 0.625,-3.79283 1.06333,-4.47341c0.40974,-0.63616 1.47159,-2.42328 1.47159,-2.42328l-1.35918,7.0352c-0.52141,5.96848 0.79985,9.23301 6.22095,11.83136c0.12658,0.06678 0.25286,0.13054 0.37889,0.19134c0.62876,-3.91234 1.70897,-7.79218 2.75253,-11.46158c1.85366,-5.46786 4.51495,-14.35273 9.92918,-17.57208c0.35934,-0.21368 1.57216,-0.30854 1.95923,-0.47018l1.87425,0.13234l-2.24806,1.01026c-5.65071,2.37044 -8.20657,12.23861 -9.95488,17.38946c-1.05371,3.71441 -2.14762,7.63635 -2.74646,11.58561c5.25704,1.59022 8.04205,1.26481 12.33621,-2.04092c4.09967,-5.53066 11.34773,-15.20023 16.70063,-19.35522c0.15736,-0.07006 2.238,-1.15877 2.238,-1.15877c0,0 0.97162,1.23108 1.16491,1.14507z" data-paper-data="{&quot;index&quot;:null}" fill="#9f2c00" stroke="#9f2c00" stroke-width="1"/><path d="M59.82826,169.08441c-0.8681,3.05614 -4.04929,4.82991 -7.10542,3.96182c-3.05614,-0.8681 -4.82991,-4.04929 -3.96182,-7.10543c0.8681,-3.05617 4.04931,-4.82992 7.10544,-3.96184c3.05616,0.8681 4.82992,4.04929 3.96182,7.10544z" data-paper-data="{&quot;index&quot;:null}" fill="url(#color-4)" stroke="none" stroke-width="0"/></g><g fill="none" fill-rule="nonzero" stroke-linecap="round" stroke-linejoin="miter"><path d="M33.3856,217.81382c0,0 5.78191,11.62882 7.08656,19.04899c1.83376,10.42951 2.87954,37.63321 2.87954,37.63321" stroke="#eeeeee" stroke-width="4"/><path d="M82.61017,273.89009c0,0 1.04578,-27.2037 2.87954,-37.63321c1.30464,-7.42017 7.08656,-19.04899 7.08656,-19.04899" data-paper-data="{&quot;index&quot;:null}" stroke="#eeeeee" stroke-width="4"/><path d="M52.69492,216.56806l3.73729,10.58899l-14.32628,10.58898" stroke="#eeeeee" stroke-width="4"/><path d="M55.80932,225.91127l26.7839,28.65254l-13.08051,18.68644l-27.40678,-30.52119" stroke="#eeeeee" stroke-width="4"/><path d="M35.87712,223.41976l45.47034,45.47034" stroke="#eeeeee" stroke-width="4"/><path d="M72.62712,216.56806l-1.24576,9.9661l-28.65254,28.02966" stroke="#eeeeee" stroke-width="4"/><path d="M70.75847,226.53415l13.08051,12.45763l-29.27542,34.25847l-11.21186,-13.70339" stroke="#eeeeee" stroke-width="4"/><path d="M89.44492,222.10381l-45.47034,48.03205" stroke="#eeeeee" stroke-width="4"/><path d="M98,213.49179h-68" stroke="#d9652a" stroke-width="5.5"/><path d="M60.85491,291.90142l-0.9659,-76.1199" stroke="none" stroke-width="0"/><path d="M66.06222,292.13313l-0.9659,-76.1199" stroke="none" stroke-width="0"/><path d="M76.73047,216.03762l0.9659,76.1199" stroke="none" stroke-width="0"/><path d="M85.8768,216.06201l0.9659,76.1199" stroke="none" stroke-width="0"/><path d="M40.49876,213.18396l0.9659,76.1199" stroke="none" stroke-width="0"/><path d="M46.67197,291.81605l-0.9659,-76.1199" stroke="none" stroke-width="0"/><path d="M51.67197,296.81605l-0.9659,-76.1199" stroke="none" stroke-width="0"/><path d="M49.40616,289.74288l-2.49525,-76.1199" stroke="none" stroke-width="0"/><path d="M49.39148,291.63313l-0.9659,-76.1199" stroke="none" stroke-width="0"/><path d="M44.23295,292.07214l-0.9659,-76.1199" stroke="none" stroke-width="0"/><path d="M40.73295,291.26727l-0.9659,-76.1199" stroke="none" stroke-width="0"/><g stroke="none" stroke-width="0"><path d="M62.01344,292.438l-0.9659,-76.1199"/><path d="M66.25485,218.8303l0.9659,76.1199"/><path d="M69.95494,292.87703l-2.49525,-76.1199"/><path d="M69.94026,294.76727l-0.9659,-76.1199"/><path d="M64.78173,295.2063l-0.9659,-76.1199"/><path d="M61.28173,294.40142l-0.9659,-76.1199"/></g><g stroke="none" stroke-width="0"><path d="M76.3427,292.46239l-0.9659,-76.1199"/><path d="M81.55002,294.97459l-0.96591,-76.1199"/><path d="M84.28421,292.90142l-2.49525,-76.1199"/><path d="M84.26953,294.79166l-0.9659,-76.1199"/><path d="M79.11099,295.23069l-0.9659,-76.1199"/><path d="M75.61099,294.4258l-0.9659,-76.1199"/></g><g stroke="none" stroke-width="0"><path d="M73.67197,289.79166l-0.96591,-76.1199"/><path d="M78.87929,292.30385l-0.96591,-76.1199"/><path d="M81.61348,290.23068l-2.49525,-76.1199"/><path d="M81.5988,292.12093l-0.9659,-76.1199"/><path d="M76.44026,292.55994l-0.96591,-76.1199"/><path d="M72.94026,291.75507l-0.9659,-76.1199"/></g><g stroke="none" stroke-width="0"><path d="M56.30363,215.72054l0.9659,76.1199"/><path d="M62.47685,294.35263l-0.96591,-76.1199"/><path d="M65.21104,292.27946l-2.49525,-76.1199"/><path d="M65.19636,294.16971l-0.9659,-76.1199"/><path d="M60.03782,294.60873l-0.9659,-76.1199"/><path d="M56.53782,293.80385l-0.9659,-76.1199"/></g></g><g fill-rule="evenodd" stroke-linecap="butt" stroke-linejoin="round"><path d="M381.94408,237.97022l19.8108,-4.54223l9.29297,-16.58848l10.80709,17.49701l18.29669,3.6338l-13.74776,15.48208l2.63107,18.70815l-17.68437,-6.09467l-18.28998,6.09467l2.93386,-20.22232z" fill="url(#color-5)" stroke="url(#color-6)" stroke-width="6.5"/><path d="M381.94408,237.97022l19.8108,-4.54223l9.29297,-16.58854l10.80709,17.49701l18.29669,3.6338l-13.74776,15.48208l2.63107,18.70815l-17.68431,-6.09467l-18.28992,6.09467l2.93392,-20.22232z" fill="url(#color-7)" stroke="#fff0a6" stroke-width="4"/><path d="M387.54656,239.90571l16.02844,-3.67511l7.51869,-13.42134l8.74384,14.15636l14.8035,2.94008l-11.12299,12.52614l2.1287,15.13641l-14.30798,-4.93114l-14.79797,4.93114l2.37377,-16.36146z" fill="#f2cc41" stroke="#f2cc41" stroke-width="2.5"/></g></g></g></svg>