<svg version="1.1" viewBox="0.0 0.0 960.0 720.0" fill="none" stroke="none" stroke-linecap="square" stroke-miterlimit="10" xmlns:xlink="http://www.w3.org/1999/xlink" xmlns="http://www.w3.org/2000/svg"><clipPath id="p.0"><path d="m0 0l960.0 0l0 720.0l-960.0 0l0 -720.0z" clip-rule="nonzero"/></clipPath><g clip-path="url(#p.0)"><path fill="#000000" fill-opacity="0.0" d="m0 0l960.0 0l0 720.0l-960.0 0z" fill-rule="evenodd"/><path fill="#000000" fill-opacity="0.0" d="m394.85828 254.26247l704.0945 0l0 42.015762l-704.0945 0z" fill-rule="evenodd"/><path fill="#000000" d="m406.84265 281.18246q-1.796875 0 -1.796875 -1.765625l0 -9.609375q0 -1.78125 1.796875 -1.78125l6.328125 0q1.34375 0 1.34375 1.3125q0 1.34375 -1.34375 1.34375l-4.828125 0l0 2.5l4.421875 0q1.34375 0 1.34375 1.328125q0 1.3125 -1.34375 1.3125l-4.421875 0l0 2.703125l4.828125 0q1.34375 0 1.34375 1.328125q0 1.328125 -1.34375 1.328125l-6.328125 0zm10.839478 0.171875q-0.65625 0 -1.09375 -0.34375q-0.4375 -0.34375 -0.5 -0.890625q-0.046875 -0.5625 0.375 -1.125l3.390625 -4.453125l-3.265625 -4.3125q-0.4375 -0.578125 -0.375 -1.109375q0.0625 -0.546875 0.484375 -0.90625q0.4375 -0.359375 1.09375 -0.359375q0.546875 0 0.953125 0.265625q0.40625 0.265625 0.828125 0.84375l2.21875 3.09375l2.234375 -3.09375q0.40625 -0.59375 0.8125 -0.84375q0.421875 -0.265625 0.953125 -0.265625q0.671875 0 1.09375 0.359375q0.4375 0.34375 0.484375 0.890625q0.0625 0.546875 -0.359375 1.125l-3.265625 4.3125l3.359375 4.453125q0.453125 0.5625 0.375 1.125q-0.0625 0.546875 -0.5 0.890625q-0.421875 0.34375 -1.09375 0.34375q-0.53125 0 -0.9375 -0.25q-0.40625 -0.25 -0.828125 -0.859375l-2.328125 -3.203125l-2.3125 3.203125q-0.4375 0.609375 -0.84375 0.859375q-0.40625 0.25 -0.953125 0.25zm13.522064 0q-0.8125 0 -1.265625 -0.453125q-0.453125 -0.453125 -0.453125 -1.296875l0 -9.984375q0 -0.859375 0.453125 -1.3125q0.453125 -0.453125 1.265625 -0.453125q0.828125 0 1.265625 0.453125q0.453125 0.453125 0.453125 1.3125l0 9.984375q0 0.84375 -0.4375 1.296875q-0.4375 0.453125 -1.28125 0.453125zm8.91449 0q-0.8125 0 -1.265625 -0.453125q-0.4375 -0.453125 -0.4375 -1.28125l0 -8.796875l-2.9375 0q-1.421875 0 -1.421875 -1.390625q0 -1.40625 1.421875 -1.40625l9.296875 0q1.421875 0 1.421875 1.40625q0 1.390625 -1.421875 1.390625l-2.9375 0l0 8.796875q0 0.828125 -0.4375 1.28125q-0.4375 0.453125 -1.28125 0.453125zm19.256592 0.03125q-2.25 0 -3.828125 -0.828125q-1.578125 -0.84375 -2.40625 -2.359375q-0.8125 -1.515625 -0.8125 -3.53125q0 -2.078125 0.859375 -3.609375q0.875 -1.546875 2.5 -2.390625q1.625 -0.84375 3.921875 -0.84375q0.921875 0 1.890625 0.1875q0.96875 0.171875 1.90625 0.65625q0.484375 0.21875 0.65625 0.625q0.1875 0.390625 0.125 0.84375q-0.0625 0.453125 -0.328125 0.796875q-0.265625 0.34375 -0.6875 0.484375q-0.421875 0.125 -0.953125 -0.125q-1.15625 -0.53125 -2.59375 -0.53125q-1.890625 0 -2.8125 1.015625q-0.921875 1.0 -0.921875 2.890625q0 1.90625 0.921875 2.875q0.9375 0.96875 2.765625 0.96875q0.859375 0 1.921875 -0.25l0 -2.078125l-1.296875 0q-1.328125 0 -1.328125 -1.21875q0 -1.1875 1.328125 -1.1875l2.765625 0q1.328125 0 1.328125 1.34375l0 4.125q0 0.5625 -0.234375 0.953125q-0.21875 0.390625 -0.734375 0.5625q-0.890625 0.296875 -1.90625 0.453125q-1.015625 0.171875 -2.046875 0.171875zm7.8424683 -0.03125q-0.875 0 -1.296875 -0.59375q-0.40625 -0.609375 0 -1.5l4.65625 -10.0q0.328125 -0.734375 0.8125 -1.0625q0.484375 -0.34375 1.140625 -0.34375q0.640625 0 1.125 0.34375q0.484375 0.328125 0.8125 1.0625l4.65625 10.0q0.421875 0.921875 0.03125 1.515625q-0.390625 0.578125 -1.234375 0.578125q-0.75 0 -1.15625 -0.328125q-0.390625 -0.34375 -0.703125 -1.09375l-0.59375 -1.421875l-5.890625 0l-0.59375 1.421875q-0.328125 0.75 -0.6875 1.09375q-0.359375 0.328125 -1.078125 0.328125zm5.28125 -9.75l-1.796875 4.28125l3.625 0l-1.796875 -4.28125l-0.03125 0zm9.922211 9.75q-0.75 0 -1.15625 -0.40625q-0.390625 -0.421875 -0.390625 -1.171875l0 -10.34375q0 -0.765625 0.421875 -1.171875q0.4375 -0.40625 1.21875 -0.40625q0.625 0 1.015625 0.265625q0.40625 0.25 0.71875 0.828125l3.671875 6.625l3.671875 -6.625q0.34375 -0.578125 0.71875 -0.828125q0.390625 -0.265625 1.046875 -0.265625q0.71875 0 1.125 0.40625q0.421875 0.40625 0.421875 1.171875l0 10.34375q0 0.75 -0.390625 1.171875q-0.390625 0.40625 -1.15625 0.40625q-0.75 0 -1.15625 -0.40625q-0.40625 -0.421875 -0.40625 -1.171875l0 -5.734375l-2.609375 4.546875q-0.25 0.40625 -0.546875 0.625q-0.28125 0.203125 -0.765625 0.203125q-0.46875 0 -0.78125 -0.203125q-0.296875 -0.21875 -0.53125 -0.625l-2.59375 -4.484375l0 5.671875q0 0.75 -0.390625 1.171875q-0.390625 0.40625 -1.15625 0.40625zm16.695251 -0.171875q-1.796875 0 -1.796875 -1.765625l0 -9.609375q0 -1.78125 1.796875 -1.78125l6.328125 0q1.34375 0 1.34375 1.3125q0 1.34375 -1.34375 1.34375l-4.828125 0l0 2.5l4.421875 0q1.34375 0 1.34375 1.328125q0 1.3125 -1.34375 1.3125l-4.421875 0l0 2.703125l4.828125 0q1.34375 0 1.34375 1.328125q0 1.328125 -1.34375 1.328125l-6.328125 0z" fill-rule="nonzero"/></g></svg>