<svg version="1.1" xmlns="http://www.w3.org/2000/svg" xmlns:xlink="http://www.w3.org/1999/xlink" width="354.47154" height="184.83423" viewBox="0,0,354.47154,184.83423"><defs><linearGradient x1="72.76425" y1="180.00002" x2="407.23578" y2="180.00002" gradientUnits="userSpaceOnUse" id="color-1"><stop offset="0" stop-color="#ff7b00" stop-opacity="0"/><stop offset="1" stop-color="#ff7b00" stop-opacity="0"/></linearGradient><linearGradient x1="66.76425" y1="50.00001" x2="401.23578" y2="50.00001" gradientUnits="userSpaceOnUse" id="color-2"><stop offset="0" stop-color="#ff7b00" stop-opacity="0"/><stop offset="1" stop-color="#ff7b00" stop-opacity="0"/></linearGradient></defs><g transform="translate(-59.76423,-22.5829)"><g data-paper-data="{&quot;isPaintingLayer&quot;:true}" fill-rule="nonzero" stroke-linecap="square" stroke-linejoin="miter" stroke-miterlimit="10" stroke-dasharray="" stroke-dashoffset="0" style="mix-blend-mode: normal"><path d="M78.25186,199.8011c-3.65841,0 -5.48763,-1.7821 -5.48763,-5.34628v-29.00859c0,-3.57154 1.8292,-5.35729 5.48763,-5.35729h11.22114c6.98153,0 12.39838,1.7271 16.25051,5.18128c3.85214,3.4542 5.77821,8.33845 5.77821,14.6528c0,6.30702 -1.92607,11.19862 -5.77821,14.67481c-3.85214,3.46885 -9.26898,5.20327 -16.25051,5.20327zM83.29246,191.40765h5.48762c4.00861,0 6.97408,-0.94604 8.89643,-2.83815c1.9298,-1.89944 2.89469,-4.78159 2.89469,-8.64648c0,-3.87221 -0.97234,-6.74703 -2.91705,-8.62446c-1.9447,-1.87744 -4.90272,-2.81616 -8.87408,-2.81616h-5.48762zM135.59044,200.41713c-5.87134,0 -10.36426,-1.46308 -13.47876,-4.38924c-3.10705,-2.92616 -4.66056,-7.30073 -4.66056,-13.12372v-18.08499c0,-1.68675 0.45823,-2.98117 1.3747,-3.88321c0.91647,-0.90205 2.21293,-1.35307 3.8894,-1.35307c1.67646,0 2.97293,0.45102 3.8894,1.35307c0.91647,0.90205 1.37469,2.19646 1.37469,3.88321v18.19499c0,2.88949 0.64824,5.06761 1.9447,6.53436c1.29647,1.46675 3.18527,2.20012 5.66643,2.20012c2.44392,0 4.3141,-0.73337 5.61056,-2.20012c1.29647,-1.46674 1.9447,-3.64487 1.9447,-6.53436v-18.19499c0,-1.68675 0.44705,-2.98117 1.34116,-3.88321c0.90157,-0.90205 2.19059,-1.35307 3.86705,-1.35307c1.67646,0 2.9543,0.45102 3.83351,1.35307c0.87921,0.90205 1.31882,2.19646 1.31882,3.88321v18.08499c0,5.82298 -1.51628,10.19756 -4.5488,13.12372c-3.03252,2.92616 -7.4882,4.38924 -13.36699,4.38924zM165.4623,200.30713c-3.27842,0 -4.91762,-1.63177 -4.91762,-4.89528v-30.70266c0,-1.65009 0.41725,-2.91516 1.25175,-3.79521c0.84195,-0.88738 1.94843,-1.33107 3.31939,-1.33107c1.22196,0 2.1645,0.22735 2.82763,0.68204c0.67058,0.44736 1.44548,1.19906 2.32469,2.25512l16.54111,20.32911v-18.41499c0,-3.23418 1.62058,-4.85127 4.86174,-4.85127c1.60196,0 2.81273,0.42535 3.63234,1.27607c0.81961,0.84337 1.2294,2.03511 1.2294,3.5752v31.19769c0,1.43008 -0.38373,2.56681 -1.15118,3.41018c-0.76,0.84337 -1.78823,1.26508 -3.08469,1.26508c-1.29647,0 -2.31725,-0.22368 -3.06234,-0.67104c-0.73764,-0.45469 -1.52745,-1.20641 -2.3694,-2.25513l-16.5411,-20.32911v18.36c0,3.26351 -1.62059,4.89528 -4.86175,4.89528zM209.18395,200.30713c-1.68392,0 -2.9841,-0.45103 -3.90057,-1.35308c-0.90901,-0.90205 -1.36353,-2.19645 -1.36353,-3.88321v-30.25164c0,-1.68676 0.45451,-2.98117 1.36353,-3.88321c0.91647,-0.90205 2.21665,-1.35308 3.90057,-1.35308c1.67646,0 2.97293,0.45103 3.8894,1.35308c0.91647,0.90205 1.3747,2.19646 1.3747,3.88321v12.28766h0.11176l13.90346,-15.10382c0.72274,-0.74805 1.49391,-1.3384 2.31351,-1.7711c0.82705,-0.43268 1.7547,-0.64904 2.78293,-0.64904c1.5647,0 2.70843,0.40336 3.43116,1.21007c0.72274,0.80671 1.04685,1.75643 0.97234,2.84916c-0.07451,1.08539 -0.51411,2.06079 -1.31881,2.92615l-11.90288,12.39768l12.59583,14.01476c0.99098,1.09273 1.48646,2.20379 1.48646,3.33318c0,1.12206 -0.40235,2.0681 -1.20705,2.83816c-0.79725,0.77005 -1.94098,1.15506 -3.43116,1.15506c-1.29647,0 -2.34704,-0.25301 -3.15175,-0.75904c-0.79725,-0.50603 -1.63549,-1.26508 -2.5147,-2.27713l-13.95935,-15.37884h-0.11177v13.17871c0,1.68676 -0.45078,2.98117 -1.35234,3.88322c-0.89412,0.90205 -2.19804,1.35308 -3.91175,1.35308zM266.51625,199.8011c-3.65841,0 -5.48762,-1.7821 -5.48762,-5.34628v-29.00859c0,-3.57154 1.8292,-5.35729 5.48762,-5.35729h13.95935c4.35136,0 7.71918,0.93138 10.10349,2.79414c2.3843,1.85543 3.57645,4.34158 3.57645,7.4584c0,2.06811 -0.52529,3.8722 -1.57587,5.41229c-1.04313,1.54008 -2.4998,2.68414 -4.36998,3.43218c2.25019,0.6747 3.98253,1.81144 5.19703,3.41018c1.22196,1.59141 1.83293,3.57154 1.83293,5.94033c0,3.49085 -1.27039,6.24102 -3.81116,8.25044c-2.53332,2.00943 -5.99055,3.01416 -10.37171,3.01416zM271.09858,175.86379h7.49938c1.90744,0 3.30822,-0.33735 4.20233,-1.01205c0.89412,-0.6747 1.34116,-1.70876 1.34116,-3.10217c0,-1.38607 -0.44705,-2.40547 -1.34116,-3.05817c-0.89412,-0.66004 -2.29489,-0.99006 -4.20233,-0.99006h-7.49938zM271.09858,192.19968h8.52761c1.9447,0 3.36411,-0.36669 4.25822,-1.10005c0.89412,-0.73337 1.34117,-1.83343 1.34117,-3.30017c0,-1.45942 -0.44705,-2.54482 -1.34117,-3.25618c-0.89412,-0.71871 -2.31352,-1.07806 -4.25822,-1.07806h-8.52761zM302.97369,200.30713c-1.79568,0 -3.11449,-0.60136 -3.95644,-1.8041c-0.83451,-1.20274 -0.83451,-2.70247 0,-4.49924l14.24993,-30.19664c0.68549,-1.45941 1.52371,-2.52648 2.5147,-3.20118c0.99844,-0.68203 2.16452,-1.02305 3.49824,-1.02305c1.29647,0 2.44018,0.34101 3.43115,1.02305c0.99098,0.6747 1.82921,1.74175 2.5147,3.20118l14.24993,30.19664c0.87921,1.84077 0.91646,3.35151 0.11176,4.53224c-0.79725,1.18073 -2.05274,1.7711 -3.76645,1.7711c-1.52744,0 -2.70097,-0.33736 -3.52058,-1.01207c-0.81961,-0.6747 -1.55352,-1.76376 -2.20174,-3.26717l-1.83294,-4.27923h-18.02759l-1.83294,4.27923c-0.68549,1.50341 -1.39332,2.59247 -2.12351,3.26717c-0.72274,0.6747 -1.82548,1.01207 -3.30822,1.01207zM319.16834,170.90253l-5.49881,12.9037h11.0982l-5.48762,-12.9037zM350.06616,199.8011c-1.72117,0 -3.03998,-0.45836 -3.95644,-1.37508c-0.90901,-0.92405 -1.36353,-2.21112 -1.36353,-3.8612v-29.29459c0,-1.68676 0.45451,-2.98116 1.36353,-3.88321c0.91647,-0.90205 2.21665,-1.35308 3.90057,-1.35308c1.67646,0 2.97293,0.45103 3.8894,1.35308c0.91647,0.90205 1.37471,2.19645 1.37471,3.88321v25.91741h13.95935c1.45293,0 2.57058,0.37401 3.35292,1.12206c0.78235,0.74805 1.17353,1.80043 1.17353,3.15717c0,1.38607 -0.39118,2.4568 -1.17353,3.21218c-0.78235,0.74804 -1.89999,1.12206 -3.35292,1.12206zM383.54176,199.8011c-1.72117,0 -3.03999,-0.45836 -3.95645,-1.37508c-0.90901,-0.92405 -1.36353,-2.21112 -1.36353,-3.8612v-29.29459c0,-1.68676 0.45451,-2.98116 1.36353,-3.88321c0.91647,-0.90205 2.21665,-1.35308 3.90057,-1.35308c1.67646,0 2.97293,0.45103 3.8894,1.35308c0.91647,0.90205 1.3747,2.19645 1.3747,3.88321v25.91741h13.95935c1.45293,0 2.57058,0.37401 3.35292,1.12206c0.78235,0.74805 1.17353,1.80043 1.17353,3.15717c0,1.38607 -0.39118,2.4568 -1.17353,3.21218c-0.78235,0.74804 -1.89999,1.12206 -3.35292,1.12206z" fill="url(#color-1)" stroke="#ffffff" stroke-width="14"/><path d="M78.25186,199.8011c-3.65841,0 -5.48763,-1.7821 -5.48763,-5.34628v-29.00859c0,-3.57154 1.8292,-5.35729 5.48763,-5.35729h11.22114c6.98153,0 12.39838,1.7271 16.25051,5.18128c3.85214,3.4542 5.77821,8.33845 5.77821,14.6528c0,6.30702 -1.92607,11.19862 -5.77821,14.67481c-3.85214,3.46885 -9.26898,5.20327 -16.25051,5.20327zM83.29246,191.40765h5.48762c4.00861,0 6.97408,-0.94604 8.89643,-2.83815c1.9298,-1.89944 2.89469,-4.78159 2.89469,-8.64648c0,-3.87221 -0.97234,-6.74703 -2.91705,-8.62446c-1.9447,-1.87744 -4.90272,-2.81616 -8.87408,-2.81616h-5.48762zM135.59044,200.41713c-5.87134,0 -10.36426,-1.46308 -13.47876,-4.38924c-3.10705,-2.92616 -4.66056,-7.30073 -4.66056,-13.12372v-18.08499c0,-1.68675 0.45823,-2.98117 1.3747,-3.88321c0.91647,-0.90205 2.21293,-1.35307 3.8894,-1.35307c1.67646,0 2.97293,0.45102 3.8894,1.35307c0.91647,0.90205 1.37469,2.19646 1.37469,3.88321v18.19499c0,2.88949 0.64824,5.06761 1.9447,6.53436c1.29647,1.46675 3.18527,2.20012 5.66643,2.20012c2.44392,0 4.3141,-0.73337 5.61056,-2.20012c1.29647,-1.46674 1.9447,-3.64487 1.9447,-6.53436v-18.19499c0,-1.68675 0.44705,-2.98117 1.34116,-3.88321c0.90157,-0.90205 2.19059,-1.35307 3.86705,-1.35307c1.67646,0 2.9543,0.45102 3.83351,1.35307c0.87921,0.90205 1.31882,2.19646 1.31882,3.88321v18.08499c0,5.82298 -1.51628,10.19756 -4.5488,13.12372c-3.03252,2.92616 -7.4882,4.38924 -13.36699,4.38924zM165.4623,200.30713c-3.27842,0 -4.91762,-1.63177 -4.91762,-4.89528v-30.70266c0,-1.65009 0.41725,-2.91516 1.25175,-3.79521c0.84195,-0.88738 1.94843,-1.33107 3.31939,-1.33107c1.22196,0 2.1645,0.22735 2.82763,0.68204c0.67058,0.44736 1.44548,1.19906 2.32469,2.25512l16.54111,20.32911v-18.41499c0,-3.23418 1.62058,-4.85127 4.86174,-4.85127c1.60196,0 2.81273,0.42535 3.63234,1.27607c0.81961,0.84337 1.2294,2.03511 1.2294,3.5752v31.19769c0,1.43008 -0.38373,2.56681 -1.15118,3.41018c-0.76,0.84337 -1.78823,1.26508 -3.08469,1.26508c-1.29647,0 -2.31725,-0.22368 -3.06234,-0.67104c-0.73764,-0.45469 -1.52745,-1.20641 -2.3694,-2.25513l-16.5411,-20.32911v18.36c0,3.26351 -1.62059,4.89528 -4.86175,4.89528zM209.18395,200.30713c-1.68392,0 -2.9841,-0.45103 -3.90057,-1.35308c-0.90901,-0.90205 -1.36353,-2.19645 -1.36353,-3.88321v-30.25164c0,-1.68676 0.45451,-2.98117 1.36353,-3.88321c0.91647,-0.90205 2.21665,-1.35308 3.90057,-1.35308c1.67646,0 2.97293,0.45103 3.8894,1.35308c0.91647,0.90205 1.3747,2.19646 1.3747,3.88321v12.28766h0.11176l13.90346,-15.10382c0.72274,-0.74805 1.49391,-1.3384 2.31351,-1.7711c0.82705,-0.43268 1.7547,-0.64904 2.78293,-0.64904c1.5647,0 2.70843,0.40336 3.43116,1.21007c0.72274,0.80671 1.04685,1.75643 0.97234,2.84916c-0.07451,1.08539 -0.51411,2.06079 -1.31881,2.92615l-11.90288,12.39768l12.59583,14.01476c0.99098,1.09273 1.48646,2.20379 1.48646,3.33318c0,1.12206 -0.40235,2.0681 -1.20705,2.83816c-0.79725,0.77005 -1.94098,1.15506 -3.43116,1.15506c-1.29647,0 -2.34704,-0.25301 -3.15175,-0.75904c-0.79725,-0.50603 -1.63549,-1.26508 -2.5147,-2.27713l-13.95935,-15.37884h-0.11177v13.17871c0,1.68676 -0.45078,2.98117 -1.35234,3.88322c-0.89412,0.90205 -2.19804,1.35308 -3.91175,1.35308zM266.51625,199.8011c-3.65841,0 -5.48762,-1.7821 -5.48762,-5.34628v-29.00859c0,-3.57154 1.8292,-5.35729 5.48762,-5.35729h13.95935c4.35136,0 7.71918,0.93138 10.10349,2.79414c2.3843,1.85543 3.57645,4.34158 3.57645,7.4584c0,2.06811 -0.52529,3.8722 -1.57587,5.41229c-1.04313,1.54008 -2.4998,2.68414 -4.36998,3.43218c2.25019,0.6747 3.98253,1.81144 5.19703,3.41018c1.22196,1.59141 1.83293,3.57154 1.83293,5.94033c0,3.49085 -1.27039,6.24102 -3.81116,8.25044c-2.53332,2.00943 -5.99055,3.01416 -10.37171,3.01416zM271.09858,175.86379h7.49938c1.90744,0 3.30822,-0.33735 4.20233,-1.01205c0.89412,-0.6747 1.34116,-1.70876 1.34116,-3.10217c0,-1.38607 -0.44705,-2.40547 -1.34116,-3.05817c-0.89412,-0.66004 -2.29489,-0.99006 -4.20233,-0.99006h-7.49938zM271.09858,192.19968h8.52761c1.9447,0 3.36411,-0.36669 4.25822,-1.10005c0.89412,-0.73337 1.34117,-1.83343 1.34117,-3.30017c0,-1.45942 -0.44705,-2.54482 -1.34117,-3.25618c-0.89412,-0.71871 -2.31352,-1.07806 -4.25822,-1.07806h-8.52761zM302.97369,200.30713c-1.79568,0 -3.11449,-0.60136 -3.95644,-1.8041c-0.83451,-1.20274 -0.83451,-2.70247 0,-4.49924l14.24993,-30.19664c0.68549,-1.45941 1.52371,-2.52648 2.5147,-3.20118c0.99844,-0.68203 2.16452,-1.02305 3.49824,-1.02305c1.29647,0 2.44018,0.34101 3.43115,1.02305c0.99098,0.6747 1.82921,1.74175 2.5147,3.20118l14.24993,30.19664c0.87921,1.84077 0.91646,3.35151 0.11176,4.53224c-0.79725,1.18073 -2.05274,1.7711 -3.76645,1.7711c-1.52744,0 -2.70097,-0.33736 -3.52058,-1.01207c-0.81961,-0.6747 -1.55352,-1.76376 -2.20174,-3.26717l-1.83294,-4.27923h-18.02759l-1.83294,4.27923c-0.68549,1.50341 -1.39332,2.59247 -2.12351,3.26717c-0.72274,0.6747 -1.82548,1.01207 -3.30822,1.01207zM319.16834,170.90253l-5.49881,12.9037h11.0982l-5.48762,-12.9037zM350.06616,199.8011c-1.72117,0 -3.03998,-0.45836 -3.95644,-1.37508c-0.90901,-0.92405 -1.36353,-2.21112 -1.36353,-3.8612v-29.29459c0,-1.68676 0.45451,-2.98116 1.36353,-3.88321c0.91647,-0.90205 2.21665,-1.35308 3.90057,-1.35308c1.67646,0 2.97293,0.45103 3.8894,1.35308c0.91647,0.90205 1.37471,2.19645 1.37471,3.88321v25.91741h13.95935c1.45293,0 2.57058,0.37401 3.35292,1.12206c0.78235,0.74805 1.17353,1.80043 1.17353,3.15717c0,1.38607 -0.39118,2.4568 -1.17353,3.21218c-0.78235,0.74804 -1.89999,1.12206 -3.35292,1.12206zM383.54176,199.8011c-1.72117,0 -3.03999,-0.45836 -3.95645,-1.37508c-0.90901,-0.92405 -1.36353,-2.21112 -1.36353,-3.8612v-29.29459c0,-1.68676 0.45451,-2.98116 1.36353,-3.88321c0.91647,-0.90205 2.21665,-1.35308 3.90057,-1.35308c1.67646,0 2.97293,0.45103 3.8894,1.35308c0.91647,0.90205 1.3747,2.19645 1.3747,3.88321v25.91741h13.95935c1.45293,0 2.57058,0.37401 3.35292,1.12206c0.78235,0.74805 1.17353,1.80043 1.17353,3.15717c0,1.38607 -0.39118,2.4568 -1.17353,3.21218c-0.78235,0.74804 -1.89999,1.12206 -3.35292,1.12206z" fill="#ffae23" stroke="#ff9924" stroke-width="6"/><path d="M72.25186,69.8011c-3.65841,0 -5.48763,-1.7821 -5.48763,-5.34628v-29.00859c0,-3.57154 1.8292,-5.35729 5.48763,-5.35729h11.22114c6.98153,0 12.39838,1.7271 16.25051,5.18128c3.85214,3.4542 5.77821,8.33845 5.77821,14.6528c0,6.30702 -1.92607,11.19862 -5.77821,14.67481c-3.85214,3.46885 -9.26898,5.20327 -16.25051,5.20327zM77.29246,61.40765h5.48762c4.00861,0 6.97408,-0.94604 8.89643,-2.83815c1.9298,-1.89944 2.89469,-4.78159 2.89469,-8.64648c0,-3.87221 -0.97234,-6.74703 -2.91705,-8.62446c-1.9447,-1.87744 -4.90272,-2.81616 -8.87408,-2.81616h-5.48762zM129.59044,70.41713c-5.87134,0 -10.36426,-1.46308 -13.47876,-4.38924c-3.10705,-2.92616 -4.66056,-7.30073 -4.66056,-13.12372v-18.08499c0,-1.68675 0.45823,-2.98117 1.3747,-3.88321c0.91647,-0.90205 2.21293,-1.35307 3.8894,-1.35307c1.67646,0 2.97293,0.45102 3.8894,1.35307c0.91647,0.90205 1.37469,2.19646 1.37469,3.88321v18.19499c0,2.88949 0.64824,5.06761 1.9447,6.53436c1.29647,1.46675 3.18527,2.20012 5.66643,2.20012c2.44392,0 4.3141,-0.73337 5.61056,-2.20012c1.29647,-1.46674 1.9447,-3.64487 1.9447,-6.53436v-18.19499c0,-1.68675 0.44705,-2.98117 1.34116,-3.88321c0.90157,-0.90205 2.19059,-1.35307 3.86705,-1.35307c1.67646,0 2.9543,0.45102 3.83351,1.35307c0.87921,0.90205 1.31882,2.19646 1.31882,3.88321v18.08499c0,5.82298 -1.51628,10.19756 -4.5488,13.12372c-3.03252,2.92616 -7.4882,4.38924 -13.36699,4.38924zM159.4623,70.30713c-3.27842,0 -4.91762,-1.63177 -4.91762,-4.89528v-30.70266c0,-1.65009 0.41725,-2.91516 1.25175,-3.79521c0.84195,-0.88738 1.94843,-1.33107 3.31939,-1.33107c1.22196,0 2.1645,0.22735 2.82763,0.68204c0.67058,0.44736 1.44548,1.19906 2.32469,2.25512l16.54111,20.32911v-18.41499c0,-3.23418 1.62058,-4.85127 4.86174,-4.85127c1.60196,0 2.81273,0.42535 3.63234,1.27607c0.81961,0.84337 1.2294,2.03511 1.2294,3.5752v31.19769c0,1.43008 -0.38373,2.56681 -1.15118,3.41018c-0.76,0.84337 -1.78823,1.26508 -3.08469,1.26508c-1.29647,0 -2.31725,-0.22368 -3.06234,-0.67104c-0.73764,-0.45469 -1.52745,-1.20641 -2.3694,-2.25513l-16.5411,-20.32911v18.36c0,3.26351 -1.62059,4.89528 -4.86175,4.89528zM203.18395,70.30713c-1.68392,0 -2.9841,-0.45103 -3.90057,-1.35308c-0.90901,-0.90205 -1.36353,-2.19645 -1.36353,-3.88321v-30.25164c0,-1.68676 0.45451,-2.98117 1.36353,-3.88321c0.91647,-0.90205 2.21665,-1.35308 3.90057,-1.35308c1.67646,0 2.97293,0.45103 3.8894,1.35308c0.91647,0.90205 1.3747,2.19646 1.3747,3.88321v12.28766h0.11176l13.90346,-15.10382c0.72274,-0.74805 1.49391,-1.3384 2.31351,-1.7711c0.82705,-0.43268 1.7547,-0.64904 2.78293,-0.64904c1.5647,0 2.70843,0.40336 3.43116,1.21007c0.72274,0.80671 1.04685,1.75643 0.97234,2.84916c-0.07451,1.08539 -0.51411,2.06079 -1.31881,2.92615l-11.90288,12.39768l12.59583,14.01476c0.99098,1.09273 1.48646,2.20379 1.48646,3.33318c0,1.12206 -0.40235,2.0681 -1.20705,2.83816c-0.79725,0.77005 -1.94098,1.15506 -3.43116,1.15506c-1.29647,0 -2.34704,-0.25301 -3.15175,-0.75904c-0.79725,-0.50603 -1.63549,-1.26508 -2.5147,-2.27713l-13.95935,-15.37884h-0.11177v13.17871c0,1.68676 -0.45078,2.98117 -1.35234,3.88322c-0.89412,0.90205 -2.19804,1.35308 -3.91175,1.35308zM260.51625,69.8011c-3.65841,0 -5.48762,-1.7821 -5.48762,-5.34628v-29.00859c0,-3.57154 1.8292,-5.35729 5.48762,-5.35729h13.95935c4.35136,0 7.71918,0.93138 10.10349,2.79414c2.3843,1.85543 3.57645,4.34158 3.57645,7.4584c0,2.06811 -0.52529,3.8722 -1.57587,5.41229c-1.04313,1.54008 -2.4998,2.68414 -4.36998,3.43218c2.25019,0.6747 3.98253,1.81144 5.19703,3.41018c1.22196,1.59141 1.83293,3.57154 1.83293,5.94033c0,3.49085 -1.27039,6.24102 -3.81116,8.25044c-2.53332,2.00943 -5.99055,3.01416 -10.37171,3.01416zM265.09858,45.86379h7.49938c1.90744,0 3.30822,-0.33735 4.20233,-1.01205c0.89412,-0.6747 1.34116,-1.70876 1.34116,-3.10217c0,-1.38607 -0.44705,-2.40547 -1.34116,-3.05817c-0.89412,-0.66004 -2.29489,-0.99006 -4.20233,-0.99006h-7.49938zM265.09858,62.19968h8.52761c1.9447,0 3.36411,-0.36669 4.25822,-1.10005c0.89412,-0.73337 1.34117,-1.83343 1.34117,-3.30017c0,-1.45942 -0.44705,-2.54482 -1.34117,-3.25618c-0.89412,-0.71871 -2.31352,-1.07806 -4.25822,-1.07806h-8.52761zM296.97369,70.30713c-1.79568,0 -3.11449,-0.60136 -3.95644,-1.8041c-0.83451,-1.20274 -0.83451,-2.70247 0,-4.49924l14.24993,-30.19664c0.68549,-1.45941 1.52371,-2.52648 2.5147,-3.20118c0.99844,-0.68203 2.16452,-1.02305 3.49824,-1.02305c1.29647,0 2.44018,0.34101 3.43115,1.02305c0.99098,0.6747 1.82921,1.74175 2.5147,3.20118l14.24993,30.19664c0.87921,1.84077 0.91646,3.35151 0.11176,4.53224c-0.79725,1.18073 -2.05274,1.7711 -3.76645,1.7711c-1.52744,0 -2.70097,-0.33736 -3.52058,-1.01207c-0.81961,-0.6747 -1.55352,-1.76376 -2.20174,-3.26717l-1.83294,-4.27923h-18.02759l-1.83294,4.27923c-0.68549,1.50341 -1.39332,2.59247 -2.12351,3.26717c-0.72274,0.6747 -1.82548,1.01207 -3.30822,1.01207zM313.16834,40.90252l-5.49881,12.9037h11.0982l-5.48762,-12.9037zM344.06616,69.8011c-1.72117,0 -3.03998,-0.45836 -3.95644,-1.37508c-0.90901,-0.92405 -1.36353,-2.21112 -1.36353,-3.8612v-29.29459c0,-1.68676 0.45451,-2.98116 1.36353,-3.88321c0.91647,-0.90205 2.21665,-1.35308 3.90057,-1.35308c1.67646,0 2.97293,0.45103 3.8894,1.35308c0.91647,0.90205 1.37471,2.19645 1.37471,3.88321v25.91741h13.95935c1.45293,0 2.57058,0.37401 3.35292,1.12206c0.78235,0.74805 1.17353,1.80043 1.17353,3.15717c0,1.38607 -0.39118,2.4568 -1.17353,3.21218c-0.78235,0.74804 -1.89999,1.12206 -3.35292,1.12206zM377.54176,69.8011c-1.72117,0 -3.03999,-0.45836 -3.95645,-1.37508c-0.90901,-0.92405 -1.36353,-2.21112 -1.36353,-3.8612v-29.29459c0,-1.68676 0.45451,-2.98116 1.36353,-3.88321c0.91647,-0.90205 2.21665,-1.35308 3.90057,-1.35308c1.67646,0 2.97293,0.45103 3.8894,1.35308c0.91647,0.90205 1.3747,2.19645 1.3747,3.88321v25.91741h13.95935c1.45293,0 2.57058,0.37401 3.35292,1.12206c0.78235,0.74805 1.17353,1.80043 1.17353,3.15717c0,1.38607 -0.39118,2.4568 -1.17353,3.21218c-0.78235,0.74804 -1.89999,1.12206 -3.35292,1.12206z" fill="url(#color-2)" stroke="#ffffff" stroke-width="14"/><path d="M72.25186,69.8011c-3.65841,0 -5.48763,-1.7821 -5.48763,-5.34628v-29.00859c0,-3.57154 1.8292,-5.35729 5.48763,-5.35729h11.22114c6.98153,0 12.39838,1.7271 16.25051,5.18128c3.85214,3.4542 5.77821,8.33845 5.77821,14.6528c0,6.30702 -1.92607,11.19862 -5.77821,14.67481c-3.85214,3.46885 -9.26898,5.20327 -16.25051,5.20327zM77.29246,61.40765h5.48762c4.00861,0 6.97408,-0.94604 8.89643,-2.83815c1.9298,-1.89944 2.89469,-4.78159 2.89469,-8.64648c0,-3.87221 -0.97234,-6.74703 -2.91705,-8.62446c-1.9447,-1.87744 -4.90272,-2.81616 -8.87408,-2.81616h-5.48762zM129.59044,70.41713c-5.87134,0 -10.36426,-1.46308 -13.47876,-4.38924c-3.10705,-2.92616 -4.66056,-7.30073 -4.66056,-13.12372v-18.08499c0,-1.68675 0.45823,-2.98117 1.3747,-3.88321c0.91647,-0.90205 2.21293,-1.35307 3.8894,-1.35307c1.67646,0 2.97293,0.45102 3.8894,1.35307c0.91647,0.90205 1.37469,2.19646 1.37469,3.88321v18.19499c0,2.88949 0.64824,5.06761 1.9447,6.53436c1.29647,1.46675 3.18527,2.20012 5.66643,2.20012c2.44392,0 4.3141,-0.73337 5.61056,-2.20012c1.29647,-1.46674 1.9447,-3.64487 1.9447,-6.53436v-18.19499c0,-1.68675 0.44705,-2.98117 1.34116,-3.88321c0.90157,-0.90205 2.19059,-1.35307 3.86705,-1.35307c1.67646,0 2.9543,0.45102 3.83351,1.35307c0.87921,0.90205 1.31882,2.19646 1.31882,3.88321v18.08499c0,5.82298 -1.51628,10.19756 -4.5488,13.12372c-3.03252,2.92616 -7.4882,4.38924 -13.36699,4.38924zM159.4623,70.30713c-3.27842,0 -4.91762,-1.63177 -4.91762,-4.89528v-30.70266c0,-1.65009 0.41725,-2.91516 1.25175,-3.79521c0.84195,-0.88738 1.94843,-1.33107 3.31939,-1.33107c1.22196,0 2.1645,0.22735 2.82763,0.68204c0.67058,0.44736 1.44548,1.19906 2.32469,2.25512l16.54111,20.32911v-18.41499c0,-3.23418 1.62058,-4.85127 4.86174,-4.85127c1.60196,0 2.81273,0.42535 3.63234,1.27607c0.81961,0.84337 1.2294,2.03511 1.2294,3.5752v31.19769c0,1.43008 -0.38373,2.56681 -1.15118,3.41018c-0.76,0.84337 -1.78823,1.26508 -3.08469,1.26508c-1.29647,0 -2.31725,-0.22368 -3.06234,-0.67104c-0.73764,-0.45469 -1.52745,-1.20641 -2.3694,-2.25513l-16.5411,-20.32911v18.36c0,3.26351 -1.62059,4.89528 -4.86175,4.89528zM203.18395,70.30713c-1.68392,0 -2.9841,-0.45103 -3.90057,-1.35308c-0.90901,-0.90205 -1.36353,-2.19645 -1.36353,-3.88321v-30.25164c0,-1.68676 0.45451,-2.98117 1.36353,-3.88321c0.91647,-0.90205 2.21665,-1.35308 3.90057,-1.35308c1.67646,0 2.97293,0.45103 3.8894,1.35308c0.91647,0.90205 1.3747,2.19646 1.3747,3.88321v12.28766h0.11176l13.90346,-15.10382c0.72274,-0.74805 1.49391,-1.3384 2.31351,-1.7711c0.82705,-0.43268 1.7547,-0.64904 2.78293,-0.64904c1.5647,0 2.70843,0.40336 3.43116,1.21007c0.72274,0.80671 1.04685,1.75643 0.97234,2.84916c-0.07451,1.08539 -0.51411,2.06079 -1.31881,2.92615l-11.90288,12.39768l12.59583,14.01476c0.99098,1.09273 1.48646,2.20379 1.48646,3.33318c0,1.12206 -0.40235,2.0681 -1.20705,2.83816c-0.79725,0.77005 -1.94098,1.15506 -3.43116,1.15506c-1.29647,0 -2.34704,-0.25301 -3.15175,-0.75904c-0.79725,-0.50603 -1.63549,-1.26508 -2.5147,-2.27713l-13.95935,-15.37884h-0.11177v13.17871c0,1.68676 -0.45078,2.98117 -1.35234,3.88322c-0.89412,0.90205 -2.19804,1.35308 -3.91175,1.35308zM260.51625,69.8011c-3.65841,0 -5.48762,-1.7821 -5.48762,-5.34628v-29.00859c0,-3.57154 1.8292,-5.35729 5.48762,-5.35729h13.95935c4.35136,0 7.71918,0.93138 10.10349,2.79414c2.3843,1.85543 3.57645,4.34158 3.57645,7.4584c0,2.06811 -0.52529,3.8722 -1.57587,5.41229c-1.04313,1.54008 -2.4998,2.68414 -4.36998,3.43218c2.25019,0.6747 3.98253,1.81144 5.19703,3.41018c1.22196,1.59141 1.83293,3.57154 1.83293,5.94033c0,3.49085 -1.27039,6.24102 -3.81116,8.25044c-2.53332,2.00943 -5.99055,3.01416 -10.37171,3.01416zM265.09858,45.86379h7.49938c1.90744,0 3.30822,-0.33735 4.20233,-1.01205c0.89412,-0.6747 1.34116,-1.70876 1.34116,-3.10217c0,-1.38607 -0.44705,-2.40547 -1.34116,-3.05817c-0.89412,-0.66004 -2.29489,-0.99006 -4.20233,-0.99006h-7.49938zM265.09858,62.19968h8.52761c1.9447,0 3.36411,-0.36669 4.25822,-1.10005c0.89412,-0.73337 1.34117,-1.83343 1.34117,-3.30017c0,-1.45942 -0.44705,-2.54482 -1.34117,-3.25618c-0.89412,-0.71871 -2.31352,-1.07806 -4.25822,-1.07806h-8.52761zM296.97369,70.30713c-1.79568,0 -3.11449,-0.60136 -3.95644,-1.8041c-0.83451,-1.20274 -0.83451,-2.70247 0,-4.49924l14.24993,-30.19664c0.68549,-1.45941 1.52371,-2.52648 2.5147,-3.20118c0.99844,-0.68203 2.16452,-1.02305 3.49824,-1.02305c1.29647,0 2.44018,0.34101 3.43115,1.02305c0.99098,0.6747 1.82921,1.74175 2.5147,3.20118l14.24993,30.19664c0.87921,1.84077 0.91646,3.35151 0.11176,4.53224c-0.79725,1.18073 -2.05274,1.7711 -3.76645,1.7711c-1.52744,0 -2.70097,-0.33736 -3.52058,-1.01207c-0.81961,-0.6747 -1.55352,-1.76376 -2.20174,-3.26717l-1.83294,-4.27923h-18.02759l-1.83294,4.27923c-0.68549,1.50341 -1.39332,2.59247 -2.12351,3.26717c-0.72274,0.6747 -1.82548,1.01207 -3.30822,1.01207zM313.16834,40.90252l-5.49881,12.9037h11.0982l-5.48762,-12.9037zM344.06616,69.8011c-1.72117,0 -3.03998,-0.45836 -3.95644,-1.37508c-0.90901,-0.92405 -1.36353,-2.21112 -1.36353,-3.8612v-29.29459c0,-1.68676 0.45451,-2.98116 1.36353,-3.88321c0.91647,-0.90205 2.21665,-1.35308 3.90057,-1.35308c1.67646,0 2.97293,0.45103 3.8894,1.35308c0.91647,0.90205 1.37471,2.19645 1.37471,3.88321v25.91741h13.95935c1.45293,0 2.57058,0.37401 3.35292,1.12206c0.78235,0.74805 1.17353,1.80043 1.17353,3.15717c0,1.38607 -0.39118,2.4568 -1.17353,3.21218c-0.78235,0.74804 -1.89999,1.12206 -3.35292,1.12206zM377.54176,69.8011c-1.72117,0 -3.03999,-0.45836 -3.95645,-1.37508c-0.90901,-0.92405 -1.36353,-2.21112 -1.36353,-3.8612v-29.29459c0,-1.68676 0.45451,-2.98116 1.36353,-3.88321c0.91647,-0.90205 2.21665,-1.35308 3.90057,-1.35308c1.67646,0 2.97293,0.45103 3.8894,1.35308c0.91647,0.90205 1.3747,2.19645 1.3747,3.88321v25.91741h13.95935c1.45293,0 2.57058,0.37401 3.35292,1.12206c0.78235,0.74805 1.17353,1.80043 1.17353,3.15717c0,1.38607 -0.39118,2.4568 -1.17353,3.21218c-0.78235,0.74804 -1.89999,1.12206 -3.35292,1.12206z" fill="#ffae23" stroke="none" stroke-width="0"/></g></g></svg>