<svg version="1.1" xmlns="http://www.w3.org/2000/svg" xmlns:xlink="http://www.w3.org/1999/xlink" width="60" height="65.6029" viewBox="0,0,60,65.6029"><g transform="translate(-210,-146.94729)"><g data-paper-data="{&quot;isPaintingLayer&quot;:true}" fill-rule="nonzero" stroke-linejoin="miter" stroke-miterlimit="10" stroke-dasharray="" stroke-dashoffset="0" style="mix-blend-mode: normal"><path d="M210,199.14729c0,-7.04774 0,-31.40226 0,-44.2c0,-4.81949 3.05034,-8 7.7,-8c12.62451,0 37.03921,0 44.2,0c3.87081,0 8.1,3.00621 8.1,7.6c0,12.6245 0,37.2391 0,44.4c0,3.83078 -3.40007,8 -8.5,8c-13.01549,0 -37.10248,0 -44,0c-3.62854,0 -7.5,-4.0497 -7.5,-7.8z" fill="#d1d1d1" stroke="none" stroke-width="0" stroke-linecap="butt"/><path d="M215.57804,204.175c0.08847,-4.6005 4.04058,-8.05913 7.98013,-8.05913c5.79891,0 22.44949,0 32.71065,0c4.9794,0 8.13815,3.24293 8.13815,7.90112c0,4.6582 -3.15609,8.5332 -8.13815,8.5332c-10.36204,0 -27.25579,0 -33.0267,0c-3.82167,0 -7.75257,-3.7747 -7.66408,-8.3752z" fill="#3be690" stroke="none" stroke-width="0.5" stroke-linecap="butt"/><text transform="translate(218.52928,207.29591) scale(0.20585,0.20585)" font-size="40" xml:space="preserve" fill="#ffffff" fill-rule="nonzero" stroke="none" stroke-width="1" stroke-linecap="butt" stroke-linejoin="miter" stroke-miterlimit="10" stroke-dasharray="" stroke-dashoffset="0" font-family="Sans Serif" font-weight="normal" text-anchor="start" style="mix-blend-mode: normal"><tspan x="0" dy="0">UNLOCKED</tspan></text><g><path d="M222.94845,174.77396c0,-9.3393 7.571,-16.9103 16.9103,-16.9103c9.3393,0 16.91031,7.571 16.91031,16.9103c0,9.3393 -7.571,16.9103 -16.91031,16.9103c-9.3393,0 -16.9103,-7.571 -16.9103,-16.9103z" fill="#c75050" stroke="#000000" stroke-width="1.5" stroke-linecap="butt"/><path d="M225.65675,174.11341c0,-8.17191 6.50633,-14.79651 14.53231,-14.79651c8.02597,0 14.53231,6.62462 14.53231,14.79651c0,8.17191 -6.50633,14.79651 -14.53231,14.79651c-8.02597,0 -14.53231,-6.62462 -14.53231,-14.79651z" fill="#ff6666" stroke="none" stroke-width="1.5" stroke-linecap="butt"/><path d="M232.65814,171.73382c0,-5.61819 4.55443,-10.17262 10.17262,-10.17262c5.61819,0 10.17262,4.55443 10.17262,10.17262c0,5.61819 -4.55443,10.17262 -10.17262,10.17262c-5.61819,0 -10.17262,-4.55443 -10.17262,-10.17262z" fill="#ff8585" stroke="none" stroke-width="1.5" stroke-linecap="butt"/><g stroke-width="0.90232"><path d="M230.99569,180.58327v0v0v0v0v0v0c-0.00985,-0.01711 -0.29775,-0.49794 -0.29775,-0.49814c-0.79851,-1.28181 -0.97549,-4.18083 -0.90608,-5.08562l0.00614,-0.04334c0.22686,-3.83504 2.01034,-5.88194 3.06363,-6.96529c2.3907,-2.46059 6.01446,-2.56067 6.01446,-2.56067l0.1284,2.48943c0,0 -0.00689,-0.71597 1.45095,-1.96765c1.45747,-1.25169 3.61276,-1.06883 3.61276,-1.06883l-1.1437,3.11963c0,0 0.67419,-0.97173 1.22671,-1.32684c0.97957,-0.62852 1.80786,-0.35843 1.80786,-0.35843l-0.22832,1.93491c0,0 1.45784,1.8899 2.57362,3.66578c0.23878,0.3789 0.51549,0.76246 0.69096,1.20368c0.63811,1.60308 0.73022,4.46025 0.01489,5.87544c-0.12356,0.25038 -0.25809,0.4935 -0.39767,0.73253c-0.03629,0.06139 -0.07277,0.1224 -0.1098,0.18267c-0.12784,0.2102 -0.26127,0.41629 -0.40159,0.61607c-0.01897,0.0266 -0.03629,0.05487 -0.05526,0.08149c-0.15912,0.22228 -0.32696,0.43637 -0.50153,0.64452c-0.04167,0.05023 -0.0856,0.09877 -0.12822,0.14863c-0.14962,0.17188 -0.30463,0.33893 -0.46373,0.49963c-0.03666,0.03759 -0.07239,0.07572 -0.10943,0.11199c-0.1915,0.18714 -0.39097,0.36552 -0.59642,0.5359c-0.04577,0.0374 -0.09266,0.07312 -0.13883,0.10976c-0.1725,0.13765 -0.35078,0.26917 -0.53314,0.39453c-0.05266,0.03571 -0.10402,0.07329 -0.15706,0.10826c-0.22276,0.1464 -0.4509,0.28386 -0.6865,0.4109c-0.04205,0.02289 -0.0867,0.04297 -0.12932,0.06512c-0.20135,0.10473 -0.40735,0.20108 -0.61782,0.29036c-0.89027,0.37742 -1.857,0.62314 -2.89502,0.69794c-1.18633,0.08539 -2.26027,0.04946 -3.23036,-0.07702c-0.23987,-0.03126 -0.47322,-0.06864 -0.70045,-0.1105c-0.04317,-0.00874 -0.08617,-0.01711 -0.12895,-0.02549c-0.23039,-0.04539 -0.45649,-0.09411 -0.67347,-0.14974c-0.0013,-0.00037 -0.00298,-0.00074 -0.00446,-0.00111c-0.21738,-0.05506 -0.42634,-0.11681 -0.63048,-0.1823c-0.03573,-0.01134 -0.07239,-0.02268 -0.10795,-0.03423c-0.19613,-0.06417 -0.38725,-0.13281 -0.57147,-0.20553c-0.0324,-0.01227 -0.06366,-0.02622 -0.09584,-0.03886c-0.18182,-0.0733 -0.35915,-0.14958 -0.52924,-0.2303c-0.00652,-0.00371 -0.01377,-0.00614 -0.0201,-0.00949c-0.17417,-0.08333 -0.34055,-0.17037 -0.50225,-0.25949c-0.03017,-0.01673 -0.06013,-0.0331 -0.08951,-0.04984c-0.15557,-0.08836 -0.30632,-0.17858 -0.44997,-0.27158c-0.02196,-0.01396 -0.04281,-0.02848 -0.06458,-0.0426c-0.1364,-0.09002 -0.26834,-0.18193 -0.39451,-0.27568c-0.01301,-0.00893 -0.02734,-0.01842 -0.03982,-0.02828c-0.13157,-0.09877 -0.25587,-0.19977 -0.37571,-0.30151c-0.02328,-0.01955 -0.04617,-0.03926 -0.0685,-0.05879c-0.11685,-0.10175 -0.22925,-0.20368 -0.33497,-0.30804c-0.01209,-0.01137 -0.02307,-0.02345 -0.03496,-0.03497c-0.09957,-0.09916 -0.19409,-0.19904 -0.28342,-0.29894c-0.01247,-0.0145 -0.02661,-0.02865 -0.03928,-0.04277c-0.09155,-0.1051 -0.28938,-0.35437 -0.30464,-0.37427c-0.07963,-0.10528 -0.15557,-0.21038 -0.22423,-0.31492c-0.00427,-0.00652 -0.00837,-0.01304 -0.01226,-0.01953c-0.06588,-0.10064 -0.1258,-0.19978 -0.18182,-0.29857z" fill="#9a8479" stroke="#000000" stroke-linecap="butt"/><path d="M245.06919,174.98836v0v0v0v0v0v0c0,0 2.16795,2.45092 1.49802,4.99336c-0.66956,2.54169 -4.67086,3.61852 -7.74528,3.42525c-4.06422,-0.25576 -5.94842,-2.67618 -5.2796,-4.9861c0.66974,-2.30992 6.05038,-3.38972 6.05038,-3.38972l-0.88357,1.6596c0,0 0.69599,-0.10751 1.25817,-0.42894c0.562,-0.32086 1.17834,-0.74888 1.17834,-0.74888l-1.28738,1.82386c0,0 1.7003,-0.01822 3.17266,-0.60751c1.47236,-0.58855 2.03826,-1.7409 2.03826,-1.7409z" fill="#e6e7e8" stroke="#000000" stroke-linecap="butt"/><g stroke="#000000"><path d="M247.84325,173.66318c0,0 3.48956,-1.96003 4.28714,-0.29334c0.7976,1.66667 -0.62916,3.61983 -3.60662,5.38697c0,0 0.06569,-2.90163 -0.68053,-5.09363v0v0v0v0v0zM247.84325,173.66318c-0.06235,-0.25651 -0.26836,-0.74703 -0.26836,-0.74703M248.44637,179.20863l0.03741,-0.4693" fill="#9a8479" stroke-linecap="round"/><path d="M248.48378,178.73914c0.01934,-0.53741 0.0186,-1.42227 -0.10254,-2.52719c-0.06979,-0.64306 -0.20471,-1.30639 -0.34314,-1.8793l0.00037,0.00075c2.04401,-0.52029 3.86325,1.36886 3.86325,1.36886h0.00074c-1.02164,1.69589 -3.4023,2.98999 -3.4023,2.98999l-0.01637,0.04689v0v0v0v0v0z" fill="#ee4036" stroke-linecap="butt"/></g><g stroke="#000000"><path d="M231.46556,180.0351c-2.89836,-1.15329 -4.46227,-2.71282 -4.0242,-4.35107c0.43825,-1.63841 3.81766,-0.38765 3.81766,-0.38765c-0.30985,2.10828 0.20655,4.73871 0.20655,4.73871v0v0v0v0v0v0zM231.37716,174.57578c0,0 -0.10384,0.47748 -0.11796,0.7206M231.49795,180.01277l0.10718,0.4215" fill="#9a8479" stroke-linecap="round"/><path d="M231.47618,179.97279c0,0 -2.29879,-0.81418 -3.46558,-2.20111l0.00055,-0.00018c0,0 1.30171,-1.99667 3.18198,-1.83541l0.00019,-0.00055c-0.03126,0.54223 -0.04503,1.16649 -0.00466,1.76212c0.06811,1.024 0.20731,1.82926 0.30929,2.31511l-0.02177,-0.03998v0v0v0v0v0v0z" fill="#ee4036" stroke-linecap="butt"/></g><path d="M242.70119,178.98803c-0.13491,0 -0.2529,-0.09766 -0.27523,-0.23513c-0.02439,-0.15215 0.07926,-0.29539 0.23149,-0.31974c0.13843,-0.02177 1.36552,-0.21319 1.81773,-0.157c0.15297,0.01934 0.26165,0.15886 0.24323,0.31101c-0.01936,0.15329 -0.16098,0.25968 -0.31152,0.24312c-0.28453,-0.0346 -1.16884,0.07553 -1.66141,0.15366c-0.01489,0.00297 -0.02978,0.00408 -0.04429,0.00408v0v0v0v0v0v0v0z" fill="#231f20" stroke="none" stroke-linecap="butt"/><path d="M238.17787,179.04755c-0.01748,0 -0.03518,-0.00186 -0.0534,-0.00503c-0.64444,-0.12463 -1.77773,0.00225 -1.78888,0.00336c-0.15056,0.01674 -0.29107,-0.0919 -0.30892,-0.24516c-0.01748,-0.15291 0.0923,-0.29132 0.24564,-0.3088c0.05025,-0.00501 1.22913,-0.13726 1.95823,0.00336c0.1511,0.02901 0.25049,0.17541 0.22108,0.32737c-0.02588,0.13225 -0.14291,0.2249 -0.27374,0.2249v0v0v0v0v0v0v0z" fill="#231f20" stroke="none" stroke-linecap="butt"/><path d="M242.88858,180.29309c0,0 -0.75311,1.01544 -2.43948,1.01544c-1.68598,0 -2.13743,-0.66741 -2.13743,-0.66741" fill="none" stroke="#231f20" stroke-linecap="round"/></g></g></g></g></svg>