<svg version="1.1" xmlns="http://www.w3.org/2000/svg" xmlns:xlink="http://www.w3.org/1999/xlink" width="483" height="369.00901" viewBox="0,0,483,369.00901"><g transform="translate(1.5,3.25901)"><g data-paper-data="{&quot;isPaintingLayer&quot;:true}" fill-rule="nonzero" stroke-linejoin="miter" stroke-miterlimit="10" stroke-dasharray="" stroke-dashoffset="0" style="mix-blend-mode: normal"><path d="M-1.5,-3.25901h124v369.00901h-124z" fill="#000b3d" stroke="none" stroke-width="1.11308" stroke-linecap="butt"/><path d="M60.05652,70.85701v-35.87588h58v35.87588z" fill="#05004c" stroke="none" stroke-width="0" stroke-linecap="butt"/><path d="M-0.94348,33.95611v-36.9009h61v36.9009z" fill="#05004c" stroke="none" stroke-width="0" stroke-linecap="butt"/><path d="M0.05652,107.75792v-35.87588h58v35.87588z" fill="#05004c" stroke="none" stroke-width="0" stroke-linecap="butt"/><path d="M59.05652,144.65882v-35.87588h58v35.87588z" fill="#05004c" stroke="none" stroke-width="0" stroke-linecap="butt"/><path d="M0.05652,180.53469v-35.87588h58v35.87588z" fill="#05004c" stroke="none" stroke-width="0" stroke-linecap="butt"/><path d="M59.05652,216.41057v-35.87588h58v35.87588z" fill="#05004c" stroke="none" stroke-width="0" stroke-linecap="butt"/><path d="M0.05652,252.28644v-35.87588h58v35.87588z" fill="#05004c" stroke="none" stroke-width="0" stroke-linecap="butt"/><path d="M59.05652,288.16232v-35.87588h58v35.87588z" fill="#05004c" stroke="none" stroke-width="0" stroke-linecap="butt"/><path d="M0.05652,326.08825v-35.87588h58v35.87588z" fill="#05004c" stroke="none" stroke-width="0" stroke-linecap="butt"/><path d="M59.05652,364.01417v-35.87588h58v35.87588z" fill="#05004c" stroke="none" stroke-width="0" stroke-linecap="butt"/><path d="M122.55802,360.05355l1,-357" fill="none" stroke="#ffffff" stroke-width="5" stroke-linecap="round"/><path d="M355.05652,2.55505l1,357" fill="none" stroke="#ffffff" stroke-width="5" stroke-linecap="round"/><g stroke="none" stroke-linecap="butt"><path d="M357.5,-0.25601h124v366.00601h-124z" fill="#000b3d" stroke-width="1.11308"/><path d="M419.05652,73.25686v-35.58392h58v35.58392z" fill="#05004c" stroke-width="0"/><path d="M358.05652,36.65626v-36.6006h61v36.6006z" fill="#05004c" stroke-width="0"/><path d="M359.05652,109.85746v-35.58392h58v35.58392z" fill="#05004c" stroke-width="0"/><path d="M418.05652,146.45806v-35.58392h58v35.58392z" fill="#05004c" stroke-width="0"/><path d="M359.05652,182.04198v-35.58392h58v35.58392z" fill="#05004c" stroke-width="0"/><path d="M418.05652,217.6259v-35.58392h58v35.58392z" fill="#05004c" stroke-width="0"/><path d="M359.05652,253.20981v-35.58392h58v35.58392z" fill="#05004c" stroke-width="0"/><path d="M418.05652,288.79373v-35.58392h58v35.58392z" fill="#05004c" stroke-width="0"/><path d="M359.05652,326.41101v-35.58392h58v35.58392z" fill="#05004c" stroke-width="0"/><path d="M418.05652,364.0283v-35.58392h58v35.58392z" fill="#05004c" stroke-width="0"/></g></g></g></svg>