<svg version="1.1" xmlns="http://www.w3.org/2000/svg" xmlns:xlink="http://www.w3.org/1999/xlink" width="720" height="540" viewBox="0,0,720,540"><defs><clipPath id="clip-1"><rect x="-240" y="-180" transform="scale(0.5,0.5)" width="1440" height="1080" fill="none" fill-rule="nonzero" stroke-width="0.5" stroke-linecap="butt"/></clipPath></defs><g transform="translate(120,90)"><g clip-path="url(#clip-1)" data-paper-data="{&quot;isPaintingLayer&quot;:true}" stroke="none" stroke-linejoin="miter" stroke-miterlimit="10" stroke-dasharray="" stroke-dashoffset="0" style="mix-blend-mode: normal"><path d="M-240,-180h960v720h-960z" fill-opacity="0" fill="#000000" fill-rule="evenodd" stroke-width="1" stroke-linecap="square"/><path d="M-112.04724,27.8084h704.0945v116.34645h-704.0945z" fill-opacity="0" fill="#000000" fill-rule="evenodd" stroke-width="1" stroke-linecap="square"/><path d="M-212.33071,7.02887h704.0945v116.34647h-704.0945z" fill-opacity="0" fill="#000000" fill-rule="evenodd" stroke-width="1" stroke-linecap="square"/><path d="M195.82368,185.05083c-0.41112,0 -0.72856,-0.11188 -0.95232,-0.33563c-0.22193,-0.22375 -0.3329,-0.54483 -0.3329,-0.96323v-6.58163h-2.19388c-0.70764,0 -1.06147,-0.34927 -1.06147,-1.04782c0,-0.69855 0.35382,-1.04782 1.06147,-1.04782h6.9582c0.70764,0 1.06147,0.34927 1.06147,1.04782c0,0.69855 -0.35382,1.04782 -1.06147,1.04782h-2.19388v6.58163c0,0.4184 -0.11006,0.73948 -0.33017,0.96323c-0.2183,0.22375 -0.53664,0.33563 -0.95505,0.33563zM200.5738,185.05083c-0.43841,0 -0.7604,-0.14917 -0.96596,-0.44751c-0.20374,-0.29834 -0.20374,-0.67035 0,-1.11604l3.4791,-7.49029c0.16736,-0.36201 0.37201,-0.62669 0.61396,-0.79405c0.24376,-0.16918 0.52846,-0.25377 0.85408,-0.25377c0.31653,0 0.59577,0.08459 0.83771,0.25377c0.24195,0.16736 0.4466,0.43204 0.61396,0.79405l3.4791,7.49029c0.21466,0.4566 0.22375,0.83135 0.02729,1.12423c-0.19465,0.29288 -0.50117,0.43932 -0.91957,0.43932c-0.37292,0 -0.65944,-0.08368 -0.85954,-0.25104c-0.20011,-0.16736 -0.37929,-0.4375 -0.53756,-0.81043l-0.44751,-1.06147h-4.4014l-0.44751,1.06147c-0.16736,0.37292 -0.34018,0.64306 -0.51845,0.81043c-0.17646,0.16736 -0.44569,0.25104 -0.8077,0.25104zM204.52769,177.75701l-1.34252,3.20077h2.7096l-1.33979,-3.20077zM212.05771,185.05083c-0.41112,0 -0.72856,-0.11188 -0.95232,-0.33563c-0.22193,-0.22375 -0.3329,-0.54483 -0.3329,-0.96323v-7.37569c0,-0.42022 0.11097,-0.74221 0.3329,-0.96596c0.22375,-0.22375 0.54574,-0.33563 0.96596,-0.33563h3.43544c1.11877,0 1.98286,0.28651 2.59227,0.85954c0.60941,0.57303 0.91412,1.36253 0.91412,2.36852c0,1.00598 -0.30471,1.79549 -0.91412,2.36852c-0.60941,0.57303 -1.4735,0.85954 -2.59227,0.85954h-2.16386v2.22116c0,0.4184 -0.11006,0.73948 -0.33017,0.96323c-0.2183,0.22375 -0.53665,0.33563 -0.95505,0.33563zM213.34293,179.56068h1.71908c1.00416,0 1.50624,-0.41931 1.50624,-1.25793c0,-0.83862 -0.50208,-1.25793 -1.50624,-1.25793h-1.71908zM227.81717,185.05083c-0.41112,0 -0.72856,-0.11188 -0.95232,-0.33563c-0.22193,-0.22375 -0.3329,-0.54483 -0.3329,-0.96323v-6.58163h-2.19388c-0.70764,0 -1.06147,-0.34927 -1.06147,-1.04782c0,-0.69855 0.35382,-1.04782 1.06147,-1.04782h6.95819c0.70764,0 1.06147,0.34927 1.06147,1.04782c0,0.69855 -0.35382,1.04782 -1.06147,1.04782h-2.19388v6.58163c0,0.4184 -0.11006,0.73948 -0.33017,0.96323c-0.2183,0.22375 -0.53665,0.33563 -0.95505,0.33563zM237.38498,185.07812c-0.99507,0 -1.86825,-0.21193 -2.61956,-0.63579c-0.74948,-0.42386 -1.33343,-1.0169 -1.75183,-1.77912c-0.4184,-0.76404 -0.6276,-1.65359 -0.6276,-2.66867c0,-1.02599 0.20647,-1.91828 0.61942,-2.67686c0.41476,-0.75858 0.99962,-1.34707 1.75456,-1.76547c0.75494,-0.42022 1.62995,-0.63033 2.62501,-0.63033c0.99689,0 1.87007,0.21011 2.61956,0.63033c0.7513,0.4184 1.33616,1.00689 1.75456,1.76547c0.4184,0.75858 0.6276,1.65087 0.6276,2.67686c0,1.01508 -0.2092,1.90463 -0.6276,2.66867c-0.4184,0.76222 -1.00325,1.35526 -1.75456,1.77912c-0.74948,0.42386 -1.62267,0.63579 -2.61956,0.63579zM237.38498,182.9279c0.72765,0 1.29886,-0.25832 1.71363,-0.77495c0.41476,-0.51663 0.62214,-1.2361 0.62214,-2.1584c0,-0.9223 -0.20556,-1.63904 -0.61669,-2.15022c-0.40931,-0.513 -0.98233,-0.76949 -1.71908,-0.76949c-0.73493,0 -1.30796,0.2565 -1.71908,0.76949c-0.40931,0.51118 -0.61396,1.22792 -0.61396,2.15022c0,0.9223 0.20465,1.64177 0.61396,2.1584c0.41112,0.51663 0.98415,0.77495 1.71908,0.77495zM249.09427,185.05083c-0.37292,0 -0.65944,-0.10187 -0.85954,-0.30561c-0.2001,-0.20556 -0.30016,-0.49481 -0.30016,-0.86773v-7.75498c0,-0.38202 0.10642,-0.67308 0.31926,-0.87319c0.21466,-0.2001 0.51754,-0.30016 0.90866,-0.30016c0.31835,0 0.57485,0.06367 0.76949,0.19101c0.19647,0.12552 0.37383,0.33199 0.5321,0.61942l2.75053,4.96078l2.75326,-4.96078c0.16736,-0.28742 0.34655,-0.4939 0.53755,-0.61942c0.19101,-0.12734 0.44933,-0.19101 0.77495,-0.19101c0.36383,0 0.64761,0.10005 0.85136,0.30016c0.20556,0.2001 0.30834,0.49117 0.30834,0.87319v7.75498c0,0.37292 -0.09823,0.66217 -0.2947,0.86773c-0.19465,0.20374 -0.48298,0.30561 -0.865,0.30561c-0.37292,0 -0.65944,-0.10187 -0.85954,-0.30561c-0.2001,-0.20556 -0.30016,-0.49481 -0.30016,-0.86773v-4.30316l-1.95648,3.40815c-0.12916,0.20556 -0.2665,0.36019 -0.41203,0.46388c-0.14371,0.10187 -0.33654,0.15281 -0.57849,0.15281c-0.23285,0 -0.42386,-0.05094 -0.57303,-0.15281c-0.14917,-0.10369 -0.28379,-0.25832 -0.40385,-0.46388l-1.94284,-3.35085v4.24586c0,0.37292 -0.09823,0.66217 -0.2947,0.86773c-0.19465,0.20374 -0.48298,0.30561 -0.865,0.30561zM265.00555,185.07812c-0.99507,0 -1.86825,-0.21193 -2.61956,-0.63579c-0.74948,-0.42386 -1.33343,-1.0169 -1.75183,-1.77912c-0.4184,-0.76404 -0.6276,-1.65359 -0.6276,-2.66867c0,-1.02599 0.20647,-1.91828 0.61942,-2.67686c0.41476,-0.75858 0.99962,-1.34707 1.75456,-1.76547c0.75494,-0.42022 1.62995,-0.63033 2.62501,-0.63033c0.99689,0 1.87007,0.21011 2.61956,0.63033c0.7513,0.4184 1.33616,1.00689 1.75456,1.76547c0.4184,0.75858 0.6276,1.65087 0.6276,2.67686c0,1.01508 -0.2092,1.90463 -0.6276,2.66867c-0.4184,0.76222 -1.00325,1.35526 -1.75456,1.77912c-0.74948,0.42386 -1.62267,0.63579 -2.61956,0.63579zM265.00555,182.9279c0.72765,0 1.29886,-0.25832 1.71363,-0.77495c0.41476,-0.51663 0.62214,-1.2361 0.62214,-2.1584c0,-0.9223 -0.20556,-1.63904 -0.61669,-2.15022c-0.40931,-0.513 -0.98233,-0.76949 -1.71908,-0.76949c-0.73493,0 -1.30796,0.2565 -1.71908,0.76949c-0.40931,0.51118 -0.61396,1.22792 -0.61396,2.15022c0,0.9223 0.20465,1.64177 0.61396,2.1584c0.41112,0.51663 0.98415,0.77495 1.71908,0.77495zM275.56989,185.05083c-0.35473,0 -0.64216,-0.07458 -0.86227,-0.22375c-0.2183,-0.14917 -0.40112,-0.38657 -0.54847,-0.71219l-3.38359,-7.46028c-0.14735,-0.32563 -0.19374,-0.61851 -0.13916,-0.87864c0.05639,-0.26196 0.18646,-0.46479 0.3902,-0.6085c0.20556,-0.14553 0.46206,-0.2183 0.76949,-0.2183c0.37292,0 0.65671,0.08459 0.85136,0.25377c0.19647,0.16736 0.36474,0.41385 0.50481,0.73948l2.45857,5.70026l2.45856,-5.71391c0.14007,-0.32563 0.30743,-0.5703 0.50208,-0.73402c0.19647,-0.16372 0.47207,-0.24558 0.8268,-0.24558c0.28742,0 0.52846,0.07458 0.72311,0.22375c0.19647,0.14917 0.32017,0.352 0.3711,0.6085c0.05275,0.2565 0.00455,0.54756 -0.14462,0.87319l-3.39451,7.46028c-0.14007,0.32563 -0.32017,0.56302 -0.54028,0.71219c-0.2183,0.14917 -0.49935,0.22375 -0.84317,0.22375zM282.97296,184.92531c-0.8932,0 -1.33979,-0.44205 -1.33979,-1.32615v-7.19559c0,-0.88592 0.4466,-1.32888 1.33979,-1.32888h4.73703c0.67126,0 1.00689,0.32653 1.00689,0.9796c0,0.66944 -0.33563,1.00416 -1.00689,1.00416h-3.61826v1.87462h3.30992c0.67126,0 1.00689,0.33017 1.00689,0.99052c0,0.66217 -0.33563,0.99325 -1.00689,0.99325h-3.30992v2.0247h3.61826c0.67126,0 1.00689,0.33017 1.00689,0.99052c0,0.66217 -0.33563,0.99325 -1.00689,0.99325z" fill="#ffffff" fill-rule="nonzero" stroke-width="1" stroke-linecap="square"/></g></g></svg>