<svg version="1.1" xmlns="http://www.w3.org/2000/svg" xmlns:xlink="http://www.w3.org/1999/xlink" width="60.75414" height="64.97171" viewBox="0,0,60.75414,64.97171"><defs><linearGradient x1="230.67582" y1="202.36665" x2="230.67582" y2="210.58826" gradientUnits="userSpaceOnUse" id="color-1"><stop offset="0" stop-color="#ffaa21"/><stop offset="1" stop-color="#ff8c14"/></linearGradient><linearGradient x1="230.67582" y1="202.36665" x2="230.67582" y2="210.58826" gradientUnits="userSpaceOnUse" id="color-2"><stop offset="0" stop-color="#ffaa21"/><stop offset="1" stop-color="#ff8c14"/></linearGradient><linearGradient x1="230.67583" y1="202.36665" x2="230.67583" y2="210.58826" gradientUnits="userSpaceOnUse" id="color-3"><stop offset="0" stop-color="#ffaa21"/><stop offset="1" stop-color="#ff8c14"/></linearGradient></defs><g transform="translate(-209.62293,-149.80508)"><g data-paper-data="{&quot;isPaintingLayer&quot;:true}" stroke-miterlimit="10" stroke-dasharray="" stroke-dashoffset="0" style="mix-blend-mode: normal"><g fill-rule="nonzero" stroke-linecap="butt" stroke-linejoin="miter"><path d="M243.509,168.04227c0,-1.89735 1.53814,-3.43552 3.43552,-3.43552c1.89735,0 3.43552,1.53814 3.43552,3.43552c0,1.89735 -1.53814,3.43552 -3.43552,3.43552c-1.89735,0 -3.43552,-1.53814 -3.43552,-3.43552z" fill="#ffa3a3" stroke="none" stroke-width="1.5"/><path d="M221.53601,175.05645c0,-10.11938 8.20337,-18.32275 18.32275,-18.32275c10.11938,0 18.32275,8.20337 18.32275,18.32275c0,10.11938 -8.20337,18.32275 -18.32275,18.32275c-10.11938,0 -18.32275,-8.20337 -18.32275,-18.32275z" fill="#5559c7" stroke="#000000" stroke-width="1.5"/><path d="M224.47052,174.34073c0,-8.85447 7.04977,-16.0324 15.74613,-16.0324c8.69635,0 15.74613,7.17794 15.74613,16.0324c0,8.85447 -7.04977,16.0324 -15.74613,16.0324c-8.69635,0 -15.74613,-7.17794 -15.74613,-16.0324z" fill="#5b8ec7" stroke="none" stroke-width="1.5"/><path d="M232.0567,171.76237c0,-6.08745 4.93484,-11.0223 11.0223,-11.0223c6.08745,0 11.0223,4.93484 11.0223,11.0223c0,6.08745 -4.93484,11.0223 -11.0223,11.0223c-6.08745,0 -11.0223,-4.93484 -11.0223,-11.0223z" fill="#6aa4e6" stroke="none" stroke-width="1.5"/><g stroke="#ab671a" stroke-width="0"><path d="M225.96401,183.73834l14.34707,-4.06297l4.24278,4.24279z" data-paper-data="{&quot;index&quot;:null}" fill="#39e2e6"/><path d="M253.4698,166.21266l-13.36238,3.87772l-3.97486,-4.02845z" fill="#39e2e6"/><path d="M236.05206,166.02209l13.23396,13.23396l-4.7855,4.7855l-13.23397,-13.23396z" fill="#39c0e6"/></g></g><path d="M244.07343,169.89059c0,-1.97048 1.59742,-3.56793 3.56793,-3.56793c1.97048,0 3.56793,1.59742 3.56793,3.56793c0,1.97048 -1.59742,3.56793 -3.56793,3.56793c-1.97048,0 -3.56793,-1.59742 -3.56793,-3.56793z" fill="#ffa3a3" fill-rule="nonzero" stroke="none" stroke-width="1.5" stroke-linecap="butt" stroke-linejoin="miter"/><g fill="#000000" fill-rule="evenodd" stroke="none" stroke-width="1" stroke-linecap="round" stroke-linejoin="round"><path d="M215.47203,149.9988c6.59439,0.00656 33.43594,0.03324 47.00157,0.04672c4.79288,0.00476 7.91594,3.09165 7.90343,6.14998c-0.0285,6.96813 -0.14338,35.06052 -0.19427,47.50306c-0.01502,3.67263 -2.47757,5.98569 -6.36553,5.99187c-13.18851,0.02097 -42.8874,0.06818 -49.35265,0.07846c-2.43679,0.00387 -4.71814,-2.66254 -4.71707,-5.40581c0.00268,-6.8812 0.01442,-36.93038 0.01919,-49.16203c0.00126,-3.2222 2.82972,-5.20512 5.70533,-5.20226z" data-paper-data="{&quot;origRot&quot;:0,&quot;index&quot;:null}" opacity="0.42445"/><path d="M215.34746,149.80508c6.59439,0.00655 33.43594,0.03324 47.00157,0.04673c4.79287,0.00476 7.91594,3.09165 7.90343,6.14998c-0.0285,6.96812 -0.14338,35.06052 -0.19427,47.50306c-0.01502,3.67264 -2.47757,5.98569 -6.36554,5.99187c-13.18851,0.02096 -42.88739,0.06818 -49.35265,0.07846c-2.43679,0.00387 -4.71814,-2.66254 -4.71707,-5.40581c0.00269,-6.8812 0.01442,-36.93038 0.01919,-49.16202c0.00126,-3.22221 2.82972,-5.20513 5.70533,-5.20227z" data-paper-data="{&quot;origRot&quot;:0,&quot;index&quot;:null}" opacity="0.42445"/><path d="M215.41551,149.99274c6.59439,0.0066 33.43594,0.03348 47.00157,0.04706c4.79287,0.0048 7.91594,3.11399 7.90343,6.19444c-0.0285,7.0185 -0.14338,35.31396 -0.19427,47.84645c-0.01502,3.69918 -2.47757,6.02896 -6.36554,6.03519c-13.18851,0.02112 -42.8874,0.06867 -49.35265,0.07903c-2.43679,0.0039 -4.71814,-2.68179 -4.71707,-5.44489c0.00269,-6.93095 0.01442,-37.19735 0.01919,-49.51741c0.00126,-3.2455 2.82972,-5.24275 5.70533,-5.23987z" data-paper-data="{&quot;origRot&quot;:0,&quot;index&quot;:null}" opacity="0.42445"/></g><text transform="translate(227.22207,185.16718) scale(0.625,0.625)" font-size="40" xml:space="preserve" fill="#9966ff" fill-rule="nonzero" stroke="none" stroke-width="1" stroke-linecap="butt" stroke-linejoin="miter" stroke-miterlimit="10" stroke-dasharray="" stroke-dashoffset="0" font-family="Sans Serif" font-weight="normal" text-anchor="start" style="mix-blend-mode: normal"><tspan x="0" dy="0">🔒</tspan></text><path d="M216.22312,206.38477c0.08847,-4.6005 4.04058,-8.05913 7.98013,-8.05913c5.79891,0 22.44949,0 32.71065,0c4.9794,0 8.13815,3.24293 8.13815,7.90112c0,4.6582 -3.15609,8.5332 -8.13815,8.5332c-10.36204,0 -27.25579,0 -33.0267,0c-3.82167,0 -7.75257,-3.7747 -7.66408,-8.3752z" fill="#e63c3c" fill-rule="nonzero" stroke="none" stroke-width="0.5" stroke-linecap="butt" stroke-linejoin="miter"/><text transform="translate(240.01647,210.7824) scale(0.31367,0.31367)" font-size="40" xml:space="preserve" fill="#ffffff" fill-rule="nonzero" stroke="none" stroke-width="1" stroke-linecap="butt" stroke-linejoin="miter" stroke-miterlimit="10" stroke-dasharray="" stroke-dashoffset="0" font-family="Sans Serif" font-weight="normal" text-anchor="start" style="mix-blend-mode: normal"><tspan x="0" dy="0">60</tspan></text><g fill-rule="evenodd" stroke-linecap="butt" stroke-linejoin="round"><path d="M226.35052,205.50702l2.94421,-0.67505l1.38109,-2.46532l1.60611,2.60034l2.71918,0.54004l-2.04313,2.30089l0.39102,2.78034l-2.62819,-0.90577l-2.71819,0.90577l0.43602,-3.00537z" fill="url(#color-1)" stroke="url(#color-2)" stroke-width="6.5"/><path d="M226.35053,205.50702l2.94421,-0.67505l1.38109,-2.46533l1.60611,2.60034l2.71919,0.54004l-2.04314,2.30089l0.39102,2.78034l-2.62818,-0.90577l-2.71818,0.90577l0.43602,-3.00537z" fill="url(#color-3)" stroke="#fff0a6" stroke-width="4"/><path d="M227.18315,205.79468l2.38209,-0.54618l1.1174,-1.99463l1.29948,2.10387l2.20004,0.43694l-1.65306,1.86159l0.31636,2.24952l-2.1264,-0.73285l-2.19922,0.73285l0.35278,-2.43158z" fill="#f2cc41" stroke="#f2cc41" stroke-width="2.5"/></g></g></g></svg>