<svg version="1.1" xmlns="http://www.w3.org/2000/svg" xmlns:xlink="http://www.w3.org/1999/xlink" width="486.99512" height="366.75" viewBox="0,0,486.99512,366.75"><defs><radialGradient cx="245.59484" cy="178.75" r="357.10247" gradientUnits="userSpaceOnUse" id="color-1"><stop offset="0" stop-color="#071f57"/><stop offset="1" stop-color="#090f3e"/></radialGradient><linearGradient x1="241.24143" y1="246.75" x2="241.24143" y2="360.75" gradientUnits="userSpaceOnUse" id="color-2"><stop offset="0" stop-color="#050b2c" stop-opacity="0"/><stop offset="1" stop-color="#050b2c"/></linearGradient><linearGradient x1="239.27933" y1="111.75" x2="239.27933" y2="-2.25" gradientUnits="userSpaceOnUse" id="color-3"><stop offset="0" stop-color="#050b2c" stop-opacity="0"/><stop offset="1" stop-color="#050b2c"/></linearGradient></defs><g transform="translate(3.92468,3.375)"><g data-paper-data="{&quot;isPaintingLayer&quot;:true}" fill-rule="nonzero" stroke-linecap="butt" stroke-linejoin="miter" stroke-miterlimit="10" stroke-dasharray="" stroke-dashoffset="0" style="mix-blend-mode: normal"><path d="M-1.62995,362.25v-364h484.63907v364z" fill="url(#color-1)" stroke="none" stroke-width="NaN"/><path d="M-0.58758,360.75v-114h483.65802v114z" fill="url(#color-2)" stroke="none" stroke-width="0"/><path d="M481.10834,-2.25v114h-483.65802v-114z" data-paper-data="{&quot;index&quot;:null}" fill="url(#color-3)" stroke="none" stroke-width="0"/><path d="M-3.67468,-0.875c0,-1.38071 1.11929,-2.5 2.5,-2.5c1.38071,0 2.5,1.11929 2.5,2.5c0,1.38071 -1.11929,2.5 -2.5,2.5c-1.38071,0 -2.5,-1.11929 -2.5,-2.5z" fill="#000000" stroke="none" stroke-width="0.5"/><path d="M-3.92468,360.875c0,-1.38071 1.11929,-2.5 2.5,-2.5c1.38071,0 2.5,1.11929 2.5,2.5c0,1.38071 -1.11929,2.5 -2.5,2.5c-1.38071,0 -2.5,-1.11929 -2.5,-2.5z" fill="#000000" stroke="none" stroke-width="0.5"/><g stroke="#000000" stroke-width="0"><g><path d="M279.59788,136.375c0,-5.79899 4.70101,-10.5 10.5,-10.5c5.79899,0 10.5,4.70101 10.5,10.5c0,5.79899 -4.70101,10.5 -10.5,10.5c-5.79899,0 -10.5,-4.70101 -10.5,-10.5z" fill="#153267"/><path d="M267.59788,141.375c0,-5.79899 4.70101,-10.5 10.5,-10.5c5.79899,0 10.5,4.70101 10.5,10.5c0,5.79899 -4.70101,10.5 -10.5,10.5c-5.79899,0 -10.5,-4.70101 -10.5,-10.5z" fill="#153267"/><path d="M286.09788,130.375c0,-5.79899 4.70101,-10.5 10.5,-10.5c5.79899,0 10.5,4.70101 10.5,10.5c0,5.79899 -4.70101,10.5 -10.5,10.5c-5.79899,0 -10.5,-4.70101 -10.5,-10.5z" fill="#153267"/><path d="M316.59788,145.125c0,-4.2802 3.46979,-7.75 7.75,-7.75c4.28021,0 7.75,3.4698 7.75,7.75c0,4.2802 -3.46979,7.75 -7.75,7.75c-4.28021,0 -7.75,-3.4698 -7.75,-7.75z" fill="#153267"/><path d="M295.59788,130.625c0,-4.83249 3.41751,-5.25 8.25,-5.25c4.83249,0 14.75,8.91751 14.75,13.75c0,4.83249 -5.91751,4.25 -10.75,4.25c-4.83249,0 -12.25,-7.91751 -12.25,-12.75z" fill="#153267"/><path d="M279.91038,146.375c0,-10.0792 8.1708,-18.25 18.25,-18.25c10.0792,0 18.25,8.1708 18.25,18.25c0,10.0792 -8.1708,18.25 -18.25,18.25c-10.0792,0 -18.25,-8.1708 -18.25,-18.25z" fill="#0c295d"/><path d="M267.09788,152.875c0,-5.79899 4.70101,-10.5 10.5,-10.5c5.79899,0 10.5,4.70101 10.5,10.5c0,5.79899 -4.70101,10.5 -10.5,10.5c-5.79899,0 -10.5,-4.70101 -10.5,-10.5z" fill="#0c295d"/><path d="M255.59788,147.875c0,-4.14213 3.35787,-7.5 7.5,-7.5c4.14213,0 7.5,3.35787 7.5,7.5c0,4.14213 -3.35787,7.5 -7.5,7.5c-4.14213,0 -7.5,-3.35787 -7.5,-7.5z" fill="#153267"/><path d="M304.59788,145.125c0,-5.66091 4.58909,-10.25 10.25,-10.25c5.66091,0 10.25,4.58909 10.25,10.25c0,5.66091 -4.58909,10.25 -10.25,10.25c-5.66091,0 -10.25,-4.58909 -10.25,-10.25z" fill="#153267"/></g><g fill="#0c295d"><path d="M279.19788,139.875c0,-5.79899 4.70101,-10.5 10.5,-10.5c5.79899,0 10.5,4.70101 10.5,10.5c0,5.79899 -4.70101,10.5 -10.5,10.5c-5.79899,0 -10.5,-4.70101 -10.5,-10.5z"/><path d="M267.19788,144.875c0,-5.79899 4.70101,-10.5 10.5,-10.5c5.79899,0 10.5,4.70101 10.5,10.5c0,5.79899 -4.70101,10.5 -10.5,10.5c-5.79899,0 -10.5,-4.70101 -10.5,-10.5z"/><path d="M285.69788,133.875c0,-5.79899 4.70101,-10.5 10.5,-10.5c5.79899,0 10.5,4.70101 10.5,10.5c0,5.79899 -4.70101,10.5 -10.5,10.5c-5.79899,0 -10.5,-4.70101 -10.5,-10.5z"/><path d="M316.19788,148.625c0,-4.2802 3.46979,-7.75 7.75,-7.75c4.28021,0 7.75,3.4698 7.75,7.75c0,4.2802 -3.46979,7.75 -7.75,7.75c-4.28021,0 -7.75,-3.4698 -7.75,-7.75z"/><path d="M295.19788,134.125c0,-4.83249 3.41751,-5.25 8.25,-5.25c4.83249,0 14.75,8.91751 14.75,13.75c0,4.83249 -5.91751,4.25 -10.75,4.25c-4.83249,0 -12.25,-7.91751 -12.25,-12.75z"/><path d="M279.51038,149.875c0,-10.0792 8.1708,-18.25 18.25,-18.25c10.0792,0 18.25,8.1708 18.25,18.25c0,10.0792 -8.1708,15.25 -18.25,15.25c-10.0792,0 -18.25,-5.1708 -18.25,-15.25z"/><path d="M267.69788,156.375c0,-5.79899 4.70101,-10.5 10.5,-10.5c5.79899,0 10.5,4.70101 10.5,10.5c0,5.79899 -3.70101,7.5 -9.5,7.5c-5.79899,0 -11.5,-1.70101 -11.5,-7.5z"/><path d="M255.19788,151.375c0,-4.14214 3.35786,-7.5 7.5,-7.5c4.14214,0 7.5,3.35786 7.5,7.5c0,4.14214 -3.35786,7.5 -7.5,7.5c-4.14214,0 -7.5,-3.35786 -7.5,-7.5z"/><path d="M304.19788,148.625c0,-5.66091 4.58909,-10.25 10.25,-10.25c5.66091,0 10.25,4.58909 10.25,10.25c0,5.66091 -4.58909,10.25 -10.25,10.25c-5.66091,0 -10.25,-4.58909 -10.25,-10.25z"/></g></g><path d="M477.69788,-0.625c0,-1.38071 1.11929,-2.5 2.5,-2.5c1.38071,0 2.5,1.11929 2.5,2.5c0,1.38071 -1.11929,2.5 -2.5,2.5c-1.38071,0 -2.5,-1.11929 -2.5,-2.5z" fill="#000000" stroke="none" stroke-width="0.5"/><path d="M477.69788,360.625c0,-1.38071 1.11929,-2.5 2.5,-2.5c1.38071,0 2.5,1.11929 2.5,2.5c0,1.38071 -1.11929,2.5 -2.5,2.5c-1.38071,0 -2.5,-1.11929 -2.5,-2.5z" fill="#000000" stroke="none" stroke-width="0.5"/><g stroke="#000000" stroke-width="0"><path d="M174.99632,110.21371c0,-3.93208 3.18759,-7.11967 7.11967,-7.11967c3.93208,0 7.11967,3.18759 7.11967,7.11967c0,3.93208 -3.18759,7.11967 -7.11967,7.11967c-3.93208,0 -7.11967,-3.18759 -7.11967,-7.11967z" fill="#153267"/><path d="M162.24832,112.88196c0,-7.00104 5.67546,-12.67649 12.67649,-12.67649c7.00104,0 12.67649,5.67546 12.67649,12.67649c0,7.00104 -5.67546,12.67649 -12.67649,12.67649c-7.00104,0 -12.67649,-5.67546 -12.67649,-12.67649z" fill="#153267"/><path d="M149.73154,115.41371c0,-2.97304 2.41012,-5.38317 5.38317,-5.38317c2.97304,0 5.38317,2.41013 5.38317,5.38317c0,2.97304 -2.41012,5.38317 -5.38317,5.38317c-2.97304,0 -5.38317,-2.41013 -5.38317,-5.38317z" fill="#153267"/><path d="M157.83126,111.53594c0,-4.02799 3.26533,-7.29332 7.29332,-7.29332c4.02799,0 7.29332,3.26533 7.29332,7.29332c0,4.02799 -3.26533,7.29332 -7.29332,7.29332c-4.02799,0 -7.29332,-3.26533 -7.29332,-7.29332z" fill="#153267"/><path d="M166.34618,104.31832c0,-3.61378 3.26533,-6.54332 7.29332,-6.54332c4.02799,0 7.29332,2.92955 7.29332,6.54332c0,3.61378 -3.26533,6.54332 -7.29332,6.54332c-4.02799,0 -7.29332,-2.92954 -7.29332,-6.54332z" fill="#153267"/><path d="M184.93154,115.01371c0,-2.97304 2.41012,-5.38317 5.38317,-5.38317c2.97304,0 5.38317,2.41013 5.38317,5.38317c0,2.97304 -2.41012,5.38317 -5.38317,5.38317c-2.97304,0 -5.38317,-2.41013 -5.38317,-5.38317z" fill="#153267"/><path d="M152.94873,119.79688c0,-4.02799 3.26533,-7.29332 7.29332,-7.29332c4.02799,0 7.29332,3.26533 7.29332,7.29332c0,4.02799 -2.26533,5.29332 -6.29332,5.29332c-4.02799,0 -8.29332,-1.26533 -8.29332,-5.29332z" fill="#0c295d"/><path d="M157.18581,113.89276c0,-4.02799 3.26533,-7.29332 7.29332,-7.29332c4.02799,0 7.29332,3.26533 7.29332,7.29332c0,4.02799 -3.26533,7.29332 -7.29332,7.29332c-4.02799,0 -7.29332,-3.26533 -7.29332,-7.29332z" fill="#0c295d"/><path d="M166.36833,107.59943c0,-4.02799 3.26533,-7.29332 7.29332,-7.29332c4.02799,0 7.29332,3.26533 7.29332,7.29332c0,4.02799 -3.26533,7.29332 -7.29332,7.29332c-4.02799,0 -7.29332,-3.26533 -7.29332,-7.29332z" fill="#0c295d"/><path d="M184.5537,117.34482c0,-2.97304 2.41012,-5.38317 5.38317,-5.38317c2.97304,0 5.38317,2.41013 5.38317,5.38317c0,2.97304 -2.41012,5.38317 -5.38317,5.38317c-2.97304,0 -5.38317,-2.41013 -5.38317,-5.38317z" fill="#0c295d"/><path d="M161.57048,117.71307c0,-7.00104 5.67546,-12.67649 12.67649,-12.67649c7.00104,0 12.67649,5.67546 12.67649,12.67649c0,7.00104 -6.67546,8.67649 -13.67649,8.67649c-7.00104,0 -11.67649,-1.67546 -11.67649,-8.67649z" fill="#0c295d"/><path d="M149.19788,117.19212c0,-2.58942 2.09914,-4.68857 4.68857,-4.68857c2.58942,0 4.68857,2.09914 4.68857,4.68857c0,1.44899 -0.65731,2.74447 -1.69002,3.60451c-0.81279,0.67689 -1.85812,1.08406 -2.99855,1.08406c-2.58942,0 -4.68857,-2.09914 -4.68857,-4.68857z" fill="#0c295d"/><path d="M176.21848,116.84482c0,-3.93208 3.18759,-7.11967 7.11967,-7.11967c3.93208,0 7.11967,3.18759 7.11967,7.11967c0,3.93208 -3.18759,7.11967 -7.11967,7.11967c-3.93208,0 -7.11967,-3.18759 -7.11967,-7.11967z" fill="#0c295d"/><path d="M162.64832,114.68196c0,-7.00104 5.67546,-12.67649 12.67649,-12.67649c7.00104,0 12.67649,5.67546 12.67649,12.67649c0,7.00104 -5.67546,9.67649 -12.67649,9.67649c-4.23178,0 -7.97925,-0.97751 -10.28176,-3.29693c-1.50675,-1.51782 -2.39473,-3.6103 -2.39473,-6.37956z" fill="#0c295d"/></g><g stroke="#000000" stroke-width="0"><g><path d="M332.61042,297.98118c0,-8.88375 7.2017,-16.08545 16.08545,-16.08545c8.88375,0 16.08545,7.2017 16.08545,16.08545c0,8.88375 -7.2017,16.08545 -16.08545,16.08545c-8.88375,0 -16.08545,-7.2017 -16.08545,-16.08545z" fill="#153267"/><path d="M314.22705,305.64091c0,-8.88375 7.2017,-16.08545 16.08545,-16.08545c8.88375,0 16.08545,7.2017 16.08545,16.08545c0,8.88375 -7.2017,16.08545 -16.08545,16.08545c-8.88375,0 -16.08545,-7.2017 -16.08545,-16.08545z" fill="#153267"/><path d="M342.56808,288.7895c0,-8.88375 7.2017,-16.08545 16.08545,-16.08545c8.88375,0 16.08545,7.2017 16.08545,16.08545c0,8.88375 -7.2017,16.08545 -16.08545,16.08545c-8.88375,0 -16.08545,-7.2017 -16.08545,-16.08545z" fill="#153267"/><path d="M389.29246,311.38572c0,-6.55704 5.31553,-11.87259 11.87259,-11.87259c6.55706,0 11.87259,5.31555 11.87259,11.87259c0,6.55704 -5.31553,11.87259 -11.87259,11.87259c-6.55706,0 -11.87259,-5.31555 -11.87259,-11.87259z" fill="#153267"/><path d="M357.12157,289.17248c0,-7.40312 5.23544,-8.04272 12.63856,-8.04272c7.40312,0 22.59622,13.66115 22.59622,21.06427c0,7.40312 -9.06531,6.51078 -16.46843,6.51078c-7.40312,0 -18.76635,-12.12921 -18.76635,-19.53233z" fill="#153267"/><path d="M333.08915,313.30065c0,-15.4408 12.51723,-27.95804 27.95804,-27.95804c15.4408,0 27.95804,12.51723 27.95804,27.95804c0,15.4408 -12.51723,27.95804 -27.95804,27.95804c-15.4408,0 -27.95804,-12.51723 -27.95804,-27.95804z" fill="#0c295d"/><path d="M313.46108,323.25831c0,-8.88375 7.2017,-16.08545 16.08545,-16.08545c8.88375,0 16.08545,7.2017 16.08545,16.08545c0,8.88375 -7.2017,16.08545 -16.08545,16.08545c-8.88375,0 -16.08545,-7.2017 -16.08545,-16.08545z" fill="#0c295d"/><path d="M295.84369,315.59857c0,-6.34552 5.14408,-11.4896 11.4896,-11.4896c6.34552,0 11.4896,5.14408 11.4896,11.4896c0,6.34552 -5.14408,11.4896 -11.4896,11.4896c-6.34552,0 -11.4896,-5.14408 -11.4896,-11.4896z" fill="#153267"/><path d="M370.9091,311.38572c0,-8.67221 7.03024,-15.70246 15.70246,-15.70246c8.67221,0 15.70246,7.03024 15.70246,15.70246c0,8.67221 -7.03024,15.70246 -15.70246,15.70246c-8.67221,0 -15.70246,-7.03024 -15.70246,-15.70246z" fill="#153267"/></g><g fill="#0c295d"><path d="M331.99764,303.34299c0,-8.88375 7.2017,-16.08545 16.08545,-16.08545c8.88375,0 16.08545,7.2017 16.08545,16.08545c0,8.88375 -7.2017,16.08545 -16.08545,16.08545c-8.88375,0 -16.08545,-7.2017 -16.08545,-16.08545z"/><path d="M313.61428,311.00273c0,-8.88375 7.2017,-16.08545 16.08545,-16.08545c8.88375,0 16.08545,7.2017 16.08545,16.08545c0,8.88375 -7.2017,16.08545 -16.08545,16.08545c-8.88375,0 -16.08545,-7.2017 -16.08545,-16.08545z"/><path d="M341.9553,294.15131c0,-8.88375 7.2017,-16.08545 16.08545,-16.08545c8.88375,0 16.08545,7.2017 16.08545,16.08545c0,8.88375 -7.2017,16.08545 -16.08545,16.08545c-8.88375,0 -16.08545,-7.2017 -16.08545,-16.08545z"/><path d="M388.67969,316.74753c0,-6.55704 5.31553,-11.87259 11.87259,-11.87259c6.55706,0 11.87259,5.31555 11.87259,11.87259c0,6.55704 -5.31553,11.87259 -11.87259,11.87259c-6.55706,0 -11.87259,-5.31555 -11.87259,-11.87259z"/><path d="M356.5088,294.5343c0,-7.40312 5.23544,-8.04272 12.63856,-8.04272c7.40312,0 22.59622,13.66115 22.59622,21.06427c0,7.40312 -9.06531,6.51078 -16.46843,6.51078c-7.40312,0 -18.76635,-12.12921 -18.76635,-19.53233z"/><path d="M332.47638,317.66246c0,-15.4408 12.51723,-27.95804 27.95804,-27.95804c15.4408,0 27.95804,12.51723 27.95804,27.95804c0,15.4408 -12.51723,23.95804 -27.95804,23.95804c-15.4408,0 -27.95804,-8.51723 -27.95804,-23.95804z"/><path d="M312.8483,328.62012c0,-8.88375 7.2017,-16.08545 16.08545,-16.08545c8.88375,0 16.08545,7.2017 16.08545,16.08545c0,8.88375 -6.2017,10.08545 -15.08545,10.08545c-8.88375,0 -17.08545,-1.2017 -17.08545,-10.08545z"/><path d="M295.23091,320.96039c0,-6.34554 5.14406,-11.4896 11.4896,-11.4896c6.34554,0 11.4896,5.14406 11.4896,11.4896c0,6.34554 -5.14406,11.4896 -11.4896,11.4896c-6.34554,0 -11.4896,-5.14406 -11.4896,-11.4896z"/><path d="M370.29632,316.74753c0,-8.67221 7.03024,-15.70246 15.70246,-15.70246c8.67221,0 15.70246,7.03024 15.70246,15.70246c0,8.67221 -7.03024,15.70246 -15.70246,15.70246c-7.09229,0 -31.08639,-0.702 -33.03503,-7.15876c-0.43409,-1.43835 17.33257,-6.96378 17.33257,-8.5437z"/></g></g><g stroke="#000000" stroke-width="0"><path d="M284.42556,318.79058c0,-5.28338 4.28304,-9.56642 9.56642,-9.56642c5.28338,0 9.56642,4.28304 9.56642,9.56642c0,5.28338 -4.28304,9.56642 -9.56642,9.56642c-5.28338,0 -9.56642,-4.28304 -9.56642,-9.56642z" fill="#153267"/><path d="M267.29657,322.3758c0,-9.40702 7.62589,-17.0329 17.0329,-17.0329c9.40702,0 17.0329,7.62589 17.0329,17.0329c0,9.40702 -7.62589,17.0329 -17.0329,17.0329c-9.40702,0 -17.0329,-7.62589 -17.0329,-17.0329z" fill="#153267"/><path d="M250.47827,325.77761c0,-3.99476 3.23838,-7.23315 7.23315,-7.23315c3.99476,0 7.23315,3.2384 7.23315,7.23315c0,3.99476 -3.23838,7.23315 -7.23315,7.23315c-3.99476,0 -7.23315,-3.2384 -7.23315,-7.23315z" fill="#153267"/><path d="M261.36155,320.56721c0,-5.41225 4.38749,-9.79974 9.79974,-9.79974c5.41225,0 9.79974,4.38749 9.79974,9.79974c0,5.41225 -4.38749,9.79974 -9.79974,9.79974c-5.41225,0 -9.79974,-4.38749 -9.79974,-9.79974z" fill="#153267"/><path d="M272.80271,310.86918c0,-4.85569 4.38749,-8.792 9.79974,-8.792c5.41225,0 9.79974,3.93632 9.79974,8.792c0,4.85569 -4.38749,8.792 -9.79974,8.792c-5.41225,0 -9.79974,-3.93631 -9.79974,-8.792z" fill="#153267"/><path d="M297.77512,325.24015c0,-3.99476 3.23838,-7.23315 7.23315,-7.23315c3.99476,0 7.23315,3.2384 7.23315,7.23315c0,3.99476 -3.23838,7.23315 -7.23315,7.23315c-3.99476,0 -7.23315,-3.2384 -7.23315,-7.23315z" fill="#153267"/><path d="M254.80108,331.66711c0,-5.41225 4.38749,-9.79974 9.79974,-9.79974c5.41225,0 9.79974,4.38749 9.79974,9.79974c0,5.41225 -3.38749,4.79974 -8.79974,4.79974c-5.41225,0 -10.79974,0.61251 -10.79974,-4.79974z" fill="#0c295d"/><path d="M260.49428,323.73397c0,-5.41225 4.38749,-9.79974 9.79974,-9.79974c5.41225,0 9.79974,4.38749 9.79974,9.79974c0,5.41225 -4.38749,9.79974 -9.79974,9.79974c-5.41225,0 -9.79974,-4.38749 -9.79974,-9.79974z" fill="#0c295d"/><path d="M272.83247,315.27788c0,-5.41225 4.38749,-9.79974 9.79974,-9.79974c5.41225,0 9.79974,4.38749 9.79974,9.79974c0,5.41225 -4.38749,9.79974 -9.79974,9.79974c-5.41225,0 -9.79974,-4.38749 -9.79974,-9.79974z" fill="#0c295d"/><path d="M297.26743,328.37237c0,-3.99476 3.23838,-7.23315 7.23315,-7.23315c3.99476,0 7.23315,3.2384 7.23315,7.23315c0,3.99476 -3.23838,7.23315 -7.23315,7.23315c-3.99476,0 -7.23315,-3.2384 -7.23315,-7.23315z" fill="#0c295d"/><path d="M266.38579,328.86717c0,-9.40702 7.62589,-17.0329 17.0329,-17.0329c9.40702,0 17.0329,7.62589 17.0329,17.0329c0,9.40702 -6.62589,11.0329 -16.0329,11.0329c-9.40702,0 -18.0329,-1.62589 -18.0329,-11.0329z" fill="#0c295d"/><path d="M249.76121,328.16719c0,-3.4793 2.82053,-6.29985 6.29985,-6.29985c3.4793,0 6.29985,2.82053 6.29985,6.29985c0,3.4793 -2.82053,6.29985 -6.29985,6.29985c-3.4793,0 -6.29985,-2.82053 -6.29985,-6.29985z" fill="#0c295d"/><path d="M286.06772,327.70054c0,-5.28338 4.28304,-9.56642 9.56642,-9.56642c5.28338,0 9.56642,4.28304 9.56642,9.56642c0,5.28338 -4.28304,9.56642 -9.56642,9.56642c-5.28338,0 -9.56642,-4.28304 -9.56642,-9.56642z" fill="#0c295d"/><path d="M267.83404,324.79439c0,-9.40702 7.62589,-17.0329 17.0329,-17.0329c9.40702,0 17.0329,7.62589 17.0329,17.0329c0,9.40702 -8.62589,8.0329 -18.0329,8.0329c-9.40702,0 -16.0329,1.37411 -16.0329,-8.0329z" fill="#0c295d"/></g><g stroke="#000000" stroke-width="0"><path d="M82.39272,57.66266c0,-3.93208 3.18759,-7.11967 7.11967,-7.11967c3.93208,0 7.11967,3.18759 7.11967,7.11967c0,3.93208 -3.18759,7.11967 -7.11967,7.11967c-3.93208,0 -7.11967,-3.18759 -7.11967,-7.11967z" fill="#153267"/><path d="M69.64471,60.33091c0,-7.00104 5.67546,-12.67649 12.67649,-12.67649c7.00104,0 12.67649,5.67546 12.67649,12.67649c0,7.00104 -5.67546,12.67649 -12.67649,12.67649c-7.00104,0 -12.67649,-5.67546 -12.67649,-12.67649z" fill="#153267"/><path d="M57.12794,62.86266c0,-2.97304 2.41012,-5.38317 5.38317,-5.38317c2.97304,0 5.38317,2.41013 5.38317,5.38317c0,2.97304 -2.41012,5.38317 -5.38317,5.38317c-2.97304,0 -5.38317,-2.41013 -5.38317,-5.38317z" fill="#153267"/><path d="M65.22766,58.98489c0,-4.02799 3.26533,-7.29332 7.29332,-7.29332c4.02799,0 7.29332,3.26533 7.29332,7.29332c0,4.02799 -3.26533,7.29332 -7.29332,7.29332c-4.02799,0 -7.29332,-3.26533 -7.29332,-7.29332z" fill="#153267"/><path d="M73.74258,51.76727c0,-3.61378 3.26533,-6.54332 7.29332,-6.54332c4.02799,0 7.29332,2.92955 7.29332,6.54332c0,3.61378 -3.26533,6.54332 -7.29332,6.54332c-4.02799,0 -7.29332,-2.92954 -7.29332,-6.54332z" fill="#153267"/><path d="M92.32794,62.46266c0,-2.97304 2.41012,-5.38317 5.38317,-5.38317c2.97304,0 5.38317,2.41013 5.38317,5.38317c0,2.97304 -2.41012,5.38317 -5.38317,5.38317c-2.97304,0 -5.38317,-2.41013 -5.38317,-5.38317z" fill="#153267"/><path d="M60.34513,67.24583c0,-4.02799 3.26533,-7.29332 7.29332,-7.29332c4.02799,0 7.29332,3.26533 7.29332,7.29332c0,4.02799 -2.26533,5.29332 -6.29332,5.29332c-4.02799,0 -8.29332,-1.26533 -8.29332,-5.29332z" fill="#0c295d"/><path d="M64.58221,61.34171c0,-4.02799 3.26533,-7.29332 7.29332,-7.29332c4.02799,0 7.29332,3.26533 7.29332,7.29332c0,4.02799 -3.26533,7.29332 -7.29332,7.29332c-4.02799,0 -7.29332,-3.26533 -7.29332,-7.29332z" fill="#0c295d"/><path d="M73.76473,55.04838c0,-4.02799 3.26533,-7.29332 7.29332,-7.29332c4.02799,0 7.29332,3.26533 7.29332,7.29332c0,4.02799 -3.26533,7.29332 -7.29332,7.29332c-4.02799,0 -7.29332,-3.26533 -7.29332,-7.29332z" fill="#0c295d"/><path d="M91.9501,64.79377c0,-2.97304 2.41012,-5.38317 5.38317,-5.38317c2.97304,0 5.38317,2.41013 5.38317,5.38317c0,2.97304 -2.41012,5.38317 -5.38317,5.38317c-2.97304,0 -5.38317,-2.41013 -5.38317,-5.38317z" fill="#0c295d"/><path d="M68.96688,65.16202c0,-7.00104 5.67546,-12.67649 12.67649,-12.67649c7.00104,0 12.67649,5.67546 12.67649,12.67649c0,7.00104 -6.67546,8.67649 -13.67649,8.67649c-7.00104,0 -11.67649,-1.67546 -11.67649,-8.67649z" fill="#0c295d"/><path d="M56.59428,64.64107c0,-2.58942 2.09914,-4.68857 4.68857,-4.68857c2.58942,0 4.68857,2.09914 4.68857,4.68857c0,1.44899 -0.65731,2.74447 -1.69002,3.60451c-0.81279,0.67689 -1.85812,1.08406 -2.99855,1.08406c-2.58942,0 -4.68857,-2.09914 -4.68857,-4.68857z" fill="#0c295d"/><path d="M83.61488,64.29377c0,-3.93208 3.18759,-7.11967 7.11967,-7.11967c3.93208,0 7.11967,3.18759 7.11967,7.11967c0,3.93208 -3.18759,7.11967 -7.11967,7.11967c-3.93208,0 -7.11967,-3.18759 -7.11967,-7.11967z" fill="#0c295d"/><path d="M70.04472,62.13091c0,-7.00104 5.67546,-12.67649 12.67649,-12.67649c7.00104,0 12.67649,5.67546 12.67649,12.67649c0,7.00104 -5.67546,9.67649 -12.67649,9.67649c-4.23178,0 -7.97925,-0.97751 -10.28176,-3.29693c-1.50675,-1.51782 -2.39473,-3.6103 -2.39473,-6.37956z" fill="#0c295d"/></g><g stroke="#000000" stroke-width="0"><g><path d="M370.18346,37.7714c0,-5.79899 4.70101,-10.5 10.5,-10.5c5.79899,0 10.5,4.70101 10.5,10.5c0,5.79899 -4.70101,10.5 -10.5,10.5c-5.79899,0 -10.5,-4.70101 -10.5,-10.5z" fill="#153267"/><path d="M358.18346,42.7714c0,-5.79899 4.70101,-10.5 10.5,-10.5c5.79899,0 10.5,4.70101 10.5,10.5c0,5.79899 -4.70101,10.5 -10.5,10.5c-5.79899,0 -10.5,-4.70101 -10.5,-10.5z" fill="#153267"/><path d="M376.68346,31.7714c0,-5.79899 4.70101,-10.5 10.5,-10.5c5.79899,0 10.5,4.70101 10.5,10.5c0,5.79899 -4.70101,10.5 -10.5,10.5c-5.79899,0 -10.5,-4.70101 -10.5,-10.5z" fill="#153267"/><path d="M407.18346,46.5214c0,-4.2802 3.46979,-7.75 7.75,-7.75c4.28021,0 7.75,3.4698 7.75,7.75c0,4.2802 -3.46979,7.75 -7.75,7.75c-4.28021,0 -7.75,-3.4698 -7.75,-7.75z" fill="#153267"/><path d="M386.18346,32.0214c0,-4.83249 3.41751,-5.25 8.25,-5.25c4.83249,0 14.75,8.91751 14.75,13.75c0,4.83249 -5.91751,4.25 -10.75,4.25c-4.83249,0 -12.25,-7.91751 -12.25,-12.75z" fill="#153267"/><path d="M370.49596,47.7714c0,-10.0792 8.1708,-18.25 18.25,-18.25c10.0792,0 18.25,8.1708 18.25,18.25c0,10.0792 -8.1708,18.25 -18.25,18.25c-10.0792,0 -18.25,-8.1708 -18.25,-18.25z" fill="#0c295d"/><path d="M357.68346,54.2714c0,-5.79899 4.70101,-10.5 10.5,-10.5c5.79899,0 10.5,4.70101 10.5,10.5c0,5.79899 -4.70101,10.5 -10.5,10.5c-5.79899,0 -10.5,-4.70101 -10.5,-10.5z" fill="#0c295d"/><path d="M346.18346,49.2714c0,-4.14213 3.35787,-7.5 7.5,-7.5c4.14213,0 7.5,3.35787 7.5,7.5c0,4.14213 -3.35787,7.5 -7.5,7.5c-4.14213,0 -7.5,-3.35787 -7.5,-7.5z" fill="#153267"/><path d="M395.18346,46.5214c0,-5.66091 4.58909,-10.25 10.25,-10.25c5.66091,0 10.25,4.58909 10.25,10.25c0,5.66091 -4.58909,10.25 -10.25,10.25c-5.66091,0 -10.25,-4.58909 -10.25,-10.25z" fill="#153267"/></g><g fill="#0c295d"><path d="M369.78346,41.2714c0,-5.79899 4.70101,-10.5 10.5,-10.5c5.79899,0 10.5,4.70101 10.5,10.5c0,5.79899 -4.70101,10.5 -10.5,10.5c-5.79899,0 -10.5,-4.70101 -10.5,-10.5z"/><path d="M357.78346,46.2714c0,-5.79899 4.70101,-10.5 10.5,-10.5c5.79899,0 10.5,4.70101 10.5,10.5c0,5.79899 -4.70101,10.5 -10.5,10.5c-5.79899,0 -10.5,-4.70101 -10.5,-10.5z"/><path d="M376.28346,35.2714c0,-5.79899 4.70101,-10.5 10.5,-10.5c5.79899,0 10.5,4.70101 10.5,10.5c0,5.79899 -4.70101,10.5 -10.5,10.5c-5.79899,0 -10.5,-4.70101 -10.5,-10.5z"/><path d="M406.78346,50.0214c0,-4.2802 3.46979,-7.75 7.75,-7.75c4.28021,0 7.75,3.4698 7.75,7.75c0,4.2802 -3.46979,7.75 -7.75,7.75c-4.28021,0 -7.75,-3.4698 -7.75,-7.75z"/><path d="M385.78346,35.5214c0,-4.83249 3.41751,-5.25 8.25,-5.25c4.83249,0 14.75,8.91751 14.75,13.75c0,4.83249 -5.91751,4.25 -10.75,4.25c-4.83249,0 -12.25,-7.91751 -12.25,-12.75z"/><path d="M370.09596,51.2714c0,-10.0792 8.1708,-18.25 18.25,-18.25c10.0792,0 18.25,8.1708 18.25,18.25c0,10.0792 -8.1708,15.25 -18.25,15.25c-10.0792,0 -18.25,-5.1708 -18.25,-15.25z"/><path d="M358.28346,57.7714c0,-5.79899 4.70101,-10.5 10.5,-10.5c5.79899,0 10.5,4.70101 10.5,10.5c0,5.79899 -3.70101,7.5 -9.5,7.5c-5.79899,0 -11.5,-1.70101 -11.5,-7.5z"/><path d="M345.78346,52.7714c0,-4.14214 3.35786,-7.5 7.5,-7.5c4.14214,0 7.5,3.35786 7.5,7.5c0,4.14214 -3.35786,7.5 -7.5,7.5c-4.14214,0 -7.5,-3.35786 -7.5,-7.5z"/><path d="M394.78346,50.0214c0,-5.66091 4.58909,-10.25 10.25,-10.25c5.66091,0 10.25,4.58909 10.25,10.25c0,5.66091 -4.58909,10.25 -10.25,10.25c-5.66091,0 -10.25,-4.58909 -10.25,-10.25z"/></g></g><g stroke="#000000" stroke-width="0"><g><path d="M74.88317,281.51014c0,-5.79899 4.70101,-10.5 10.5,-10.5c5.79899,0 10.5,4.70101 10.5,10.5c0,5.79899 -4.70101,10.5 -10.5,10.5c-5.79899,0 -10.5,-4.70101 -10.5,-10.5z" fill="#153267"/><path d="M62.88317,286.51014c0,-5.79899 4.70101,-10.5 10.5,-10.5c5.79899,0 10.5,4.70101 10.5,10.5c0,5.79899 -4.70101,10.5 -10.5,10.5c-5.79899,0 -10.5,-4.70101 -10.5,-10.5z" fill="#153267"/><path d="M81.38317,275.51014c0,-5.79899 4.70101,-10.5 10.5,-10.5c5.79899,0 10.5,4.70101 10.5,10.5c0,5.79899 -4.70101,10.5 -10.5,10.5c-5.79899,0 -10.5,-4.70101 -10.5,-10.5z" fill="#153267"/><path d="M111.88317,290.26014c0,-4.2802 3.46979,-7.75 7.75,-7.75c4.28021,0 7.75,3.4698 7.75,7.75c0,4.2802 -3.46979,7.75 -7.75,7.75c-4.28021,0 -7.75,-3.4698 -7.75,-7.75z" fill="#153267"/><path d="M90.88317,275.76014c0,-4.83249 3.41751,-5.25 8.25,-5.25c4.83249,0 14.75,8.91751 14.75,13.75c0,4.83249 -5.91751,4.25 -10.75,4.25c-4.83249,0 -12.25,-7.91751 -12.25,-12.75z" fill="#153267"/><path d="M75.19567,291.51014c0,-10.0792 8.1708,-18.25 18.25,-18.25c10.0792,0 18.25,8.1708 18.25,18.25c0,10.0792 -8.1708,18.25 -18.25,18.25c-10.0792,0 -18.25,-8.1708 -18.25,-18.25z" fill="#0c295d"/><path d="M62.38317,298.01014c0,-5.79899 4.70101,-10.5 10.5,-10.5c5.79899,0 10.5,4.70101 10.5,10.5c0,5.79899 -4.70101,10.5 -10.5,10.5c-5.79899,0 -10.5,-4.70101 -10.5,-10.5z" fill="#0c295d"/><path d="M50.88317,293.01014c0,-4.14213 3.35787,-7.5 7.5,-7.5c4.14213,0 7.5,3.35787 7.5,7.5c0,4.14213 -3.35787,7.5 -7.5,7.5c-4.14213,0 -7.5,-3.35787 -7.5,-7.5z" fill="#153267"/><path d="M99.88317,290.26014c0,-5.66091 4.58909,-10.25 10.25,-10.25c5.66091,0 10.25,4.58909 10.25,10.25c0,5.66091 -4.58909,10.25 -10.25,10.25c-5.66091,0 -10.25,-4.58909 -10.25,-10.25z" fill="#153267"/></g><g fill="#0c295d"><path d="M74.48317,285.01014c0,-5.79899 4.70101,-10.5 10.5,-10.5c5.79899,0 10.5,4.70101 10.5,10.5c0,5.79899 -4.70101,10.5 -10.5,10.5c-5.79899,0 -10.5,-4.70101 -10.5,-10.5z"/><path d="M62.48317,290.01014c0,-5.79899 4.70101,-10.5 10.5,-10.5c5.79899,0 10.5,4.70101 10.5,10.5c0,5.79899 -4.70101,10.5 -10.5,10.5c-5.79899,0 -10.5,-4.70101 -10.5,-10.5z"/><path d="M80.98317,279.01014c0,-5.79899 4.70101,-10.5 10.5,-10.5c5.79899,0 10.5,4.70101 10.5,10.5c0,5.79899 -4.70101,10.5 -10.5,10.5c-5.79899,0 -10.5,-4.70101 -10.5,-10.5z"/><path d="M111.48317,293.76014c0,-4.2802 3.46979,-7.75 7.75,-7.75c4.28021,0 7.75,3.4698 7.75,7.75c0,4.2802 -3.46979,7.75 -7.75,7.75c-4.28021,0 -7.75,-3.4698 -7.75,-7.75z"/><path d="M90.48317,279.26014c0,-4.83249 3.41751,-5.25 8.25,-5.25c4.83249,0 14.75,8.91751 14.75,13.75c0,4.83249 -5.91751,4.25 -10.75,4.25c-4.83249,0 -12.25,-7.91751 -12.25,-12.75z"/><path d="M74.79567,295.01014c0,-10.0792 8.1708,-18.25 18.25,-18.25c10.0792,0 18.25,8.1708 18.25,18.25c0,10.0792 -8.1708,15.25 -18.25,15.25c-10.0792,0 -18.25,-5.1708 -18.25,-15.25z"/><path d="M62.98317,301.51014c0,-5.79899 4.70101,-10.5 10.5,-10.5c5.79899,0 10.5,4.70101 10.5,10.5c0,5.79899 -3.70101,7.5 -9.5,7.5c-5.79899,0 -11.5,-1.70101 -11.5,-7.5z"/><path d="M50.48317,296.51014c0,-4.14214 3.35786,-7.5 7.5,-7.5c4.14214,0 7.5,3.35786 7.5,7.5c0,4.14214 -3.35786,7.5 -7.5,7.5c-4.14214,0 -7.5,-3.35786 -7.5,-7.5z"/><path d="M99.48317,293.76014c0,-5.66091 4.58909,-10.25 10.25,-10.25c5.66091,0 10.25,4.58909 10.25,10.25c0,5.66091 -4.58909,10.25 -10.25,10.25c-5.66091,0 -10.25,-4.58909 -10.25,-10.25z"/></g></g><g stroke="#000000" stroke-width="0"><path d="M373.69001,200.7993c0,-3.93208 3.18759,-7.11967 7.11967,-7.11967c3.93208,0 7.11967,3.18759 7.11967,7.11967c0,3.93208 -3.18759,7.11967 -7.11967,7.11967c-3.93208,0 -7.11967,-3.18759 -7.11967,-7.11967z" fill="#153267"/><path d="M360.94201,203.46755c0,-7.00104 5.67546,-12.67649 12.67649,-12.67649c7.00104,0 12.67649,5.67546 12.67649,12.67649c0,7.00104 -5.67546,12.67649 -12.67649,12.67649c-7.00104,0 -12.67649,-5.67546 -12.67649,-12.67649z" fill="#153267"/><path d="M348.42523,205.9993c0,-2.97304 2.41012,-5.38317 5.38317,-5.38317c2.97304,0 5.38317,2.41013 5.38317,5.38317c0,2.97304 -2.41012,5.38317 -5.38317,5.38317c-2.97304,0 -5.38317,-2.41013 -5.38317,-5.38317z" fill="#153267"/><path d="M356.52495,202.12153c0,-4.02799 3.26533,-7.29332 7.29332,-7.29332c4.02799,0 7.29332,3.26533 7.29332,7.29332c0,4.02799 -3.26533,7.29332 -7.29332,7.29332c-4.02799,0 -7.29332,-3.26533 -7.29332,-7.29332z" fill="#153267"/><path d="M365.03987,194.90391c0,-3.61378 3.26533,-6.54332 7.29332,-6.54332c4.02799,0 7.29332,2.92955 7.29332,6.54332c0,3.61378 -3.26533,6.54332 -7.29332,6.54332c-4.02799,0 -7.29332,-2.92954 -7.29332,-6.54332z" fill="#153267"/><path d="M383.62523,205.5993c0,-2.97304 2.41012,-5.38317 5.38317,-5.38317c2.97304,0 5.38317,2.41013 5.38317,5.38317c0,2.97304 -2.41012,5.38317 -5.38317,5.38317c-2.97304,0 -5.38317,-2.41013 -5.38317,-5.38317z" fill="#153267"/><path d="M351.64242,210.38247c0,-4.02799 3.26533,-7.29332 7.29332,-7.29332c4.02799,0 7.29332,3.26533 7.29332,7.29332c0,4.02799 -2.26533,5.29332 -6.29332,5.29332c-4.02799,0 -8.29332,-1.26533 -8.29332,-5.29332z" fill="#0c295d"/><path d="M355.8795,204.47835c0,-4.02799 3.26533,-7.29332 7.29332,-7.29332c4.02799,0 7.29332,3.26533 7.29332,7.29332c0,4.02799 -3.26533,7.29332 -7.29332,7.29332c-4.02799,0 -7.29332,-3.26533 -7.29332,-7.29332z" fill="#0c295d"/><path d="M365.06202,198.18502c0,-4.02799 3.26533,-7.29332 7.29332,-7.29332c4.02799,0 7.29332,3.26533 7.29332,7.29332c0,4.02799 -3.26533,7.29332 -7.29332,7.29332c-4.02799,0 -7.29332,-3.26533 -7.29332,-7.29332z" fill="#0c295d"/><path d="M383.24739,207.93041c0,-2.97304 2.41012,-5.38317 5.38317,-5.38317c2.97304,0 5.38317,2.41013 5.38317,5.38317c0,2.97304 -2.41012,5.38317 -5.38317,5.38317c-2.97304,0 -5.38317,-2.41013 -5.38317,-5.38317z" fill="#0c295d"/><path d="M360.26417,208.29866c0,-7.00104 5.67546,-12.67649 12.67649,-12.67649c7.00104,0 12.67649,5.67546 12.67649,12.67649c0,7.00104 -6.67546,8.67649 -13.67649,8.67649c-7.00104,0 -11.67649,-1.67546 -11.67649,-8.67649z" fill="#0c295d"/><path d="M347.89157,207.77771c0,-2.58942 2.09914,-4.68857 4.68857,-4.68857c2.58942,0 4.68857,2.09914 4.68857,4.68857c0,1.44899 -0.65731,2.74447 -1.69002,3.60451c-0.81279,0.67689 -1.85812,1.08406 -2.99855,1.08406c-2.58942,0 -4.68857,-2.09914 -4.68857,-4.68857z" fill="#0c295d"/><path d="M374.91217,207.43041c0,-3.93208 3.18759,-7.11967 7.11967,-7.11967c3.93208,0 7.11967,3.18759 7.11967,7.11967c0,3.93208 -3.18759,7.11967 -7.11967,7.11967c-3.93208,0 -7.11967,-3.18759 -7.11967,-7.11967z" fill="#0c295d"/><path d="M361.34201,205.26755c0,-7.00104 5.67546,-12.67649 12.67649,-12.67649c7.00104,0 12.67649,5.67546 12.67649,12.67649c0,7.00104 -5.67546,9.67649 -12.67649,9.67649c-4.23178,0 -7.97925,-0.97751 -10.28176,-3.29693c-1.50675,-1.51782 -2.39473,-3.6103 -2.39473,-6.37956z" fill="#0c295d"/></g><g stroke="#000000" stroke-width="0"><path d="M155.98241,227.38401c0,-3.03757 2.46243,-5.5 5.5,-5.5c3.03757,0 5.5,2.46243 5.5,5.5c0,3.03757 -2.46243,5.5 -5.5,5.5c-3.03757,0 -5.5,-2.46243 -5.5,-5.5z" fill="#153267"/><g><path d="M187.13241,213.38401c0,-5.79899 4.70101,-10.5 10.5,-10.5c5.79899,0 10.5,4.70101 10.5,10.5c0,5.79899 -4.70101,10.5 -10.5,10.5c-5.79899,0 -10.5,-4.70101 -10.5,-10.5z" fill="#153267"/><path d="M175.13241,218.38401c0,-5.79899 4.70101,-10.5 10.5,-10.5c5.79899,0 10.5,4.70101 10.5,10.5c0,5.79899 -4.70101,10.5 -10.5,10.5c-5.79899,0 -10.5,-4.70101 -10.5,-10.5z" fill="#153267"/><path d="M193.63241,207.38401c0,-5.79899 4.70101,-10.5 10.5,-10.5c5.79899,0 10.5,4.70101 10.5,10.5c0,5.79899 -4.70101,10.5 -10.5,10.5c-5.79899,0 -10.5,-4.70101 -10.5,-10.5z" fill="#153267"/><path d="M224.13241,222.13401c0,-4.2802 3.46979,-7.75 7.75,-7.75c4.28021,0 7.75,3.4698 7.75,7.75c0,4.2802 -3.46979,7.75 -7.75,7.75c-4.28021,0 -7.75,-3.4698 -7.75,-7.75z" fill="#153267"/><path d="M203.13241,207.63401c0,-4.83249 3.41751,-5.25 8.25,-5.25c4.83249,0 14.75,8.91751 14.75,13.75c0,4.83249 -5.91751,4.25 -10.75,4.25c-4.83249,0 -12.25,-7.91751 -12.25,-12.75z" fill="#153267"/><path d="M187.44491,223.38401c0,-10.0792 8.1708,-18.25 18.25,-18.25c10.0792,0 18.25,8.1708 18.25,18.25c0,10.0792 -8.1708,18.25 -18.25,18.25c-10.0792,0 -18.25,-8.1708 -18.25,-18.25z" fill="#0c295d"/><path d="M174.63241,229.88401c0,-5.79899 4.70101,-10.5 10.5,-10.5c5.79899,0 10.5,4.70101 10.5,10.5c0,5.79899 -4.70101,10.5 -10.5,10.5c-5.79899,0 -10.5,-4.70101 -10.5,-10.5z" fill="#0c295d"/><path d="M163.13241,224.88401c0,-4.14213 3.35787,-7.5 7.5,-7.5c4.14213,0 7.5,3.35787 7.5,7.5c0,4.14213 -3.35787,7.5 -7.5,7.5c-4.14213,0 -7.5,-3.35787 -7.5,-7.5z" fill="#153267"/><path d="M212.13241,222.13401c0,-5.66091 4.58909,-10.25 10.25,-10.25c5.66091,0 10.25,4.58909 10.25,10.25c0,5.66091 -4.58909,10.25 -10.25,10.25c-5.66091,0 -10.25,-4.58909 -10.25,-10.25z" fill="#153267"/></g><path d="M186.73241,216.88401c0,-5.79899 4.70101,-10.5 10.5,-10.5c5.79899,0 10.5,4.70101 10.5,10.5c0,5.79899 -4.70101,10.5 -10.5,10.5c-5.79899,0 -10.5,-4.70101 -10.5,-10.5z" fill="#0c295d"/><path d="M174.73241,221.88401c0,-5.79899 4.70101,-10.5 10.5,-10.5c5.79899,0 10.5,4.70101 10.5,10.5c0,5.79899 -4.70101,10.5 -10.5,10.5c-5.79899,0 -10.5,-4.70101 -10.5,-10.5z" fill="#0c295d"/><path d="M193.23241,210.88401c0,-5.79899 4.70101,-10.5 10.5,-10.5c5.79899,0 10.5,4.70101 10.5,10.5c0,5.79899 -4.70101,10.5 -10.5,10.5c-5.79899,0 -10.5,-4.70101 -10.5,-10.5z" fill="#0c295d"/><path d="M223.73241,225.63401c0,-4.2802 3.46979,-7.75 7.75,-7.75c4.28021,0 7.75,3.4698 7.75,7.75c0,4.2802 -3.46979,7.75 -7.75,7.75c-4.28021,0 -7.75,-3.4698 -7.75,-7.75z" fill="#0c295d"/><path d="M202.73241,211.13401c0,-4.83249 3.41751,-5.25 8.25,-5.25c4.83249,0 14.75,8.91751 14.75,13.75c0,4.83249 -5.91751,4.25 -10.75,4.25c-4.83249,0 -12.25,-7.91751 -12.25,-12.75z" fill="#0c295d"/><path d="M187.04491,226.88401c0,-10.0792 8.1708,-18.25 18.25,-18.25c10.0792,0 18.25,8.1708 18.25,18.25c0,10.0792 -11.1708,15.25 -21.25,15.25c-10.0792,0 -15.25,-5.1708 -15.25,-15.25z" fill="#0c295d"/><path d="M174.23241,233.38401c0,-5.79899 4.70101,-10.5 10.5,-10.5c5.79899,0 10.5,4.70101 10.5,10.5c0,5.79899 -4.70101,7.5 -10.5,7.5c-5.79899,0 -10.5,-1.70101 -10.5,-7.5z" fill="#0c295d"/><path d="M162.73241,228.38401c0,-4.14214 3.35786,-7.5 7.5,-7.5c4.14214,0 7.5,3.35786 7.5,7.5c0,4.14214 -3.35786,5.5 -7.5,5.5c-4.14214,0 -7.5,-1.35786 -7.5,-5.5z" fill="#0c295d"/><path d="M211.73241,225.63401c0,-5.66091 4.58909,-10.25 10.25,-10.25c5.66091,0 10.25,4.58909 10.25,10.25c0,5.66091 -4.58909,10.25 -10.25,10.25c-5.66091,0 -10.25,-4.58909 -10.25,-10.25z" fill="#0c295d"/><path d="M155.23241,229.38401c0,-3.03757 2.46243,-5.5 5.5,-5.5c3.03757,0 5.5,2.46243 5.5,5.5c0,3.03757 -2.46243,5.5 -5.5,5.5c-3.03757,0 -5.5,-2.46243 -5.5,-5.5z" fill="#0c295d"/></g></g></g></svg>