<svg version="1.1" xmlns="http://www.w3.org/2000/svg" xmlns:xlink="http://www.w3.org/1999/xlink" width="504.55782" height="385.61902" viewBox="0,0,504.55782,385.61902"><defs><linearGradient x1="160.99296" y1="36.76906" x2="320.35916" y2="36.76906" gradientUnits="userSpaceOnUse" id="color-1"><stop offset="0" stop-color="#ffa41c"/><stop offset="1" stop-color="#ff8800"/></linearGradient></defs><g transform="translate(16.78473,12.80951)"><g data-paper-data="{&quot;isPaintingLayer&quot;:true}" stroke="none" stroke-width="1" stroke-miterlimit="10" stroke-dasharray="" stroke-dashoffset="0" style="mix-blend-mode: normal"><path d="M-16.59062,-12.80951l504.36371,0.38878l-2.0284,384.61076l-502.52942,0.61948z" data-paper-data="{&quot;origRot&quot;:0,&quot;index&quot;:null}" fill="#000000" fill-rule="evenodd" stroke-linecap="round" stroke-linejoin="round" opacity="0.42445"/><text transform="translate(37.69739,240.5) scale(0.5,0.5)" font-size="40" xml:space="preserve" fill="#ffffff" fill-rule="nonzero" stroke="none" stroke-width="1" stroke-linecap="butt" stroke-linejoin="miter" stroke-miterlimit="10" stroke-dasharray="" stroke-dashoffset="0" font-family="Sans Serif" font-weight="normal" text-anchor="start" style="mix-blend-mode: normal"><tspan x="0" dy="0">BALL</tspan></text><text transform="translate(379.28474,346.5) scale(0.5,0.5)" font-size="40" xml:space="preserve" fill="#ffffff" fill-rule="nonzero" stroke="none" stroke-width="1" stroke-linecap="butt" stroke-linejoin="miter" stroke-miterlimit="10" stroke-dasharray="" stroke-dashoffset="0" font-family="Sans Serif" font-weight="normal" text-anchor="start" style="mix-blend-mode: normal"><tspan x="0" dy="0">TO CLOSE</tspan></text><text transform="translate(397.28474,319.5) scale(0.5,0.5)" font-size="40" xml:space="preserve" fill="#ffffff" fill-rule="nonzero" stroke="none" stroke-width="1" stroke-linecap="butt" stroke-linejoin="miter" stroke-miterlimit="10" stroke-dasharray="" stroke-dashoffset="0" font-family="Sans Serif" font-weight="normal" text-anchor="start" style="mix-blend-mode: normal"><tspan x="0" dy="0">CLICK</tspan></text><text transform="translate(217.50495,50.50004) scale(0.5,0.5)" font-size="40" xml:space="preserve" fill="#6bff69" fill-rule="nonzero" stroke="none" stroke-width="1" stroke-linecap="butt" stroke-linejoin="miter" stroke-miterlimit="10" stroke-dasharray="" stroke-dashoffset="0" font-family="Malgun Gothic" font-weight="normal" text-anchor="start" style="mix-blend-mode: normal"><tspan x="0" dy="0"> </tspan></text><path d="M176.77282,59.06131c-2.26802,0 -4.60511,-0.23261 -7.01124,-0.69785c-2.39887,-0.46524 -4.45246,-1.12311 -6.16073,-1.97362c-1.00317,-0.48704 -1.71192,-1.13765 -2.12627,-1.95181c-0.40709,-0.82144 -0.5561,-1.66831 -0.44706,-2.54062c0.11631,-0.87959 0.43252,-1.66104 0.94865,-2.34435c0.52339,-0.69058 1.21398,-1.15582 2.07175,-1.39571c0.85777,-0.24716 1.8246,-0.12722 2.90045,0.35984c1.41752,0.70512 3.01676,1.23578 4.79774,1.59198c1.78825,0.34893 3.46382,0.52339 5.02673,0.52339c2.45703,0 4.17622,-0.32349 5.15758,-0.97045c0.98862,-0.65424 1.48294,-1.46477 1.48294,-2.43158c0,-0.85778 -0.34529,-1.54473 -1.03587,-2.06084c-0.68331,-0.52339 -1.90092,-0.97045 -3.65282,-1.34119l-6.53147,-1.39571c-7.07304,-1.52655 -10.60955,-5.23027 -10.60955,-11.11114c0,-2.57334 0.69785,-4.82682 2.09356,-6.76046c1.39571,-1.93364 3.34025,-3.43111 5.83362,-4.49243c2.50065,-1.06131 5.40473,-1.59198 8.71227,-1.59198c1.93364,0 3.89635,0.21444 5.88814,0.64334c1.99179,0.42889 3.71461,1.07222 5.16848,1.93c1.11947,0.59608 1.82823,1.40662 2.12627,2.43159c0.29804,1.01771 0.25806,2.00997 -0.11994,2.97679c-0.37074,0.96682 -1.03224,1.67557 -1.98452,2.12627c-0.94501,0.44342 -2.14445,0.3671 -3.59831,-0.22898c-1.1122,-0.47977 -2.34072,-0.8396 -3.68554,-1.07949c-1.33755,-0.24715 -2.63876,-0.37074 -3.90362,-0.37074c-2.0863,0 -3.68918,0.36347 -4.80865,1.09039c-1.1122,0.72693 -1.6683,1.66831 -1.6683,2.82412c0,0.81417 0.33439,1.48294 1.00317,2.00633c0.66878,0.52339 1.86094,0.97046 3.5765,1.34119l6.47696,1.39571c7.18207,1.52655 10.77312,5.13577 10.77312,10.82764c0,2.56607 -0.69059,4.80138 -2.07175,6.70594c-1.3739,1.89729 -3.30754,3.36569 -5.8009,4.40521c-2.49337,1.03951 -5.43381,1.55927 -8.8213,1.55927zM203.63056,58.95226c-1.64286,0 -2.91135,-0.44706 -3.80548,-1.34119c-0.88685,-0.89412 -1.33028,-2.19534 -1.33028,-3.90362v-29.86596c0,-1.71556 0.44343,-3.0204 1.33028,-3.91452c0.89412,-0.89412 2.16262,-1.34119 3.80549,-1.34119c1.63559,0 2.90045,0.44706 3.79458,1.34119c0.89412,0.89412 1.34119,2.19897 1.34119,3.91453v10.43509h16.24691v-10.43509c0,-1.71556 0.44343,-3.0204 1.33028,-3.91452c0.89412,-0.89412 2.16262,-1.34119 3.80549,-1.34119c1.63559,0 2.88955,0.44706 3.76187,1.34119c0.87958,0.89412 1.31938,2.19897 1.31938,3.91453v29.86596c0,1.70828 -0.43979,3.0095 -1.31938,3.90362c-0.87231,0.89412 -2.12627,1.34119 -3.76186,1.34119c-1.67921,0 -2.95497,-0.44706 -3.82729,-1.34119c-0.87231,-0.89412 -1.30847,-2.19534 -1.30847,-3.90362v-11.00211h-16.24691v11.00211c0,1.70828 -0.43979,3.0095 -1.31938,3.90362c-0.87231,0.89412 -2.14445,1.34119 -3.81639,1.34119zM261.34869,59.06131c-3.97631,0 -7.46558,-0.84687 -10.4678,-2.54062c-2.99495,-1.69375 -5.3284,-4.06355 -7.00034,-7.10939c-1.67194,-3.05311 -2.50791,-6.6078 -2.50791,-10.66407c0,-4.09989 0.82506,-7.66549 2.4752,-10.69679c1.6574,-3.0313 3.99449,-5.38292 7.01125,-7.05487c3.01676,-1.67921 6.5133,-2.51881 10.48961,-2.51881c3.98358,0 7.47285,0.83961 10.4678,2.51882c3.00223,1.67194 5.3393,4.02357 7.01125,7.05487c1.67194,3.0313 2.50791,6.5969 2.50791,10.69679c0,4.05628 -0.83597,7.61096 -2.50791,10.66407c-1.67194,3.04584 -4.00903,5.41564 -7.01124,7.10939c-2.99496,1.69374 -6.48423,2.54062 -10.4678,2.54062zM261.34869,50.46899c2.90772,0 5.19028,-1.03224 6.84769,-3.09672c1.6574,-2.06448 2.4861,-4.93949 2.4861,-8.62503c0,-3.68554 -0.82143,-6.54965 -2.4643,-8.59232c-1.63559,-2.04994 -3.92542,-3.07492 -6.8695,-3.07492c-2.9368,0 -5.22663,1.02497 -6.8695,3.07492c-1.63559,2.04268 -2.45339,4.90678 -2.45339,8.59232c0,3.68554 0.8178,6.56055 2.4534,8.62504c1.64287,2.06448 3.9327,3.09672 6.8695,3.09672zM292.56495,58.95226c-1.64287,0 -2.91135,-0.44706 -3.80548,-1.34119c-0.88685,-0.89412 -1.33028,-2.17716 -1.33028,-3.8491v-29.47342c0,-1.67921 0.44343,-2.96588 1.33028,-3.86c0.89412,-0.89412 2.1808,-1.34119 3.86,-1.34119h13.72809c4.47063,0 7.92355,1.14492 10.35877,3.43475c2.43522,2.28983 3.65283,5.44472 3.65283,9.46464c0,4.01993 -1.21761,7.17481 -3.65282,9.46464c-2.43523,2.28983 -5.88814,3.43475 -10.35877,3.43475h-8.64684v8.87583c0,1.67194 -0.43979,2.95497 -1.31938,3.84911c-0.87231,0.89412 -2.14445,1.34119 -3.81639,1.34119zM297.70072,37.01349h6.8695c4.01266,0 6.01899,-1.67557 6.01899,-5.02673c0,-3.35115 -2.00633,-5.02673 -6.01899,-5.02673h-6.8695z" fill="#ffffff" fill-rule="nonzero" stroke-linecap="square" stroke-linejoin="miter"/><text transform="translate(180.50583,103.69049) scale(0.5,0.5)" font-size="40" xml:space="preserve" fill="#ffffff" fill-rule="nonzero" stroke="none" stroke-width="1" stroke-linecap="butt" stroke-linejoin="miter" stroke-miterlimit="10" stroke-dasharray="" stroke-dashoffset="0" font-family="Sans Serif" font-weight="normal" text-anchor="start" style="mix-blend-mode: normal"><tspan x="0" dy="0">SELECT ITEM</tspan></text><path d="M176.77282,57.06131c-2.26802,0 -4.60511,-0.23261 -7.01124,-0.69785c-2.39887,-0.46524 -4.45246,-1.12311 -6.16073,-1.97362c-1.00317,-0.48704 -1.71192,-1.13765 -2.12627,-1.95181c-0.40709,-0.82144 -0.5561,-1.66831 -0.44706,-2.54062c0.11631,-0.87959 0.43252,-1.66104 0.94865,-2.34435c0.52339,-0.69058 1.21398,-1.15582 2.07175,-1.39571c0.85777,-0.24716 1.8246,-0.12722 2.90045,0.35984c1.41752,0.70512 3.01676,1.23578 4.79774,1.59198c1.78825,0.34893 3.46382,0.52339 5.02673,0.52339c2.45703,0 4.17622,-0.32349 5.15758,-0.97045c0.98862,-0.65424 1.48294,-1.46477 1.48294,-2.43158c0,-0.85778 -0.34529,-1.54473 -1.03587,-2.06084c-0.68331,-0.52339 -1.90092,-0.97045 -3.65282,-1.34119l-6.53147,-1.39571c-7.07304,-1.52655 -10.60955,-5.23027 -10.60955,-11.11114c0,-2.57334 0.69785,-4.82682 2.09356,-6.76046c1.39571,-1.93364 3.34025,-3.43111 5.83362,-4.49243c2.50065,-1.06131 5.40473,-1.59198 8.71227,-1.59198c1.93364,0 3.89635,0.21444 5.88814,0.64334c1.99179,0.42889 3.71461,1.07222 5.16848,1.93c1.11947,0.59608 1.82823,1.40662 2.12627,2.43159c0.29804,1.01771 0.25806,2.00997 -0.11994,2.97679c-0.37074,0.96682 -1.03224,1.67557 -1.98452,2.12627c-0.94501,0.44342 -2.14445,0.3671 -3.59831,-0.22898c-1.1122,-0.47977 -2.34072,-0.8396 -3.68554,-1.07949c-1.33755,-0.24715 -2.63876,-0.37074 -3.90362,-0.37074c-2.0863,0 -3.68918,0.36347 -4.80865,1.09039c-1.1122,0.72693 -1.6683,1.66831 -1.6683,2.82412c0,0.81417 0.33439,1.48294 1.00317,2.00633c0.66878,0.52339 1.86094,0.97046 3.5765,1.34119l6.47696,1.39571c7.18207,1.52655 10.77312,5.13577 10.77312,10.82764c0,2.56607 -0.69059,4.80138 -2.07175,6.70594c-1.3739,1.89729 -3.30754,3.36569 -5.8009,4.40521c-2.49337,1.03951 -5.43381,1.55927 -8.8213,1.55927zM203.63056,56.95226c-1.64286,0 -2.91135,-0.44706 -3.80548,-1.34119c-0.88685,-0.89412 -1.33028,-2.19534 -1.33028,-3.90362v-29.86596c0,-1.71556 0.44343,-3.0204 1.33028,-3.91452c0.89412,-0.89412 2.16262,-1.34119 3.80549,-1.34119c1.63559,0 2.90045,0.44706 3.79458,1.34119c0.89412,0.89412 1.34119,2.19897 1.34119,3.91453v10.43509h16.24691v-10.43509c0,-1.71556 0.44343,-3.0204 1.33028,-3.91452c0.89412,-0.89412 2.16262,-1.34119 3.80549,-1.34119c1.63559,0 2.88955,0.44706 3.76187,1.34119c0.87958,0.89412 1.31938,2.19897 1.31938,3.91453v29.86596c0,1.70828 -0.43979,3.0095 -1.31938,3.90362c-0.87231,0.89412 -2.12627,1.34119 -3.76186,1.34119c-1.67921,0 -2.95497,-0.44706 -3.82729,-1.34119c-0.87231,-0.89412 -1.30847,-2.19534 -1.30847,-3.90362v-11.00211h-16.24691v11.00211c0,1.70828 -0.43979,3.0095 -1.31938,3.90362c-0.87231,0.89412 -2.14445,1.34119 -3.81639,1.34119zM261.34869,57.06131c-3.97631,0 -7.46558,-0.84687 -10.4678,-2.54062c-2.99495,-1.69375 -5.3284,-4.06355 -7.00034,-7.10939c-1.67194,-3.05311 -2.50791,-6.6078 -2.50791,-10.66407c0,-4.09989 0.82506,-7.66549 2.4752,-10.69679c1.6574,-3.0313 3.99449,-5.38292 7.01125,-7.05487c3.01676,-1.67921 6.5133,-2.51881 10.48961,-2.51881c3.98358,0 7.47285,0.83961 10.4678,2.51882c3.00223,1.67194 5.3393,4.02357 7.01125,7.05487c1.67194,3.0313 2.50791,6.5969 2.50791,10.69679c0,4.05628 -0.83597,7.61096 -2.50791,10.66407c-1.67194,3.04584 -4.00903,5.41564 -7.01124,7.10939c-2.99496,1.69374 -6.48423,2.54062 -10.4678,2.54062zM261.34869,48.46899c2.90772,0 5.19028,-1.03224 6.84769,-3.09672c1.6574,-2.06448 2.4861,-4.93949 2.4861,-8.62503c0,-3.68554 -0.82143,-6.54965 -2.4643,-8.59232c-1.63559,-2.04994 -3.92542,-3.07492 -6.8695,-3.07492c-2.9368,0 -5.22663,1.02497 -6.8695,3.07492c-1.63559,2.04268 -2.45339,4.90678 -2.45339,8.59232c0,3.68554 0.8178,6.56055 2.4534,8.62504c1.64287,2.06448 3.9327,3.09672 6.8695,3.09672zM292.56495,56.95226c-1.64287,0 -2.91135,-0.44706 -3.80548,-1.34119c-0.88685,-0.89412 -1.33028,-2.17716 -1.33028,-3.8491v-29.47342c0,-1.67921 0.44343,-2.96588 1.33028,-3.86c0.89412,-0.89412 2.1808,-1.34119 3.86,-1.34119h13.72809c4.47063,0 7.92355,1.14492 10.35877,3.43475c2.43522,2.28983 3.65283,5.44472 3.65283,9.46464c0,4.01993 -1.21761,7.17481 -3.65282,9.46464c-2.43523,2.28983 -5.88814,3.43475 -10.35877,3.43475h-8.64684v8.87583c0,1.67194 -0.43979,2.95497 -1.31938,3.84911c-0.87231,0.89412 -2.14445,1.34119 -3.81639,1.34119zM297.70072,35.01349h6.8695c4.01266,0 6.01899,-1.67557 6.01899,-5.02673c0,-3.35115 -2.00633,-5.02673 -6.01899,-5.02673h-6.8695z" fill="url(#color-1)" fill-rule="nonzero" stroke-linecap="square" stroke-linejoin="miter"/></g></g></svg>