<svg version="1.1" xmlns="http://www.w3.org/2000/svg" xmlns:xlink="http://www.w3.org/1999/xlink" width="60" height="65.6029" viewBox="0,0,60,65.6029"><defs><radialGradient cx="231.63255" cy="160.34276" r="1.71782" gradientUnits="userSpaceOnUse" id="color-1"><stop offset="0" stop-color="#ffffff"/><stop offset="1" stop-color="#ffffff" stop-opacity="0"/></radialGradient><radialGradient cx="247.5588" cy="172.44674" r="14.36476" gradientUnits="userSpaceOnUse" id="color-2"><stop offset="0" stop-color="#ff8a00"/><stop offset="1" stop-color="#ffa100"/></radialGradient><radialGradient cx="235.04697" cy="161.1054" r="8.64052" gradientUnits="userSpaceOnUse" id="color-3"><stop offset="0" stop-color="#ffc600"/><stop offset="1" stop-color="#ffa100"/></radialGradient><radialGradient cx="232.62198" cy="164.9459" r="3.41321" gradientUnits="userSpaceOnUse" id="color-4"><stop offset="0" stop-color="#ffde00"/><stop offset="1" stop-color="#ffde00" stop-opacity="0"/></radialGradient></defs><g transform="translate(-210,-146.94729)"><g data-paper-data="{&quot;isPaintingLayer&quot;:true}" fill-rule="nonzero" stroke-linecap="butt" stroke-linejoin="miter" stroke-miterlimit="10" stroke-dasharray="" stroke-dashoffset="0" style="mix-blend-mode: normal"><path d="M210,199.14729c0,-7.04774 0,-31.40226 0,-44.2c0,-4.81949 3.05034,-8 7.7,-8c12.62451,0 37.03921,0 44.2,0c3.87081,0 8.1,3.00621 8.1,7.6c0,12.6245 0,37.2391 0,44.4c0,3.83078 -3.40007,8 -8.5,8c-13.01549,0 -37.10248,0 -44,0c-3.62854,0 -7.5,-4.0497 -7.5,-7.8z" fill="#d1d1d1" stroke="none" stroke-width="0"/><path d="M215.57804,204.175c0.08847,-4.6005 4.04058,-8.05913 7.98013,-8.05913c5.79891,0 22.44949,0 32.71065,0c4.9794,0 8.13815,3.24293 8.13815,7.90112c0,4.6582 -3.15609,8.5332 -8.13815,8.5332c-10.36204,0 -27.25579,0 -33.0267,0c-3.82167,0 -7.75257,-3.7747 -7.66408,-8.3752z" fill="#3be690" stroke="none" stroke-width="0.5"/><text transform="translate(221.83022,208.375) scale(0.27248,0.27248)" font-size="40" xml:space="preserve" fill="#ffffff" fill-rule="nonzero" stroke="none" stroke-width="1" stroke-linecap="butt" stroke-linejoin="miter" stroke-miterlimit="10" stroke-dasharray="" stroke-dashoffset="0" font-family="Sans Serif" font-weight="normal" text-anchor="start" style="mix-blend-mode: normal"><tspan x="0" dy="0">USING</tspan></text><g><path d="M234.43369,158.42044c0.70455,0.63537 -0.50612,1.7451 -1.09261,2.39546c-0.58649,0.65036 -1.77171,1.29279 -2.47626,0.65743c-0.70455,-0.63537 -0.03254,-2.8082 0.55395,-3.45856c0.58649,-0.65036 2.31037,-0.22968 3.01492,0.40568z" fill="url(#color-1)" stroke="none" stroke-width="NaN"/><path d="M234.89368,189.11768c-8.88575,-2.52397 -14.04302,-11.77339 -11.51905,-20.65917c2.52398,-8.88575 11.7734,-14.04302 20.65915,-11.51904c8.88577,2.52398 14.04304,11.77339 11.51905,20.65915c-2.52397,8.88575 -11.7734,14.04303 -20.65916,11.51905z" fill="#9f2c00" stroke="none" stroke-width="0"/><path d="M253.29838,168.39234c0.90571,2.69463 1.03504,5.68148 0.19962,8.62262c-2.20163,7.7509 -10.26973,12.2495 -18.02064,10.04789c-4.31252,-1.22496 -7.61824,-4.26602 -9.32326,-8.05805c-1.35941,-3.02338 -1.7013,-6.5242 -0.72463,-9.96259c2.20163,-7.7509 10.26973,-12.2495 18.02065,-10.04789c4.80975,1.3662 8.36715,4.9914 9.84826,9.39803z" data-paper-data="{&quot;index&quot;:null}" fill="#ff6700" stroke="#ffffff" stroke-width="0"/><path d="M243.27731,159.08782c2.73317,0.77634 5.04987,2.25538 6.79964,4.17676c1.62456,1.78386 2.48118,3.12208 3.00794,5.4601c0.2054,0.9117 0.52162,3.43315 0.07963,5.27516c-0.77061,3.01639 -0.70357,2.56501 -1.94967,4.99461c-1.71552,2.45361 -1.73023,2.47661 -3.72118,4.10165c-1.8371,1.38348 -2.66507,1.80141 -4.20121,2.46558c-1.5204,0.40236 -2.29794,0.83896 -4.77183,0.85045c-2.78222,-0.12842 -2.7979,-0.19009 -4.1644,-0.62258c-1.94088,-0.41149 -2.24606,-1.18778 -3.9856,-1.78136c-4.31198,-3.45129 -6.44826,-9.27281 -4.80949,-15.04221c2.16442,-7.61996 10.09623,-12.04252 17.71618,-9.87812z" data-paper-data="{&quot;index&quot;:null}" fill="url(#color-2)" stroke="#ffffff" stroke-width="0"/><path d="M228.84483,170.29317c-0.8719,-4.6917 2.22463,-9.20188 6.91633,-10.07379c4.6917,-0.8719 9.20188,2.22464 10.07379,6.91633c0.8719,4.6917 -2.22462,9.20188 -6.91632,10.07379c-4.6917,0.8719 -9.20189,-2.22463 -10.0738,-6.91633z" fill="url(#color-3)" stroke="#9f2c00" stroke-width="0"/><path d="M250.95935,163.63329c0,0 -1.37249,0.78475 -1.54414,0.85855c-3.12588,2.48105 -7.65361,8.33838 -10.11668,11.55295c-2.77382,2.20929 -4.31472,2.20049 -7.71356,1.27177c-0.06785,0.59601 -0.11386,1.1921 -0.13282,1.78653c1.45053,0.56966 2.97116,0.99301 4.68452,1.47111c4.38665,1.24809 10.87368,-0.10716 15.01507,-2.07005c0.18715,-0.05485 2.43307,-1.06459 2.43307,-1.06459l-0.50856,1.33968c-0.17924,0.05197 -1.43102,0.6219 -1.61028,0.67388c-4.3494,2.03617 -10.93351,3.11366 -15.60647,2.09686c-1.59822,-0.46374 -3.03829,-0.87122 -4.41126,-1.38252c0.01392,0.53985 0.05293,1.07742 0.121,1.61138c2.32987,0.42493 4.69972,1.09072 6.68684,2.12525c1.45935,0.7672 2.4765,1.94135 4.04474,2.55818l2.08156,0.39785l-1.829,0.52298c-1.69165,-0.48051 -3.21471,-1.81036 -4.74327,-2.59742c-1.82413,-0.95028 -3.98927,-1.57371 -6.13539,-1.98253c0.02158,0.39899 0.06119,0.7743 0.16055,1.1809l0.86643,2.05068l-1.23887,-0.82203c-0.15241,-0.60413 -0.74576,-1.96962 -0.76947,-2.58235c-0.77423,-0.1256 -1.61792,-0.24767 -2.35537,-0.32656l-0.80234,-1.07077c0.66061,0.07066 2.33802,0.26944 3.02791,0.37639c-0.06742,-0.60709 -0.09924,-1.21889 -0.10094,-1.83341c-1.48931,-0.63171 -3.40998,-1.2334 -4.91237,-2.43105l-0.28011,-1.3157c1.30838,1.04299 3.93162,2.08533 5.21925,2.66803c0.02919,-0.56958 0.08141,-1.14048 0.15229,-1.71117c-0.16994,-0.0728 -0.34048,-0.15315 -0.5117,-0.24137c-3.54773,-1.70046 -4.36234,-4.09631 -3.95557,-7.98923c0,0 0.37076,-2.24994 0.63077,-2.65366c0.24306,-0.37737 0.87296,-1.43751 0.87296,-1.43751l-0.80628,4.17334c-0.3093,3.54055 0.47447,5.4771 3.69031,7.01846c0.07509,0.03961 0.15,0.07743 0.22476,0.1135c0.37298,-2.32083 1.01378,-4.62238 1.63282,-6.7991c1.0996,-3.24357 2.67829,-8.51415 5.89006,-10.42389c0.21317,-0.12676 0.93262,-0.18303 1.16223,-0.27892l1.11182,0.07851l-1.33356,0.59929c-3.35205,1.40616 -4.86819,7.26004 -5.9053,10.31556c-0.62507,2.20342 -1.27399,4.52994 -1.62923,6.87267c3.11852,0.94333 4.77061,0.75029 7.31793,-1.21069c2.43195,-3.28083 6.73156,-9.01689 9.90694,-11.48166c0.09335,-0.04156 1.3276,-0.68739 1.3276,-0.68739c0,0 0.57638,0.73029 0.69103,0.67927z" data-paper-data="{&quot;index&quot;:null}" fill="#9f2c00" stroke="#9f2c00" stroke-width="1"/><path d="M236.98903,166.55337c-0.51496,1.81293 -2.40206,2.86513 -4.21499,2.35018c-1.81293,-0.51496 -2.86513,-2.40207 -2.35018,-4.215c0.51496,-1.81295 2.40208,-2.86514 4.215,-2.35019c1.81294,0.51496 2.86514,2.40207 2.35018,4.215z" data-paper-data="{&quot;index&quot;:null}" fill="url(#color-4)" stroke="none" stroke-width="0"/></g></g></g></svg>