<svg version="1.1" xmlns="http://www.w3.org/2000/svg" xmlns:xlink="http://www.w3.org/1999/xlink" width="89.1455" height="89.1455" viewBox="0,0,89.1455,89.1455"><g transform="translate(-195.42725,-135.42725)"><g data-paper-data="{&quot;isPaintingLayer&quot;:true}" fill-rule="nonzero" stroke-linecap="butt" stroke-linejoin="miter" stroke-miterlimit="10" stroke-dasharray="" stroke-dashoffset="0" style="mix-blend-mode: normal"><path d="M248.73033,163.2241c0,-4.53791 3.67879,-8.21678 8.21677,-8.21678c4.53791,0 8.21678,3.6788 8.21678,8.21678c0,4.53791 -3.67879,8.21678 -8.21678,8.21678c-4.53791,0 -8.21677,-3.67879 -8.21677,-8.21678z" fill="#ffa3a3" stroke="none" stroke-width="1.5"/><path d="M196.17725,180c0,-24.20265 19.6201,-43.82275 43.82275,-43.82275c24.20265,0 43.82275,19.6201 43.82275,43.82275c0,24.20265 -19.6201,43.82275 -43.82275,43.82275c-24.20265,0 -43.82275,-19.6201 -43.82275,-43.82275z" fill="#373ec7" stroke="#000000" stroke-width="1.5"/><path d="M201.99853,178.28821c0,-21.17735 16.86102,-38.3449 37.66022,-38.3449c20.79917,0 37.66021,17.16757 37.66021,38.3449c0,21.17735 -16.86102,38.34489 -37.66021,38.34489c-20.79917,0 -37.66022,-17.16756 -37.66022,-38.34489z" fill="#005ac7" stroke="none" stroke-width="1.5"/><path d="M221.33972,172.12151c0,-14.55943 11.80272,-26.36218 26.36217,-26.36218c14.55943,0 26.36217,11.80272 26.36217,26.36218c0,14.55943 -11.80271,26.36217 -26.36217,26.36217c-14.55943,0 -26.36217,-11.80271 -26.36217,-26.36217z" fill="#006adb" stroke="none" stroke-width="1.5"/><g stroke="#ab671a" stroke-width="0"><path d="M211.59664,200.82353l29.63049,-9.71746l8.76246,10.14753z" data-paper-data="{&quot;index&quot;:null}" fill="#39e2e6"/><path d="M268.40336,158.90713l-27.59686,9.27437l-8.20913,-9.63487z" fill="#39e2e6"/><path d="M232.43112,158.45132l27.33162,31.65183l-9.88332,11.44554l-27.33161,-31.65182z" fill="#39c0e6"/></g></g></g></svg>