<svg version="1.1" xmlns="http://www.w3.org/2000/svg" xmlns:xlink="http://www.w3.org/1999/xlink" width="29.62492" height="39.56449" viewBox="0,0,29.62492,39.56449"><g transform="translate(-225.18755,-157.9555)"><g data-paper-data="{&quot;isPaintingLayer&quot;:true}" fill-rule="nonzero" stroke-linecap="butt" stroke-linejoin="miter" stroke-miterlimit="10" stroke-dasharray="" stroke-dashoffset="0" style="mix-blend-mode: normal"><path d="M232.77967,170.44116c-1.53204,-1.01703 -2.59199,-2.70871 -2.73078,-4.68492c-0.23741,-3.38047 2.31055,-6.31333 5.69102,-6.55074c3.38047,-0.23741 6.31333,2.31055 6.55074,5.69102c0.1569,2.23414 -0.90281,4.27279 -2.6154,5.46703" fill="none" stroke="#0457c7" stroke-width="2.5"/><path d="M244.65486,197.51999c-1.36281,0 -3.91549,-0.09529 -6.35123,-1.538c-1.2832,-0.76005 -5.63941,-3.2772 -8.84504,-8.18463c-2.59689,-3.97554 -4.27104,-10.50216 -4.27104,-11.16143c0,-0.73532 1.28578,-2.38014 2.84443,-1.70428c1.78442,0.77377 3.9265,3.96972 4.90634,4.46298c1.41415,0.7119 -0.17183,-9.53076 0.40129,-14.63307c0.34288,-3.05255 3.30885,-2.28133 4.50105,-1.92985c0.23194,0.06838 0.84869,0.95079 1.01954,1.64896c0.78861,3.22264 -0.23839,16.2913 0.31031,13.94521c0.24472,-1.04633 0.82507,-3.66492 1.23451,-3.87075c0.18566,-0.09333 0.63977,-0.93019 1.47346,-1.00621c0.79462,-0.07245 1.73851,0.22867 1.95414,1.05322c0.70648,2.70148 0.20692,3.81783 0.61234,3.81783c0.46468,0 0.1809,-2.1661 0.59821,-3.4766c0.31593,-0.99213 1.60124,-1.41956 1.92664,-1.33378c0.27317,0.072 1.75901,0.29859 2.03988,1.23792c0.48285,1.61481 -0.29858,4.49294 0.11834,4.72296c0.44447,0.24522 0.16024,-3.73397 1.0394,-4.50535c0.46643,-0.40925 1.1961,-0.84201 1.88953,-0.80712c0.83066,0.0418 1.92417,0.8276 2.13614,1.06983c0.74707,0.85375 1.14668,10.08744 -0.76454,15.16489c-1.86535,4.95559 -6.21152,7.02726 -8.77371,7.02726z" fill="#d89b82" stroke="none" stroke-width="0"/><path d="M238.66531,166.15572c0.00013,0.24761 -0.03012,0.49442 -0.09009,0.7347c-0.59584,0.73537 -1.4658,0.45458 -2.43346,0.45458c-0.96766,0 -1.83775,0.28079 -2.4336,-0.45458c-0.05997,-0.24028 -0.09022,-0.4871 -0.09009,-0.7347c0.00013,-1.52817 1.12984,-3.28158 2.52368,-3.28158c1.39371,0 2.52355,1.75339 2.52355,3.28158z" fill="#f6d3ce" stroke="none" stroke-width="1"/><path d="M229.0584,176.18859c-0.1493,1.3851 -1.2491,2.476 -2.6354,2.614c-0.6598,-0.4197 -0.9957,-1.2003 -0.8468,-1.9681c0.1488,-0.7677 0.7522,-1.3661 1.5211,-1.5088c0.7689,-0.1426 1.5468,0.1997 1.9611,0.8629z" fill="#f6d3ce" stroke="none" stroke-width="1"/></g></g></svg>