<svg version="1.1" xmlns="http://www.w3.org/2000/svg" xmlns:xlink="http://www.w3.org/1999/xlink" width="322.22466" height="131.0916" viewBox="0,0,322.22466,131.0916"><defs><linearGradient x1="416.8874" y1="86.52336" x2="416.8874" y2="99.85751" gradientUnits="userSpaceOnUse" id="color-1"><stop offset="0" stop-color="#ffaa21"/><stop offset="1" stop-color="#ff8c14"/></linearGradient><linearGradient x1="416.8874" y1="86.52336" x2="416.8874" y2="99.85751" gradientUnits="userSpaceOnUse" id="color-2"><stop offset="0" stop-color="#ffaa21"/><stop offset="1" stop-color="#ff8c14"/></linearGradient><linearGradient x1="416.8874" y1="86.52336" x2="416.8874" y2="99.85751" gradientUnits="userSpaceOnUse" id="color-3"><stop offset="0" stop-color="#ffaa21"/><stop offset="1" stop-color="#ff8c14"/></linearGradient></defs><g transform="translate(-114.92374,-75.41516)"><g data-paper-data="{&quot;isPaintingLayer&quot;:true}" stroke-linecap="butt" stroke-dasharray="" stroke-dashoffset="0" style="mix-blend-mode: normal"><path d="M114.92374,206.50676v-118.80944h256.2225v118.80944z" fill="none" fill-rule="nonzero" stroke="none" stroke-width="0" stroke-linejoin="miter" stroke-miterlimit="10"/><path d="M260.69426,81.54039c0,-3.38265 4.03676,-6.12523 9.01565,-6.12523h158.42284c4.97888,0 9.01565,2.74257 9.01565,6.12523v26.33846c0,3.38265 -4.03676,6.12523 -9.01565,6.12523h-158.42284c-4.97888,0 -9.01565,-2.74257 -9.01565,-6.12523z" data-paper-data="{&quot;index&quot;:null}" fill="#000000" fill-rule="evenodd" stroke="none" stroke-width="1" stroke-linejoin="round" stroke-miterlimit="2"/><path d="M432.53024,103.81441c0,2.33866 -2.43776,4.23479 -5.44445,4.23479h-95.66988c-3.0067,0 -5.44445,-1.89613 -5.44445,-4.23479v-18.20958c0,-2.33866 2.43776,-4.23479 5.44445,-4.23479h95.66988c3.0067,0 5.44445,1.89613 5.44445,4.23479z" data-paper-data="{&quot;index&quot;:null}" fill="#2cbcff" fill-rule="evenodd" stroke="none" stroke-width="1" stroke-linejoin="round" stroke-miterlimit="2"/><path d="M272.46209,96.6039c-2.357,-2.38697 -2.3479,-6.23877 0.02783,-8.61451c2.38484,-2.38484 6.25751,-2.38484 8.64287,0.00054l0.00803,0.00803c2.39875,-2.1258 6.07393,-2.0407 8.37046,0.25583c2.29599,2.29599 2.38162,5.97171 0.25583,8.37046l0.00803,0.00803l-7.57195,7.57195c-0.28365,0.28365 -0.66899,0.44314 -1.0704,0.44314c-0.4014,0 -0.78673,-0.15948 -1.0704,-0.44314l-7.57195,-7.57195z" data-paper-data="{&quot;index&quot;:null}" fill="#ff363f" fill-rule="evenodd" stroke="none" stroke-width="1" stroke-linejoin="round" stroke-miterlimit="2"/><path d="M308.00807,85.78884c0.20025,-0.61762 0.77642,-1.0364 1.42636,-1.0364c0.64994,0 1.22612,0.41878 1.42636,1.0364c0.5312,1.63505 1.08769,3.34739 1.43128,4.40487c0.20096,0.61834 0.77712,1.0364 1.42707,1.0364c1.11159,0 2.91246,0 4.63112,0c0.64994,0 1.22541,0.41878 1.42636,1.0364c0.20096,0.61834 -0.01897,1.29498 -0.54455,1.67721c-1.39053,1.0104 -2.84781,2.06858 -3.74719,2.72204c-0.52557,0.38224 -0.7455,1.05959 -0.54455,1.67721c0.34359,1.05747 0.90008,2.76982 1.43058,4.40487c0.20096,0.61762 -0.01897,1.29498 -0.54455,1.67721c-0.52557,0.38153 -1.23806,0.38153 -1.76363,0c-1.39053,-1.0104 -2.84711,-2.06928 -3.74649,-2.72274c-0.52557,-0.38153 -1.23806,-0.38153 -1.76363,0c-0.89938,0.65345 -2.35596,1.71234 -3.74649,2.72274c-0.52557,0.38153 -1.23806,0.38153 -1.76363,0c-0.52557,-0.38224 -0.7455,-1.05959 -0.54455,-1.67721c0.5305,-1.63505 1.08699,-3.34739 1.43058,-4.40487c0.20096,-0.61762 -0.01897,-1.29498 -0.54455,-1.67721c-0.89938,-0.65345 -2.35667,-1.71164 -3.74719,-2.72204c-0.52557,-0.38224 -0.7455,-1.05888 -0.54455,-1.67721c0.20096,-0.61762 0.77642,-1.0364 1.42636,-1.0364c1.71866,0 3.51954,0 4.63112,0c0.64994,0 1.22612,-0.41807 1.42707,-1.0364c0.34359,-1.05747 0.90008,-2.76982 1.43128,-4.40487z" data-paper-data="{&quot;index&quot;:null}" fill="#ffbc3f" fill-rule="evenodd" stroke="none" stroke-width="1" stroke-linejoin="round" stroke-miterlimit="2"/><text transform="translate(331.66558,98.38423) scale(0.27323,0.27323)" font-size="40" xml:space="preserve" fill="#ffffff" fill-rule="nonzero" stroke="none" stroke-width="1" stroke-linecap="butt" stroke-linejoin="miter" stroke-miterlimit="10" stroke-dasharray="" stroke-dashoffset="0" font-family="Sans Serif" font-weight="normal" text-anchor="start" style="mix-blend-mode: normal"><tspan x="0" dy="0">TO EARN 100+</tspan></text><path d="M409.87245,91.61656l4.77504,-1.09482l2.23991,-3.99836l2.60486,4.21735l4.41009,0.87586l-3.31365,3.73168l0.63417,4.50927l-4.26251,-1.46901l-4.40848,1.46901l0.70715,-4.87423z" fill="url(#color-1)" fill-rule="evenodd" stroke="url(#color-2)" stroke-width="6.5" stroke-linejoin="round" stroke-miterlimit="10"/><path d="M409.87245,91.61656l4.77504,-1.09482l2.23991,-3.99838l2.60486,4.21735l4.41009,0.87586l-3.31365,3.73168l0.63417,4.50927l-4.26249,-1.46901l-4.40846,1.46901l0.70717,-4.87423z" fill="url(#color-3)" fill-rule="evenodd" stroke="#fff0a6" stroke-width="4" stroke-linejoin="round" stroke-miterlimit="10"/><path d="M411.22283,92.08307l3.86337,-0.88582l1.81225,-3.23498l2.10755,3.41214l3.56812,0.70865l-2.681,3.0192l0.51309,3.64837l-3.44869,-1.18856l-3.56679,1.18856l0.57215,-3.94364z" fill="#f2cc41" fill-rule="evenodd" stroke="#f2cc41" stroke-width="2.5" stroke-linejoin="round" stroke-miterlimit="10"/></g></g></svg>