<svg version="1.1" xmlns="http://www.w3.org/2000/svg" xmlns:xlink="http://www.w3.org/1999/xlink" width="33.95097" height="38.94263" viewBox="0,0,33.95097,38.94263"><g transform="translate(-223.02451,-160.52869)"><g data-paper-data="{&quot;isPaintingLayer&quot;:true}" fill-rule="nonzero" stroke-linejoin="miter" stroke-miterlimit="10" stroke-dasharray="" stroke-dashoffset="0" style="mix-blend-mode: normal"><path d="M223.0391,176.62769h33.88023v6.93166h-33.88023z" fill="#2082cf" stroke="none" stroke-width="1" stroke-linecap="butt"/><path d="M240.03537,165.59109c4.67434,0 8.9093,1.89786 11.97507,4.96518c3.06719,3.06563 4.96505,7.30073 4.96505,11.97493c0,4.67434 -1.89786,8.9093 -4.96505,11.97507c-3.06577,3.06719 -7.30073,4.96505 -11.97507,4.96505c-4.67434,0 -8.9093,-1.89786 -11.97507,-4.96505c-3.06719,-3.06577 -4.96505,-7.30073 -4.96505,-11.97507c0,-4.6742 1.89786,-8.9093 4.96505,-11.97493c3.06577,-3.06732 7.30073,-4.96518 11.97507,-4.96518z" fill="#ff7408" stroke="none" stroke-width="1.05974" stroke-linecap="butt"/><path d="M231.95122,188.51053l13.36819,-14.42916l11.03406,12.73161l-0.49512,1.27316l-0.56585,1.62682l-0.9195,1.69755l-0.77805,1.20243l-0.77805,0.9195l-0.84877,0.99024l-0.84877,0.9195l-1.41463,1.06097l-1.48535,0.99024l-1.48535,0.63658l-1.55608,0.63658l-1.69755,0.42439l-1.76828,0.14147z" fill="#ff7408" stroke="none" stroke-width="1" stroke-linecap="round"/><path d="M240.20413,172.70481c2.76106,0 5.26353,1.12123 7.07467,2.93393c1.81256,1.81114 2.93379,4.31361 2.93379,7.07453c0,2.76106 -1.12123,5.26353 -2.93379,7.07467c-1.81114,1.81256 -4.31361,2.93379 -7.07467,2.93379c-2.76092,0 -5.26339,-1.12123 -7.07453,-2.93379c-1.8127,-1.81114 -2.93393,-4.31361 -2.93393,-7.07467c0,-2.76092 1.12123,-5.26339 2.93393,-7.07453c1.81114,-1.8127 4.31361,-2.93393 7.07453,-2.93393z" fill="#ffffff" stroke="#2082cf" stroke-width="2.08856" stroke-linecap="butt"/><path d="M240.23256,173.56744c2.52737,0 4.81736,1.02631 6.47502,2.68467c1.6585,1.65766 2.68467,3.94765 2.68467,6.47502c0,2.5275 -1.02617,4.81736 -2.68467,6.47502c-1.65766,1.6585 -3.94765,2.68467 -6.47502,2.68467c-2.5275,0 -4.81736,-1.02617 -6.47502,-2.68467c-1.6585,-1.65766 -2.68467,-3.9475 -2.68467,-6.47502c0,-2.52737 1.02617,-4.81736 2.68467,-6.47502c1.65766,-1.65836 3.9475,-2.68467 6.47502,-2.68467z" fill="#2082cf" stroke="#2082cf" stroke-width="1.14602" stroke-linecap="butt"/><path d="M235.64452,187.36016h8.91213v6.578l-8.70644,-2.02772z" fill="#2082cf" stroke="none" stroke-width="0.84509" stroke-linecap="butt"/><path d="M242.09987,190.96193l2.02263,-1.30103l1.76021,2.73645l-2.02263,1.30103z" fill="#e3474f" stroke="#ff7408" stroke-width="2" stroke-linecap="butt"/><path d="M235.92291,189.32861l2.10397,2.62299l-3.51746,0.07102z" fill="#ffffff" stroke="#ff7408" stroke-width="2" stroke-linecap="round"/><path d="M239.96463,160.52869c4.67434,0 8.9093,1.89786 11.97507,4.96518c3.06719,3.06563 4.96505,7.30073 4.96505,11.97493c0,4.67434 -1.89786,8.9093 -4.96505,11.97507c-3.06577,3.06719 -7.30073,4.96505 -11.97507,4.96505c-4.67434,0 -8.9093,-1.89786 -11.97507,-4.96505c-3.06719,-3.06577 -4.96505,-7.30073 -4.96505,-11.97507c0,-4.6742 1.89786,-8.9093 4.96505,-11.97493c3.06577,-3.06732 7.30073,-4.96518 11.97507,-4.96518z" fill="#ffa208" stroke="none" stroke-width="1.05974" stroke-linecap="butt"/><path d="M252.95323,176.9282h-4.44366v10.55718h-6.05617v-7.32025h-4.90722v7.32025h-6.05573v-10.55718h-4.44366l12.95344,-11.20376z" fill="#fafafa" stroke="none" stroke-width="0" stroke-linecap="butt"/></g></g></svg>