<svg version="1.1" xmlns="http://www.w3.org/2000/svg" xmlns:xlink="http://www.w3.org/1999/xlink" width="40.60583" height="27.75" viewBox="0,0,40.60583,27.75"><defs><linearGradient x1="379.92582" y1="20.55246" x2="379.92582" y2="36.87354" gradientUnits="userSpaceOnUse" id="color-1"><stop offset="0" stop-color="#ffaa21"/><stop offset="1" stop-color="#ff8c14"/></linearGradient><linearGradient x1="379.92582" y1="20.55246" x2="379.92582" y2="36.87354" gradientUnits="userSpaceOnUse" id="color-2"><stop offset="0" stop-color="#ffaa21"/><stop offset="1" stop-color="#ff8c14"/></linearGradient><linearGradient x1="379.92582" y1="20.55246" x2="379.92582" y2="36.87354" gradientUnits="userSpaceOnUse" id="color-3"><stop offset="0" stop-color="#ffaa21"/><stop offset="1" stop-color="#ff8c14"/></linearGradient></defs><g transform="translate(-368.08948,-15.86719)"><g data-paper-data="{&quot;isPaintingLayer&quot;:true}" stroke-linecap="butt" stroke-miterlimit="10" stroke-dasharray="" stroke-dashoffset="0" style="mix-blend-mode: normal"><g fill-rule="evenodd" stroke-linejoin="round"><path d="M371.33948,26.78657l5.84468,-1.34007l2.74166,-4.89401l3.18836,5.16205l5.39798,1.07206l-4.05593,4.5676l0.77623,5.51937l-5.21733,-1.79808l-5.396,1.79808l0.86556,-5.96609z" fill="url(#color-1)" stroke="url(#color-2)" stroke-width="6.5"/><path d="M371.33948,26.78657l5.84468,-1.34007l2.74166,-4.89403l3.18836,5.16205l5.39798,1.07206l-4.05593,4.5676l0.77623,5.51937l-5.21731,-1.79808l-5.39598,1.79808l0.86558,-5.96609z" fill="url(#color-3)" stroke="#fff0a6" stroke-width="4"/><path d="M372.99235,27.35759l4.72879,-1.08425l2.2182,-3.95963l2.57965,4.17648l4.3674,0.86739l-3.28156,3.69552l0.62802,4.46562l-4.22121,-1.45481l-4.36577,1.45481l0.70032,-4.82704z" fill="#f2cc41" stroke="#f2cc41" stroke-width="2.5"/></g><text transform="translate(396.5,37.5) scale(0.5,0.5)" font-size="40" xml:space="preserve" fill="#ffffff" fill-rule="nonzero" stroke="none" stroke-width="1" stroke-linecap="butt" stroke-linejoin="miter" stroke-miterlimit="10" stroke-dasharray="" stroke-dashoffset="0" font-family="Sans Serif" font-weight="normal" text-anchor="start" style="mix-blend-mode: normal"><tspan x="0" dy="0">=</tspan></text></g></g></svg>