<svg version="1.1" xmlns="http://www.w3.org/2000/svg" xmlns:xlink="http://www.w3.org/1999/xlink" width="86.88558" height="86.88558" viewBox="0,0,86.88558,86.88558"><g transform="translate(-196.55721,-136.55721)"><g data-paper-data="{&quot;isPaintingLayer&quot;:true}" fill-rule="nonzero" stroke-miterlimit="10" stroke-dasharray="" stroke-dashoffset="0" style="mix-blend-mode: normal"><g stroke-width="1.5" stroke-linecap="butt" stroke-linejoin="miter"><path d="M197.30721,180c0,-23.57859 19.1142,-42.69279 42.69279,-42.69279c23.57858,0 42.69279,19.1142 42.69279,42.69279c0,23.57859 -19.11421,42.69279 -42.69279,42.69279c-23.57859,0 -42.69279,-19.1142 -42.69279,-42.69279z" fill="#c75050" stroke="#000000"/><path d="M204.14475,178.33235c0,-20.6313 16.42629,-37.35619 36.68916,-37.35619c20.26287,0 36.68916,16.72491 36.68916,37.35619c0,20.6313 -16.42629,37.35619 -36.68916,37.35619c-20.26287,0 -36.68915,-16.72492 -36.68915,-37.35619z" fill="#ff6666" stroke="none"/><path d="M221.82089,172.32467c0,-14.18402 11.49839,-25.68243 25.68244,-25.68243c14.18402,0 25.68244,11.49839 25.68244,25.68244c0,14.18402 -11.49839,25.68244 -25.68244,25.68244c-14.18402,0 -25.68243,-11.49839 -25.68243,-25.68243z" fill="#ff8585" stroke="none"/></g><g><path d="M239.94622,205.21515c0,-0.80974 0.22714,-1.97296 1.48363,-2.23553c1.81275,-0.38028 3.88684,1.45532 4.45092,1.99538c-0.0417,0.21492 0.66366,4.55127 0.66366,4.92722c0,1.27109 -0.3397,1.32147 -0.47153,1.34235c-1.24117,0.18068 -4.54894,-3.29757 -6.06723,-5.32126c-0.02088,-0.10983 -0.05945,-0.3543 -0.05945,-0.70818z" fill="#ffc93e" stroke="#603813" stroke-width="1.32684" stroke-linecap="butt" stroke-linejoin="miter"/><path d="M234.92014,211.2914c-0.89983,-0.97626 -1.02816,-3.62189 -1.02816,-4.74732c0,-0.47754 0.02438,-0.79516 0.02558,-0.80499l0.00159,-0.02446c0,0 -0.00278,-0.10193 -0.00278,-0.13933c0,-2.11939 1.95131,-2.85511 2.28199,-2.96571c1.12975,0.01376 3.08259,0.54832 3.54869,1.35495c0.04723,0.08105 0.09133,0.18341 0.09133,0.31447c0,0.11499 -0.03424,0.25432 -0.13186,0.42241c-0.0453,0.07713 -0.84753,1.97296 -1.52616,3.42669l-0.48494,1.34429c-0.36297,1.17462 -0.93412,2.35005 -1.55571,2.35005c-0.49124,0.00077 -0.89005,-0.1732 -1.21952,-0.53105z" fill="#ffc93e" stroke="#603813" stroke-width="1.32684" stroke-linecap="butt" stroke-linejoin="miter"/><path d="M260.3696,195.9267l-0.87741,-1.54819c-0.96087,-1.67339 -2.07099,-3.20549 -3.04996,-4.55412c-1.2585,-1.73711 -2.35358,-3.53451 -2.71615,-4.80441c-0.13072,-0.45743 -0.06772,-0.89395 0.12046,-1.13526c0.0181,-0.06499 0.20787,-0.16846 0.34166,-0.19605c1.61238,-0.34837 8.28662,3.48336 9.95174,5.53148c2.4394,2.99958 3.41482,7.20725 2.87083,9.3266c-0.22321,0.86601 -0.72236,1.4797 -1.44506,1.77183c-1.84741,0.74632 -3.06252,-0.60071 -5.19612,-4.3919v0z" fill="#ffc93e" stroke="#603813" stroke-width="1.32684" stroke-linecap="butt" stroke-linejoin="miter"/><path d="M234.09704,166.35699c2.36937,-1.28766 -0.07596,-6.13577 -2.44176,-10.8256c-1.29309,-2.56426 -3.59907,-6.89509 -2.8496,-7.30094c1.4498,-0.78571 8.37599,7.38793 11.18384,10.68229l2.86219,3.2602c0,0 2.04619,2.51024 3.61205,4.16595c0.02759,0.02871 1.50809,-0.20116 2.53079,-1.05108c0.83373,-0.69554 0.72347,-1.47377 0.98882,-3.11056c0.24363,-1.50374 0.50821,-4.22498 1.31517,-4.23874c1.21554,-0.01853 2.01468,4.99178 2.32602,6.84779l0.17201,0.9928c0.40821,2.20752 2.53784,8.84479 2.62917,9.12621c0.02913,0.06849 0.07717,0.15749 0.07717,0.15749l0.01768,0.03583l0.02438,0.0299c3.28855,4.07855 5.73424,9.02385 5.73424,13.65707c0,9.81117 -8.60032,16.71766 -20.11207,16.71766c-2.13513,0 -4.22339,-0.29918 -6.20695,-0.88729l-0.10668,-0.03066c0,0 -3.11368,-0.26181 -7.097,4.97408c-0.79906,1.05101 -0.72787,2.03082 -1.85406,1.72926c-0.37553,-0.10039 -0.65151,-0.37635 -0.87661,-0.87745c-0.53852,-1.19508 -0.141,-4.02658 0.51722,-5.83577l0.10355,-0.28422l-0.23776,-0.18815c-0.05828,-0.04646 -6.51877,-4.75403 -7.1714,-11.49993c-0.56885,-5.88019 2.40161,-9.22815 3.63411,-11.06808l0.70818,-1.17936c0.89395,-2.17489 -0.78851,-5.19963 -2.27332,-7.86852c-0.88647,-1.59346 -2.3174,-3.91868 -1.99419,-4.46511c0.35862,-0.6054 1.64034,0.03899 2.9346,0.65626c1.04946,0.50151 2.05917,1.21003 2.76022,0.74277c0.72906,-0.48536 0.25075,-1.70448 -0.41173,-3.39203c-0.62313,-1.58479 -1.80291,-4.08834 -1.34983,-5.12166c0.12478,-0.28422 0.34367,-0.48382 0.66919,-0.61014c1.2038,-0.46607 2.92477,1.5616 4.3179,3.14758c1.69937,1.93636 3.62663,4.13052 5.8645,2.91217v0z" fill="#ffc93e" stroke="#603813" stroke-width="1.32684" stroke-linecap="round" stroke-linejoin="round"/><g stroke="none" stroke-width="0.66342" stroke-linecap="butt" stroke-linejoin="miter"><path d="M236.08375,189.504v0c0,-1.77056 1.4352,-3.2066 3.20626,-3.20737c1.77021,0 3.20541,1.43682 3.20541,3.20737c0,1.76944 -1.43485,3.2043 -3.20541,3.2043c-1.77063,0 -3.20626,-1.43485 -3.20626,-3.2043z" fill="#ffffff"/><path d="M239.72144,187.16102c0.62231,0 1.18641,0.25276 1.59465,0.66134c0.40858,0.40821 0.6613,0.97226 0.6613,1.59465c0,0.62239 -0.25272,1.18649 -0.6613,1.59465c-0.40821,0.40863 -0.97234,0.66134 -1.59465,0.66134c-0.62239,0 -1.18649,-0.25271 -1.59465,-0.66134c-0.40863,-0.40816 -0.66135,-0.97226 -0.66135,-1.59465c0,-0.62239 0.25272,-1.18642 0.66135,-1.59465c0.40816,-0.40858 0.97226,-0.66134 1.59465,-0.66134z" fill="#603813"/></g><g stroke="none" stroke-width="0.66342" stroke-linecap="butt" stroke-linejoin="miter"><path d="M251.5272,189.504v0c0,-1.77056 1.4352,-3.2066 3.2066,-3.20737c1.77021,0 3.20548,1.43682 3.20548,3.20737c0,1.76944 -1.43604,3.2043 -3.20548,3.2043c-1.7714,0 -3.2066,-1.43485 -3.2066,-3.2043z" fill="#ffffff"/><path d="M252.90852,189.41702v0c0,-1.24552 1.00929,-2.25599 2.25557,-2.25599c1.24544,0 2.25594,1.0109 2.25594,2.25599c0,1.2467 -1.01048,2.25514 -2.25594,2.25514c-1.24629,0 -2.25557,-1.00929 -2.25557,-2.25514z" fill="#603813"/></g><path d="M213.94839,201.8798c-0.65703,-0.41961 -1.03572,-1.11242 -1.0967,-2.00601c-0.14839,-2.1851 1.58089,-6.1424 4.52647,-8.64519c2.01153,-1.70922 9.27426,-4.2553 10.79533,-3.61881c0.12555,0.05274 0.294,0.1882 0.29917,0.25669c0.14211,0.27081 0.12317,0.71054 -0.089,1.13645c-0.58807,1.18249 -1.99337,2.75037 -3.54908,4.22617c-1.20926,1.151 -2.57955,2.4508 -3.82934,3.92183l-1.14631,1.35807c-2.78978,3.33893 -4.23245,4.44346 -5.91054,3.3708z" fill="#ffc93e" stroke="#603813" stroke-width="1.32684" stroke-linecap="butt" stroke-linejoin="miter"/><path d="M249.992,199.59353c0,0 -2.91811,0.00231 -4.96152,-1.74897" fill="none" stroke="#603813" stroke-width="1.32684" stroke-linecap="round" stroke-linejoin="round"/></g></g></g></svg>