<svg version="1.1" xmlns="http://www.w3.org/2000/svg" xmlns:xlink="http://www.w3.org/1999/xlink" width="60.75414" height="69.49224" viewBox="0,0,60.75414,69.49224"><defs><radialGradient cx="237.33562" cy="174.07786" r="16.20662" gradientUnits="userSpaceOnUse" id="color-1"><stop offset="0" stop-color="#ff6a00"/><stop offset="1" stop-color="#ff4343"/></radialGradient><linearGradient x1="230.67582" y1="202.36665" x2="230.67582" y2="210.58826" gradientUnits="userSpaceOnUse" id="color-2"><stop offset="0" stop-color="#ffaa21"/><stop offset="1" stop-color="#ff8c14"/></linearGradient><linearGradient x1="230.67582" y1="202.36665" x2="230.67582" y2="210.58826" gradientUnits="userSpaceOnUse" id="color-3"><stop offset="0" stop-color="#ffaa21"/><stop offset="1" stop-color="#ff8c14"/></linearGradient><linearGradient x1="230.67582" y1="202.36665" x2="230.67582" y2="210.58826" gradientUnits="userSpaceOnUse" id="color-4"><stop offset="0" stop-color="#ffaa21"/><stop offset="1" stop-color="#ff8c14"/></linearGradient></defs><g transform="translate(-209.62293,-145.26771)"><g data-paper-data="{&quot;isPaintingLayer&quot;:true}" stroke-miterlimit="10" stroke-dasharray="" stroke-dashoffset="0" style="mix-blend-mode: normal"><g fill-rule="nonzero" stroke-linecap="butt" stroke-linejoin="miter"><path d="M256.42267,175.72382c0,8.81402 -7.25595,15.95919 -16.20662,15.95919c-8.95067,0 -16.20661,-7.14517 -16.20661,-15.95919c0,-8.81402 7.25595,-15.95919 16.20662,-15.95919c8.95067,0 16.20662,7.14517 16.20662,15.95919z" fill="url(#color-1)" stroke="#ff0000" stroke-width="2"/><g fill="#ffffff" stroke="none" stroke-width="0"><path d="M236.72888,173.96572c0,0 3.34348,0.16677 3.45183,0.28284c0.16324,0.17488 -8.41498,11.31356 -9.02166,11.34744c-0.25308,0.01413 2.98763,-8.30793 2.83807,-8.56139c-0.13907,-0.23569 -2.42978,-0.20557 -2.42978,-0.21019c0,-0.21334 4.04982,-9.29077 4.04982,-9.29077c0,0 4.2706,-0.0794 6.59089,-0.0794c2.53164,0 8.17906,0.23823 8.17906,0.23823l-2.62047,3.17633c0,0 -6.89874,0.2227 -8.87363,0.06805c-0.62207,-0.04871 -2.16413,3.02887 -2.16413,3.02887z"/><path d="M239.11113,176.90382l2.06462,-2.69987h4.44687l-2.30284,2.69987z"/></g></g><path d="M215.47203,145.46144c6.59439,0.00656 33.43594,0.03324 47.00157,0.04672c4.79288,0.00476 7.91594,3.09165 7.90343,6.14998c-0.0285,6.96813 -0.14338,35.06052 -0.19427,47.50306c-0.01502,3.67263 -2.47757,5.98569 -6.36553,5.99187c-13.18851,0.02097 -42.8874,0.06818 -49.35265,0.07846c-2.43679,0.00387 -4.71814,-2.66254 -4.71707,-5.40581c0.00268,-6.8812 0.01442,-36.93038 0.01919,-49.16203c0.00126,-3.2222 2.82972,-5.20512 5.70533,-5.20226z" data-paper-data="{&quot;origRot&quot;:0,&quot;index&quot;:null}" fill="#000000" fill-rule="evenodd" stroke="none" stroke-width="1" stroke-linecap="round" stroke-linejoin="round" opacity="0.42445"/><path d="M215.34746,145.26772c6.59439,0.00655 33.43594,0.03324 47.00157,0.04673c4.79287,0.00476 7.91594,3.09165 7.90343,6.14998c-0.0285,6.96812 -0.14338,35.06052 -0.19427,47.50306c-0.01502,3.67264 -2.47757,5.98569 -6.36554,5.99187c-13.18851,0.02096 -42.88739,0.06818 -49.35265,0.07846c-2.43679,0.00387 -4.71814,-2.66254 -4.71707,-5.40581c0.00269,-6.8812 0.01442,-36.93038 0.01919,-49.16202c0.00126,-3.22221 2.82972,-5.20513 5.70533,-5.20227z" data-paper-data="{&quot;origRot&quot;:0,&quot;index&quot;:null}" fill="#000000" fill-rule="evenodd" stroke="none" stroke-width="1" stroke-linecap="round" stroke-linejoin="round" opacity="0.42445"/><path d="M215.41551,145.45538c6.59439,0.0066 33.43594,0.03348 47.00157,0.04706c4.79287,0.0048 7.91594,3.11399 7.90343,6.19444c-0.0285,7.0185 -0.14338,35.31396 -0.19427,47.84645c-0.01502,3.69918 -2.47757,6.02896 -6.36554,6.03519c-13.18851,0.02112 -42.8874,0.06867 -49.35265,0.07903c-2.43679,0.0039 -4.71814,-2.68179 -4.71707,-5.44489c0.00269,-6.93095 0.01442,-37.19735 0.01919,-49.51741c0.00126,-3.2455 2.82972,-5.24275 5.70533,-5.23987z" data-paper-data="{&quot;origRot&quot;:0,&quot;index&quot;:null}" fill="#000000" fill-rule="evenodd" stroke="none" stroke-width="1" stroke-linecap="round" stroke-linejoin="round" opacity="0.42445"/><text transform="translate(227.21751,185.21751) scale(0.625,0.625)" font-size="40" xml:space="preserve" fill="#9966ff" fill-rule="nonzero" stroke="none" stroke-width="1" stroke-linecap="butt" stroke-linejoin="miter" stroke-miterlimit="10" stroke-dasharray="" stroke-dashoffset="0" font-family="Sans Serif" font-weight="normal" text-anchor="start" style="mix-blend-mode: normal"><tspan x="0" dy="0">🔒</tspan></text><path d="M216.22311,206.38477c0.08847,-4.6005 4.04058,-8.05913 7.98013,-8.05913c5.79891,0 22.44949,0 32.71065,0c4.9794,0 8.13815,3.24293 8.13815,7.90112c0,4.6582 -3.15609,8.5332 -8.13815,8.5332c-10.36204,0 -27.25579,0 -33.0267,0c-3.82167,0 -7.75257,-3.7747 -7.66408,-8.3752z" fill="#e63c3c" fill-rule="nonzero" stroke="none" stroke-width="0.5" stroke-linecap="butt" stroke-linejoin="miter"/><text transform="translate(239.752,210.7824) scale(0.31367,0.31367)" font-size="40" xml:space="preserve" fill="#ffffff" fill-rule="nonzero" stroke="none" stroke-width="1" stroke-linecap="butt" stroke-linejoin="miter" stroke-miterlimit="10" stroke-dasharray="" stroke-dashoffset="0" font-family="Sans Serif" font-weight="normal" text-anchor="start" style="mix-blend-mode: normal"><tspan x="0" dy="0">60</tspan></text><g fill-rule="evenodd" stroke-linecap="butt" stroke-linejoin="round"><path d="M226.35052,205.50703l2.94421,-0.67505l1.38109,-2.46532l1.60611,2.60034l2.71919,0.54004l-2.04314,2.30089l0.39102,2.78034l-2.62819,-0.90577l-2.71819,0.90577l0.43602,-3.00537z" fill="url(#color-2)" stroke="url(#color-3)" stroke-width="6.5"/><path d="M226.35052,205.50703l2.94421,-0.67505l1.38109,-2.46533l1.60611,2.60034l2.71919,0.54004l-2.04314,2.30089l0.39102,2.78034l-2.62818,-0.90577l-2.71818,0.90577l0.43603,-3.00537z" fill="url(#color-4)" stroke="#fff0a6" stroke-width="4"/><path d="M227.18314,205.79468l2.38209,-0.54618l1.1174,-1.99463l1.29948,2.10387l2.20004,0.43694l-1.65306,1.86159l0.31636,2.24952l-2.1264,-0.73285l-2.19922,0.73285l0.35278,-2.43158z" fill="#f2cc41" stroke="#f2cc41" stroke-width="2.5"/></g></g></g></svg>