<svg version="1.1" xmlns="http://www.w3.org/2000/svg" xmlns:xlink="http://www.w3.org/1999/xlink" width="720" height="540" viewBox="0,0,720,540"><defs><clipPath id="clip-1"><path d="M-120,450v-540h720v540z" fill="none" fill-rule="nonzero" stroke-linecap="butt"/></clipPath></defs><g transform="translate(120,90)"><g clip-path="url(#clip-1)" data-paper-data="{&quot;isPaintingLayer&quot;:true}" stroke="none" stroke-width="1" stroke-linejoin="miter" stroke-miterlimit="10" stroke-dasharray="" stroke-dashoffset="0" style="mix-blend-mode: normal"><path d="M-240,-180h960v720h-960z" fill-opacity="0" fill="#000000" fill-rule="evenodd" stroke-linecap="square"/><path d="M167.77355,186.03606c-0.52157,0 -0.9055,-0.17748 -1.1518,-0.53243c-0.2463,-0.35858 -0.2463,-0.80408 0,-1.33652l4.15624,-8.94815c0.19921,-0.43464 0.44369,-0.75157 0.73345,-0.95077c0.28976,-0.19921 0.63023,-0.29881 1.0214,-0.29881c0.37669,0 0.70991,0.09961 0.99967,0.29881c0.28976,0.19921 0.53425,0.51613 0.73345,0.95077l4.15624,8.94815c0.25716,0.5433 0.26803,0.99062 0.0326,1.34195c-0.23181,0.35133 -0.59944,0.527 -1.1029,0.527c-0.44551,0 -0.78778,-0.09961 -1.02684,-0.29881c-0.23905,-0.20283 -0.45275,-0.527 -0.64109,-0.97251l-0.53243,-1.26589h-5.25914l-0.53243,1.26589c-0.19921,0.44551 -0.40566,0.76967 -0.61936,0.97251c-0.21008,0.19921 -0.53243,0.29881 -0.96707,0.29881zM172.49483,177.32153l-1.60273,3.82483h3.23807l-1.5973,-3.82483zM185.08081,186.06866c-1.71321,0 -3.02437,-0.43283 -3.93349,-1.29848c-0.9055,-0.86928 -1.35825,-2.16777 -1.35825,-3.89546v-5.35694c0,-0.49984 0.13401,-0.88196 0.40204,-1.14636c0.26803,-0.26803 0.64653,-0.40204 1.1355,-0.40204c0.48897,0 0.86566,0.13401 1.13006,0.40204c0.26803,0.26441 0.40204,0.64653 0.40204,1.14636v5.39497c0,0.85479 0.18834,1.49951 0.56503,1.93415c0.38031,0.43464 0.93266,0.65196 1.65706,0.65196c0.71353,0 1.25864,-0.21732 1.63533,-0.65196c0.38031,-0.43464 0.57046,-1.07936 0.57046,-1.93415v-5.39497c0,-0.49984 0.13039,-0.88196 0.39118,-1.14636c0.26078,-0.26803 0.63566,-0.40204 1.12463,-0.40204c0.48897,0 0.86204,0.13401 1.1192,0.40204c0.25716,0.26441 0.38574,0.64653 0.38574,1.14636v5.35694c0,1.72769 -0.44369,3.02618 -1.33108,3.89546c-0.88377,0.86565 -2.18225,1.29848 -3.89546,1.29848zM196.6632,186.03606c-0.48897,0 -0.86747,-0.13401 -1.1355,-0.40204c-0.26441,-0.26803 -0.39661,-0.65196 -0.39661,-1.1518v-7.86155h-2.62414c-0.84393,0 -1.26589,-0.41653 -1.26589,-1.24959c0,-0.83668 0.42196,-1.25502 1.26589,-1.25502h8.31249c0.84755,0 1.27132,0.41834 1.27132,1.25502c0,0.83306 -0.42377,1.24959 -1.27132,1.24959h-2.61871v7.86155c0,0.49984 -0.1322,0.88377 -0.39661,1.1518c-0.26078,0.26803 -0.64109,0.40204 -1.14093,0.40204zM208.09651,186.06866c-1.19164,0 -2.23477,-0.25354 -3.12941,-0.76061c-0.89463,-0.50708 -1.59368,-1.21699 -2.09714,-2.12974c-0.49984,-0.91274 -0.74975,-1.97399 -0.74975,-3.18374c0,-1.22424 0.24811,-2.2891 0.74432,-3.1946c0.49621,-0.90912 1.19345,-1.6136 2.0917,-2.11344c0.90188,-0.50346 1.94863,-0.75519 3.14027,-0.75519c1.19164,0 2.23477,0.25173 3.12941,0.75519c0.89463,0.49984 1.59187,1.20431 2.0917,2.11344c0.50346,0.9055 0.75519,1.97037 0.75519,3.1946c0,1.20975 -0.25173,2.27099 -0.75519,3.18374c-0.49984,0.91274 -1.19707,1.62266 -2.0917,2.12974c-0.89463,0.50708 -1.93777,0.76061 -3.12941,0.76061zM208.09651,183.49885c0.86928,0 1.55022,-0.30787 2.04281,-0.92361c0.49621,-0.61936 0.74432,-1.47959 0.74432,-2.58067c0,-1.10471 -0.24448,-1.96131 -0.73345,-2.56981c-0.48897,-0.61212 -1.17353,-0.91818 -2.05367,-0.91818c-0.88015,0 -1.5647,0.30606 -2.05367,0.91818c-0.48897,0.6085 -0.73345,1.4651 -0.73345,2.56981c0,1.10109 0.24448,1.96131 0.73345,2.58067c0.48897,0.61574 1.17353,0.92361 2.05367,0.92361zM222.19896,186.03606c-0.48897,0 -0.86747,-0.13401 -1.1355,-0.40204c-0.26441,-0.26803 -0.39661,-0.65196 -0.39661,-1.1518v-8.81232c0,-0.49984 0.1322,-0.88377 0.39661,-1.1518c0.26803,-0.26803 0.65196,-0.40204 1.1518,-0.40204h4.10735c1.33652,0 2.36879,0.34228 3.09681,1.02684c0.72802,0.68456 1.09203,1.62809 1.09203,2.83059c0,1.2025 -0.36401,2.14603 -1.09203,2.83059c-0.72802,0.68456 -1.76029,1.02684 -3.09681,1.02684h-2.58611v2.6513c0,0.49984 -0.1322,0.88377 -0.39661,1.1518c-0.26078,0.26803 -0.64109,0.40204 -1.14093,0.40204zM223.7365,179.473h2.05367c1.19888,0 1.79832,-0.49984 1.79832,-1.49951c0,-1.00329 -0.59944,-1.50494 -1.79832,-1.50494h-2.05367zM233.49784,185.88394c-0.49984,0 -0.88377,-0.13582 -1.1518,-0.40747c-0.26441,-0.27527 -0.39661,-0.65739 -0.39661,-1.14636v-8.6765c0,-0.49984 0.1322,-0.88377 0.39661,-1.1518c0.26803,-0.26803 0.64653,-0.40204 1.1355,-0.40204c0.48897,0 0.86747,0.13401 1.1355,0.40204c0.26803,0.26803 0.40204,0.65196 0.40204,1.1518v7.67683h4.06932c0.42377,0 0.74975,0.11228 0.97794,0.33685c0.22819,0.22094 0.34228,0.53062 0.34228,0.92904c0,0.41291 -0.11409,0.73164 -0.34228,0.95621c-0.22819,0.22094 -0.55417,0.33141 -0.97794,0.33141zM242.11173,186.03606c-0.52157,0 -0.9055,-0.17748 -1.1518,-0.53243c-0.2463,-0.35858 -0.2463,-0.80408 0,-1.33652l4.15624,-8.94815c0.19921,-0.43464 0.44369,-0.75157 0.73345,-0.95077c0.28976,-0.19921 0.63023,-0.29881 1.0214,-0.29881c0.37669,0 0.70991,0.09961 0.99967,0.29881c0.28976,0.19921 0.53425,0.51613 0.73345,0.95077l4.15624,8.94815c0.25716,0.5433 0.26803,0.99062 0.0326,1.34195c-0.23181,0.35133 -0.59944,0.527 -1.1029,0.527c-0.44551,0 -0.78778,-0.09961 -1.02684,-0.29881c-0.23905,-0.20283 -0.45275,-0.527 -0.64109,-0.97251l-0.53243,-1.26589h-5.25914l-0.53243,1.26589c-0.19921,0.44551 -0.40566,0.76967 -0.61936,0.97251c-0.21008,0.19921 -0.53243,0.29881 -0.96707,0.29881zM246.83301,177.32153l-1.60273,3.82483h3.23807l-1.5973,-3.82483zM257.5157,186.03606c-0.48897,0 -0.86747,-0.13582 -1.1355,-0.40747c-0.26441,-0.27527 -0.39661,-0.66826 -0.39661,-1.17896v-3.7705l-3.20547,-4.63978c-0.18834,-0.26803 -0.26984,-0.56322 -0.24448,-0.88558c0.02898,-0.32236 0.16299,-0.59944 0.40204,-0.83125c0.23905,-0.23543 0.58133,-0.35314 1.02684,-0.35314c0.31149,0 0.59401,0.07787 0.84755,0.23362c0.25716,0.15575 0.49802,0.40566 0.72259,0.74975l2.03194,2.98815l2.03737,-3.00445c0.23543,-0.34409 0.47448,-0.59039 0.71716,-0.73889c0.2463,-0.15212 0.53606,-0.22819 0.86928,-0.22819c0.42377,0 0.75157,0.10504 0.98337,0.31511c0.23543,0.21008 0.36039,0.4781 0.37488,0.80408c0.01811,0.32236 -0.08331,0.65015 -0.30425,0.98337l-3.18917,4.60718v3.7705c0,1.05762 -0.51251,1.58644 -1.53754,1.58644zM270.28345,186.03606c-0.48897,0 -0.86747,-0.13401 -1.1355,-0.40204c-0.26441,-0.26803 -0.39661,-0.65739 -0.39661,-1.16809v-8.93185c0,-0.5107 0.1322,-0.89826 0.39661,-1.16266c0.26803,-0.26803 0.64653,-0.40204 1.1355,-0.40204c0.48897,0 0.86747,0.13401 1.1355,0.40204c0.26803,0.26441 0.40204,0.65196 0.40204,1.16266v8.93185c0,0.5107 -0.1322,0.90007 -0.39661,1.16809c-0.26078,0.26803 -0.64109,0.40204 -1.14093,0.40204zM278.32683,186.06866c-0.67731,0 -1.37455,-0.06882 -2.0917,-0.20645c-0.71716,-0.14126 -1.3329,-0.34047 -1.84722,-0.59763c-0.297,-0.14488 -0.50708,-0.33866 -0.63023,-0.58133c-0.12315,-0.2463 -0.16842,-0.49984 -0.13582,-0.76062c0.0326,-0.26078 0.12677,-0.4944 0.28252,-0.70086c0.15575,-0.20645 0.3622,-0.3459 0.61936,-0.41834c0.25716,-0.07244 0.54692,-0.03622 0.86928,0.10866c0.42377,0.2137 0.90188,0.37307 1.43431,0.4781c0.53243,0.10504 1.03227,0.15756 1.49951,0.15756c0.73527,0 1.24959,-0.09779 1.54297,-0.29338c0.297,-0.19559 0.44551,-0.43645 0.44551,-0.72259c0,-0.25716 -0.10323,-0.46362 -0.30968,-0.61936c-0.20645,-0.15575 -0.57046,-0.28976 -1.09203,-0.40204l-1.95045,-0.41834c-2.11525,-0.45637 -3.17287,-1.56289 -3.17287,-3.31956c0,-0.76786 0.20827,-1.43974 0.62479,-2.01564c0.41653,-0.57952 0.99786,-1.02865 1.74399,-1.34738c0.74613,-0.31874 1.6136,-0.4781 2.60241,-0.4781c0.57952,0 1.16628,0.0652 1.76029,0.19559c0.59763,0.12677 1.11376,0.31874 1.5484,0.5759c0.33322,0.17748 0.5433,0.42015 0.63023,0.72802c0.09055,0.30425 0.07968,0.60125 -0.0326,0.89101c-0.11228,0.28976 -0.30968,0.50165 -0.5922,0.63566c-0.28252,0.13039 -0.64109,0.10685 -1.07573,-0.07063c-0.33322,-0.14488 -0.70086,-0.25354 -1.1029,-0.32598c-0.39842,-0.07244 -0.78778,-0.10866 -1.16809,-0.10866c-0.62298,0 -1.10109,0.10866 -1.43431,0.32598c-0.33322,0.21732 -0.49984,0.49802 -0.49984,0.84211c0,0.2463 0.09961,0.44732 0.29881,0.60306c0.19921,0.15575 0.55598,0.28976 1.0703,0.40204l1.93415,0.41291c2.14785,0.45637 3.22177,1.53573 3.22177,3.23807c0,0.76786 -0.20645,1.43612 -0.61936,2.00478c-0.40929,0.56865 -0.98699,1.00873 -1.73313,1.32022c-0.74613,0.31149 -1.62628,0.46723 -2.64044,0.46723zM295.26946,186.06866c-1.19164,0 -2.23477,-0.25354 -3.12941,-0.76061c-0.89463,-0.50708 -1.59368,-1.21699 -2.09714,-2.12974c-0.49984,-0.91274 -0.74975,-1.97399 -0.74975,-3.18374c0,-1.22424 0.24811,-2.2891 0.74432,-3.1946c0.49621,-0.90912 1.19345,-1.6136 2.0917,-2.11344c0.90188,-0.50346 1.94863,-0.75519 3.14027,-0.75519c1.19164,0 2.23477,0.25173 3.12941,0.75519c0.89463,0.49984 1.59187,1.20431 2.0917,2.11344c0.50346,0.9055 0.75519,1.97037 0.75519,3.1946c0,1.20975 -0.25173,2.27099 -0.75519,3.18374c-0.49984,0.91274 -1.19707,1.62266 -2.0917,2.12974c-0.89463,0.50708 -1.93777,0.76061 -3.12941,0.76061zM295.26946,183.49885c0.86928,0 1.55022,-0.30787 2.04281,-0.92361c0.49621,-0.61936 0.74432,-1.47959 0.74432,-2.58067c0,-1.10471 -0.24448,-1.96131 -0.73345,-2.56981c-0.48897,-0.61212 -1.17353,-0.91818 -2.05367,-0.91818c-0.88015,0 -1.5647,0.30606 -2.05367,0.91818c-0.48897,0.6085 -0.73345,1.4651 -0.73345,2.56981c0,1.10109 0.24448,1.96131 0.73345,2.58067c0.48897,0.61574 1.17353,0.92361 2.05367,0.92361zM304.50072,186.03606c-0.95621,0 -1.43431,-0.48535 -1.43431,-1.45604v-9.09484c0,-0.48897 0.12134,-0.86385 0.36401,-1.12463c0.2463,-0.26078 0.56865,-0.39118 0.96707,-0.39118c0.35858,0 0.63385,0.06701 0.82582,0.20102c0.19559,0.13039 0.42196,0.35133 0.67912,0.66283l4.8245,6.0252v-5.45473c0,-0.95621 0.47267,-1.43431 1.41801,-1.43431c0.46724,0 0.82038,0.12496 1.05943,0.37488c0.23905,0.24992 0.35858,0.60306 0.35858,1.05943v9.24696c0,0.42015 -0.11228,0.757 -0.33685,1.01054c-0.22094,0.24992 -0.51976,0.37488 -0.89644,0.37488c-0.38031,0 -0.67912,-0.06701 -0.89644,-0.20102c-0.21732,-0.13401 -0.44732,-0.35677 -0.68999,-0.66826l-4.8245,-6.0252v5.43843c0,0.9707 -0.47267,1.45604 -1.41801,1.45604z" fill="#ffffff" fill-rule="nonzero" stroke-linecap="square"/></g></g></svg>