<svg version="1.1" xmlns="http://www.w3.org/2000/svg" xmlns:xlink="http://www.w3.org/1999/xlink" width="479.95638" height="103.37595" viewBox="0,0,479.95638,103.37595"><defs><radialGradient cx="393.33047" cy="158.85661" r="2.9985" gradientUnits="userSpaceOnUse" id="color-1"><stop offset="0" stop-color="#ffffff"/><stop offset="1" stop-color="#ffffff" stop-opacity="0"/></radialGradient><radialGradient cx="421.13013" cy="179.9844" r="25.07403" gradientUnits="userSpaceOnUse" id="color-2"><stop offset="0" stop-color="#ff8a00"/><stop offset="1" stop-color="#ffa100"/></radialGradient><radialGradient cx="399.29043" cy="160.18782" r="15.08222" gradientUnits="userSpaceOnUse" id="color-3"><stop offset="0" stop-color="#ffc600"/><stop offset="1" stop-color="#ffa100"/></radialGradient><radialGradient cx="395.05755" cy="166.8915" r="5.95784" gradientUnits="userSpaceOnUse" id="color-4"><stop offset="0" stop-color="#ffde00"/><stop offset="1" stop-color="#ffde00" stop-opacity="0"/></radialGradient><linearGradient x1="72.50001" y1="157.83944" x2="72.50001" y2="202.61498" gradientUnits="userSpaceOnUse" id="color-5"><stop offset="0" stop-color="#ffaa21"/><stop offset="1" stop-color="#ff8c14"/></linearGradient><linearGradient x1="72.50001" y1="157.83944" x2="72.50001" y2="202.61498" gradientUnits="userSpaceOnUse" id="color-6"><stop offset="0" stop-color="#ffaa21"/><stop offset="1" stop-color="#ff8c14"/></linearGradient><linearGradient x1="72.50001" y1="157.83944" x2="72.50001" y2="202.61498" gradientUnits="userSpaceOnUse" id="color-7"><stop offset="0" stop-color="#ffaa21"/><stop offset="1" stop-color="#ff8c14"/></linearGradient></defs><g transform="translate(-0.27181,-128.31204)"><g data-paper-data="{&quot;isPaintingLayer&quot;:true}" stroke-miterlimit="10" stroke-dasharray="" stroke-dashoffset="0" style="mix-blend-mode: normal"><path d="M479.72816,132.15802c-0.04378,9.36288 -0.3584,76.61856 -0.44411,94.94374c-0.01367,2.92269 -7.37629,4.59433 -16.73968,4.5862c-42.67288,-0.03709 -358.55683,-0.31163 -441.59,-0.38379c-12.6953,-0.01103 -19.96184,-1.95835 -19.97966,-4.34264c-0.07324,-9.79152 -0.5662,-75.68918 -0.70285,-93.96134c-0.02229,-2.97698 7.03177,-4.68918 19.42561,-4.68815c82.00279,0.0068 397.20469,0.03294 441.65829,0.03663c10.21933,0.00085 18.38236,1.68607 18.37243,3.80935z" data-paper-data="{&quot;origRot&quot;:0,&quot;index&quot;:null}" fill="#000000" fill-rule="evenodd" stroke="none" stroke-width="1" stroke-linecap="round" stroke-linejoin="round" opacity="0.42445"/><path d="M480.22816,132.15802c-0.04378,9.36288 -0.35839,76.61856 -0.44411,94.94374c-0.01367,2.92269 -7.37629,4.59433 -16.73968,4.5862c-42.67288,-0.03709 -358.55683,-0.31162 -441.59,-0.38379c-12.6953,-0.01103 -19.96184,-1.95835 -19.97966,-4.34264c-0.07325,-9.79152 -0.5662,-75.68918 -0.70286,-93.96134c-0.02229,-2.97697 7.03177,-4.68918 19.42561,-4.68815c82.00279,0.0068 397.20469,0.03295 441.65829,0.03663c10.21933,0.00085 18.38236,1.68608 18.37243,3.80935z" data-paper-data="{&quot;origRot&quot;:0,&quot;index&quot;:null}" fill="#000000" fill-rule="evenodd" stroke="none" stroke-width="1" stroke-linecap="round" stroke-linejoin="round" opacity="0.42445"/><text transform="translate(118.25,212.5) scale(0.8467,0.8467)" font-size="40" xml:space="preserve" fill="#ffffff" fill-rule="nonzero" stroke="none" stroke-width="1" stroke-linecap="butt" stroke-linejoin="miter" stroke-miterlimit="10" stroke-dasharray="" stroke-dashoffset="0" font-family="Malgun Gothic" font-weight="normal" text-anchor="start" style="mix-blend-mode: normal"><tspan x="0" dy="0">IN THIS ROUND</tspan></text><text transform="translate(165.82356,174.4992) scale(0.87493,0.87493)" font-size="40" xml:space="preserve" fill="#ffffff" fill-rule="nonzero" stroke="none" stroke-width="1" stroke-linecap="butt" stroke-linejoin="miter" stroke-miterlimit="10" stroke-dasharray="" stroke-dashoffset="0" font-family="Malgun Gothic" font-weight="normal" text-anchor="start" style="mix-blend-mode: normal"><tspan x="0" dy="0">10 STARS</tspan></text><g fill-rule="nonzero" stroke-linecap="butt" stroke-linejoin="miter"><path d="M398.21994,155.50116c1.22981,1.10905 -0.88344,3.04612 -1.90717,4.18133c-1.02373,1.13521 -3.09258,2.2566 -4.32238,1.14756c-1.22981,-1.10905 -0.0568,-4.9018 0.96693,-6.03701c1.02373,-1.13521 4.03281,-0.40092 5.26262,0.70812z" fill="url(#color-1)" stroke="none" stroke-width="NaN"/><path d="M399.02284,209.08392c-15.5103,-4.40565 -24.51243,-20.55073 -20.10676,-36.06106c4.40566,-15.5103 20.55074,-24.51244 36.06104,-20.10676c15.51033,4.40565 24.51246,20.55074 20.10678,36.06105c-4.40565,15.5103 -20.55075,24.51244 -36.06106,20.10676z" fill="#9f2c00" stroke="none" stroke-width="0"/><path d="M431.1487,172.90735c1.58095,4.70353 1.80669,9.91715 0.34845,15.05099c-3.84299,13.52939 -17.92607,21.3818 -31.45547,17.53883c-7.52762,-2.1382 -13.29781,-7.44643 -16.27396,-14.06553c-2.37288,-5.27739 -2.96966,-11.38815 -1.26486,-17.38994c3.84299,-13.52939 17.92606,-21.3818 31.45547,-17.53883c8.39555,2.38473 14.60505,8.71261 17.19038,16.40449z" data-paper-data="{&quot;index&quot;:null}" fill="#ff6700" stroke="#ffffff" stroke-width="0"/><path d="M413.65669,156.66608c4.77082,1.35513 8.81466,3.93681 11.86893,7.29063c2.83571,3.11378 4.33097,5.44968 5.25043,9.53074c0.35852,1.5914 0.9105,5.99265 0.139,9.20792c-1.34512,5.26519 -1.22811,4.47727 -3.4032,8.71819c-2.99448,4.28283 -3.02015,4.323 -6.49541,7.15955c-3.2067,2.41488 -4.65194,3.14441 -7.3333,4.30372c-2.65389,0.70234 -4.01113,1.46443 -8.32935,1.48448c-4.85643,-0.22416 -4.88379,-0.33182 -7.26906,-1.08674c-3.38785,-0.71826 -3.92055,-2.07329 -6.95696,-3.10941c-7.52667,-6.02431 -11.25559,-16.1859 -8.39508,-26.25654c3.77805,-13.30081 17.6232,-21.02052 30.92402,-17.2425z" data-paper-data="{&quot;index&quot;:null}" fill="url(#color-2)" stroke="#ffffff" stroke-width="0"/><path d="M388.46444,176.22528c-1.52193,-8.18947 3.88315,-16.0621 12.07261,-17.58405c8.18946,-1.52194 16.06212,3.88315 17.58405,12.07261c1.52193,8.18947 -3.88313,16.06211 -12.07261,17.58405c-8.18946,1.52194 -16.06211,-3.88315 -17.58405,-12.07262z" fill="url(#color-3)" stroke="#9f2c00" stroke-width="0"/><path d="M427.06587,164.60031c0,0 -2.39572,1.36981 -2.69533,1.49862c-5.4563,4.33073 -13.35956,14.55486 -17.65891,20.16597c-4.84176,3.85637 -7.53145,3.841 -13.46421,2.21991c-0.11843,1.04035 -0.19874,2.08085 -0.23185,3.11842c2.53193,0.99436 5.18623,1.73332 8.17693,2.56785c7.65701,2.17856 18.98028,-0.18705 26.20916,-3.61332c0.32668,-0.09573 4.24698,-1.85827 4.24698,-1.85827l-0.88771,2.33845c-0.31287,0.09071 -2.4979,1.08553 -2.81079,1.17626c-7.59199,3.55418 -19.0847,5.43497 -27.24147,3.66012c-2.78973,-0.80947 -5.3034,-1.52074 -7.69995,-2.41321c0.0243,0.94231 0.09239,1.88066 0.21121,2.8127c4.06685,0.74173 8.20348,1.90387 11.67205,3.70967c2.54733,1.33918 4.32279,3.38869 7.06018,4.46538l3.63341,0.69445l-3.19256,0.91288c-2.95281,-0.83874 -5.61136,-3.16003 -8.27949,-4.53386c-3.18406,-1.65873 -6.96337,-2.74694 -10.70947,-3.46054c0.03767,0.69644 0.10681,1.35156 0.28024,2.06128l1.51237,3.57953l-2.16247,-1.43489c-0.26603,-1.05452 -1.30174,-3.43802 -1.34314,-4.50755c-1.35143,-0.21922 -2.82412,-0.4323 -4.11135,-0.57001l-1.4005,-1.86906c1.15311,0.12333 4.08107,0.47032 5.28529,0.65701c-0.11768,-1.0597 -0.17324,-2.12761 -0.1762,-3.20026c-2.59962,-1.10267 -5.9522,-2.15292 -8.57466,-4.24346l-0.48894,-2.29659c2.2838,1.82057 6.86272,3.64001 9.11032,4.65711c0.05097,-0.99423 0.14211,-1.99074 0.26584,-2.9869c-0.29663,-0.12707 -0.59433,-0.26733 -0.89319,-0.42131c-6.19265,-2.96819 -7.61456,-7.1502 -6.90454,-13.94538c0,0 0.64716,-3.92732 1.10103,-4.63202c0.42427,-0.65871 1.52378,-2.50921 1.52378,-2.50921l-1.40738,7.28465c-0.5399,6.1801 0.82821,9.5604 6.44153,12.25088c0.13106,0.06915 0.26184,0.13517 0.39233,0.19813c0.65105,-4.05106 1.76957,-8.06848 2.85013,-11.86799c1.91939,-5.66174 4.67504,-14.86165 10.28125,-18.19515c0.37208,-0.22126 1.6279,-0.31948 2.0287,-0.48686l1.94071,0.13703l-2.32777,1.04609c-5.85107,2.45449 -8.49756,12.67257 -10.30786,18.00605c-1.09107,3.84611 -2.22377,7.90712 -2.84384,11.99641c5.44344,1.6466 8.3272,1.30966 12.77362,-2.11329c4.24503,-5.72677 11.7501,-15.7392 17.2928,-20.04152c0.16294,-0.07254 2.31736,-1.19985 2.31736,-1.19985c0,0 1.00608,1.27473 1.20621,1.18568z" data-paper-data="{&quot;index&quot;:null}" fill="#9f2c00" stroke="#9f2c00" stroke-width="1"/><path d="M402.68033,169.69737c-0.89887,3.16451 -4.19287,5.00116 -7.35737,4.10229c-3.16451,-0.89888 -5.00116,-4.19287 -4.10229,-7.35737c0.89887,-3.16454 4.19288,-5.00118 7.35738,-4.10232c3.16452,0.89888 5.00117,4.19287 4.1023,7.35739z" data-paper-data="{&quot;index&quot;:null}" fill="url(#color-4)" stroke="none" stroke-width="0"/></g><g fill-rule="evenodd" stroke-linecap="butt" stroke-linejoin="round"><path d="M48.94408,174.94221l16.0344,-3.67638l7.52152,-13.42633l8.74701,14.16168l14.80892,2.94111l-11.12712,12.53084l2.12953,15.14195l-14.31332,-4.93288l-14.80349,4.93288l2.3746,-16.36748z" fill="url(#color-5)" stroke="url(#color-6)" stroke-width="6.5"/><path d="M48.94408,174.94221l16.0344,-3.67638l7.52152,-13.42639l8.74701,14.16168l14.80892,2.94111l-11.12712,12.53084l2.12953,15.14195l-14.31327,-4.93288l-14.80344,4.93288l2.37465,-16.36748z" fill="url(#color-7)" stroke="#fff0a6" stroke-width="4"/><path d="M53.4786,176.50875l12.97305,-2.97455l6.08545,-10.86292l7.07706,11.45783l11.98161,2.37963l-9.00269,10.13837l1.72292,12.25106l-11.58055,-3.99115l-11.97713,3.99115l1.92127,-13.24259z" fill="#f2cc41" stroke="#f2cc41" stroke-width="2.5"/></g></g></g></svg>