<svg version="1.1" xmlns="http://www.w3.org/2000/svg" xmlns:xlink="http://www.w3.org/1999/xlink" width="190.67406" height="106.7212" viewBox="0,0,190.67406,106.7212"><g transform="translate(-152.41675,-116.58087)"><g data-paper-data="{&quot;isPaintingLayer&quot;:true}" stroke-miterlimit="10" stroke-dasharray="" stroke-dashoffset="0" style="mix-blend-mode: normal"><g><path d="M167.51829,139.47402c18.42723,0.00904 104.19597,0.04581 142.10346,0.06438c13.39313,0.00655 15.66219,4.26006 15.62722,8.4742c-0.07962,9.60154 -0.40067,48.31072 -0.54287,65.45559c-0.04198,5.06061 -5.63168,7.90334 -16.49609,7.91187c-36.8537,0.0289 -121.99629,0.43843 -140.06265,0.45259c-6.80931,0.00533 -12.32322,-3.66878 -12.32023,-7.44879c0.0075,-9.48177 0.04031,-50.88725 0.05363,-67.74152c0.00353,-4.43995 3.602,-7.17226 11.63753,-7.16831z" data-paper-data="{&quot;origRot&quot;:0,&quot;index&quot;:null}" fill="#000000" fill-rule="evenodd" stroke="none" stroke-width="1" stroke-linecap="round" stroke-linejoin="round" opacity="0.42445"/><path d="M167.51829,139.474c18.42723,0.00904 104.19597,0.04581 142.10346,0.06438c13.39313,0.00655 15.66219,4.26006 15.62722,8.4742c-0.07962,9.60154 -0.40067,48.31072 -0.54287,65.45559c-0.04198,5.06061 -5.63168,7.90334 -16.49609,7.91187c-36.8537,0.0289 -121.99629,0.43843 -140.06265,0.45259c-6.80931,0.00533 -12.32322,-3.66878 -12.32023,-7.44879c0.0075,-9.48177 0.04031,-50.88725 0.05363,-67.74152c0.00353,-4.43995 3.602,-7.17226 11.63753,-7.16831z" data-paper-data="{&quot;origRot&quot;:0,&quot;index&quot;:null}" fill="#000000" fill-rule="evenodd" stroke="none" stroke-width="1" stroke-linecap="round" stroke-linejoin="round" opacity="0.42445"/><path d="M154.41675,201.55183c0,-15.17566 0,-34.96069 0,-43.63425c0,-8.2882 4.94866,-19.75025 11.48287,-19.75025c18.37542,0 108.06946,0.28765 144.24991,0.40768c9.53957,0.03165 15.43372,8.00066 15.43372,18.42395c0,15.02083 0,35.18008 0,44.09356c0,8.58813 -4.86884,20.20954 -12.91822,20.20954c-34.3968,0 -126.87194,0 -145.68887,0c-6.53419,0 -12.55938,-8.63981 -12.55938,-19.75025z" fill="none" fill-rule="nonzero" stroke="#000000" stroke-width="4" stroke-linecap="butt" stroke-linejoin="miter"/></g><text transform="translate(166.72605,211.17047) scale(0.42276,0.42276)" font-size="40" xml:space="preserve" fill="#ffffff" fill-rule="nonzero" stroke="none" stroke-width="1" stroke-linecap="butt" stroke-linejoin="miter" stroke-miterlimit="10" stroke-dasharray="" stroke-dashoffset="0" font-family="Malgun Gothic" font-weight="normal" text-anchor="start" style="mix-blend-mode: normal"><tspan x="0" dy="0">CHECK THE SHOP</tspan></text><text transform="translate(292.67874,160.91919) scale(1.21475,1.21475)" font-size="40" xml:space="preserve" fill="#ffffff" fill-rule="nonzero" stroke="none" stroke-width="1" stroke-linecap="butt" stroke-linejoin="miter" stroke-miterlimit="10" stroke-dasharray="" stroke-dashoffset="0" font-family="Malgun Gothic" font-weight="normal" text-anchor="start" style="mix-blend-mode: normal"><tspan x="0" dy="0">❗️</tspan></text><text transform="translate(173.42399,158.88627) scale(0.32109,0.32109)" font-size="40" xml:space="preserve" fill="#ffffff" fill-rule="nonzero" stroke="none" stroke-width="1" stroke-linecap="butt" stroke-linejoin="miter" stroke-miterlimit="10" stroke-dasharray="" stroke-dashoffset="0" font-family="Malgun Gothic" font-weight="normal" text-anchor="start" style="mix-blend-mode: normal"><tspan x="0" dy="0">YOU HAVE ENOUGH</tspan><tspan x="0" dy="46.150000000000006px">STARS TO BUY A NEW</tspan><tspan x="0" dy="46.150000000000006px">ITEM!</tspan></text></g></g></svg>