<svg version="1.1" xmlns="http://www.w3.org/2000/svg" xmlns:xlink="http://www.w3.org/1999/xlink" width="63.6966" height="24.25" viewBox="0,0,63.6966,24.25"><g transform="translate(-208.1517,-167.875)"><g data-paper-data="{&quot;isPaintingLayer&quot;:true}" fill-rule="nonzero" stroke-linecap="butt" stroke-linejoin="miter" stroke-miterlimit="10" stroke-dasharray="" stroke-dashoffset="0" style="mix-blend-mode: normal"><path d="M215.84571,190.375c-3.2785,0 -5.94401,-5.24324 -5.94401,-10.69922c0,-4.6995 3.22986,-10.05078 6.91666,-10.05078c7.12507,0 32.37156,0 46.36328,0c5.68385,0 6.91666,6.44521 6.91666,9.72656c0,3.60486 -1.51932,11.02344 -7.5651,11.02344c-14.43889,0 -39.9016,0 -46.6875,0z" data-paper-data="{&quot;index&quot;:null}" fill="#848484" stroke="#54544b" stroke-width="3.5"/><path d="M257.64258,188.05859c-4.45064,0 -8.05859,-3.60796 -8.05859,-8.05859c0,-4.45064 3.60796,-8.05859 8.05859,-8.05859c4.45064,0 8.05859,3.60796 8.05859,8.05859c0,4.45064 -3.60796,8.05859 -8.05859,8.05859z" fill="#72ff57" stroke="#37b927" stroke-width="2"/></g></g></svg>