<svg version="1.1" xmlns="http://www.w3.org/2000/svg" xmlns:xlink="http://www.w3.org/1999/xlink" width="40.00002" height="45.88104" viewBox="0,0,40.00002,45.88104"><g transform="translate(-219.99999,-157.05948)"><g data-paper-data="{&quot;isPaintingLayer&quot;:true}" fill-rule="nonzero" stroke-linejoin="miter" stroke-miterlimit="10" stroke-dasharray="" stroke-dashoffset="0" style="mix-blend-mode: normal"><g stroke="none"><path d="M259.98283,184.19352h-39.91667v-8.16667h39.91667z" fill="#2082cf" stroke-width="1" stroke-linecap="butt"/><path d="M254.067,168.87368c3.61367,3.61183 5.84967,8.6015 5.84967,14.1085c0,5.50717 -2.236,10.49667 -5.84967,14.10867c-3.612,3.61367 -8.6015,5.84967 -14.10867,5.84967c-5.50717,0 -10.49667,-2.236 -14.10867,-5.84967c-3.61367,-3.612 -5.84967,-8.6015 -5.84967,-14.10867c0,-5.507 2.236,-10.49667 5.84967,-14.1085c3.612,-3.61383 8.6015,-5.84983 14.10867,-5.84983c5.50717,0 10.49667,2.236 14.10867,5.84983z" fill="#ff7408" stroke-width="1.05974" stroke-linecap="butt"/><path d="M237.98283,202.77686l-2.08333,-0.16667l-2,-0.5l-1.83333,-0.75l-1.75,-0.75l-1.75,-1.16667l-1.66667,-1.25l-1,-1.08333l-1,-1.16667l-0.91667,-1.08333l-0.91667,-1.41667l-1.08333,-2l-0.66667,-1.91667l-0.58333,-1.5l13,-15l15.75,17z" fill="#ff7408" stroke-width="1" stroke-linecap="round"/><path d="M254.15034,162.90931c3.61367,3.61183 5.84967,8.6015 5.84967,14.1085c0,5.50717 -2.236,10.49667 -5.84967,14.10867c-3.612,3.61367 -8.6015,5.84967 -14.10867,5.84967c-5.50717,0 -10.49667,-2.236 -14.10867,-5.84967c-3.61367,-3.612 -5.84967,-8.6015 -5.84967,-14.10867c0,-5.507 2.236,-10.49667 5.84967,-14.1085c3.612,-3.61383 8.6015,-5.84983 14.10867,-5.84983c5.50717,0 10.49667,2.236 14.10867,5.84983z" fill="#ffa208" stroke-width="1.05974" stroke-linecap="butt"/></g><g fill="none" stroke="#ffffff"><path d="M225.65436,168.09218l5.62574,16.50217l20.62772,0.18752l2.2503,-10.31386l-25.31583,-0.18752" stroke-width="2.5" stroke-linecap="round"/><path d="M233.5304,174.84307v8.43861" stroke-width="2.5" stroke-linecap="round"/><path d="M239.25726,175.21812l-0.16914,8.62614" stroke-width="2.5" stroke-linecap="round"/><path d="M244.21931,174.65555v8.81366" stroke-width="2.5" stroke-linecap="round"/><path d="M249.47,174.84307l-0.18752,8.25109" stroke-width="2.5" stroke-linecap="round"/><path d="M250.97019,188.43861c0,1.50172 -1.21739,2.71911 -2.71911,2.71911c-1.50172,0 -2.71911,-1.21739 -2.71911,-2.71911c0,-1.50172 1.21739,-2.71911 2.71911,-2.71911c1.50172,0 2.71911,1.21739 2.71911,2.71911z" stroke-width="1" stroke-linecap="butt"/><path d="M236.65515,188.37544c0,1.50172 -1.21739,2.71911 -2.71911,2.71911c-1.50172,0 -2.7191,-1.21739 -2.7191,-2.71911c0,-1.50172 1.21738,-2.71911 2.7191,-2.71911c1.50172,0 2.71911,1.21739 2.71911,2.71911z" stroke-width="1" stroke-linecap="butt"/></g></g></g></svg>