<svg version="1.1" xmlns="http://www.w3.org/2000/svg" xmlns:xlink="http://www.w3.org/1999/xlink" width="60" height="65.6029" viewBox="0,0,60,65.6029"><defs><radialGradient cx="239.86277" cy="174.00583" r="25.96499" gradientUnits="userSpaceOnUse" id="color-1"><stop offset="0" stop-color="#ffffff"/><stop offset="1" stop-color="#ffffff" stop-opacity="0"/></radialGradient></defs><g transform="translate(-210,-146.94729)"><g data-paper-data="{&quot;isPaintingLayer&quot;:true}" fill-rule="nonzero" stroke-linejoin="miter" stroke-miterlimit="10" stroke-dasharray="" stroke-dashoffset="0" style="mix-blend-mode: normal"><path d="M210,199.14729c0,-7.04774 0,-31.40226 0,-44.2c0,-4.81949 3.05034,-8 7.7,-8c12.62451,0 37.03921,0 44.2,0c3.87081,0 8.1,3.00621 8.1,7.6c0,12.6245 0,37.2391 0,44.4c0,3.83078 -3.40007,8 -8.5,8c-13.01549,0 -37.10248,0 -44,0c-3.62854,0 -7.5,-4.0497 -7.5,-7.8z" fill="#d1d1d1" stroke="none" stroke-width="0" stroke-linecap="butt"/><path d="M215.57804,204.175c0.08847,-4.6005 4.04058,-8.05913 7.98013,-8.05913c5.79891,0 22.44949,0 32.71065,0c4.9794,0 8.13815,3.24293 8.13815,7.90112c0,4.6582 -3.15609,8.5332 -8.13815,8.5332c-10.36204,0 -27.25579,0 -33.0267,0c-3.82167,0 -7.75257,-3.7747 -7.66408,-8.3752z" fill="#e63c3c" stroke="none" stroke-width="0.5" stroke-linecap="butt"/><g><path d="M249.13424,156.31426c4.77594,2.55457 8.06611,6.80908 9.52341,11.61904c1.45775,4.80979 1.08267,10.17501 -1.4719,14.95095c-2.55457,4.77594 -6.80912,8.0661 -11.61904,9.52341c-4.80979,1.45775 -10.17499,1.08264 -14.95093,-1.47193c-4.77594,-2.55457 -8.06611,-6.80908 -9.52343,-11.61901c-1.45775,-4.80979 -1.08267,-10.17501 1.4719,-14.95095c2.55457,-4.77594 6.80912,-8.0661 11.61904,-9.52341c4.8098,-1.45777 10.17501,-1.08267 14.95095,1.4719z" fill="url(#color-1)" stroke="none" stroke-width="1.07468" stroke-linecap="butt"/><g><path d="M239.75903,157.31086c4.50087,-0.032 8.5927,1.76678 11.56672,4.69941c2.97464,2.93202 4.8314,6.99785 4.86341,11.49872c0.032,4.50087 -1.7668,8.59272 -4.69943,11.56674c-2.932,2.9746 -6.99785,4.8314 -11.49872,4.86341c-4.50087,0.032 -8.59272,-1.7668 -11.56672,-4.69941c-2.97464,-2.93202 -4.83144,-6.99786 -4.86343,-11.49874c-0.03199,-4.5009 1.7668,-8.59272 4.69943,-11.56674c2.932,-2.9746 6.99785,-4.8314 11.49876,-4.8634z" fill="#b1462e" stroke="#ffd008" stroke-width="3.8061" stroke-linecap="butt"/><g stroke="none"><path d="M235.78229,164.78211c0.03051,1.31858 -1.94875,1.91239 -2.27985,3.16177c-0.2512,0.89608 1.17815,2.06324 0.69416,2.68074c-0.47411,0.60141 -1.82498,-0.14437 -2.72681,-0.24436c-1.16183,-0.10361 -2.46087,0.2602 -3.38744,-0.36261c-1.0224,-0.65267 -2.36299,-1.98605 -1.8717,-3.05646c0.68894,-1.499 2.87426,-1.62233 4.29726,-2.39991c0.92552,-0.53707 1.73125,-1.60756 2.75537,-1.54886c1.02391,0.05971 2.49371,0.7475 2.51901,1.76971z" fill="#ffa105" stroke-width="2.23487" stroke-linecap="round"/><path d="M235.1022,165.30642c0.23999,0.59039 -0.58801,1.0572 -0.83198,1.60641c-0.25831,0.59233 -0.4082,1.2494 -0.80443,1.75589c-0.45073,0.57652 -0.94846,1.26001 -1.64123,1.49293c-1.01999,0.30252 -2.24171,0.50347 -3.18131,0.01496c-0.88217,-0.45862 -2.0574,-1.63448 -1.5903,-2.5043c0.74666,-1.3786 2.74372,-1.51886 4.14769,-2.23349c0.77257,-0.39354 1.49501,-1.08728 2.3628,-1.1005c0.5983,-0.0093 1.3156,0.41021 1.53877,0.96811z" fill="#ff770d" stroke-width="2.12111" stroke-linecap="butt"/></g><g stroke="none"><path d="M246.25235,163.03172c1.02318,-0.07327 1.8441,0.98565 2.77714,1.50951c1.43391,0.75727 3.62078,0.84952 4.33094,2.33857c0.50646,1.06332 -0.81503,2.41564 -1.82803,3.08277c-0.91765,0.63591 -2.2217,0.29062 -3.38197,0.41075c-0.90029,0.11279 -2.24042,0.8777 -2.72303,0.28312c-0.49273,-0.61057 0.9199,-1.79796 0.65599,-2.69036c-0.34888,-1.24453 -2.33637,-1.81015 -2.3246,-3.12902c0.01077,-1.02246 1.47062,-1.73108 2.49357,-1.80534z" fill="#ffa105" stroke-width="2.23487" stroke-linecap="round"/><path d="M246.03673,164.2494c0.86785,0.00092 1.60011,0.68429 2.37821,1.06679c1.41396,0.69462 3.41283,0.80648 4.17904,2.17431c0.47941,0.86309 -0.67899,2.05551 -1.55453,2.52667c-0.93257,0.50182 -2.15705,0.31826 -3.18122,0.03027c-0.69601,-0.22306 -1.20342,-0.89941 -1.66227,-1.46944c-0.4034,-0.50082 -0.56265,-1.15567 -0.82932,-1.74429c-0.25178,-0.54566 -1.08634,-1.00066 -0.85475,-1.59441c0.21519,-0.56105 0.92646,-0.99069 1.52485,-0.98991z" fill="#ff770d" stroke-width="2.12111" stroke-linecap="butt"/></g><path d="M240.14071,180.23203c2.52619,-0.17977 5.01752,-1.91256 7.48515,-1.34482c1.09692,0.25257 1.02176,2.10959 0.87239,3.1888c-0.13436,0.9887 -0.77493,2.01296 -1.648,2.45897c-2.03876,1.041 -4.32744,1.73433 -6.58157,1.74628c-2.31172,0.03138 -4.62064,-0.68707 -6.70741,-1.61781c-0.80329,-0.34912 -1.43512,-1.15564 -1.67993,-2.02743c-0.24332,-0.85413 -0.56215,-2.38682 0.32103,-2.65346c2.53157,-0.76305 5.27899,0.43831 7.93833,0.24946z" fill="#3c20ff" stroke="none" stroke-width="2.12111" stroke-linecap="round"/><path d="M239.84506,165.51325c2.72646,-0.02819 5.96276,-0.05259 7.99994,1.74459c1.88103,1.72619 2.06544,4.81046 2.12571,7.36061c0.0583,2.46448 0.03741,5.45366 -1.75086,7.11625c-2.062,1.97927 -5.40271,2.32795 -8.24283,2.33591c-2.87478,0.00821 -6.21862,-0.26984 -8.34322,-2.21798c-1.80435,-1.65334 -1.95706,-4.67733 -1.91982,-7.09017c0.03913,-2.5257 0.08914,-5.62658 1.98729,-7.32187c2.03271,-1.89339 5.33237,-1.89782 8.14378,-1.92734z" fill="#ffd008" stroke="none" stroke-width="2.12111" stroke-linecap="butt"/><path d="M240.03418,167.55513c1.73415,0.00264 3.5084,0.00361 5.20328,0.40487c0.76265,0.18015 1.54714,0.6613 1.94672,1.31175c0.56256,0.91713 1.17185,2.08745 0.83793,3.12108c-0.39161,1.23523 -1.55465,2.20474 -2.7332,2.80658c-1.5504,0.79143 -3.34969,1.18761 -5.08995,1.19181c-1.71896,0.03195 -3.49984,-0.32519 -5.03815,-1.08582c-1.26342,-0.62457 -2.41843,-1.68229 -3.07995,-2.93518c-0.36867,-0.69893 -0.12522,-1.74075 0.35696,-2.38183c0.71719,-0.95339 1.86396,-1.6298 3.01089,-1.99279c1.45417,-0.4651 3.04789,-0.42615 4.58547,-0.44048z" fill="#ffa105" stroke="none" stroke-width="2.12111" stroke-linecap="round"/><path d="M240.1107,170.83396c1.21731,-0.02634 2.5424,0.09339 3.60802,0.7221c0.74241,0.39376 1.33032,1.24067 1.40859,2.11432c0.06643,0.73644 -0.40878,1.59294 -1.0397,1.96179c-1.137,0.61784 -2.53182,0.72635 -3.80159,0.74081c-1.30034,0.01468 -2.70051,-0.05559 -3.84568,-0.68643c-0.64822,-0.33734 -1.04054,-1.21281 -1.03354,-1.94704c0.00772,-0.82871 0.3894,-1.73691 1.0725,-2.13197c1.05023,-0.67571 2.39571,-0.74715 3.6314,-0.77358z" fill="#ff770d" stroke="none" stroke-width="2.12111" stroke-linecap="round"/><path d="M235.31475,168.56453c0.92854,-0.0066 1.77209,0.36468 2.38548,0.96942c0.6134,0.60471 0.99663,1.4429 1.00324,2.37143c0.00659,0.92856 -0.36468,1.77209 -0.96939,2.3855c-0.60475,0.61338 -1.44293,0.99662 -2.37148,1.00325c-0.92854,0.0066 -1.77207,-0.36471 -2.38548,-0.96942c-0.61338,-0.60475 -0.99663,-1.4429 -1.00322,-2.37146c-0.0066,-0.92854 0.36468,-1.77209 0.96939,-2.3855c0.60475,-0.61338 1.44293,-0.99662 2.37146,-1.00322z" fill="#ffffff" stroke="none" stroke-width="2.12111" stroke-linecap="butt"/><path d="M244.60391,168.62664c0.92854,-0.0066 1.77209,0.36468 2.38548,0.96942c0.6134,0.60471 0.99663,1.4429 1.00324,2.37143c0.00659,0.92856 -0.36468,1.77209 -0.96939,2.3855c-0.60475,0.61338 -1.44293,0.99662 -2.37148,1.00325c-0.92854,0.0066 -1.77207,-0.36471 -2.38548,-0.96942c-0.61338,-0.60475 -0.99663,-1.4429 -1.00322,-2.37146c-0.0066,-0.92854 0.36468,-1.77209 0.96939,-2.3855c0.60475,-0.61338 1.44293,-0.99662 2.37146,-1.00322z" fill="#ffffff" stroke="none" stroke-width="2.12111" stroke-linecap="butt"/><path d="M234.40151,172.84995c0.55133,-0.0012 1.13312,0.17482 1.56732,0.53271c0.361,0.29177 0.60702,0.75907 0.68845,1.2187c0.09206,0.51805 0.2097,1.1936 -0.15907,1.53065c-0.55467,0.48185 -1.4096,0.51853 -2.12086,0.49095c-0.52356,-0.02007 -1.08312,-0.22277 -1.45758,-0.59261c-0.37516,-0.3692 -0.58307,-0.92581 -0.61329,-1.44905c-0.0241,-0.42467 0.15094,-0.95072 0.501,-1.24418c0.42175,-0.34492 1.02099,-0.48582 1.59403,-0.48718z" fill="#ffd008" stroke="none" stroke-width="2.12111" stroke-linecap="round"/><path d="M246.85658,173.42327c0.35419,0.28842 0.5367,0.81192 0.51865,1.23691c-0.02278,0.5236 -0.22274,1.08314 -0.59259,1.45762c-0.36919,0.37514 -0.92579,0.58576 -1.44905,0.61329c-0.7108,0.03766 -1.56614,0.01316 -2.12762,-0.46075c-0.37351,-0.33179 -0.26549,-1.00897 -0.18081,-1.52825c0.0749,-0.46073 0.31423,-0.93149 0.67104,-1.22839c0.4291,-0.36402 1.00831,-0.54828 1.55958,-0.55493c0.57304,-0.00679 1.17422,0.12557 1.6008,0.46449z" fill="#ffd008" stroke="none" stroke-width="2.12111" stroke-linecap="round"/><path d="M237.88542,166.10857c0.3888,-0.00276 0.74273,0.15311 1.00013,0.40619c0.25673,0.25381 0.41761,0.60547 0.4204,0.99427c0.00275,0.38883 -0.15313,0.74276 -0.40623,1.00015c-0.25376,0.25672 -0.60544,0.41763 -0.99426,0.42038c-0.3888,0.00276 -0.74273,-0.15311 -1.00013,-0.40619c-0.25673,-0.25381 -0.41761,-0.60547 -0.42038,-0.99426c-0.00278,-0.38885 0.15313,-0.74276 0.4062,-1.00017c0.25376,-0.25672 0.60544,-0.41763 0.99426,-0.42038z" fill="#ffa105" stroke="none" stroke-width="2.12111" stroke-linecap="butt"/><path d="M234.03788,176.22862c2.05293,0.01377 4.06986,0.52592 6.0898,0.51678c2.0624,-0.0199 4.09051,-0.56079 6.11918,-0.60357c0.5077,-0.01109 1.35897,-0.02013 1.38461,0.43822c0.0628,1.16525 -0.50925,2.3156 -1.09644,3.33089c-0.59652,0.96683 -1.37397,1.90431 -2.37201,2.48117c-1.23313,0.70476 -2.70481,1.15283 -4.09905,1.14929c-1.45621,-0.00382 -2.92563,-0.49744 -4.22751,-1.16474c-0.93055,-0.53702 -1.6932,-1.40759 -2.2569,-2.33626c-0.60902,-1.00307 -1.25517,-2.18657 -1.10665,-3.35259c0.06932,-0.54265 1.02201,-0.46281 1.56496,-0.4592z" fill="#9f4610" stroke="none" stroke-width="2.33008" stroke-linecap="round"/><path d="M242.44079,166.25545c0.3888,-0.00276 0.74273,0.15311 1.00013,0.40619c0.25673,0.25381 0.41761,0.60547 0.4204,0.99427c0.00275,0.38883 -0.15313,0.74276 -0.40623,1.00015c-0.25376,0.25672 -0.60544,0.41763 -0.99426,0.42038c-0.3888,0.00276 -0.74273,-0.15311 -1.00013,-0.40619c-0.25673,-0.25381 -0.41761,-0.60547 -0.42038,-0.99426c-0.00278,-0.38885 0.15313,-0.74276 0.4062,-1.00017c0.25376,-0.25672 0.60544,-0.41763 0.99426,-0.42038z" fill="#ffa105" stroke="none" stroke-width="2.12111" stroke-linecap="butt"/><g stroke="none" stroke-linecap="butt"><path d="M236.40637,170.22477c0.41288,-0.00293 0.78793,0.16217 1.06032,0.43071c0.27241,0.26859 0.44281,0.64126 0.44574,1.05414c0.00294,0.41285 -0.16214,0.78794 -0.43071,1.06032c-0.26856,0.27242 -0.64122,0.44282 -1.05411,0.44575c-0.41288,0.00293 -0.78794,-0.16214 -1.06032,-0.43071c-0.27242,-0.26856 -0.44282,-0.64122 -0.44575,-1.05411c-0.00293,-0.41288 0.16214,-0.78794 0.43071,-1.06032c0.26856,-0.27242 0.64122,-0.44282 1.05412,-0.44578z" fill="#000000" stroke-width="2.02888"/><path d="M236.19105,169.96552c0.20598,-0.00144 0.39349,0.08083 0.53041,0.21513c0.13623,0.13499 0.22119,0.32133 0.22264,0.5273c0.00148,0.20596 -0.0808,0.3935 -0.21513,0.53041c-0.13499,0.13623 -0.32131,0.22117 -0.52728,0.22265c-0.20598,0.00144 -0.39351,-0.08085 -0.53041,-0.21513c-0.13623,-0.13499 -0.22119,-0.32133 -0.22264,-0.5273c-0.00148,-0.20596 0.0808,-0.3935 0.21513,-0.53041c0.13499,-0.13623 0.32131,-0.22117 0.52728,-0.22265z" fill="#ffffff" stroke-width="2.12111"/></g><g stroke="none" stroke-linecap="butt"><path d="M244.26647,170.73193c0.27242,0.26856 0.44282,0.64122 0.44575,1.05411c0.00293,0.41288 -0.16214,0.78794 -0.43073,1.06035c-0.26855,0.2724 -0.64122,0.44282 -1.05411,0.44575c-0.41288,0.00293 -0.78793,-0.16217 -1.06035,-0.43073c-0.27238,-0.26857 -0.44278,-0.64124 -0.44575,-1.05411c-0.00293,-0.41288 0.16219,-0.78796 0.43073,-1.06035c0.26859,-0.27241 0.64126,-0.44281 1.05411,-0.44575c0.41288,-0.00293 0.78797,0.16216 1.06035,0.43073z" fill="#000000" stroke-width="2.02888"/><path d="M244.05351,170.36913c0.13623,0.13499 0.22119,0.32133 0.22264,0.5273c0.00148,0.20596 -0.0808,0.3935 -0.21511,0.53039c-0.13499,0.13623 -0.32133,0.22119 -0.52728,0.22265c-0.20599,0.00147 -0.3935,-0.0808 -0.53041,-0.21513c-0.13623,-0.13499 -0.22119,-0.32133 -0.22265,-0.52728c-0.00147,-0.20599 0.0808,-0.3935 0.21513,-0.53041c0.13499,-0.13623 0.32131,-0.22117 0.52728,-0.22265c0.20598,-0.00144 0.39349,0.08083 0.53041,0.21513z" fill="#ffffff" stroke-width="2.12111"/></g><path d="M233.99692,176.88712c2.01847,-0.07462 4.08075,-0.06438 6.12256,-0.07629c1.98418,-0.0154 3.95621,-0.07725 5.92634,-0.04212c0.49779,0.01348 0.67848,-0.08995 0.65599,0.15905c-0.11205,1.00013 -0.44658,2.03066 -0.96152,2.92102c-0.5231,0.84786 -1.20491,1.67001 -2.08013,2.1759c-1.08142,0.61803 -2.372,1.01097 -3.59466,1.00788c-1.27704,-0.00339 -2.56565,-0.43627 -3.70733,-1.02146c-0.81605,-0.47095 -1.48486,-1.23435 -1.97919,-2.04877c-0.53409,-0.87965 -0.82635,-1.91882 -0.97047,-2.94007c-0.01426,-0.25593 0.08364,-0.11649 0.58841,-0.13514z" fill="#5b2809" stroke="none" stroke-width="2.04337" stroke-linecap="round"/><path d="M239.95353,174.48698c0.45472,-0.00323 0.8677,0.08704 1.16737,0.23574c0.29892,0.14946 0.48532,0.35656 0.48696,0.58623c0.00162,0.22962 -0.1818,0.43935 -0.47859,0.59305c-0.29754,0.15293 -0.70915,0.24909 -1.16391,0.25233c-0.45472,0.00323 -0.86768,-0.08707 -1.16736,-0.23577c-0.29892,-0.14946 -0.48532,-0.35656 -0.48695,-0.58619c-0.00165,-0.22964 0.1818,-0.43938 0.47856,-0.59307c0.29754,-0.15293 0.70919,-0.2491 1.16391,-0.25233z" fill="#5b2809" stroke="none" stroke-width="2.36491" stroke-linecap="butt"/><path d="M238.8824,175.3361c0.40311,-0.00289 0.76953,0.09715 1.03515,0.26183c0.26559,0.16398 0.43107,0.39256 0.43284,0.64541c0.0018,0.25286 -0.16039,0.4838 -0.42362,0.65153c-0.26325,0.16845 -0.62824,0.27368 -1.03131,0.27655c-0.4031,0.00286 -0.76955,-0.0972 -1.03515,-0.26183c-0.26559,-0.16398 -0.43106,-0.39259 -0.43286,-0.64546c-0.0018,-0.25286 0.16039,-0.4838 0.42362,-0.65153c0.26326,-0.16841 0.62823,-0.27365 1.03133,-0.27651z" fill="#ffffff" stroke="none" stroke-width="2.12111" stroke-linecap="butt"/><path d="M240.91084,175.34892c0.40311,-0.00289 0.76953,0.09715 1.03515,0.26183c0.26559,0.16398 0.43107,0.39256 0.43284,0.64541c0.0018,0.25286 -0.16039,0.4838 -0.42362,0.65153c-0.26325,0.16845 -0.62824,0.27368 -1.03131,0.27655c-0.4031,0.00286 -0.76955,-0.0972 -1.03515,-0.26183c-0.26559,-0.16398 -0.43106,-0.39259 -0.43286,-0.64546c-0.0018,-0.25286 0.16039,-0.4838 0.42362,-0.65153c0.26326,-0.16841 0.62823,-0.27365 1.03133,-0.27651z" fill="#ffffff" stroke="none" stroke-width="2.12111" stroke-linecap="butt"/><g stroke="none" stroke-width="2.04595" stroke-linecap="round"><path d="M240.03625,179.40257c0.77822,-0.01163 1.61943,0.50378 2.10541,1.17467c0.5312,0.73313 0.68241,1.7735 0.74458,2.71388c0.02586,0.79855 0.02964,1.77268 -0.48784,2.34875c-0.57443,0.63967 -1.53404,0.862 -2.35896,0.8665c-0.80109,-0.01674 -1.70046,-0.28293 -2.24537,-0.90175c-0.51756,-0.58773 -0.58303,-1.54578 -0.58426,-2.34112c0.04393,-0.91667 0.19944,-1.92658 0.70666,-2.62222c0.49589,-0.68059 1.31634,-1.22617 2.11976,-1.23871z" fill="#73265b"/><path d="M240.0241,178.54197c0.77822,-0.01163 1.61943,0.50378 2.10541,1.17467c0.5312,0.73313 0.68241,1.7735 0.74458,2.71388c0.02586,0.79855 0.02964,1.77268 -0.48784,2.34875c-0.57443,0.63967 -1.53404,0.862 -2.35896,0.8665c-0.80109,-0.01674 -1.70046,-0.28293 -2.24537,-0.90175c-0.51756,-0.58773 -0.58303,-1.54578 -0.58426,-2.34112c0.04393,-0.91667 0.19944,-1.92658 0.70666,-2.62222c0.49589,-0.68059 1.31634,-1.22617 2.11976,-1.23871z" fill="#bd3f95"/></g></g></g><text transform="translate(217.45147,207.54167) scale(0.20304,0.20304)" font-size="40" xml:space="preserve" fill="#ffffff" fill-rule="nonzero" stroke="none" stroke-width="1" stroke-linecap="butt" stroke-linejoin="miter" stroke-miterlimit="10" stroke-dasharray="" stroke-dashoffset="0" font-family="Sans Serif" font-weight="normal" text-anchor="start" style="mix-blend-mode: normal"><tspan x="0" dy="0">NOT USING</tspan></text></g></g></svg>