<svg version="1.1" xmlns="http://www.w3.org/2000/svg" xmlns:xlink="http://www.w3.org/1999/xlink" width="84.32062" height="84.3206" viewBox="0,0,84.32062,84.3206"><g transform="translate(-197.83969,-137.8397)"><g data-paper-data="{&quot;isPaintingLayer&quot;:true}" fill-rule="nonzero" stroke-linejoin="miter" stroke-miterlimit="10" stroke-dasharray="" stroke-dashoffset="0" style="mix-blend-mode: normal"><path d="M198.58969,180c0,-22.87027 18.54003,-41.4103 41.4103,-41.4103c22.87028,0 41.41032,18.54003 41.41032,41.4103c0,22.87027 -18.54002,41.4103 -41.41032,41.4103c-22.87027,0 -41.4103,-18.54003 -41.4103,-41.4103z" fill="#c75050" stroke="#000000" stroke-width="1.5" stroke-linecap="butt"/><path d="M205.22183,178.38243c0,-20.01155 15.93284,-36.234 35.58703,-36.234c19.65417,0 35.58703,16.22251 35.58703,36.234c0,20.01155 -15.93284,36.23401 -35.58703,36.23401c-19.65417,0 -35.58703,-16.22252 -35.58703,-36.23401z" fill="#ff6666" stroke="none" stroke-width="1.5" stroke-linecap="butt"/><path d="M222.36698,172.55524c0,-13.75794 11.15299,-24.91092 24.91093,-24.91092c13.75794,0 24.91092,11.15299 24.91092,24.91092c0,13.75794 -11.15298,24.91093 -24.91092,24.91093c-13.75794,0 -24.91093,-11.15299 -24.91093,-24.91093z" fill="#ff8585" stroke="none" stroke-width="1.5" stroke-linecap="butt"/><g stroke-width="0.90232"><path d="M218.29594,194.22596v0v0v0v0v0v0c-0.02412,-0.0419 -0.72914,-1.21936 -0.72914,-1.21985c-1.95541,-3.13893 -2.3888,-10.2381 -2.21883,-12.45377l0.01504,-0.10613c0.55554,-9.39132 4.92296,-14.40382 7.50228,-17.05675c5.8544,-6.02554 14.72834,-6.27062 14.72834,-6.27062l0.31443,6.09616c0,0 -0.01687,-1.75328 3.55311,-4.81842c3.56909,-3.06517 8.847,-2.61738 8.847,-2.61738l-2.80072,7.63941c0,0 1.65097,-2.37959 3.004,-3.24919c2.39879,-1.53913 4.42712,-0.87773 4.42712,-0.87773l-0.55911,4.73825c0,0 3.56999,4.62803 6.30233,8.97684c0.58473,0.92786 1.26234,1.86713 1.69204,2.9476c1.56261,3.92566 1.78818,10.92236 0.03646,14.3879c-0.30257,0.61313 -0.63201,1.20849 -0.97382,1.79384c-0.08887,0.15034 -0.1782,0.29973 -0.26888,0.44733c-0.31306,0.51474 -0.63981,1.01942 -0.98343,1.50865c-0.04645,0.06514 -0.08886,0.13437 -0.13532,0.19956c-0.38966,0.54432 -0.80067,1.0686 -1.22816,1.57832c-0.10204,0.12301 -0.20961,0.24187 -0.31399,0.36397c-0.3664,0.42091 -0.74599,0.82998 -1.1356,1.2235c-0.08977,0.09205 -0.17727,0.18543 -0.26797,0.27425c-0.46895,0.45827 -0.95741,0.89509 -1.46052,1.31232c-0.11209,0.09159 -0.22691,0.17906 -0.33997,0.26878c-0.42242,0.33708 -0.859,0.65915 -1.30557,0.96614c-0.12895,0.08745 -0.25473,0.17947 -0.38461,0.26511c-0.5455,0.35851 -1.10417,0.69512 -1.68112,1.00622c-0.10297,0.05605 -0.21231,0.10523 -0.31668,0.15947c-0.49307,0.25646 -0.99753,0.49241 -1.51293,0.71104c-2.18011,0.92424 -4.54746,1.52596 -7.08938,1.70913c-2.90511,0.2091 -5.535,0.12111 -7.91058,-0.18861c-0.5874,-0.07655 -1.15883,-0.16808 -1.71527,-0.27059c-0.10572,-0.0214 -0.21102,-0.0419 -0.31578,-0.06242c-0.56419,-0.11115 -1.11787,-0.23045 -1.64921,-0.36668c-0.00319,-0.0009 -0.00729,-0.00182 -0.01092,-0.00272c-0.53232,-0.13483 -1.04403,-0.28605 -1.54393,-0.44642c-0.08749,-0.02777 -0.17727,-0.05553 -0.26435,-0.08382c-0.48029,-0.15714 -0.94831,-0.32523 -1.39943,-0.50331c-0.07934,-0.03005 -0.15589,-0.06421 -0.23469,-0.09516c-0.44524,-0.1795 -0.8795,-0.36629 -1.29602,-0.56396c-0.01596,-0.00908 -0.03372,-0.01504 -0.04922,-0.02324c-0.42651,-0.20406 -0.83394,-0.4172 -1.22992,-0.63544c-0.07388,-0.04097 -0.14725,-0.08105 -0.2192,-0.12205c-0.38097,-0.21638 -0.75012,-0.43731 -1.1019,-0.66505c-0.05378,-0.03419 -0.10483,-0.06975 -0.15814,-0.10432c-0.33402,-0.22045 -0.65712,-0.44552 -0.96608,-0.67509c-0.03186,-0.02187 -0.06695,-0.04511 -0.09751,-0.06925c-0.32219,-0.24187 -0.62659,-0.4892 -0.92005,-0.73834c-0.05701,-0.04788 -0.11307,-0.09614 -0.16774,-0.14397c-0.28615,-0.24917 -0.56139,-0.49877 -0.82028,-0.75433c-0.02961,-0.02785 -0.0565,-0.05742 -0.08561,-0.08563c-0.24383,-0.24283 -0.47529,-0.48742 -0.69405,-0.73205c-0.03053,-0.03551 -0.06516,-0.07016 -0.09619,-0.10474c-0.22419,-0.25737 -0.70864,-0.86779 -0.74601,-0.91652c-0.195,-0.25781 -0.38097,-0.51519 -0.5491,-0.77119c-0.01046,-0.01596 -0.02049,-0.03193 -0.03002,-0.04782c-0.16133,-0.24645 -0.30806,-0.48923 -0.44524,-0.73114z" fill="#9a8479" stroke="#000000" stroke-linecap="butt"/><path d="M252.75943,180.52503v0v0v0v0v0v0c0,0 5.30892,6.00187 3.66838,12.22785c-1.63963,6.22414 -11.4381,8.86111 -18.9668,8.38782c-9.95255,-0.62631 -14.56662,-6.55348 -12.9288,-12.21006c1.64007,-5.65658 14.8163,-8.30082 14.8163,-8.30082l-2.1637,4.06406c0,0 1.70435,-0.26327 3.08103,-1.05039c1.37624,-0.78573 2.88555,-1.83388 2.88555,-1.83388l-3.15257,4.46631c0,0 4.16374,-0.04462 7.76928,-1.48768c3.60555,-1.44126 4.99133,-4.26316 4.99133,-4.26316z" fill="#e6e7e8" stroke="#000000" stroke-linecap="butt"/><g stroke="#000000"><path d="M259.5526,177.2799c0,0 8.54531,-4.79977 10.49844,-0.71834c1.95318,4.08138 -1.54071,8.86432 -8.83197,13.19173c0,0 0.16087,-7.10557 -1.66649,-12.47339v0v0v0v0v0zM259.5526,177.2799c-0.15269,-0.62814 -0.65716,-1.82934 -0.65716,-1.82934M261.02954,190.85972l0.09161,-1.14924" fill="#9a8479" stroke-linecap="round"/><path d="M261.12115,189.71002c0.04736,-1.31602 0.04555,-3.48289 -0.2511,-6.18864c-0.17091,-1.57474 -0.50129,-3.19912 -0.84028,-4.60207l0.0009,0.00183c5.00542,-1.27409 9.4604,3.35209 9.4604,3.35209h0.00182c-2.50182,4.15293 -8.33163,7.32195 -8.33163,7.32195l-0.04008,0.11482v0v0v0v0v0z" fill="#ee4036" stroke-linecap="butt"/></g><g stroke="#000000"><path d="M219.44657,192.88359c-7.09757,-2.8242 -10.9273,-6.64321 -9.85455,-10.65499c1.07319,-4.01218 9.34877,-0.94929 9.34877,-0.94929c-0.75877,5.1628 0.5058,11.60425 0.5058,11.60425v0v0v0v0v0v0zM219.23009,179.5147c0,0 -0.25429,1.16926 -0.28886,1.76462M219.52589,192.82891l0.26247,1.03217" fill="#9a8479" stroke-linecap="round"/><path d="M219.47258,192.73101c0,0 -5.62933,-1.99378 -8.48659,-5.39013l0.00135,-0.00044c0,0 3.18766,-4.88948 7.7921,-4.49459l0.00046,-0.00135c-0.07655,1.32782 -0.11027,2.85653 -0.01141,4.31512c0.16679,2.5076 0.50766,4.47953 0.75739,5.66929l-0.05331,-0.0979v0v0v0v0z" fill="#ee4036" stroke-linecap="butt"/></g><path d="M246.96062,190.31951c-0.33037,0 -0.61931,-0.23916 -0.67399,-0.57579c-0.05972,-0.37259 0.1941,-0.72335 0.56688,-0.78298c0.33899,-0.05331 3.34391,-0.52206 4.45129,-0.38447c0.37459,0.04736 0.64073,0.38902 0.59563,0.76161c-0.04741,0.37538 -0.39421,0.6359 -0.76286,0.59535c-0.69676,-0.08473 -2.86228,0.18496 -4.0685,0.37628c-0.03646,0.00727 -0.07293,0.01 -0.10846,0.01v0v0v0v0v0z" fill="#231f20" stroke="none" stroke-linecap="butt"/><path d="M235.88382,190.46526c-0.0428,0 -0.08615,-0.00455 -0.13077,-0.01232c-1.57812,-0.30519 -4.35334,0.00551 -4.38064,0.00823c-0.3687,0.041 -0.71278,-0.22505 -0.75649,-0.60036c-0.0428,-0.37445 0.22603,-0.71339 0.60153,-0.75619c0.12305,-0.01227 3.00992,-0.33613 4.79536,0.00822c0.37001,0.07104 0.61341,0.42955 0.54138,0.80168c-0.06338,0.32386 -0.34996,0.55074 -0.67034,0.55074v0v0v0v0v0v0v0z" fill="#231f20" stroke="none" stroke-linecap="butt"/><path d="M247.4195,193.51536c0,0 -1.84423,2.48664 -5.97385,2.48664c-4.12867,0 -5.23418,-1.63437 -5.23418,-1.63437" fill="none" stroke="#231f20" stroke-linecap="round"/></g></g></g></svg>