<svg version="1.1" xmlns="http://www.w3.org/2000/svg" xmlns:xlink="http://www.w3.org/1999/xlink" width="359.22915" height="20.45313" viewBox="0,0,359.22915,20.45313"><g transform="translate(-60.38543,-169.77344)"><g data-paper-data="{&quot;isPaintingLayer&quot;:true}" fill="#ffffff" fill-rule="nonzero" stroke="none" stroke-width="1" stroke-linecap="square" stroke-linejoin="miter" stroke-miterlimit="10" stroke-dasharray="" stroke-dashoffset="0" style="mix-blend-mode: normal"><path d="M69.54081,190.17163c-0.83009,0 -1.47097,-0.22583 -1.92263,-0.6775c-0.45166,-0.45166 -0.6775,-1.09865 -0.6775,-1.94094v-13.23868h-4.41289c-1.42824,0 -2.14236,-0.70801 -2.14236,-2.12405c0,-1.40382 0.71412,-2.10574 2.14236,-2.10574h14.00774c1.42824,0 2.14236,0.70191 2.14236,2.10574c0,1.41603 -0.71412,2.12405 -2.14236,2.12405h-4.41289v13.23868c0,0.8423 -0.21973,1.48928 -0.65919,1.94094c-0.43946,0.45166 -1.08034,0.6775 -1.92263,0.6775zM79.09605,190.17163c-0.87892,0 -1.5259,-0.29908 -1.94094,-0.89723c-0.41504,-0.59815 -0.41504,-1.34889 0,-2.25222l6.99471,-15.08807c0.3418,-0.72023 0.75685,-1.25124 1.24513,-1.59304c0.48829,-0.3418 1.06202,-0.5127 1.72121,-0.5127c0.63477,0 1.19631,0.1709 1.68459,0.5127c0.48829,0.3418 0.89723,0.87281 1.22682,1.59304l7.01302,15.08807c0.42725,0.91554 0.44556,1.67239 0.05493,2.27053c-0.39063,0.58594 -1.00709,0.87892 -1.84939,0.87892c-0.75685,0 -1.33669,-0.1648 -1.73952,-0.49439c-0.40284,-0.3418 -0.76295,-0.89112 -1.08034,-1.64797l-0.89723,-2.14236h-8.86241l-0.89723,2.14236c-0.3418,0.75685 -0.6897,1.30617 -1.04371,1.64797c-0.35401,0.32959 -0.89723,0.49439 -1.62966,0.49439zM87.06123,175.4864l-2.70999,6.44539h5.45661l-2.69168,-6.44539zM102.2219,190.17163c-0.83009,0 -1.47097,-0.22583 -1.92263,-0.6775c-0.45166,-0.45166 -0.6775,-1.09865 -0.6775,-1.94094v-14.85003c0,-0.8423 0.22583,-1.48928 0.6775,-1.94094c0.45166,-0.45166 1.09865,-0.6775 1.94094,-0.6775h6.92147c2.24612,0 3.98564,0.57984 5.21857,1.73952c1.23293,1.14747 1.84939,2.73441 1.84939,4.7608c0,2.02639 -0.61646,3.61943 -1.84939,4.77911c-1.23293,1.14747 -2.97245,1.72121 -5.21857,1.72121h-4.35796v4.46783c0,0.8423 -0.21973,1.48928 -0.65919,1.94094c-0.43946,0.45166 -1.08034,0.6775 -1.92263,0.6775zM104.80372,179.11193h3.46073c2.02639,0 3.03959,-0.8423 3.03959,-2.52689c0,-1.68459 -1.0132,-2.52689 -3.03959,-2.52689h-3.46073zM133.94764,190.17163c-0.83009,0 -1.47097,-0.22583 -1.92263,-0.6775c-0.45166,-0.45166 -0.6775,-1.09865 -0.6775,-1.94094v-13.23868h-4.41289c-1.42824,0 -2.14236,-0.70801 -2.14236,-2.12405c0,-1.40382 0.71412,-2.10574 2.14236,-2.10574h14.00774c1.42824,0 2.14236,0.70191 2.14236,2.10574c0,1.41603 -0.71412,2.12405 -2.14236,2.12405h-4.41289v13.23868c0,0.8423 -0.21973,1.48928 -0.65919,1.94094c-0.43946,0.45166 -1.08034,0.6775 -1.92263,0.6775zM153.21432,190.22656c-2.01418,0 -3.77812,-0.42725 -5.29181,-1.28175c-1.50148,-0.8545 -2.67337,-2.05081 -3.51567,-3.58891c-0.8423,-1.5381 -1.26344,-3.32645 -1.26344,-5.36505c0,-2.06301 0.41504,-3.85747 1.24513,-5.38337c0.83009,-1.5381 2.00198,-2.7283 3.51567,-3.5706c1.5259,-0.8423 3.29594,-1.26344 5.31012,-1.26344c2.00198,0 3.75371,0.42115 5.25519,1.26344c1.51369,0.8423 2.69168,2.03249 3.53398,3.5706c0.8423,1.5259 1.26344,3.32035 1.26344,5.38337c0,2.0386 -0.42115,3.82695 -1.26344,5.36505c-0.8423,1.5381 -2.02029,2.73441 -3.53398,3.58891c-1.50148,0.8545 -3.25321,1.28175 -5.25519,1.28175zM153.21432,185.88691c1.45266,0 2.59402,-0.51881 3.42411,-1.55642c0.8423,-1.03761 1.26344,-2.48416 1.26344,-4.33965c0,-1.85549 -0.41504,-3.29594 -1.24513,-4.32134c-0.81788,-1.03761 -1.96536,-1.55642 -3.44242,-1.55642c-1.48928,0 -2.64896,0.51881 -3.47905,1.55642c-0.81788,1.0254 -1.22682,2.46585 -1.22682,4.32134c0,1.85549 0.40894,3.30204 1.22682,4.33965c0.83009,1.03761 1.98977,1.55642 3.47905,1.55642zM181.75795,190.22656c-1.14747,0 -2.32547,-0.11597 -3.53398,-0.3479c-1.20851,-0.24415 -2.24612,-0.57984 -3.11283,-1.00709c-0.5005,-0.24415 -0.8545,-0.56763 -1.06202,-0.97047c-0.20752,-0.41504 -0.28687,-0.8423 -0.23804,-1.28175c0.06104,-0.45166 0.21973,-0.8484 0.47608,-1.1902c0.26856,-0.3418 0.61646,-0.57374 1.04371,-0.69581c0.43946,-0.12207 0.92774,-0.06104 1.46486,0.18311c0.72023,0.35401 1.5259,0.62257 2.41702,0.80567c0.90333,0.1709 1.75173,0.25635 2.5452,0.25635c1.23293,0 2.09963,-0.1648 2.60013,-0.49439c0.5005,-0.32959 0.75074,-0.73854 0.75074,-1.22682c0,-0.42725 -0.177,-0.76905 -0.53101,-1.0254c-0.3418,-0.26856 -0.95827,-0.49439 -1.84939,-0.6775l-3.27763,-0.71412c-3.56449,-0.76905 -5.34674,-2.63064 -5.34674,-5.58478c0,-1.29396 0.3479,-2.42923 1.04371,-3.4058c0.70801,-0.97658 1.6907,-1.73342 2.94803,-2.27053c1.25734,-0.53712 2.7222,-0.80567 4.39458,-0.80567c0.97658,0 1.96536,0.10986 2.96634,0.32959c1.00099,0.21973 1.8677,0.54322 2.60013,0.97047c0.56153,0.29297 0.91554,0.70191 1.06202,1.22682c0.14649,0.5127 0.12818,1.0132 -0.05493,1.50148c-0.18311,0.48829 -0.51881,0.8484 -1.00709,1.08034c-0.47608,0.21973 -1.08034,0.177 -1.81277,-0.12818c-0.56153,-0.24415 -1.17799,-0.42725 -1.84939,-0.54932c-0.67139,-0.12207 -1.32448,-0.18311 -1.95925,-0.18311c-1.04982,0 -1.86159,0.18311 -2.43533,0.54932c-0.56153,0.36622 -0.8423,0.8423 -0.8423,1.42824c0,0.40284 0.1709,0.73854 0.5127,1.00709c0.3418,0.25635 0.93995,0.48219 1.79446,0.6775l3.27763,0.69581c3.61333,0.76905 5.41999,2.58792 5.41999,5.45661c0,1.29396 -0.3479,2.42313 -1.04371,3.38749c-0.69581,0.95216 -1.67239,1.6907 -2.92972,2.2156c-1.24513,0.52491 -2.7222,0.78736 -4.43121,0.78736zM199.53573,190.17163c-0.83009,0 -1.47097,-0.22583 -1.92263,-0.6775c-0.45166,-0.45166 -0.6775,-1.09865 -0.6775,-1.94094v-13.23868h-4.41289c-1.42824,0 -2.14236,-0.70801 -2.14236,-2.12405c0,-1.40382 0.71412,-2.10574 2.14236,-2.10574h14.00774c1.42824,0 2.14236,0.70191 2.14236,2.10574c0,1.41603 -0.71412,2.12405 -2.14236,2.12405h-4.41289v13.23868c0,0.8423 -0.21973,1.48928 -0.65919,1.94094c-0.43946,0.45166 -1.08034,0.6775 -1.92263,0.6775zM218.80241,190.22656c-2.01418,0 -3.77812,-0.42725 -5.29181,-1.28175c-1.50148,-0.8545 -2.67337,-2.05081 -3.51567,-3.58891c-0.8423,-1.5381 -1.26344,-3.32645 -1.26344,-5.36505c0,-2.06301 0.41504,-3.85747 1.24513,-5.38337c0.83009,-1.5381 2.00198,-2.7283 3.51567,-3.5706c1.5259,-0.8423 3.29594,-1.26344 5.31012,-1.26344c2.00198,0 3.75371,0.42115 5.25519,1.26344c1.51369,0.8423 2.69168,2.03249 3.53398,3.5706c0.8423,1.5259 1.26344,3.32035 1.26344,5.38337c0,2.0386 -0.42115,3.82695 -1.26344,5.36505c-0.8423,1.5381 -2.02029,2.73441 -3.53398,3.58891c-1.50148,0.8545 -3.25321,1.28175 -5.25519,1.28175zM218.80241,185.88691c1.45266,0 2.59402,-0.51881 3.42411,-1.55642c0.8423,-1.03761 1.26344,-2.48416 1.26344,-4.33965c0,-1.85549 -0.41504,-3.29594 -1.24513,-4.32134c-0.81788,-1.03761 -1.96536,-1.55642 -3.44242,-1.55642c-1.48928,0 -2.64896,0.51881 -3.47905,1.55642c-0.81788,1.0254 -1.22682,2.46585 -1.22682,4.32134c0,1.85549 0.40894,3.30204 1.22682,4.33965c0.83009,1.03761 1.98977,1.55642 3.47905,1.55642zM234.5231,190.17163c-0.83009,0 -1.47097,-0.22583 -1.92263,-0.6775c-0.45166,-0.45166 -0.6775,-1.09865 -0.6775,-1.94094v-14.85003c0,-0.8423 0.22583,-1.48928 0.6775,-1.94094c0.45166,-0.45166 1.09865,-0.6775 1.94094,-0.6775h6.92147c2.24612,0 3.98564,0.57984 5.21855,1.73952c1.23293,1.14747 1.84939,2.73441 1.84939,4.7608c0,2.02639 -0.61646,3.61943 -1.84939,4.77911c-1.23292,1.14747 -2.97243,1.72121 -5.21855,1.72121h-4.35796v4.46783c0,0.8423 -0.21973,1.48928 -0.65919,1.94094c-0.43946,0.45166 -1.08034,0.6775 -1.92263,0.6775zM237.10492,179.11193h3.46073c2.02639,0 3.03959,-0.8423 3.03959,-2.52689c0,-1.68459 -1.0132,-2.52689 -3.03959,-2.52689h-3.46073zM259.91331,190.17163c-0.87892,0 -1.5259,-0.29908 -1.94094,-0.89723c-0.41504,-0.59815 -0.41504,-1.34889 0,-2.25222l6.99471,-15.08807c0.3418,-0.72023 0.75685,-1.25124 1.24513,-1.59304c0.48829,-0.3418 1.06202,-0.5127 1.72121,-0.5127c0.63477,0 1.19631,0.1709 1.68459,0.5127c0.48829,0.3418 0.89723,0.87281 1.22682,1.59304l7.01302,15.08807c0.42725,0.91554 0.44556,1.67239 0.05493,2.27053c-0.39063,0.58594 -1.00709,0.87892 -1.84939,0.87892c-0.75685,0 -1.33669,-0.1648 -1.73952,-0.49439c-0.40284,-0.3418 -0.76295,-0.89112 -1.08034,-1.64797l-0.89723,-2.14236h-8.86241l-0.89723,2.14236c-0.3418,0.75685 -0.6897,1.30617 -1.04371,1.64797c-0.35401,0.32959 -0.89723,0.49439 -1.62966,0.49439zM267.8785,175.4864l-2.70999,6.44539h5.45661l-2.69168,-6.44539zM289.08758,190.22656c-2.8931,0 -5.1026,-0.73243 -6.6285,-2.19729c-1.5259,-1.46486 -2.28885,-3.64995 -2.28885,-6.55525v-9.02721c0,-0.8423 0.21973,-1.48928 0.65919,-1.94094c0.45166,-0.45166 1.09254,-0.6775 1.92263,-0.6775c0.83009,0 1.46486,0.22583 1.90432,0.6775c0.45166,0.45166 0.6775,1.09865 0.6775,1.94094v9.08214c0,1.45266 0.31739,2.5452 0.95216,3.27763c0.64698,0.72023 1.58083,1.08034 2.80155,1.08034c1.19631,0 2.11184,-0.36011 2.74661,-1.08034c0.63477,-0.73243 0.95216,-1.82497 0.95216,-3.27763v-9.08214c0,-0.8423 0.21973,-1.48928 0.65919,-1.94094c0.43946,-0.45166 1.07423,-0.6775 1.90432,-0.6775c0.83009,0 1.45876,0.22583 1.88601,0.6775c0.42725,0.45166 0.64088,1.09865 0.64088,1.94094v9.02721c0,2.90531 -0.74464,5.09039 -2.23391,6.55525c-1.48928,1.46486 -3.67436,2.19729 -6.55525,2.19729zM308.60547,190.17163c-0.83009,0 -1.47097,-0.22583 -1.92263,-0.6775c-0.45166,-0.45166 -0.6775,-1.09865 -0.6775,-1.94094v-13.23868h-4.41289c-1.42824,0 -2.14236,-0.70801 -2.14236,-2.12405c0,-1.40382 0.71412,-2.10574 2.14236,-2.10574h14.00774c1.42824,0 2.14236,0.70191 2.14236,2.10574c0,1.41603 -0.71412,2.12405 -2.14236,2.12405h-4.41289v13.23868c0,0.8423 -0.21973,1.48928 -0.65919,1.94094c-0.43946,0.45166 -1.08034,0.6775 -1.92263,0.6775zM327.87215,190.22656c-2.01418,0 -3.77812,-0.42725 -5.29181,-1.28175c-1.50148,-0.8545 -2.67337,-2.05081 -3.51567,-3.58891c-0.8423,-1.5381 -1.26344,-3.32645 -1.26344,-5.36505c0,-2.06301 0.41504,-3.85747 1.24513,-5.38337c0.83009,-1.5381 2.00198,-2.7283 3.51567,-3.5706c1.5259,-0.8423 3.29594,-1.26344 5.31012,-1.26344c2.00198,0 3.75371,0.42115 5.25519,1.26344c1.51369,0.8423 2.69168,2.03249 3.53398,3.5706c0.8423,1.5259 1.26344,3.32035 1.26344,5.38337c0,2.0386 -0.42115,3.82695 -1.26344,5.36505c-0.8423,1.5381 -2.02029,2.73441 -3.53398,3.58891c-1.50148,0.8545 -3.25321,1.28175 -5.25519,1.28175zM327.87215,185.88691c1.45266,0 2.59402,-0.51881 3.42411,-1.55642c0.8423,-1.03761 1.26344,-2.48416 1.26344,-4.33965c0,-1.85549 -0.41504,-3.29594 -1.24513,-4.32134c-0.81788,-1.03761 -1.96536,-1.55642 -3.44242,-1.55642c-1.48928,0 -2.64896,0.51881 -3.47905,1.55642c-0.81788,1.0254 -1.22682,2.46585 -1.22682,4.32134c0,1.85549 0.40894,3.30204 1.22682,4.33965c0.83009,1.03761 1.98977,1.55642 3.47905,1.55642zM351.63666,190.17163c-0.83009,0 -1.47097,-0.22583 -1.92263,-0.6775c-0.45166,-0.45166 -0.6775,-1.09865 -0.6775,-1.94094v-14.85003c0,-0.8423 0.22583,-1.48928 0.6775,-1.94094c0.45166,-0.45166 1.09865,-0.6775 1.94094,-0.6775h6.92147c2.24612,0 3.98564,0.57984 5.21857,1.73952c1.23293,1.14747 1.84939,2.73441 1.84939,4.7608c0,2.02639 -0.61646,3.61943 -1.84939,4.77911c-1.23293,1.14747 -2.97245,1.72121 -5.21857,1.72121h-4.35796v4.46783c0,0.8423 -0.21973,1.48928 -0.65919,1.94094c-0.43946,0.45166 -1.08034,0.6775 -1.92263,0.6775zM354.21848,179.11193h3.46073c2.02639,0 3.03959,-0.8423 3.03959,-2.52689c0,-1.68459 -1.0132,-2.52689 -3.03959,-2.52689h-3.46073zM370.66763,189.91528c-0.8423,0 -1.48928,-0.22583 -1.94094,-0.6775c-0.45166,-0.46387 -0.6775,-1.11085 -0.6775,-1.94094v-14.6303c0,-0.8423 0.22583,-1.48317 0.6775,-1.92263c0.45166,-0.45166 1.09254,-0.6775 1.92263,-0.6775c0.81788,0 1.45266,0.22583 1.90432,0.6775c0.45166,0.43946 0.6775,1.08034 0.6775,1.92263v12.94571h6.86654c0.70801,0 1.25124,0.18921 1.62966,0.56763c0.39063,0.36622 0.58594,0.89112 0.58594,1.57473c0,0.69581 -0.19531,1.23293 -0.58594,1.61135c-0.37842,0.36622 -0.92164,0.54932 -1.62966,0.54932zM385.1832,190.17163c-0.87892,0 -1.5259,-0.29908 -1.94094,-0.89723c-0.41504,-0.59815 -0.41504,-1.34889 0,-2.25222l6.99471,-15.08807c0.3418,-0.72023 0.75685,-1.25124 1.24513,-1.59304c0.48829,-0.3418 1.06202,-0.5127 1.72121,-0.5127c0.63477,0 1.19631,0.1709 1.68459,0.5127c0.48829,0.3418 0.89723,0.87281 1.22682,1.59304l7.01302,15.08807c0.42725,0.91554 0.44556,1.67239 0.05493,2.27053c-0.39063,0.58594 -1.00709,0.87892 -1.84939,0.87892c-0.75685,0 -1.33669,-0.1648 -1.73952,-0.49439c-0.40284,-0.3418 -0.76295,-0.89112 -1.08034,-1.64797l-0.89723,-2.14236h-8.86241l-0.89723,2.14236c-0.3418,0.75685 -0.6897,1.30617 -1.04371,1.64797c-0.35401,0.32959 -0.89723,0.49439 -1.62966,0.49439zM393.14839,175.4864l-2.70999,6.44539h5.45661l-2.69168,-6.44539zM411.15015,190.17163c-0.83009,0 -1.47097,-0.22583 -1.92263,-0.6775c-0.45166,-0.46387 -0.6775,-1.12916 -0.6775,-1.99587v-6.35384l-5.40168,-7.8187c-0.31739,-0.45166 -0.45166,-0.94605 -0.40284,-1.48317c0.04883,-0.54932 0.27466,-1.0193 0.6775,-1.40993c0.40284,-0.40284 0.97658,-0.60426 1.72121,-0.60426c0.52491,0 1.00099,0.13428 1.42824,0.40284c0.43946,0.25635 0.8484,0.6775 1.22682,1.26344l3.42411,5.03546l3.44242,-5.07208c0.39063,-0.57374 0.78736,-0.98878 1.1902,-1.24513c0.41504,-0.25635 0.90943,-0.38453 1.48317,-0.38453c0.70801,0 1.25734,0.18311 1.64797,0.54932c0.39063,0.35401 0.59815,0.80567 0.62257,1.355c0.03662,0.53712 -0.13428,1.08644 -0.5127,1.64797l-5.36505,7.76376v6.35384c0,1.78225 -0.86061,2.67337 -2.58182,2.67337z"/></g></g></svg>