<svg version="1.1" xmlns="http://www.w3.org/2000/svg" xmlns:xlink="http://www.w3.org/1999/xlink" width="493" height="373" viewBox="0,0,493,373"><defs><linearGradient x1="183.45892" y1="157.47326" x2="183.45892" y2="171.87253" gradientUnits="userSpaceOnUse" id="color-1"><stop offset="0" stop-color="#ffaa21"/><stop offset="1" stop-color="#ff8c14"/></linearGradient><linearGradient x1="183.45892" y1="157.47326" x2="183.45892" y2="171.87253" gradientUnits="userSpaceOnUse" id="color-2"><stop offset="0" stop-color="#ffaa21"/><stop offset="1" stop-color="#ff8c14"/></linearGradient><linearGradient x1="183.45893" y1="157.47326" x2="183.45893" y2="171.87255" gradientUnits="userSpaceOnUse" id="color-3"><stop offset="0" stop-color="#ffaa21"/><stop offset="1" stop-color="#ff8c14"/></linearGradient></defs><g transform="translate(6.5,6.5)"><g data-paper-data="{&quot;isPaintingLayer&quot;:true}" stroke-miterlimit="10" stroke-dasharray="" stroke-dashoffset="0" style="mix-blend-mode: normal"><g fill="#1f1f1f" fill-rule="nonzero" stroke="none" stroke-width="1.01822" stroke-linecap="butt" stroke-linejoin="miter"><path d="M-6.5,-6.5h160.225v373h-160.225z"/><path d="M327.30209,-6.5h159.19791v373h-159.19791z"/><path d="M91.07291,-6.5h270.12291v82.8889h-270.12291z"/><path d="M128.04791,282.575h235.20209v83.925h-235.20209z"/><path d="M144.48125,68.359h12.325v11.1382h-12.325z"/><path d="M325.24791,70.6903h9.24375v11.9153h-9.24375z"/><path d="M319.59896,73.7986h12.06823v5.4396h-12.06823z"/><path d="M323.19375,76.9069h3.59479v3.8855h-3.59479z"/><path d="M324.47761,279.9847h11.55468v8.2889h-11.55468z"/><path d="M326.53177,277.6535h4.62187v6.7347h-4.62187z"/><path d="M149.10313,280.5028h6.67604v6.2166h-6.67604z"/></g><path d="M147,68.359h12v11.1382h-12z" fill="#1f1f1f" fill-rule="nonzero" stroke="none" stroke-width="1.01822" stroke-linecap="butt" stroke-linejoin="miter"/><path d="M323,70.6903h9v11.9153h-9z" fill="#1f1f1f" fill-rule="nonzero" stroke="none" stroke-width="1.01822" stroke-linecap="butt" stroke-linejoin="miter"/><path d="M317.5,73.7986h11.75v5.4396h-11.75z" fill="#1f1f1f" fill-rule="nonzero" stroke="none" stroke-width="1.01822" stroke-linecap="butt" stroke-linejoin="miter"/><path d="M321,76.9069h3.5v3.8855h-3.5z" fill="#1f1f1f" fill-rule="nonzero" stroke="none" stroke-width="1.01822" stroke-linecap="butt" stroke-linejoin="miter"/><path d="M322.25,279.9847h11.25v8.2889h-11.25z" fill="#1f1f1f" fill-rule="nonzero" stroke="none" stroke-width="1.01822" stroke-linecap="butt" stroke-linejoin="miter"/><path d="M324.25,277.6535h4.5v6.7347h-4.5z" fill="#1f1f1f" fill-rule="nonzero" stroke="none" stroke-width="1.01822" stroke-linecap="butt" stroke-linejoin="miter"/><path d="M151.5,280.5028h6.5v6.2166h-6.5z" fill="#1f1f1f" fill-rule="nonzero" stroke="none" stroke-width="1.01822" stroke-linecap="butt" stroke-linejoin="miter"/><path d="M125.05259,31.77183c22.49569,0.02707 184.08737,0.2216 228.11631,0.2746c7.02219,0.00845 11.03856,4.56089 11.01901,10.35044c-0.08911,26.3854 -0.74872,221.70205 -0.9221,273.04293c-0.02651,7.84973 -4.70523,12.34276 -10.43384,12.35378c-23.52557,0.04529 -181.8544,0.35009 -225.75596,0.43459c-7.15262,0.01378 -11.26645,-4.34787 -11.26398,-12.0112c0.01634,-50.70378 0.07916,-245.59871 0.08802,-273.08516c0.00204,-6.31879 4.05105,-11.36614 9.15253,-11.36z" data-paper-data="{&quot;origRot&quot;:0,&quot;index&quot;:null}" fill="#000000" fill-rule="evenodd" stroke="none" stroke-width="1" stroke-linecap="round" stroke-linejoin="round" opacity="0.42445"/><path d="M200.1,171.5c0,-1.04934 0.85066,-1.9 1.9,-1.9c1.04934,0 1.9,0.85066 1.9,1.9c0,1.04934 -0.85066,1.9 -1.9,1.9c-1.04934,0 -1.9,-0.85066 -1.9,-1.9z" fill="#ffffff" fill-rule="nonzero" stroke="none" stroke-width="0.5" stroke-linecap="butt" stroke-linejoin="miter"/><path d="M199.9,160.9c0,-1.04934 0.85066,-1.9 1.9,-1.9c1.04934,0 1.9,0.85066 1.9,1.9c0,1.04934 -0.85066,1.9 -1.9,1.9c-1.04934,0 -1.9,-0.85066 -1.9,-1.9z" fill="#ffffff" fill-rule="nonzero" stroke="none" stroke-width="0.5" stroke-linecap="butt" stroke-linejoin="miter"/><path d="M162.62116,283.36047l-1.66942,-0.31999l-1.35346,-0.55931l-1.48864,-1.11832l-0.9021,-1.19799l-0.54094,-1.39737l-0.36045,-1.39727l0.0006,-1.79643l0.06925,-191.65267l0.09079,-1.43711l0.36156,-1.59655l0.63213,-1.11751l0.90291,-1.27706l1.48945,-1.11722l1.80511,-0.59804l2.25626,-0.11891l2.48173,-0.07887l149.94331,0.0578l1.895,0.3201l2.03029,0.79913l1.44364,0.79893l1.35325,1.11832l1.17267,1.35773l0.63122,1.3175l0.58594,1.79663l0.13479,1.67662l-0.02597,71.85481l-0.04308,119.35886l-0.13589,1.39707l-0.31627,1.19749l-0.81271,1.19729l-0.993,0.99761l-1.03809,0.67822l-1.48924,0.51837l-1.66963,0.19888l-1.66963,0.19898z" fill="none" fill-rule="nonzero" stroke="#ffffff" stroke-width="3.39044" stroke-linecap="butt" stroke-linejoin="miter"/><text transform="translate(160.5,63.75) scale(0.65168,0.65168)" font-size="40" xml:space="preserve" fill="#ffffff" fill-rule="nonzero" stroke="none" stroke-width="1" stroke-linecap="butt" stroke-linejoin="miter" stroke-miterlimit="10" stroke-dasharray="" stroke-dashoffset="0" font-family="Sans Serif" font-weight="normal" text-anchor="start" style="mix-blend-mode: normal"><tspan x="0" dy="0">GAME OVER!</tspan></text><g fill-rule="evenodd" stroke-linecap="butt" stroke-linejoin="round"><path d="M175.88362,162.9733l5.15647,-1.18228l2.41883,-4.31774l2.81293,4.55422l4.76237,0.94582l-3.57834,4.02976l0.68483,4.86947l-4.60298,-1.58636l-4.76062,1.58636l0.76364,-5.26358z" fill="url(#color-1)" stroke="url(#color-2)" stroke-width="6.5"/><path d="M175.88362,162.9733l5.15647,-1.18228l2.41883,-4.31774l2.81293,4.55422l4.76237,0.94582l-3.57834,4.02976l0.68483,4.86947l-4.60298,-1.58636l-4.76062,1.58636l0.76364,-5.26358z" fill="url(#color-3)" stroke="#fff0a6" stroke-width="4"/><path d="M177.34188,163.47709l4.17198,-0.95656l1.95702,-3.4934l2.27588,3.68472l3.85313,0.76524l-2.89516,3.26039l0.55407,3.93979l-3.72416,-1.28349l-3.8517,1.28349l0.61786,-4.25865z" fill="#f2cc41" stroke="#f2cc41" stroke-width="2.5"/></g><path d="M187.9049,106.05225c-0.76042,0 -1.54167,-0.07812 -2.34375,-0.23437c-0.80209,-0.15625 -1.48959,-0.375 -2.0625,-0.65625c-0.33334,-0.16666 -0.56771,-0.38541 -0.70312,-0.65625c-0.13542,-0.27084 -0.1875,-0.55209 -0.15625,-0.84375c0.04166,-0.29166 0.15104,-0.55209 0.32813,-0.78125c0.17708,-0.23959 0.40625,-0.39584 0.6875,-0.46875c0.28125,-0.08334 0.60416,-0.04687 0.96875,0.10938c0.46875,0.23959 1,0.42188 1.59375,0.54688c0.60416,0.11459 1.16666,0.17188 1.6875,0.17188c0.82291,0 1.39583,-0.10937 1.71875,-0.32812c0.33333,-0.21875 0.5,-0.48959 0.5,-0.8125c0,-0.28125 -0.11459,-0.51041 -0.34375,-0.6875c-0.22917,-0.17709 -0.63542,-0.32812 -1.21875,-0.45312l-2.1875,-0.46875c-2.36459,-0.51041 -3.54687,-1.74479 -3.54687,-3.70312c0,-0.86459 0.23438,-1.61979 0.70313,-2.26562c0.46875,-0.64584 1.11979,-1.14584 1.95313,-1.5c0.83333,-0.35416 1.80208,-0.53125 2.90625,-0.53125c0.64583,0 1.30208,0.07291 1.96875,0.21875c0.66666,0.14584 1.24479,0.35938 1.73438,0.64063c0.375,0.19791 0.60938,0.46875 0.70313,0.8125c0.10416,0.34375 0.09375,0.67709 -0.03125,1c-0.125,0.32291 -0.34896,0.5625 -0.67187,0.71875c-0.3125,0.14584 -0.71354,0.11459 -1.20312,-0.09375c-0.375,-0.15625 -0.78646,-0.27604 -1.23437,-0.35937c-0.44792,-0.08334 -0.88021,-0.125 -1.29687,-0.125c-0.69792,0 -1.23437,0.125 -1.60937,0.375c-0.375,0.23959 -0.5625,0.55209 -0.5625,0.9375c0,0.27084 0.10938,0.49479 0.32813,0.67188c0.22916,0.17709 0.63021,0.32813 1.20313,0.45313l2.17188,0.45313c2.39583,0.51041 3.59375,1.71875 3.59375,3.625c0,0.85416 -0.22917,1.59896 -0.6875,2.23438c-0.45834,0.63541 -1.10417,1.13021 -1.9375,1.48438c-0.83334,0.34375 -1.81771,0.51563 -2.95312,0.51563zM201.8001,106.05225c-1.44791,0 -2.69791,-0.27604 -3.75,-0.82812c-1.04166,-0.5625 -1.83854,-1.35416 -2.39062,-2.375c-0.55208,-1.02084 -0.82812,-2.21354 -0.82812,-3.57812c0,-1.375 0.27604,-2.56771 0.82813,-3.57812c0.55209,-1.01041 1.34896,-1.79687 2.39063,-2.35937c1.05209,-0.5625 2.30209,-0.84375 3.75,-0.84375c0.57292,0 1.16667,0.06771 1.78125,0.20313c0.625,0.125 1.17188,0.31771 1.64063,0.57813c0.34375,0.1875 0.58334,0.42709 0.71875,0.71875c0.14584,0.28125 0.19792,0.57291 0.15625,0.875c-0.03125,0.29166 -0.14062,0.55729 -0.32812,0.79688c-0.17708,0.23959 -0.40625,0.40104 -0.6875,0.48438c-0.27083,0.07291 -0.56771,0.03125 -0.89062,-0.125c-0.72916,-0.36459 -1.47916,-0.54687 -2.25,-0.54687c-1.15625,0 -2.02604,0.32813 -2.60937,0.98438c-0.58333,0.65625 -0.875,1.59375 -0.875,2.8125c0,1.22916 0.29167,2.17188 0.875,2.82813c0.58334,0.64584 1.45313,0.96875 2.60938,0.96875c0.32292,0 0.67188,-0.03646 1.04688,-0.10937c0.375,-0.08334 0.73959,-0.21354 1.09375,-0.39062c0.375,-0.16666 0.70834,-0.20834 1,-0.125c0.29167,0.07291 0.53125,0.22396 0.71875,0.45313c0.1875,0.21875 0.30209,0.47396 0.34375,0.76563c0.04167,0.29166 0,0.58334 -0.125,0.875c-0.125,0.28125 -0.35416,0.50521 -0.6875,0.67188c-0.4375,0.26041 -0.97916,0.46875 -1.625,0.625c-0.63541,0.14584 -1.27083,0.21875 -1.90625,0.21875zM213.89074,106.05225c-1.32292,0 -2.48959,-0.28125 -3.5,-0.84375c-1,-0.57291 -1.78125,-1.36459 -2.34375,-2.375c-0.55209,-1.02084 -0.82812,-2.20834 -0.82812,-3.5625c0,-1.375 0.27604,-2.56771 0.82813,-3.57812c0.55208,-1.01041 1.33333,-1.79687 2.34375,-2.35937c1.01041,-0.5625 2.17708,-0.84375 3.5,-0.84375c1.33333,0 2.5,0.28125 3.5,0.84375c1,0.5625 1.78125,1.34896 2.34375,2.35938c0.5625,1.01041 0.84375,2.20313 0.84375,3.57813c0,1.35416 -0.28125,2.54166 -0.84375,3.5625c-0.5625,1.01041 -1.34375,1.80209 -2.34375,2.375c-1,0.5625 -2.16667,0.84375 -3.5,0.84375zM213.89074,103.17725c0.97916,0 1.74479,-0.34375 2.29688,-1.03125c0.55208,-0.6875 0.82813,-1.64584 0.82813,-2.875c0,-1.23959 -0.27604,-2.19791 -0.82812,-2.875c-0.54167,-0.6875 -1.30729,-1.03125 -2.29687,-1.03125c-0.97917,0 -1.74479,0.34375 -2.29687,1.03125c-0.54167,0.67709 -0.8125,1.63541 -0.8125,2.875c0,1.22916 0.27083,2.1875 0.8125,2.875c0.55208,0.6875 1.31771,1.03125 2.29688,1.03125zM224.32135,106.021c-0.54167,0 -0.96354,-0.15104 -1.26562,-0.45312c-0.30209,-0.30209 -0.45312,-0.72916 -0.45312,-1.28125v-9.85937c0,-0.55209 0.15104,-0.97916 0.45313,-1.28125c0.30208,-0.30209 0.72916,-0.45312 1.28125,-0.45312h4.59375c1.48958,0 2.64063,0.36459 3.45313,1.09375c0.82291,0.72916 1.23438,1.73959 1.23438,3.03125c0,0.97916 -0.24479,1.80209 -0.73437,2.46875c-0.48959,0.66666 -1.20312,1.13021 -2.14062,1.39063c0.69791,0.1875 1.25521,0.66666 1.67188,1.4375l0.9375,1.6875c0.19791,0.36459 0.28646,0.71875 0.26563,1.0625c-0.01042,0.33334 -0.14062,0.60938 -0.39062,0.82813c-0.25,0.21875 -0.61979,0.32813 -1.10937,0.32813c-0.47917,0 -0.875,-0.09375 -1.1875,-0.28125c-0.30209,-0.19791 -0.56771,-0.51562 -0.79687,-0.95312l-1.70312,-3.10937c-0.14584,-0.28125 -0.33854,-0.47396 -0.57812,-0.57812c-0.22917,-0.10416 -0.48959,-0.15625 -0.78125,-0.15625h-1.03125v3.34375c0,0.55209 -0.14584,0.97916 -0.4375,1.28125c-0.29167,0.30209 -0.71875,0.45313 -1.28125,0.45313zM226.0401,98.521h2.28125c1.35416,0 2.03125,-0.53646 2.03125,-1.60937c0,-1.05209 -0.67709,-1.57812 -2.03125,-1.57812h-2.28125zM237.57079,105.84913c-1.19791,0 -1.79687,-0.58854 -1.79687,-1.76562v-9.60937c0,-1.1875 0.59896,-1.78125 1.79688,-1.78125h6.32813c0.89584,0 1.34375,0.4375 1.34375,1.3125c0,0.89584 -0.44791,1.34375 -1.34375,1.34375h-4.82812v2.5h4.42188c0.89584,0 1.34375,0.44271 1.34375,1.32813c0,0.875 -0.44791,1.3125 -1.34375,1.3125h-4.42187v2.70313h4.82813c0.89584,0 1.34375,0.44271 1.34375,1.32813c0,0.88541 -0.44791,1.32813 -1.34375,1.32813zM253.90829,100.17725c-0.55208,0 -0.99479,-0.17187 -1.32812,-0.51562c-0.33333,-0.34375 -0.5,-0.77604 -0.5,-1.29687c0,-0.54166 0.16667,-0.97916 0.5,-1.3125c0.33334,-0.33334 0.77604,-0.5 1.32813,-0.5c0.57292,0 1.02084,0.16666 1.34375,0.5c0.32292,0.33334 0.48438,0.77084 0.48438,1.3125c0,0.52084 -0.16146,0.95313 -0.48437,1.29688c-0.32291,0.34375 -0.77083,0.51563 -1.34375,0.51563zM253.90829,105.9585c-0.55208,0 -0.99479,-0.17187 -1.32812,-0.51562c-0.33333,-0.34375 -0.5,-0.78125 -0.5,-1.3125c0,-0.52084 0.16667,-0.94791 0.5,-1.28125c0.33334,-0.33334 0.77604,-0.5 1.32813,-0.5c0.57292,0 1.02084,0.16666 1.34375,0.5c0.32292,0.33334 0.48438,0.76041 0.48438,1.28125c0,0.53125 -0.16146,0.96875 -0.48437,1.3125c-0.32291,0.34375 -0.77083,0.51563 -1.34375,0.51563z" fill="#ffffff" fill-rule="nonzero" stroke="none" stroke-width="1" stroke-linecap="square" stroke-linejoin="miter"/><path d="M168.53369,130.1617c-0.24961,0 -0.45206,-0.05824 -0.60737,-0.17472c-0.14976,-0.11648 -0.26625,-0.29675 -0.34945,-0.54081l-1.9386,-5.3998c-0.11094,-0.29398 -0.0943,-0.54636 0.04992,-0.75714c0.14422,-0.21078 0.39937,-0.31617 0.76546,-0.31617c0.24961,0 0.44097,0.05824 0.57409,0.17472c0.13867,0.11648 0.24961,0.29675 0.33281,0.54081l1.24803,3.77737l1.35619,-3.77737c0.08875,-0.24406 0.19968,-0.42433 0.33281,-0.54081c0.13867,-0.11648 0.32171,-0.17472 0.54913,-0.17472c0.21632,0 0.39105,0.05824 0.52417,0.17472c0.13312,0.11648 0.24129,0.3023 0.32449,0.55745l1.29795,3.84393l1.31459,-3.86057c0.0832,-0.24406 0.19136,-0.42433 0.32449,-0.54081c0.13867,-0.11648 0.33003,-0.17472 0.57409,-0.17472c0.30507,0 0.52695,0.10539 0.66562,0.31617c0.13867,0.21078 0.15531,0.46316 0.04992,0.75714l-1.95525,5.40812c-0.08875,0.23851 -0.208,0.41601 -0.35777,0.53249c-0.14976,0.11648 -0.34667,0.17472 -0.59073,0.17472c-0.24406,0 -0.44374,-0.05824 -0.59905,-0.17472c-0.14976,-0.11648 -0.26625,-0.29675 -0.34945,-0.54081l-1.28131,-3.586l-1.30627,3.59432c-0.0943,0.23851 -0.21355,0.41601 -0.35777,0.53249c-0.14422,0.11648 -0.34113,0.17472 -0.59073,0.17472zM180.1997,130.17834c-0.70444,0 -1.32568,-0.14976 -1.86372,-0.44929c-0.53249,-0.30507 -0.9485,-0.72663 -1.24803,-1.26467c-0.29398,-0.54359 -0.44097,-1.17592 -0.44097,-1.897c0,-0.73218 0.14699,-1.36729 0.44097,-1.90532c0.29398,-0.53804 0.70999,-0.95682 1.24803,-1.25635c0.53804,-0.29953 1.15928,-0.44929 1.86372,-0.44929c0.70999,0 1.33123,0.14976 1.86372,0.44929c0.53249,0.29953 0.9485,0.71831 1.24803,1.25635c0.29953,0.53804 0.44929,1.17315 0.44929,1.90532c0,0.72108 -0.14976,1.35342 -0.44929,1.897c-0.29953,0.53804 -0.71554,0.9596 -1.24803,1.26467c-0.53249,0.29953 -1.15373,0.44929 -1.86372,0.44929zM180.1997,128.64743c0.5214,0 0.92909,-0.18304 1.22307,-0.54913c0.29398,-0.36609 0.44097,-0.87639 0.44097,-1.53092c0,-0.66007 -0.14699,-1.17037 -0.44097,-1.53092c-0.28843,-0.36609 -0.69612,-0.54913 -1.22307,-0.54913c-0.5214,0 -0.92909,0.18304 -1.22307,0.54913c-0.28843,0.36054 -0.43265,0.87085 -0.43265,1.53092c0,0.65452 0.14422,1.16483 0.43265,1.53092c0.29398,0.36609 0.70167,0.54913 1.22307,0.54913zM185.75392,130.1617c-0.28843,0 -0.51308,-0.08043 -0.67394,-0.24129c-0.16086,-0.16086 -0.24129,-0.38827 -0.24129,-0.68226v-5.25004c0,-0.29398 0.08043,-0.5214 0.24129,-0.68226c0.16086,-0.16086 0.38827,-0.24129 0.68226,-0.24129h2.44614c0.79319,0 1.40611,0.19414 1.83876,0.58241c0.4382,0.38827 0.6573,0.92632 0.6573,1.61412c0,0.5214 -0.13035,0.9596 -0.39105,1.31459c-0.2607,0.35499 -0.64065,0.60183 -1.13987,0.7405c0.37163,0.09984 0.66839,0.35499 0.89026,0.76546l0.49921,0.89858c0.10539,0.19414 0.15254,0.38273 0.14144,0.56577c-0.00555,0.1775 -0.07488,0.32449 -0.208,0.44097c-0.13312,0.11648 -0.33003,0.17472 -0.59073,0.17472c-0.25515,0 -0.46593,-0.04992 -0.63233,-0.14976c-0.16086,-0.10539 -0.3023,-0.27457 -0.42433,-0.50753l-0.9069,-1.65572c-0.07766,-0.14976 -0.18027,-0.25238 -0.30785,-0.30785c-0.12203,-0.05547 -0.2607,-0.0832 -0.41601,-0.0832h-0.54913v1.78052c0,0.29398 -0.07766,0.5214 -0.23297,0.68226c-0.15531,0.16086 -0.38273,0.24129 -0.68226,0.24129zM186.66914,126.16801h1.21475c0.72108,0 1.08162,-0.28566 1.08162,-0.85698c0,-0.56023 -0.36054,-0.84034 -1.08162,-0.84034h-1.21475zM192.77587,130.07018c-0.29398,0 -0.5214,-0.08043 -0.68226,-0.24129c-0.16086,-0.1664 -0.24129,-0.39382 -0.24129,-0.68226v-5.16684c0,-0.29953 0.08043,-0.52695 0.24129,-0.68226c0.16086,-0.16086 0.3855,-0.24129 0.67394,-0.24129c0.29398,0 0.51863,0.08043 0.67394,0.24129c0.16086,0.15531 0.24129,0.38273 0.24129,0.68226v4.56779h2.42118c0.25515,0 0.44929,0.06656 0.58241,0.19968c0.13867,0.13312 0.208,0.31894 0.208,0.55745c0,0.24406 -0.06934,0.43265 -0.208,0.56577c-0.13312,0.13312 -0.32726,0.19968 -0.58241,0.19968zM198.62072,130.07018c-0.63788,0 -0.95682,-0.31339 -0.95682,-0.94018v-5.11692c0,-0.63233 0.31894,-0.9485 0.95682,-0.9485h1.94692c1.21475,0 2.15493,0.30507 2.82054,0.91522c0.67116,0.61015 1.00674,1.47267 1.00674,2.58758c0,1.10936 -0.33558,1.97189 -1.00674,2.58758c-0.66562,0.61015 -1.6058,0.91522 -2.82054,0.91522zM199.49434,128.58919h0.95682c0.69335,0 1.20643,-0.1664 1.53924,-0.49921c0.33835,-0.33835 0.50753,-0.84589 0.50753,-1.5226c0,-0.68226 -0.16918,-1.18979 -0.50753,-1.5226c-0.33835,-0.33281 -0.85143,-0.49921 -1.53924,-0.49921h-0.95682zM209.2287,130.1617c-0.28843,0 -0.51308,-0.08043 -0.67394,-0.24129c-0.16086,-0.16086 -0.24129,-0.38827 -0.24129,-0.68226v-5.25004c0,-0.29398 0.08043,-0.5214 0.24129,-0.68226c0.16086,-0.16086 0.38827,-0.24129 0.68226,-0.24129h2.44614c0.79319,0 1.40611,0.19414 1.83876,0.58241c0.4382,0.38827 0.6573,0.92632 0.6573,1.61412c0,0.5214 -0.13035,0.9596 -0.39105,1.31459c-0.2607,0.35499 -0.64065,0.60183 -1.13987,0.7405c0.37163,0.09984 0.66839,0.35499 0.89026,0.76546l0.49921,0.89858c0.10539,0.19414 0.15254,0.38273 0.14144,0.56577c-0.00555,0.1775 -0.07488,0.32449 -0.208,0.44097c-0.13312,0.11648 -0.33003,0.17472 -0.59073,0.17472c-0.25515,0 -0.46593,-0.04992 -0.63233,-0.14976c-0.16086,-0.10539 -0.3023,-0.27457 -0.42433,-0.50753l-0.9069,-1.65572c-0.07766,-0.14976 -0.18027,-0.25238 -0.30785,-0.30785c-0.12203,-0.05547 -0.2607,-0.0832 -0.41601,-0.0832h-0.54913v1.78052c0,0.29398 -0.07766,0.5214 -0.23297,0.68226c-0.15531,0.16086 -0.38273,0.24129 -0.68226,0.24129zM210.14392,126.16801h1.21475c0.72108,0 1.08162,-0.28566 1.08162,-0.85698c0,-0.56023 -0.36054,-0.84034 -1.08162,-0.84034h-1.21475zM216.28392,130.07018c-0.63788,0 -0.95682,-0.31339 -0.95682,-0.94018v-5.11692c0,-0.63233 0.31894,-0.9485 0.95682,-0.9485h3.36968c0.47703,0 0.71554,0.23297 0.71554,0.6989c0,0.47703 -0.23851,0.71554 -0.71554,0.71554h-2.57094v1.33123h2.35461c0.47703,0 0.71554,0.23574 0.71554,0.70722c0,0.46593 -0.23851,0.6989 -0.71554,0.6989h-2.35461v1.43939h2.57094c0.47703,0 0.71554,0.23574 0.71554,0.70722c0,0.47148 -0.23851,0.70722 -0.71554,0.70722zM224.98273,130.17834c-0.771,0 -1.43662,-0.14699 -1.99685,-0.44097c-0.55468,-0.29953 -0.97901,-0.72108 -1.27299,-1.26467c-0.29398,-0.54359 -0.44097,-1.17869 -0.44097,-1.90532c0,-0.73218 0.14699,-1.36729 0.44097,-1.90532c0.29398,-0.53804 0.71831,-0.95682 1.27299,-1.25635c0.56023,-0.29953 1.22584,-0.44929 1.99685,-0.44929c0.30507,0 0.62124,0.03606 0.9485,0.10816c0.33281,0.06656 0.62401,0.16918 0.87362,0.30785c0.18304,0.09984 0.31062,0.22742 0.38273,0.38273c0.07766,0.14976 0.10539,0.30507 0.0832,0.46593c-0.01664,0.15531 -0.07488,0.29675 -0.17472,0.42433c-0.0943,0.12758 -0.21632,0.21355 -0.36609,0.25793c-0.14422,0.03883 -0.3023,0.01664 -0.47425,-0.06656c-0.38827,-0.19414 -0.78764,-0.29121 -1.19811,-0.29121c-0.61569,0 -1.07885,0.17472 -1.38947,0.52417c-0.31062,0.34945 -0.46593,0.84866 -0.46593,1.49763c0,0.65452 0.15531,1.15651 0.46593,1.50595c0.31062,0.3439 0.77378,0.51585 1.38947,0.51585c0.17195,0 0.35777,-0.01941 0.55745,-0.05824c0.19968,-0.04438 0.39382,-0.11371 0.58241,-0.208c0.19968,-0.08875 0.37718,-0.11094 0.53249,-0.06656c0.15531,0.03883 0.28289,0.11926 0.38273,0.24129c0.09984,0.11648 0.16086,0.25238 0.18304,0.40769c0.02219,0.15531 0,0.31062 -0.06656,0.46593c-0.06656,0.14976 -0.18859,0.26902 -0.36609,0.35777c-0.23297,0.13867 -0.5214,0.24961 -0.8653,0.33281c-0.33835,0.07766 -0.67671,0.11648 -1.01506,0.11648zM231.4209,130.17834c-0.70444,0 -1.32568,-0.14976 -1.86372,-0.44929c-0.53249,-0.30507 -0.9485,-0.72663 -1.24803,-1.26467c-0.29398,-0.54359 -0.44097,-1.17592 -0.44097,-1.897c0,-0.73218 0.14699,-1.36729 0.44097,-1.90532c0.29398,-0.53804 0.70999,-0.95682 1.24803,-1.25635c0.53804,-0.29953 1.15928,-0.44929 1.86372,-0.44929c0.70999,0 1.33123,0.14976 1.86372,0.44929c0.53249,0.29953 0.9485,0.71831 1.24803,1.25635c0.29953,0.53804 0.44929,1.17315 0.44929,1.90532c0,0.72108 -0.14976,1.35342 -0.44929,1.897c-0.29953,0.53804 -0.71554,0.9596 -1.24803,1.26467c-0.53249,0.29953 -1.15373,0.44929 -1.86372,0.44929zM231.4209,128.64743c0.5214,0 0.92909,-0.18304 1.22307,-0.54913c0.29398,-0.36609 0.44097,-0.87639 0.44097,-1.53092c0,-0.66007 -0.14699,-1.17037 -0.44097,-1.53092c-0.28843,-0.36609 -0.69612,-0.54913 -1.22307,-0.54913c-0.5214,0 -0.92909,0.18304 -1.22307,0.54913c-0.28843,0.36054 -0.43265,0.87085 -0.43265,1.53092c0,0.65452 0.14422,1.16483 0.43265,1.53092c0.29398,0.36609 0.70167,0.54913 1.22307,0.54913zM236.97511,130.1617c-0.28843,0 -0.51308,-0.08043 -0.67394,-0.24129c-0.16086,-0.16086 -0.24129,-0.38827 -0.24129,-0.68226v-5.25004c0,-0.29398 0.08043,-0.5214 0.24129,-0.68226c0.16086,-0.16086 0.38827,-0.24129 0.68226,-0.24129h2.44614c0.79319,0 1.40611,0.19414 1.83876,0.58241c0.4382,0.38827 0.6573,0.92632 0.6573,1.61412c0,0.5214 -0.13035,0.9596 -0.39105,1.31459c-0.2607,0.35499 -0.64065,0.60183 -1.13987,0.7405c0.37163,0.09984 0.66839,0.35499 0.89026,0.76546l0.49921,0.89858c0.10539,0.19414 0.15254,0.38273 0.14144,0.56577c-0.00555,0.1775 -0.07488,0.32449 -0.208,0.44097c-0.13312,0.11648 -0.33003,0.17472 -0.59073,0.17472c-0.25515,0 -0.46593,-0.04992 -0.63233,-0.14976c-0.16086,-0.10539 -0.3023,-0.27457 -0.42433,-0.50753l-0.9069,-1.65572c-0.07766,-0.14976 -0.18027,-0.25238 -0.30785,-0.30785c-0.12203,-0.05547 -0.2607,-0.0832 -0.41601,-0.0832h-0.54913v1.78052c0,0.29398 -0.07766,0.5214 -0.23297,0.68226c-0.15531,0.16086 -0.38273,0.24129 -0.68226,0.24129zM237.89033,126.16801h1.21475c0.72108,0 1.08162,-0.28566 1.08162,-0.85698c0,-0.56023 -0.36054,-0.84034 -1.08162,-0.84034h-1.21475zM244.03034,130.07018c-0.63788,0 -0.95682,-0.31339 -0.95682,-0.94018v-5.11692c0,-0.63233 0.31894,-0.9485 0.95682,-0.9485h1.94692c1.21475,0 2.15493,0.30507 2.82054,0.91522c0.67116,0.61015 1.00674,1.47267 1.00674,2.58758c0,1.10936 -0.33558,1.97189 -1.00674,2.58758c-0.66562,0.61015 -1.6058,0.91522 -2.82054,0.91522zM244.90396,128.58919h0.95682c0.69335,0 1.20643,-0.1664 1.53924,-0.49921c0.33835,-0.33835 0.50753,-0.84589 0.50753,-1.5226c0,-0.68226 -0.16918,-1.18979 -0.50753,-1.5226c-0.33835,-0.33281 -0.85143,-0.49921 -1.53924,-0.49921h-0.95682zM254.43864,127.04995c-0.29398,0 -0.52972,-0.09152 -0.70722,-0.27457c-0.1775,-0.18304 -0.26625,-0.41324 -0.26625,-0.69058c0,-0.28843 0.08875,-0.5214 0.26625,-0.6989c0.1775,-0.1775 0.41324,-0.26625 0.70722,-0.26625c0.30507,0 0.54359,0.08875 0.71554,0.26625c0.17195,0.1775 0.25793,0.41046 0.25793,0.6989c0,0.27734 -0.08598,0.50753 -0.25793,0.69058c-0.17195,0.18304 -0.41046,0.27457 -0.71554,0.27457zM254.43864,130.12842c-0.29398,0 -0.52972,-0.09152 -0.70722,-0.27457c-0.1775,-0.18304 -0.26625,-0.41601 -0.26625,-0.6989c0,-0.27734 0.08875,-0.50476 0.26625,-0.68226c0.1775,-0.1775 0.41324,-0.26625 0.70722,-0.26625c0.30507,0 0.54359,0.08875 0.71554,0.26625c0.17195,0.1775 0.25793,0.40492 0.25793,0.68226c0,0.28289 -0.08598,0.51585 -0.25793,0.6989c-0.17195,0.18304 -0.41046,0.27457 -0.71554,0.27457z" fill="#ffffff" fill-rule="nonzero" stroke="none" stroke-width="1" stroke-linecap="square" stroke-linejoin="miter"/></g></g></svg>