<svg version="1.1" xmlns="http://www.w3.org/2000/svg" xmlns:xlink="http://www.w3.org/1999/xlink" width="491.30843" height="411.86492" viewBox="0,0,491.30843,411.86492"><defs><radialGradient cx="246.02196" cy="178.75" r="357.10247" gradientUnits="userSpaceOnUse" id="color-1"><stop offset="0" stop-color="#071f57"/><stop offset="1" stop-color="#090f3e"/></radialGradient><linearGradient x1="241.66855" y1="246.75" x2="241.66855" y2="360.75" gradientUnits="userSpaceOnUse" id="color-2"><stop offset="0" stop-color="#050b2c" stop-opacity="0"/><stop offset="1" stop-color="#050b2c"/></linearGradient><linearGradient x1="239.70645" y1="111.75" x2="239.70645" y2="-2.25" gradientUnits="userSpaceOnUse" id="color-3"><stop offset="0" stop-color="#050b2c" stop-opacity="0"/><stop offset="1" stop-color="#050b2c"/></linearGradient><linearGradient x1="239.08307" y1="58.63644" x2="239.08307" y2="0.54871" gradientUnits="userSpaceOnUse" id="color-4"><stop offset="0" stop-color="#000000" stop-opacity="0"/><stop offset="1" stop-color="#000000"/></linearGradient><linearGradient x1="411.7632" y1="182.19827" x2="485.22709" y2="182.19827" gradientUnits="userSpaceOnUse" id="color-5"><stop offset="0" stop-color="#000000" stop-opacity="0"/><stop offset="1" stop-color="#000000"/></linearGradient><linearGradient x1="73.36219" y1="177.80172" x2="-0.10171" y2="177.80172" gradientUnits="userSpaceOnUse" id="color-6"><stop offset="0" stop-color="#000000" stop-opacity="0"/><stop offset="1" stop-color="#000000"/></linearGradient><linearGradient x1="241.77116" y1="308.19739" x2="241.77116" y2="366.28512" gradientUnits="userSpaceOnUse" id="color-7"><stop offset="0" stop-color="#000000" stop-opacity="0"/><stop offset="1" stop-color="#000000"/></linearGradient><linearGradient x1="398.79037" y1="312.72834" x2="461.1549" y2="312.72834" gradientUnits="userSpaceOnUse" id="color-8"><stop offset="0" stop-color="#ff6868"/><stop offset="1" stop-color="#ff0000"/></linearGradient><linearGradient x1="424.60907" y1="309.5805" x2="445.71301" y2="309.5805" gradientUnits="userSpaceOnUse" id="color-9"><stop offset="0" stop-color="#ff6868"/><stop offset="1" stop-color="#ff0000"/></linearGradient><radialGradient cx="235.32618" cy="183.05267" r="2.22839" gradientUnits="userSpaceOnUse" id="color-10"><stop offset="0" stop-color="#ffffff"/><stop offset="1" stop-color="#ffffff" stop-opacity="0"/></radialGradient><radialGradient cx="255.98609" cy="198.75424" r="18.63431" gradientUnits="userSpaceOnUse" id="color-11"><stop offset="0" stop-color="#ff8a00"/><stop offset="1" stop-color="#ffa100"/></radialGradient><radialGradient cx="239.75544" cy="184.04199" r="11.20868" gradientUnits="userSpaceOnUse" id="color-12"><stop offset="0" stop-color="#ffc600"/><stop offset="1" stop-color="#ffa100"/></radialGradient><radialGradient cx="236.60969" cy="189.02397" r="4.42769" gradientUnits="userSpaceOnUse" id="color-13"><stop offset="0" stop-color="#ffde00"/><stop offset="1" stop-color="#ffde00" stop-opacity="0"/></radialGradient><radialGradient cx="139.8397" cy="138.04066" r="2.22839" gradientUnits="userSpaceOnUse" id="color-14"><stop offset="0" stop-color="#ffffff"/><stop offset="1" stop-color="#ffffff" stop-opacity="0"/></radialGradient><radialGradient cx="160.49961" cy="153.74223" r="18.63431" gradientUnits="userSpaceOnUse" id="color-15"><stop offset="0" stop-color="#ff8a00"/><stop offset="1" stop-color="#ffa100"/></radialGradient><radialGradient cx="144.26896" cy="139.02998" r="11.20868" gradientUnits="userSpaceOnUse" id="color-16"><stop offset="0" stop-color="#ffc600"/><stop offset="1" stop-color="#ffa100"/></radialGradient><radialGradient cx="141.12321" cy="144.01196" r="4.42769" gradientUnits="userSpaceOnUse" id="color-17"><stop offset="0" stop-color="#ffde00"/><stop offset="1" stop-color="#ffde00" stop-opacity="0"/></radialGradient><radialGradient cx="353.9418" cy="131.00762" r="2.22839" gradientUnits="userSpaceOnUse" id="color-18"><stop offset="0" stop-color="#ffffff"/><stop offset="1" stop-color="#ffffff" stop-opacity="0"/></radialGradient><radialGradient cx="374.60171" cy="146.70919" r="18.63431" gradientUnits="userSpaceOnUse" id="color-19"><stop offset="0" stop-color="#ff8a00"/><stop offset="1" stop-color="#ffa100"/></radialGradient><radialGradient cx="358.37106" cy="131.99694" r="11.20868" gradientUnits="userSpaceOnUse" id="color-20"><stop offset="0" stop-color="#ffc600"/><stop offset="1" stop-color="#ffa100"/></radialGradient><radialGradient cx="355.22531" cy="136.97892" r="4.42769" gradientUnits="userSpaceOnUse" id="color-21"><stop offset="0" stop-color="#ffde00"/><stop offset="1" stop-color="#ffde00" stop-opacity="0"/></radialGradient><linearGradient x1="92.67539" y1="208.741" x2="92.67539" y2="234.47107" gradientUnits="userSpaceOnUse" id="color-22"><stop offset="0" stop-color="#ffaa21"/><stop offset="1" stop-color="#ff8c14"/></linearGradient><linearGradient x1="92.67539" y1="208.741" x2="92.67539" y2="234.47107" gradientUnits="userSpaceOnUse" id="color-23"><stop offset="0" stop-color="#ffaa21"/><stop offset="1" stop-color="#ff8c14"/></linearGradient><linearGradient x1="92.6754" y1="208.741" x2="92.6754" y2="234.47108" gradientUnits="userSpaceOnUse" id="color-24"><stop offset="0" stop-color="#ffaa21"/><stop offset="1" stop-color="#ff8c14"/></linearGradient><linearGradient x1="337.67539" y1="210.741" x2="337.67539" y2="236.47107" gradientUnits="userSpaceOnUse" id="color-25"><stop offset="0" stop-color="#ffaa21"/><stop offset="1" stop-color="#ff8c14"/></linearGradient><linearGradient x1="337.67539" y1="210.741" x2="337.67539" y2="236.47107" gradientUnits="userSpaceOnUse" id="color-26"><stop offset="0" stop-color="#ffaa21"/><stop offset="1" stop-color="#ff8c14"/></linearGradient><linearGradient x1="337.6754" y1="210.741" x2="337.6754" y2="236.47109" gradientUnits="userSpaceOnUse" id="color-27"><stop offset="0" stop-color="#ffaa21"/><stop offset="1" stop-color="#ff8c14"/></linearGradient><linearGradient x1="73.76426" y1="74.00001" x2="408.23579" y2="74.00001" gradientUnits="userSpaceOnUse" id="color-28"><stop offset="0" stop-color="#ff7b00" stop-opacity="0"/><stop offset="1" stop-color="#ff7b00" stop-opacity="0"/></linearGradient></defs><g transform="translate(5.2271,25.93246)"><g data-paper-data="{&quot;isPaintingLayer&quot;:true}" stroke-miterlimit="10" stroke-dasharray="" stroke-dashoffset="0" style="mix-blend-mode: normal"><g fill-rule="nonzero" stroke="none" stroke-linecap="butt" stroke-linejoin="miter"><path d="M-1.20283,362.25v-364h484.63907v364z" fill="url(#color-1)" stroke-width="NaN"/><path d="M-0.16046,360.75v-114h483.65802v114z" fill="url(#color-2)" stroke-width="0"/><path d="M481.53546,-2.25v114h-483.65802v-114z" data-paper-data="{&quot;index&quot;:null}" fill="url(#color-3)" stroke-width="0"/><path d="M-3.24756,-0.875c0,-1.38071 1.11929,-2.5 2.5,-2.5c1.38071,0 2.5,1.11929 2.5,2.5c0,1.38071 -1.11929,2.5 -2.5,2.5c-1.38071,0 -2.5,-1.11929 -2.5,-2.5z" fill="#000000" stroke-width="0.5"/><path d="M-3.49756,360.875c0,-1.38071 1.11929,-2.5 2.5,-2.5c1.38071,0 2.5,1.11929 2.5,2.5c0,1.38071 -1.11929,2.5 -2.5,2.5c-1.38071,0 -2.5,-1.11929 -2.5,-2.5z" fill="#000000" stroke-width="0.5"/></g><g fill-rule="nonzero" stroke="#000000" stroke-width="0" stroke-linecap="butt" stroke-linejoin="miter"><g><path d="M280.025,136.375c0,-5.79899 4.70101,-10.5 10.5,-10.5c5.79899,0 10.5,4.70101 10.5,10.5c0,5.79899 -4.70101,10.5 -10.5,10.5c-5.79899,0 -10.5,-4.70101 -10.5,-10.5z" fill="#153267"/><path d="M268.025,141.375c0,-5.79899 4.70101,-10.5 10.5,-10.5c5.79899,0 10.5,4.70101 10.5,10.5c0,5.79899 -4.70101,10.5 -10.5,10.5c-5.79899,0 -10.5,-4.70101 -10.5,-10.5z" fill="#153267"/><path d="M286.525,130.375c0,-5.79899 4.70101,-10.5 10.5,-10.5c5.79899,0 10.5,4.70101 10.5,10.5c0,5.79899 -4.70101,10.5 -10.5,10.5c-5.79899,0 -10.5,-4.70101 -10.5,-10.5z" fill="#153267"/><path d="M317.025,145.125c0,-4.2802 3.46979,-7.75 7.75,-7.75c4.28021,0 7.75,3.4698 7.75,7.75c0,4.2802 -3.46979,7.75 -7.75,7.75c-4.28021,0 -7.75,-3.4698 -7.75,-7.75z" fill="#153267"/><path d="M296.025,130.625c0,-4.83249 3.41751,-5.25 8.25,-5.25c4.83249,0 14.75,8.91751 14.75,13.75c0,4.83249 -5.91751,4.25 -10.75,4.25c-4.83249,0 -12.25,-7.91751 -12.25,-12.75z" fill="#153267"/><path d="M280.3375,146.375c0,-10.0792 8.1708,-18.25 18.25,-18.25c10.0792,0 18.25,8.1708 18.25,18.25c0,10.0792 -8.1708,18.25 -18.25,18.25c-10.0792,0 -18.25,-8.1708 -18.25,-18.25z" fill="#0c295d"/><path d="M267.525,152.875c0,-5.79899 4.70101,-10.5 10.5,-10.5c5.79899,0 10.5,4.70101 10.5,10.5c0,5.79899 -4.70101,10.5 -10.5,10.5c-5.79899,0 -10.5,-4.70101 -10.5,-10.5z" fill="#0c295d"/><path d="M256.025,147.875c0,-4.14213 3.35787,-7.5 7.5,-7.5c4.14213,0 7.5,3.35787 7.5,7.5c0,4.14213 -3.35787,7.5 -7.5,7.5c-4.14213,0 -7.5,-3.35787 -7.5,-7.5z" fill="#153267"/><path d="M305.025,145.125c0,-5.66091 4.58909,-10.25 10.25,-10.25c5.66091,0 10.25,4.58909 10.25,10.25c0,5.66091 -4.58909,10.25 -10.25,10.25c-5.66091,0 -10.25,-4.58909 -10.25,-10.25z" fill="#153267"/></g><g fill="#0c295d"><path d="M279.625,139.875c0,-5.79899 4.70101,-10.5 10.5,-10.5c5.79899,0 10.5,4.70101 10.5,10.5c0,5.79899 -4.70101,10.5 -10.5,10.5c-5.79899,0 -10.5,-4.70101 -10.5,-10.5z"/><path d="M267.625,144.875c0,-5.79899 4.70101,-10.5 10.5,-10.5c5.79899,0 10.5,4.70101 10.5,10.5c0,5.79899 -4.70101,10.5 -10.5,10.5c-5.79899,0 -10.5,-4.70101 -10.5,-10.5z"/><path d="M286.125,133.875c0,-5.79899 4.70101,-10.5 10.5,-10.5c5.79899,0 10.5,4.70101 10.5,10.5c0,5.79899 -4.70101,10.5 -10.5,10.5c-5.79899,0 -10.5,-4.70101 -10.5,-10.5z"/><path d="M316.625,148.625c0,-4.2802 3.46979,-7.75 7.75,-7.75c4.28021,0 7.75,3.4698 7.75,7.75c0,4.2802 -3.46979,7.75 -7.75,7.75c-4.28021,0 -7.75,-3.4698 -7.75,-7.75z"/><path d="M295.625,134.125c0,-4.83249 3.41751,-5.25 8.25,-5.25c4.83249,0 14.75,8.91751 14.75,13.75c0,4.83249 -5.91751,4.25 -10.75,4.25c-4.83249,0 -12.25,-7.91751 -12.25,-12.75z"/><path d="M279.9375,149.875c0,-10.0792 8.1708,-18.25 18.25,-18.25c10.0792,0 18.25,8.1708 18.25,18.25c0,10.0792 -8.1708,15.25 -18.25,15.25c-10.0792,0 -18.25,-5.1708 -18.25,-15.25z"/><path d="M268.125,156.375c0,-5.79899 4.70101,-10.5 10.5,-10.5c5.79899,0 10.5,4.70101 10.5,10.5c0,5.79899 -3.70101,7.5 -9.5,7.5c-5.79899,0 -11.5,-1.70101 -11.5,-7.5z"/><path d="M255.625,151.375c0,-4.14214 3.35786,-7.5 7.5,-7.5c4.14214,0 7.5,3.35786 7.5,7.5c0,4.14214 -3.35786,7.5 -7.5,7.5c-4.14214,0 -7.5,-3.35786 -7.5,-7.5z"/><path d="M304.625,148.625c0,-5.66091 4.58909,-10.25 10.25,-10.25c5.66091,0 10.25,4.58909 10.25,10.25c0,5.66091 -4.58909,10.25 -10.25,10.25c-5.66091,0 -10.25,-4.58909 -10.25,-10.25z"/></g></g><path d="M478.125,-0.625c0,-1.38071 1.11929,-2.5 2.5,-2.5c1.38071,0 2.5,1.11929 2.5,2.5c0,1.38071 -1.11929,2.5 -2.5,2.5c-1.38071,0 -2.5,-1.11929 -2.5,-2.5z" fill="#000000" fill-rule="nonzero" stroke="none" stroke-width="0.5" stroke-linecap="butt" stroke-linejoin="miter"/><path d="M478.125,360.625c0,-1.38071 1.11929,-2.5 2.5,-2.5c1.38071,0 2.5,1.11929 2.5,2.5c0,1.38071 -1.11929,2.5 -2.5,2.5c-1.38071,0 -2.5,-1.11929 -2.5,-2.5z" fill="#000000" fill-rule="nonzero" stroke="none" stroke-width="0.5" stroke-linecap="butt" stroke-linejoin="miter"/><g fill-rule="nonzero" stroke="#000000" stroke-width="0" stroke-linecap="butt" stroke-linejoin="miter"><path d="M175.42344,110.21371c0,-3.93208 3.18759,-7.11967 7.11967,-7.11967c3.93208,0 7.11967,3.18759 7.11967,7.11967c0,3.93208 -3.18759,7.11967 -7.11967,7.11967c-3.93208,0 -7.11967,-3.18759 -7.11967,-7.11967z" fill="#153267"/><path d="M162.67544,112.88196c0,-7.00104 5.67546,-12.67649 12.67649,-12.67649c7.00104,0 12.67649,5.67546 12.67649,12.67649c0,7.00104 -5.67546,12.67649 -12.67649,12.67649c-7.00104,0 -12.67649,-5.67546 -12.67649,-12.67649z" fill="#153267"/><path d="M150.15866,115.41371c0,-2.97304 2.41012,-5.38317 5.38317,-5.38317c2.97304,0 5.38317,2.41013 5.38317,5.38317c0,2.97304 -2.41012,5.38317 -5.38317,5.38317c-2.97304,0 -5.38317,-2.41013 -5.38317,-5.38317z" fill="#153267"/><path d="M158.25838,111.53594c0,-4.02799 3.26533,-7.29332 7.29332,-7.29332c4.02799,0 7.29332,3.26533 7.29332,7.29332c0,4.02799 -3.26533,7.29332 -7.29332,7.29332c-4.02799,0 -7.29332,-3.26533 -7.29332,-7.29332z" fill="#153267"/><path d="M166.7733,104.31832c0,-3.61378 3.26533,-6.54332 7.29332,-6.54332c4.02799,0 7.29332,2.92955 7.29332,6.54332c0,3.61378 -3.26533,6.54332 -7.29332,6.54332c-4.02799,0 -7.29332,-2.92954 -7.29332,-6.54332z" fill="#153267"/><path d="M185.35866,115.01371c0,-2.97304 2.41012,-5.38317 5.38317,-5.38317c2.97304,0 5.38317,2.41013 5.38317,5.38317c0,2.97304 -2.41012,5.38317 -5.38317,5.38317c-2.97304,0 -5.38317,-2.41013 -5.38317,-5.38317z" fill="#153267"/><path d="M153.37585,119.79688c0,-4.02799 3.26533,-7.29332 7.29332,-7.29332c4.02799,0 7.29332,3.26533 7.29332,7.29332c0,4.02799 -2.26533,5.29332 -6.29332,5.29332c-4.02799,0 -8.29332,-1.26533 -8.29332,-5.29332z" fill="#0c295d"/><path d="M157.61293,113.89276c0,-4.02799 3.26533,-7.29332 7.29332,-7.29332c4.02799,0 7.29332,3.26533 7.29332,7.29332c0,4.02799 -3.26533,7.29332 -7.29332,7.29332c-4.02799,0 -7.29332,-3.26533 -7.29332,-7.29332z" fill="#0c295d"/><path d="M166.79545,107.59943c0,-4.02799 3.26533,-7.29332 7.29332,-7.29332c4.02799,0 7.29332,3.26533 7.29332,7.29332c0,4.02799 -3.26533,7.29332 -7.29332,7.29332c-4.02799,0 -7.29332,-3.26533 -7.29332,-7.29332z" fill="#0c295d"/><path d="M184.98082,117.34482c0,-2.97304 2.41012,-5.38317 5.38317,-5.38317c2.97304,0 5.38317,2.41013 5.38317,5.38317c0,2.97304 -2.41012,5.38317 -5.38317,5.38317c-2.97304,0 -5.38317,-2.41013 -5.38317,-5.38317z" fill="#0c295d"/><path d="M161.9976,117.71307c0,-7.00104 5.67546,-12.67649 12.67649,-12.67649c7.00104,0 12.67649,5.67546 12.67649,12.67649c0,7.00104 -6.67546,8.67649 -13.67649,8.67649c-7.00104,0 -11.67649,-1.67546 -11.67649,-8.67649z" fill="#0c295d"/><path d="M149.625,117.19212c0,-2.58942 2.09914,-4.68857 4.68857,-4.68857c2.58942,0 4.68857,2.09914 4.68857,4.68857c0,1.44899 -0.65731,2.74447 -1.69002,3.60451c-0.81279,0.67689 -1.85812,1.08406 -2.99855,1.08406c-2.58942,0 -4.68857,-2.09914 -4.68857,-4.68857z" fill="#0c295d"/><path d="M176.6456,116.84482c0,-3.93208 3.18759,-7.11967 7.11967,-7.11967c3.93208,0 7.11967,3.18759 7.11967,7.11967c0,3.93208 -3.18759,7.11967 -7.11967,7.11967c-3.93208,0 -7.11967,-3.18759 -7.11967,-7.11967z" fill="#0c295d"/><path d="M163.07544,114.68196c0,-7.00104 5.67546,-12.67649 12.67649,-12.67649c7.00104,0 12.67649,5.67546 12.67649,12.67649c0,7.00104 -5.67546,9.67649 -12.67649,9.67649c-4.23178,0 -7.97925,-0.97751 -10.28176,-3.29693c-1.50675,-1.51782 -2.39473,-3.6103 -2.39473,-6.37956z" fill="#0c295d"/></g><g fill-rule="nonzero" stroke="#000000" stroke-width="0" stroke-linecap="butt" stroke-linejoin="miter"><g><path d="M333.03754,297.98118c0,-8.88375 7.2017,-16.08545 16.08545,-16.08545c8.88375,0 16.08545,7.2017 16.08545,16.08545c0,8.88375 -7.2017,16.08545 -16.08545,16.08545c-8.88375,0 -16.08545,-7.2017 -16.08545,-16.08545z" fill="#153267"/><path d="M314.65417,305.64091c0,-8.88375 7.2017,-16.08545 16.08545,-16.08545c8.88375,0 16.08545,7.2017 16.08545,16.08545c0,8.88375 -7.2017,16.08545 -16.08545,16.08545c-8.88375,0 -16.08545,-7.2017 -16.08545,-16.08545z" fill="#153267"/><path d="M342.9952,288.7895c0,-8.88375 7.2017,-16.08545 16.08545,-16.08545c8.88375,0 16.08545,7.2017 16.08545,16.08545c0,8.88375 -7.2017,16.08545 -16.08545,16.08545c-8.88375,0 -16.08545,-7.2017 -16.08545,-16.08545z" fill="#153267"/><path d="M389.71958,311.38572c0,-6.55704 5.31553,-11.87259 11.87259,-11.87259c6.55706,0 11.87259,5.31555 11.87259,11.87259c0,6.55704 -5.31553,11.87259 -11.87259,11.87259c-6.55706,0 -11.87259,-5.31555 -11.87259,-11.87259z" fill="#153267"/><path d="M357.54869,289.17248c0,-7.40312 5.23544,-8.04272 12.63856,-8.04272c7.40312,0 22.59622,13.66115 22.59622,21.06427c0,7.40312 -9.06531,6.51078 -16.46843,6.51078c-7.40312,0 -18.76635,-12.12921 -18.76635,-19.53233z" fill="#153267"/><path d="M333.51627,313.30065c0,-15.4408 12.51723,-27.95804 27.95804,-27.95804c15.4408,0 27.95804,12.51723 27.95804,27.95804c0,15.4408 -12.51723,27.95804 -27.95804,27.95804c-15.4408,0 -27.95804,-12.51723 -27.95804,-27.95804z" fill="#0c295d"/><path d="M313.8882,323.25831c0,-8.88375 7.2017,-16.08545 16.08545,-16.08545c8.88375,0 16.08545,7.2017 16.08545,16.08545c0,8.88375 -7.2017,16.08545 -16.08545,16.08545c-8.88375,0 -16.08545,-7.2017 -16.08545,-16.08545z" fill="#0c295d"/><path d="M296.27081,315.59857c0,-6.34552 5.14408,-11.4896 11.4896,-11.4896c6.34552,0 11.4896,5.14408 11.4896,11.4896c0,6.34552 -5.14408,11.4896 -11.4896,11.4896c-6.34552,0 -11.4896,-5.14408 -11.4896,-11.4896z" fill="#153267"/><path d="M371.33622,311.38572c0,-8.67221 7.03024,-15.70246 15.70246,-15.70246c8.67221,0 15.70246,7.03024 15.70246,15.70246c0,8.67221 -7.03024,15.70246 -15.70246,15.70246c-8.67221,0 -15.70246,-7.03024 -15.70246,-15.70246z" fill="#153267"/></g><g fill="#0c295d"><path d="M332.42476,303.34299c0,-8.88375 7.2017,-16.08545 16.08545,-16.08545c8.88375,0 16.08545,7.2017 16.08545,16.08545c0,8.88375 -7.2017,16.08545 -16.08545,16.08545c-8.88375,0 -16.08545,-7.2017 -16.08545,-16.08545z"/><path d="M314.0414,311.00273c0,-8.88375 7.2017,-16.08545 16.08545,-16.08545c8.88375,0 16.08545,7.2017 16.08545,16.08545c0,8.88375 -7.2017,16.08545 -16.08545,16.08545c-8.88375,0 -16.08545,-7.2017 -16.08545,-16.08545z"/><path d="M342.38242,294.15131c0,-8.88375 7.2017,-16.08545 16.08545,-16.08545c8.88375,0 16.08545,7.2017 16.08545,16.08545c0,8.88375 -7.2017,16.08545 -16.08545,16.08545c-8.88375,0 -16.08545,-7.2017 -16.08545,-16.08545z"/><path d="M389.10681,316.74753c0,-6.55704 5.31553,-11.87259 11.87259,-11.87259c6.55706,0 11.87259,5.31555 11.87259,11.87259c0,6.55704 -5.31553,11.87259 -11.87259,11.87259c-6.55706,0 -11.87259,-5.31555 -11.87259,-11.87259z"/><path d="M356.93592,294.5343c0,-7.40312 5.23544,-8.04272 12.63856,-8.04272c7.40312,0 22.59622,13.66115 22.59622,21.06427c0,7.40312 -9.06531,6.51078 -16.46843,6.51078c-7.40312,0 -18.76635,-12.12921 -18.76635,-19.53233z"/><path d="M332.9035,317.66246c0,-15.4408 12.51723,-27.95804 27.95804,-27.95804c15.4408,0 27.95804,12.51723 27.95804,27.95804c0,15.4408 -12.51723,23.95804 -27.95804,23.95804c-15.4408,0 -27.95804,-8.51723 -27.95804,-23.95804z"/><path d="M313.27542,328.62012c0,-8.88375 7.2017,-16.08545 16.08545,-16.08545c8.88375,0 16.08545,7.2017 16.08545,16.08545c0,8.88375 -6.2017,10.08545 -15.08545,10.08545c-8.88375,0 -17.08545,-1.2017 -17.08545,-10.08545z"/><path d="M295.65803,320.96039c0,-6.34554 5.14406,-11.4896 11.4896,-11.4896c6.34554,0 11.4896,5.14406 11.4896,11.4896c0,6.34554 -5.14406,11.4896 -11.4896,11.4896c-6.34554,0 -11.4896,-5.14406 -11.4896,-11.4896z"/><path d="M370.72344,316.74753c0,-8.67221 7.03024,-15.70246 15.70246,-15.70246c8.67221,0 15.70246,7.03024 15.70246,15.70246c0,8.67221 -7.03024,15.70246 -15.70246,15.70246c-7.09229,0 -31.08639,-0.702 -33.03503,-7.15876c-0.43409,-1.43835 17.33257,-6.96378 17.33257,-8.5437z"/></g></g><g fill-rule="nonzero" stroke="#000000" stroke-width="0" stroke-linecap="butt" stroke-linejoin="miter"><path d="M284.85268,318.79058c0,-5.28338 4.28304,-9.56642 9.56642,-9.56642c5.28338,0 9.56642,4.28304 9.56642,9.56642c0,5.28338 -4.28304,9.56642 -9.56642,9.56642c-5.28338,0 -9.56642,-4.28304 -9.56642,-9.56642z" fill="#153267"/><path d="M267.72369,322.3758c0,-9.40702 7.62589,-17.0329 17.0329,-17.0329c9.40702,0 17.0329,7.62589 17.0329,17.0329c0,9.40702 -7.62589,17.0329 -17.0329,17.0329c-9.40702,0 -17.0329,-7.62589 -17.0329,-17.0329z" fill="#153267"/><path d="M250.90539,325.77761c0,-3.99476 3.23838,-7.23315 7.23315,-7.23315c3.99476,0 7.23315,3.2384 7.23315,7.23315c0,3.99476 -3.23838,7.23315 -7.23315,7.23315c-3.99476,0 -7.23315,-3.2384 -7.23315,-7.23315z" fill="#153267"/><path d="M261.78867,320.56721c0,-5.41225 4.38749,-9.79974 9.79974,-9.79974c5.41225,0 9.79974,4.38749 9.79974,9.79974c0,5.41225 -4.38749,9.79974 -9.79974,9.79974c-5.41225,0 -9.79974,-4.38749 -9.79974,-9.79974z" fill="#153267"/><path d="M273.22983,310.86918c0,-4.85569 4.38749,-8.792 9.79974,-8.792c5.41225,0 9.79974,3.93632 9.79974,8.792c0,4.85569 -4.38749,8.792 -9.79974,8.792c-5.41225,0 -9.79974,-3.93631 -9.79974,-8.792z" fill="#153267"/><path d="M298.20224,325.24015c0,-3.99476 3.23838,-7.23315 7.23315,-7.23315c3.99476,0 7.23315,3.2384 7.23315,7.23315c0,3.99476 -3.23838,7.23315 -7.23315,7.23315c-3.99476,0 -7.23315,-3.2384 -7.23315,-7.23315z" fill="#153267"/><path d="M255.2282,331.66711c0,-5.41225 4.38749,-9.79974 9.79974,-9.79974c5.41225,0 9.79974,4.38749 9.79974,9.79974c0,5.41225 -3.38749,4.79974 -8.79974,4.79974c-5.41225,0 -10.79974,0.61251 -10.79974,-4.79974z" fill="#0c295d"/><path d="M260.9214,323.73397c0,-5.41225 4.38749,-9.79974 9.79974,-9.79974c5.41225,0 9.79974,4.38749 9.79974,9.79974c0,5.41225 -4.38749,9.79974 -9.79974,9.79974c-5.41225,0 -9.79974,-4.38749 -9.79974,-9.79974z" fill="#0c295d"/><path d="M273.25959,315.27788c0,-5.41225 4.38749,-9.79974 9.79974,-9.79974c5.41225,0 9.79974,4.38749 9.79974,9.79974c0,5.41225 -4.38749,9.79974 -9.79974,9.79974c-5.41225,0 -9.79974,-4.38749 -9.79974,-9.79974z" fill="#0c295d"/><path d="M297.69455,328.37237c0,-3.99476 3.23838,-7.23315 7.23315,-7.23315c3.99476,0 7.23315,3.2384 7.23315,7.23315c0,3.99476 -3.23838,7.23315 -7.23315,7.23315c-3.99476,0 -7.23315,-3.2384 -7.23315,-7.23315z" fill="#0c295d"/><path d="M266.81291,328.86717c0,-9.40702 7.62589,-17.0329 17.0329,-17.0329c9.40702,0 17.0329,7.62589 17.0329,17.0329c0,9.40702 -6.62589,11.0329 -16.0329,11.0329c-9.40702,0 -18.0329,-1.62589 -18.0329,-11.0329z" fill="#0c295d"/><path d="M250.18833,328.16719c0,-3.4793 2.82053,-6.29985 6.29985,-6.29985c3.4793,0 6.29985,2.82053 6.29985,6.29985c0,3.4793 -2.82053,6.29985 -6.29985,6.29985c-3.4793,0 -6.29985,-2.82053 -6.29985,-6.29985z" fill="#0c295d"/><path d="M286.49484,327.70054c0,-5.28338 4.28304,-9.56642 9.56642,-9.56642c5.28338,0 9.56642,4.28304 9.56642,9.56642c0,5.28338 -4.28304,9.56642 -9.56642,9.56642c-5.28338,0 -9.56642,-4.28304 -9.56642,-9.56642z" fill="#0c295d"/><path d="M268.26116,324.79439c0,-9.40702 7.62589,-17.0329 17.0329,-17.0329c9.40702,0 17.0329,7.62589 17.0329,17.0329c0,9.40702 -8.62589,8.0329 -18.0329,8.0329c-9.40702,0 -16.0329,1.37411 -16.0329,-8.0329z" fill="#0c295d"/></g><g fill-rule="nonzero" stroke="#000000" stroke-width="0" stroke-linecap="butt" stroke-linejoin="miter"><path d="M82.81984,57.66266c0,-3.93208 3.18759,-7.11967 7.11967,-7.11967c3.93208,0 7.11967,3.18759 7.11967,7.11967c0,3.93208 -3.18759,7.11967 -7.11967,7.11967c-3.93208,0 -7.11967,-3.18759 -7.11967,-7.11967z" fill="#153267"/><path d="M70.07183,60.33091c0,-7.00104 5.67546,-12.67649 12.67649,-12.67649c7.00104,0 12.67649,5.67546 12.67649,12.67649c0,7.00104 -5.67546,12.67649 -12.67649,12.67649c-7.00104,0 -12.67649,-5.67546 -12.67649,-12.67649z" fill="#153267"/><path d="M57.55506,62.86266c0,-2.97304 2.41012,-5.38317 5.38317,-5.38317c2.97304,0 5.38317,2.41013 5.38317,5.38317c0,2.97304 -2.41012,5.38317 -5.38317,5.38317c-2.97304,0 -5.38317,-2.41013 -5.38317,-5.38317z" fill="#153267"/><path d="M65.65478,58.98489c0,-4.02799 3.26533,-7.29332 7.29332,-7.29332c4.02799,0 7.29332,3.26533 7.29332,7.29332c0,4.02799 -3.26533,7.29332 -7.29332,7.29332c-4.02799,0 -7.29332,-3.26533 -7.29332,-7.29332z" fill="#153267"/><path d="M74.1697,51.76727c0,-3.61378 3.26533,-6.54332 7.29332,-6.54332c4.02799,0 7.29332,2.92955 7.29332,6.54332c0,3.61378 -3.26533,6.54332 -7.29332,6.54332c-4.02799,0 -7.29332,-2.92954 -7.29332,-6.54332z" fill="#153267"/><path d="M92.75506,62.46266c0,-2.97304 2.41012,-5.38317 5.38317,-5.38317c2.97304,0 5.38317,2.41013 5.38317,5.38317c0,2.97304 -2.41012,5.38317 -5.38317,5.38317c-2.97304,0 -5.38317,-2.41013 -5.38317,-5.38317z" fill="#153267"/><path d="M60.77225,67.24583c0,-4.02799 3.26533,-7.29332 7.29332,-7.29332c4.02799,0 7.29332,3.26533 7.29332,7.29332c0,4.02799 -2.26533,5.29332 -6.29332,5.29332c-4.02799,0 -8.29332,-1.26533 -8.29332,-5.29332z" fill="#0c295d"/><path d="M65.00933,61.34171c0,-4.02799 3.26533,-7.29332 7.29332,-7.29332c4.02799,0 7.29332,3.26533 7.29332,7.29332c0,4.02799 -3.26533,7.29332 -7.29332,7.29332c-4.02799,0 -7.29332,-3.26533 -7.29332,-7.29332z" fill="#0c295d"/><path d="M74.19185,55.04838c0,-4.02799 3.26533,-7.29332 7.29332,-7.29332c4.02799,0 7.29332,3.26533 7.29332,7.29332c0,4.02799 -3.26533,7.29332 -7.29332,7.29332c-4.02799,0 -7.29332,-3.26533 -7.29332,-7.29332z" fill="#0c295d"/><path d="M92.37722,64.79377c0,-2.97304 2.41012,-5.38317 5.38317,-5.38317c2.97304,0 5.38317,2.41013 5.38317,5.38317c0,2.97304 -2.41012,5.38317 -5.38317,5.38317c-2.97304,0 -5.38317,-2.41013 -5.38317,-5.38317z" fill="#0c295d"/><path d="M69.394,65.16202c0,-7.00104 5.67546,-12.67649 12.67649,-12.67649c7.00104,0 12.67649,5.67546 12.67649,12.67649c0,7.00104 -6.67546,8.67649 -13.67649,8.67649c-7.00104,0 -11.67649,-1.67546 -11.67649,-8.67649z" fill="#0c295d"/><path d="M57.0214,64.64107c0,-2.58942 2.09914,-4.68857 4.68857,-4.68857c2.58942,0 4.68857,2.09914 4.68857,4.68857c0,1.44899 -0.65731,2.74447 -1.69002,3.60451c-0.81279,0.67689 -1.85812,1.08406 -2.99855,1.08406c-2.58942,0 -4.68857,-2.09914 -4.68857,-4.68857z" fill="#0c295d"/><path d="M84.042,64.29377c0,-3.93208 3.18759,-7.11967 7.11967,-7.11967c3.93208,0 7.11967,3.18759 7.11967,7.11967c0,3.93208 -3.18759,7.11967 -7.11967,7.11967c-3.93208,0 -7.11967,-3.18759 -7.11967,-7.11967z" fill="#0c295d"/><path d="M70.47184,62.13091c0,-7.00104 5.67546,-12.67649 12.67649,-12.67649c7.00104,0 12.67649,5.67546 12.67649,12.67649c0,7.00104 -5.67546,9.67649 -12.67649,9.67649c-4.23178,0 -7.97925,-0.97751 -10.28176,-3.29693c-1.50675,-1.51782 -2.39473,-3.6103 -2.39473,-6.37956z" fill="#0c295d"/></g><g fill-rule="nonzero" stroke="#000000" stroke-width="0" stroke-linecap="butt" stroke-linejoin="miter"><g><path d="M370.61058,37.7714c0,-5.79899 4.70101,-10.5 10.5,-10.5c5.79899,0 10.5,4.70101 10.5,10.5c0,5.79899 -4.70101,10.5 -10.5,10.5c-5.79899,0 -10.5,-4.70101 -10.5,-10.5z" fill="#153267"/><path d="M358.61058,42.7714c0,-5.79899 4.70101,-10.5 10.5,-10.5c5.79899,0 10.5,4.70101 10.5,10.5c0,5.79899 -4.70101,10.5 -10.5,10.5c-5.79899,0 -10.5,-4.70101 -10.5,-10.5z" fill="#153267"/><path d="M377.11058,31.7714c0,-5.79899 4.70101,-10.5 10.5,-10.5c5.79899,0 10.5,4.70101 10.5,10.5c0,5.79899 -4.70101,10.5 -10.5,10.5c-5.79899,0 -10.5,-4.70101 -10.5,-10.5z" fill="#153267"/><path d="M407.61058,46.5214c0,-4.2802 3.46979,-7.75 7.75,-7.75c4.28021,0 7.75,3.4698 7.75,7.75c0,4.2802 -3.46979,7.75 -7.75,7.75c-4.28021,0 -7.75,-3.4698 -7.75,-7.75z" fill="#153267"/><path d="M386.61058,32.0214c0,-4.83249 3.41751,-5.25 8.25,-5.25c4.83249,0 14.75,8.91751 14.75,13.75c0,4.83249 -5.91751,4.25 -10.75,4.25c-4.83249,0 -12.25,-7.91751 -12.25,-12.75z" fill="#153267"/><path d="M370.92308,47.7714c0,-10.0792 8.1708,-18.25 18.25,-18.25c10.0792,0 18.25,8.1708 18.25,18.25c0,10.0792 -8.1708,18.25 -18.25,18.25c-10.0792,0 -18.25,-8.1708 -18.25,-18.25z" fill="#0c295d"/><path d="M358.11058,54.2714c0,-5.79899 4.70101,-10.5 10.5,-10.5c5.79899,0 10.5,4.70101 10.5,10.5c0,5.79899 -4.70101,10.5 -10.5,10.5c-5.79899,0 -10.5,-4.70101 -10.5,-10.5z" fill="#0c295d"/><path d="M346.61058,49.2714c0,-4.14213 3.35787,-7.5 7.5,-7.5c4.14213,0 7.5,3.35787 7.5,7.5c0,4.14213 -3.35787,7.5 -7.5,7.5c-4.14213,0 -7.5,-3.35787 -7.5,-7.5z" fill="#153267"/><path d="M395.61058,46.5214c0,-5.66091 4.58909,-10.25 10.25,-10.25c5.66091,0 10.25,4.58909 10.25,10.25c0,5.66091 -4.58909,10.25 -10.25,10.25c-5.66091,0 -10.25,-4.58909 -10.25,-10.25z" fill="#153267"/></g><g fill="#0c295d"><path d="M370.21058,41.2714c0,-5.79899 4.70101,-10.5 10.5,-10.5c5.79899,0 10.5,4.70101 10.5,10.5c0,5.79899 -4.70101,10.5 -10.5,10.5c-5.79899,0 -10.5,-4.70101 -10.5,-10.5z"/><path d="M358.21058,46.2714c0,-5.79899 4.70101,-10.5 10.5,-10.5c5.79899,0 10.5,4.70101 10.5,10.5c0,5.79899 -4.70101,10.5 -10.5,10.5c-5.79899,0 -10.5,-4.70101 -10.5,-10.5z"/><path d="M376.71058,35.2714c0,-5.79899 4.70101,-10.5 10.5,-10.5c5.79899,0 10.5,4.70101 10.5,10.5c0,5.79899 -4.70101,10.5 -10.5,10.5c-5.79899,0 -10.5,-4.70101 -10.5,-10.5z"/><path d="M407.21058,50.0214c0,-4.2802 3.46979,-7.75 7.75,-7.75c4.28021,0 7.75,3.4698 7.75,7.75c0,4.2802 -3.46979,7.75 -7.75,7.75c-4.28021,0 -7.75,-3.4698 -7.75,-7.75z"/><path d="M386.21058,35.5214c0,-4.83249 3.41751,-5.25 8.25,-5.25c4.83249,0 14.75,8.91751 14.75,13.75c0,4.83249 -5.91751,4.25 -10.75,4.25c-4.83249,0 -12.25,-7.91751 -12.25,-12.75z"/><path d="M370.52308,51.2714c0,-10.0792 8.1708,-18.25 18.25,-18.25c10.0792,0 18.25,8.1708 18.25,18.25c0,10.0792 -8.1708,15.25 -18.25,15.25c-10.0792,0 -18.25,-5.1708 -18.25,-15.25z"/><path d="M358.71058,57.7714c0,-5.79899 4.70101,-10.5 10.5,-10.5c5.79899,0 10.5,4.70101 10.5,10.5c0,5.79899 -3.70101,7.5 -9.5,7.5c-5.79899,0 -11.5,-1.70101 -11.5,-7.5z"/><path d="M346.21058,52.7714c0,-4.14214 3.35786,-7.5 7.5,-7.5c4.14214,0 7.5,3.35786 7.5,7.5c0,4.14214 -3.35786,7.5 -7.5,7.5c-4.14214,0 -7.5,-3.35786 -7.5,-7.5z"/><path d="M395.21058,50.0214c0,-5.66091 4.58909,-10.25 10.25,-10.25c5.66091,0 10.25,4.58909 10.25,10.25c0,5.66091 -4.58909,10.25 -10.25,10.25c-5.66091,0 -10.25,-4.58909 -10.25,-10.25z"/></g></g><g fill-rule="nonzero" stroke="#000000" stroke-width="0" stroke-linecap="butt" stroke-linejoin="miter"><g><path d="M75.31029,281.51014c0,-5.79899 4.70101,-10.5 10.5,-10.5c5.79899,0 10.5,4.70101 10.5,10.5c0,5.79899 -4.70101,10.5 -10.5,10.5c-5.79899,0 -10.5,-4.70101 -10.5,-10.5z" fill="#153267"/><path d="M63.31029,286.51014c0,-5.79899 4.70101,-10.5 10.5,-10.5c5.79899,0 10.5,4.70101 10.5,10.5c0,5.79899 -4.70101,10.5 -10.5,10.5c-5.79899,0 -10.5,-4.70101 -10.5,-10.5z" fill="#153267"/><path d="M81.81029,275.51014c0,-5.79899 4.70101,-10.5 10.5,-10.5c5.79899,0 10.5,4.70101 10.5,10.5c0,5.79899 -4.70101,10.5 -10.5,10.5c-5.79899,0 -10.5,-4.70101 -10.5,-10.5z" fill="#153267"/><path d="M112.31029,290.26014c0,-4.2802 3.46979,-7.75 7.75,-7.75c4.28021,0 7.75,3.4698 7.75,7.75c0,4.2802 -3.46979,7.75 -7.75,7.75c-4.28021,0 -7.75,-3.4698 -7.75,-7.75z" fill="#153267"/><path d="M91.31029,275.76014c0,-4.83249 3.41751,-5.25 8.25,-5.25c4.83249,0 14.75,8.91751 14.75,13.75c0,4.83249 -5.91751,4.25 -10.75,4.25c-4.83249,0 -12.25,-7.91751 -12.25,-12.75z" fill="#153267"/><path d="M75.62279,291.51014c0,-10.0792 8.1708,-18.25 18.25,-18.25c10.0792,0 18.25,8.1708 18.25,18.25c0,10.0792 -8.1708,18.25 -18.25,18.25c-10.0792,0 -18.25,-8.1708 -18.25,-18.25z" fill="#0c295d"/><path d="M62.81029,298.01014c0,-5.79899 4.70101,-10.5 10.5,-10.5c5.79899,0 10.5,4.70101 10.5,10.5c0,5.79899 -4.70101,10.5 -10.5,10.5c-5.79899,0 -10.5,-4.70101 -10.5,-10.5z" fill="#0c295d"/><path d="M51.31029,293.01014c0,-4.14213 3.35787,-7.5 7.5,-7.5c4.14213,0 7.5,3.35787 7.5,7.5c0,4.14213 -3.35787,7.5 -7.5,7.5c-4.14213,0 -7.5,-3.35787 -7.5,-7.5z" fill="#153267"/><path d="M100.31029,290.26014c0,-5.66091 4.58909,-10.25 10.25,-10.25c5.66091,0 10.25,4.58909 10.25,10.25c0,5.66091 -4.58909,10.25 -10.25,10.25c-5.66091,0 -10.25,-4.58909 -10.25,-10.25z" fill="#153267"/></g><g fill="#0c295d"><path d="M74.91029,285.01014c0,-5.79899 4.70101,-10.5 10.5,-10.5c5.79899,0 10.5,4.70101 10.5,10.5c0,5.79899 -4.70101,10.5 -10.5,10.5c-5.79899,0 -10.5,-4.70101 -10.5,-10.5z"/><path d="M62.91029,290.01014c0,-5.79899 4.70101,-10.5 10.5,-10.5c5.79899,0 10.5,4.70101 10.5,10.5c0,5.79899 -4.70101,10.5 -10.5,10.5c-5.79899,0 -10.5,-4.70101 -10.5,-10.5z"/><path d="M81.41029,279.01014c0,-5.79899 4.70101,-10.5 10.5,-10.5c5.79899,0 10.5,4.70101 10.5,10.5c0,5.79899 -4.70101,10.5 -10.5,10.5c-5.79899,0 -10.5,-4.70101 -10.5,-10.5z"/><path d="M111.91029,293.76014c0,-4.2802 3.46979,-7.75 7.75,-7.75c4.28021,0 7.75,3.4698 7.75,7.75c0,4.2802 -3.46979,7.75 -7.75,7.75c-4.28021,0 -7.75,-3.4698 -7.75,-7.75z"/><path d="M90.91029,279.26014c0,-4.83249 3.41751,-5.25 8.25,-5.25c4.83249,0 14.75,8.91751 14.75,13.75c0,4.83249 -5.91751,4.25 -10.75,4.25c-4.83249,0 -12.25,-7.91751 -12.25,-12.75z"/><path d="M75.22279,295.01014c0,-10.0792 8.1708,-18.25 18.25,-18.25c10.0792,0 18.25,8.1708 18.25,18.25c0,10.0792 -8.1708,15.25 -18.25,15.25c-10.0792,0 -18.25,-5.1708 -18.25,-15.25z"/><path d="M63.41029,301.51014c0,-5.79899 4.70101,-10.5 10.5,-10.5c5.79899,0 10.5,4.70101 10.5,10.5c0,5.79899 -3.70101,7.5 -9.5,7.5c-5.79899,0 -11.5,-1.70101 -11.5,-7.5z"/><path d="M50.91029,296.51014c0,-4.14214 3.35786,-7.5 7.5,-7.5c4.14214,0 7.5,3.35786 7.5,7.5c0,4.14214 -3.35786,7.5 -7.5,7.5c-4.14214,0 -7.5,-3.35786 -7.5,-7.5z"/><path d="M99.91029,293.76014c0,-5.66091 4.58909,-10.25 10.25,-10.25c5.66091,0 10.25,4.58909 10.25,10.25c0,5.66091 -4.58909,10.25 -10.25,10.25c-5.66091,0 -10.25,-4.58909 -10.25,-10.25z"/></g></g><g fill-rule="nonzero" stroke="#000000" stroke-width="0" stroke-linecap="butt" stroke-linejoin="miter"><path d="M374.11713,200.7993c0,-3.93208 3.18759,-7.11967 7.11967,-7.11967c3.93208,0 7.11967,3.18759 7.11967,7.11967c0,3.93208 -3.18759,7.11967 -7.11967,7.11967c-3.93208,0 -7.11967,-3.18759 -7.11967,-7.11967z" fill="#153267"/><path d="M361.36913,203.46755c0,-7.00104 5.67546,-12.67649 12.67649,-12.67649c7.00104,0 12.67649,5.67546 12.67649,12.67649c0,7.00104 -5.67546,12.67649 -12.67649,12.67649c-7.00104,0 -12.67649,-5.67546 -12.67649,-12.67649z" fill="#153267"/><path d="M348.85235,205.9993c0,-2.97304 2.41012,-5.38317 5.38317,-5.38317c2.97304,0 5.38317,2.41013 5.38317,5.38317c0,2.97304 -2.41012,5.38317 -5.38317,5.38317c-2.97304,0 -5.38317,-2.41013 -5.38317,-5.38317z" fill="#153267"/><path d="M356.95207,202.12153c0,-4.02799 3.26533,-7.29332 7.29332,-7.29332c4.02799,0 7.29332,3.26533 7.29332,7.29332c0,4.02799 -3.26533,7.29332 -7.29332,7.29332c-4.02799,0 -7.29332,-3.26533 -7.29332,-7.29332z" fill="#153267"/><path d="M365.46699,194.90391c0,-3.61378 3.26533,-6.54332 7.29332,-6.54332c4.02799,0 7.29332,2.92955 7.29332,6.54332c0,3.61378 -3.26533,6.54332 -7.29332,6.54332c-4.02799,0 -7.29332,-2.92954 -7.29332,-6.54332z" fill="#153267"/><path d="M384.05235,205.5993c0,-2.97304 2.41012,-5.38317 5.38317,-5.38317c2.97304,0 5.38317,2.41013 5.38317,5.38317c0,2.97304 -2.41012,5.38317 -5.38317,5.38317c-2.97304,0 -5.38317,-2.41013 -5.38317,-5.38317z" fill="#153267"/><path d="M352.06954,210.38247c0,-4.02799 3.26533,-7.29332 7.29332,-7.29332c4.02799,0 7.29332,3.26533 7.29332,7.29332c0,4.02799 -2.26533,5.29332 -6.29332,5.29332c-4.02799,0 -8.29332,-1.26533 -8.29332,-5.29332z" fill="#0c295d"/><path d="M356.30662,204.47835c0,-4.02799 3.26533,-7.29332 7.29332,-7.29332c4.02799,0 7.29332,3.26533 7.29332,7.29332c0,4.02799 -3.26533,7.29332 -7.29332,7.29332c-4.02799,0 -7.29332,-3.26533 -7.29332,-7.29332z" fill="#0c295d"/><path d="M365.48914,198.18502c0,-4.02799 3.26533,-7.29332 7.29332,-7.29332c4.02799,0 7.29332,3.26533 7.29332,7.29332c0,4.02799 -3.26533,7.29332 -7.29332,7.29332c-4.02799,0 -7.29332,-3.26533 -7.29332,-7.29332z" fill="#0c295d"/><path d="M383.67451,207.93041c0,-2.97304 2.41012,-5.38317 5.38317,-5.38317c2.97304,0 5.38317,2.41013 5.38317,5.38317c0,2.97304 -2.41012,5.38317 -5.38317,5.38317c-2.97304,0 -5.38317,-2.41013 -5.38317,-5.38317z" fill="#0c295d"/><path d="M360.69129,208.29866c0,-7.00104 5.67546,-12.67649 12.67649,-12.67649c7.00104,0 12.67649,5.67546 12.67649,12.67649c0,7.00104 -6.67546,8.67649 -13.67649,8.67649c-7.00104,0 -11.67649,-1.67546 -11.67649,-8.67649z" fill="#0c295d"/><path d="M348.31869,207.77771c0,-2.58942 2.09914,-4.68857 4.68857,-4.68857c2.58942,0 4.68857,2.09914 4.68857,4.68857c0,1.44899 -0.65731,2.74447 -1.69002,3.60451c-0.81279,0.67689 -1.85812,1.08406 -2.99855,1.08406c-2.58942,0 -4.68857,-2.09914 -4.68857,-4.68857z" fill="#0c295d"/><path d="M375.33929,207.43041c0,-3.93208 3.18759,-7.11967 7.11967,-7.11967c3.93208,0 7.11967,3.18759 7.11967,7.11967c0,3.93208 -3.18759,7.11967 -7.11967,7.11967c-3.93208,0 -7.11967,-3.18759 -7.11967,-7.11967z" fill="#0c295d"/><path d="M361.76913,205.26755c0,-7.00104 5.67546,-12.67649 12.67649,-12.67649c7.00104,0 12.67649,5.67546 12.67649,12.67649c0,7.00104 -5.67546,9.67649 -12.67649,9.67649c-4.23178,0 -7.97925,-0.97751 -10.28176,-3.29693c-1.50675,-1.51782 -2.39473,-3.6103 -2.39473,-6.37956z" fill="#0c295d"/></g><g fill-rule="nonzero" stroke="#000000" stroke-width="0" stroke-linecap="butt" stroke-linejoin="miter"><path d="M156.40953,227.38401c0,-3.03757 2.46243,-5.5 5.5,-5.5c3.03757,0 5.5,2.46243 5.5,5.5c0,3.03757 -2.46243,5.5 -5.5,5.5c-3.03757,0 -5.5,-2.46243 -5.5,-5.5z" fill="#153267"/><g><path d="M187.55953,213.38401c0,-5.79899 4.70101,-10.5 10.5,-10.5c5.79899,0 10.5,4.70101 10.5,10.5c0,5.79899 -4.70101,10.5 -10.5,10.5c-5.79899,0 -10.5,-4.70101 -10.5,-10.5z" fill="#153267"/><path d="M175.55953,218.38401c0,-5.79899 4.70101,-10.5 10.5,-10.5c5.79899,0 10.5,4.70101 10.5,10.5c0,5.79899 -4.70101,10.5 -10.5,10.5c-5.79899,0 -10.5,-4.70101 -10.5,-10.5z" fill="#153267"/><path d="M194.05953,207.38401c0,-5.79899 4.70101,-10.5 10.5,-10.5c5.79899,0 10.5,4.70101 10.5,10.5c0,5.79899 -4.70101,10.5 -10.5,10.5c-5.79899,0 -10.5,-4.70101 -10.5,-10.5z" fill="#153267"/><path d="M224.55953,222.13401c0,-4.2802 3.46979,-7.75 7.75,-7.75c4.28021,0 7.75,3.4698 7.75,7.75c0,4.2802 -3.46979,7.75 -7.75,7.75c-4.28021,0 -7.75,-3.4698 -7.75,-7.75z" fill="#153267"/><path d="M203.55953,207.63401c0,-4.83249 3.41751,-5.25 8.25,-5.25c4.83249,0 14.75,8.91751 14.75,13.75c0,4.83249 -5.91751,4.25 -10.75,4.25c-4.83249,0 -12.25,-7.91751 -12.25,-12.75z" fill="#153267"/><path d="M187.87203,223.38401c0,-10.0792 8.1708,-18.25 18.25,-18.25c10.0792,0 18.25,8.1708 18.25,18.25c0,10.0792 -8.1708,18.25 -18.25,18.25c-10.0792,0 -18.25,-8.1708 -18.25,-18.25z" fill="#0c295d"/><path d="M175.05953,229.88401c0,-5.79899 4.70101,-10.5 10.5,-10.5c5.79899,0 10.5,4.70101 10.5,10.5c0,5.79899 -4.70101,10.5 -10.5,10.5c-5.79899,0 -10.5,-4.70101 -10.5,-10.5z" fill="#0c295d"/><path d="M163.55953,224.88401c0,-4.14213 3.35787,-7.5 7.5,-7.5c4.14213,0 7.5,3.35787 7.5,7.5c0,4.14213 -3.35787,7.5 -7.5,7.5c-4.14213,0 -7.5,-3.35787 -7.5,-7.5z" fill="#153267"/><path d="M212.55953,222.13401c0,-5.66091 4.58909,-10.25 10.25,-10.25c5.66091,0 10.25,4.58909 10.25,10.25c0,5.66091 -4.58909,10.25 -10.25,10.25c-5.66091,0 -10.25,-4.58909 -10.25,-10.25z" fill="#153267"/></g><path d="M187.15953,216.88401c0,-5.79899 4.70101,-10.5 10.5,-10.5c5.79899,0 10.5,4.70101 10.5,10.5c0,5.79899 -4.70101,10.5 -10.5,10.5c-5.79899,0 -10.5,-4.70101 -10.5,-10.5z" fill="#0c295d"/><path d="M175.15953,221.88401c0,-5.79899 4.70101,-10.5 10.5,-10.5c5.79899,0 10.5,4.70101 10.5,10.5c0,5.79899 -4.70101,10.5 -10.5,10.5c-5.79899,0 -10.5,-4.70101 -10.5,-10.5z" fill="#0c295d"/><path d="M193.65953,210.88401c0,-5.79899 4.70101,-10.5 10.5,-10.5c5.79899,0 10.5,4.70101 10.5,10.5c0,5.79899 -4.70101,10.5 -10.5,10.5c-5.79899,0 -10.5,-4.70101 -10.5,-10.5z" fill="#0c295d"/><path d="M224.15953,225.63401c0,-4.2802 3.46979,-7.75 7.75,-7.75c4.28021,0 7.75,3.4698 7.75,7.75c0,4.2802 -3.46979,7.75 -7.75,7.75c-4.28021,0 -7.75,-3.4698 -7.75,-7.75z" fill="#0c295d"/><path d="M203.15953,211.13401c0,-4.83249 3.41751,-5.25 8.25,-5.25c4.83249,0 14.75,8.91751 14.75,13.75c0,4.83249 -5.91751,4.25 -10.75,4.25c-4.83249,0 -12.25,-7.91751 -12.25,-12.75z" fill="#0c295d"/><path d="M187.47203,226.88401c0,-10.0792 8.1708,-18.25 18.25,-18.25c10.0792,0 18.25,8.1708 18.25,18.25c0,10.0792 -11.1708,15.25 -21.25,15.25c-10.0792,0 -15.25,-5.1708 -15.25,-15.25z" fill="#0c295d"/><path d="M174.65953,233.38401c0,-5.79899 4.70101,-10.5 10.5,-10.5c5.79899,0 10.5,4.70101 10.5,10.5c0,5.79899 -4.70101,7.5 -10.5,7.5c-5.79899,0 -10.5,-1.70101 -10.5,-7.5z" fill="#0c295d"/><path d="M163.15953,228.38401c0,-4.14214 3.35786,-7.5 7.5,-7.5c4.14214,0 7.5,3.35786 7.5,7.5c0,4.14214 -3.35786,5.5 -7.5,5.5c-4.14214,0 -7.5,-1.35786 -7.5,-5.5z" fill="#0c295d"/><path d="M212.15953,225.63401c0,-5.66091 4.58909,-10.25 10.25,-10.25c5.66091,0 10.25,4.58909 10.25,10.25c0,5.66091 -4.58909,10.25 -10.25,10.25c-5.66091,0 -10.25,-4.58909 -10.25,-10.25z" fill="#0c295d"/><path d="M155.65953,229.38401c0,-3.03757 2.46243,-5.5 5.5,-5.5c3.03757,0 5.5,2.46243 5.5,5.5c0,3.03757 -2.46243,5.5 -5.5,5.5c-3.03757,0 -5.5,-2.46243 -5.5,-5.5z" fill="#0c295d"/></g><path d="M483.39324,0.54871v58.08773h-488.62034v-58.08773z" data-paper-data="{&quot;index&quot;:null}" fill="url(#color-4)" fill-rule="nonzero" stroke="none" stroke-width="0" stroke-linecap="butt" stroke-linejoin="miter"/><path d="M411.7632,385.93245v-407.46836h73.4639v407.46837z" fill="url(#color-5)" fill-rule="nonzero" stroke="none" stroke-width="0" stroke-linecap="butt" stroke-linejoin="miter"/><path d="M-0.10171,381.5359v-407.46836h73.4639v407.46837z" data-paper-data="{&quot;index&quot;:null}" fill="url(#color-6)" fill-rule="nonzero" stroke="none" stroke-width="0" stroke-linecap="butt" stroke-linejoin="miter"/><path d="M-2.53901,366.28512v-58.08773h488.62034v58.08773z" fill="url(#color-7)" fill-rule="nonzero" stroke="none" stroke-width="0" stroke-linecap="butt" stroke-linejoin="miter"/><g fill-rule="nonzero" stroke="none" stroke-width="0" stroke-linecap="butt" stroke-linejoin="miter"><path d="M416.88809,304.4332c0,0 10.83632,0.54049 11.1875,0.91671c0.52908,0.56679 -27.27325,36.66768 -29.23954,36.77745c-0.82023,0.04579 9.68301,-26.92631 9.19828,-27.74779c-0.45074,-0.76388 -7.87498,-0.66624 -7.87498,-0.68121c0,-0.69143 13.12562,-30.11173 13.12562,-30.11173c0,0 13.84118,-0.25737 21.36131,-0.25737c8.20514,0 26.50862,0.7721 26.50862,0.7721l-8.49305,10.29461c0,0 -22.35903,0.72178 -28.75974,0.22056c-2.01617,-0.15787 -7.01402,9.81668 -7.01402,9.81668z" fill="url(#color-8)"/><path d="M424.60907,313.95571l6.69149,-8.75042h14.41245l-7.46359,8.75042z" fill="url(#color-9)"/></g><g fill-rule="nonzero" stroke-linecap="butt" stroke-linejoin="miter"><path d="M238.95988,180.55899c0.91396,0.82421 -0.65655,2.26379 -1.41735,3.10745c-0.76081,0.84366 -2.29832,1.67704 -3.21227,0.85283c-0.91396,-0.82421 -0.0422,-3.64287 0.7186,-4.48653c0.76081,-0.84366 2.99707,-0.29795 3.91103,0.52625z" fill="url(#color-10)" stroke="none" stroke-width="NaN"/><path d="M239.55658,220.38017c-11.52682,-3.27415 -18.21694,-15.27272 -14.94278,-26.79956c3.27416,-11.52682 15.27273,-18.21695 26.79954,-14.94278c11.52684,3.27416 18.21696,15.27273 14.94278,26.79955c-3.27415,11.52682 -15.27273,18.21695 -26.79955,14.94278z" fill="#9f2c00" stroke="none" stroke-width="0"/><path d="M263.4316,193.49478c1.17492,3.49553 1.34268,7.37014 0.25896,11.18546c-2.85601,10.05466 -13.32214,15.89034 -23.37681,13.03436c-5.59431,-1.58905 -9.88256,-5.53397 -12.09435,-10.4531c-1.76346,-3.92201 -2.20697,-8.46335 -0.94001,-12.92371c2.85601,-10.05466 13.32214,-15.89034 23.37681,-13.03436c6.23933,1.77226 10.85406,6.47497 12.7754,12.19135z" data-paper-data="{&quot;index&quot;:null}" fill="#ff6700" stroke="#ffffff" stroke-width="0"/><path d="M250.43204,181.42473c3.54554,1.00709 6.55081,2.92573 8.82065,5.41819c2.10742,2.31407 3.21866,4.05004 3.90198,7.08297c0.26644,1.18268 0.67665,4.45357 0.1033,6.84306c-0.99965,3.91293 -0.91269,3.32738 -2.52916,6.47912c-2.22541,3.18288 -2.24449,3.21273 -4.8272,5.32077c-2.38313,1.79468 -3.45719,2.33684 -5.4499,3.1984c-1.9723,0.52195 -2.98095,1.08832 -6.19013,1.10322c-3.60916,-0.16659 -3.6295,-0.24659 -5.40216,-0.80763c-2.51775,-0.53379 -2.91364,-1.54081 -5.17021,-2.31082c-5.59361,-4.4771 -8.36484,-12.0289 -6.23898,-19.51312c2.80774,-9.88479 13.09706,-15.62185 22.98185,-12.81414z" data-paper-data="{&quot;index&quot;:null}" fill="url(#color-11)" stroke="#ffffff" stroke-width="0"/><path d="M231.70988,195.96057c-1.13106,-6.08618 2.88585,-11.9369 8.97202,-13.06796c6.08618,-1.13106 11.93691,2.88585 13.06797,8.97202c1.13106,6.08618 -2.88583,11.93691 -8.97202,13.06797c-6.08618,1.13106 -11.93691,-2.88585 -13.06797,-8.97203z" fill="url(#color-12)" stroke="#9f2c00" stroke-width="0"/><path d="M260.39736,187.32122c0,0 -1.78043,1.018 -2.00309,1.11373c-4.05496,3.21848 -9.92844,10.81676 -13.12359,14.98677c-3.59826,2.86595 -5.59716,2.85452 -10.00622,1.64978c-0.08802,0.77316 -0.1477,1.54642 -0.1723,2.31752c1.88166,0.73898 3.85426,1.28816 6.07686,1.90836c5.69047,1.61905 14.10561,-0.13901 19.47791,-2.68532c0.24278,-0.07115 3.15623,-1.38101 3.15623,-1.38101l-0.65972,1.73787c-0.23252,0.06742 -1.85636,0.80674 -2.0889,0.87417c-5.64215,2.64137 -14.18321,4.03911 -20.24508,2.7201c-2.07325,-0.60157 -3.94134,-1.13017 -5.72239,-1.79343c0.01806,0.7003 0.06866,1.39765 0.15697,2.09032c3.02237,0.55123 6.09659,1.4149 8.67433,2.75692c1.8931,0.99524 3.21257,2.51837 5.24692,3.31854l2.70025,0.5161l-2.37262,0.67842c-2.19445,-0.62333 -4.1702,-2.34844 -6.15308,-3.36943c-2.3663,-1.23272 -5.17498,-2.04145 -7.95898,-2.57178c0.028,0.51757 0.07938,1.00444 0.20827,1.53189l1.12395,2.6602l-1.60709,-1.06636c-0.19771,-0.78368 -0.96741,-2.55504 -0.99818,-3.34988c-1.00434,-0.16292 -2.09881,-0.32127 -3.05544,-0.42362l-1.04081,-1.38903c0.85696,0.09166 3.03294,0.34953 3.92788,0.48827c-0.08745,-0.78754 -0.12875,-1.58118 -0.13095,-2.37834c-1.93196,-0.81947 -4.4235,-1.59999 -6.37244,-3.15361l-0.36337,-1.70676c1.69726,1.353 5.10018,2.70515 6.77053,3.46103c0.03787,-0.73888 0.10561,-1.47946 0.19756,-2.21978c-0.22045,-0.09444 -0.44169,-0.19867 -0.6638,-0.3131c-4.6022,-2.20587 -5.65893,-5.31383 -5.13126,-10.36381c0,0 0.48095,-2.91867 0.81826,-3.44239c0.3153,-0.48954 1.13242,-1.86477 1.13242,-1.86477l-1.04592,5.41375c-0.40123,4.59288 0.6155,7.10501 4.78716,9.1045c0.0974,0.05139 0.19459,0.10045 0.29157,0.14724c0.48384,-3.01063 1.3151,-5.99626 2.11814,-8.81995c1.42643,-4.20764 3.47435,-11.04476 7.64073,-13.52212c0.27652,-0.16443 1.20981,-0.23743 1.50767,-0.36182l1.44228,0.10184l-1.72993,0.77742c-4.34835,1.82411 -6.31514,9.4179 -7.66051,13.38159c-0.81085,2.85832 -1.65264,5.87634 -2.11347,8.91539c4.04541,1.22371 6.18854,0.9733 9.493,-1.57054c3.15479,-4.25597 8.73234,-11.69693 12.85152,-14.89429c0.12109,-0.05391 1.72219,-0.8917 1.72219,-0.8917c0,0 0.74769,0.94734 0.89642,0.88116z" data-paper-data="{&quot;index&quot;:null}" fill="#9f2c00" stroke="#9f2c00" stroke-width="1"/><path d="M242.27473,191.10921c-0.66802,2.35177 -3.11602,3.71672 -5.46779,3.04871c-2.35177,-0.66802 -3.71672,-3.11602 -3.04871,-5.46779c0.66802,-2.35179 3.11603,-3.71673 5.4678,-3.04872c2.35178,0.66802 3.71673,3.11602 3.04871,5.4678z" data-paper-data="{&quot;index&quot;:null}" fill="url(#color-13)" stroke="none" stroke-width="0"/></g><g fill="none" fill-rule="nonzero" stroke-linecap="round" stroke-linejoin="miter"><path d="M188.16361,258.91153c0,0 5.40279,10.86633 6.6219,17.79996c1.71352,9.74566 2.69073,35.16563 2.69073,35.16563" stroke="#eeeeee" stroke-width="4"/><path d="M234.16056,311.31092c0,0 0.97721,-25.41997 2.69073,-35.16563c1.2191,-6.93364 6.6219,-17.79996 6.6219,-17.79996" data-paper-data="{&quot;index&quot;:null}" stroke="#eeeeee" stroke-width="4"/><path d="M206.20683,257.74744l3.49224,9.89468l-13.38692,9.89467" stroke="#eeeeee" stroke-width="4"/><path d="M209.11702,266.47803l25.0277,26.77382l-12.22283,17.46118l-25.60974,-28.51994" stroke="#eeeeee" stroke-width="4"/><path d="M232.98065,306.63877l-42.48889,-42.48889" stroke="#eeeeee" stroke-width="4"/><path d="M224.83209,257.74744l-1.16408,9.31263l-26.77382,26.19178" stroke="#eeeeee" stroke-width="4"/><path d="M223.08597,267.06007l12.22283,11.64079l-27.35585,32.01217l-10.47671,-12.80487" stroke="#eeeeee" stroke-width="4"/><path d="M240.54716,262.92022l-42.48889,44.88263" stroke="#eeeeee" stroke-width="4"/><path d="M248.54129,254.87288h-63.54129" stroke="#d9652a" stroke-width="5.5"/></g><g fill-rule="nonzero" stroke-linecap="butt" stroke-linejoin="miter"><path d="M143.4734,135.54698c0.91396,0.82421 -0.65655,2.26379 -1.41735,3.10745c-0.76081,0.84366 -2.29832,1.67704 -3.21227,0.85283c-0.91396,-0.82421 -0.0422,-3.64287 0.7186,-4.48653c0.76081,-0.84366 2.99707,-0.29795 3.91103,0.52625z" fill="url(#color-14)" stroke="none" stroke-width="NaN"/><path d="M144.0701,175.36816c-11.52682,-3.27415 -18.21694,-15.27272 -14.94278,-26.79956c3.27416,-11.52682 15.27273,-18.21695 26.79954,-14.94278c11.52684,3.27416 18.21696,15.27273 14.94278,26.79955c-3.27415,11.52682 -15.27273,18.21695 -26.79955,14.94278z" fill="#9f2c00" stroke="none" stroke-width="0"/><path d="M167.94512,148.48277c1.17492,3.49553 1.34268,7.37014 0.25896,11.18546c-2.85601,10.05466 -13.32214,15.89034 -23.37681,13.03436c-5.59431,-1.58905 -9.88256,-5.53397 -12.09435,-10.4531c-1.76346,-3.92201 -2.20697,-8.46335 -0.94001,-12.92371c2.85601,-10.05466 13.32214,-15.89034 23.37681,-13.03436c6.23933,1.77226 10.85406,6.47497 12.7754,12.19135z" data-paper-data="{&quot;index&quot;:null}" fill="#ff6700" stroke="#ffffff" stroke-width="0"/><path d="M154.94556,136.41272c3.54554,1.00709 6.55081,2.92573 8.82065,5.41819c2.10742,2.31407 3.21866,4.05004 3.90198,7.08297c0.26644,1.18268 0.67665,4.45357 0.1033,6.84306c-0.99965,3.91293 -0.91269,3.32738 -2.52916,6.47912c-2.22541,3.18288 -2.24449,3.21273 -4.8272,5.32077c-2.38313,1.79468 -3.45719,2.33684 -5.4499,3.1984c-1.9723,0.52195 -2.98095,1.08832 -6.19013,1.10322c-3.60916,-0.16659 -3.6295,-0.24659 -5.40216,-0.80763c-2.51775,-0.53379 -2.91364,-1.54081 -5.17021,-2.31082c-5.59361,-4.4771 -8.36484,-12.0289 -6.23898,-19.51312c2.80774,-9.88479 13.09706,-15.62185 22.98185,-12.81414z" data-paper-data="{&quot;index&quot;:null}" fill="url(#color-15)" stroke="#ffffff" stroke-width="0"/><path d="M136.2234,150.94856c-1.13106,-6.08618 2.88585,-11.9369 8.97202,-13.06796c6.08618,-1.13106 11.93691,2.88585 13.06797,8.97202c1.13106,6.08618 -2.88583,11.93691 -8.97202,13.06797c-6.08618,1.13106 -11.93691,-2.88585 -13.06797,-8.97203z" fill="url(#color-16)" stroke="#9f2c00" stroke-width="0"/><path d="M164.91088,142.30921c0,0 -1.78043,1.018 -2.00309,1.11373c-4.05496,3.21848 -9.92844,10.81676 -13.12359,14.98677c-3.59826,2.86595 -5.59716,2.85452 -10.00622,1.64978c-0.08802,0.77316 -0.1477,1.54642 -0.1723,2.31752c1.88166,0.73898 3.85426,1.28816 6.07686,1.90836c5.69047,1.61905 14.10561,-0.13901 19.47791,-2.68532c0.24278,-0.07115 3.15623,-1.38101 3.15623,-1.38101l-0.65972,1.73787c-0.23252,0.06742 -1.85636,0.80674 -2.0889,0.87417c-5.64215,2.64137 -14.18321,4.03911 -20.24508,2.7201c-2.07325,-0.60157 -3.94134,-1.13017 -5.72239,-1.79343c0.01806,0.7003 0.06866,1.39765 0.15697,2.09032c3.02237,0.55123 6.09659,1.4149 8.67433,2.75692c1.8931,0.99524 3.21257,2.51837 5.24692,3.31854l2.70025,0.5161l-2.37262,0.67842c-2.19445,-0.62333 -4.1702,-2.34844 -6.15308,-3.36943c-2.3663,-1.23272 -5.17498,-2.04145 -7.95898,-2.57178c0.028,0.51757 0.07938,1.00444 0.20827,1.53189l1.12395,2.6602l-1.60709,-1.06636c-0.19771,-0.78368 -0.96741,-2.55504 -0.99818,-3.34988c-1.00434,-0.16292 -2.09881,-0.32127 -3.05544,-0.42362l-1.04081,-1.38903c0.85696,0.09166 3.03294,0.34953 3.92788,0.48827c-0.08745,-0.78754 -0.12875,-1.58118 -0.13095,-2.37834c-1.93196,-0.81947 -4.4235,-1.59999 -6.37244,-3.15361l-0.36337,-1.70676c1.69726,1.353 5.10018,2.70515 6.77053,3.46103c0.03787,-0.73888 0.10561,-1.47946 0.19756,-2.21978c-0.22045,-0.09444 -0.44169,-0.19867 -0.6638,-0.3131c-4.6022,-2.20587 -5.65893,-5.31383 -5.13126,-10.36381c0,0 0.48095,-2.91867 0.81826,-3.44239c0.3153,-0.48954 1.13242,-1.86477 1.13242,-1.86477l-1.04592,5.41375c-0.40123,4.59288 0.6155,7.10501 4.78716,9.1045c0.0974,0.05139 0.19459,0.10045 0.29157,0.14724c0.48384,-3.01063 1.3151,-5.99626 2.11814,-8.81995c1.42643,-4.20764 3.47435,-11.04476 7.64073,-13.52212c0.27652,-0.16443 1.20981,-0.23743 1.50767,-0.36182l1.44228,0.10184l-1.72993,0.77742c-4.34835,1.82411 -6.31514,9.4179 -7.66051,13.38159c-0.81085,2.85832 -1.65264,5.87634 -2.11347,8.91539c4.04541,1.22371 6.18854,0.9733 9.493,-1.57054c3.15479,-4.25597 8.73234,-11.69693 12.85152,-14.89429c0.12109,-0.05391 1.72219,-0.8917 1.72219,-0.8917c0,0 0.74769,0.94734 0.89642,0.88116z" data-paper-data="{&quot;index&quot;:null}" fill="#9f2c00" stroke="#9f2c00" stroke-width="1"/><path d="M146.78825,146.0972c-0.66802,2.35177 -3.11602,3.71672 -5.46779,3.04871c-2.35177,-0.66802 -3.71672,-3.11602 -3.04871,-5.46779c0.66802,-2.35179 3.11603,-3.71673 5.4678,-3.04872c2.35178,0.66802 3.71673,3.11602 3.04871,5.4678z" data-paper-data="{&quot;index&quot;:null}" fill="url(#color-17)" stroke="none" stroke-width="0"/></g><g fill-rule="nonzero" stroke-linecap="butt" stroke-linejoin="miter"><path d="M357.5755,128.51394c0.91396,0.82421 -0.65655,2.26379 -1.41735,3.10745c-0.76081,0.84366 -2.29832,1.67704 -3.21227,0.85283c-0.91396,-0.82421 -0.0422,-3.64287 0.7186,-4.48653c0.76081,-0.84366 2.99707,-0.29795 3.91103,0.52625z" fill="url(#color-18)" stroke="none" stroke-width="NaN"/><path d="M358.1722,168.33512c-11.52682,-3.27415 -18.21694,-15.27272 -14.94278,-26.79956c3.27416,-11.52682 15.27273,-18.21695 26.79954,-14.94278c11.52684,3.27416 18.21696,15.27273 14.94278,26.79955c-3.27415,11.52682 -15.27273,18.21695 -26.79955,14.94278z" fill="#9f2c00" stroke="none" stroke-width="0"/><path d="M382.04722,141.44973c1.17492,3.49553 1.34268,7.37014 0.25896,11.18546c-2.85601,10.05466 -13.32214,15.89034 -23.37681,13.03436c-5.59431,-1.58905 -9.88256,-5.53397 -12.09435,-10.4531c-1.76346,-3.92201 -2.20697,-8.46335 -0.94001,-12.92371c2.85601,-10.05466 13.32214,-15.89034 23.37681,-13.03436c6.23933,1.77226 10.85406,6.47497 12.7754,12.19135z" data-paper-data="{&quot;index&quot;:null}" fill="#ff6700" stroke="#ffffff" stroke-width="0"/><path d="M369.04766,129.37968c3.54554,1.00709 6.55081,2.92573 8.82065,5.41819c2.10742,2.31407 3.21866,4.05004 3.90198,7.08297c0.26644,1.18268 0.67665,4.45357 0.1033,6.84306c-0.99965,3.91293 -0.91269,3.32738 -2.52916,6.47912c-2.22541,3.18288 -2.24449,3.21273 -4.8272,5.32077c-2.38313,1.79468 -3.45719,2.33684 -5.4499,3.1984c-1.9723,0.52195 -2.98095,1.08832 -6.19013,1.10322c-3.60916,-0.16659 -3.6295,-0.24659 -5.40216,-0.80763c-2.51775,-0.53379 -2.91364,-1.54081 -5.17021,-2.31082c-5.59361,-4.4771 -8.36484,-12.0289 -6.23898,-19.51312c2.80774,-9.88479 13.09706,-15.62185 22.98185,-12.81414z" data-paper-data="{&quot;index&quot;:null}" fill="url(#color-19)" stroke="#ffffff" stroke-width="0"/><path d="M350.3255,143.91552c-1.13106,-6.08618 2.88585,-11.9369 8.97202,-13.06796c6.08618,-1.13106 11.93691,2.88585 13.06797,8.97202c1.13106,6.08618 -2.88583,11.93691 -8.97202,13.06797c-6.08618,1.13106 -11.93691,-2.88585 -13.06797,-8.97203z" fill="url(#color-20)" stroke="#9f2c00" stroke-width="0"/><path d="M379.01298,135.27617c0,0 -1.78043,1.018 -2.00309,1.11373c-4.05496,3.21848 -9.92844,10.81676 -13.12359,14.98677c-3.59826,2.86595 -5.59716,2.85452 -10.00622,1.64978c-0.08802,0.77316 -0.1477,1.54642 -0.1723,2.31752c1.88166,0.73898 3.85426,1.28816 6.07686,1.90836c5.69047,1.61905 14.10561,-0.13901 19.47791,-2.68532c0.24278,-0.07115 3.15623,-1.38101 3.15623,-1.38101l-0.65972,1.73787c-0.23252,0.06742 -1.85636,0.80674 -2.0889,0.87417c-5.64215,2.64137 -14.18321,4.03911 -20.24508,2.7201c-2.07325,-0.60157 -3.94134,-1.13017 -5.72239,-1.79343c0.01806,0.7003 0.06866,1.39765 0.15697,2.09032c3.02237,0.55123 6.09659,1.4149 8.67433,2.75692c1.8931,0.99524 3.21257,2.51837 5.24692,3.31854l2.70025,0.5161l-2.37262,0.67842c-2.19445,-0.62333 -4.1702,-2.34844 -6.15308,-3.36943c-2.3663,-1.23272 -5.17498,-2.04145 -7.95898,-2.57178c0.028,0.51757 0.07938,1.00444 0.20827,1.53189l1.12395,2.6602l-1.60709,-1.06636c-0.19771,-0.78368 -0.96741,-2.55504 -0.99818,-3.34988c-1.00434,-0.16292 -2.09881,-0.32127 -3.05544,-0.42362l-1.04081,-1.38903c0.85696,0.09166 3.03294,0.34953 3.92788,0.48827c-0.08745,-0.78754 -0.12875,-1.58118 -0.13095,-2.37834c-1.93196,-0.81947 -4.4235,-1.59999 -6.37244,-3.15361l-0.36337,-1.70676c1.69726,1.353 5.10018,2.70515 6.77053,3.46103c0.03787,-0.73888 0.10561,-1.47946 0.19756,-2.21978c-0.22045,-0.09444 -0.44169,-0.19867 -0.6638,-0.3131c-4.6022,-2.20587 -5.65893,-5.31383 -5.13126,-10.36381c0,0 0.48095,-2.91867 0.81826,-3.44239c0.3153,-0.48954 1.13242,-1.86477 1.13242,-1.86477l-1.04592,5.41375c-0.40123,4.59288 0.6155,7.10501 4.78716,9.1045c0.0974,0.05139 0.19459,0.10045 0.29157,0.14724c0.48384,-3.01063 1.3151,-5.99626 2.11814,-8.81995c1.42643,-4.20764 3.47435,-11.04476 7.64073,-13.52212c0.27652,-0.16443 1.20981,-0.23743 1.50767,-0.36182l1.44228,0.10184l-1.72993,0.77742c-4.34835,1.82411 -6.31514,9.4179 -7.66051,13.38159c-0.81085,2.85832 -1.65264,5.87634 -2.11347,8.91539c4.04541,1.22371 6.18854,0.9733 9.493,-1.57054c3.15479,-4.25597 8.73234,-11.69693 12.85152,-14.89429c0.12109,-0.05391 1.72219,-0.8917 1.72219,-0.8917c0,0 0.74769,0.94734 0.89642,0.88116z" data-paper-data="{&quot;index&quot;:null}" fill="#9f2c00" stroke="#9f2c00" stroke-width="1"/><path d="M360.89035,139.06416c-0.66802,2.35177 -3.11602,3.71672 -5.46779,3.04871c-2.35177,-0.66802 -3.71672,-3.11602 -3.04871,-5.46779c0.66802,-2.35179 3.11603,-3.71673 5.4678,-3.04872c2.35178,0.66802 3.71673,3.11602 3.04871,5.4678z" data-paper-data="{&quot;index&quot;:null}" fill="url(#color-21)" stroke="none" stroke-width="0"/></g><g fill-rule="evenodd" stroke-linecap="butt" stroke-linejoin="round"><path d="M79.13907,218.56901l9.21409,-2.11263l4.32221,-7.71539l5.02644,8.13793l8.50987,1.69009l-6.39414,7.20078l1.22372,8.70126l-8.22507,-2.83466l-8.50674,2.83466l1.36456,-9.4055z" fill="url(#color-22)" stroke="url(#color-23)" stroke-width="8.5"/><path d="M79.13908,218.56901l9.21409,-2.11261l4.32221,-7.71539l5.02644,8.13793l8.50987,1.69009l-6.39414,7.20078l1.22372,8.70126l-8.22506,-2.83466l-8.50674,2.83466l1.36456,-9.4055z" fill="url(#color-24)" stroke="#fff0a6" stroke-width="4"/><path d="M81.74482,219.46924l7.45492,-1.70928l3.497,-6.24235l4.06679,6.58422l6.88516,1.36741l-5.17336,5.82599l0.99009,7.04001l-6.65471,-2.29348l-6.8826,2.29348l1.10404,-7.60979z" fill="#f2cc41" stroke="#f2cc41" stroke-width="2.5"/></g><g fill-rule="evenodd" stroke-linecap="butt" stroke-linejoin="round"><path d="M324.13907,220.56902l9.21409,-2.11263l4.32221,-7.71539l5.02643,8.13793l8.50987,1.69009l-6.39414,7.20078l1.22373,8.70127l-8.22508,-2.83466l-8.50674,2.83466l1.36456,-9.4055z" fill="url(#color-25)" stroke="url(#color-26)" stroke-width="8.5"/><path d="M324.13908,220.56902l9.21409,-2.11262l4.32221,-7.7154l5.02643,8.13793l8.50988,1.69009l-6.39414,7.20078l1.22373,8.70126l-8.22506,-2.83466l-8.50674,2.83466l1.36455,-9.4055z" fill="url(#color-27)" stroke="#fff0a6" stroke-width="4"/><path d="M326.74482,221.46924l7.45493,-1.70928l3.497,-6.24235l4.06679,6.58422l6.88515,1.36741l-5.17336,5.82599l0.99009,7.04001l-6.65471,-2.29348l-6.8826,2.29348l1.10404,-7.60979z" fill="#f2cc41" stroke="#f2cc41" stroke-width="2.5"/></g><g fill-rule="nonzero" stroke="#ab671a" stroke-width="0" stroke-linecap="butt" stroke-linejoin="miter"><path d="M23.20636,336.35954l31.21795,-11.83424l9.2319,12.35799z" data-paper-data="{&quot;index&quot;:null}" fill="#39e2e6"/><path d="M83.05653,285.31242l-29.07537,11.29464l-8.64894,-11.73366z" fill="#39e2e6"/><path d="M45.15707,284.75731l28.79593,38.54663l-10.41282,13.93875l-28.79593,-38.54663z" fill="#39c0e6"/></g><path d="M79.25186,93.8011c-3.65841,0 -5.48763,-1.7821 -5.48763,-5.34628v-29.00859c0,-3.57154 1.8292,-5.35729 5.48763,-5.35729h11.22114c6.98153,0 12.39838,1.7271 16.25051,5.18128c3.85214,3.4542 5.77821,8.33845 5.77821,14.6528c0,6.30702 -1.92607,11.19862 -5.77821,14.67481c-3.85214,3.46885 -9.26898,5.20327 -16.25051,5.20327zM84.29247,85.40765h5.48762c4.00861,0 6.97408,-0.94604 8.89643,-2.83815c1.9298,-1.89944 2.89469,-4.78159 2.89469,-8.64648c0,-3.87221 -0.97234,-6.74703 -2.91705,-8.62446c-1.9447,-1.87744 -4.90272,-2.81616 -8.87408,-2.81616h-5.48762zM136.59044,94.41713c-5.87134,0 -10.36426,-1.46308 -13.47876,-4.38924c-3.10705,-2.92616 -4.66056,-7.30073 -4.66056,-13.12372v-18.08499c0,-1.68675 0.45823,-2.98117 1.3747,-3.88321c0.91647,-0.90205 2.21293,-1.35307 3.8894,-1.35307c1.67646,0 2.97293,0.45102 3.8894,1.35307c0.91647,0.90205 1.37469,2.19646 1.37469,3.88321v18.19499c0,2.88949 0.64824,5.06761 1.9447,6.53436c1.29647,1.46675 3.18527,2.20012 5.66643,2.20012c2.44392,0 4.3141,-0.73337 5.61056,-2.20012c1.29647,-1.46674 1.9447,-3.64487 1.9447,-6.53436v-18.19499c0,-1.68675 0.44705,-2.98117 1.34116,-3.88321c0.90157,-0.90205 2.19059,-1.35307 3.86705,-1.35307c1.67646,0 2.9543,0.45102 3.83351,1.35307c0.87921,0.90205 1.31882,2.19646 1.31882,3.88321v18.08499c0,5.82298 -1.51628,10.19756 -4.5488,13.12372c-3.03252,2.92616 -7.4882,4.38924 -13.36699,4.38924zM166.4623,94.30713c-3.27842,0 -4.91762,-1.63177 -4.91762,-4.89528v-30.70266c0,-1.65009 0.41725,-2.91516 1.25175,-3.79521c0.84195,-0.88738 1.94843,-1.33107 3.31939,-1.33107c1.22196,0 2.1645,0.22735 2.82763,0.68204c0.67058,0.44736 1.44548,1.19906 2.32469,2.25512l16.54111,20.32911v-18.41499c0,-3.23418 1.62058,-4.85127 4.86174,-4.85127c1.60196,0 2.81273,0.42535 3.63234,1.27607c0.81961,0.84337 1.2294,2.03511 1.2294,3.5752v31.19769c0,1.43008 -0.38373,2.56681 -1.15118,3.41018c-0.76,0.84337 -1.78823,1.26508 -3.08469,1.26508c-1.29647,0 -2.31725,-0.22368 -3.06234,-0.67104c-0.73764,-0.45469 -1.52745,-1.20641 -2.3694,-2.25513l-16.5411,-20.32911v18.36c0,3.26351 -1.62059,4.89528 -4.86175,4.89528zM210.18396,94.30713c-1.68392,0 -2.9841,-0.45103 -3.90057,-1.35308c-0.90901,-0.90205 -1.36353,-2.19645 -1.36353,-3.88321v-30.25164c0,-1.68676 0.45451,-2.98117 1.36353,-3.88321c0.91647,-0.90205 2.21665,-1.35308 3.90057,-1.35308c1.67646,0 2.97293,0.45103 3.8894,1.35308c0.91647,0.90205 1.3747,2.19646 1.3747,3.88321v12.28766h0.11176l13.90346,-15.10382c0.72274,-0.74805 1.49391,-1.3384 2.31351,-1.7711c0.82705,-0.43268 1.7547,-0.64904 2.78293,-0.64904c1.5647,0 2.70843,0.40336 3.43116,1.21007c0.72274,0.80671 1.04685,1.75643 0.97234,2.84916c-0.07451,1.08539 -0.51411,2.06079 -1.31881,2.92615l-11.90288,12.39768l12.59583,14.01476c0.99098,1.09273 1.48646,2.20379 1.48646,3.33318c0,1.12206 -0.40235,2.0681 -1.20705,2.83816c-0.79725,0.77005 -1.94098,1.15506 -3.43116,1.15506c-1.29647,0 -2.34704,-0.25301 -3.15175,-0.75904c-0.79725,-0.50603 -1.63549,-1.26508 -2.5147,-2.27713l-13.95935,-15.37884h-0.11177v13.17871c0,1.68676 -0.45078,2.98117 -1.35234,3.88322c-0.89412,0.90205 -2.19804,1.35308 -3.91175,1.35308zM267.51626,93.8011c-3.65841,0 -5.48762,-1.7821 -5.48762,-5.34628v-29.00859c0,-3.57154 1.8292,-5.35729 5.48762,-5.35729h13.95935c4.35136,0 7.71918,0.93138 10.10349,2.79414c2.3843,1.85543 3.57645,4.34158 3.57645,7.4584c0,2.06811 -0.52529,3.8722 -1.57587,5.41229c-1.04313,1.54008 -2.4998,2.68414 -4.36998,3.43218c2.25019,0.6747 3.98253,1.81144 5.19703,3.41018c1.22196,1.59141 1.83293,3.57154 1.83293,5.94033c0,3.49085 -1.27039,6.24102 -3.81116,8.25044c-2.53332,2.00943 -5.99055,3.01416 -10.37171,3.01416zM272.09859,69.86378h7.49938c1.90744,0 3.30822,-0.33735 4.20233,-1.01205c0.89412,-0.6747 1.34116,-1.70876 1.34116,-3.10217c0,-1.38607 -0.44705,-2.40547 -1.34116,-3.05817c-0.89412,-0.66004 -2.29489,-0.99006 -4.20233,-0.99006h-7.49938zM272.09859,86.19968h8.52761c1.9447,0 3.36411,-0.36669 4.25822,-1.10005c0.89412,-0.73337 1.34117,-1.83343 1.34117,-3.30017c0,-1.45942 -0.44705,-2.54482 -1.34117,-3.25618c-0.89412,-0.71871 -2.31352,-1.07806 -4.25822,-1.07806h-8.52761zM303.9737,94.30713c-1.79568,0 -3.11449,-0.60136 -3.95644,-1.8041c-0.83451,-1.20274 -0.83451,-2.70247 0,-4.49924l14.24993,-30.19664c0.68549,-1.45941 1.52371,-2.52648 2.5147,-3.20118c0.99844,-0.68203 2.16452,-1.02305 3.49824,-1.02305c1.29647,0 2.44018,0.34101 3.43115,1.02305c0.99098,0.6747 1.82921,1.74175 2.5147,3.20118l14.24993,30.19664c0.87921,1.84077 0.91646,3.35151 0.11176,4.53224c-0.79725,1.18073 -2.05274,1.7711 -3.76645,1.7711c-1.52744,0 -2.70097,-0.33736 -3.52058,-1.01207c-0.81961,-0.6747 -1.55352,-1.76376 -2.20174,-3.26717l-1.83294,-4.27923h-18.02759l-1.83294,4.27923c-0.68549,1.50341 -1.39332,2.59247 -2.12351,3.26717c-0.72274,0.6747 -1.82548,1.01207 -3.30822,1.01207zM320.16835,64.90251l-5.49881,12.9037h11.0982l-5.48762,-12.9037zM351.06617,93.8011c-1.72117,0 -3.03998,-0.45836 -3.95644,-1.37508c-0.90901,-0.92405 -1.36353,-2.21112 -1.36353,-3.8612v-29.29459c0,-1.68676 0.45451,-2.98116 1.36353,-3.88321c0.91647,-0.90205 2.21665,-1.35308 3.90057,-1.35308c1.67646,0 2.97293,0.45103 3.8894,1.35308c0.91647,0.90205 1.37471,2.19645 1.37471,3.88321v25.91741h13.95935c1.45293,0 2.57058,0.37401 3.35292,1.12206c0.78235,0.74805 1.17353,1.80043 1.17353,3.15717c0,1.38607 -0.39118,2.4568 -1.17353,3.21218c-0.78235,0.74804 -1.89999,1.12206 -3.35292,1.12206zM384.54177,93.8011c-1.72117,0 -3.03999,-0.45836 -3.95645,-1.37508c-0.90901,-0.92405 -1.36353,-2.21112 -1.36353,-3.8612v-29.29459c0,-1.68676 0.45451,-2.98116 1.36353,-3.88321c0.91647,-0.90205 2.21665,-1.35308 3.90057,-1.35308c1.67646,0 2.97293,0.45103 3.8894,1.35308c0.91647,0.90205 1.3747,2.19645 1.3747,3.88321v25.91741h13.95935c1.45293,0 2.57058,0.37401 3.35292,1.12206c0.78235,0.74805 1.17353,1.80043 1.17353,3.15717c0,1.38607 -0.39118,2.4568 -1.17353,3.21218c-0.78235,0.74804 -1.89999,1.12206 -3.35292,1.12206z" fill="url(#color-28)" fill-rule="nonzero" stroke="#ffffff" stroke-width="14" stroke-linecap="square" stroke-linejoin="miter"/><path d="M79.25186,93.8011c-3.65841,0 -5.48763,-1.7821 -5.48763,-5.34628v-29.00859c0,-3.57154 1.8292,-5.35729 5.48763,-5.35729h11.22114c6.98153,0 12.39838,1.7271 16.25051,5.18128c3.85214,3.4542 5.77821,8.33845 5.77821,14.6528c0,6.30702 -1.92607,11.19862 -5.77821,14.67481c-3.85214,3.46885 -9.26898,5.20327 -16.25051,5.20327zM84.29247,85.40765h5.48762c4.00861,0 6.97408,-0.94604 8.89643,-2.83815c1.9298,-1.89944 2.89469,-4.78159 2.89469,-8.64648c0,-3.87221 -0.97234,-6.74703 -2.91705,-8.62446c-1.9447,-1.87744 -4.90272,-2.81616 -8.87408,-2.81616h-5.48762zM136.59044,94.41713c-5.87134,0 -10.36426,-1.46308 -13.47876,-4.38924c-3.10705,-2.92616 -4.66056,-7.30073 -4.66056,-13.12372v-18.08499c0,-1.68675 0.45823,-2.98117 1.3747,-3.88321c0.91647,-0.90205 2.21293,-1.35307 3.8894,-1.35307c1.67646,0 2.97293,0.45102 3.8894,1.35307c0.91647,0.90205 1.37469,2.19646 1.37469,3.88321v18.19499c0,2.88949 0.64824,5.06761 1.9447,6.53436c1.29647,1.46675 3.18527,2.20012 5.66643,2.20012c2.44392,0 4.3141,-0.73337 5.61056,-2.20012c1.29647,-1.46674 1.9447,-3.64487 1.9447,-6.53436v-18.19499c0,-1.68675 0.44705,-2.98117 1.34116,-3.88321c0.90157,-0.90205 2.19059,-1.35307 3.86705,-1.35307c1.67646,0 2.9543,0.45102 3.83351,1.35307c0.87921,0.90205 1.31882,2.19646 1.31882,3.88321v18.08499c0,5.82298 -1.51628,10.19756 -4.5488,13.12372c-3.03252,2.92616 -7.4882,4.38924 -13.36699,4.38924zM166.4623,94.30713c-3.27842,0 -4.91762,-1.63177 -4.91762,-4.89528v-30.70266c0,-1.65009 0.41725,-2.91516 1.25175,-3.79521c0.84195,-0.88738 1.94843,-1.33107 3.31939,-1.33107c1.22196,0 2.1645,0.22735 2.82763,0.68204c0.67058,0.44736 1.44548,1.19906 2.32469,2.25512l16.54111,20.32911v-18.41499c0,-3.23418 1.62058,-4.85127 4.86174,-4.85127c1.60196,0 2.81273,0.42535 3.63234,1.27607c0.81961,0.84337 1.2294,2.03511 1.2294,3.5752v31.19769c0,1.43008 -0.38373,2.56681 -1.15118,3.41018c-0.76,0.84337 -1.78823,1.26508 -3.08469,1.26508c-1.29647,0 -2.31725,-0.22368 -3.06234,-0.67104c-0.73764,-0.45469 -1.52745,-1.20641 -2.3694,-2.25513l-16.5411,-20.32911v18.36c0,3.26351 -1.62059,4.89528 -4.86175,4.89528zM210.18396,94.30713c-1.68392,0 -2.9841,-0.45103 -3.90057,-1.35308c-0.90901,-0.90205 -1.36353,-2.19645 -1.36353,-3.88321v-30.25164c0,-1.68676 0.45451,-2.98117 1.36353,-3.88321c0.91647,-0.90205 2.21665,-1.35308 3.90057,-1.35308c1.67646,0 2.97293,0.45103 3.8894,1.35308c0.91647,0.90205 1.3747,2.19646 1.3747,3.88321v12.28766h0.11176l13.90346,-15.10382c0.72274,-0.74805 1.49391,-1.3384 2.31351,-1.7711c0.82705,-0.43268 1.7547,-0.64904 2.78293,-0.64904c1.5647,0 2.70843,0.40336 3.43116,1.21007c0.72274,0.80671 1.04685,1.75643 0.97234,2.84916c-0.07451,1.08539 -0.51411,2.06079 -1.31881,2.92615l-11.90288,12.39768l12.59583,14.01476c0.99098,1.09273 1.48646,2.20379 1.48646,3.33318c0,1.12206 -0.40235,2.0681 -1.20705,2.83816c-0.79725,0.77005 -1.94098,1.15506 -3.43116,1.15506c-1.29647,0 -2.34704,-0.25301 -3.15175,-0.75904c-0.79725,-0.50603 -1.63549,-1.26508 -2.5147,-2.27713l-13.95935,-15.37884h-0.11177v13.17871c0,1.68676 -0.45078,2.98117 -1.35234,3.88322c-0.89412,0.90205 -2.19804,1.35308 -3.91175,1.35308zM267.51626,93.8011c-3.65841,0 -5.48762,-1.7821 -5.48762,-5.34628v-29.00859c0,-3.57154 1.8292,-5.35729 5.48762,-5.35729h13.95935c4.35136,0 7.71918,0.93138 10.10349,2.79414c2.3843,1.85543 3.57645,4.34158 3.57645,7.4584c0,2.06811 -0.52529,3.8722 -1.57587,5.41229c-1.04313,1.54008 -2.4998,2.68414 -4.36998,3.43218c2.25019,0.6747 3.98253,1.81144 5.19703,3.41018c1.22196,1.59141 1.83293,3.57154 1.83293,5.94033c0,3.49085 -1.27039,6.24102 -3.81116,8.25044c-2.53332,2.00943 -5.99055,3.01416 -10.37171,3.01416zM272.09859,69.86378h7.49938c1.90744,0 3.30822,-0.33735 4.20233,-1.01205c0.89412,-0.6747 1.34116,-1.70876 1.34116,-3.10217c0,-1.38607 -0.44705,-2.40547 -1.34116,-3.05817c-0.89412,-0.66004 -2.29489,-0.99006 -4.20233,-0.99006h-7.49938zM272.09859,86.19968h8.52761c1.9447,0 3.36411,-0.36669 4.25822,-1.10005c0.89412,-0.73337 1.34117,-1.83343 1.34117,-3.30017c0,-1.45942 -0.44705,-2.54482 -1.34117,-3.25618c-0.89412,-0.71871 -2.31352,-1.07806 -4.25822,-1.07806h-8.52761zM303.9737,94.30713c-1.79568,0 -3.11449,-0.60136 -3.95644,-1.8041c-0.83451,-1.20274 -0.83451,-2.70247 0,-4.49924l14.24993,-30.19664c0.68549,-1.45941 1.52371,-2.52648 2.5147,-3.20118c0.99844,-0.68203 2.16452,-1.02305 3.49824,-1.02305c1.29647,0 2.44018,0.34101 3.43115,1.02305c0.99098,0.6747 1.82921,1.74175 2.5147,3.20118l14.24993,30.19664c0.87921,1.84077 0.91646,3.35151 0.11176,4.53224c-0.79725,1.18073 -2.05274,1.7711 -3.76645,1.7711c-1.52744,0 -2.70097,-0.33736 -3.52058,-1.01207c-0.81961,-0.6747 -1.55352,-1.76376 -2.20174,-3.26717l-1.83294,-4.27923h-18.02759l-1.83294,4.27923c-0.68549,1.50341 -1.39332,2.59247 -2.12351,3.26717c-0.72274,0.6747 -1.82548,1.01207 -3.30822,1.01207zM320.16835,64.90251l-5.49881,12.9037h11.0982l-5.48762,-12.9037zM351.06617,93.8011c-1.72117,0 -3.03998,-0.45836 -3.95644,-1.37508c-0.90901,-0.92405 -1.36353,-2.21112 -1.36353,-3.8612v-29.29459c0,-1.68676 0.45451,-2.98116 1.36353,-3.88321c0.91647,-0.90205 2.21665,-1.35308 3.90057,-1.35308c1.67646,0 2.97293,0.45103 3.8894,1.35308c0.91647,0.90205 1.37471,2.19645 1.37471,3.88321v25.91741h13.95935c1.45293,0 2.57058,0.37401 3.35292,1.12206c0.78235,0.74805 1.17353,1.80043 1.17353,3.15717c0,1.38607 -0.39118,2.4568 -1.17353,3.21218c-0.78235,0.74804 -1.89999,1.12206 -3.35292,1.12206zM384.54177,93.8011c-1.72117,0 -3.03999,-0.45836 -3.95645,-1.37508c-0.90901,-0.92405 -1.36353,-2.21112 -1.36353,-3.8612v-29.29459c0,-1.68676 0.45451,-2.98116 1.36353,-3.88321c0.91647,-0.90205 2.21665,-1.35308 3.90057,-1.35308c1.67646,0 2.97293,0.45103 3.8894,1.35308c0.91647,0.90205 1.3747,2.19645 1.3747,3.88321v25.91741h13.95935c1.45293,0 2.57058,0.37401 3.35292,1.12206c0.78235,0.74805 1.17353,1.80043 1.17353,3.15717c0,1.38607 -0.39118,2.4568 -1.17353,3.21218c-0.78235,0.74804 -1.89999,1.12206 -3.35292,1.12206z" fill="#ffae23" fill-rule="nonzero" stroke="none" stroke-width="0" stroke-linecap="square" stroke-linejoin="miter"/><path d="M79.25186,93.8011c-3.65841,0 -5.48763,-1.7821 -5.48763,-5.34628v-29.00859c0,-3.57154 1.8292,-5.35729 5.48763,-5.35729h11.22114c6.98153,0 12.39838,1.7271 16.25051,5.18128c3.85214,3.4542 5.77821,8.33845 5.77821,14.6528c0,6.30702 -1.92607,11.19862 -5.77821,14.67481c-3.85214,3.46885 -9.26898,5.20327 -16.25051,5.20327zM84.29247,85.40765h5.48762c4.00861,0 6.97408,-0.94604 8.89643,-2.83815c1.9298,-1.89944 2.89469,-4.78159 2.89469,-8.64648c0,-3.87221 -0.97234,-6.74703 -2.91705,-8.62446c-1.9447,-1.87744 -4.90272,-2.81616 -8.87408,-2.81616h-5.48762zM136.59044,94.41713c-5.87134,0 -10.36426,-1.46308 -13.47876,-4.38924c-3.10705,-2.92616 -4.66056,-7.30073 -4.66056,-13.12372v-18.08499c0,-1.68675 0.45823,-2.98117 1.3747,-3.88321c0.91647,-0.90205 2.21293,-1.35307 3.8894,-1.35307c1.67646,0 2.97293,0.45102 3.8894,1.35307c0.91647,0.90205 1.37469,2.19646 1.37469,3.88321v18.19499c0,2.88949 0.64824,5.06761 1.9447,6.53436c1.29647,1.46675 3.18527,2.20012 5.66643,2.20012c2.44392,0 4.3141,-0.73337 5.61056,-2.20012c1.29647,-1.46674 1.9447,-3.64487 1.9447,-6.53436v-18.19499c0,-1.68675 0.44705,-2.98117 1.34116,-3.88321c0.90157,-0.90205 2.19059,-1.35307 3.86705,-1.35307c1.67646,0 2.9543,0.45102 3.83351,1.35307c0.87921,0.90205 1.31882,2.19646 1.31882,3.88321v18.08499c0,5.82298 -1.51628,10.19756 -4.5488,13.12372c-3.03252,2.92616 -7.4882,4.38924 -13.36699,4.38924zM166.4623,94.30713c-3.27842,0 -4.91762,-1.63177 -4.91762,-4.89528v-30.70266c0,-1.65009 0.41725,-2.91516 1.25175,-3.79521c0.84195,-0.88738 1.94843,-1.33107 3.31939,-1.33107c1.22196,0 2.1645,0.22735 2.82763,0.68204c0.67058,0.44736 1.44548,1.19906 2.32469,2.25512l16.54111,20.32911v-18.41499c0,-3.23418 1.62058,-4.85127 4.86174,-4.85127c1.60196,0 2.81273,0.42535 3.63234,1.27607c0.81961,0.84337 1.2294,2.03511 1.2294,3.5752v31.19769c0,1.43008 -0.38373,2.56681 -1.15118,3.41018c-0.76,0.84337 -1.78823,1.26508 -3.08469,1.26508c-1.29647,0 -2.31725,-0.22368 -3.06234,-0.67104c-0.73764,-0.45469 -1.52745,-1.20641 -2.3694,-2.25513l-16.5411,-20.32911v18.36c0,3.26351 -1.62059,4.89528 -4.86175,4.89528zM210.18396,94.30713c-1.68392,0 -2.9841,-0.45103 -3.90057,-1.35308c-0.90901,-0.90205 -1.36353,-2.19645 -1.36353,-3.88321v-30.25164c0,-1.68676 0.45451,-2.98117 1.36353,-3.88321c0.91647,-0.90205 2.21665,-1.35308 3.90057,-1.35308c1.67646,0 2.97293,0.45103 3.8894,1.35308c0.91647,0.90205 1.3747,2.19646 1.3747,3.88321v12.28766h0.11176l13.90346,-15.10382c0.72274,-0.74805 1.49391,-1.3384 2.31351,-1.7711c0.82705,-0.43268 1.7547,-0.64904 2.78293,-0.64904c1.5647,0 2.70843,0.40336 3.43116,1.21007c0.72274,0.80671 1.04685,1.75643 0.97234,2.84916c-0.07451,1.08539 -0.51411,2.06079 -1.31881,2.92615l-11.90288,12.39768l12.59583,14.01476c0.99098,1.09273 1.48646,2.20379 1.48646,3.33318c0,1.12206 -0.40235,2.0681 -1.20705,2.83816c-0.79725,0.77005 -1.94098,1.15506 -3.43116,1.15506c-1.29647,0 -2.34704,-0.25301 -3.15175,-0.75904c-0.79725,-0.50603 -1.63549,-1.26508 -2.5147,-2.27713l-13.95935,-15.37884h-0.11177v13.17871c0,1.68676 -0.45078,2.98117 -1.35234,3.88322c-0.89412,0.90205 -2.19804,1.35308 -3.91175,1.35308zM267.51626,93.8011c-3.65841,0 -5.48762,-1.7821 -5.48762,-5.34628v-29.00859c0,-3.57154 1.8292,-5.35729 5.48762,-5.35729h13.95935c4.35136,0 7.71918,0.93138 10.10349,2.79414c2.3843,1.85543 3.57645,4.34158 3.57645,7.4584c0,2.06811 -0.52529,3.8722 -1.57587,5.41229c-1.04313,1.54008 -2.4998,2.68414 -4.36998,3.43218c2.25019,0.6747 3.98253,1.81144 5.19703,3.41018c1.22196,1.59141 1.83293,3.57154 1.83293,5.94033c0,3.49085 -1.27039,6.24102 -3.81116,8.25044c-2.53332,2.00943 -5.99055,3.01416 -10.37171,3.01416zM272.09859,69.86378h7.49938c1.90744,0 3.30822,-0.33735 4.20233,-1.01205c0.89412,-0.6747 1.34116,-1.70876 1.34116,-3.10217c0,-1.38607 -0.44705,-2.40547 -1.34116,-3.05817c-0.89412,-0.66004 -2.29489,-0.99006 -4.20233,-0.99006h-7.49938zM272.09859,86.19968h8.52761c1.9447,0 3.36411,-0.36669 4.25822,-1.10005c0.89412,-0.73337 1.34117,-1.83343 1.34117,-3.30017c0,-1.45942 -0.44705,-2.54482 -1.34117,-3.25618c-0.89412,-0.71871 -2.31352,-1.07806 -4.25822,-1.07806h-8.52761zM303.9737,94.30713c-1.79568,0 -3.11449,-0.60136 -3.95644,-1.8041c-0.83451,-1.20274 -0.83451,-2.70247 0,-4.49924l14.24993,-30.19664c0.68549,-1.45941 1.52371,-2.52648 2.5147,-3.20118c0.99844,-0.68203 2.16452,-1.02305 3.49824,-1.02305c1.29647,0 2.44018,0.34101 3.43115,1.02305c0.99098,0.6747 1.82921,1.74175 2.5147,3.20118l14.24993,30.19664c0.87921,1.84077 0.91646,3.35151 0.11176,4.53224c-0.79725,1.18073 -2.05274,1.7711 -3.76645,1.7711c-1.52744,0 -2.70097,-0.33736 -3.52058,-1.01207c-0.81961,-0.6747 -1.55352,-1.76376 -2.20174,-3.26717l-1.83294,-4.27923h-18.02759l-1.83294,4.27923c-0.68549,1.50341 -1.39332,2.59247 -2.12351,3.26717c-0.72274,0.6747 -1.82548,1.01207 -3.30822,1.01207zM320.16835,64.90253l-5.49881,12.9037h11.0982l-5.48762,-12.9037zM351.06617,93.8011c-1.72117,0 -3.03998,-0.45836 -3.95644,-1.37508c-0.90901,-0.92405 -1.36353,-2.21112 -1.36353,-3.8612v-29.29459c0,-1.68676 0.45451,-2.98116 1.36353,-3.88321c0.91647,-0.90205 2.21665,-1.35308 3.90057,-1.35308c1.67646,0 2.97293,0.45103 3.8894,1.35308c0.91647,0.90205 1.37471,2.19645 1.37471,3.88321v25.91741h13.95935c1.45293,0 2.57058,0.37401 3.35292,1.12206c0.78235,0.74805 1.17353,1.80043 1.17353,3.15717c0,1.38607 -0.39118,2.4568 -1.17353,3.21218c-0.78235,0.74804 -1.89999,1.12206 -3.35292,1.12206zM384.54177,93.8011c-1.72117,0 -3.03999,-0.45836 -3.95645,-1.37508c-0.90901,-0.92405 -1.36353,-2.21112 -1.36353,-3.8612v-29.29459c0,-1.68676 0.45451,-2.98116 1.36353,-3.88321c0.91647,-0.90205 2.21665,-1.35308 3.90057,-1.35308c1.67646,0 2.97293,0.45103 3.8894,1.35308c0.91647,0.90205 1.3747,2.19645 1.3747,3.88321v25.91741h13.95935c1.45293,0 2.57058,0.37401 3.35292,1.12206c0.78235,0.74805 1.17353,1.80043 1.17353,3.15717c0,1.38607 -0.39118,2.4568 -1.17353,3.21218c-0.78235,0.74804 -1.89999,1.12206 -3.35292,1.12206z" fill="#ffa100" fill-rule="nonzero" stroke="#ff8800" stroke-width="6" stroke-linecap="square" stroke-linejoin="miter"/></g></g></svg>