<svg version="1.1" xmlns="http://www.w3.org/2000/svg" xmlns:xlink="http://www.w3.org/1999/xlink" width="60.75414" height="67.09887" viewBox="0,0,60.75414,67.09887"><defs><linearGradient x1="230.95891" y1="201.23426" x2="230.95891" y2="209.45587" gradientUnits="userSpaceOnUse" id="color-1"><stop offset="0" stop-color="#ffaa21"/><stop offset="1" stop-color="#ff8c14"/></linearGradient><linearGradient x1="230.95891" y1="201.23426" x2="230.95891" y2="209.45587" gradientUnits="userSpaceOnUse" id="color-2"><stop offset="0" stop-color="#ffaa21"/><stop offset="1" stop-color="#ff8c14"/></linearGradient><linearGradient x1="230.95892" y1="201.23426" x2="230.95892" y2="209.45588" gradientUnits="userSpaceOnUse" id="color-3"><stop offset="0" stop-color="#ffaa21"/><stop offset="1" stop-color="#ff8c14"/></linearGradient></defs><g transform="translate(-209.90543,-147.24515)"><g data-paper-data="{&quot;isPaintingLayer&quot;:true}" stroke-miterlimit="10" stroke-dasharray="" stroke-dashoffset="0" style="mix-blend-mode: normal"><text transform="translate(227.78825,185.16901) scale(0.625,0.625)" font-size="40" xml:space="preserve" fill="#9966ff" fill-rule="nonzero" stroke="none" stroke-width="1" stroke-linecap="butt" stroke-linejoin="miter" stroke-miterlimit="10" stroke-dasharray="" stroke-dashoffset="0" font-family="Sans Serif" font-weight="normal" text-anchor="start" style="mix-blend-mode: normal"><tspan x="0" dy="0">🔒</tspan></text><path d="M220.97103,176.89262c0,-10.82144 8.77251,-19.59395 19.59395,-19.59395c10.82144,0 19.59395,8.77251 19.59395,19.59395c0,10.82144 -8.77251,19.59395 -19.59395,19.59395c-10.82144,0 -19.59395,-8.77251 -19.59395,-19.59395z" fill="#c75050" fill-rule="nonzero" stroke="#000000" stroke-width="1.5" stroke-linecap="butt" stroke-linejoin="miter"/><path d="M224.10913,176.12725c0,-9.46877 7.53887,-17.1447 16.83857,-17.1447c9.29968,0 16.83857,7.67594 16.83857,17.1447c0,9.46877 -7.53887,17.1447 -16.83857,17.1447c-9.29968,0 -16.83857,-7.67594 -16.83857,-17.1447z" fill="#ff6666" fill-rule="nonzero" stroke="none" stroke-width="1.5" stroke-linecap="butt" stroke-linejoin="miter"/><path d="M232.22163,173.37001c0,-6.50978 5.27721,-11.787 11.787,-11.787c6.50978,0 11.787,5.27721 11.787,11.787c0,6.50978 -5.27721,11.787 -11.787,11.787c-6.50978,0 -11.787,-5.27721 -11.787,-11.787z" fill="#ff8585" fill-rule="nonzero" stroke="none" stroke-width="1.5" stroke-linecap="butt" stroke-linejoin="miter"/><g fill-rule="nonzero" stroke-width="0.90232" stroke-linejoin="miter"><path d="M230.29535,183.62386v0v0v0v0v0v0c-0.01142,-0.01983 -0.345,-0.57696 -0.345,-0.5772c-0.92523,-1.48523 -1.1303,-4.84432 -1.04988,-5.89269l0.00712,-0.05022c0.26286,-4.44366 2.32938,-6.8154 3.54982,-8.07067c2.77011,-2.85108 6.96895,-2.96705 6.96895,-2.96705l0.14877,2.8845c0,0 -0.00798,-0.8296 1.68121,-2.27992c1.68877,-1.45032 4.18611,-1.23845 4.18611,-1.23845l-1.32521,3.61471c0,0 0.78119,-1.12595 1.42139,-1.53742c1.13503,-0.72827 2.09476,-0.41531 2.09476,-0.41531l-0.26456,2.24198c0,0 1.6892,2.18983 2.98205,4.24753c0.27667,0.43903 0.5973,0.88347 0.80062,1.3947c0.73938,1.85749 0.8461,5.16808 0.01725,6.80787c-0.14316,0.29012 -0.29905,0.57183 -0.46078,0.84878c-0.04205,0.07113 -0.08431,0.14182 -0.12722,0.21166c-0.14813,0.24356 -0.30273,0.48235 -0.46532,0.71384c-0.02198,0.03082 -0.04205,0.06358 -0.06403,0.09442c-0.18437,0.25756 -0.37885,0.50562 -0.58112,0.74681c-0.04828,0.0582 -0.09918,0.11444 -0.14856,0.17221c-0.17336,0.19916 -0.35298,0.39271 -0.53733,0.57892c-0.04248,0.04356 -0.08388,0.08773 -0.12679,0.12976c-0.22188,0.21684 -0.45301,0.42353 -0.69107,0.62095c-0.05304,0.04334 -0.10737,0.08472 -0.16087,0.12718c-0.19988,0.1595 -0.40645,0.31188 -0.61774,0.45715c-0.06102,0.04138 -0.12053,0.08491 -0.18198,0.12543c-0.2581,0.16963 -0.52246,0.32892 -0.79545,0.47611c-0.04872,0.02652 -0.10046,0.04979 -0.14985,0.07545c-0.23331,0.12135 -0.47201,0.23299 -0.71587,0.33644c-1.03155,0.43732 -2.1517,0.72203 -3.35446,0.80869c-1.37459,0.09894 -2.61897,0.05732 -3.74301,-0.08923c-0.27794,-0.03622 -0.54832,-0.07954 -0.81161,-0.12804c-0.05003,-0.01013 -0.09985,-0.01983 -0.14942,-0.02953c-0.26695,-0.05259 -0.52894,-0.10904 -0.78035,-0.1735c-0.00151,-0.00043 -0.00344,-0.00086 -0.00516,-0.00129c-0.25187,-0.06379 -0.49401,-0.13535 -0.73054,-0.21123c-0.04141,-0.01314 -0.08388,-0.02628 -0.12508,-0.03966c-0.22726,-0.07435 -0.44871,-0.15389 -0.66216,-0.23815c-0.03753,-0.01421 -0.07375,-0.03039 -0.11105,-0.04503c-0.21068,-0.08494 -0.41615,-0.17331 -0.61323,-0.26685c-0.00755,-0.0043 -0.01596,-0.00712 -0.02329,-0.01099c-0.20181,-0.09655 -0.39459,-0.19742 -0.58196,-0.30068c-0.03495,-0.01938 -0.06967,-0.03835 -0.10371,-0.05775c-0.18026,-0.10238 -0.35494,-0.20693 -0.52139,-0.31468c-0.02544,-0.01618 -0.0496,-0.033 -0.07483,-0.04936c-0.15805,-0.10431 -0.31093,-0.2108 -0.45712,-0.31943c-0.01508,-0.01035 -0.03168,-0.02134 -0.04614,-0.03276c-0.15246,-0.11444 -0.29647,-0.23148 -0.43533,-0.34937c-0.02698,-0.02265 -0.05349,-0.04549 -0.07937,-0.06812c-0.1354,-0.1179 -0.26563,-0.236 -0.38812,-0.35692c-0.014,-0.01317 -0.02674,-0.02717 -0.04052,-0.04052c-0.11537,-0.11489 -0.22489,-0.23063 -0.3284,-0.34639c-0.01445,-0.01679 -0.03084,-0.03319 -0.04551,-0.04955c-0.10608,-0.12178 -0.3353,-0.41061 -0.35298,-0.43366c-0.09227,-0.12199 -0.18026,-0.24377 -0.25982,-0.3649c-0.00495,-0.00755 -0.0097,-0.0151 -0.01421,-0.02262c-0.07633,-0.11662 -0.14576,-0.23148 -0.21068,-0.34595z" fill="#9a8479" stroke="#000000" stroke-linecap="butt"/><path d="M246.6023,177.14104v0v0v0v0v0v0c0,0 2.51201,2.83987 1.73576,5.7858c-0.77581,2.94505 -5.41213,4.19277 -8.97445,3.96883c-4.70921,-0.29636 -6.89242,-3.10089 -6.11747,-5.77739c0.77603,-2.6765 7.01057,-3.92767 7.01057,-3.92767l-1.02379,1.92298c0,0 0.80644,-0.12457 1.45783,-0.49702c0.65119,-0.37178 1.36534,-0.86773 1.36534,-0.86773l-1.49168,2.1133c0,0 1.97014,-0.02112 3.67616,-0.70393c1.70602,-0.68195 2.36173,-2.01718 2.36173,-2.01718z" fill="#e6e7e8" stroke="#000000" stroke-linecap="butt"/><g stroke="#000000"><path d="M249.8166,175.60557c0,0 4.04335,-2.27108 4.96751,-0.33988c0.92418,1.93118 -0.72901,4.1943 -4.17898,6.24187c0,0 0.07612,-3.36212 -0.78853,-5.90199v0v0zM249.8166,175.60557c-0.07225,-0.29721 -0.31095,-0.86558 -0.31095,-0.86558M250.51544,182.03107l0.04334,-0.54378" fill="#9a8479" stroke-linecap="round"/><path d="M250.55878,181.48708c0.02241,-0.62269 0.02155,-1.64798 -0.11881,-2.92825c-0.08087,-0.74511 -0.2372,-1.51371 -0.39761,-2.17754l0.00043,0.00086c2.36839,-0.60286 4.47634,1.5861 4.47634,1.5861h0.00086c-1.18377,1.96503 -3.94224,3.4645 -3.94224,3.4645l-0.01897,0.05433v0v0z" fill="#ee4036" stroke-linecap="butt"/></g><g stroke="#000000"><path d="M230.83979,182.9887c-3.35832,-1.33631 -5.17042,-3.14334 -4.66284,-5.04158c0.5078,-1.89842 4.42352,-0.44917 4.42352,-0.44917c-0.35902,2.44286 0.23933,5.49074 0.23933,5.49074v0v0v0v0v0v0zM230.73736,176.66299c0,0 -0.12032,0.55326 -0.13668,0.83497M230.87732,182.96282l0.12419,0.4884" fill="#9a8479" stroke-linecap="round"/><path d="M230.85209,182.9165c0,0 -2.6636,-0.94339 -4.01556,-2.55042l0.00064,-0.00021c0,0 1.50829,-2.31353 3.68696,-2.12668l0.00021,-0.00064c-0.03622,0.62828 -0.05218,1.35161 -0.0054,2.04176c0.07891,1.18651 0.24021,2.11956 0.35837,2.68252l-0.02523,-0.04633v0v0v0v0v0v0z" fill="#ee4036" stroke-linecap="butt"/></g><path d="M243.8585,181.77546c-0.15632,0 -0.29303,-0.11315 -0.31891,-0.27244c-0.02826,-0.1763 0.09184,-0.34227 0.26823,-0.37049c0.16041,-0.02523 1.58223,-0.24702 2.10621,-0.18191c0.17725,0.02241 0.30317,0.18406 0.28183,0.36036c-0.02243,0.17761 -0.18653,0.30089 -0.36095,0.28171c-0.32968,-0.04009 -1.35433,0.08752 -1.92508,0.17804c-0.01725,0.00344 -0.0345,0.00473 -0.05132,0.00473v0v0v0v0v0v0v0z" fill="#231f20" stroke="none" stroke-linecap="butt"/><path d="M238.61733,181.84443c-0.02026,0 -0.04076,-0.00215 -0.06188,-0.00583c-0.74671,-0.1444 -2.05985,0.00261 -2.07278,0.00389c-0.17446,0.0194 -0.33726,-0.10648 -0.35794,-0.28407c-0.02026,-0.17718 0.10694,-0.33754 0.28462,-0.35781c0.05823,-0.0058 1.42419,-0.15904 2.269,0.00389c0.17508,0.03361 0.29024,0.20325 0.25617,0.37933c-0.02999,0.15324 -0.16559,0.26059 -0.31719,0.26059v0v0v0v0v0v0v0z" fill="#231f20" stroke="none" stroke-linecap="butt"/><path d="M244.07563,183.28763c0,0 -0.87263,1.1766 -2.82662,1.1766c-1.95354,0 -2.47664,-0.77333 -2.47664,-0.77333" fill="none" stroke="#231f20" stroke-linecap="round"/></g><g fill="#000000" fill-rule="evenodd" stroke="none" stroke-width="1" stroke-linecap="round" stroke-linejoin="round"><path d="M215.75453,147.43887c6.59439,0.00656 33.43594,0.03324 47.00157,0.04672c4.79288,0.00476 7.91594,3.09165 7.90343,6.14998c-0.0285,6.96813 -0.14338,35.06052 -0.19427,47.50306c-0.01502,3.67263 -2.47757,5.98569 -6.36553,5.99187c-13.18851,0.02097 -42.8874,0.06818 -49.35265,0.07846c-2.43679,0.00387 -4.71814,-2.66254 -4.71707,-5.40581c0.00268,-6.8812 0.01442,-36.93038 0.01919,-49.16203c0.00126,-3.2222 2.82972,-5.20512 5.70533,-5.20226z" data-paper-data="{&quot;origRot&quot;:0,&quot;index&quot;:null}" opacity="0.42445"/><path d="M215.62996,147.24515c6.59439,0.00655 33.43594,0.03324 47.00157,0.04673c4.79287,0.00476 7.91594,3.09165 7.90343,6.14998c-0.0285,6.96812 -0.14338,35.06052 -0.19427,47.50306c-0.01502,3.67264 -2.47757,5.98569 -6.36554,5.99187c-13.18851,0.02096 -42.88739,0.06818 -49.35265,0.07846c-2.43679,0.00387 -4.71814,-2.66254 -4.71707,-5.40581c0.00269,-6.8812 0.01442,-36.93038 0.01919,-49.16202c0.00126,-3.22221 2.82972,-5.20513 5.70533,-5.20227z" data-paper-data="{&quot;origRot&quot;:0,&quot;index&quot;:null}" opacity="0.42445"/><path d="M215.69801,147.43281c6.59439,0.0066 33.43594,0.03348 47.00157,0.04706c4.79287,0.0048 7.91594,3.11399 7.90343,6.19444c-0.0285,7.0185 -0.14338,35.31396 -0.19427,47.84645c-0.01502,3.69918 -2.47757,6.02896 -6.36554,6.03519c-13.18851,0.02112 -42.8874,0.06867 -49.35265,0.07903c-2.43679,0.0039 -4.71814,-2.68179 -4.71707,-5.44489c0.00269,-6.93095 0.01442,-37.19735 0.01919,-49.51741c0.00126,-3.2455 2.82972,-5.24275 5.70533,-5.23987z" data-paper-data="{&quot;origRot&quot;:0,&quot;index&quot;:null}" opacity="0.42445"/></g><path d="M216.22311,205.83289c0.08847,-4.6005 4.04058,-8.05913 7.98013,-8.05913c5.79891,0 22.44949,0 32.71065,0c4.9794,0 8.13815,3.24293 8.13815,7.90112c0,4.6582 -3.15609,8.5332 -8.13815,8.5332c-10.36204,0 -27.25579,0 -33.0267,0c-3.82167,0 -7.75257,-3.7747 -7.66408,-8.3752z" fill="#e63c3c" fill-rule="nonzero" stroke="none" stroke-width="0.5" stroke-linecap="butt" stroke-linejoin="miter"/><text transform="translate(240.14225,210.50646) scale(0.31367,0.31367)" font-size="40" xml:space="preserve" fill="#ffffff" fill-rule="nonzero" stroke="none" stroke-width="1" stroke-linecap="butt" stroke-linejoin="miter" stroke-miterlimit="10" stroke-dasharray="" stroke-dashoffset="0" font-family="Sans Serif" font-weight="normal" text-anchor="start" style="mix-blend-mode: normal"><tspan x="0" dy="0">10</tspan></text><text transform="translate(227.50576,185.16901) scale(0.625,0.625)" font-size="40" xml:space="preserve" fill="#9966ff" fill-rule="nonzero" stroke="none" stroke-width="1" stroke-linecap="butt" stroke-linejoin="miter" stroke-miterlimit="10" stroke-dasharray="" stroke-dashoffset="0" font-family="Sans Serif" font-weight="normal" text-anchor="start" style="mix-blend-mode: normal"><tspan x="0" dy="0">🔒</tspan></text><g fill-rule="evenodd" stroke-linecap="butt" stroke-linejoin="round"><path d="M226.63361,204.37464l2.94421,-0.67505l1.38109,-2.46532l1.60611,2.60034l2.71919,0.54004l-2.04314,2.30089l0.39102,2.78034l-2.62818,-0.90577l-2.71819,0.90577l0.43602,-3.00537z" fill="url(#color-1)" stroke="url(#color-2)" stroke-width="6.5"/><path d="M226.63361,204.37464l2.94421,-0.67505l1.38109,-2.46532l1.60611,2.60034l2.71919,0.54004l-2.04314,2.30089l0.39102,2.78034l-2.62818,-0.90577l-2.71819,0.90577l0.43602,-3.00537z" fill="url(#color-3)" stroke="#fff0a6" stroke-width="4"/><path d="M227.46624,204.66229l2.38209,-0.54617l1.11741,-1.99464l1.29947,2.10388l2.20004,0.43693l-1.65306,1.8616l0.31636,2.24952l-2.1264,-0.73284l-2.19922,0.73284l0.35278,-2.43158z" fill="#f2cc41" stroke="#f2cc41" stroke-width="2.5"/></g></g></g></svg>