<svg version="1.1" xmlns="http://www.w3.org/2000/svg" xmlns:xlink="http://www.w3.org/1999/xlink" width="93.26315" height="93.26312" viewBox="0,0,93.26315,93.26312"><defs><radialGradient cx="239.97095" cy="180.9046" r="61.67558" gradientUnits="userSpaceOnUse" id="color-1"><stop offset="0" stop-color="#ffffff"/><stop offset="1" stop-color="#ffffff" stop-opacity="0"/></radialGradient></defs><g transform="translate(-193.36843,-133.36844)"><g data-paper-data="{&quot;isPaintingLayer&quot;:true}" fill-rule="nonzero" stroke-linejoin="miter" stroke-miterlimit="10" stroke-dasharray="" stroke-dashoffset="0" style="mix-blend-mode: normal"><path d="M261.99381,138.88117c11.34447,6.06796 19.15973,16.17386 22.6213,27.59913c3.46265,11.42487 2.57171,24.16907 -3.49626,35.51353c-6.06797,11.34447 -16.17395,19.1597 -27.59913,22.6213c-11.42487,3.46265 -24.16902,2.57163 -35.51349,-3.49633c-11.34447,-6.06796 -19.15972,-16.17386 -22.62135,-27.59905c-3.46265,-11.42487 -2.57171,-24.16906 3.49626,-35.51353c6.06796,-11.34447 16.17395,-19.1597 27.59913,-22.6213c11.42489,-3.46269 24.16907,-2.57171 35.51353,3.49625z" fill="url(#color-1)" stroke="none" stroke-width="1.07468" stroke-linecap="butt"/><g><path d="M239.72453,141.24843c10.69108,-0.07601 20.41056,4.1967 27.47485,11.16268c7.06577,6.96454 11.4762,16.62224 11.55223,27.31332c0.07601,10.69108 -4.19675,20.4106 -11.16273,27.4749c-6.96449,7.06567 -16.62224,11.4762 -27.31332,11.55223c-10.69108,0.07601 -20.4106,-4.19674 -27.47485,-11.16268c-7.06577,-6.96454 -11.47629,-16.62226 -11.55228,-27.31337c-0.07599,-10.69115 4.19674,-20.41061 11.16272,-27.4749c6.96448,-7.06567 16.62225,-11.4762 27.31342,-11.55221z" fill="#b1462e" stroke="#ffd008" stroke-width="3.8061" stroke-linecap="butt"/><g stroke="none"><path d="M230.27844,158.99516c0.07247,3.13207 -4.62893,4.54257 -5.41541,7.51027c-0.59669,2.12849 2.7985,4.90089 1.64886,6.36766c-1.12617,1.42855 -4.33494,-0.34293 -6.47709,-0.58043c-2.75974,-0.24611 -5.84539,0.61807 -8.04631,-0.86132c-2.42855,-1.55031 -5.6129,-4.71753 -4.44592,-7.26012c1.63646,-3.56063 6.82733,-3.85358 10.20744,-5.70059c2.19842,-1.27572 4.1123,-3.81849 6.54493,-3.67906c2.43213,0.14183 5.92341,1.77557 5.9835,4.20365z" fill="#ffa105" stroke-width="2.23487" stroke-linecap="round"/><path d="M228.663,160.24058c0.57005,1.40238 -1.39672,2.5112 -1.97623,3.81576c-0.61357,1.40698 -0.96962,2.96774 -1.9108,4.17083c-1.07064,1.36943 -2.25291,2.99295 -3.89847,3.54621c-2.42282,0.71858 -5.32482,1.19591 -7.55668,0.03554c-2.09545,-1.08937 -4.88702,-3.88244 -3.7775,-5.94856c1.77357,-3.27464 6.51726,-3.6078 9.85216,-5.30529c1.83512,-0.93479 3.55115,-2.58266 5.61245,-2.61406c1.42117,-0.02209 3.12499,0.97439 3.65509,2.29959z" fill="#ff770d" stroke-width="2.12111" stroke-linecap="butt"/></g><g stroke="none"><path d="M255.14835,154.83739c2.43039,-0.17404 4.38035,2.34125 6.59664,3.5856c3.40602,1.79877 8.60057,2.0179 10.28744,5.55489c1.20301,2.52574 -1.93597,5.73796 -4.34218,7.32262c-2.17973,1.5105 -5.27729,0.69032 -8.03332,0.97567c-2.13849,0.26791 -5.32175,2.08483 -6.46811,0.67251c-1.1704,-1.45031 2.18508,-4.27076 1.5582,-6.39051c-0.82871,-2.95618 -5.54967,-4.29971 -5.52171,-7.43247c0.02558,-2.42869 3.49322,-4.1119 5.92307,-4.28829z" fill="#ffa105" stroke-width="2.23487" stroke-linecap="round"/><path d="M254.63618,157.7298c2.06143,0.00218 3.8008,1.62542 5.64905,2.53399c3.35863,1.64996 8.10662,1.91567 9.92663,5.16472c1.13876,2.05013 -1.61284,4.88252 -3.69254,6.00169c-2.21517,1.19199 -5.12372,0.75598 -7.55647,0.0719c-1.65326,-0.52984 -2.85852,-2.1364 -3.94845,-3.49042c-0.95821,-1.18962 -1.33649,-2.7451 -1.96992,-4.14327c-0.59806,-1.29612 -2.58042,-2.3769 -2.03032,-3.78726c0.51115,-1.33268 2.20065,-2.35323 3.62203,-2.35137z" fill="#ff770d" stroke-width="2.12111" stroke-linecap="butt"/></g><path d="M240.63115,195.69392c6.00055,-0.42702 11.9183,-4.54298 17.77975,-3.1944c2.60555,0.59994 2.42702,5.01099 2.07222,7.57448c-0.31915,2.3485 -1.84072,4.78145 -3.91456,5.84088c-4.84274,2.47272 -10.27913,4.11962 -15.63344,4.148c-5.49111,0.07454 -10.97557,-1.63202 -15.93235,-3.84284c-1.90808,-0.82927 -3.4089,-2.74504 -3.9904,-4.81583c-0.57797,-2.02884 -1.3353,-5.6695 0.76255,-6.30286c6.01333,-1.8125 12.53938,1.04113 18.8562,0.59255z" fill="#3c20ff" stroke="none" stroke-width="2.12111" stroke-linecap="round"/><path d="M239.92888,160.73187c6.47626,-0.06696 14.16356,-0.12491 19.00255,4.14399c4.46808,4.10028 4.90612,11.42646 5.04928,17.48392c0.13848,5.85397 0.08886,12.95427 -4.15888,16.90348c-4.89794,4.70143 -12.83325,5.52966 -19.57949,5.54858c-6.82857,0.0195 -14.77131,-0.64096 -19.81795,-5.26845c-4.28594,-3.92724 -4.64868,-11.11023 -4.56022,-16.84153c0.09294,-5.99938 0.21174,-13.36502 4.72048,-17.39191c4.82837,-4.49744 12.66617,-4.50796 19.34421,-4.57808z" fill="#ffd008" stroke="none" stroke-width="2.12111" stroke-linecap="butt"/><path d="M240.37811,165.58202c4.11919,0.00627 8.33363,0.00858 12.35954,0.9617c1.81155,0.42792 3.67498,1.57081 4.62412,3.11584c1.33627,2.17849 2.78353,4.9584 1.99036,7.41362c-0.93021,2.93409 -3.69282,5.237 -6.49227,6.66657c-3.68272,1.87991 -7.95664,2.82098 -12.09034,2.83095c-4.08311,0.07589 -8.3133,-0.77244 -11.9673,-2.57918c-3.00105,-1.48356 -5.74459,-3.996 -7.31592,-6.97204c-0.87572,-1.66019 -0.29744,-4.13487 0.8479,-5.65765c1.70356,-2.26462 4.42754,-3.87132 7.15188,-4.73355c3.45415,-1.10477 7.23976,-1.01224 10.89203,-1.04628z" fill="#ffa105" stroke="none" stroke-width="2.12111" stroke-linecap="round"/><path d="M240.55987,173.37034c2.89152,-0.06257 6.03905,0.22183 8.57026,1.71523c1.76347,0.93531 3.15995,2.94701 3.34588,5.02222c0.15779,1.74929 -0.97099,3.78376 -2.46964,4.65991c-2.70075,1.46758 -6.01392,1.72533 -9.03005,1.75968c-3.08874,0.03487 -6.41461,-0.13205 -9.13478,-1.6305c-1.53974,-0.8013 -2.47163,-2.88083 -2.455,-4.62488c0.01834,-1.96847 0.92495,-4.12574 2.54754,-5.06414c2.49465,-1.60504 5.69062,-1.77473 8.6258,-1.83751z" fill="#ff770d" stroke="none" stroke-width="2.12111" stroke-linecap="round"/><path d="M229.16788,167.97968c2.20559,-0.01567 4.20931,0.86624 5.66631,2.3027c1.45703,1.43639 2.36733,3.42738 2.38303,5.63295c0.01566,2.20564 -0.86624,4.20931 -2.30263,5.66636c-1.43649,1.45699 -3.42744,2.36731 -5.63306,2.38306c-2.20559,0.01567 -4.20926,-0.86631 -5.66632,-2.3027c-1.45699,-1.43649 -2.36733,-3.42738 -2.38299,-5.63301c-0.01567,-2.20559 0.86624,-4.20931 2.30263,-5.66637c1.43649,-1.45699 3.42745,-2.36731 5.63302,-2.38298z" fill="#ffffff" stroke="none" stroke-width="2.12111" stroke-linecap="butt"/><path d="M251.23275,168.12722c2.20559,-0.01567 4.20931,0.86623 5.66632,2.3027c1.45703,1.43639 2.36733,3.42738 2.38303,5.63295c0.01565,2.20564 -0.86624,4.20931 -2.30263,5.66636c-1.43649,1.45699 -3.42744,2.36731 -5.63306,2.38306c-2.20559,0.01567 -4.20926,-0.86631 -5.66631,-2.3027c-1.45699,-1.43649 -2.36733,-3.42738 -2.38298,-5.63301c-0.01567,-2.20559 0.86624,-4.20931 2.30263,-5.66636c1.43649,-1.45699 3.42745,-2.36731 5.63302,-2.38298z" fill="#ffffff" stroke="none" stroke-width="2.12111" stroke-linecap="butt"/><path d="M226.99862,178.159c1.3096,-0.00285 2.69154,0.41526 3.72292,1.26537c0.8575,0.69305 1.44188,1.80304 1.6353,2.89482c0.21867,1.23055 0.49811,2.83521 -0.37784,3.63581c-1.31753,1.14455 -3.34828,1.23168 -5.03776,1.16617c-1.24363,-0.04767 -2.57278,-0.52915 -3.46224,-1.40765c-0.89113,-0.87697 -1.38499,-2.19911 -1.45677,-3.44198c-0.05724,-1.00874 0.35853,-2.25828 1.19004,-2.95535c1.0018,-0.8193 2.42519,-1.15398 3.78635,-1.15721z" fill="#ffd008" stroke="none" stroke-width="2.12111" stroke-linecap="round"/><path d="M256.5836,179.52082c0.84132,0.68509 1.27484,1.92859 1.23197,2.93808c-0.05411,1.24373 -0.52909,2.57282 -1.4076,3.46233c-0.87695,0.89109 -2.19906,1.39138 -3.44198,1.45677c-1.68839,0.08945 -3.7201,0.03126 -5.05381,-1.09444c-0.88721,-0.78812 -0.63063,-2.39664 -0.42948,-3.6301c0.17792,-1.09439 0.7464,-2.21261 1.59395,-2.91784c1.01925,-0.86467 2.39507,-1.30235 3.70452,-1.31814c1.36116,-0.01613 2.78917,0.29827 3.80244,1.10332z" fill="#ffd008" stroke="none" stroke-width="2.12111" stroke-linecap="round"/><path d="M235.27408,162.14595c0.92353,-0.00655 1.76423,0.36369 2.37564,0.96484c0.60982,0.60288 0.99196,1.43819 0.99859,2.36172c0.00653,0.9236 -0.36373,1.7643 -0.96493,2.37569c-0.60277,0.60979 -1.43812,0.99201 -2.3617,0.99854c-0.92353,0.00655 -1.76423,-0.36369 -2.37564,-0.96484c-0.60982,-0.60288 -0.99196,-1.4382 -0.99855,-2.3617c-0.00661,-0.92365 0.36374,-1.7643 0.96487,-2.37574c0.60277,-0.60979 1.43812,-0.99202 2.3617,-0.99855z" fill="#ffa105" stroke="none" stroke-width="2.12111" stroke-linecap="butt"/><path d="M226.13488,186.18447c4.8764,0.03271 9.66728,1.24923 14.46532,1.22752c4.8989,-0.04727 9.71634,-1.33206 14.53511,-1.43368c1.20596,-0.02634 3.22801,-0.04782 3.28891,1.04092c0.14917,2.76786 -1.20964,5.50033 -2.60441,7.91198c-1.41693,2.29655 -3.26364,4.52337 -5.63432,5.89361c-2.9291,1.67404 -6.42483,2.73836 -9.73662,2.72995c-3.45899,-0.00907 -6.94935,-1.18158 -10.04176,-2.76664c-2.21037,-1.27561 -4.02192,-3.3435 -5.36089,-5.54941c-1.44663,-2.38263 -2.98145,-5.19384 -2.62866,-7.96353c0.16466,-1.28897 2.42761,-1.09933 3.7173,-1.09076z" fill="#9f4610" stroke="none" stroke-width="2.33008" stroke-linecap="round"/><path d="M246.09462,162.49484c0.92353,-0.00655 1.76423,0.36369 2.37564,0.96483c0.60982,0.60288 0.99196,1.4382 0.99859,2.36173c0.00653,0.9236 -0.36373,1.7643 -0.96493,2.37569c-0.60277,0.60979 -1.43812,0.99202 -2.3617,0.99855c-0.92353,0.00655 -1.76423,-0.36369 -2.37564,-0.96484c-0.60982,-0.60288 -0.99196,-1.43819 -0.99855,-2.3617c-0.00661,-0.92365 0.36374,-1.76431 0.96487,-2.37574c0.60277,-0.60979 1.43812,-0.99202 2.3617,-0.99855z" fill="#ffa105" stroke="none" stroke-width="2.12111" stroke-linecap="butt"/><g stroke="none" stroke-linecap="butt"><path d="M231.76084,171.92331c0.98073,-0.00696 1.8716,0.38521 2.51862,1.02308c0.64706,0.63799 1.05182,1.5232 1.05878,2.50393c0.00698,0.98066 -0.38513,1.87162 -1.02308,2.51862c-0.63792,0.64709 -1.52311,1.05185 -2.50386,1.05881c-0.98073,0.00696 -1.87162,-0.38513 -2.51862,-1.02308c-0.64709,-0.63792 -1.05185,-1.52311 -1.05881,-2.50386c-0.00696,-0.98073 0.38514,-1.87163 1.02308,-2.51862c0.63792,-0.64709 1.52312,-1.05185 2.50389,-1.05888z" fill="#000000" stroke-width="2.02888"/><path d="M231.24938,171.30751c0.48927,-0.00342 0.93467,0.192 1.2599,0.51101c0.32359,0.32065 0.5254,0.76326 0.52885,1.25251c0.00351,0.48923 -0.19192,0.9347 -0.51101,1.2599c-0.32065,0.32359 -0.76322,0.52535 -1.25247,0.52887c-0.48927,0.00342 -0.93472,-0.19204 -1.25991,-0.511c-0.32359,-0.32065 -0.5254,-0.76327 -0.52884,-1.25252c-0.00351,-0.48923 0.19193,-0.9347 0.51101,-1.25991c0.32065,-0.32359 0.76322,-0.52535 1.25247,-0.52886z" fill="#ffffff" stroke-width="2.12111"/></g><g stroke="none" stroke-linecap="butt"><path d="M250.43122,173.12799c0.64709,0.63792 1.05185,1.52311 1.05881,2.50386c0.00696,0.98073 -0.38514,1.87163 -1.02313,2.51869c-0.63789,0.64704 -1.52311,1.05185 -2.50386,1.05881c-0.98073,0.00696 -1.8716,-0.38521 -2.51869,-1.02313c-0.647,-0.63795 -1.05175,-1.52316 -1.05881,-2.50386c-0.00696,-0.98073 0.38526,-1.87167 1.02313,-2.51869c0.63799,-0.64706 1.5232,-1.05182 2.50386,-1.05881c0.98073,-0.00696 1.87169,0.38519 2.51869,1.02313z" fill="#000000" stroke-width="2.02888"/><path d="M249.92537,172.26621c0.32359,0.32065 0.5254,0.76326 0.52884,1.25251c0.00351,0.48923 -0.19193,0.9347 -0.51096,1.25986c-0.32065,0.32359 -0.76326,0.5254 -1.25247,0.52887c-0.48929,0.00349 -0.9347,-0.19192 -1.2599,-0.511c-0.32359,-0.32065 -0.5254,-0.76327 -0.52887,-1.25247c-0.00349,-0.48929 0.19192,-0.93469 0.511,-1.2599c0.32065,-0.32359 0.76322,-0.52536 1.25247,-0.52887c0.48927,-0.00342 0.93467,0.192 1.2599,0.51101z" fill="#ffffff" stroke-width="2.12111"/></g><path d="M226.03759,187.74863c4.79454,-0.17725 9.69315,-0.15292 14.54314,-0.18121c4.7131,-0.03658 9.39733,-0.1835 14.07705,-0.10005c1.18242,0.03202 1.61162,-0.21366 1.5582,0.3778c-0.26615,2.37564 -1.06078,4.8235 -2.28394,6.9384c-1.24254,2.01396 -2.86207,3.96683 -4.94101,5.16849c-2.56874,1.46803 -5.6343,2.4014 -8.53853,2.39406c-3.0334,-0.00805 -6.09428,-1.03628 -8.80615,-2.42631c-1.9384,-1.11866 -3.52704,-2.932 -4.70124,-4.86651c-1.26864,-2.08946 -1.96286,-4.55784 -2.3052,-6.98365c-0.03387,-0.60792 0.19868,-0.27671 1.39768,-0.32101z" fill="#5b2809" stroke="none" stroke-width="2.04337" stroke-linecap="round"/><path d="M240.18654,182.04749c1.08012,-0.00767 2.06108,0.20675 2.7729,0.55996c0.71004,0.35502 1.1528,0.84695 1.1567,1.39249c0.00385,0.54542 -0.43184,1.0436 -1.13681,1.40869c-0.70676,0.36326 -1.68447,0.59167 -2.76468,0.59937c-1.08012,0.00767 -2.06103,-0.20682 -2.77287,-0.56003c-0.71004,-0.35502 -1.1528,-0.84695 -1.15667,-1.3924c-0.00392,-0.54547 0.43183,-1.04368 1.13674,-1.40874c0.70676,-0.36326 1.68456,-0.5917 2.76468,-0.59937z" fill="#5b2809" stroke="none" stroke-width="2.36491" stroke-linecap="butt"/><path d="M237.64224,184.06444c0.95752,-0.00687 1.8279,0.23077 2.45883,0.62194c0.63087,0.38951 1.02393,0.93246 1.02814,1.53306c0.00428,0.60063 -0.38098,1.14919 -1.00624,1.54761c-0.6253,0.40013 -1.49228,0.65008 -2.44971,0.6569c-0.9575,0.0068 -1.82794,-0.23088 -2.45883,-0.62193c-0.63086,-0.38951 -1.02391,-0.93254 -1.02819,-1.53319c-0.00428,-0.60063 0.38098,-1.14919 1.00624,-1.54761c0.62533,-0.40003 1.49225,-0.65001 2.44975,-0.6568z" fill="#ffffff" stroke="none" stroke-width="2.12111" stroke-linecap="butt"/><path d="M242.46047,184.09489c0.95752,-0.00687 1.8279,0.23076 2.45883,0.62193c0.63087,0.38951 1.02393,0.93246 1.02814,1.53307c0.00428,0.60063 -0.38098,1.14919 -1.00624,1.5476c-0.6253,0.40013 -1.49229,0.65008 -2.44971,0.6569c-0.9575,0.0068 -1.82794,-0.23088 -2.45883,-0.62193c-0.63086,-0.38951 -1.02391,-0.93254 -1.02818,-1.53319c-0.00428,-0.60063 0.38098,-1.14919 1.00624,-1.5476c0.62533,-0.40003 1.49225,-0.65001 2.44975,-0.6568z" fill="#ffffff" stroke="none" stroke-width="2.12111" stroke-linecap="butt"/><g stroke="none" stroke-width="2.04595" stroke-linecap="round"><path d="M240.38303,193.72367c1.84853,-0.02763 3.84669,1.19664 5.00106,2.79023c1.26178,1.74143 1.62095,4.21266 1.76862,6.44638c0.06143,1.89683 0.07041,4.21071 -1.15878,5.57907c-1.36446,1.51943 -3.64386,2.04754 -5.60332,2.05823c-1.90286,-0.03976 -4.03917,-0.67206 -5.33351,-2.14196c-1.22938,-1.39605 -1.38489,-3.67175 -1.38781,-5.56095c0.10435,-2.1774 0.47374,-4.57628 1.67856,-6.22866c1.17791,-1.61663 3.12674,-2.91257 5.03514,-2.94235z" fill="#73265b"/><path d="M240.35417,191.67946c1.84853,-0.02763 3.84669,1.19665 5.00106,2.79024c1.26178,1.74143 1.62095,4.21266 1.76862,6.44638c0.06143,1.89683 0.07041,4.21071 -1.15878,5.57907c-1.36446,1.51943 -3.64387,2.04754 -5.60333,2.05823c-1.90286,-0.03976 -4.03916,-0.67206 -5.33351,-2.14196c-1.22938,-1.39605 -1.3849,-3.67175 -1.38782,-5.56095c0.10435,-2.1774 0.47374,-4.57627 1.67856,-6.22865c1.17791,-1.61663 3.12675,-2.91257 5.03515,-2.94236z" fill="#bd3f95"/></g></g></g></g></svg>