<svg version="1.1" xmlns="http://www.w3.org/2000/svg" xmlns:xlink="http://www.w3.org/1999/xlink" width="32.083" height="31.235" viewBox="0,0,32.083,31.235"><g transform="translate(-223.9585,-164.3825)"><g data-paper-data="{&quot;isPaintingLayer&quot;:true}" fill="#ffffff" fill-rule="nonzero" stroke="none" stroke-width="1" stroke-linecap="butt" stroke-linejoin="miter" stroke-miterlimit="10" stroke-dasharray="" stroke-dashoffset="0" style="mix-blend-mode: normal"><path d="M231.3645,172.8205c0,-0.563 0.203,-1.042 0.609,-1.438c0.417,-0.406 0.891,-0.609 1.422,-0.609c0.594,0 1.084,0.193 1.469,0.578c0.385,0.385 0.578,0.875 0.578,1.469v5.359h5.359c0.563,0 1.047,0.203 1.454,0.609c0.416,0.396 0.625,0.886 0.625,1.469c0,0.563 -0.209,1.047 -0.625,1.453c-0.407,0.396 -0.891,0.594 -1.454,0.594h-5.359v5.359c0,0.584 -0.193,1.068 -0.578,1.454c-0.385,0.385 -0.875,0.578 -1.469,0.578c-0.583,0 -1.068,-0.193 -1.453,-0.578c-0.385,-0.386 -0.578,-0.87 -0.578,-1.454v-5.359h-5.359c-0.584,0 -1.073,-0.198 -1.469,-0.594c-0.386,-0.406 -0.578,-0.906 -0.578,-1.5c0,-0.583 0.192,-1.067 0.578,-1.453c0.396,-0.385 0.885,-0.578 1.469,-0.578h5.359zM249.0415,170.4135c-0.448,0.188 -0.875,0.282 -1.281,0.282c-0.584,0 -1.068,-0.188 -1.454,-0.563c-0.385,-0.375 -0.578,-0.854 -0.578,-1.437c0,-0.448 0.104,-0.839 0.313,-1.172c0.219,-0.333 0.552,-0.583 1,-0.75l6.234,-2.235c0.323,-0.104 0.578,-0.156 0.766,-0.156c0.583,0 1.062,0.193 1.437,0.578c0.375,0.386 0.563,0.886 0.563,1.5v27.11c0,0.562 -0.203,1.047 -0.61,1.453c-0.395,0.396 -0.885,0.594 -1.468,0.594c-0.532,0 -1,-0.198 -1.407,-0.594c-0.395,-0.406 -0.593,-0.891 -0.593,-1.453v-24.391z"/></g></g></svg>