<svg version="1.1" xmlns="http://www.w3.org/2000/svg" xmlns:xlink="http://www.w3.org/1999/xlink" width="60.75414" height="69.20976" viewBox="0,0,60.75414,69.20976"><defs><linearGradient x1="230.67604" y1="202.36576" x2="230.67604" y2="210.58737" gradientUnits="userSpaceOnUse" id="color-1"><stop offset="0" stop-color="#ffaa21"/><stop offset="1" stop-color="#ff8c14"/></linearGradient><linearGradient x1="230.67604" y1="202.36576" x2="230.67604" y2="210.58737" gradientUnits="userSpaceOnUse" id="color-2"><stop offset="0" stop-color="#ffaa21"/><stop offset="1" stop-color="#ff8c14"/></linearGradient><linearGradient x1="230.67604" y1="202.36576" x2="230.67604" y2="210.58737" gradientUnits="userSpaceOnUse" id="color-3"><stop offset="0" stop-color="#ffaa21"/><stop offset="1" stop-color="#ff8c14"/></linearGradient></defs><g transform="translate(-210.18791,-145.55021)"><g data-paper-data="{&quot;isPaintingLayer&quot;:true}" stroke-miterlimit="10" stroke-dasharray="" stroke-dashoffset="0" style="mix-blend-mode: normal"><g fill-rule="nonzero" stroke-width="1.5" stroke-linecap="butt" stroke-linejoin="miter"><path d="M220.97103,178.02258c0,-10.50941 8.51955,-19.02898 19.02897,-19.02898c10.50941,0 19.02897,8.51956 19.02897,19.02898c0,10.50941 -8.51956,19.02897 -19.02897,19.02897c-10.50941,0 -19.02897,-8.51955 -19.02897,-19.02897z" fill="#c75050" stroke="#000000"/><path d="M224.01865,177.27927c0,-9.19575 7.3215,-16.65034 16.35304,-16.65034c9.03153,0 16.35304,7.4546 16.35304,16.65034c0,9.19575 -7.32149,16.65035 -16.35304,16.65035c-9.03153,0 -16.35304,-7.45461 -16.35304,-16.65035z" fill="#ff6666" stroke="none"/><path d="M231.89723,174.60154c0,-6.32208 5.12505,-11.44713 11.44714,-11.44713c6.32208,0 11.44713,5.12505 11.44713,11.44713c0,6.32208 -5.12505,11.44714 -11.44713,11.44714c-6.32208,0 -11.44714,-5.12505 -11.44714,-11.44714z" fill="#ff8585" stroke="none"/></g><g fill-rule="nonzero"><path d="M239.97602,189.26144c0,-0.36092 0.10124,-0.87939 0.66128,-0.99642c0.80797,-0.1695 1.73243,0.64866 1.98386,0.88939c-0.01859,0.09579 0.29581,2.02859 0.29581,2.19616c0,0.56654 -0.1514,0.589 -0.21016,0.59831c-0.55321,0.08053 -2.02755,-1.46979 -2.70427,-2.37178c-0.00931,-0.04895 -0.0265,-0.15792 -0.0265,-0.31565v0z" fill="#ffc93e" stroke="#603813" stroke-width="1.32684" stroke-linecap="butt" stroke-linejoin="miter"/><path d="M237.73581,191.96973c-0.40106,-0.43514 -0.45827,-1.61434 -0.45827,-2.11596c0,-0.21285 0.01087,-0.35441 0.0114,-0.3588l0.00071,-0.0109c0,0 -0.00124,-0.04543 -0.00124,-0.06209c0,-0.94466 0.86973,-1.27257 1.01712,-1.32187c0.50355,0.00614 1.37398,0.24439 1.58171,0.60392c0.02105,0.03612 0.04071,0.08175 0.04071,0.14016c0,0.05125 -0.01526,0.11336 -0.05877,0.18827c-0.02018,0.03438 -0.37777,0.87939 -0.68024,1.52734l-0.21615,0.59918c-0.16178,0.52355 -0.41635,1.04746 -0.69341,1.04746c-0.21895,0.00035 -0.39671,-0.07721 -0.54356,-0.2367z" fill="#ffc93e" stroke="#603813" stroke-width="1.32684" stroke-linecap="butt" stroke-linejoin="miter"/><path d="M249.0791,185.1214l-0.39107,-0.69005c-0.42828,-0.74586 -0.92308,-1.42875 -1.35943,-2.02986c-0.56094,-0.77426 -1.04904,-1.57539 -1.21064,-2.14141c-0.05827,-0.20389 -0.03018,-0.39845 0.05369,-0.50601c0.00807,-0.02896 0.09265,-0.07509 0.15228,-0.08739c0.71867,-0.15527 3.6935,1.55259 4.43568,2.46549c1.08729,1.33697 1.52205,3.21241 1.27958,4.15704c-0.09949,0.386 -0.32196,0.65953 -0.64408,0.78973c-0.82342,0.33265 -1.36503,-0.26774 -2.31601,-1.95755v0z" fill="#ffc93e" stroke="#603813" stroke-width="1.32684" stroke-linecap="butt" stroke-linejoin="miter"/><path d="M237.36893,171.94164c1.05608,-0.57393 -0.03386,-2.73483 -1.08835,-4.82516c-0.57636,-1.14293 -1.60416,-3.07327 -1.27012,-3.25417c0.64621,-0.3502 3.73333,3.29294 4.98485,4.7613l1.27572,1.45313c0,0 0.91202,1.11885 1.60996,1.85684c0.0123,0.0128 0.67218,-0.08965 1.12802,-0.46848c0.3716,-0.31001 0.32246,-0.65688 0.44074,-1.38643c0.10859,-0.67024 0.22652,-1.88315 0.5862,-1.88929c0.54179,-0.00825 0.89798,2.22493 1.03674,3.05219l0.07667,0.44251c0.18195,0.98394 1.13116,3.94229 1.17186,4.06772c0.01298,0.03053 0.0344,0.07019 0.0344,0.07019l0.00788,0.01597l0.01086,0.01334c1.46577,1.81788 2.55586,4.0221 2.55586,6.08721c0,4.37303 -3.83332,7.45137 -8.96432,7.45137c-0.95167,0 -1.88244,-0.13335 -2.76656,-0.39549l-0.04755,-0.01367c0,0 -1.38783,-0.11669 -3.16326,2.21704c-0.35616,0.46846 -0.32442,0.90518 -0.82639,0.77077c-0.16738,-0.04475 -0.29039,-0.16774 -0.39073,-0.3911c-0.24003,-0.53267 -0.06284,-1.79472 0.23054,-2.60111l0.04615,-0.12668l-0.10597,-0.08386c-0.02597,-0.02071 -2.90554,-2.11895 -3.19643,-5.12573c-0.25355,-2.62091 1.07044,-4.11316 1.61979,-4.93325l0.31564,-0.52566c0.39845,-0.96938 -0.35145,-2.31757 -1.01326,-3.50715c-0.39511,-0.71023 -1.03291,-1.74663 -0.88885,-1.99018c0.15985,-0.26984 0.73112,0.01738 1.30801,0.29251c0.46776,0.22352 0.91781,0.53933 1.23028,0.33106c0.32495,-0.21633 0.11177,-0.75971 -0.18351,-1.51189c-0.27775,-0.70637 -0.80359,-1.82225 -0.60164,-2.28282c0.05562,-0.12668 0.15318,-0.21565 0.29827,-0.27196c0.53656,-0.20774 1.30363,0.69603 1.92457,1.40293c0.75744,0.86307 1.61646,1.84106 2.61391,1.29802v0z" fill="#ffc93e" stroke="#603813" stroke-width="1.32684" stroke-linecap="round" stroke-linejoin="round"/><g stroke="none" stroke-width="0.66342" stroke-linecap="butt" stroke-linejoin="miter"><path d="M238.25445,182.25869v0c0,-0.78918 0.6397,-1.42925 1.42909,-1.42959c0.78902,0 1.42872,0.64041 1.42872,1.42959c0,0.78868 -0.63954,1.42821 -1.42872,1.42821c-0.7892,0 -1.42909,-0.63954 -1.42909,-1.42821z" fill="#ffffff"/><path d="M239.87583,181.21438c0.27738,0 0.5288,0.11267 0.71076,0.29478c0.18211,0.18195 0.29476,0.43336 0.29476,0.71076c0,0.2774 -0.11264,0.52884 -0.29476,0.71077c-0.18195,0.18214 -0.43339,0.29477 -0.71076,0.29477c-0.2774,0 -0.52884,-0.11263 -0.71076,-0.29477c-0.18214,-0.18193 -0.29477,-0.43336 -0.29477,-0.71077c0,-0.2774 0.11263,-0.5288 0.29477,-0.71076c0.18193,-0.18211 0.43336,-0.29478 0.71076,-0.29478z" fill="#603813"/></g><g stroke="none" stroke-width="0.66342" stroke-linecap="butt" stroke-linejoin="miter"><path d="M245.13788,182.25869v0c0,-0.78918 0.6397,-1.42925 1.42925,-1.42959c0.78902,0 1.42874,0.64041 1.42874,1.42959c0,0.78868 -0.64007,1.42821 -1.42874,1.42821c-0.78955,0 -1.42925,-0.63954 -1.42925,-1.42821z" fill="#ffffff"/><path d="M245.75356,182.21992v0c0,-0.55515 0.44985,-1.00554 1.00535,-1.00554c0.55512,0 1.00551,0.45058 1.00551,1.00554c0,0.55568 -0.45039,1.00517 -1.00551,1.00517c-0.5555,0 -1.00535,-0.44986 -1.00535,-1.00517z" fill="#603813"/></g><path d="M228.38832,187.77481c-0.29285,-0.18703 -0.46164,-0.49583 -0.48882,-0.89412c-0.06615,-0.97394 0.70463,-2.73778 2.01753,-3.85332c0.89658,-0.76183 4.13371,-1.89667 4.81168,-1.61297c0.05596,0.02351 0.13105,0.08388 0.13334,0.11441c0.06334,0.1207 0.0549,0.3167 -0.03967,0.50653c-0.26211,0.52706 -0.88849,1.2259 -1.5819,1.88369c-0.53899,0.51302 -1.14975,1.09237 -1.70681,1.74803l-0.51092,0.60532c-1.24346,1.48822 -1.88648,1.98053 -2.63443,1.50242v0z" fill="#ffc93e" stroke="#603813" stroke-width="1.32684" stroke-linecap="butt" stroke-linejoin="miter"/><path d="M244.45361,186.75578c0,0 -1.30066,0.00103 -2.21143,-0.77955" fill="none" stroke="#603813" stroke-width="1.32684" stroke-linecap="round" stroke-linejoin="round"/></g><path d="M216.03701,145.74393c6.59439,0.00656 33.43594,0.03324 47.00157,0.04672c4.79288,0.00476 7.91594,3.09165 7.90343,6.14998c-0.0285,6.96813 -0.14338,35.06052 -0.19427,47.50306c-0.01502,3.67263 -2.47757,5.98569 -6.36553,5.99187c-13.18851,0.02097 -42.8874,0.06818 -49.35265,0.07846c-2.43679,0.00387 -4.71814,-2.66254 -4.71707,-5.40581c0.00268,-6.8812 0.01442,-36.93038 0.01919,-49.16203c0.00126,-3.2222 2.82972,-5.20512 5.70533,-5.20226z" data-paper-data="{&quot;origRot&quot;:0,&quot;index&quot;:null}" fill="#000000" fill-rule="evenodd" stroke="none" stroke-width="1" stroke-linecap="round" stroke-linejoin="round" opacity="0.42445"/><path d="M215.91244,145.55021c6.59439,0.00655 33.43594,0.03324 47.00157,0.04673c4.79287,0.00476 7.91594,3.09165 7.90343,6.14998c-0.0285,6.96812 -0.14338,35.06052 -0.19427,47.50306c-0.01502,3.67264 -2.47757,5.98569 -6.36554,5.99187c-13.18851,0.02096 -42.88739,0.06818 -49.35265,0.07846c-2.43679,0.00387 -4.71814,-2.66254 -4.71707,-5.40581c0.00269,-6.8812 0.01442,-36.93038 0.01919,-49.16202c0.00126,-3.22221 2.82972,-5.20513 5.70533,-5.20227z" data-paper-data="{&quot;origRot&quot;:0,&quot;index&quot;:null}" fill="#000000" fill-rule="evenodd" stroke="none" stroke-width="1" stroke-linecap="round" stroke-linejoin="round" opacity="0.42445"/><path d="M215.98049,145.73787c6.59439,0.0066 33.43594,0.03348 47.00157,0.04706c4.79287,0.0048 7.91594,3.11399 7.90343,6.19444c-0.0285,7.0185 -0.14338,35.31396 -0.19427,47.84645c-0.01502,3.69918 -2.47757,6.02896 -6.36554,6.03519c-13.18851,0.02112 -42.8874,0.06867 -49.35265,0.07903c-2.43679,0.0039 -4.71814,-2.68179 -4.71707,-5.44489c0.00269,-6.93095 0.01442,-37.19735 0.01919,-49.51741c0.00126,-3.2455 2.82972,-5.24275 5.70533,-5.23987z" data-paper-data="{&quot;origRot&quot;:0,&quot;index&quot;:null}" fill="#000000" fill-rule="evenodd" stroke="none" stroke-width="1" stroke-linecap="round" stroke-linejoin="round" opacity="0.42445"/><text transform="translate(227.5,187.5) scale(0.625,0.625)" font-size="40" xml:space="preserve" fill="#9966ff" fill-rule="nonzero" stroke="none" stroke-width="1" stroke-linecap="butt" stroke-linejoin="miter" stroke-miterlimit="10" stroke-dasharray="" stroke-dashoffset="0" font-family="Sans Serif" font-weight="normal" text-anchor="start" style="mix-blend-mode: normal"><tspan x="0" dy="0">🔒</tspan></text><path d="M216.22311,206.38478c0.08847,-4.6005 4.04058,-8.05913 7.98013,-8.05913c5.79891,0 22.44949,0 32.71065,0c4.9794,0 8.13815,3.24293 8.13815,7.90112c0,4.6582 -3.15609,8.5332 -8.13815,8.5332c-10.36204,0 -27.25579,0 -33.0267,0c-3.82167,0 -7.75257,-3.7747 -7.66408,-8.3752z" fill="#e63c3c" fill-rule="nonzero" stroke="none" stroke-width="0.5" stroke-linecap="butt" stroke-linejoin="miter"/><text transform="translate(240.01179,210.78241) scale(0.31367,0.31367)" font-size="40" xml:space="preserve" fill="#ffffff" fill-rule="nonzero" stroke="none" stroke-width="1" stroke-linecap="butt" stroke-linejoin="miter" stroke-miterlimit="10" stroke-dasharray="" stroke-dashoffset="0" font-family="Sans Serif" font-weight="normal" text-anchor="start" style="mix-blend-mode: normal"><tspan x="0" dy="0">20</tspan></text><g fill-rule="evenodd" stroke-linecap="butt" stroke-linejoin="round"><path d="M226.35074,205.50613l2.94421,-0.67505l1.38109,-2.46532l1.60611,2.60034l2.71918,0.54004l-2.04313,2.30089l0.39102,2.78034l-2.62819,-0.90577l-2.71819,0.90577l0.43602,-3.00537z" fill="url(#color-1)" stroke="url(#color-2)" stroke-width="6.5"/><path d="M226.35074,205.50613l2.94421,-0.67505l1.38109,-2.46533l1.60611,2.60034l2.71919,0.54004l-2.04314,2.30089l0.39102,2.78034l-2.62818,-0.90577l-2.71818,0.90577l0.43602,-3.00537z" fill="url(#color-3)" stroke="#fff0a6" stroke-width="4"/><path d="M227.18336,205.79379l2.38209,-0.54618l1.1174,-1.99463l1.29948,2.10387l2.20004,0.43694l-1.65306,1.86159l0.31636,2.24952l-2.1264,-0.73285l-2.19922,0.73285l0.35278,-2.43158z" fill="#f2cc41" stroke="#f2cc41" stroke-width="2.5"/></g></g></g></svg>