<svg version="1.1" xmlns="http://www.w3.org/2000/svg" xmlns:xlink="http://www.w3.org/1999/xlink" width="719.31157" height="372.15989" viewBox="0,0,719.31157,372.15989"><g transform="translate(120.20196,4.84427)"><g data-paper-data="{&quot;isPaintingLayer&quot;:true}" fill-rule="nonzero" stroke-linejoin="miter" stroke-miterlimit="10" stroke-dasharray="" stroke-dashoffset="0" style="mix-blend-mode: normal"><path d="M472.66613,-1.40655l1,361.87697" fill="none" stroke="#ffffff" stroke-width="5" stroke-linecap="round"/><g stroke="none" stroke-linecap="butt"><path d="M475.10961,-4.25601h124v371.00601h-124z" fill="#000b3d" stroke-width="1.11308"/><path d="M536.66613,70.26112v-36.07003h58v36.07003z" fill="#05004c" stroke-width="0"/><path d="M475.66613,33.16052v-37.1006h61v37.1006z" fill="#05004c" stroke-width="0"/><path d="M476.66613,107.36172v-36.07003h58v36.07003z" fill="#05004c" stroke-width="0"/><path d="M535.66613,144.46232v-36.07003h58v36.07003z" fill="#05004c" stroke-width="0"/><path d="M476.66613,180.53235v-36.07003h58v36.07003z" fill="#05004c" stroke-width="0"/><path d="M535.66613,216.60238v-36.07003h58v36.07003z" fill="#05004c" stroke-width="0"/><path d="M476.66613,252.6724v-36.07003h58v36.07003z" fill="#05004c" stroke-width="0"/><path d="M535.66613,288.74243v-36.07003h58v36.07003z" fill="#05004c" stroke-width="0"/><path d="M476.66613,326.8736v-36.07003h58v36.07003z" fill="#05004c" stroke-width="0"/><path d="M535.66613,365.00478v-36.07003h58v36.07003z" fill="#05004c" stroke-width="0"/></g><path d="M5.80322,1.62046l0.44265,362.84139" fill="none" stroke="#ffffff" stroke-width="5" stroke-linecap="round"/><g stroke="none" stroke-linecap="butt"><path d="M3.798,367.31562l-123.99996,-0.1665l0.57141,-371.99339l123.99996,0.1665z" fill="#000b3d" stroke-width="1.11308"/><path d="M-57.64374,292.51752l-0.05556,36.16602l-57.99998,-0.07788l0.05556,-36.16602z" fill="#05004c" stroke-width="0"/><path d="M3.29911,329.79876l-0.05714,37.19934l-60.99998,-0.08191l0.05714,-37.19934z" fill="#05004c" stroke-width="0"/><path d="M2.41339,255.39874l-0.05556,36.16602l-57.99998,-0.07788l0.05556,-36.16602z" fill="#05004c" stroke-width="0"/><path d="M-56.52945,218.12018l-0.05556,36.16602l-57.99998,-0.07788l0.05556,-36.16602z" fill="#05004c" stroke-width="0"/><path d="M2.52609,182.03338l-0.05556,36.16602l-57.99998,-0.07788l0.05556,-36.16602z" fill="#05004c" stroke-width="0"/><path d="M-56.41834,145.78813l-0.05556,36.16602l-57.99998,-0.07788l0.05556,-36.16602z" fill="#05004c" stroke-width="0"/><path d="M2.63719,109.70134l-0.05556,36.16602l-57.99998,-0.07788l0.05556,-36.16602z" fill="#05004c" stroke-width="0"/><path d="M-56.30724,73.45608l-0.05556,36.16602l-57.99998,-0.07788l0.05556,-36.16602z" fill="#05004c" stroke-width="0"/><path d="M2.75147,35.30267l-0.05556,36.16602l-57.99998,-0.07788l0.05556,-36.16602z" fill="#05004c" stroke-width="0"/><path d="M-56.18978,-3.00923l-0.05556,36.16602l-57.99998,-0.07788l0.05556,-36.16602z" fill="#05004c" stroke-width="0"/></g></g></g></svg>