<svg version="1.1" xmlns="http://www.w3.org/2000/svg" xmlns:xlink="http://www.w3.org/1999/xlink" width="73.5" height="86.07426" viewBox="0,0,73.5,86.07426"><g transform="translate(-203.25,-143.74179)"><g data-paper-data="{&quot;isPaintingLayer&quot;:true}" fill="none" fill-rule="nonzero" stroke-linecap="round" stroke-linejoin="miter" stroke-miterlimit="10" stroke-dasharray="" stroke-dashoffset="0" style="mix-blend-mode: normal"><path d="M209.3856,150.81383c0,0 5.78191,11.62882 7.08656,19.04899c1.83376,10.42951 2.87954,37.63321 2.87954,37.63321" stroke="#00ff08" stroke-width="4"/><path d="M258.61017,206.8901c0,0 1.04578,-27.2037 2.87954,-37.63321c1.30464,-7.42017 7.08656,-19.04899 7.08656,-19.04899" data-paper-data="{&quot;index&quot;:null}" stroke="#00ff08" stroke-width="4"/><path d="M228.69492,149.56806l3.73729,10.58899l-14.32628,10.58898" stroke="#00ff08" stroke-width="4"/><path d="M231.80932,158.91128l26.7839,28.65254l-13.08051,18.68644l-27.40678,-30.52119" stroke="#00ff08" stroke-width="4"/><path d="M211.87712,156.41976l45.47034,45.47034" stroke="#00ff08" stroke-width="4"/><path d="M248.62712,149.56806l-1.24576,9.9661l-28.65254,28.02966" stroke="#00ff08" stroke-width="4"/><path d="M246.75847,159.53416l13.08051,12.45763l-29.27542,34.25847l-11.21186,-13.70339" stroke="#00ff08" stroke-width="4"/><path d="M265.44492,155.10381l-45.47034,48.03205" stroke="#00ff08" stroke-width="4"/><path d="M274,146.49179h-68" stroke="#6fff74" stroke-width="5.5"/><path d="M236.85491,224.90142l-0.9659,-76.1199" stroke="#00ff08" stroke-width="0"/><path d="M242.06222,225.13313l-0.9659,-76.1199" stroke="#00ff08" stroke-width="0"/><path d="M253.69637,225.15752l-0.9659,-76.1199" stroke="#00ff08" stroke-width="0"/><path d="M262.8427,225.18191l-0.9659,-76.1199" stroke="#b5ffff" stroke-width="0"/><path d="M217.46466,222.30386l-0.9659,-76.1199" stroke="#00ff08" stroke-width="0"/><path d="M222.67197,224.81605l-0.9659,-76.1199" stroke="#00ff08" stroke-width="0"/><path d="M227.67197,229.81605l-0.9659,-76.1199" stroke="#00ff08" stroke-width="0"/><path d="M225.40616,222.74288l-2.49525,-76.1199" stroke="#00ff08" stroke-width="0"/><path d="M225.39148,224.63313l-0.9659,-76.1199" stroke="#00ff08" stroke-width="0"/><path d="M220.23295,225.07215l-0.9659,-76.1199" stroke="#00ff08" stroke-width="0"/><path d="M216.73295,224.26727l-0.9659,-76.1199" stroke="#00ff08" stroke-width="0"/><g stroke="#00ff08" stroke-width="0"><path d="M238.01344,225.438l-0.9659,-76.1199"/><path d="M243.22075,227.9502l-0.9659,-76.1199"/><path d="M245.95494,225.87703l-2.49525,-76.1199"/><path d="M245.94026,227.76727l-0.9659,-76.1199"/><path d="M240.78173,228.2063l-0.9659,-76.1199"/><path d="M237.28173,227.40142l-0.9659,-76.1199"/></g><g stroke="#00ff08" stroke-width="0"><path d="M252.3427,225.46239l-0.9659,-76.1199"/><path d="M257.55002,227.97459l-0.96591,-76.1199"/><path d="M260.28421,225.90142l-2.49525,-76.1199"/><path d="M260.26953,227.79166l-0.9659,-76.1199"/><path d="M255.11099,228.23069l-0.9659,-76.1199"/><path d="M251.61099,227.42581l-0.9659,-76.1199"/></g><g stroke="#00ff08" stroke-width="0"><path d="M249.67197,222.79166l-0.96591,-76.1199"/><path d="M254.87929,225.30385l-0.96591,-76.1199"/><path d="M257.61348,223.23068l-2.49525,-76.1199"/><path d="M257.5988,225.12093l-0.9659,-76.1199"/><path d="M252.44026,225.55995l-0.96591,-76.1199"/><path d="M248.94026,224.75507l-0.9659,-76.1199"/></g><g stroke="#00ff08" stroke-width="0"><path d="M233.26953,224.84044l-0.9659,-76.1199"/><path d="M238.47685,227.35263l-0.96591,-76.1199"/><path d="M241.21104,225.27946l-2.49525,-76.1199"/><path d="M241.19636,227.16971l-0.9659,-76.1199"/><path d="M236.03782,227.60873l-0.9659,-76.1199"/><path d="M232.53782,226.80385l-0.9659,-76.1199"/></g></g></g></svg>