<svg version="1.1" xmlns="http://www.w3.org/2000/svg" xmlns:xlink="http://www.w3.org/1999/xlink" width="60.62956" height="65.97316" viewBox="0,0,60.62956,65.97316"><g transform="translate(-209.49751,-146.74879)"><g data-paper-data="{&quot;isPaintingLayer&quot;:true}" stroke-linecap="round" stroke-miterlimit="10" stroke-dasharray="" stroke-dashoffset="0" style="mix-blend-mode: normal"><path d="M215.22203,146.7488c6.59439,0.00656 33.43594,0.03324 47.00157,0.04672c4.79288,0.00476 7.91594,3.09165 7.90343,6.14998c-0.0285,6.96813 -0.14338,35.06052 -0.19427,47.50306c-0.01502,3.67263 -2.47757,5.98569 -6.36553,5.99187c-13.18851,0.02097 -42.8874,0.06818 -49.35265,0.07846c-2.43679,0.00387 -4.71814,-2.66254 -4.71707,-5.40581c0.00268,-6.8812 0.01442,-36.93038 0.01919,-49.16203c0.00126,-3.2222 2.82972,-5.20512 5.70533,-5.20226z" data-paper-data="{&quot;origRot&quot;:0,&quot;index&quot;:null}" fill="#000000" fill-rule="evenodd" stroke="none" stroke-width="1" stroke-linejoin="round" opacity="0.42445"/><path d="M260.48047,165.875l-30,26.25l-9.25,-9.5" fill="none" fill-rule="nonzero" stroke="#00ff3a" stroke-width="5" stroke-linejoin="miter"/><path d="M253.92558,206.48489c3.61892,0.00046 9.66973,-0.30365 9.66028,-0.00633c-0.01227,0.38628 -0.0156,2.64375 -1.08132,3.87151c-0.40789,0.4699 -1.59522,1.3637 -3.04963,1.73327c-0.65474,0.16637 -8.66229,0.62552 -17.53983,0.63826c-10.23441,0.01469 -21.62508,-0.43137 -24.23919,-0.43084c-1.83992,0.00037 -2.45688,-5.81056 -1.29083,-5.81041c0,0 29.81903,0.00355 37.54052,0.00454z" data-paper-data="{&quot;origRot&quot;:0,&quot;index&quot;:null}" fill="#000000" fill-rule="evenodd" stroke="none" stroke-width="1" stroke-linejoin="round" opacity="0.42445"/></g></g></svg>