<svg version="1.1" xmlns="http://www.w3.org/2000/svg" xmlns:xlink="http://www.w3.org/1999/xlink" width="479.95638" height="103.37595" viewBox="0,0,479.95638,103.37595"><defs><radialGradient cx="379.33048" cy="156.85661" r="2.99849" gradientUnits="userSpaceOnUse" id="color-1"><stop offset="0" stop-color="#ffffff"/><stop offset="1" stop-color="#ffffff" stop-opacity="0"/></radialGradient><radialGradient cx="407.13013" cy="177.98439" r="25.07403" gradientUnits="userSpaceOnUse" id="color-2"><stop offset="0" stop-color="#ff8a00"/><stop offset="1" stop-color="#ffa100"/></radialGradient><radialGradient cx="385.29043" cy="158.18782" r="15.08223" gradientUnits="userSpaceOnUse" id="color-3"><stop offset="0" stop-color="#ffc600"/><stop offset="1" stop-color="#ffa100"/></radialGradient><radialGradient cx="381.05755" cy="164.8915" r="5.95784" gradientUnits="userSpaceOnUse" id="color-4"><stop offset="0" stop-color="#ffde00"/><stop offset="1" stop-color="#ffde00" stop-opacity="0"/></radialGradient></defs><g transform="translate(-0.27181,-128.31204)"><g data-paper-data="{&quot;isPaintingLayer&quot;:true}" stroke-miterlimit="10" stroke-dasharray="" stroke-dashoffset="0" style="mix-blend-mode: normal"><path d="M479.72816,132.15802c-0.04378,9.36288 -0.3584,76.61856 -0.44411,94.94374c-0.01367,2.92269 -7.37629,4.59433 -16.73968,4.5862c-42.67288,-0.03709 -358.55683,-0.31163 -441.59,-0.38379c-12.6953,-0.01103 -19.96184,-1.95835 -19.97966,-4.34264c-0.07324,-9.79152 -0.5662,-75.68918 -0.70285,-93.96134c-0.02229,-2.97698 7.03177,-4.68918 19.42561,-4.68815c82.00279,0.0068 397.20469,0.03294 441.65829,0.03663c10.21933,0.00085 18.38236,1.68607 18.37243,3.80935z" data-paper-data="{&quot;origRot&quot;:0,&quot;index&quot;:null}" fill="#000000" fill-rule="evenodd" stroke="none" stroke-width="1" stroke-linecap="round" stroke-linejoin="round" opacity="0.42445"/><path d="M480.22816,132.15802c-0.04378,9.36288 -0.35839,76.61856 -0.44411,94.94374c-0.01367,2.92269 -7.37629,4.59433 -16.73968,4.5862c-42.67288,-0.03709 -358.55683,-0.31162 -441.59,-0.38379c-12.6953,-0.01103 -19.96184,-1.95835 -19.97966,-4.34264c-0.07325,-9.79152 -0.5662,-75.68918 -0.70286,-93.96134c-0.02229,-2.97697 7.03177,-4.68918 19.42561,-4.68815c82.00279,0.0068 397.20469,0.03295 441.65829,0.03663c10.21933,0.00085 18.38236,1.68608 18.37243,3.80935z" data-paper-data="{&quot;origRot&quot;:0,&quot;index&quot;:null}" fill="#000000" fill-rule="evenodd" stroke="none" stroke-width="1" stroke-linecap="round" stroke-linejoin="round" opacity="0.42445"/><text transform="translate(144.42864,189.49107) scale(0.51359,0.51359)" font-size="40" xml:space="preserve" fill="#ffffff" fill-rule="nonzero" stroke="none" stroke-width="1" stroke-linecap="butt" stroke-linejoin="miter" stroke-miterlimit="10" stroke-dasharray="" stroke-dashoffset="0" font-family="Malgun Gothic" font-weight="normal" text-anchor="start" style="mix-blend-mode: normal"><tspan x="0" dy="0">YOU HAVE BEATEN </tspan><tspan x="0" dy="48px">  WORLD RECORD</tspan></text><text transform="translate(159.24999,160.51813) scale(0.73165,0.73165)" font-size="40" xml:space="preserve" fill="#ffffff" fill-rule="nonzero" stroke="none" stroke-width="1" stroke-linecap="butt" stroke-linejoin="miter" stroke-miterlimit="10" stroke-dasharray="" stroke-dashoffset="0" font-family="Malgun Gothic" font-weight="normal" text-anchor="start" style="mix-blend-mode: normal"><tspan x="0" dy="0">CONGRATS!</tspan></text><g fill="none" fill-rule="nonzero" stroke-linecap="round" stroke-linejoin="miter"><path d="M52.3856,149.81383c0,0 5.78191,11.62882 7.08656,19.04899c1.83376,10.42951 2.87954,37.63321 2.87954,37.63321" stroke="#eeeeee" stroke-width="4"/><path d="M101.61017,205.8901c0,0 1.04578,-27.2037 2.87954,-37.63321c1.30464,-7.42017 7.08656,-19.04899 7.08656,-19.04899" data-paper-data="{&quot;index&quot;:null}" stroke="#eeeeee" stroke-width="4"/><path d="M71.69492,148.56805l3.73729,10.58899l-14.32628,10.58898" stroke="#eeeeee" stroke-width="4"/><path d="M74.80932,157.91127l26.7839,28.65254l-13.08051,18.68644l-27.40678,-30.52119" stroke="#eeeeee" stroke-width="4"/><path d="M100.34746,200.8901l-45.47034,-45.47034" stroke="#eeeeee" stroke-width="4"/><path d="M91.62712,148.56805l-1.24576,9.9661l-28.65254,28.02966" stroke="#eeeeee" stroke-width="4"/><path d="M89.75847,158.53416l13.08051,12.45763l-29.27542,34.25847l-11.21186,-13.70339" stroke="#eeeeee" stroke-width="4"/><path d="M108.44492,154.10381l-45.47034,48.03205" stroke="#eeeeee" stroke-width="4"/><path d="M49,145.49179h68" stroke="#d9652a" stroke-width="5.5"/><path d="M79.85491,223.90142l-0.9659,-76.1199" stroke="none" stroke-width="0"/><path d="M84.09632,148.01323l0.9659,76.1199" stroke="none" stroke-width="0"/><path d="M95.73047,148.03762l0.9659,76.1199" stroke="none" stroke-width="0"/><path d="M105.8427,224.18191l-0.9659,-76.1199" stroke="none" stroke-width="0"/><path d="M60.46466,221.30386l-0.9659,-76.1199" stroke="none" stroke-width="0"/><path d="M65.67197,223.81605l-0.9659,-76.1199" stroke="none" stroke-width="0"/><path d="M70.67197,228.81605l-0.9659,-76.1199" stroke="none" stroke-width="0"/><path d="M68.40616,221.74288l-2.49525,-76.1199" stroke="none" stroke-width="0"/><path d="M67.42558,147.51323l0.9659,76.1199" stroke="none" stroke-width="0"/><path d="M63.23295,224.07215l-0.9659,-76.1199" stroke="none" stroke-width="0"/><path d="M58.76705,147.14737l0.9659,76.1199" stroke="none" stroke-width="0"/><g stroke="none" stroke-width="0"><path d="M81.01344,224.438l-0.9659,-76.1199"/><path d="M86.22075,226.9502l-0.9659,-76.1199"/><path d="M88.95494,224.87703l-2.49525,-76.1199"/><path d="M88.94026,226.76727l-0.9659,-76.1199"/><path d="M83.78173,227.2063l-0.9659,-76.1199"/><path d="M80.28173,226.40142l-0.9659,-76.1199"/></g><g stroke="none" stroke-width="0"><path d="M95.3427,224.46239l-0.9659,-76.1199"/><path d="M100.55002,226.97459l-0.96591,-76.1199"/><path d="M103.28421,224.90142l-2.49525,-76.1199"/><path d="M102.30363,150.67176l0.9659,76.1199"/><path d="M98.11099,227.23069l-0.9659,-76.1199"/><path d="M94.61099,226.42581l-0.9659,-76.1199"/></g><g stroke="none" stroke-width="0"><path d="M92.67197,221.79166l-0.96591,-76.1199"/><path d="M97.87929,224.30385l-0.96591,-76.1199"/><path d="M100.61348,222.23068l-2.49525,-76.1199"/><path d="M100.5988,224.12093l-0.9659,-76.1199"/><path d="M95.44026,224.55995l-0.96591,-76.1199"/><path d="M91.94026,223.75507l-0.9659,-76.1199"/></g><g stroke="none" stroke-width="0"><path d="M76.26953,223.84044l-0.9659,-76.1199"/><path d="M80.51094,150.23273l0.96591,76.1199"/><path d="M84.21104,224.27946l-2.49525,-76.1199"/><path d="M84.19636,226.16971l-0.9659,-76.1199"/><path d="M79.03782,226.60873l-0.9659,-76.1199"/><path d="M74.57192,149.68395l0.9659,76.1199"/></g></g><g fill-rule="nonzero" stroke-linecap="butt" stroke-linejoin="miter"><path d="M384.21994,153.50116c1.22981,1.10905 -0.88344,3.04612 -1.90717,4.18133c-1.02373,1.13522 -3.09258,2.25659 -4.32239,1.14756c-1.22981,-1.10905 -0.05679,-4.90179 0.96694,-6.03701c1.02373,-1.13522 4.03281,-0.40092 5.26262,0.70812z" fill="url(#color-1)" stroke="none" stroke-width="NaN"/><path d="M385.02285,207.08391c-15.5103,-4.40565 -24.51243,-20.55073 -20.10677,-36.06106c4.40566,-15.5103 20.55074,-24.51244 36.06104,-20.10677c15.51033,4.40566 24.51246,20.55074 20.10677,36.06106c-4.40565,15.5103 -20.55074,24.51244 -36.06106,20.10677z" fill="#9f2c00" stroke="none" stroke-width="0"/><path d="M417.1487,170.90735c1.58095,4.70353 1.80669,9.91714 0.34845,15.05099c-3.843,13.52939 -17.92607,21.38179 -31.45547,17.53883c-7.52762,-2.13821 -13.29781,-7.44642 -16.27396,-14.06552c-2.37288,-5.27739 -2.96966,-11.38815 -1.26486,-17.38994c3.843,-13.52939 17.92606,-21.38179 31.45547,-17.53883c8.39554,2.38473 14.60506,8.71261 17.19038,16.40449z" data-paper-data="{&quot;index&quot;:null}" fill="#ff6700" stroke="#ffffff" stroke-width="0"/><path d="M399.65669,154.66608c4.77082,1.35513 8.81466,3.93682 11.86893,7.29063c2.83571,3.11377 4.33097,5.44967 5.25044,9.53074c0.35852,1.5914 0.9105,5.99265 0.13899,9.20792c-1.34512,5.26518 -1.22811,4.47728 -3.4032,8.7182c-2.99448,4.28283 -3.02015,4.323 -6.49541,7.15954c-3.2067,2.41489 -4.65194,3.14441 -7.3333,4.30372c-2.65389,0.70233 -4.01112,1.46443 -8.32934,1.48448c-4.85643,-0.22416 -4.88379,-0.33181 -7.26907,-1.08673c-3.38785,-0.71826 -3.92055,-2.07329 -6.95696,-3.10941c-7.52667,-6.02431 -11.2556,-16.1859 -8.39508,-26.25655c3.77805,-13.30082 17.6232,-21.02052 30.92402,-17.2425z" data-paper-data="{&quot;index&quot;:null}" fill="url(#color-2)" stroke="#ffffff" stroke-width="0"/><path d="M374.46444,174.22528c-1.52193,-8.18946 3.88315,-16.0621 12.07261,-17.58404c8.18946,-1.52193 16.06211,3.88315 17.58405,12.07261c1.52193,8.18946 -3.88313,16.06211 -12.07261,17.58405c-8.18946,1.52193 -16.06211,-3.88316 -17.58406,-12.07262z" fill="url(#color-3)" stroke="#9f2c00" stroke-width="0"/><path d="M413.06587,162.60031c0,0 -2.39571,1.36981 -2.69532,1.49861c-5.4563,4.33073 -13.35956,14.55486 -17.6589,20.16596c-4.84176,3.85637 -7.53146,3.841 -13.46422,2.21991c-0.11844,1.04035 -0.19874,2.08084 -0.23185,3.11842c2.53193,0.99435 5.18623,1.73333 8.17693,2.56786c7.65701,2.17856 18.98028,-0.18705 26.20917,-3.61333c0.32668,-0.09573 4.24698,-1.85827 4.24698,-1.85827l-0.88771,2.33845c-0.31287,0.09072 -2.49789,1.08554 -2.81079,1.17626c-7.59198,3.55419 -19.0847,5.43497 -27.24147,3.66012c-2.78973,-0.80947 -5.3034,-1.52074 -7.69996,-2.41321c0.0243,0.94231 0.09239,1.88066 0.21121,2.8127c4.06685,0.74173 8.20348,1.90387 11.67205,3.70967c2.54733,1.33918 4.32279,3.38868 7.06018,4.46538l3.63342,0.69445l-3.19256,0.91288c-2.95282,-0.83874 -5.61136,-3.16002 -8.27949,-4.53386c-3.18406,-1.65873 -6.96337,-2.74694 -10.70947,-3.46054c0.03768,0.69644 0.10682,1.35156 0.28024,2.06128l1.51237,3.57953l-2.16247,-1.43488c-0.26603,-1.05451 -1.30174,-3.43802 -1.34314,-4.50755c-1.35143,-0.21923 -2.82412,-0.4323 -4.11135,-0.57002l-1.4005,-1.86905c1.15311,0.12334 4.08107,0.47033 5.28529,0.65701c-0.11767,-1.0597 -0.17324,-2.12761 -0.1762,-3.20026c-2.59962,-1.10267 -5.9522,-2.15292 -8.57466,-4.24345l-0.48894,-2.29659c2.2838,1.82058 6.86273,3.64 9.11032,4.65711c0.05096,-0.99422 0.14211,-1.99074 0.26584,-2.9869c-0.29663,-0.12707 -0.59433,-0.26733 -0.8932,-0.42131c-6.19265,-2.96819 -7.61456,-7.1502 -6.90454,-13.94538c0,0 0.64716,-3.92732 1.10103,-4.63203c0.42427,-0.65871 1.52377,-2.50921 1.52377,-2.50921l-1.40738,7.28466c-0.5399,6.18011 0.82821,9.5604 6.44153,12.25088c0.13106,0.06915 0.26183,0.13517 0.39233,0.19813c0.65105,-4.05106 1.76957,-8.06847 2.85013,-11.86799c1.91939,-5.66174 4.67504,-14.86165 10.28125,-18.19515c0.37208,-0.22125 1.62791,-0.31948 2.0287,-0.48686l1.94071,0.13703l-2.32777,1.04609c-5.85107,2.45449 -8.49756,12.67257 -10.30786,18.00605c-1.09107,3.84612 -2.22377,7.90712 -2.84385,11.99641c5.44345,1.6466 8.3272,1.30966 12.77363,-2.11329c4.24503,-5.72677 11.7501,-15.7392 17.2928,-20.04152c0.16294,-0.07255 2.31735,-1.19985 2.31735,-1.19985c0,0 1.00608,1.27473 1.20621,1.18567z" data-paper-data="{&quot;index&quot;:null}" fill="#9f2c00" stroke="#9f2c00" stroke-width="1"/><path d="M388.68034,167.69737c-0.89888,3.16451 -4.19287,5.00117 -7.35737,4.10229c-3.16451,-0.89888 -5.00117,-4.19287 -4.10229,-7.35737c0.89888,-3.16454 4.19289,-5.00118 7.35738,-4.10232c3.16452,0.89888 5.00118,4.19287 4.1023,7.35739z" data-paper-data="{&quot;index&quot;:null}" fill="url(#color-4)" stroke="none" stroke-width="0"/></g></g></g></svg>