<svg version="1.1" xmlns="http://www.w3.org/2000/svg" xmlns:xlink="http://www.w3.org/1999/xlink" width="206.91171" height="172.50523" viewBox="0,0,206.91171,172.50523"><defs><radialGradient cx="204.42197" cy="213.74112" r="17.31846" gradientUnits="userSpaceOnUse" id="color-1"><stop offset="0" stop-color="#ff6a00"/><stop offset="1" stop-color="#ff4343"/></radialGradient></defs><g transform="translate(-136.54414,-93.74739)"><g data-paper-data="{&quot;isPaintingLayer&quot;:true}" stroke-miterlimit="10" stroke-dasharray="" stroke-dashoffset="0" style="mix-blend-mode: normal"><g><path d="M142.11238,96.82576l195.8506,0.16771l-0.78765,165.91357l-195.13832,0.26723z" data-paper-data="{&quot;origRot&quot;:0,&quot;index&quot;:null}" fill="#000000" fill-rule="evenodd" stroke="#000000" stroke-width="4" stroke-linecap="round" stroke-linejoin="round" opacity="0.42445"/><path d="M142.11238,96.82576l195.8506,0.16771l-0.78765,165.91357l-195.13832,0.26723z" data-paper-data="{&quot;origRot&quot;:0,&quot;index&quot;:null}" fill="#000000" fill-rule="evenodd" stroke="#000000" stroke-width="5" stroke-linecap="round" stroke-linejoin="round" opacity="0.42445"/><path d="M139.04414,263.75262v-167.50523h201.91171v167.50523z" fill="none" fill-rule="nonzero" stroke="#333333" stroke-width="5" stroke-linecap="butt" stroke-linejoin="miter"/></g><text transform="translate(155.79468,254.75975) scale(0.24522,0.24522)" font-size="40" xml:space="preserve" fill="#ffffff" fill-rule="nonzero" stroke="none" stroke-width="1" stroke-linecap="butt" stroke-linejoin="miter" stroke-miterlimit="10" stroke-dasharray="" stroke-dashoffset="0" font-family="Sans Serif" font-weight="normal" text-anchor="start" style="mix-blend-mode: normal"><tspan x="0" dy="0">CLICK TO SWITCH TO THE NEXT PAGE</tspan></text><text transform="translate(179.00003,152.25) scale(0.5,0.5)" font-size="40" xml:space="preserve" fill="#ffffff" fill-rule="nonzero" stroke="none" stroke-width="1" stroke-linecap="butt" stroke-linejoin="miter" stroke-miterlimit="10" stroke-dasharray="" stroke-dashoffset="0" font-family="Sans Serif" font-weight="normal" text-anchor="start" style="mix-blend-mode: normal"><tspan x="0" dy="0">TRY TO BEAT</tspan></text><text transform="translate(177.35002,185.76875) scale(0.5,0.5)" font-size="40" xml:space="preserve" fill="#ffffff" fill-rule="nonzero" stroke="none" stroke-width="1" stroke-linecap="butt" stroke-linejoin="miter" stroke-miterlimit="10" stroke-dasharray="" stroke-dashoffset="0" font-family="Sans Serif" font-weight="normal" text-anchor="start" style="mix-blend-mode: normal"><tspan x="0" dy="0">HIGHSCORES</tspan></text><g fill-rule="nonzero" stroke-linecap="butt" stroke-linejoin="miter"><path d="M224.81847,215.5c0,9.41869 -7.75374,17.05406 -17.31846,17.05406c-9.56472,0 -17.31846,-7.63537 -17.31846,-17.05406c0,-9.41869 7.75374,-17.05406 17.31846,-17.05406c9.56472,0 17.31846,7.63537 17.31846,17.05406z" fill="url(#color-1)" stroke="#ff0000" stroke-width="2"/><g fill="#ffffff" stroke="none" stroke-width="0"><path d="M203.7736,213.62128c0,0 3.57285,0.17821 3.68864,0.30224c0.17444,0.18688 -8.99228,12.08973 -9.64059,12.12592c-0.27044,0.01509 3.1926,-8.87789 3.03277,-9.14874c-0.14861,-0.25186 -2.59647,-0.21967 -2.59647,-0.2246c0,-0.22797 4.32766,-9.92816 4.32766,-9.92816c0,0 4.56359,-0.08485 7.04306,-0.08485c2.70532,0 8.74018,0.25457 8.74018,0.25457l-2.80025,3.39424c0,0 -7.37202,0.23798 -9.4824,0.07272c-0.66475,-0.05205 -2.3126,3.23666 -2.3126,3.23666z"/><path d="M206.31928,216.76096l2.20625,-2.8851h4.75194l-2.46082,2.8851z"/></g></g><text transform="translate(207.00003,115.77311) scale(0.31287,0.31287)" font-size="40" xml:space="preserve" fill="#ffffff" fill-rule="nonzero" stroke="none" stroke-width="1" stroke-linecap="butt" stroke-linejoin="miter" stroke-miterlimit="10" stroke-dasharray="" stroke-dashoffset="0" font-family="Sans Serif" font-weight="normal" text-anchor="start" style="mix-blend-mode: normal"><tspan x="0" dy="0">OBJECTIVE</tspan></text><g fill-rule="nonzero" stroke-linecap="butt" stroke-linejoin="miter"><path d="M269.35044,209.83152c0,-1.87146 1.51715,-3.38865 3.38864,-3.38865c1.87146,0 3.38865,1.51716 3.38865,3.38865c0,1.87146 -1.51715,3.38865 -3.38865,3.38865c-1.87146,0 -3.38864,-1.51715 -3.38864,-3.38865z" fill="#ffa3a3" stroke="none" stroke-width="1.5"/><path d="M247.67725,216.75c0,-9.98131 8.09144,-18.07275 18.07275,-18.07275c9.98131,0 18.07275,8.09144 18.07275,18.07275c0,9.98131 -8.09144,18.07275 -18.07275,18.07275c-9.98131,0 -18.07275,-8.09144 -18.07275,-18.07275z" fill="#373ec7" stroke="#000000" stroke-width="1.5"/><path d="M250.07798,216.04405c0,-8.73366 6.95358,-15.81365 15.53129,-15.81365c8.5777,0 15.53128,7.08 15.53128,15.81365c0,8.73366 -6.95358,15.81365 -15.53128,15.81365c-8.5777,0 -15.53129,-7.08 -15.53129,-15.81365z" fill="#005ac7" stroke="none" stroke-width="1.5"/><path d="M258.05439,213.50087c0,-6.00439 4.86751,-10.87191 10.87191,-10.87191c6.00439,0 10.87191,4.86751 10.87191,10.87191c0,6.00439 -4.8675,10.87191 -10.87191,10.87191c-6.00439,0 -10.87191,-4.8675 -10.87191,-10.87191z" fill="#006adb" stroke="none" stroke-width="1.5"/><g stroke="#ab671a" stroke-width="0"><path d="M254.03629,225.33774l12.21978,-4.00754l3.61369,4.1849z" data-paper-data="{&quot;index&quot;:null}" fill="#39e2e6"/><path d="M277.46371,208.05118l-11.3811,3.8248l-3.38549,-3.97347z" fill="#39e2e6"/><path d="M262.62855,207.8632l11.27171,13.05339l-4.07594,4.72021l-11.27171,-13.05339z" fill="#39c0e6"/></g></g></g></g></svg>