<svg version="1.1" xmlns="http://www.w3.org/2000/svg" xmlns:xlink="http://www.w3.org/1999/xlink" width="40.00002" height="45.88104" viewBox="0,0,40.00002,45.88104"><g transform="translate(-219.99999,-157.05948)"><g data-paper-data="{&quot;isPaintingLayer&quot;:true}" fill-rule="nonzero" stroke-linejoin="miter" stroke-miterlimit="10" stroke-dasharray="" stroke-dashoffset="0" style="mix-blend-mode: normal"><path d="M259.98283,184.19352h-39.91667v-8.16667h39.91667z" fill="#2082cf" stroke="none" stroke-width="1" stroke-linecap="butt"/><path d="M254.067,168.87368c3.61367,3.61183 5.84967,8.6015 5.84967,14.1085c0,5.50717 -2.236,10.49667 -5.84967,14.10867c-3.612,3.61367 -8.6015,5.84967 -14.10867,5.84967c-5.50717,0 -10.49667,-2.236 -14.10867,-5.84967c-3.61367,-3.612 -5.84967,-8.6015 -5.84967,-14.10867c0,-5.507 2.236,-10.49667 5.84967,-14.1085c3.612,-3.61383 8.6015,-5.84983 14.10867,-5.84983c5.50717,0 10.49667,2.236 14.10867,5.84983z" fill="#ff7408" stroke="none" stroke-width="1.05974" stroke-linecap="butt"/><path d="M237.98283,202.77686l-2.08333,-0.16667l-2,-0.5l-1.83333,-0.75l-1.75,-0.75l-1.75,-1.16667l-1.66667,-1.25l-1,-1.08333l-1,-1.16667l-0.91667,-1.08333l-0.91667,-1.41667l-1.08333,-2l-0.66667,-1.91667l-0.58333,-1.5l13,-15l15.75,17z" fill="#ff7408" stroke="none" stroke-width="1" stroke-linecap="round"/><path d="M248.0945,174.86169c2.13567,2.13383 3.45667,5.08217 3.45667,8.335c0,3.253 -1.321,6.20134 -3.45667,8.33517c-2.13383,2.1355 -5.08217,3.4565 -8.335,3.4565c-3.253,0 -6.20134,-1.321 -8.33517,-3.4565c-2.1355,-2.13384 -3.4565,-5.08217 -3.4565,-8.33517c0,-3.25283 1.321,-6.20117 3.4565,-8.335c2.13384,-2.13567 5.08217,-3.45667 8.33517,-3.45667c3.25283,0 6.20117,1.321 8.335,3.45667z" fill="#ffffff" stroke="#2082cf" stroke-width="2.08856" stroke-linecap="butt"/><path d="M247.35467,175.58435c1.954,1.953 3.163,4.651 3.163,7.62867c0,2.97784 -1.209,5.67567 -3.163,7.62867c-1.953,1.954 -4.65084,3.163 -7.62867,3.163c-2.97767,0 -5.67567,-1.209 -7.62867,-3.163c-1.954,-1.953 -3.163,-4.65084 -3.163,-7.62867c0,-2.97767 1.209,-5.67567 3.163,-7.62867c1.953,-1.95383 4.651,-3.163 7.62867,-3.163c2.97784,0 5.67567,1.20917 7.62867,3.163z" fill="#2082cf" stroke="#2082cf" stroke-width="1.14602" stroke-linecap="butt"/><path d="M244.88917,194.03252l-10.25767,2.389v-7.75h10.5z" fill="#2082cf" stroke="none" stroke-width="0.84509" stroke-linecap="butt"/><path d="M235.45217,196.13902l-2.383,-1.53283l2.07383,-3.224l2.383,1.53283z" fill="#e3474f" stroke="#ff7408" stroke-width="2" stroke-linecap="butt"/><path d="M246.46884,194.16469l-4.14417,-0.08367l2.47883,-3.09033z" fill="#ffffff" stroke="#ff7408" stroke-width="2" stroke-linecap="round"/><path d="M254.15034,162.90931c3.61367,3.61183 5.84967,8.6015 5.84967,14.1085c0,5.50717 -2.236,10.49667 -5.84967,14.10867c-3.612,3.61367 -8.6015,5.84967 -14.10867,5.84967c-5.50717,0 -10.49667,-2.236 -14.10867,-5.84967c-3.61367,-3.612 -5.84967,-8.6015 -5.84967,-14.10867c0,-5.507 2.236,-10.49667 5.84967,-14.1085c3.612,-3.61383 8.6015,-5.84983 14.10867,-5.84983c5.50717,0 10.49667,2.236 14.10867,5.84983z" fill="#ffa208" stroke="none" stroke-width="1.05974" stroke-linecap="butt"/><path d="M240.08346,174.35827v13.64173" fill="none" stroke="#ffffff" stroke-width="6.5" stroke-linecap="round"/><path d="M237.15,166.18346c0,-1.62011 1.31336,-2.93346 2.93346,-2.93346c1.62011,0 2.93346,1.31336 2.93346,2.93346c0,1.62011 -1.31336,2.93346 -2.93346,2.93346c-1.62011,0 -2.93346,-1.31336 -2.93346,-2.93346z" fill="#ffffff" stroke="none" stroke-width="0" stroke-linecap="butt"/></g></g></svg>