<svg version="1.1" xmlns="http://www.w3.org/2000/svg" xmlns:xlink="http://www.w3.org/1999/xlink" width="60" height="65.6029" viewBox="0,0,60,65.6029"><defs><radialGradient cx="237.33562" cy="172.40728" r="16.20662" gradientUnits="userSpaceOnUse" id="color-1"><stop offset="0" stop-color="#ff6a00"/><stop offset="1" stop-color="#ff4343"/></radialGradient></defs><g transform="translate(-210,-146.94729)"><g data-paper-data="{&quot;isPaintingLayer&quot;:true}" fill-rule="nonzero" stroke-linecap="butt" stroke-linejoin="miter" stroke-miterlimit="10" stroke-dasharray="" stroke-dashoffset="0" style="mix-blend-mode: normal"><path d="M210,199.14729c0,-7.04774 0,-31.40226 0,-44.2c0,-4.81949 3.05034,-8 7.7,-8c12.62451,0 37.03921,0 44.2,0c3.87081,0 8.1,3.00621 8.1,7.6c0,12.6245 0,37.2391 0,44.4c0,3.83078 -3.40007,8 -8.5,8c-13.01549,0 -37.10248,0 -44,0c-3.62854,0 -7.5,-4.0497 -7.5,-7.8z" fill="#d1d1d1" stroke="none" stroke-width="0"/><path d="M215.57804,204.175c0.08847,-4.6005 4.04058,-8.05913 7.98013,-8.05913c5.79891,0 22.44949,0 32.71065,0c4.9794,0 8.13815,3.24293 8.13815,7.90112c0,4.6582 -3.15609,8.5332 -8.13815,8.5332c-10.36204,0 -27.25579,0 -33.0267,0c-3.82167,0 -7.75257,-3.7747 -7.66408,-8.3752z" fill="#3be690" stroke="none" stroke-width="0.5"/><text transform="translate(218.52928,207.29591) scale(0.20585,0.20585)" font-size="40" xml:space="preserve" fill="#ffffff" fill-rule="nonzero" stroke="none" stroke-width="1" stroke-linecap="butt" stroke-linejoin="miter" stroke-miterlimit="10" stroke-dasharray="" stroke-dashoffset="0" font-family="Sans Serif" font-weight="normal" text-anchor="start" style="mix-blend-mode: normal"><tspan x="0" dy="0">UNLOCKED</tspan></text><g><path d="M256.42267,174.05324c0,8.81402 -7.25595,15.95919 -16.20662,15.95919c-8.95067,0 -16.20661,-7.14517 -16.20661,-15.95919c0,-8.81402 7.25595,-15.95919 16.20662,-15.95919c8.95067,0 16.20662,7.14517 16.20662,15.95919z" fill="url(#color-1)" stroke="#ff0000" stroke-width="2"/><g fill="#ffffff" stroke="none" stroke-width="0"><path d="M236.72888,172.29514c0,0 3.34348,0.16677 3.45183,0.28284c0.16324,0.17488 -8.41498,11.31356 -9.02166,11.34744c-0.25308,0.01413 2.98763,-8.30793 2.83807,-8.56139c-0.13907,-0.23569 -2.42978,-0.20557 -2.42978,-0.21019c0,-0.21334 4.04982,-9.29077 4.04982,-9.29077c0,0 4.2706,-0.0794 6.59089,-0.0794c2.53164,0 8.17906,0.23823 8.17906,0.23823l-2.62047,3.17633c0,0 -6.89874,0.2227 -8.87363,0.06805c-0.62207,-0.04871 -2.16413,3.02887 -2.16413,3.02887z"/><path d="M239.11113,175.23324l2.06462,-2.69987h4.44687l-2.30284,2.69987z"/></g></g></g></g></svg>