<svg version="1.1" xmlns="http://www.w3.org/2000/svg" xmlns:xlink="http://www.w3.org/1999/xlink" width="84.40475" height="84.40476" viewBox="0,0,84.40475,84.40476"><defs><radialGradient cx="220.24523" cy="147.99906" r="4.33333" gradientUnits="userSpaceOnUse" id="color-1"><stop offset="0" stop-color="#ffffff"/><stop offset="1" stop-color="#ffffff" stop-opacity="0"/></radialGradient><radialGradient cx="260.42043" cy="178.53228" r="36.23622" gradientUnits="userSpaceOnUse" id="color-2"><stop offset="0" stop-color="#ff8a00"/><stop offset="1" stop-color="#ffa100"/></radialGradient><radialGradient cx="228.85837" cy="149.92288" r="21.79637" gradientUnits="userSpaceOnUse" id="color-3"><stop offset="0" stop-color="#ffc600"/><stop offset="1" stop-color="#ffa100"/></radialGradient><radialGradient cx="222.74115" cy="159.61083" r="8.61008" gradientUnits="userSpaceOnUse" id="color-4"><stop offset="0" stop-color="#ffde00"/><stop offset="1" stop-color="#ffde00" stop-opacity="0"/></radialGradient></defs><g transform="translate(-197.79763,-137.79762)"><g data-paper-data="{&quot;isPaintingLayer&quot;:true}" fill-rule="nonzero" stroke-linecap="butt" stroke-linejoin="miter" stroke-miterlimit="10" stroke-dasharray="" stroke-dashoffset="0" style="mix-blend-mode: normal"><path d="M227.31133,143.14986c1.77729,1.60276 -1.27672,4.40216 -2.75618,6.04273c-1.47946,1.64058 -4.4693,3.26116 -6.24658,1.65842c-1.77729,-1.60276 -0.08207,-7.08392 1.39739,-8.7245c1.47946,-1.64058 5.82809,-0.5794 7.60537,1.02335z" fill="url(#color-1)" stroke="none" stroke-width="NaN"/><path d="M228.47167,220.58601c-22.41501,-6.36691 -35.42461,-29.69928 -29.05768,-52.11434c6.36692,-22.41501 29.6993,-35.42463 52.11431,-29.05768c22.41505,6.36692 35.42465,29.6993 29.05769,52.11433c-6.36691,22.41501 -29.6993,35.42463 -52.11433,29.05768z" fill="#9f2c00" stroke="none" stroke-width="0"/><path d="M274.89896,168.30475c2.28474,6.7974 2.61097,14.33195 0.50357,21.75122c-5.55378,19.55226 -25.9062,30.90031 -45.45847,25.34657c-10.87868,-3.09007 -19.21759,-10.76134 -23.51863,-20.32706c-3.42921,-7.62672 -4.29166,-16.4578 -1.82794,-25.1314c5.55378,-19.55226 25.90619,-30.90031 45.45848,-25.34657c12.13298,3.44634 21.10678,12.5912 24.84301,23.70726z" data-paper-data="{&quot;index&quot;:null}" fill="#ff6700" stroke="#ffffff" stroke-width="0"/><path d="M249.62005,144.83337c6.89464,1.95839 12.73868,5.68937 17.15261,10.53619c4.09808,4.49993 6.25899,7.8757 7.58777,13.77353c0.51812,2.29984 1.31582,8.66039 0.20087,13.307c-1.94392,7.60908 -1.77482,6.47042 -4.9182,12.59927c-4.32753,6.18941 -4.36463,6.24746 -9.38696,10.34675c-4.63422,3.48992 -6.72284,4.54421 -10.59786,6.2196c-3.83532,1.01499 -5.79675,2.11635 -12.03731,2.14532c-7.01837,-0.32395 -7.05791,-0.47952 -10.50503,-1.57051c-4.89601,-1.03801 -5.66586,-2.99626 -10.05398,-4.49362c-10.87731,-8.70615 -16.26624,-23.39137 -12.13231,-37.94515c5.45992,-19.22193 25.4685,-30.37821 44.69044,-24.91833z" data-paper-data="{&quot;index&quot;:null}" fill="url(#color-2)" stroke="#ffffff" stroke-width="0"/><path d="M213.21299,173.09972c-2.19945,-11.83516 5.61181,-23.21245 17.44697,-25.41192c11.83516,-2.19945 23.21247,5.61181 25.41193,17.44696c2.19945,11.83516 -5.61178,23.21247 -17.44696,25.41193c-11.83516,2.19945 -23.21247,-5.61182 -25.41194,-17.44698z" fill="url(#color-3)" stroke="#9f2c00" stroke-width="0"/><path d="M268.99858,156.29967c0,0 -3.46221,1.9796 -3.8952,2.16575c-7.88527,6.25864 -19.30682,21.03423 -25.5201,29.14323c-6.99716,5.57311 -10.88423,5.5509 -19.45807,3.20815c-0.17116,1.50348 -0.28722,3.00717 -0.33506,4.50664c3.65907,1.43701 7.49498,2.50495 11.81705,3.71099c11.06567,3.14839 27.42972,-0.27032 37.87668,-5.22187c0.47211,-0.13835 6.1376,-2.68551 6.1376,-2.68551l-1.28289,3.37945c-0.45215,0.1311 -3.60988,1.56879 -4.06206,1.6999c-10.9717,5.1364 -27.58062,7.85445 -39.36853,5.28949c-4.03163,-1.16982 -7.66431,-2.19772 -11.12774,-3.4875c0.03512,1.3618 0.13352,2.71787 0.30524,4.06483c5.87729,1.07192 11.85542,2.75141 16.86808,5.3611c3.68132,1.93534 6.24716,4.89722 10.20315,6.45323l5.2509,1.0036l-4.61379,1.31926c-4.26732,-1.21212 -8.10936,-4.56677 -11.96527,-6.55219c-4.6015,-2.39714 -10.06325,-3.96979 -15.477,-5.00107c0.05445,1.00647 0.15437,1.95323 0.405,2.9789l2.18563,5.17302l-3.12514,-2.07365c-0.38446,-1.52395 -1.88123,-4.96852 -1.94106,-6.51417c-1.95304,-0.31682 -4.08133,-0.62475 -5.9416,-0.82377l-2.02396,-2.7011c1.66644,0.17824 5.89784,0.6797 7.63814,0.94949c-0.17006,-1.53144 -0.25036,-3.07476 -0.25464,-4.62492c-3.75689,-1.59354 -8.60193,-3.11133 -12.39183,-6.13251l-0.7066,-3.31896c3.30048,2.63104 9.9178,5.26042 13.16596,6.73031c0.07365,-1.43682 0.20537,-2.87695 0.38418,-4.31657c-0.42868,-0.18364 -0.85891,-0.38634 -1.29082,-0.60886c-8.94943,-4.28953 -11.00433,-10.33325 -9.97823,-20.15344c0,0 0.93526,-5.67564 1.59118,-6.69406c0.61314,-0.95195 2.20211,-3.62623 2.20211,-3.62623l-2.0339,10.52756c-0.78024,8.9313 1.1969,13.81639 9.3091,17.70459c0.18941,0.09993 0.37839,0.19534 0.56698,0.28633c0.94088,-5.85447 2.55733,-11.66031 4.11892,-17.15125c2.77384,-8.18217 6.75622,-21.4776 14.85814,-26.29507c0.53772,-0.31975 2.3526,-0.4617 2.93182,-0.70359l2.80465,0.19803l-3.36402,1.51177c-8.45579,3.54715 -12.28041,18.31401 -14.8966,26.02179c-1.57678,5.55829 -3.21372,11.42712 -4.10984,17.33684c7.8667,2.37962 12.03422,1.89268 18.46005,-3.05406c6.13479,-8.27615 16.98088,-22.74581 24.99102,-28.96339c0.23548,-0.10484 3.34897,-1.73399 3.34897,-1.73399c0,0 1.45395,1.8422 1.74318,1.7135z" data-paper-data="{&quot;index&quot;:null}" fill="#9f2c00" stroke="#9f2c00" stroke-width="1"/><path d="M233.75736,163.66579c-1.29903,4.57325 -6.0594,7.22753 -10.63264,5.92851c-4.57325,-1.29903 -7.22753,-6.05941 -5.92851,-10.63265c1.29903,-4.57329 6.05943,-7.22755 10.63266,-5.92854c4.57327,1.29903 7.22755,6.05941 5.92852,10.63267z" data-paper-data="{&quot;index&quot;:null}" fill="url(#color-4)" stroke="none" stroke-width="0"/></g></g></svg>