<svg version="1.1" xmlns="http://www.w3.org/2000/svg" xmlns:xlink="http://www.w3.org/1999/xlink" width="206.91171" height="172.50523" viewBox="0,0,206.91171,172.50523"><defs><radialGradient cx="199.61251" cy="203.75805" r="1.89469" gradientUnits="userSpaceOnUse" id="color-1"><stop offset="0" stop-color="#ffffff"/><stop offset="1" stop-color="#ffffff" stop-opacity="0"/></radialGradient><radialGradient cx="217.17855" cy="217.10825" r="15.84376" gradientUnits="userSpaceOnUse" id="color-2"><stop offset="0" stop-color="#ff8a00"/><stop offset="1" stop-color="#ffa100"/></radialGradient><radialGradient cx="203.3785" cy="204.59921" r="9.53015" gradientUnits="userSpaceOnUse" id="color-3"><stop offset="0" stop-color="#ffc600"/><stop offset="1" stop-color="#ffa100"/></radialGradient><radialGradient cx="200.70383" cy="208.83513" r="3.76463" gradientUnits="userSpaceOnUse" id="color-4"><stop offset="0" stop-color="#ffde00"/><stop offset="1" stop-color="#ffde00" stop-opacity="0"/></radialGradient></defs><g transform="translate(-136.54414,-93.74739)"><g data-paper-data="{&quot;isPaintingLayer&quot;:true}" stroke-miterlimit="10" stroke-dasharray="" stroke-dashoffset="0" style="mix-blend-mode: normal"><g><path d="M142.11238,96.82576l195.8506,0.16771l-0.78765,165.91357l-195.13832,0.26723z" data-paper-data="{&quot;origRot&quot;:0,&quot;index&quot;:null}" fill="#000000" fill-rule="evenodd" stroke="#000000" stroke-width="4" stroke-linecap="round" stroke-linejoin="round" opacity="0.42445"/><path d="M142.11238,96.82576l195.8506,0.16771l-0.78765,165.91357l-195.13832,0.26723z" data-paper-data="{&quot;origRot&quot;:0,&quot;index&quot;:null}" fill="#000000" fill-rule="evenodd" stroke="#000000" stroke-width="5" stroke-linecap="round" stroke-linejoin="round" opacity="0.42445"/><path d="M139.04414,263.75262v-167.50523h201.91171v167.50523z" fill="none" fill-rule="nonzero" stroke="#333333" stroke-width="5" stroke-linecap="butt" stroke-linejoin="miter"/></g><text transform="translate(198.03919,115.57462) scale(0.33643,0.33643)" font-size="40" xml:space="preserve" fill="#ffffff" fill-rule="nonzero" stroke="none" stroke-width="1" stroke-linecap="butt" stroke-linejoin="miter" stroke-miterlimit="10" stroke-dasharray="" stroke-dashoffset="0" font-family="Sans Serif" font-weight="normal" text-anchor="start" style="mix-blend-mode: normal"><tspan x="0" dy="0">AUTO MODE</tspan></text><text transform="translate(155.79468,254.75975) scale(0.24522,0.24522)" font-size="40" xml:space="preserve" fill="#ffffff" fill-rule="nonzero" stroke="none" stroke-width="1" stroke-linecap="butt" stroke-linejoin="miter" stroke-miterlimit="10" stroke-dasharray="" stroke-dashoffset="0" font-family="Sans Serif" font-weight="normal" text-anchor="start" style="mix-blend-mode: normal"><tspan x="0" dy="0">CLICK TO SWITCH TO THE NEXT PAGE</tspan></text><text transform="translate(147.39314,135.13024) scale(0.26864,0.26864)" font-size="40" xml:space="preserve" fill="#ffffff" fill-rule="nonzero" stroke="none" stroke-width="1" stroke-linecap="butt" stroke-linejoin="miter" stroke-miterlimit="10" stroke-dasharray="" stroke-dashoffset="0" font-family="Sans Serif" font-weight="normal" text-anchor="start" style="mix-blend-mode: normal"><tspan x="0" dy="0">LOL, BYE A CAN OF PEPSI OR COKE,</tspan><tspan x="0" dy="46.150000000000006px">SIT ON A CHAIR AND SWITCH ON </tspan><tspan x="0" dy="46.150000000000006px">AUTO PLAY  WHICH IS IN THE </tspan><tspan x="0" dy="46.150000000000006px">SETTINGS. SEE WHAT HAPPENS. XD</tspan><tspan x="0" dy="46.150000000000006px">( HIGHSCORES WON'T BE COUNTED)</tspan></text><g fill-rule="nonzero" stroke-linecap="butt" stroke-linejoin="miter"><path d="M202.70206,201.63781c0.77709,0.70078 -0.55823,1.92478 -1.2051,2.6421c-0.64687,0.71732 -1.95414,1.42589 -2.73123,0.72512c-0.77709,-0.70078 -0.03588,-3.09734 0.61099,-3.81466c0.64687,-0.71732 2.54825,-0.25333 3.32534,0.44744z" fill="url(#color-1)" stroke="none" stroke-width="NaN"/><path d="M203.2094,235.49564c-9.80064,-2.78384 -15.4889,-12.98558 -12.70505,-22.78624c2.78384,-9.80064 12.98559,-15.4889 22.78622,-12.70505c9.80065,2.78384 15.48891,12.98559 12.70505,22.78623c-2.78384,9.80064 -12.98559,15.4889 -22.78623,12.70505z" fill="#9f2c00" stroke="none" stroke-width="0"/><path d="M223.50908,212.63642c0.99897,2.97206 1.14161,6.26644 0.22018,9.5104c-2.42831,8.54894 -11.32711,13.51071 -19.87605,11.08242c-4.75654,-1.35109 -8.40261,-4.70524 -10.28318,-8.88771c-1.49937,-3.33467 -1.87647,-7.19593 -0.79924,-10.98834c2.42831,-8.54894 11.3271,-13.51071 19.87606,-11.08242c5.30497,1.50686 9.22863,5.50532 10.86224,10.36565z" data-paper-data="{&quot;index&quot;:null}" fill="#ff6700" stroke="#ffffff" stroke-width="0"/><path d="M212.45624,202.3739c3.01458,0.85628 5.5698,2.48759 7.49973,4.6068c1.79183,1.96753 2.73665,3.44354 3.31764,6.02228c0.22654,1.00557 0.57532,3.78663 0.08783,5.81829c-0.84995,3.32696 -0.77601,2.8291 -2.15041,5.50885c-1.89215,2.70623 -1.90837,2.73161 -4.10431,4.52397c-2.02625,1.52592 -2.93946,1.98689 -4.63376,2.71943c-1.67694,0.44379 -2.53454,0.92534 -5.26314,0.93801c-3.06868,-0.14164 -3.08597,-0.20966 -4.59317,-0.68668c-2.14071,-0.45385 -2.47731,-1.31007 -4.39596,-1.96477c-4.75595,-3.80664 -7.11218,-10.22754 -5.30468,-16.59097c2.38727,-8.40451 11.13573,-13.28243 19.54024,-10.89518z" data-paper-data="{&quot;index&quot;:null}" fill="url(#color-2)" stroke="#ffffff" stroke-width="0"/><path d="M196.53776,214.73295c-0.96168,-5.17475 2.45368,-10.14931 7.62843,-11.11099c5.17475,-0.96168 10.14931,2.45368 11.111,7.62843c0.96168,5.17475 -2.45367,10.14931 -7.62843,11.111c-5.17475,0.96168 -10.14931,-2.45369 -11.111,-7.62844z" fill="url(#color-3)" stroke="#9f2c00" stroke-width="0"/><path d="M220.92922,207.38737c0,0 -1.5138,0.86555 -1.70312,0.94694c-3.44772,2.7365 -8.44163,9.19691 -11.15829,12.74245c-3.05941,2.43676 -4.75897,2.42705 -8.50776,1.40272c-0.07484,0.65737 -0.12558,1.31484 -0.1465,1.97046c1.59988,0.62831 3.27707,1.09525 5.16683,1.62258c4.8383,1.37659 11.99325,-0.11819 16.56103,-2.28319c0.20642,-0.06049 2.68358,-1.1742 2.68358,-1.1742l-0.56092,1.47762c-0.1977,0.05732 -1.57837,0.68593 -1.77608,0.74326c-4.79722,2.24582 -12.05923,3.43424 -17.21332,2.31275c-1.76277,-0.51149 -3.35111,-0.96092 -4.86544,-1.52486c0.01536,0.59543 0.05838,1.18835 0.13346,1.77729c2.56976,0.46868 5.18361,1.20301 7.37532,2.34406c1.6096,0.8462 2.73148,2.14124 4.46118,2.82158l2.29588,0.43881l-2.01731,0.57683c-1.86582,-0.52998 -3.5457,-1.99675 -5.23164,-2.86485c-2.01194,-1.04811 -4.40001,-1.73573 -6.76709,-2.18665c0.02381,0.44006 0.0675,0.85402 0.17708,1.30248l0.95563,2.26183l-1.36642,-0.90667c-0.1681,-0.66632 -0.82254,-2.17241 -0.8487,-2.84823c-0.85394,-0.13852 -1.7845,-0.27316 -2.59788,-0.36018l-0.88495,-1.18102c0.72863,0.07793 2.57874,0.29719 3.33967,0.41515c-0.07436,-0.6696 -0.10947,-1.34439 -0.11134,-2.02218c-1.64265,-0.69675 -3.76107,-1.36038 -5.41815,-2.68135l-0.30895,-1.45117c1.44309,1.15038 4.33641,2.30004 5.75662,2.94273c0.0322,-0.62823 0.0898,-1.2579 0.16798,-1.88736c-0.18743,-0.08029 -0.37555,-0.16892 -0.56439,-0.26622c-3.91301,-1.87553 -4.81148,-4.51806 -4.36284,-8.8118c0,0 0.40893,-2.48159 0.69572,-2.92688c0.26809,-0.41623 0.96284,-1.58552 0.96284,-1.58552l-0.88929,4.60302c-0.34115,3.90508 0.52333,6.04102 4.07027,7.74107c0.08282,0.04369 0.16545,0.08541 0.2479,0.12519c0.41139,-2.55978 1.11816,-5.0983 1.80094,-7.49913c1.21282,-3.57753 2.95406,-9.39077 6.49651,-11.49714c0.23511,-0.13981 1.02864,-0.20187 1.2819,-0.30763l1.22629,0.08659l-1.47087,0.661c-3.69717,1.55094 -5.36943,8.00753 -6.51332,11.37765c-0.68942,2.43028 -1.40515,4.99634 -1.79697,7.58028c3.4396,1.04045 5.26179,0.82755 8.07139,-1.33534c2.68235,-3.61863 7.42464,-9.94527 10.92696,-12.66382c0.10296,-0.04584 1.46429,-0.75816 1.46429,-0.75816c0,0 0.63572,0.80548 0.76218,0.7492z" data-paper-data="{&quot;index&quot;:null}" fill="#9f2c00" stroke="#9f2c00" stroke-width="1"/><path d="M205.52051,210.6081c-0.56798,1.99959 -2.64938,3.16013 -4.64897,2.59215c-1.99959,-0.56798 -3.16013,-2.64939 -2.59215,-4.64897c0.56798,-1.9996 2.6494,-3.16014 4.64898,-2.59217c1.9996,0.56798 3.16014,2.64939 2.59216,4.64898z" data-paper-data="{&quot;index&quot;:null}" fill="url(#color-4)" stroke="none" stroke-width="0"/></g><g fill="none" fill-rule="nonzero" stroke-linecap="round" stroke-linejoin="miter"><path d="M253.61601,199.07762c0,0 3.61369,7.26801 4.4291,11.90562c1.1461,6.51844 1.79971,23.52076 1.79971,23.52076" stroke="#eeeeee" stroke-width="4"/><path d="M284.38136,234.12529c0,0 0.65361,-17.00231 1.79971,-23.52076c0.8154,-4.63761 4.4291,-11.90562 4.4291,-11.90562" data-paper-data="{&quot;index&quot;:null}" stroke="#eeeeee" stroke-width="4"/><path d="M265.68433,198.29902l2.33581,6.61812l-8.95392,6.61811" stroke="#eeeeee" stroke-width="4"/><path d="M267.63084,204.13853l16.73994,17.90784l-8.17532,11.67902l-17.12924,-19.07574" stroke="#eeeeee" stroke-width="4"/><path d="M255.17321,202.58133l28.41896,28.41896" stroke="#eeeeee" stroke-width="4"/><path d="M278.14196,198.29902l-0.7786,6.22881l-17.90784,17.51854" stroke="#eeeeee" stroke-width="4"/><path d="M276.97405,204.52783l8.17532,7.78602l-18.29714,21.41154l-7.00741,-8.56462" stroke="#eeeeee" stroke-width="4"/><path d="M288.65308,201.75886l-28.41896,30.02003" stroke="#eeeeee" stroke-width="4"/><path d="M294.00001,196.37635h-42.5" stroke="#d9652a" stroke-width="5.5"/><path d="M270.78432,245.38237l-0.60369,-47.57494" stroke="none" stroke-width="0"/><path d="M274.03889,245.52719l-0.60369,-47.57494" stroke="none" stroke-width="0"/><path d="M281.31023,245.54243l-0.60369,-47.57494" stroke="none" stroke-width="0"/><path d="M286.42301,197.98273l0.60369,47.57494" stroke="none" stroke-width="0"/><path d="M258.66542,243.75889l-0.60369,-47.57494" stroke="none" stroke-width="0"/><path d="M261.3163,197.75407l0.60369,47.57494" stroke="none" stroke-width="0"/><path d="M265.04499,248.45401l-0.60369,-47.57494" stroke="none" stroke-width="0"/><path d="M263.62886,244.03328l-1.55953,-47.57494" stroke="none" stroke-width="0"/><path d="M263.016,197.63975l0.60369,47.57494" stroke="none" stroke-width="0"/><path d="M260.3956,245.48907l-0.60369,-47.57494" stroke="none" stroke-width="0"/><path d="M258.2081,244.98602l-0.60369,-47.57494" stroke="none" stroke-width="0"/><g stroke="none" stroke-width="0"><path d="M271.50841,245.71773l-0.60369,-47.57494"/><path d="M274.76298,247.28785l-0.60369,-47.57494"/><path d="M276.47184,245.99212l-1.55953,-47.57494"/><path d="M276.46267,247.17352l-0.60369,-47.57494"/><path d="M272.6349,199.87298l0.60369,47.57494"/><path d="M271.05109,246.94487l-0.60369,-47.57494"/></g><g stroke="none" stroke-width="0"><path d="M279.86051,198.15803l0.60369,47.57494"/><path d="M283.11508,199.72816l0.60369,47.57494"/><path d="M283.86811,198.43243l1.55953,47.57494"/><path d="M284.81478,199.61383l0.60369,47.57494"/><path d="M282.19437,247.46316l-0.60369,-47.57494"/><path d="M280.00687,246.96011l-0.60369,-47.57494"/></g><g stroke="none" stroke-width="0"><path d="M278.1913,196.48883l0.60369,47.57494"/><path d="M281.44588,198.05895l0.60369,47.57494"/><path d="M283.75843,244.33815l-1.55953,-47.57494"/><path d="M283.74926,245.51956l-0.60369,-47.57494"/><path d="M280.52517,245.79395l-0.60369,-47.57494"/><path d="M277.73398,197.71596l0.60369,47.57494"/></g><g stroke="none" stroke-width="0"><path d="M268.54346,245.34425l-0.60369,-47.57494"/><path d="M271.79803,246.91437l-0.60369,-47.57494"/><path d="M271.94737,198.0437l1.55953,47.57494"/><path d="M273.49773,246.80005l-0.60369,-47.57494"/><path d="M269.66996,199.4995l0.60369,47.57494"/><path d="M267.48246,198.99645l0.60369,47.57494"/></g></g></g></g></svg>