<svg version="1.1" xmlns="http://www.w3.org/2000/svg" xmlns:xlink="http://www.w3.org/1999/xlink" width="84.17293" height="82.91838" viewBox="0,0,84.17293,82.91838"><defs><radialGradient cx="232.69762" cy="175.82722" r="41.08646" gradientUnits="userSpaceOnUse" id="color-1"><stop offset="0" stop-color="#ff6a00"/><stop offset="1" stop-color="#ff4343"/></radialGradient></defs><g transform="translate(-197.91354,-138.54081)"><g data-paper-data="{&quot;isPaintingLayer&quot;:true}" fill-rule="nonzero" stroke-linecap="butt" stroke-linejoin="miter" stroke-miterlimit="10" stroke-dasharray="" stroke-dashoffset="0" style="mix-blend-mode: normal"><path d="M281.08644,180c0,22.345 -18.39503,40.45919 -41.08646,40.45919c-22.69143,0 -41.08644,-18.11419 -41.08644,-40.45919c0,-22.345 18.39504,-40.45919 41.08647,-40.45919c22.69143,0 41.08646,18.11419 41.08646,40.45919z" fill="url(#color-1)" stroke="#ff0000" stroke-width="2"/><g fill="#ffffff" stroke="none" stroke-width="0"><path d="M231.15943,175.54293c0,0 8.47627,0.42279 8.75096,0.71705c0.41384,0.44335 -21.33336,28.68175 -22.8714,28.76764c-0.6416,0.03582 7.57414,-21.06198 7.19498,-21.70454c-0.35256,-0.59751 -6.1599,-0.52116 -6.1599,-0.53287c0,-0.54085 10.26696,-23.55364 10.26696,-23.55364c0,0 10.82668,-0.20129 16.709,-0.20129c6.41813,0 20.73527,0.60396 20.73527,0.60396l-6.64333,8.05252c0,0 -17.48945,0.56458 -22.49612,0.17252c-1.57705,-0.12349 -5.48643,7.67869 -5.48643,7.67869z"/><path d="M237.19883,182.9915l5.23415,-6.84461h11.27355l-5.83808,6.84461z"/></g></g></g></svg>