<svg version="1.1" xmlns="http://www.w3.org/2000/svg" xmlns:xlink="http://www.w3.org/1999/xlink" width="60" height="65.6029" viewBox="0,0,60,65.6029"><g transform="translate(-210,-146.94729)"><g data-paper-data="{&quot;isPaintingLayer&quot;:true}" fill-rule="nonzero" stroke-linecap="butt" stroke-linejoin="miter" stroke-miterlimit="10" stroke-dasharray="" stroke-dashoffset="0" style="mix-blend-mode: normal"><path d="M210,199.14729c0,-7.04774 0,-31.40226 0,-44.2c0,-4.81949 3.05034,-8 7.7,-8c12.62451,0 37.03921,0 44.2,0c3.87081,0 8.1,3.00621 8.1,7.6c0,12.6245 0,37.2391 0,44.4c0,3.83078 -3.40007,8 -8.5,8c-13.01549,0 -37.10248,0 -44,0c-3.62854,0 -7.5,-4.0497 -7.5,-7.8z" fill="#d1d1d1" stroke="none" stroke-width="0"/><path d="M215.57804,204.175c0.08847,-4.6005 4.04058,-8.05913 7.98013,-8.05913c5.79891,0 22.44949,0 32.71065,0c4.9794,0 8.13815,3.24293 8.13815,7.90112c0,4.6582 -3.15609,8.5332 -8.13815,8.5332c-10.36204,0 -27.25579,0 -33.0267,0c-3.82167,0 -7.75257,-3.7747 -7.66408,-8.3752z" fill="#3be690" stroke="none" stroke-width="0.5"/><text transform="translate(221.83022,208.375) scale(0.27248,0.27248)" font-size="40" xml:space="preserve" fill="#ffffff" fill-rule="nonzero" stroke="none" stroke-width="1" stroke-linecap="butt" stroke-linejoin="miter" stroke-miterlimit="10" stroke-dasharray="" stroke-dashoffset="0" font-family="Sans Serif" font-weight="normal" text-anchor="start" style="mix-blend-mode: normal"><tspan x="0" dy="0">USING</tspan></text><g><path d="M243.509,168.04227c0,-1.89735 1.53814,-3.43552 3.43552,-3.43552c1.89735,0 3.43552,1.53814 3.43552,3.43552c0,1.89735 -1.53814,3.43552 -3.43552,3.43552c-1.89735,0 -3.43552,-1.53814 -3.43552,-3.43552z" fill="#ffa3a3" stroke="none" stroke-width="1.5"/><path d="M221.53601,175.05645c0,-10.11938 8.20337,-18.32275 18.32275,-18.32275c10.11938,0 18.32275,8.20337 18.32275,18.32275c0,10.11938 -8.20337,18.32275 -18.32275,18.32275c-10.11938,0 -18.32275,-8.20337 -18.32275,-18.32275z" fill="#5559c7" stroke="#000000" stroke-width="1.5"/><path d="M224.47052,174.34073c0,-8.85447 7.04977,-16.0324 15.74613,-16.0324c8.69635,0 15.74613,7.17794 15.74613,16.0324c0,8.85447 -7.04977,16.0324 -15.74613,16.0324c-8.69635,0 -15.74613,-7.17794 -15.74613,-16.0324z" fill="#5b8ec7" stroke="none" stroke-width="1.5"/><path d="M232.0567,171.76237c0,-6.08745 4.93484,-11.0223 11.0223,-11.0223c6.08745,0 11.0223,4.93484 11.0223,11.0223c0,6.08745 -4.93484,11.0223 -11.0223,11.0223c-6.08745,0 -11.0223,-4.93484 -11.0223,-11.0223z" fill="#6aa4e6" stroke="none" stroke-width="1.5"/><g stroke="#ab671a" stroke-width="0"><path d="M225.96401,183.73834l14.34707,-4.06297l4.24278,4.24279z" data-paper-data="{&quot;index&quot;:null}" fill="#39e2e6"/><path d="M253.4698,166.21266l-13.36238,3.87772l-3.97486,-4.02845z" fill="#39e2e6"/><path d="M236.05206,166.02209l13.23396,13.23396l-4.7855,4.7855l-13.23397,-13.23396z" fill="#39c0e6"/></g></g></g></g></svg>