<svg version="1.1" xmlns="http://www.w3.org/2000/svg" xmlns:xlink="http://www.w3.org/1999/xlink" width="77.40741" height="45.25" viewBox="0,0,77.40741,45.25"><g transform="translate(-201.2963,-157.375)"><g data-paper-data="{&quot;isPaintingLayer&quot;:true}" fill-rule="nonzero" stroke="none" stroke-linejoin="miter" stroke-miterlimit="10" stroke-dasharray="" stroke-dashoffset="0" style="mix-blend-mode: normal"><path d="M201.2963,193.3361c0,-4.39505 0,-14.71375 0,-22.16296c0,-4.84363 2.88562,-8.47407 7.4963,-8.47407c15.96502,0 52.61305,0 61.76296,0c4.04476,0 8.14815,4.96987 8.14815,8.8c0,4.33755 0,14.73746 0,22.32593c0,5.0136 -4.19717,8.8 -8.31111,8.8c-9.26163,0 -46.18335,0 -61.92593,0c-4.41995,0 -7.17037,-5.29529 -7.17037,-9.28889z" fill="#ff7408" stroke-width="0" stroke-linecap="butt"/><path d="M201.2963,188.01203c0,-4.39505 0,-14.71375 0,-22.16296c0,-4.84363 2.88562,-8.47407 7.4963,-8.47407c15.96502,0 52.61305,0 61.76296,0c4.04476,0 8.14815,4.96987 8.14815,8.8c0,4.33755 0,14.73746 0,22.32593c0,5.01361 -4.19716,8.8 -8.31111,8.8c-9.26163,0 -46.18335,0 -61.92593,0c-4.41994,0 -7.17037,-5.29529 -7.17037,-9.28889z" fill="#ffa208" stroke-width="0" stroke-linecap="butt"/><path d="M205.87811,184.57383c-0.83292,0 -1.24938,-0.40922 -1.24938,-1.22766v-6.68149c0,-0.82568 0.41646,-1.23852 1.24938,-1.23852h4.4c0.62288,0 0.93432,0.3042 0.93432,0.91259c0,0.62288 -0.31144,0.93432 -0.93432,0.93432h-3.35704v1.73827h3.07457c0.62288,0 0.93432,0.30782 0.93432,0.92346c0,0.6084 -0.31144,0.91259 -0.93432,0.91259h-3.07457v1.87951h3.35704c0.62288,0 0.93432,0.30782 0.93432,0.92346c0,0.61564 -0.31144,0.92346 -0.93432,0.92346zM213.4149,184.69334c-0.3042,0 -0.5577,-0.07967 -0.76049,-0.23901c-0.2028,-0.15934 -0.31868,-0.36576 -0.34765,-0.61926c-0.02173,-0.26074 0.06519,-0.52148 0.26074,-0.78222l2.35753,-3.0963l-2.27062,-2.99852c-0.2028,-0.26798 -0.28971,-0.5251 -0.26074,-0.77136c0.02897,-0.2535 0.14123,-0.46354 0.33679,-0.63012c0.2028,-0.16659 0.4563,-0.24988 0.76049,-0.24988c0.2535,0 0.4744,0.06156 0.66272,0.18469c0.18831,0.12313 0.38025,0.31868 0.5758,0.58667l1.54272,2.15111l1.55358,-2.15111c0.18831,-0.27523 0.37662,-0.47078 0.56494,-0.58667c0.19556,-0.12313 0.41646,-0.18469 0.66272,-0.18469c0.31144,0 0.56494,0.08329 0.76049,0.24988c0.2028,0.15934 0.31506,0.36576 0.33679,0.61926c0.02897,0.2535 -0.05432,0.51424 -0.24988,0.78222l-2.27062,2.99852l2.33581,3.0963c0.21004,0.26074 0.29696,0.52148 0.26074,0.78222c-0.02897,0.2535 -0.14486,0.45992 -0.34765,0.61926c-0.19556,0.15934 -0.44906,0.23901 -0.76049,0.23901c-0.24625,0 -0.46354,-0.05794 -0.65185,-0.17383c-0.18831,-0.11588 -0.38025,-0.31506 -0.5758,-0.59753l-1.61877,-2.22716l-1.6079,2.22716c-0.2028,0.28247 -0.39835,0.48165 -0.58667,0.59753c-0.18831,0.11588 -0.40922,0.17383 -0.66272,0.17383zM222.81691,184.69334c-0.37662,0 -0.66996,-0.10502 -0.88,-0.31506c-0.21004,-0.21004 -0.31506,-0.51062 -0.31506,-0.90173v-6.94223c0,-0.39835 0.10502,-0.70255 0.31506,-0.91259c0.21004,-0.21004 0.50338,-0.31506 0.88,-0.31506c0.38387,0 0.6772,0.10502 0.88,0.31506c0.21004,0.21004 0.31506,0.51424 0.31506,0.91259v6.94223c0,0.39111 -0.1014,0.69169 -0.3042,0.90173c-0.2028,0.21004 -0.49975,0.31506 -0.89087,0.31506zM229.01524,184.69334c-0.37662,0 -0.66996,-0.10502 -0.88,-0.31506c-0.2028,-0.21004 -0.3042,-0.507 -0.3042,-0.89087v-6.11655h-2.04247c-0.65909,0 -0.98864,-0.3223 -0.98864,-0.96691c0,-0.65185 0.32955,-0.97778 0.98864,-0.97778h6.4642c0.65909,0 0.98864,0.32593 0.98864,0.97778c0,0.64461 -0.32955,0.96691 -0.98864,0.96691h-2.04247v6.11655c0,0.38387 -0.1014,0.68082 -0.3042,0.89087c-0.2028,0.21004 -0.49975,0.31506 -0.89087,0.31506zM242.40453,184.71507c-1.04296,0 -1.93021,-0.19193 -2.66173,-0.5758c-0.73152,-0.39111 -1.28922,-0.93794 -1.67309,-1.6405c-0.37662,-0.70255 -0.56494,-1.52099 -0.56494,-2.45531c0,-0.96329 0.19918,-1.79984 0.59753,-2.50963c0.4056,-0.71704 0.98502,-1.27111 1.73827,-1.66222c0.75325,-0.39111 1.66222,-0.58667 2.72692,-0.58667c0.42733,0 0.86551,0.04346 1.31457,0.13037c0.44906,0.07967 0.89087,0.23177 1.32543,0.4563c0.22453,0.1014 0.37662,0.24625 0.4563,0.43457c0.08691,0.18107 0.11588,0.37662 0.08691,0.58667c-0.02897,0.21004 -0.10502,0.39473 -0.22815,0.55407c-0.12313,0.15934 -0.28247,0.27161 -0.47803,0.33679c-0.19556,0.05794 -0.41646,0.02897 -0.66272,-0.08691c-0.53597,-0.24625 -1.13712,-0.36938 -1.80346,-0.36938c-0.87638,0 -1.52823,0.23539 -1.95556,0.70617c-0.42733,0.46354 -0.64099,1.1335 -0.64099,2.00988c0,0.88362 0.21366,1.54996 0.64099,1.99901c0.43457,0.44906 1.07556,0.67358 1.92297,0.67358c0.39835,0 0.84379,-0.05794 1.3363,-0.17383v-1.44494h-0.90173c-0.61564,0 -0.92346,-0.28247 -0.92346,-0.84741c0,-0.55045 0.30782,-0.82568 0.92346,-0.82568h1.92297c0.61564,0 0.92346,0.31144 0.92346,0.93432v2.86815c0,0.26074 -0.05432,0.48165 -0.16296,0.66272c-0.1014,0.18107 -0.27161,0.31144 -0.51062,0.39111c-0.41284,0.13761 -0.85465,0.24264 -1.32543,0.31506c-0.47078,0.07967 -0.94519,0.11951 -1.42321,0.11951zM247.85747,184.69334c-0.4056,0 -0.70617,-0.13761 -0.90173,-0.41284c-0.18831,-0.28247 -0.18831,-0.63012 0,-1.04296l3.23753,-6.95309c0.1521,-0.34041 0.34041,-0.58667 0.56494,-0.73877c0.22453,-0.15934 0.48889,-0.23901 0.79309,-0.23901c0.29696,0 0.5577,0.07967 0.78222,0.23901c0.22453,0.1521 0.41284,0.39835 0.56494,0.73877l3.23753,6.95309c0.19556,0.42733 0.2028,0.7786 0.02173,1.05383c-0.18107,0.26798 -0.46716,0.40198 -0.85827,0.40198c-0.34765,0 -0.61564,-0.07605 -0.80395,-0.22815c-0.18107,-0.15934 -0.34403,-0.41284 -0.48889,-0.76049l-0.41284,-0.98864h-4.09581l-0.41284,0.98864c-0.1521,0.34765 -0.31144,0.60115 -0.47803,0.76049c-0.16659,0.1521 -0.41646,0.22815 -0.74963,0.22815zM251.52958,177.91407l-1.24938,2.97679h2.5205l-1.24938,-2.97679zM258.42859,184.69334c-0.34765,0 -0.61564,-0.09416 -0.80395,-0.28247c-0.18107,-0.19556 -0.27161,-0.46716 -0.27161,-0.81482v-7.19211c0,-0.3549 0.09778,-0.6265 0.29333,-0.81482c0.2028,-0.18831 0.48527,-0.28247 0.84741,-0.28247c0.28971,0 0.5251,0.06156 0.70617,0.18469c0.18831,0.11588 0.3549,0.30782 0.49975,0.5758l2.55309,4.60642l2.55309,-4.60642c0.15934,-0.26798 0.32593,-0.45992 0.49975,-0.5758c0.18107,-0.12313 0.4237,-0.18469 0.7279,-0.18469c0.33317,0 0.59391,0.09416 0.78222,0.28247c0.19556,0.18831 0.29333,0.45992 0.29333,0.81482v7.19211c0,0.34765 -0.09054,0.61926 -0.27161,0.81482c-0.18107,0.18831 -0.44906,0.28247 -0.80395,0.28247c-0.34765,0 -0.61564,-0.09416 -0.80395,-0.28247c-0.18831,-0.19556 -0.28247,-0.46716 -0.28247,-0.81482v-3.98716l-1.81432,3.16148c-0.11588,0.18831 -0.24264,0.33317 -0.38025,0.43457c-0.13037,0.09416 -0.30782,0.14123 -0.53235,0.14123c-0.21728,0 -0.39835,-0.04708 -0.54321,-0.14123c-0.13761,-0.1014 -0.26074,-0.24625 -0.36938,-0.43457l-1.80346,-3.11803v3.94371c0,0.34765 -0.09054,0.61926 -0.27161,0.81482c-0.18107,0.18831 -0.44906,0.28247 -0.80395,0.28247zM270.03695,184.57383c-0.83292,0 -1.24938,-0.40922 -1.24938,-1.22766v-6.68149c0,-0.82568 0.41646,-1.23852 1.24938,-1.23852h4.4c0.62288,0 0.93432,0.3042 0.93432,0.91259c0,0.62288 -0.31144,0.93432 -0.93432,0.93432h-3.35704v1.73827h3.07457c0.62288,0 0.93432,0.30782 0.93432,0.92346c0,0.6084 -0.31144,0.91259 -0.93432,0.91259h-3.07457v1.87951h3.35704c0.62288,0 0.93432,0.30782 0.93432,0.92346c0,0.61564 -0.31144,0.92346 -0.93432,0.92346z" fill="#ffffff" stroke-width="1" stroke-linecap="square"/></g></g></svg>