<svg version="1.1" xmlns="http://www.w3.org/2000/svg" xmlns:xlink="http://www.w3.org/1999/xlink" width="77.40741" height="45.25" viewBox="0,0,77.40741,45.25"><g transform="translate(-201.29629,-158.00001)"><g data-paper-data="{&quot;isPaintingLayer&quot;:true}" fill-rule="nonzero" stroke-linejoin="miter" stroke-miterlimit="10" stroke-dasharray="" stroke-dashoffset="0" style="mix-blend-mode: normal"><path d="M201.2963,193.96111c0,-4.39505 0,-14.71375 0,-22.16296c0,-4.84363 2.88562,-8.47407 7.4963,-8.47407c15.96502,0 52.61305,0 61.76296,0c4.04476,0 8.14815,4.96987 8.14815,8.8c0,4.33755 0,14.73746 0,22.32593c0,5.0136 -4.19717,8.8 -8.31111,8.8c-9.26163,0 -46.18335,0 -61.92593,0c-4.41995,0 -7.17037,-5.29529 -7.17037,-9.28889z" fill="#ff7408" stroke="none" stroke-width="0" stroke-linecap="butt"/><path d="M201.2963,188.63704c0,-4.39505 0,-14.71375 0,-22.16296c0,-4.84363 2.88562,-8.47407 7.4963,-8.47407c15.96502,0 52.61305,0 61.76296,0c4.04476,0 8.14815,4.96987 8.14815,8.8c0,4.33755 0,14.73746 0,22.32593c0,5.01361 -4.19716,8.8 -8.31111,8.8c-9.26163,0 -46.18335,0 -61.92593,0c-4.41994,0 -7.17037,-5.29529 -7.17037,-9.28889z" fill="#ffa208" stroke="none" stroke-width="0" stroke-linecap="butt"/><path d="M222.29006,171.40639l35.28255,0.26135l-3.13622,14.37437l-28.74875,-0.26135l-7.84057,-22.999" fill="none" stroke="#ffffff" stroke-width="2.5" stroke-linecap="round"/><path d="M228.82387,172.19044v11.76085" fill="none" stroke="#ffffff" stroke-width="2.5" stroke-linecap="round"/><path d="M236.80536,172.71314l-0.23573,12.0222" fill="none" stroke="#ffffff" stroke-width="2.5" stroke-linecap="round"/><path d="M243.72094,171.92909v12.28355" fill="none" stroke="#ffffff" stroke-width="2.5" stroke-linecap="round"/><path d="M251.0388,173.1065l-0.26135,11.4995" fill="none" stroke="#ffffff" stroke-width="2.5" stroke-linecap="round"/><path d="M253.12962,191.13847c0,2.09294 -1.69667,3.78961 -3.78961,3.78961c-2.09294,0 -3.7896,-1.69667 -3.7896,-3.78961c0,-2.09294 1.69666,-3.7896 3.7896,-3.7896c2.09294,0 3.78961,1.69666 3.78961,3.7896z" fill="none" stroke="#ffffff" stroke-width="1.5" stroke-linecap="butt"/><path d="M233.63685,191.05044c0,2.09294 -1.69667,3.78961 -3.78961,3.78961c-2.09294,0 -3.7896,-1.69667 -3.7896,-3.78961c0,-2.09294 1.69666,-3.7896 3.7896,-3.7896c2.09294,0 3.78961,1.69666 3.78961,3.7896z" fill="none" stroke="#ffffff" stroke-width="1.5" stroke-linecap="butt"/></g></g></svg>