<svg version="1.1" xmlns="http://www.w3.org/2000/svg" xmlns:xlink="http://www.w3.org/1999/xlink" width="60" height="65.6029" viewBox="0,0,60,65.6029"><g transform="translate(-210,-146.94729)"><g data-paper-data="{&quot;isPaintingLayer&quot;:true}" fill-rule="nonzero" stroke-miterlimit="10" stroke-dasharray="" stroke-dashoffset="0" style="mix-blend-mode: normal"><path d="M210,199.14729c0,-7.04774 0,-31.40226 0,-44.2c0,-4.81949 3.05034,-8 7.7,-8c12.62451,0 37.03921,0 44.2,0c3.87081,0 8.1,3.00621 8.1,7.6c0,12.6245 0,37.2391 0,44.4c0,3.83078 -3.40007,8 -8.5,8c-13.01549,0 -37.10248,0 -44,0c-3.62854,0 -7.5,-4.0497 -7.5,-7.8z" fill="#d1d1d1" stroke="none" stroke-width="0" stroke-linecap="butt" stroke-linejoin="miter"/><path d="M215.57804,204.175c0.08847,-4.6005 4.04058,-8.05913 7.98013,-8.05913c5.79891,0 22.44949,0 32.71065,0c4.9794,0 8.13815,3.24293 8.13815,7.90112c0,4.6582 -3.15609,8.5332 -8.13815,8.5332c-10.36204,0 -27.25579,0 -33.0267,0c-3.82167,0 -7.75257,-3.7747 -7.66408,-8.3752z" fill="#3be690" stroke="none" stroke-width="0.5" stroke-linecap="butt" stroke-linejoin="miter"/><text transform="translate(221.83022,208.375) scale(0.27248,0.27248)" font-size="40" xml:space="preserve" fill="#ffffff" fill-rule="nonzero" stroke="none" stroke-width="1" stroke-linecap="butt" stroke-linejoin="miter" stroke-miterlimit="10" stroke-dasharray="" stroke-dashoffset="0" font-family="Sans Serif" font-weight="normal" text-anchor="start" style="mix-blend-mode: normal"><tspan x="0" dy="0">USING</tspan></text><g><g stroke-width="1.5" stroke-linecap="butt" stroke-linejoin="miter"><path d="M222.66596,174.20898c0,-9.49532 7.69747,-17.19279 17.19279,-17.19279c9.49532,0 17.1928,7.69747 17.1928,17.19279c0,9.49532 -7.69748,17.19279 -17.1928,17.19279c-9.49532,0 -17.19279,-7.69747 -17.19279,-17.19279z" fill="#c75050" stroke="#000000"/><path d="M225.4195,173.5374c0,-8.30841 6.61502,-15.04369 14.77507,-15.04369c8.16004,0 14.77508,6.73529 14.77508,15.04369c0,8.30841 -6.61502,15.04369 -14.77508,15.04369c-8.16004,0 -14.77507,-6.73528 -14.77507,-15.04369z" fill="#ff6666" stroke="none"/><path d="M232.53785,171.11805c0,-5.71203 4.63052,-10.34256 10.34256,-10.34256c5.71204,0 10.34256,4.63052 10.34256,10.34256c0,5.71203 -4.63052,10.34255 -10.34256,10.34255c-5.71204,0 -10.34256,-4.63051 -10.34256,-10.34255z" fill="#ff8585" stroke="none"/></g><g><path d="M239.83709,184.36336c0,-0.3261 0.09147,-0.79454 0.59747,-0.90027c0.73001,-0.15314 1.56527,0.58607 1.79243,0.80356c-0.0168,0.08655 0.26726,1.83285 0.26726,1.98424c0,0.51188 -0.1368,0.53216 -0.18989,0.54057c-0.49983,0.07276 -1.83191,-1.32796 -2.44333,-2.14292c-0.00841,-0.04423 -0.02394,-0.14268 -0.02394,-0.28519v0z" fill="#ffc93e" stroke="#603813" stroke-width="1.32684" stroke-linecap="butt" stroke-linejoin="miter"/><path d="M237.81304,186.81032c-0.36237,-0.39315 -0.41405,-1.45857 -0.41405,-1.91179c0,-0.19231 0.00982,-0.32021 0.0103,-0.32418l0.00064,-0.00985c0,0 -0.00112,-0.04105 -0.00112,-0.05611c0,-0.85351 0.78581,-1.14978 0.91897,-1.19432c0.45496,0.00554 1.2414,0.22081 1.42909,0.54565c0.01902,0.03264 0.03678,0.07386 0.03678,0.12664c0,0.0463 -0.01379,0.10242 -0.0531,0.17011c-0.01824,0.03106 -0.34132,0.79453 -0.6146,1.37996l-0.19529,0.54136c-0.14616,0.47303 -0.37617,0.94639 -0.6265,0.94639c-0.19782,0.00031 -0.35843,-0.06975 -0.49112,-0.21386z" fill="#ffc93e" stroke="#603813" stroke-width="1.32684" stroke-linecap="butt" stroke-linejoin="miter"/><path d="M248.06178,180.62281l-0.35334,-0.62346c-0.38696,-0.67389 -0.834,-1.29088 -1.22825,-1.83399c-0.50681,-0.69955 -0.94781,-1.42338 -1.09382,-1.93478c-0.05264,-0.18421 -0.02726,-0.36 0.04851,-0.45718c0.00729,-0.02616 0.08371,-0.06784 0.13759,-0.07896c0.64933,-0.14029 3.3371,1.40277 4.00767,2.22759c0.98237,1.20796 1.37518,2.90243 1.15611,3.75591c-0.08989,0.34875 -0.2909,0.59589 -0.58194,0.71353c-0.74397,0.30055 -1.23332,-0.24191 -2.09253,-1.76866v0z" fill="#ffc93e" stroke="#603813" stroke-width="1.32684" stroke-linecap="butt" stroke-linejoin="miter"/><path d="M237.48157,168.71481c0.95417,-0.51854 -0.03058,-2.47093 -0.98332,-4.35957c-0.52074,-1.03265 -1.44938,-2.77672 -1.14756,-2.94016c0.58385,-0.31642 3.37309,2.97519 4.50384,4.30186l1.15263,1.31291c0,0 0.82402,1.0109 1.45461,1.67767c0.01111,0.01156 0.60731,-0.081 1.01917,-0.42327c0.33575,-0.2801 0.29135,-0.5935 0.39821,-1.25265c0.09811,-0.60557 0.20467,-1.70144 0.52964,-1.70698c0.48951,-0.00745 0.81132,2.01024 0.9367,2.75767l0.06928,0.39981c0.1644,0.88899 1.02201,3.56188 1.05879,3.67521c0.01173,0.02758 0.03108,0.06342 0.03108,0.06342l0.00713,0.01444l0.00982,0.01205c1.32433,1.64247 2.30923,3.63399 2.30923,5.49983c0,3.95105 -3.46343,6.73236 -8.09932,6.73236c-0.85984,0 -1.7008,-0.12048 -2.49961,-0.35733l-0.04296,-0.01235c0,0 -1.25391,-0.10542 -2.85803,2.00312c-0.3218,0.42325 -0.29312,0.81783 -0.74665,0.69639c-0.15124,-0.04043 -0.26236,-0.15157 -0.35302,-0.35336c-0.21687,-0.48127 -0.05678,-1.62154 0.20829,-2.35012l0.0417,-0.11445l-0.09574,-0.07577c-0.02346,-0.01871 -2.62517,-1.91449 -2.88799,-4.63114c-0.22908,-2.36802 0.96715,-3.71626 1.46349,-4.45722l0.28518,-0.47493c0.36,-0.87584 -0.31753,-2.09394 -0.91548,-3.16873c-0.35699,-0.6417 -0.93324,-1.5781 -0.80309,-1.79815c0.14443,-0.2438 0.66057,0.0157 1.18179,0.26428c0.42263,0.20196 0.82925,0.48729 1.11157,0.29912c0.2936,-0.19546 0.10098,-0.68641 -0.16581,-1.36601c-0.25094,-0.63821 -0.72604,-1.64641 -0.54359,-2.06254c0.05025,-0.11445 0.1384,-0.19484 0.26949,-0.24571c0.48478,-0.18769 1.17783,0.62886 1.73886,1.26755c0.68436,0.77979 1.46049,1.66341 2.36169,1.17276v0z" fill="#ffc93e" stroke="#603813" stroke-width="1.32684" stroke-linecap="round" stroke-linejoin="round"/><g stroke="none" stroke-width="0.66342" stroke-linecap="butt" stroke-linejoin="miter"><path d="M238.28164,178.03633v0c0,-0.71302 0.57798,-1.29134 1.29119,-1.29164c0.71288,0 1.29085,0.57862 1.29085,1.29164c0,0.71257 -0.57783,1.2904 -1.29085,1.2904c-0.71305,0 -1.29119,-0.57783 -1.29119,-1.2904z" fill="#ffffff"/><path d="M239.74657,177.09279c0.25061,0 0.47778,0.1018 0.64218,0.26633c0.16454,0.1644 0.26631,0.39154 0.26631,0.64218c0,0.25063 -0.10177,0.47781 -0.26631,0.64218c-0.1644,0.16457 -0.39157,0.26633 -0.64218,0.26633c-0.25063,0 -0.47781,-0.10177 -0.64218,-0.26633c-0.16457,-0.16437 -0.26633,-0.39155 -0.26633,-0.64218c0,-0.25063 0.10176,-0.47778 0.26633,-0.64218c0.16437,-0.16454 0.39155,-0.26633 0.64218,-0.26633z" fill="#603813"/></g><g stroke="none" stroke-width="0.66342" stroke-linecap="butt" stroke-linejoin="miter"><path d="M244.50086,178.03633v0c0,-0.71302 0.57797,-1.29134 1.29133,-1.29164c0.71288,0 1.29088,0.57862 1.29088,1.29164c0,0.71257 -0.57831,1.2904 -1.29088,1.2904c-0.71336,0 -1.29133,-0.57783 -1.29133,-1.2904z" fill="#ffffff"/><path d="M245.05713,178.0013v0c0,-0.50158 0.40645,-0.90851 0.90834,-0.90851c0.50155,0 0.90849,0.4071 0.90849,0.90851c0,0.50206 -0.40693,0.90818 -0.90849,0.90818c-0.50189,0 -0.90834,-0.40645 -0.90834,-0.90817z" fill="#603813"/></g><path d="M229.36753,183.02018c-0.26459,-0.16898 -0.41709,-0.44798 -0.44165,-0.80784c-0.05976,-0.87996 0.63664,-2.4736 1.82285,-3.48149c0.81006,-0.68831 3.73483,-1.71365 4.34737,-1.45734c0.05057,0.02124 0.1184,0.07579 0.12048,0.10337c0.05723,0.10906 0.0496,0.28614 -0.03584,0.45765c-0.23682,0.4762 -0.80275,1.10761 -1.42925,1.70192c-0.48698,0.46352 -1.03881,0.98696 -1.5421,1.57936l-0.46162,0.54691c-1.12347,1.34462 -1.70445,1.78942 -2.38023,1.35745v0z" fill="#ffc93e" stroke="#603813" stroke-width="1.32684" stroke-linecap="butt" stroke-linejoin="miter"/><path d="M243.88262,182.09948c0,0 -1.17515,0.00093 -1.99804,-0.70433" fill="none" stroke="#603813" stroke-width="1.32684" stroke-linecap="round" stroke-linejoin="round"/></g></g></g></g></svg>