<svg version="1.1" xmlns="http://www.w3.org/2000/svg" xmlns:xlink="http://www.w3.org/1999/xlink" width="297" height="211.30435" viewBox="0,0,297,211.30435"><g transform="translate(-91.5,-74.34783)"><g data-paper-data="{&quot;isPaintingLayer&quot;:true}" fill-rule="nonzero" stroke="none" stroke-linecap="butt" stroke-linejoin="miter" stroke-miterlimit="10" stroke-dasharray="" stroke-dashoffset="0" style="mix-blend-mode: normal"><path d="M91.5,285.65218v-211.30435h297v211.30435z" fill="none" stroke-width="0"/><path d="M256.72096,118.98301c5.25156,0 9.50876,4.25721 9.50876,9.51127c0,9.4563 0,32.64977 0,42.10857c0,5.25156 -4.25721,9.50876 -9.50876,9.50876c-9.4563,0 -23.98561,0 -33.44191,0c-5.25156,0 -9.50875,-4.25721 -9.50875,-9.50876c0,-5.60827 0,-15.99029 0,-24.67051c0,-5.95969 0,-13.58855 0,-17.43806c0,-5.25406 4.2572,-9.51127 9.50875,-9.51127c9.4563,0 23.98561,0 33.44191,0z" fill="#d90000" stroke-width="1"/><path d="M228.24774,180.1116c-2.43649,0 -6.45069,0.41741 -9.31942,-1.12904c-3.31447,-1.78673 -5.15804,-5.56465 -5.15804,-8.37972c0,-9.4588 0,-32.65227 0,-42.10858c0,-2.68677 1.95125,-6.8262 5.23014,-8.55563c3.13307,-1.65253 7.53793,-0.95564 10.104,-0.95564c0.85513,0 -3.52772,0.8601 -6.40721,3.19492c-2.32881,1.88831 -3.20016,5.15608 -3.23937,6.46083c-0.14427,4.80154 -0.33499,16.09713 -0.2468,22.84659c0.07577,5.7994 -0.02204,12.97566 0.1175,18.83661c0.08453,3.55038 1.68697,5.52555 3.9134,7.02292c3.15249,2.12018 6.86816,2.76674 5.0058,2.76674z" fill="#a10000" stroke-width="1"/><path d="M213.29565,210.67221v-22.66667h54.39105v22.66667z" fill-opacity="0.00784" fill="#ffffff" stroke-width="0"/></g></g></svg>