<svg version="1.1" xmlns="http://www.w3.org/2000/svg" xmlns:xlink="http://www.w3.org/1999/xlink" width="115.13333" height="59.46745" viewBox="0,0,115.13333,59.46745"><g transform="translate(-179.13,-122.30589)"><g data-paper-data="{&quot;isPaintingLayer&quot;:true}" fill-rule="nonzero" stroke-linecap="butt" stroke-linejoin="miter" stroke-miterlimit="10" stroke-dasharray="" stroke-dashoffset="0" style="mix-blend-mode: normal"><path d="M198.19896,147.32385v27.22197c0,0.6336 -0.22629,1.17668 -0.67885,1.62925c-0.45256,0.45256 -0.99565,0.67885 -1.62925,0.67885c-0.6336,0 -1.17668,-0.22629 -1.62925,-0.67885c-0.45256,-0.45256 -0.67885,-0.99565 -0.67885,-1.62925v-27.22197c0,-0.6336 0.22629,-1.15405 0.67885,-1.56136c0.45256,-0.45256 0.99565,-0.67885 1.62925,-0.67885c0.6336,0 1.17668,0.22629 1.62925,0.67885c0.45256,0.40731 0.67885,0.92776 0.67885,1.56136M187.74463,153.22987c0.6336,0 1.17668,0.22629 1.62925,0.67885c0.45256,0.40731 0.67885,0.92776 0.67885,1.56136v13.7807c-0.04525,0.58833 -0.27154,1.08616 -0.67885,1.49347c-0.45256,0.45256 -0.99565,0.67885 -1.62925,0.67885c-0.6336,0 -1.17668,-0.22629 -1.62925,-0.67885c-0.40731,-0.40731 -0.6336,-0.90514 -0.67885,-1.49347c0,-0.04525 0,-0.09052 0,-0.13577v-13.64493c0,-0.6336 0.22629,-1.15405 0.67885,-1.56136c0.45256,-0.45256 0.99565,-0.67885 1.62925,-0.67885M213.94833,145.96615v30.81989c0,0.6336 -0.22629,1.17668 -0.67885,1.62925c-0.45256,0.45256 -0.99565,0.67885 -1.62925,0.67885c-0.6336,0 -1.17668,-0.22629 -1.62925,-0.67885c-0.45256,-0.45256 -0.67885,-0.99565 -0.67885,-1.62925v-30.81989c0,-0.6336 0.22629,-1.17668 0.67885,-1.62925c0.45256,-0.45256 0.99565,-0.67885 1.62925,-0.67885c0.6336,0 1.17668,0.22629 1.62925,0.67885c0.45256,0.45256 0.67885,0.99565 0.67885,1.62925M237.57239,128.11234v48.6737c0,0.6336 -0.22629,1.17668 -0.67885,1.62925c-0.45256,0.45256 -0.99565,0.67885 -1.62925,0.67885c-0.6336,0 -1.15405,-0.22629 -1.56136,-0.67885c-0.49783,-0.45256 -0.74674,-0.99565 -0.74674,-1.62925v-48.6737c0,-0.6336 0.24891,-1.15405 0.74674,-1.56136c0.40731,-0.49783 0.92776,-0.74674 1.56136,-0.74674c0.6336,0 1.17668,0.24891 1.62925,0.74674c0.45256,0.40731 0.67885,0.92776 0.67885,1.56136M225.82824,129.1985c0.40731,-0.45256 0.92776,-0.67885 1.56136,-0.67885c0.6336,0 1.17668,0.22629 1.62925,0.67885c0.45256,0.40731 0.67885,0.92776 0.67885,1.56136v46.02618c0,0.6336 -0.22629,1.17668 -0.67885,1.62925c-0.45256,0.45256 -0.99565,0.67885 -1.62925,0.67885c-0.6336,0 -1.15405,-0.22629 -1.56136,-0.67885c-0.49783,-0.45256 -0.74674,-0.99565 -0.74674,-1.62925v-46.02618c0,-0.6336 0.24891,-1.15405 0.74674,-1.56136M219.51492,134.62932c0.6336,0 1.17668,0.22629 1.62925,0.67885c0.45256,0.45256 0.67885,0.99565 0.67885,1.62925v39.84862c0,0.6336 -0.22629,1.17668 -0.67885,1.62925c-0.45256,0.45256 -0.99565,0.67885 -1.62925,0.67885c-0.6336,0 -1.17668,-0.22629 -1.62925,-0.67885c-0.45256,-0.45256 -0.67885,-0.99565 -0.67885,-1.62925v-39.84862c0,-0.6336 0.22629,-1.17668 0.67885,-1.62925c0.45256,-0.45256 0.99565,-0.67885 1.62925,-0.67885M203.76555,141.28207c0.6336,0 1.17668,0.22629 1.62925,0.67885c0.45256,0.45256 0.67885,0.99565 0.67885,1.62925v32.85645c0,0.6336 -0.22629,1.17668 -0.67885,1.62925c-0.45256,0.45256 -0.99565,0.67885 -1.62925,0.67885c-0.6336,0 -1.17668,-0.22629 -1.62925,-0.67885c-0.45256,-0.45256 -0.67885,-0.99565 -0.67885,-1.62925v-32.85645c0,-0.6336 0.22629,-1.17668 0.67885,-1.62925c0.45256,-0.45256 0.99565,-0.67885 1.62925,-0.67885M254.40792,128.85907c1.31245,0.81462 2.60227,1.76502 3.86946,2.85118c0.13577,0.13577 0.29417,0.27154 0.4752,0.40731c0.31679,0.31679 0.6336,0.6336 0.95039,0.95039c3.57528,3.57528 5.92865,7.62578 7.06006,12.15145c2.17233,-0.90514 4.50306,-1.3577 6.99218,-1.3577c4.84248,0 9.0061,1.71976 12.49088,5.15928c3.43951,3.48478 5.15928,7.6484 5.15928,12.49088c0,4.88774 -1.71976,9.05137 -5.15928,12.49088c-3.16797,3.16797 -6.92429,4.88774 -11.26895,5.15928h-33.39953v-53.90086c0.04525,0 0.09052,0 0.13577,0c0.04525,0 0.09052,0 0.13577,0c0.04525,0 0.09052,0 0.13577,0h0.20366c0.04525,0 0.09052,0 0.13577,0c4.43517,0.22629 8.46302,1.42559 12.08357,3.59792z" fill="#ffe39a" stroke="#000000" stroke-width="1.5"/><path d="M179.13,181.77334v-59.46745h115.13333v59.46745z" fill="none" stroke="#00bbbb" stroke-width="0"/></g></g></svg>