<svg version="1.1" xmlns="http://www.w3.org/2000/svg" xmlns:xlink="http://www.w3.org/1999/xlink" width="536.15" height="474.1" viewBox="0,0,536.15,474.1"><defs><linearGradient x1="236.15" y1="-120.975" x2="236.15" y2="415.175" gradientUnits="userSpaceOnUse" id="color-1"><stop offset="0" stop-color="#0b0626" stop-opacity="0.32941"/><stop offset="1" stop-color="#000000" stop-opacity="0.56863"/></linearGradient></defs><g transform="translate(23,57.95)"><g data-paper-data="{&quot;isPaintingLayer&quot;:true}" fill-rule="nonzero" stroke-width="1" stroke-miterlimit="10" stroke-dasharray="" stroke-dashoffset="0" style="mix-blend-mode: normal"><path d="M513.15,366.15c0,13.8 -4.88333,25.58334 -14.65,35.35c-9.76666,9.76666 -21.55,14.65 -35.35,14.65h-436.15c-13.8,0 -25.58333,-4.88333 -35.35,-14.65c-9.76666,-9.76666 -14.65,-21.55 -14.65,-35.35v-374.1c0,-13.8 4.88334,-25.58333 14.65,-35.35c9.76667,-9.76667 21.55,-14.65 35.35,-14.65h436.15c13.8,0 25.58334,4.88334 35.35,14.65c9.76666,9.76667 14.65,21.55 14.65,35.35z" fill="url(#color-1)" stroke="none" stroke-linecap="butt" stroke-linejoin="miter"/><g><g fill="#ffffff" stroke="none" stroke-linecap="butt" stroke-linejoin="miter"><path d="M330.55,86.4l-4.9,6.4c-0.1,0.1 -0.15,0.23334 -0.15,0.4c0,0.16666 0.05,0.28333 0.15,0.35l4.8,6.3c0.1,0.06667 0.13334,0.18334 0.1,0.35c-0.06667,0.13334 -0.16667,0.2 -0.3,0.2h-3.75c-0.16667,0 -0.31667,-0.03334 -0.45,-0.1c-0.13333,-0.1 -0.23334,-0.2 -0.3,-0.3l-2.4,-3.5c-0.1,-0.1 -0.2,-0.15 -0.3,-0.15c-0.1,0 -0.18333,0.05 -0.25,0.15l-2.4,3.5c-0.1,0.1 -0.21666,0.2 -0.35,0.3c-0.13333,0.06667 -0.28333,0.1 -0.45,0.1h-3.75c-0.13333,0 -0.21666,-0.06667 -0.25,-0.2c-0.03334,-0.16666 -0.01667,-0.28334 0.05,-0.35l4.85,-6.3c0.1,-0.06667 0.15,-0.18333 0.15,-0.35c0,-0.16666 -0.05,-0.3 -0.15,-0.4l-4.95,-6.4c-0.1,-0.1 -0.13334,-0.21667 -0.1,-0.35c0.06667,-0.13334 0.15,-0.2 0.25,-0.2h3.85c0.1,0 0.23333,0.03334 0.4,0.1c0.16667,0.1 0.28334,0.2 0.35,0.3l2.5,3.65c0.06667,0.1 0.15,0.15 0.25,0.15c0.1,0 0.2,-0.05 0.3,-0.15c0.43333,-0.6 0.85,-1.21667 1.25,-1.85c0.43333,-0.63334 0.83333,-1.23333 1.2,-1.8c0.1,-0.13334 0.21666,-0.23333 0.35,-0.3c0.13333,-0.06667 0.28334,-0.1 0.45,-0.1h3.8c0.13333,0 0.23334,0.06667 0.3,0.2c0,0.13334 -0.05,0.25 -0.15,0.35M280.7,234.9l-1.15,1.65c-0.06667,0.06667 -0.15,0.11666 -0.25,0.15c-0.1,0.03333 -0.18333,0.01667 -0.25,-0.05c-0.5,-0.33334 -0.98334,-0.56667 -1.45,-0.7c-0.43333,-0.13333 -0.83334,-0.2 -1.2,-0.2c-0.1,0 -0.23333,0 -0.4,0c-0.13333,0 -0.26666,0.01667 -0.4,0.05c-0.13333,0.03333 -0.23334,0.1 -0.3,0.2c-0.1,0.06667 -0.15,0.16667 -0.15,0.3c0,0.16666 0.1,0.3 0.3,0.4c0.23334,0.1 0.48334,0.2 0.75,0.3c0.26666,0.06667 0.51666,0.11667 0.75,0.15c0.26666,0.06667 0.43333,0.1 0.5,0.1c0.36667,0.06667 0.76666,0.16667 1.2,0.3c0.43333,0.13333 0.83334,0.33334 1.2,0.6c0.36667,0.26666 0.68333,0.61666 0.95,1.05c0.23334,0.43333 0.35,0.96667 0.35,1.6c0,0.6 -0.1,1.11666 -0.3,1.55c-0.2,0.43333 -0.48334,0.78334 -0.85,1.05c-0.4,0.3 -0.85,0.51667 -1.35,0.65c-0.53334,0.13333 -1.11667,0.2 -1.75,0.2c-0.53334,0 -1.01666,-0.05 -1.45,-0.15c-0.46666,-0.06667 -0.9,-0.18333 -1.3,-0.35c-0.36667,-0.13333 -0.71666,-0.3 -1.05,-0.5c-0.36667,-0.2 -0.68334,-0.41666 -0.95,-0.65c-0.06667,-0.06667 -0.11666,-0.15 -0.15,-0.25c0,-0.1 0.03334,-0.2 0.1,-0.3l1.15,-1.65c0.06667,-0.1 0.15,-0.15 0.25,-0.15c0.1,-0.03333 0.18333,-0.01666 0.25,0.05c0.53334,0.33334 1.06667,0.6 1.6,0.8c0.53334,0.2 1.03334,0.3 1.5,0.3c0.43333,0 0.76666,-0.06667 1,-0.2c0.23334,-0.1 0.35,-0.28333 0.35,-0.55c0,-0.13333 -0.05,-0.23334 -0.15,-0.3c-0.1,-0.06667 -0.23334,-0.13333 -0.4,-0.2c-0.16667,-0.03333 -0.36666,-0.06667 -0.6,-0.1c-0.2,-0.03333 -0.41667,-0.06667 -0.65,-0.1c-0.23334,-0.06667 -0.48334,-0.11666 -0.75,-0.15c-0.3,-0.06667 -0.61667,-0.15 -0.95,-0.25c-0.3,-0.1 -0.6,-0.23334 -0.9,-0.4c-0.3,-0.16666 -0.56667,-0.36666 -0.8,-0.6c-0.26666,-0.26666 -0.46667,-0.56667 -0.6,-0.9c-0.13333,-0.36667 -0.2,-0.78333 -0.2,-1.25c0,-0.66666 0.13334,-1.23334 0.4,-1.7c0.26666,-0.43333 0.6,-0.78333 1,-1.05c0.43333,-0.26666 0.9,-0.45 1.4,-0.55c0.5,-0.13333 1,-0.2 1.5,-0.2c0.83333,0 1.58333,0.13334 2.25,0.4c0.66667,0.23334 1.3,0.58333 1.9,1.05c0.1,0.06667 0.15,0.15 0.15,0.25c0,0.1 -0.03334,0.2 -0.1,0.3M270.5,233.45v10.25c0,0.1 -0.03334,0.18333 -0.1,0.25c-0.06667,0.06667 -0.15,0.1 -0.25,0.1h-2.25c-0.1,0 -0.18333,-0.03334 -0.25,-0.1c-0.06667,-0.06667 -0.1,-0.15 -0.1,-0.25v-10.25c0,-0.1 0.03333,-0.18333 0.1,-0.25c0.06667,-0.06667 0.15,-0.1 0.25,-0.1h2.25c0.1,0 0.18333,0.03333 0.25,0.1c0.06667,0.06667 0.1,0.15 0.1,0.25M260.35,233.45v2c0,0.1 -0.03334,0.2 -0.1,0.3c-0.06667,0.06667 -0.15,0.1 -0.25,0.1h-4.7c-0.06667,0 -0.15,0.03333 -0.25,0.1c-0.06667,0.06667 -0.1,0.15 -0.1,0.25v0.6c0,0.1 0.03334,0.2 0.1,0.3c0.1,0.06667 0.18333,0.1 0.25,0.1h4.1c0.1,0 0.18333,0.03334 0.25,0.1c0.06667,0.06667 0.1,0.15 0.1,0.25v2.05c0,0.1 -0.03334,0.18333 -0.1,0.25c-0.06667,0.06667 -0.15,0.1 -0.25,0.1h-4.1c-0.06667,0 -0.15,0.03334 -0.25,0.1c-0.06667,0.1 -0.1,0.2 -0.1,0.3v0.55c0,0.1 0.03334,0.18333 0.1,0.25c0.1,0.06667 0.18333,0.1 0.25,0.1h4.7c0.1,0 0.18333,0.03333 0.25,0.1c0.06667,0.06667 0.1,0.15 0.1,0.25v2.1c0,0.1 -0.03334,0.18333 -0.1,0.25c-0.06667,0.06667 -0.15,0.1 -0.25,0.1h-7.65c-0.1,0 -0.18333,-0.03334 -0.25,-0.1c-0.06667,-0.06667 -0.1,-0.15 -0.1,-0.25v-10.25c0,-0.1 0.03333,-0.2 0.1,-0.3c0.06667,-0.06667 0.15,-0.1 0.25,-0.1h7.65c0.1,0 0.18333,0.03333 0.25,0.1c0.06667,0.1 0.1,0.2 0.1,0.3M249.1,234.2c0.36667,0.33334 0.63334,0.75 0.8,1.25c0.2,0.46667 0.3,0.98334 0.3,1.55c0,0.33334 -0.03333,0.65 -0.1,0.95c-0.06667,0.33334 -0.16666,0.63334 -0.3,0.9c-0.16666,0.3 -0.33334,0.55 -0.5,0.75c-0.2,0.23334 -0.41666,0.43333 -0.65,0.6c-0.1,0.03333 -0.15,0.1 -0.15,0.2c-0.03333,0.1 -0.01666,0.18333 0.05,0.25c0.36667,0.5 0.76666,1.01666 1.2,1.55c0.4,0.53333 0.76666,1.01667 1.1,1.45c0.06667,0.06667 0.08334,0.15 0.05,0.25c-0.03333,0.1 -0.1,0.15 -0.2,0.15h-2.8c-0.1,0 -0.2,-0.03334 -0.3,-0.1c-0.13333,-0.03333 -0.21667,-0.1 -0.25,-0.2c-0.33334,-0.4 -0.65,-0.81667 -0.95,-1.25c-0.33334,-0.43333 -0.65,-0.86667 -0.95,-1.3c-0.06667,-0.1 -0.15,-0.16666 -0.25,-0.2c-0.13333,-0.06667 -0.25,-0.1 -0.35,-0.1h-0.3c-0.1,0 -0.18333,0.03333 -0.25,0.1c-0.06667,0.06667 -0.1,0.15 -0.1,0.25v2.45c0,0.1 -0.03333,0.18333 -0.1,0.25c-0.1,0.06667 -0.2,0.1 -0.3,0.1h-2.2c-0.1,0 -0.18333,-0.03334 -0.25,-0.1c-0.06667,-0.06667 -0.1,-0.15 -0.1,-0.25v-10.25c0,-0.1 0.03333,-0.2 0.1,-0.3c0.06667,-0.06667 0.15,-0.1 0.25,-0.1h4.65c0.56667,0 1.1,0.1 1.6,0.3c0.5,0.2 0.91666,0.48333 1.25,0.85M246.15,235.85h-1.6c-0.1,0 -0.18333,0.03333 -0.25,0.1c-0.06667,0.06667 -0.1,0.15 -0.1,0.25v1.6c0,0.1 0.03334,0.18333 0.1,0.25c0.06667,0.06667 0.15,0.1 0.25,0.1h1.6c0.1,0 0.21667,-0.03333 0.35,-0.1c0.13333,-0.03333 0.25,-0.1 0.35,-0.2c0.13333,-0.1 0.23334,-0.21667 0.3,-0.35c0.06667,-0.13333 0.1,-0.3 0.1,-0.5c0,-0.1 -0.01667,-0.21667 -0.05,-0.35c-0.03333,-0.13333 -0.1,-0.26667 -0.2,-0.4c-0.06667,-0.1 -0.18333,-0.2 -0.35,-0.3c-0.13333,-0.06667 -0.3,-0.1 -0.5,-0.1M238,234.55c0.53333,0.5 0.95,1.1 1.25,1.8c0.3,0.7 0.45,1.43334 0.45,2.2c0,0.8 -0.15,1.53333 -0.45,2.2c-0.3,0.7 -0.71667,1.31667 -1.25,1.85c-0.5,0.5 -1.1,0.9 -1.8,1.2c-0.7,0.3 -1.43333,0.45 -2.2,0.45c-0.76666,0 -1.5,-0.15 -2.2,-0.45c-0.7,-0.3 -1.3,-0.7 -1.8,-1.2c-0.5,-0.53333 -0.9,-1.15 -1.2,-1.85c-0.3,-0.66666 -0.45,-1.4 -0.45,-2.2c0,-0.76666 0.15,-1.5 0.45,-2.2c0.3,-0.7 0.7,-1.3 1.2,-1.8c0.5,-0.53333 1.1,-0.95 1.8,-1.25c0.7,-0.3 1.43333,-0.45 2.2,-0.45c0.76666,0 1.5,0.15 2.2,0.45c0.7,0.3 1.3,0.71667 1.8,1.25M231.3,238.55c0,0.4 0.06667,0.76666 0.2,1.1c0.13333,0.33334 0.33334,0.63334 0.6,0.9c0.23334,0.26666 0.51666,0.46667 0.85,0.6c0.33334,0.16666 0.68333,0.25 1.05,0.25c0.36667,0 0.71667,-0.08334 1.05,-0.25c0.33334,-0.13333 0.61666,-0.33334 0.85,-0.6c0.26666,-0.26666 0.46667,-0.56667 0.6,-0.9c0.13333,-0.33334 0.2,-0.7 0.2,-1.1c0,-0.36667 -0.06667,-0.71667 -0.2,-1.05c-0.13333,-0.36667 -0.33334,-0.66666 -0.6,-0.9c-0.23334,-0.26666 -0.51666,-0.48334 -0.85,-0.65c-0.33334,-0.13333 -0.68333,-0.2 -1.05,-0.2c-0.36667,0 -0.71667,0.06667 -1.05,0.2c-0.33334,0.16666 -0.61666,0.38334 -0.85,0.65c-0.26666,0.23334 -0.46667,0.53333 -0.6,0.9c-0.13333,0.33334 -0.2,0.68333 -0.2,1.05M220.1,233.35c0.7,-0.3 1.45,-0.45 2.25,-0.45c0.63333,0 1.21667,0.08334 1.75,0.25c0.53333,0.13333 1.01667,0.33334 1.45,0.6c0.43333,0.26666 0.81666,0.6 1.15,1c0.36667,0.36667 0.68334,0.78333 0.95,1.25c0.06667,0.1 0.08333,0.18333 0.05,0.25c-0.03333,0.1 -0.1,0.16666 -0.2,0.2l-2.1,0.85c-0.1,0.03333 -0.2,0.03333 -0.3,0c-0.1,-0.03333 -0.18333,-0.1 -0.25,-0.2c-0.26666,-0.43333 -0.61666,-0.78333 -1.05,-1.05c-0.4,-0.23334 -0.88334,-0.35 -1.45,-0.35c-0.4,0 -0.76666,0.08334 -1.1,0.25c-0.33334,0.16666 -0.61666,0.36667 -0.85,0.6c-0.26666,0.26666 -0.46667,0.58333 -0.6,0.95c-0.13333,0.33334 -0.2,0.7 -0.2,1.1c0,0.36667 0.06667,0.71667 0.2,1.05c0.13333,0.36667 0.33334,0.66666 0.6,0.9c0.23334,0.26666 0.51666,0.48333 0.85,0.65c0.33334,0.16666 0.7,0.25 1.1,0.25c0.53333,0 1.01667,-0.13333 1.45,-0.4c0.46667,-0.26666 0.83334,-0.61667 1.1,-1.05c0.03333,-0.06667 0.1,-0.11667 0.2,-0.15c0.1,-0.03333 0.2,-0.03333 0.3,0l2.1,0.85c0.1,0.03333 0.16666,0.08334 0.2,0.15c0.03333,0.1 0.01667,0.2 -0.05,0.3c-0.26666,0.46667 -0.58334,0.88333 -0.95,1.25c-0.33334,0.4 -0.71666,0.73334 -1.15,1c-0.43333,0.26666 -0.91667,0.46667 -1.45,0.6c-0.53333,0.16666 -1.11667,0.25 -1.75,0.25c-0.8,0 -1.55,-0.15 -2.25,-0.45c-0.7,-0.3 -1.31667,-0.7 -1.85,-1.2c-0.53333,-0.53333 -0.95,-1.13333 -1.25,-1.8c-0.3,-0.7 -0.45,-1.43334 -0.45,-2.2c0,-0.8 0.15,-1.55 0.45,-2.25c0.3,-0.66666 0.71667,-1.26666 1.25,-1.8c0.53333,-0.5 1.15,-0.9 1.85,-1.2M215.05,234.9l-1.15,1.65c-0.06667,0.06667 -0.15,0.11666 -0.25,0.15c-0.1,0.03333 -0.18333,0.01667 -0.25,-0.05c-0.5,-0.33334 -0.98334,-0.56667 -1.45,-0.7c-0.43333,-0.13333 -0.83333,-0.2 -1.2,-0.2c-0.1,0 -0.23334,0 -0.4,0c-0.13333,0 -0.26667,0.01667 -0.4,0.05c-0.13333,0.03333 -0.23333,0.1 -0.3,0.2c-0.1,0.06667 -0.15,0.16667 -0.15,0.3c0,0.16666 0.1,0.3 0.3,0.4c0.23334,0.1 0.48334,0.2 0.75,0.3c0.26666,0.06667 0.51666,0.11667 0.75,0.15c0.26666,0.06667 0.43333,0.1 0.5,0.1c0.36667,0.06667 0.76666,0.16667 1.2,0.3c0.43333,0.13333 0.83333,0.33334 1.2,0.6c0.36667,0.26666 0.68334,0.61666 0.95,1.05c0.23334,0.43333 0.35,0.96667 0.35,1.6c0,0.6 -0.1,1.11666 -0.3,1.55c-0.2,0.43333 -0.48333,0.78334 -0.85,1.05c-0.4,0.3 -0.85,0.51667 -1.35,0.65c-0.53333,0.13333 -1.11667,0.2 -1.75,0.2c-0.53333,0 -1.01666,-0.05 -1.45,-0.15c-0.46667,-0.06667 -0.9,-0.18333 -1.3,-0.35c-0.36667,-0.13333 -0.71667,-0.3 -1.05,-0.5c-0.36667,-0.2 -0.68333,-0.41666 -0.95,-0.65c-0.06667,-0.06667 -0.11667,-0.15 -0.15,-0.25c0,-0.1 0.03333,-0.2 0.1,-0.3l1.15,-1.65c0.06667,-0.1 0.15,-0.15 0.25,-0.15c0.1,-0.03333 0.18333,-0.01666 0.25,0.05c0.53333,0.33334 1.06667,0.6 1.6,0.8c0.53333,0.2 1.03333,0.3 1.5,0.3c0.43333,0 0.76666,-0.06667 1,-0.2c0.23334,-0.1 0.35,-0.28333 0.35,-0.55c0,-0.13333 -0.05,-0.23334 -0.15,-0.3c-0.1,-0.06667 -0.23334,-0.13333 -0.4,-0.2c-0.16666,-0.03333 -0.36666,-0.06667 -0.6,-0.1c-0.2,-0.03333 -0.41666,-0.06667 -0.65,-0.1c-0.23334,-0.06667 -0.48334,-0.11666 -0.75,-0.15c-0.3,-0.06667 -0.61666,-0.15 -0.95,-0.25c-0.3,-0.1 -0.6,-0.23334 -0.9,-0.4c-0.3,-0.16666 -0.56667,-0.36666 -0.8,-0.6c-0.26666,-0.26666 -0.46667,-0.56667 -0.6,-0.9c-0.13333,-0.36667 -0.2,-0.78333 -0.2,-1.25c0,-0.66666 0.13333,-1.23334 0.4,-1.7c0.26666,-0.43333 0.6,-0.78333 1,-1.05c0.43333,-0.26666 0.9,-0.45 1.4,-0.55c0.5,-0.13333 1,-0.2 1.5,-0.2c0.83334,0 1.58334,0.13334 2.25,0.4c0.66666,0.23334 1.3,0.58333 1.9,1.05c0.1,0.06667 0.15,0.15 0.15,0.25c0,0.1 -0.03333,0.2 -0.1,0.3M204.65,233.45v10.25c0,0.1 -0.03333,0.18333 -0.1,0.25c-0.06667,0.06667 -0.15,0.1 -0.25,0.1h-2.25c-0.13333,0 -0.23334,-0.03334 -0.3,-0.1c-0.06667,-0.06667 -0.1,-0.15 -0.1,-0.25v-3.2c0,-0.1 -0.03333,-0.2 -0.1,-0.3c-0.06667,-0.06667 -0.15,-0.1 -0.25,-0.1h-3.1c-0.1,0 -0.18333,0.03333 -0.25,0.1c-0.06667,0.1 -0.1,0.2 -0.1,0.3v3.2c0,0.1 -0.03333,0.18333 -0.1,0.25c-0.06667,0.06667 -0.15,0.1 -0.25,0.1h-2.25c-0.1,0 -0.18333,-0.03334 -0.25,-0.1c-0.06667,-0.06667 -0.1,-0.15 -0.1,-0.25v-10.25c0,-0.1 0.03333,-0.2 0.1,-0.3c0.06667,-0.06667 0.15,-0.1 0.25,-0.1h2.25c0.1,0 0.18333,0.03333 0.25,0.1c0.06667,0.1 0.1,0.2 0.1,0.3v3.55c0,0.1 0.03333,0.18333 0.1,0.25c0.06667,0.06667 0.15,0.1 0.25,0.1h3.1c0.1,0 0.18333,-0.03333 0.25,-0.1c0.06667,-0.06667 0.1,-0.15 0.1,-0.25v-3.55c0,-0.1 0.03333,-0.2 0.1,-0.3c0.06667,-0.06667 0.16667,-0.1 0.3,-0.1h2.25c0.1,0 0.18333,0.03333 0.25,0.1c0.06667,0.1 0.1,0.2 0.1,0.3M185.6,233.35c0.7,-0.3 1.45,-0.45 2.25,-0.45c1.1,0 2.05,0.21667 2.85,0.65c0.83334,0.46667 1.5,1.08334 2,1.85c0.06667,0.1 0.08334,0.2 0.05,0.3c-0.03333,0.1 -0.08334,0.18333 -0.15,0.25l-1.8,1.15c-0.1,0.03333 -0.2,0.05 -0.3,0.05c-0.1,-0.03333 -0.18333,-0.08334 -0.25,-0.15c-0.3,-0.36667 -0.65,-0.66666 -1.05,-0.9c-0.36667,-0.23334 -0.81667,-0.35 -1.35,-0.35c-0.4,0 -0.76666,0.06667 -1.1,0.2c-0.33334,0.16666 -0.61666,0.38334 -0.85,0.65c-0.26666,0.26666 -0.46667,0.56667 -0.6,0.9c-0.13333,0.33334 -0.2,0.7 -0.2,1.1c0,0.36667 0.06667,0.71667 0.2,1.05c0.13333,0.33334 0.33334,0.63334 0.6,0.9c0.23334,0.26666 0.51666,0.46667 0.85,0.6c0.33334,0.16666 0.7,0.25 1.1,0.25c0.36667,0 0.73333,-0.06667 1.1,-0.2c0.36667,-0.13333 0.66666,-0.36666 0.9,-0.7c0.06667,-0.06667 0.06667,-0.13333 0,-0.2c-0.03333,-0.06667 -0.1,-0.1 -0.2,-0.1h-1.7c-0.1,0 -0.18333,-0.03333 -0.25,-0.1c-0.1,-0.1 -0.15,-0.2 -0.15,-0.3v-1.75c0,-0.1 0.05,-0.18333 0.15,-0.25c0.06667,-0.06667 0.15,-0.1 0.25,-0.1h5.15c0.1,0 0.18333,0.01667 0.25,0.05c0.06667,0.1 0.11667,0.2 0.15,0.3c0,0.16666 0,0.36666 0,0.6c0,0.26666 -0.01667,0.51666 -0.05,0.75c-0.06667,0.7 -0.25,1.35 -0.55,1.95c-0.33334,0.6 -0.75,1.1 -1.25,1.5c-0.5,0.43333 -1.08334,0.78334 -1.75,1.05c-0.63333,0.23334 -1.31667,0.35 -2.05,0.35c-0.8,0 -1.55,-0.15 -2.25,-0.45c-0.7,-0.3 -1.31667,-0.7 -1.85,-1.2c-0.53333,-0.53333 -0.95,-1.13333 -1.25,-1.8c-0.3,-0.7 -0.45,-1.43334 -0.45,-2.2c0,-0.8 0.15,-1.55 0.45,-2.25c0.3,-0.66666 0.71667,-1.26666 1.25,-1.8c0.53333,-0.5 1.15,-0.9 1.85,-1.2M177.7,233.2c0.06667,-0.06667 0.15,-0.1 0.25,-0.1h2.25c0.1,0 0.18333,0.03333 0.25,0.1c0.06667,0.06667 0.1,0.15 0.1,0.25v10.25c0,0.1 -0.03334,0.18333 -0.1,0.25c-0.06667,0.06667 -0.15,0.1 -0.25,0.1h-2.25c-0.1,0 -0.18333,-0.03334 -0.25,-0.1c-0.06667,-0.06667 -0.1,-0.15 -0.1,-0.25v-10.25c0,-0.1 0.03333,-0.18333 0.1,-0.25M175.25,233.45v10.25c0,0.1 -0.03333,0.18333 -0.1,0.25c-0.06667,0.06667 -0.15,0.1 -0.25,0.1h-2.25c-0.13333,0 -0.23334,-0.03334 -0.3,-0.1c-0.06667,-0.06667 -0.1,-0.15 -0.1,-0.25v-3.2c0,-0.1 -0.03333,-0.2 -0.1,-0.3c-0.06667,-0.06667 -0.15,-0.1 -0.25,-0.1h-3.1c-0.1,0 -0.18333,0.03333 -0.25,0.1c-0.06667,0.1 -0.1,0.2 -0.1,0.3v3.2c0,0.1 -0.03333,0.18333 -0.1,0.25c-0.06667,0.06667 -0.15,0.1 -0.25,0.1h-2.25c-0.1,0 -0.18333,-0.03334 -0.25,-0.1c-0.06667,-0.06667 -0.1,-0.15 -0.1,-0.25v-10.25c0,-0.1 0.03333,-0.2 0.1,-0.3c0.06667,-0.06667 0.15,-0.1 0.25,-0.1h2.25c0.1,0 0.18333,0.03333 0.25,0.1c0.06667,0.1 0.1,0.2 0.1,0.3v3.55c0,0.1 0.03334,0.18333 0.1,0.25c0.06667,0.06667 0.15,0.1 0.25,0.1h3.1c0.1,0 0.18333,-0.03333 0.25,-0.1c0.06667,-0.06667 0.1,-0.15 0.1,-0.25v-3.55c0,-0.1 0.03333,-0.2 0.1,-0.3c0.06667,-0.06667 0.16667,-0.1 0.3,-0.1h2.25c0.1,0 0.18333,0.03333 0.25,0.1c0.06667,0.1 0.1,0.2 0.1,0.3M153.9,233.15c0.06667,0.1 0.1,0.2 0.1,0.3v7.5c0,0.1 0.03333,0.18333 0.1,0.25c0.06667,0.06667 0.15,0.1 0.25,0.1h4.55c0.1,0 0.18333,0.03333 0.25,0.1c0.06667,0.06667 0.1,0.15 0.1,0.25v2.05c0,0.1 -0.03333,0.18333 -0.1,0.25c-0.06667,0.06667 -0.15,0.1 -0.25,0.1h-7.5c-0.1,0 -0.18333,-0.03334 -0.25,-0.1c-0.06667,-0.06667 -0.1,-0.15 -0.1,-0.25v-10.25c0,-0.1 0.03333,-0.2 0.1,-0.3c0.06667,-0.06667 0.15,-0.1 0.25,-0.1h2.25c0.1,0 0.18333,0.03333 0.25,0.1M141.4,244.05h-2.6c-0.03333,0 -0.08334,-0.01667 -0.15,-0.05c-0.06667,0 -0.11667,-0.01667 -0.15,-0.05c-0.03333,-0.06667 -0.05,-0.11666 -0.05,-0.15c0,-0.06667 0.01667,-0.15 0.05,-0.25l4.35,-10.15c0.03333,-0.06667 0.1,-0.13334 0.2,-0.2c0.1,-0.06667 0.2,-0.1 0.3,-0.1h2.1c0.1,0 0.2,0.03333 0.3,0.1c0.1,0.06667 0.16666,0.13334 0.2,0.2l4.4,10.2c0.03333,0.1 0.01667,0.2 -0.05,0.3c-0.03333,0.1 -0.13334,0.15 -0.3,0.15h-2.55c-0.13333,0 -0.25,-0.03334 -0.35,-0.1c-0.1,-0.06667 -0.16666,-0.15 -0.2,-0.25l-0.4,-0.9c-0.06667,-0.06667 -0.13333,-0.13334 -0.2,-0.2c-0.1,-0.06667 -0.2,-0.1 -0.3,-0.1h-3.2c-0.1,0 -0.2,0.03333 -0.3,0.1c-0.1,0.06667 -0.16666,0.13334 -0.2,0.2l-0.4,0.9c-0.03333,0.1 -0.1,0.18333 -0.2,0.25c-0.1,0.06667 -0.2,0.1 -0.3,0.1M144.4,237.65c-0.06667,0 -0.11667,0.05 -0.15,0.15l-0.75,1.8c-0.03333,0.1 -0.03333,0.18333 0,0.25c0.03333,0.06667 0.11667,0.1 0.25,0.1h1.3c0.1,0 0.18333,-0.03333 0.25,-0.1c0.03333,-0.06667 0.03333,-0.15 0,-0.25c-0.1,-0.23334 -0.23334,-0.51666 -0.4,-0.85c-0.13333,-0.33334 -0.25,-0.65 -0.35,-0.95c-0.06667,-0.1 -0.11667,-0.15 -0.15,-0.15M137.85,234.7c0.2,0.36667 0.3,0.83334 0.3,1.4c0,0.46667 -0.11666,0.85 -0.35,1.15c-0.2,0.33334 -0.43334,0.6 -0.7,0.8c-0.16666,0.13333 -0.15,0.25 0.05,0.35c0.13333,0.1 0.28333,0.21667 0.45,0.35c0.16666,0.1 0.31667,0.25 0.45,0.45c0.13333,0.2 0.25,0.41666 0.35,0.65c0.06667,0.26666 0.1,0.55 0.1,0.85c0,0.66666 -0.1,1.21667 -0.3,1.65c-0.2,0.4 -0.48333,0.73334 -0.85,1c-0.33334,0.26666 -0.73333,0.45 -1.2,0.55c-0.46667,0.1 -0.93333,0.15 -1.4,0.15h-4.8c-0.1,0 -0.18333,-0.03334 -0.25,-0.1c-0.06667,-0.06667 -0.1,-0.15 -0.1,-0.25v-10.25c0,-0.1 0.03333,-0.2 0.1,-0.3c0.06667,-0.06667 0.15,-0.1 0.25,-0.1h4.55c0.46667,0 0.93333,0.06667 1.4,0.2c0.43333,0.1 0.81667,0.26666 1.15,0.5c0.33334,0.23334 0.6,0.55 0.8,0.95M134.8,237c0.13333,-0.13333 0.2,-0.3 0.2,-0.5c0,-0.2 -0.06667,-0.35 -0.2,-0.45c-0.16666,-0.13333 -0.31667,-0.2 -0.45,-0.2h-1.4c-0.1,0 -0.18333,0.03333 -0.25,0.1c-0.06667,0.06667 -0.1,0.15 -0.1,0.25v0.7c0,0.1 0.03333,0.18333 0.1,0.25c0.06667,0.06667 0.15,0.1 0.25,0.1h1.4c0.2,0 0.35,-0.08334 0.45,-0.25M132.95,241.3h1.65c0.2,0 0.38334,-0.08334 0.55,-0.25c0.13333,-0.13333 0.2,-0.3 0.2,-0.5c0,-0.2 -0.06667,-0.38334 -0.2,-0.55c-0.16666,-0.2 -0.38334,-0.3 -0.65,-0.3h-1.55c-0.1,0 -0.18333,0.03334 -0.25,0.1c-0.06667,0.1 -0.1,0.18333 -0.1,0.25v0.9c0,0.1 0.03333,0.18333 0.1,0.25c0.06667,0.06667 0.15,0.1 0.25,0.1M111.5,233.45v7.5c0,0.1 0.03333,0.18333 0.1,0.25c0.06667,0.06667 0.15,0.1 0.25,0.1h4.55c0.1,0 0.18333,0.03333 0.25,0.1c0.06667,0.06667 0.1,0.15 0.1,0.25v2.05c0,0.1 -0.03333,0.18333 -0.1,0.25c-0.06667,0.06667 -0.15,0.1 -0.25,0.1h-7.5c-0.1,0 -0.18333,-0.03334 -0.25,-0.1c-0.06667,-0.06667 -0.1,-0.15 -0.1,-0.25v-10.25c0,-0.1 0.03334,-0.2 0.1,-0.3c0.06667,-0.06667 0.15,-0.1 0.25,-0.1h2.25c0.1,0 0.18333,0.03333 0.25,0.1c0.06667,0.1 0.1,0.2 0.1,0.3M124.6,233.3c0.7,0.3 1.3,0.71667 1.8,1.25c0.53333,0.5 0.95,1.1 1.25,1.8c0.3,0.7 0.45,1.43334 0.45,2.2c0,0.8 -0.15,1.53333 -0.45,2.2c-0.3,0.7 -0.71667,1.31667 -1.25,1.85c-0.5,0.5 -1.1,0.9 -1.8,1.2c-0.7,0.3 -1.43333,0.45 -2.2,0.45c-0.76667,0 -1.5,-0.15 -2.2,-0.45c-0.7,-0.3 -1.3,-0.7 -1.8,-1.2c-0.5,-0.53333 -0.9,-1.15 -1.2,-1.85c-0.3,-0.66666 -0.45,-1.4 -0.45,-2.2c0,-0.76666 0.15,-1.5 0.45,-2.2c0.3,-0.7 0.7,-1.3 1.2,-1.8c0.5,-0.53333 1.1,-0.95 1.8,-1.25c0.7,-0.3 1.43333,-0.45 2.2,-0.45c0.76667,0 1.5,0.15 2.2,0.45M122.4,235.75c-0.36666,0 -0.71667,0.06667 -1.05,0.2c-0.33334,0.16666 -0.61666,0.38334 -0.85,0.65c-0.26667,0.23334 -0.46666,0.53333 -0.6,0.9c-0.13334,0.33334 -0.2,0.68333 -0.2,1.05c0,0.4 0.06667,0.76666 0.2,1.1c0.13334,0.33334 0.33333,0.63334 0.6,0.9c0.23333,0.26666 0.51666,0.46667 0.85,0.6c0.33334,0.16666 0.68334,0.25 1.05,0.25c0.36666,0 0.71666,-0.08334 1.05,-0.25c0.33334,-0.13333 0.61666,-0.33334 0.85,-0.6c0.26667,-0.26666 0.46667,-0.56667 0.6,-0.9c0.13334,-0.33334 0.2,-0.7 0.2,-1.1c0,-0.36667 -0.06666,-0.71667 -0.2,-1.05c-0.13334,-0.36667 -0.33334,-0.66666 -0.6,-0.9c-0.23333,-0.26666 -0.51666,-0.48334 -0.85,-0.65c-0.33334,-0.13333 -0.68333,-0.2 -1.05,-0.2M99,233.35c0.7,-0.3 1.45,-0.45 2.25,-0.45c1.1,0 2.05,0.21667 2.85,0.65c0.83334,0.46667 1.5,1.08334 2,1.85c0.06667,0.1 0.08334,0.2 0.05,0.3c-0.03333,0.1 -0.08334,0.18333 -0.15,0.25l-1.8,1.15c-0.1,0.03333 -0.2,0.05 -0.3,0.05c-0.1,-0.03333 -0.18333,-0.08334 -0.25,-0.15c-0.3,-0.36667 -0.65,-0.66666 -1.05,-0.9c-0.36666,-0.23334 -0.81667,-0.35 -1.35,-0.35c-0.4,0 -0.76666,0.06667 -1.1,0.2c-0.33334,0.16666 -0.61667,0.38334 -0.85,0.65c-0.26667,0.26666 -0.46666,0.56667 -0.6,0.9c-0.13334,0.33334 -0.2,0.7 -0.2,1.1c0,0.36667 0.06667,0.71667 0.2,1.05c0.13334,0.33334 0.33333,0.63334 0.6,0.9c0.23333,0.26666 0.51667,0.46667 0.85,0.6c0.33334,0.16666 0.7,0.25 1.1,0.25c0.36666,0 0.73333,-0.06667 1.1,-0.2c0.36666,-0.13333 0.66667,-0.36666 0.9,-0.7c0.06667,-0.06667 0.06667,-0.13333 0,-0.2c-0.03333,-0.06667 -0.1,-0.1 -0.2,-0.1h-1.7c-0.1,0 -0.18333,-0.03333 -0.25,-0.1c-0.1,-0.1 -0.15,-0.2 -0.15,-0.3v-1.75c0,-0.1 0.05,-0.18333 0.15,-0.25c0.06667,-0.06667 0.15,-0.1 0.25,-0.1h5.15c0.1,0 0.18333,0.01667 0.25,0.05c0.06667,0.1 0.11667,0.2 0.15,0.3c0,0.16666 0,0.36666 0,0.6c0,0.26666 -0.01667,0.51666 -0.05,0.75c-0.06667,0.7 -0.25,1.35 -0.55,1.95c-0.33334,0.6 -0.75,1.1 -1.25,1.5c-0.5,0.43333 -1.08334,0.78334 -1.75,1.05c-0.63334,0.23334 -1.31667,0.35 -2.05,0.35c-0.8,0 -1.55,-0.15 -2.25,-0.45c-0.7,-0.3 -1.31667,-0.7 -1.85,-1.2c-0.53333,-0.53333 -0.95,-1.13333 -1.25,-1.8c-0.3,-0.7 -0.45,-1.43334 -0.45,-2.2c0,-0.8 0.15,-1.55 0.45,-2.25c0.3,-0.66666 0.71667,-1.26666 1.25,-1.8c0.53333,-0.5 1.15,-0.9 1.85,-1.2M88.9,233.45v2c0,0.1 -0.03334,0.2 -0.1,0.3c-0.06667,0.06667 -0.15,0.1 -0.25,0.1h-4.7c-0.06667,0 -0.15,0.03333 -0.25,0.1c-0.06667,0.06667 -0.1,0.15 -0.1,0.25v0.6c0,0.1 0.03333,0.2 0.1,0.3c0.1,0.06667 0.18333,0.1 0.25,0.1h4.1c0.1,0 0.18333,0.03334 0.25,0.1c0.06667,0.06667 0.1,0.15 0.1,0.25v2.05c0,0.1 -0.03333,0.18333 -0.1,0.25c-0.06667,0.06667 -0.15,0.1 -0.25,0.1h-4.1c-0.06667,0 -0.15,0.03334 -0.25,0.1c-0.06667,0.1 -0.1,0.2 -0.1,0.3v0.55c0,0.1 0.03333,0.18333 0.1,0.25c0.1,0.06667 0.18333,0.1 0.25,0.1h4.7c0.1,0 0.18333,0.03333 0.25,0.1c0.06667,0.06667 0.1,0.15 0.1,0.25v2.1c0,0.1 -0.03334,0.18333 -0.1,0.25c-0.06667,0.06667 -0.15,0.1 -0.25,0.1h-7.65c-0.1,0 -0.18333,-0.03334 -0.25,-0.1c-0.06667,-0.06667 -0.1,-0.15 -0.1,-0.25v-10.25c0,-0.1 0.03334,-0.2 0.1,-0.3c0.06667,-0.06667 0.15,-0.1 0.25,-0.1h7.65c0.1,0 0.18333,0.03333 0.25,0.1c0.06667,0.1 0.1,0.2 0.1,0.3M78.5,233.45v10.25c0,0.1 -0.03333,0.18333 -0.1,0.25c-0.06667,0.06667 -0.15,0.1 -0.25,0.1h-2.25c-0.13334,0 -0.23334,-0.03334 -0.3,-0.1c-0.06667,-0.06667 -0.1,-0.15 -0.1,-0.25v-3.2c0,-0.1 -0.03333,-0.2 -0.1,-0.3c-0.06667,-0.06667 -0.15,-0.1 -0.25,-0.1h-3.1c-0.1,0 -0.18333,0.03333 -0.25,0.1c-0.06667,0.1 -0.1,0.2 -0.1,0.3v3.2c0,0.1 -0.03334,0.18333 -0.1,0.25c-0.06667,0.06667 -0.15,0.1 -0.25,0.1h-2.25c-0.1,0 -0.18333,-0.03334 -0.25,-0.1c-0.06667,-0.06667 -0.1,-0.15 -0.1,-0.25v-10.25c0,-0.1 0.03333,-0.2 0.1,-0.3c0.06667,-0.06667 0.15,-0.1 0.25,-0.1h2.25c0.1,0 0.18333,0.03333 0.25,0.1c0.06667,0.1 0.1,0.2 0.1,0.3v3.55c0,0.1 0.03333,0.18333 0.1,0.25c0.06667,0.06667 0.15,0.1 0.25,0.1h3.1c0.1,0 0.18333,-0.03333 0.25,-0.1c0.06667,-0.06667 0.1,-0.15 0.1,-0.25v-3.55c0,-0.1 0.03333,-0.2 0.1,-0.3c0.06667,-0.06667 0.16667,-0.1 0.3,-0.1h2.25c0.1,0 0.18333,0.03333 0.25,0.1c0.06667,0.1 0.1,0.2 0.1,0.3M59.25,233.05h7.95c0.1,0 0.18333,0.03333 0.25,0.1c0.06667,0.1 0.1,0.2 0.1,0.3v2c0,0.1 -0.03333,0.2 -0.1,0.3c-0.06667,0.06667 -0.15,0.1 -0.25,0.1h-2.1c-0.1,0 -0.2,0.03333 -0.3,0.1c-0.06667,0.06667 -0.1,0.15 -0.1,0.25v7.5c0,0.1 -0.03334,0.18333 -0.1,0.25c-0.06667,0.06667 -0.15,0.1 -0.25,0.1h-2.25c-0.1,0 -0.18333,-0.03334 -0.25,-0.1c-0.06667,-0.06667 -0.1,-0.15 -0.1,-0.25v-7.5c0,-0.1 -0.03334,-0.18333 -0.1,-0.25c-0.06667,-0.06667 -0.15,-0.1 -0.25,-0.1h-2.15c-0.1,0 -0.18333,-0.03333 -0.25,-0.1c-0.06667,-0.1 -0.1,-0.2 -0.1,-0.3v-2c0,-0.1 0.03334,-0.2 0.1,-0.3c0.06667,-0.06667 0.15,-0.1 0.25,-0.1M199.45,175.1c0.5,-0.13333 1,-0.2 1.5,-0.2c0.83334,0 1.58334,0.13334 2.25,0.4c0.66666,0.23334 1.3,0.58333 1.9,1.05c0.1,0.06667 0.15,0.15 0.15,0.25c0,0.1 -0.03333,0.2 -0.1,0.3l-1.15,1.65c-0.06667,0.06667 -0.15,0.11666 -0.25,0.15c-0.1,0.03333 -0.18333,0.01667 -0.25,-0.05c-0.5,-0.33334 -0.98333,-0.56667 -1.45,-0.7c-0.43333,-0.13333 -0.83334,-0.2 -1.2,-0.2c-0.1,0 -0.23334,0 -0.4,0c-0.13333,0 -0.26666,0.01667 -0.4,0.05c-0.13333,0.03333 -0.23334,0.1 -0.3,0.2c-0.1,0.06667 -0.15,0.16667 -0.15,0.3c0,0.16666 0.1,0.3 0.3,0.4c0.23334,0.1 0.48334,0.2 0.75,0.3c0.26666,0.06667 0.51666,0.11667 0.75,0.15c0.26666,0.06667 0.43333,0.1 0.5,0.1c0.36667,0.06667 0.76666,0.16667 1.2,0.3c0.43333,0.13333 0.83334,0.33334 1.2,0.6c0.36667,0.26666 0.68333,0.61666 0.95,1.05c0.23334,0.43333 0.35,0.96667 0.35,1.6c0,0.6 -0.1,1.11666 -0.3,1.55c-0.2,0.43333 -0.48334,0.78334 -0.85,1.05c-0.4,0.3 -0.85,0.51667 -1.35,0.65c-0.53333,0.13333 -1.11667,0.2 -1.75,0.2c-0.53333,0 -1.01666,-0.05 -1.45,-0.15c-0.46667,-0.06667 -0.9,-0.18333 -1.3,-0.35c-0.36667,-0.13333 -0.71666,-0.3 -1.05,-0.5c-0.36667,-0.2 -0.68334,-0.41666 -0.95,-0.65c-0.06667,-0.06667 -0.11667,-0.15 -0.15,-0.25c0,-0.1 0.03334,-0.2 0.1,-0.3l1.15,-1.65c0.06667,-0.1 0.15,-0.15 0.25,-0.15c0.1,-0.03333 0.18333,-0.01666 0.25,0.05c0.53333,0.33334 1.06667,0.6 1.6,0.8c0.53333,0.2 1.03333,0.3 1.5,0.3c0.43333,0 0.76666,-0.06667 1,-0.2c0.23334,-0.1 0.35,-0.28333 0.35,-0.55c0,-0.13333 -0.05,-0.23334 -0.15,-0.3c-0.1,-0.06667 -0.23334,-0.13333 -0.4,-0.2c-0.16666,-0.03333 -0.36666,-0.06667 -0.6,-0.1c-0.2,-0.03333 -0.41666,-0.06667 -0.65,-0.1c-0.23334,-0.06667 -0.48334,-0.11666 -0.75,-0.15c-0.3,-0.06667 -0.61666,-0.15 -0.95,-0.25c-0.3,-0.1 -0.6,-0.23334 -0.9,-0.4c-0.3,-0.16666 -0.56667,-0.36666 -0.8,-0.6c-0.26666,-0.26666 -0.46667,-0.56667 -0.6,-0.9c-0.13333,-0.36667 -0.2,-0.78333 -0.2,-1.25c0,-0.66666 0.13334,-1.23334 0.4,-1.7c0.26666,-0.43333 0.6,-0.78333 1,-1.05c0.43333,-0.26666 0.9,-0.45 1.4,-0.55M191.85,175.4l4.4,10.2c0.03333,0.1 0.01666,0.2 -0.05,0.3c-0.03333,0.1 -0.13333,0.15 -0.3,0.15h-2.55c-0.13333,0 -0.25,-0.03334 -0.35,-0.1c-0.1,-0.06667 -0.16666,-0.15 -0.2,-0.25l-0.4,-0.9c-0.06667,-0.06667 -0.13334,-0.13334 -0.2,-0.2c-0.1,-0.06667 -0.2,-0.1 -0.3,-0.1h-3.2c-0.1,0 -0.2,0.03333 -0.3,0.1c-0.1,0.06667 -0.16667,0.13334 -0.2,0.2l-0.4,0.9c-0.03333,0.1 -0.1,0.18333 -0.2,0.25c-0.1,0.06667 -0.2,0.1 -0.3,0.1h-2.6c-0.03333,0 -0.08333,-0.01667 -0.15,-0.05c-0.06667,0 -0.11667,-0.01667 -0.15,-0.05c-0.03333,-0.06667 -0.05,-0.11666 -0.05,-0.15c0,-0.06667 0.01667,-0.15 0.05,-0.25l4.35,-10.15c0.03333,-0.06667 0.1,-0.13334 0.2,-0.2c0.1,-0.06667 0.2,-0.1 0.3,-0.1h2.1c0.1,0 0.2,0.03333 0.3,0.1c0.1,0.06667 0.16666,0.13334 0.2,0.2M191.2,181.6c-0.1,-0.23334 -0.23333,-0.51666 -0.4,-0.85c-0.13333,-0.33334 -0.25,-0.65 -0.35,-0.95c-0.06667,-0.1 -0.11666,-0.15 -0.15,-0.15c-0.06667,0 -0.11667,0.05 -0.15,0.15l-0.75,1.8c-0.03333,0.1 -0.03333,0.18333 0,0.25c0.03333,0.06667 0.11667,0.1 0.25,0.1h1.3c0.1,0 0.18333,-0.03333 0.25,-0.1c0.03333,-0.06667 0.03333,-0.15 0,-0.25M178.7,175.15c0.1,0.06667 0.16667,0.15 0.2,0.25l1.65,5.05c0.03333,0.1 0.08333,0.15 0.15,0.15c0.06667,0 0.11667,-0.05 0.15,-0.15l1.75,-5.05c0.03333,-0.1 0.1,-0.18333 0.2,-0.25c0.06667,-0.06667 0.16666,-0.1 0.3,-0.1h2.4c0.1,0 0.18333,0.05 0.25,0.15c0.03333,0.1 0.03333,0.18333 0,0.25l-3.65,10.25c-0.03333,0.1 -0.1,0.18333 -0.2,0.25c-0.06667,0.06667 -0.16667,0.1 -0.3,0.1h-1.9c-0.13333,0 -0.23333,-0.03334 -0.3,-0.1c-0.1,-0.06667 -0.16667,-0.15 -0.2,-0.25l-1.65,-5c-0.03333,-0.1 -0.08334,-0.15 -0.15,-0.15c-0.06667,0 -0.11667,0.05 -0.15,0.15l-1.65,5c-0.03333,0.1 -0.1,0.18333 -0.2,0.25c-0.06667,0.06667 -0.16667,0.1 -0.3,0.1h-1.9c-0.13333,0 -0.23333,-0.03334 -0.3,-0.1c-0.1,-0.1 -0.16667,-0.18333 -0.2,-0.25l-3.6,-10.2c-0.03333,-0.1 -0.03333,-0.2 0,-0.3c0.03333,-0.1 0.11667,-0.15 0.25,-0.15h2.45c0.1,0 0.18333,0.03333 0.25,0.1c0.1,0.06667 0.16666,0.15 0.2,0.25l1.7,5c0.03333,0.1 0.08334,0.15 0.15,0.15c0.1,0 0.16667,-0.05 0.2,-0.15l1.65,-5c0,-0.1 0.05,-0.18333 0.15,-0.25c0.1,-0.06667 0.2,-0.1 0.3,-0.1h2c0.1,0 0.2,0.03333 0.3,0.1M162.5,177.85h-4.7c-0.06667,0 -0.15,0.03333 -0.25,0.1c-0.06667,0.06667 -0.1,0.15 -0.1,0.25v0.6c0,0.1 0.03334,0.2 0.1,0.3c0.1,0.06667 0.18333,0.1 0.25,0.1h4.1c0.1,0 0.18333,0.03334 0.25,0.1c0.06667,0.06667 0.1,0.15 0.1,0.25v2.05c0,0.1 -0.03333,0.18333 -0.1,0.25c-0.06667,0.06667 -0.15,0.1 -0.25,0.1h-4.1c-0.06667,0 -0.15,0.03334 -0.25,0.1c-0.06667,0.1 -0.1,0.2 -0.1,0.3v0.55c0,0.1 0.03334,0.18333 0.1,0.25c0.1,0.06667 0.18333,0.1 0.25,0.1h4.7c0.1,0 0.18333,0.03333 0.25,0.1c0.06667,0.06667 0.1,0.15 0.1,0.25v2.1c0,0.1 -0.03333,0.18333 -0.1,0.25c-0.06667,0.06667 -0.15,0.1 -0.25,0.1h-7.65c-0.1,0 -0.18333,-0.03334 -0.25,-0.1c-0.06667,-0.06667 -0.1,-0.15 -0.1,-0.25v-10.25c0,-0.1 0.03333,-0.2 0.1,-0.3c0.06667,-0.06667 0.15,-0.1 0.25,-0.1h7.65c0.1,0 0.18333,0.03333 0.25,0.1c0.06667,0.1 0.1,0.2 0.1,0.3v2c0,0.1 -0.03333,0.2 -0.1,0.3c-0.06667,0.06667 -0.15,0.1 -0.25,0.1M152.7,179c0,0.33334 -0.03333,0.65 -0.1,0.95c-0.06667,0.33334 -0.16666,0.63334 -0.3,0.9c-0.16666,0.3 -0.33334,0.55 -0.5,0.75c-0.2,0.23334 -0.41666,0.43333 -0.65,0.6c-0.1,0.03333 -0.15,0.1 -0.15,0.2c-0.03333,0.1 -0.01666,0.18333 0.05,0.25c0.36667,0.5 0.76666,1.01666 1.2,1.55c0.4,0.53333 0.76666,1.01667 1.1,1.45c0.06667,0.06667 0.08334,0.15 0.05,0.25c-0.03333,0.1 -0.1,0.15 -0.2,0.15h-2.8c-0.1,0 -0.2,-0.03334 -0.3,-0.1c-0.13333,-0.03333 -0.21667,-0.1 -0.25,-0.2c-0.33334,-0.4 -0.65,-0.81667 -0.95,-1.25c-0.33334,-0.43333 -0.65,-0.86667 -0.95,-1.3c-0.06667,-0.1 -0.15,-0.16666 -0.25,-0.2c-0.13333,-0.06667 -0.25,-0.1 -0.35,-0.1h-0.3c-0.1,0 -0.18333,0.03333 -0.25,0.1c-0.06667,0.06667 -0.1,0.15 -0.1,0.25v2.45c0,0.1 -0.03333,0.18333 -0.1,0.25c-0.1,0.06667 -0.2,0.1 -0.3,0.1h-2.2c-0.1,0 -0.18333,-0.03334 -0.25,-0.1c-0.06667,-0.06667 -0.1,-0.15 -0.1,-0.25v-10.25c0,-0.1 0.03333,-0.2 0.1,-0.3c0.06667,-0.06667 0.15,-0.1 0.25,-0.1h4.65c0.56667,0 1.1,0.1 1.6,0.3c0.5,0.2 0.91666,0.48333 1.25,0.85c0.36667,0.33334 0.63334,0.75 0.8,1.25c0.2,0.46667 0.3,0.98334 0.3,1.55M149.5,178.25c-0.06667,-0.1 -0.18333,-0.2 -0.35,-0.3c-0.13333,-0.06667 -0.3,-0.1 -0.5,-0.1h-1.6c-0.1,0 -0.18333,0.03333 -0.25,0.1c-0.06667,0.06667 -0.1,0.15 -0.1,0.25v1.6c0,0.1 0.03334,0.18333 0.1,0.25c0.06667,0.06667 0.15,0.1 0.25,0.1h1.6c0.1,0 0.21667,-0.03333 0.35,-0.1c0.13333,-0.03333 0.25,-0.1 0.35,-0.2c0.13333,-0.1 0.23334,-0.21667 0.3,-0.35c0.06667,-0.13333 0.1,-0.3 0.1,-0.5c0,-0.1 -0.01667,-0.21667 -0.05,-0.35c-0.03333,-0.13333 -0.1,-0.26667 -0.2,-0.4M140.5,176.55c0.53333,0.5 0.95,1.1 1.25,1.8c0.3,0.7 0.45,1.43334 0.45,2.2c0,0.8 -0.15,1.53333 -0.45,2.2c-0.3,0.7 -0.71667,1.31667 -1.25,1.85c-0.5,0.5 -1.1,0.9 -1.8,1.2c-0.7,0.3 -1.43333,0.45 -2.2,0.45c-0.76666,0 -1.5,-0.15 -2.2,-0.45c-0.7,-0.3 -1.3,-0.7 -1.8,-1.2c-0.5,-0.53333 -0.9,-1.15 -1.2,-1.85c-0.3,-0.66666 -0.45,-1.4 -0.45,-2.2c0,-0.76666 0.15,-1.5 0.45,-2.2c0.3,-0.7 0.7,-1.3 1.2,-1.8c0.5,-0.53333 1.1,-0.95 1.8,-1.25c0.7,-0.3 1.43333,-0.45 2.2,-0.45c0.76666,0 1.5,0.15 2.2,0.45c0.7,0.3 1.3,0.71667 1.8,1.25M137.55,177.95c-0.33334,-0.13333 -0.68333,-0.2 -1.05,-0.2c-0.36667,0 -0.71667,0.06667 -1.05,0.2c-0.33334,0.16666 -0.61666,0.38334 -0.85,0.65c-0.26666,0.23334 -0.46667,0.53333 -0.6,0.9c-0.13333,0.33334 -0.2,0.68333 -0.2,1.05c0,0.4 0.06667,0.76666 0.2,1.1c0.13333,0.33334 0.33334,0.63334 0.6,0.9c0.23334,0.26666 0.51666,0.46667 0.85,0.6c0.33334,0.16666 0.68333,0.25 1.05,0.25c0.36667,0 0.71667,-0.08334 1.05,-0.25c0.33334,-0.13333 0.61666,-0.33334 0.85,-0.6c0.26666,-0.26666 0.46667,-0.56667 0.6,-0.9c0.13333,-0.33334 0.2,-0.7 0.2,-1.1c0,-0.36667 -0.06667,-0.71667 -0.2,-1.05c-0.13333,-0.36667 -0.33334,-0.66666 -0.6,-0.9c-0.23334,-0.26666 -0.51666,-0.48334 -0.85,-0.65M120.75,176.55c0.53333,-0.5 1.15,-0.9 1.85,-1.2c0.7,-0.3 1.45,-0.45 2.25,-0.45c0.63334,0 1.21667,0.08334 1.75,0.25c0.53333,0.13333 1.01667,0.33334 1.45,0.6c0.43333,0.26666 0.81666,0.6 1.15,1c0.36667,0.36667 0.68334,0.78333 0.95,1.25c0.06667,0.1 0.08333,0.18333 0.05,0.25c-0.03333,0.1 -0.1,0.16666 -0.2,0.2l-2.1,0.85c-0.1,0.03333 -0.2,0.03333 -0.3,0c-0.1,-0.03333 -0.18333,-0.1 -0.25,-0.2c-0.26667,-0.43333 -0.61666,-0.78333 -1.05,-1.05c-0.4,-0.23334 -0.88334,-0.35 -1.45,-0.35c-0.4,0 -0.76666,0.08334 -1.1,0.25c-0.33334,0.16666 -0.61666,0.36667 -0.85,0.6c-0.26667,0.26666 -0.46667,0.58333 -0.6,0.95c-0.13334,0.33334 -0.2,0.7 -0.2,1.1c0,0.36667 0.06667,0.71667 0.2,1.05c0.13334,0.36667 0.33334,0.66666 0.6,0.9c0.23333,0.26666 0.51666,0.48333 0.85,0.65c0.33334,0.16666 0.7,0.25 1.1,0.25c0.53333,0 1.01667,-0.13333 1.45,-0.4c0.46667,-0.26666 0.83334,-0.61667 1.1,-1.05c0.03333,-0.06667 0.1,-0.11667 0.2,-0.15c0.1,-0.03333 0.2,-0.03333 0.3,0l2.1,0.85c0.1,0.03333 0.16666,0.08334 0.2,0.15c0.03333,0.1 0.01667,0.2 -0.05,0.3c-0.26666,0.46667 -0.58334,0.88333 -0.95,1.25c-0.33334,0.4 -0.71666,0.73334 -1.15,1c-0.43333,0.26666 -0.91667,0.46667 -1.45,0.6c-0.53333,0.16666 -1.11666,0.25 -1.75,0.25c-0.8,0 -1.55,-0.15 -2.25,-0.45c-0.7,-0.3 -1.31667,-0.7 -1.85,-1.2c-0.53333,-0.53333 -0.95,-1.13333 -1.25,-1.8c-0.3,-0.7 -0.45,-1.43334 -0.45,-2.2c0,-0.8 0.15,-1.55 0.45,-2.25c0.3,-0.66666 0.71667,-1.26666 1.25,-1.8M117.55,176.9l-1.15,1.65c-0.06667,0.06667 -0.15,0.11666 -0.25,0.15c-0.1,0.03333 -0.18333,0.01667 -0.25,-0.05c-0.5,-0.33334 -0.98333,-0.56667 -1.45,-0.7c-0.43333,-0.13333 -0.83334,-0.2 -1.2,-0.2c-0.1,0 -0.23334,0 -0.4,0c-0.13334,0 -0.26666,0.01667 -0.4,0.05c-0.13334,0.03333 -0.23333,0.1 -0.3,0.2c-0.1,0.06667 -0.15,0.16667 -0.15,0.3c0,0.16666 0.1,0.3 0.3,0.4c0.23333,0.1 0.48333,0.2 0.75,0.3c0.26667,0.06667 0.51667,0.11667 0.75,0.15c0.26667,0.06667 0.43333,0.1 0.5,0.1c0.36666,0.06667 0.76667,0.16667 1.2,0.3c0.43333,0.13333 0.83334,0.33334 1.2,0.6c0.36666,0.26666 0.68333,0.61666 0.95,1.05c0.23333,0.43333 0.35,0.96667 0.35,1.6c0,0.6 -0.1,1.11666 -0.3,1.55c-0.2,0.43333 -0.48334,0.78334 -0.85,1.05c-0.4,0.3 -0.85,0.51667 -1.35,0.65c-0.53333,0.13333 -1.11666,0.2 -1.75,0.2c-0.53333,0 -1.01667,-0.05 -1.45,-0.15c-0.46667,-0.06667 -0.9,-0.18333 -1.3,-0.35c-0.36666,-0.13333 -0.71666,-0.3 -1.05,-0.5c-0.36666,-0.2 -0.68333,-0.41666 -0.95,-0.65c-0.06667,-0.06667 -0.11667,-0.15 -0.15,-0.25c0,-0.1 0.03334,-0.2 0.1,-0.3l1.15,-1.65c0.06667,-0.1 0.15,-0.15 0.25,-0.15c0.1,-0.03333 0.18333,-0.01666 0.25,0.05c0.53333,0.33334 1.06667,0.6 1.6,0.8c0.53333,0.2 1.03333,0.3 1.5,0.3c0.43333,0 0.76667,-0.06667 1,-0.2c0.23333,-0.1 0.35,-0.28333 0.35,-0.55c0,-0.13333 -0.05,-0.23334 -0.15,-0.3c-0.1,-0.06667 -0.23334,-0.13333 -0.4,-0.2c-0.16666,-0.03333 -0.36666,-0.06667 -0.6,-0.1c-0.2,-0.03333 -0.41667,-0.06667 -0.65,-0.1c-0.23333,-0.06667 -0.48333,-0.11666 -0.75,-0.15c-0.3,-0.06667 -0.61666,-0.15 -0.95,-0.25c-0.3,-0.1 -0.6,-0.23334 -0.9,-0.4c-0.3,-0.16666 -0.56667,-0.36666 -0.8,-0.6c-0.26667,-0.26666 -0.46666,-0.56667 -0.6,-0.9c-0.13334,-0.36667 -0.2,-0.78333 -0.2,-1.25c0,-0.66666 0.13334,-1.23334 0.4,-1.7c0.26667,-0.43333 0.6,-0.78333 1,-1.05c0.43333,-0.26666 0.9,-0.45 1.4,-0.55c0.5,-0.13333 1,-0.2 1.5,-0.2c0.83334,0 1.58334,0.13334 2.25,0.4c0.66666,0.23334 1.3,0.58333 1.9,1.05c0.1,0.06667 0.15,0.15 0.15,0.25c0,0.1 -0.03334,0.2 -0.1,0.3M100.05,175.35c0.5,0.2 0.91666,0.48333 1.25,0.85c0.36666,0.33334 0.63334,0.75 0.8,1.25c0.2,0.46667 0.3,0.98334 0.3,1.55c0,0.33334 -0.03334,0.65 -0.1,0.95c-0.06667,0.33334 -0.16666,0.63334 -0.3,0.9c-0.16666,0.3 -0.33334,0.55 -0.5,0.75c-0.2,0.23334 -0.41667,0.43333 -0.65,0.6c-0.1,0.03333 -0.15,0.1 -0.15,0.2c-0.03333,0.1 -0.01667,0.18333 0.05,0.25c0.36666,0.5 0.76667,1.01666 1.2,1.55c0.4,0.53333 0.76666,1.01667 1.1,1.45c0.06667,0.06667 0.08333,0.15 0.05,0.25c-0.03333,0.1 -0.1,0.15 -0.2,0.15h-2.8c-0.1,0 -0.2,-0.03334 -0.3,-0.1c-0.13334,-0.03333 -0.21667,-0.1 -0.25,-0.2c-0.33334,-0.4 -0.65,-0.81667 -0.95,-1.25c-0.33334,-0.43333 -0.65,-0.86667 -0.95,-1.3c-0.06667,-0.1 -0.15,-0.16666 -0.25,-0.2c-0.13334,-0.06667 -0.25,-0.1 -0.35,-0.1h-0.3c-0.1,0 -0.18333,0.03333 -0.25,0.1c-0.06667,0.06667 -0.1,0.15 -0.1,0.25v2.45c0,0.1 -0.03334,0.18333 -0.1,0.25c-0.1,0.06667 -0.2,0.1 -0.3,0.1h-2.2c-0.1,0 -0.18333,-0.03334 -0.25,-0.1c-0.06667,-0.06667 -0.1,-0.15 -0.1,-0.25v-10.25c0,-0.1 0.03333,-0.2 0.1,-0.3c0.06667,-0.06667 0.15,-0.1 0.25,-0.1h4.65c0.56667,0 1.1,0.1 1.6,0.3M96.4,178.2v1.6c0,0.1 0.03333,0.18333 0.1,0.25c0.06667,0.06667 0.15,0.1 0.25,0.1h1.6c0.1,0 0.21667,-0.03333 0.35,-0.1c0.13334,-0.03333 0.25,-0.1 0.35,-0.2c0.13334,-0.1 0.23333,-0.21667 0.3,-0.35c0.06667,-0.13333 0.1,-0.3 0.1,-0.5c0,-0.1 -0.01667,-0.21667 -0.05,-0.35c-0.03333,-0.13333 -0.1,-0.26667 -0.2,-0.4c-0.06667,-0.1 -0.18334,-0.2 -0.35,-0.3c-0.13334,-0.06667 -0.3,-0.1 -0.5,-0.1h-1.6c-0.1,0 -0.18333,0.03333 -0.25,0.1c-0.06667,0.06667 -0.1,0.15 -0.1,0.25M91.2,181.5c0,0.73334 -0.11667,1.38333 -0.35,1.95c-0.2,0.6 -0.51666,1.1 -0.95,1.5c-0.43333,0.4 -0.93333,0.71667 -1.5,0.95c-0.6,0.23334 -1.26667,0.35 -2,0.35c-0.7,0 -1.35,-0.11666 -1.95,-0.35c-0.6,-0.23334 -1.1,-0.55 -1.5,-0.95c-0.43333,-0.4 -0.76667,-0.9 -1,-1.5c-0.23333,-0.56667 -0.35,-1.21666 -0.35,-1.95v-6.05c0,-0.1 0.03334,-0.18333 0.1,-0.25c0.1,-0.06667 0.18333,-0.1 0.25,-0.1h2.3c0.1,0 0.18333,0.03333 0.25,0.1c0.06667,0.06667 0.1,0.15 0.1,0.25v6.05c0,0.4 0.06667,0.73334 0.2,1c0.1,0.23334 0.25,0.43333 0.45,0.6c0.2,0.13333 0.4,0.23334 0.6,0.3c0.2,0.06667 0.38334,0.1 0.55,0.1c0.16666,0 0.36666,-0.03333 0.6,-0.1c0.2,-0.06667 0.38334,-0.16667 0.55,-0.3c0.2,-0.16666 0.35,-0.36666 0.45,-0.6c0.13334,-0.26666 0.2,-0.6 0.2,-1v-6.05c0,-0.1 0.03333,-0.18333 0.1,-0.25c0.06667,-0.06667 0.15,-0.1 0.25,-0.1h2.3c0.1,0 0.18333,0.03333 0.25,0.1c0.06667,0.06667 0.1,0.15 0.1,0.25v6.05M78.4,176.55c0.53333,0.5 0.95,1.1 1.25,1.8c0.3,0.7 0.45,1.43334 0.45,2.2c0,0.8 -0.15,1.53333 -0.45,2.2c-0.3,0.7 -0.71667,1.31667 -1.25,1.85c-0.5,0.5 -1.1,0.9 -1.8,1.2c-0.7,0.3 -1.43333,0.45 -2.2,0.45c-0.76667,0 -1.5,-0.15 -2.2,-0.45c-0.7,-0.3 -1.3,-0.7 -1.8,-1.2c-0.5,-0.53333 -0.9,-1.15 -1.2,-1.85c-0.3,-0.66666 -0.45,-1.4 -0.45,-2.2c0,-0.76666 0.15,-1.5 0.45,-2.2c0.3,-0.7 0.7,-1.3 1.2,-1.8c0.5,-0.53333 1.1,-0.95 1.8,-1.25c0.7,-0.3 1.43333,-0.45 2.2,-0.45c0.76667,0 1.5,0.15 2.2,0.45c0.7,0.3 1.3,0.71667 1.8,1.25M72.5,178.6c-0.26667,0.23334 -0.46666,0.53333 -0.6,0.9c-0.13334,0.33334 -0.2,0.68333 -0.2,1.05c0,0.4 0.06667,0.76666 0.2,1.1c0.13334,0.33334 0.33333,0.63334 0.6,0.9c0.23333,0.26666 0.51666,0.46667 0.85,0.6c0.33334,0.16666 0.68334,0.25 1.05,0.25c0.36666,0 0.71666,-0.08334 1.05,-0.25c0.33334,-0.13333 0.61666,-0.33334 0.85,-0.6c0.26667,-0.26666 0.46667,-0.56667 0.6,-0.9c0.13334,-0.33334 0.2,-0.7 0.2,-1.1c0,-0.36667 -0.06666,-0.71667 -0.2,-1.05c-0.13334,-0.36667 -0.33334,-0.66666 -0.6,-0.9c-0.23333,-0.26666 -0.51666,-0.48334 -0.85,-0.65c-0.33334,-0.13333 -0.68333,-0.2 -1.05,-0.2c-0.36666,0 -0.71667,0.06667 -1.05,0.2c-0.33334,0.16666 -0.61666,0.38334 -0.85,0.65M58.4,175.1h2.65c0.1,0 0.21666,0.01667 0.35,0.05c0.1,0.06667 0.16667,0.15 0.2,0.25l1.85,3.2c0.06667,0.1 0.13333,0.15 0.2,0.15c0.06667,0 0.11666,-0.05 0.15,-0.15l1.85,-3.2c0.03333,-0.1 0.1,-0.18333 0.2,-0.25c0.13334,-0.03333 0.25,-0.05 0.35,-0.05h2.7c0.1,0 0.16666,0.03333 0.2,0.1c0.03333,0.06667 0.01667,0.16667 -0.05,0.3l-3.75,6.1c-0.06667,0.06667 -0.11666,0.16667 -0.15,0.3c-0.03333,0.13333 -0.05,0.25 -0.05,0.35v3.45c0,0.1 -0.03333,0.18333 -0.1,0.25c-0.06667,0.06667 -0.15,0.1 -0.25,0.1h-2.25c-0.1,0 -0.2,-0.03334 -0.3,-0.1c-0.06667,-0.06667 -0.1,-0.15 -0.1,-0.25v-3.45c0,-0.1 -0.01667,-0.21667 -0.05,-0.35c-0.03334,-0.13333 -0.06666,-0.23334 -0.1,-0.3c-0.6,-1.03333 -1.21666,-2.05 -1.85,-3.05c-0.63334,-0.96667 -1.25,-1.98334 -1.85,-3.05c-0.06667,-0.1 -0.08333,-0.2 -0.05,-0.3c0.03334,-0.06667 0.1,-0.1 0.2,-0.1M333.45,79.9h7.65c2.93333,0 5.33333,0.86666 7.2,2.6c1,0.93333 1.75,2.03333 2.25,3.3c0.53334,1.3 0.8,2.75 0.8,4.35c0,1.6 -0.26666,3.05 -0.8,4.35c-0.5,1.3 -1.25,2.41666 -2.25,3.35c-0.96666,0.83334 -2.05,1.46667 -3.25,1.9c-1.2,0.43333 -2.51666,0.65 -3.95,0.65h-7.65c-0.2,0 -0.36667,-0.06667 -0.5,-0.2c-0.13333,-0.13334 -0.2,-0.28334 -0.2,-0.45v-19.15c0,-0.2 0.06667,-0.36666 0.2,-0.5c0.13333,-0.13334 0.3,-0.2 0.5,-0.2M338.3,85.8v8.8c0,0.16666 0.06667,0.31667 0.2,0.45c0.13333,0.13334 0.3,0.2 0.5,0.2h2.1c0.5,0 1.03333,-0.06667 1.6,-0.2c0.56667,-0.13334 1.06667,-0.38334 1.5,-0.75c0.46666,-0.36666 0.83334,-0.86666 1.1,-1.5c0.3,-0.66666 0.45,-1.53333 0.45,-2.6c0,-1.06667 -0.15,-1.93334 -0.45,-2.6c-0.26666,-0.66666 -0.63334,-1.18333 -1.1,-1.55c-0.46666,-0.36666 -0.96666,-0.61666 -1.5,-0.75c-0.56667,-0.13334 -1.1,-0.2 -1.6,-0.2h-2.1c-0.2,0 -0.36667,0.06667 -0.5,0.2c-0.13333,0.13334 -0.2,0.3 -0.2,0.5M280.75,79.9h7.65c2.93333,0 5.33334,0.86666 7.2,2.6c1,0.93333 1.75,2.03333 2.25,3.3c0.53334,1.3 0.8,2.75 0.8,4.35c0,1.6 -0.26666,3.05 -0.8,4.35c-0.5,1.3 -1.25,2.41666 -2.25,3.35c-0.96666,0.83334 -2.05,1.46667 -3.25,1.9c-1.2,0.43333 -2.51667,0.65 -3.95,0.65h-7.65c-0.2,0 -0.36667,-0.06667 -0.5,-0.2c-0.13333,-0.13334 -0.2,-0.28334 -0.2,-0.45v-19.15c0,-0.2 0.06667,-0.36666 0.2,-0.5c0.13333,-0.13334 0.3,-0.2 0.5,-0.2M285.6,85.8v8.8c0,0.16666 0.06667,0.31667 0.2,0.45c0.13333,0.13334 0.3,0.2 0.5,0.2h2.1c0.5,0 1.03334,-0.06667 1.6,-0.2c0.56667,-0.13334 1.06667,-0.38334 1.5,-0.75c0.46666,-0.36666 0.83334,-0.86666 1.1,-1.5c0.3,-0.66666 0.45,-1.53333 0.45,-2.6c0,-1.06667 -0.15,-1.93334 -0.45,-2.6c-0.26666,-0.66666 -0.63334,-1.18333 -1.1,-1.55c-0.46666,-0.36666 -0.96666,-0.61666 -1.5,-0.75c-0.56667,-0.13334 -1.1,-0.2 -1.6,-0.2h-2.1c-0.2,0 -0.36667,0.06667 -0.5,0.2c-0.13333,0.13334 -0.2,0.3 -0.2,0.5M261.05,80.1c0.13333,-0.13334 0.3,-0.2 0.5,-0.2h14.25c0.2,0 0.35,0.06666 0.45,0.2c0.13333,0.13334 0.2,0.3 0.2,0.5v3.8c0,0.16666 -0.06667,0.33334 -0.2,0.5c-0.1,0.1 -0.25,0.15 -0.45,0.15h-8.7c-0.2,0 -0.36667,0.06667 -0.5,0.2c-0.13333,0.13334 -0.2,0.3 -0.2,0.5v1.15c0,0.2 0.06667,0.36666 0.2,0.5c0.13333,0.13334 0.3,0.2 0.5,0.2h7.6c0.16667,0 0.31667,0.05 0.45,0.15c0.13333,0.16666 0.2,0.33334 0.2,0.5v3.85c0,0.2 -0.06667,0.36666 -0.2,0.5c-0.13333,0.13334 -0.28333,0.2 -0.45,0.2h-7.6c-0.2,0 -0.36667,0.06667 -0.5,0.2c-0.13333,0.13334 -0.2,0.28334 -0.2,0.45v1.05c0,0.2 0.06667,0.36666 0.2,0.5c0.13333,0.13334 0.3,0.2 0.5,0.2h8.7c0.2,0 0.35,0.06667 0.45,0.2c0.13333,0.13334 0.2,0.28333 0.2,0.45v3.9c0,0.16666 -0.06667,0.31667 -0.2,0.45c-0.1,0.13334 -0.25,0.2 -0.45,0.2h-14.25c-0.2,0 -0.36667,-0.06667 -0.5,-0.2c-0.1,-0.13334 -0.15,-0.28334 -0.15,-0.45v-19.15c0,-0.2 0.05,-0.36666 0.15,-0.5M256.95,80.15c0.13333,0.13334 0.2,0.28333 0.2,0.45v19.15c0,0.16666 -0.06667,0.31667 -0.2,0.45c-0.13333,0.13334 -0.28333,0.2 -0.45,0.2h-4.25c-0.2,0 -0.36667,-0.06667 -0.5,-0.2c-0.1,-0.13334 -0.15,-0.28334 -0.15,-0.45v-19.15c0,-0.16666 0.05,-0.31666 0.15,-0.45c0.13333,-0.13334 0.3,-0.2 0.5,-0.2h4.25c0.16667,0 0.31667,0.06667 0.45,0.2M245.25,97.85c-0.96667,0.83334 -2.05,1.46667 -3.25,1.9c-1.2,0.43333 -2.51666,0.65 -3.95,0.65h-7.65c-0.2,0 -0.36667,-0.06667 -0.5,-0.2c-0.13333,-0.13334 -0.2,-0.28334 -0.2,-0.45v-19.15c0,-0.2 0.06667,-0.36666 0.2,-0.5c0.13333,-0.13334 0.3,-0.2 0.5,-0.2h7.65c2.93333,0 5.33333,0.86666 7.2,2.6c1,0.93333 1.75,2.03333 2.25,3.3c0.53333,1.3 0.8,2.75 0.8,4.35c0,1.6 -0.26667,3.05 -0.8,4.35c-0.5,1.3 -1.25,2.41666 -2.25,3.35M239.65,85.3c-0.56667,-0.13334 -1.1,-0.2 -1.6,-0.2h-2.1c-0.2,0 -0.36667,0.06667 -0.5,0.2c-0.13333,0.13334 -0.2,0.3 -0.2,0.5v8.8c0,0.16666 0.06667,0.31667 0.2,0.45c0.13333,0.13334 0.3,0.2 0.5,0.2h2.1c0.5,0 1.03333,-0.06667 1.6,-0.2c0.56667,-0.13334 1.06667,-0.38334 1.5,-0.75c0.46667,-0.36666 0.83334,-0.86666 1.1,-1.5c0.3,-0.66666 0.45,-1.53333 0.45,-2.6c0,-1.06667 -0.15,-1.93334 -0.45,-2.6c-0.26666,-0.66666 -0.63333,-1.18333 -1.1,-1.55c-0.46667,-0.36666 -0.96667,-0.61666 -1.5,-0.75M200.55,79.9h8.7c1.1,0 2.1,0.18333 3,0.55c0.93333,0.36666 1.71667,0.88334 2.35,1.55c0.63333,0.63334 1.13333,1.4 1.5,2.3c0.36667,0.9 0.55,1.9 0.55,3c0,0.56667 -0.06667,1.15 -0.2,1.75c-0.13333,0.6 -0.33334,1.15 -0.6,1.65c-0.26666,0.53333 -0.58333,1.01667 -0.95,1.45c-0.33334,0.4 -0.73334,0.75 -1.2,1.05c-0.13333,0.1 -0.23333,0.23333 -0.3,0.4c-0.03333,0.16666 0,0.31667 0.1,0.45c0.73334,0.93333 1.48334,1.9 2.25,2.9c0.8,0.96667 1.5,1.86666 2.1,2.7c0.13333,0.13334 0.16666,0.3 0.1,0.5c-0.06667,0.16666 -0.18333,0.25 -0.35,0.25h-5.25c-0.16666,0 -0.36666,-0.05 -0.6,-0.15c-0.2,-0.1 -0.35,-0.23334 -0.45,-0.4c-0.63333,-0.76667 -1.23334,-1.55 -1.8,-2.35c-0.6,-0.8 -1.18333,-1.61666 -1.75,-2.45c-0.1,-0.13334 -0.26666,-0.25 -0.5,-0.35c-0.2,-0.13334 -0.38334,-0.2 -0.55,-0.2h-0.65c-0.16666,0 -0.31667,0.06667 -0.45,0.2c-0.13333,0.13334 -0.2,0.3 -0.2,0.5v4.55c0,0.16666 -0.06667,0.31667 -0.2,0.45c-0.13333,0.13334 -0.28333,0.2 -0.45,0.2h-4.2c-0.16666,0 -0.31667,-0.06667 -0.45,-0.2c-0.13333,-0.13334 -0.2,-0.28334 -0.2,-0.45v-19.15c0,-0.2 0.06667,-0.36666 0.2,-0.5c0.13333,-0.13334 0.28334,-0.2 0.45,-0.2M205.4,85.75v2.95c0,0.2 0.06667,0.36666 0.2,0.5c0.13333,0.1 0.28334,0.15 0.45,0.15h3c0.23334,0 0.46666,-0.03333 0.7,-0.1c0.23334,-0.06667 0.45,-0.2 0.65,-0.4c0.2,-0.16666 0.36667,-0.38333 0.5,-0.65c0.13333,-0.26667 0.2,-0.56667 0.2,-0.9c0,-0.2 -0.03333,-0.41666 -0.1,-0.65c-0.06667,-0.26667 -0.18333,-0.51667 -0.35,-0.75c-0.13333,-0.23333 -0.33334,-0.43334 -0.6,-0.6c-0.3,-0.16666 -0.63333,-0.25 -1,-0.25h-3c-0.16666,0 -0.31667,0.06667 -0.45,0.2c-0.13333,0.13334 -0.2,0.3 -0.2,0.5M178.55,79.95h4.2c0.2,0 0.36667,0.06667 0.5,0.2c0.13333,0.13334 0.2,0.28333 0.2,0.45v11.35c0,0.73333 0.11667,1.33333 0.35,1.8c0.23334,0.46667 0.51666,0.85 0.85,1.15c0.36667,0.26667 0.73333,0.45 1.1,0.55c0.4,0.1 0.76666,0.15 1.1,0.15c0.3,0 0.65,-0.05 1.05,-0.15c0.36667,-0.1 0.73333,-0.28333 1.1,-0.55c0.33334,-0.3 0.6,-0.68333 0.8,-1.15c0.26666,-0.46667 0.4,-1.06667 0.4,-1.8v-11.35c0,-0.16666 0.05,-0.31666 0.15,-0.45c0.13333,-0.13334 0.3,-0.2 0.5,-0.2h4.25c0.16666,0 0.31667,0.06667 0.45,0.2c0.13333,0.13334 0.2,0.28333 0.2,0.45v11.35c0,1.33334 -0.21667,2.53333 -0.65,3.6c-0.4,1.1 -1,2.03333 -1.8,2.8c-0.76666,0.76667 -1.7,1.35 -2.8,1.75c-1.1,0.43333 -2.31667,0.65 -3.65,0.65c-1.36667,0 -2.6,-0.21667 -3.7,-0.65c-1.1,-0.4 -2.03334,-0.98333 -2.8,-1.75c-0.8,-0.76667 -1.41666,-1.7 -1.85,-2.8c-0.43333,-1.06667 -0.65,-2.26666 -0.65,-3.6v-11.35c0,-0.16666 0.06667,-0.31666 0.2,-0.45c0.13333,-0.13334 0.3,-0.2 0.5,-0.2M171.95,82.65c0.96667,0.96667 1.71667,2.1 2.25,3.4c0.56667,1.3 0.85,2.66667 0.85,4.1c0,1.46667 -0.28334,2.85 -0.85,4.15c-0.53333,1.26667 -1.28333,2.38334 -2.25,3.35c-0.96667,0.96667 -2.1,1.73333 -3.4,2.3c-1.26666,0.53333 -2.63334,0.8 -4.1,0.8c-1.46667,0 -2.83334,-0.26667 -4.1,-0.8c-1.3,-0.56667 -2.43333,-1.33333 -3.4,-2.3c-0.93333,-0.96667 -1.68333,-2.08334 -2.25,-3.35c-0.56667,-1.3 -0.85,-2.68333 -0.85,-4.15c0,-1.43333 0.28333,-2.8 0.85,-4.1c0.56667,-1.3 1.31667,-2.43333 2.25,-3.4c0.96667,-0.93333 2.1,-1.68333 3.4,-2.25c1.26666,-0.56667 2.63333,-0.85 4.1,-0.85c1.46667,0 2.83334,0.28334 4.1,0.85c1.3,0.56667 2.43333,1.31667 3.4,2.25M162.5,85.35c-0.63333,0.26667 -1.18333,0.65 -1.65,1.15c-0.43333,0.46667 -0.78333,1.01667 -1.05,1.65c-0.26666,0.66666 -0.4,1.33334 -0.4,2c0,0.7 0.13334,1.36666 0.4,2c0.26666,0.66666 0.61666,1.23333 1.05,1.7c0.46667,0.5 1.01667,0.88334 1.65,1.15c0.6,0.3 1.25,0.45 1.95,0.45c0.7,0 1.35,-0.15 1.95,-0.45c0.6,-0.26667 1.15,-0.65 1.65,-1.15c0.46667,-0.46667 0.81666,-1.03333 1.05,-1.7c0.26666,-0.63334 0.4,-1.3 0.4,-2c0,-0.66666 -0.13334,-1.33334 -0.4,-2c-0.23334,-0.63334 -0.58333,-1.18333 -1.05,-1.65c-0.5,-0.5 -1.05,-0.88334 -1.65,-1.15c-0.6,-0.3 -1.25,-0.45 -1.95,-0.45c-0.7,0 -1.35,0.15 -1.95,0.45M139.55,79.95c0.16666,0 0.35,0.05 0.55,0.15c0.2,0.13334 0.35,0.28334 0.45,0.45l3.45,5.95c0.1,0.16666 0.21667,0.25 0.35,0.25c0.1,0 0.2,-0.08334 0.3,-0.25l3.45,-5.95c0.1,-0.16666 0.23334,-0.31667 0.4,-0.45c0.2,-0.1 0.4,-0.15 0.6,-0.15h5.05c0.16666,0 0.3,0.06667 0.4,0.2c0.06667,0.13334 0.03333,0.31667 -0.1,0.55l-7,11.35c-0.1,0.16666 -0.18333,0.38334 -0.25,0.65c-0.06667,0.23333 -0.1,0.43333 -0.1,0.6v6.45c0,0.16666 -0.06667,0.31667 -0.2,0.45c-0.13333,0.13334 -0.3,0.2 -0.5,0.2h-4.25c-0.16666,0 -0.31667,-0.06667 -0.45,-0.2c-0.13333,-0.13334 -0.2,-0.28334 -0.2,-0.45v-6.4c0,-0.2 -0.03333,-0.41666 -0.1,-0.65c-0.06667,-0.26667 -0.15,-0.46667 -0.25,-0.6c-1.1,-1.93333 -2.23334,-3.81666 -3.4,-5.65c-1.16666,-1.86666 -2.33334,-3.78333 -3.5,-5.75c-0.1,-0.13334 -0.11667,-0.3 -0.05,-0.5c0.06667,-0.16666 0.18334,-0.25 0.35,-0.25z"/></g><path d="M339,95.25h2.1c0.5,0 1.03333,-0.06667 1.6,-0.2c0.56667,-0.13334 1.06667,-0.38334 1.5,-0.75c0.46666,-0.36666 0.83334,-0.86666 1.1,-1.5c0.3,-0.66666 0.45,-1.53333 0.45,-2.6c0,-1.06667 -0.15,-1.93334 -0.45,-2.6c-0.26666,-0.66666 -0.63334,-1.18333 -1.1,-1.55c-0.46666,-0.36666 -0.96666,-0.61666 -1.5,-0.75c-0.56667,-0.13334 -1.1,-0.2 -1.6,-0.2h-2.1c-0.2,0 -0.36667,0.06667 -0.5,0.2c-0.13333,0.13334 -0.2,0.3 -0.2,0.5v8.8c0,0.16666 0.06667,0.31667 0.2,0.45c0.13333,0.13334 0.3,0.2 0.5,0.2zM320.5,92.8l-4.95,-6.4c-0.1,-0.1 -0.13334,-0.21667 -0.1,-0.35c0.06667,-0.13334 0.15,-0.2 0.25,-0.2h3.85c0.1,0 0.23333,0.03334 0.4,0.1c0.16667,0.1 0.28334,0.2 0.35,0.3l2.5,3.65c0.06667,0.1 0.15,0.15 0.25,0.15c0.1,0 0.2,-0.05 0.3,-0.15c0.43333,-0.6 0.85,-1.21667 1.25,-1.85c0.43333,-0.63334 0.83333,-1.23333 1.2,-1.8c0.1,-0.13334 0.21666,-0.23333 0.35,-0.3c0.13333,-0.06667 0.28334,-0.1 0.45,-0.1h3.8c0.13333,0 0.23334,0.06667 0.3,0.2c0,0.13334 -0.05,0.25 -0.15,0.35l-4.9,6.4c-0.1,0.1 -0.15,0.23334 -0.15,0.4c0,0.16666 0.05,0.28333 0.15,0.35l4.8,6.3c0.1,0.06667 0.13334,0.18334 0.1,0.35c-0.06667,0.13334 -0.16667,0.2 -0.3,0.2h-3.75c-0.16667,0 -0.31667,-0.03334 -0.45,-0.1c-0.13333,-0.1 -0.23334,-0.2 -0.3,-0.3l-2.4,-3.5c-0.1,-0.1 -0.2,-0.15 -0.3,-0.15c-0.1,0 -0.18333,0.05 -0.25,0.15l-2.4,3.5c-0.1,0.1 -0.21666,0.2 -0.35,0.3c-0.13333,0.06667 -0.28333,0.1 -0.45,0.1h-3.75c-0.13333,0 -0.21666,-0.06667 -0.25,-0.2c-0.03334,-0.16666 -0.01667,-0.28334 0.05,-0.35l4.85,-6.3c0.1,-0.06667 0.15,-0.18333 0.15,-0.35c0,-0.16666 -0.05,-0.3 -0.15,-0.4zM332.75,99.75v-19.15c0,-0.2 0.06667,-0.36666 0.2,-0.5c0.13333,-0.13334 0.3,-0.2 0.5,-0.2h7.65c2.93333,0 5.33333,0.86666 7.2,2.6c1,0.93333 1.75,2.03333 2.25,3.3c0.53334,1.3 0.8,2.75 0.8,4.35c0,1.6 -0.26666,3.05 -0.8,4.35c-0.5,1.3 -1.25,2.41666 -2.25,3.35c-0.96666,0.83334 -2.05,1.46667 -3.25,1.9c-1.2,0.43333 -2.51666,0.65 -3.95,0.65h-7.65c-0.2,0 -0.36667,-0.06667 -0.5,-0.2c-0.13333,-0.13334 -0.2,-0.28334 -0.2,-0.45zM266.4,85.75v1.15c0,0.2 0.06667,0.36666 0.2,0.5c0.13333,0.13334 0.3,0.2 0.5,0.2h7.6c0.16667,0 0.31667,0.05 0.45,0.15c0.13333,0.16666 0.2,0.33334 0.2,0.5v3.85c0,0.2 -0.06667,0.36666 -0.2,0.5c-0.13333,0.13334 -0.28333,0.2 -0.45,0.2h-7.6c-0.2,0 -0.36667,0.06667 -0.5,0.2c-0.13333,0.13334 -0.2,0.28334 -0.2,0.45v1.05c0,0.2 0.06667,0.36666 0.2,0.5c0.13333,0.13334 0.3,0.2 0.5,0.2h8.7c0.2,0 0.35,0.06667 0.45,0.2c0.13333,0.13334 0.2,0.28333 0.2,0.45v3.9c0,0.16666 -0.06667,0.31667 -0.2,0.45c-0.1,0.13334 -0.25,0.2 -0.45,0.2h-14.25c-0.2,0 -0.36667,-0.06667 -0.5,-0.2c-0.1,-0.13334 -0.15,-0.28334 -0.15,-0.45v-19.15c0,-0.2 0.05,-0.36666 0.15,-0.5c0.13333,-0.13334 0.3,-0.2 0.5,-0.2h14.25c0.2,0 0.35,0.06666 0.45,0.2c0.13333,0.13334 0.2,0.3 0.2,0.5v3.8c0,0.16666 -0.06667,0.33334 -0.2,0.5c-0.1,0.1 -0.25,0.15 -0.45,0.15h-8.7c-0.2,0 -0.36667,0.06667 -0.5,0.2c-0.13333,0.13334 -0.2,0.3 -0.2,0.5zM256.5,100.4h-4.25c-0.2,0 -0.36667,-0.06667 -0.5,-0.2c-0.1,-0.13334 -0.15,-0.28334 -0.15,-0.45v-19.15c0,-0.16666 0.05,-0.31666 0.15,-0.45c0.13333,-0.13334 0.3,-0.2 0.5,-0.2h4.25c0.16667,0 0.31667,0.06667 0.45,0.2c0.13333,0.13334 0.2,0.28333 0.2,0.45v19.15c0,0.16666 -0.06667,0.31667 -0.2,0.45c-0.13333,0.13334 -0.28333,0.2 -0.45,0.2zM229.7,99.75v-19.15c0,-0.2 0.06667,-0.36666 0.2,-0.5c0.13333,-0.13334 0.3,-0.2 0.5,-0.2h7.65c2.93333,0 5.33333,0.86666 7.2,2.6c1,0.93333 1.75,2.03333 2.25,3.3c0.53333,1.3 0.8,2.75 0.8,4.35c0,1.6 -0.26667,3.05 -0.8,4.35c-0.5,1.3 -1.25,2.41666 -2.25,3.35c-0.96667,0.83334 -2.05,1.46667 -3.25,1.9c-1.2,0.43333 -2.51666,0.65 -3.95,0.65h-7.65c-0.2,0 -0.36667,-0.06667 -0.5,-0.2c-0.13333,-0.13334 -0.2,-0.28334 -0.2,-0.45zM280.05,99.75v-19.15c0,-0.2 0.06667,-0.36666 0.2,-0.5c0.13333,-0.13334 0.3,-0.2 0.5,-0.2h7.65c2.93333,0 5.33334,0.86666 7.2,2.6c1,0.93333 1.75,2.03333 2.25,3.3c0.53334,1.3 0.8,2.75 0.8,4.35c0,1.6 -0.26666,3.05 -0.8,4.35c-0.5,1.3 -1.25,2.41666 -2.25,3.35c-0.96666,0.83334 -2.05,1.46667 -3.25,1.9c-1.2,0.43333 -2.51667,0.65 -3.95,0.65h-7.65c-0.2,0 -0.36667,-0.06667 -0.5,-0.2c-0.13333,-0.13334 -0.2,-0.28334 -0.2,-0.45zM286.3,95.25h2.1c0.5,0 1.03334,-0.06667 1.6,-0.2c0.56667,-0.13334 1.06667,-0.38334 1.5,-0.75c0.46666,-0.36666 0.83334,-0.86666 1.1,-1.5c0.3,-0.66666 0.45,-1.53333 0.45,-2.6c0,-1.06667 -0.15,-1.93334 -0.45,-2.6c-0.26666,-0.66666 -0.63334,-1.18333 -1.1,-1.55c-0.46666,-0.36666 -0.96666,-0.61666 -1.5,-0.75c-0.56667,-0.13334 -1.1,-0.2 -1.6,-0.2h-2.1c-0.2,0 -0.36667,0.06667 -0.5,0.2c-0.13333,0.13334 -0.2,0.3 -0.2,0.5v8.8c0,0.16666 0.06667,0.31667 0.2,0.45c0.13333,0.13334 0.3,0.2 0.5,0.2zM177.85,80.6c0,-0.16666 0.06667,-0.31666 0.2,-0.45c0.13333,-0.13334 0.3,-0.2 0.5,-0.2h4.2c0.2,0 0.36667,0.06667 0.5,0.2c0.13333,0.13334 0.2,0.28333 0.2,0.45v11.35c0,0.73333 0.11667,1.33333 0.35,1.8c0.23334,0.46667 0.51666,0.85 0.85,1.15c0.36667,0.26667 0.73333,0.45 1.1,0.55c0.4,0.1 0.76666,0.15 1.1,0.15c0.3,0 0.65,-0.05 1.05,-0.15c0.36667,-0.1 0.73333,-0.28333 1.1,-0.55c0.33334,-0.3 0.6,-0.68333 0.8,-1.15c0.26666,-0.46667 0.4,-1.06667 0.4,-1.8v-11.35c0,-0.16666 0.05,-0.31666 0.15,-0.45c0.13333,-0.13334 0.3,-0.2 0.5,-0.2h4.25c0.16666,0 0.31667,0.06667 0.45,0.2c0.13333,0.13334 0.2,0.28333 0.2,0.45v11.35c0,1.33334 -0.21667,2.53333 -0.65,3.6c-0.4,1.1 -1,2.03333 -1.8,2.8c-0.76666,0.76667 -1.7,1.35 -2.8,1.75c-1.1,0.43333 -2.31667,0.65 -3.65,0.65c-1.36667,0 -2.6,-0.21667 -3.7,-0.65c-1.1,-0.4 -2.03334,-0.98333 -2.8,-1.75c-0.8,-0.76667 -1.41666,-1.7 -1.85,-2.8c-0.43333,-1.06667 -0.65,-2.26666 -0.65,-3.6zM159.4,90.15c0,0.7 0.13334,1.36666 0.4,2c0.26666,0.66666 0.61666,1.23333 1.05,1.7c0.46667,0.5 1.01667,0.88334 1.65,1.15c0.6,0.3 1.25,0.45 1.95,0.45c0.7,0 1.35,-0.15 1.95,-0.45c0.6,-0.26667 1.15,-0.65 1.65,-1.15c0.46667,-0.46667 0.81666,-1.03333 1.05,-1.7c0.26666,-0.63334 0.4,-1.3 0.4,-2c0,-0.66666 -0.13334,-1.33334 -0.4,-2c-0.23334,-0.63334 -0.58333,-1.18333 -1.05,-1.65c-0.5,-0.5 -1.05,-0.88334 -1.65,-1.15c-0.6,-0.3 -1.25,-0.45 -1.95,-0.45c-0.7,0 -1.35,0.15 -1.95,0.45c-0.63333,0.26667 -1.18333,0.65 -1.65,1.15c-0.43333,0.46667 -0.78333,1.01667 -1.05,1.65c-0.26666,0.66666 -0.4,1.33334 -0.4,2zM153.85,90.15c0,-1.43333 0.28333,-2.8 0.85,-4.1c0.56667,-1.3 1.31667,-2.43333 2.25,-3.4c0.96667,-0.93333 2.1,-1.68333 3.4,-2.25c1.26666,-0.56667 2.63333,-0.85 4.1,-0.85c1.46667,0 2.83334,0.28334 4.1,0.85c1.3,0.56667 2.43333,1.31667 3.4,2.25c0.96667,0.96667 1.71667,2.1 2.25,3.4c0.56667,1.3 0.85,2.66667 0.85,4.1c0,1.46667 -0.28334,2.85 -0.85,4.15c-0.53333,1.26667 -1.28333,2.38334 -2.25,3.35c-0.96667,0.96667 -2.1,1.73333 -3.4,2.3c-1.26666,0.53333 -2.63334,0.8 -4.1,0.8c-1.46667,0 -2.83334,-0.26667 -4.1,-0.8c-1.3,-0.56667 -2.43333,-1.33333 -3.4,-2.3c-0.93333,-0.96667 -1.68333,-2.08334 -2.25,-3.35c-0.56667,-1.3 -0.85,-2.68333 -0.85,-4.15zM204.75,100.4h-4.2c-0.16666,0 -0.31667,-0.06667 -0.45,-0.2c-0.13333,-0.13334 -0.2,-0.28334 -0.2,-0.45v-19.15c0,-0.2 0.06667,-0.36666 0.2,-0.5c0.13333,-0.13334 0.28334,-0.2 0.45,-0.2h8.7c1.1,0 2.1,0.18333 3,0.55c0.93333,0.36666 1.71667,0.88334 2.35,1.55c0.63333,0.63334 1.13333,1.4 1.5,2.3c0.36667,0.9 0.55,1.9 0.55,3c0,0.56667 -0.06667,1.15 -0.2,1.75c-0.13333,0.6 -0.33334,1.15 -0.6,1.65c-0.26666,0.53333 -0.58333,1.01667 -0.95,1.45c-0.33334,0.4 -0.73334,0.75 -1.2,1.05c-0.13333,0.1 -0.23333,0.23333 -0.3,0.4c-0.03333,0.16666 0,0.31667 0.1,0.45c0.73334,0.93333 1.48334,1.9 2.25,2.9c0.8,0.96667 1.5,1.86666 2.1,2.7c0.13333,0.13334 0.16666,0.3 0.1,0.5c-0.06667,0.16666 -0.18333,0.25 -0.35,0.25h-5.25c-0.16666,0 -0.36666,-0.05 -0.6,-0.15c-0.2,-0.1 -0.35,-0.23334 -0.45,-0.4c-0.63333,-0.76667 -1.23334,-1.55 -1.8,-2.35c-0.6,-0.8 -1.18333,-1.61666 -1.75,-2.45c-0.1,-0.13334 -0.26666,-0.25 -0.5,-0.35c-0.2,-0.13334 -0.38334,-0.2 -0.55,-0.2h-0.65c-0.16666,0 -0.31667,0.06667 -0.45,0.2c-0.13333,0.13334 -0.2,0.3 -0.2,0.5v4.55c0,0.16666 -0.06667,0.31667 -0.2,0.45c-0.13333,0.13334 -0.28333,0.2 -0.45,0.2zM206.05,89.35h3c0.23334,0 0.46666,-0.03333 0.7,-0.1c0.23334,-0.06667 0.45,-0.2 0.65,-0.4c0.2,-0.16666 0.36667,-0.38333 0.5,-0.65c0.13333,-0.26667 0.2,-0.56667 0.2,-0.9c0,-0.2 -0.03333,-0.41666 -0.1,-0.65c-0.06667,-0.26667 -0.18333,-0.51667 -0.35,-0.75c-0.13333,-0.23333 -0.33334,-0.43334 -0.6,-0.6c-0.3,-0.16666 -0.63333,-0.25 -1,-0.25h-3c-0.16666,0 -0.31667,0.06667 -0.45,0.2c-0.13333,0.13334 -0.2,0.3 -0.2,0.5v2.95c0,0.2 0.06667,0.36666 0.2,0.5c0.13333,0.1 0.28334,0.15 0.45,0.15zM235.95,95.25h2.1c0.5,0 1.03333,-0.06667 1.6,-0.2c0.56667,-0.13334 1.06667,-0.38334 1.5,-0.75c0.46667,-0.36666 0.83334,-0.86666 1.1,-1.5c0.3,-0.66666 0.45,-1.53333 0.45,-2.6c0,-1.06667 -0.15,-1.93334 -0.45,-2.6c-0.26666,-0.66666 -0.63333,-1.18333 -1.1,-1.55c-0.46667,-0.36666 -0.96667,-0.61666 -1.5,-0.75c-0.56667,-0.13334 -1.1,-0.2 -1.6,-0.2h-2.1c-0.2,0 -0.36667,0.06667 -0.5,0.2c-0.13333,0.13334 -0.2,0.3 -0.2,0.5v8.8c0,0.16666 0.06667,0.31667 0.2,0.45c0.13333,0.13334 0.3,0.2 0.5,0.2zM169.1,175.5c-0.03333,-0.1 -0.03333,-0.2 0,-0.3c0.03333,-0.1 0.11667,-0.15 0.25,-0.15h2.45c0.1,0 0.18333,0.03333 0.25,0.1c0.1,0.06667 0.16666,0.15 0.2,0.25l1.7,5c0.03333,0.1 0.08334,0.15 0.15,0.15c0.1,0 0.16667,-0.05 0.2,-0.15l1.65,-5c0,-0.1 0.05,-0.18333 0.15,-0.25c0.1,-0.06667 0.2,-0.1 0.3,-0.1h2c0.1,0 0.2,0.03333 0.3,0.1c0.1,0.06667 0.16667,0.15 0.2,0.25l1.65,5.05c0.03333,0.1 0.08333,0.15 0.15,0.15c0.06667,0 0.11667,-0.05 0.15,-0.15l1.75,-5.05c0.03333,-0.1 0.1,-0.18333 0.2,-0.25c0.06667,-0.06667 0.16666,-0.1 0.3,-0.1h2.4c0.1,0 0.18333,0.05 0.25,0.15c0.03333,0.1 0.03333,0.18333 0,0.25l-3.65,10.25c-0.03333,0.1 -0.1,0.18333 -0.2,0.25c-0.06667,0.06667 -0.16667,0.1 -0.3,0.1h-1.9c-0.13333,0 -0.23333,-0.03334 -0.3,-0.1c-0.1,-0.06667 -0.16667,-0.15 -0.2,-0.25l-1.65,-5c-0.03333,-0.1 -0.08334,-0.15 -0.15,-0.15c-0.06667,0 -0.11667,0.05 -0.15,0.15l-1.65,5c-0.03333,0.1 -0.1,0.18333 -0.2,0.25c-0.06667,0.06667 -0.16667,0.1 -0.3,0.1h-1.9c-0.13333,0 -0.23333,-0.03334 -0.3,-0.1c-0.1,-0.1 -0.16667,-0.18333 -0.2,-0.25zM157.45,178.2v0.6c0,0.1 0.03334,0.2 0.1,0.3c0.1,0.06667 0.18333,0.1 0.25,0.1h4.1c0.1,0 0.18333,0.03334 0.25,0.1c0.06667,0.06667 0.1,0.15 0.1,0.25v2.05c0,0.1 -0.03333,0.18333 -0.1,0.25c-0.06667,0.06667 -0.15,0.1 -0.25,0.1h-4.1c-0.06667,0 -0.15,0.03334 -0.25,0.1c-0.06667,0.1 -0.1,0.2 -0.1,0.3v0.55c0,0.1 0.03334,0.18333 0.1,0.25c0.1,0.06667 0.18333,0.1 0.25,0.1h4.7c0.1,0 0.18333,0.03333 0.25,0.1c0.06667,0.06667 0.1,0.15 0.1,0.25v2.1c0,0.1 -0.03333,0.18333 -0.1,0.25c-0.06667,0.06667 -0.15,0.1 -0.25,0.1h-7.65c-0.1,0 -0.18333,-0.03334 -0.25,-0.1c-0.06667,-0.06667 -0.1,-0.15 -0.1,-0.25v-10.25c0,-0.1 0.03333,-0.2 0.1,-0.3c0.06667,-0.06667 0.15,-0.1 0.25,-0.1h7.65c0.1,0 0.18333,0.03333 0.25,0.1c0.06667,0.1 0.1,0.2 0.1,0.3v2c0,0.1 -0.03333,0.2 -0.1,0.3c-0.06667,0.06667 -0.15,0.1 -0.25,0.1h-4.7c-0.06667,0 -0.15,0.03333 -0.25,0.1c-0.06667,0.06667 -0.1,0.15 -0.1,0.25zM198.2,182.3c0.53333,0.33334 1.06667,0.6 1.6,0.8c0.53333,0.2 1.03333,0.3 1.5,0.3c0.43333,0 0.76666,-0.06667 1,-0.2c0.23334,-0.1 0.35,-0.28333 0.35,-0.55c0,-0.13333 -0.05,-0.23334 -0.15,-0.3c-0.1,-0.06667 -0.23334,-0.13333 -0.4,-0.2c-0.16666,-0.03333 -0.36666,-0.06667 -0.6,-0.1c-0.2,-0.03333 -0.41666,-0.06667 -0.65,-0.1c-0.23334,-0.06667 -0.48334,-0.11666 -0.75,-0.15c-0.3,-0.06667 -0.61666,-0.15 -0.95,-0.25c-0.3,-0.1 -0.6,-0.23334 -0.9,-0.4c-0.3,-0.16666 -0.56667,-0.36666 -0.8,-0.6c-0.26666,-0.26666 -0.46667,-0.56667 -0.6,-0.9c-0.13333,-0.36667 -0.2,-0.78333 -0.2,-1.25c0,-0.66666 0.13334,-1.23334 0.4,-1.7c0.26666,-0.43333 0.6,-0.78333 1,-1.05c0.43333,-0.26666 0.9,-0.45 1.4,-0.55c0.5,-0.13333 1,-0.2 1.5,-0.2c0.83334,0 1.58334,0.13334 2.25,0.4c0.66666,0.23334 1.3,0.58333 1.9,1.05c0.1,0.06667 0.15,0.15 0.15,0.25c0,0.1 -0.03333,0.2 -0.1,0.3l-1.15,1.65c-0.06667,0.06667 -0.15,0.11666 -0.25,0.15c-0.1,0.03333 -0.18333,0.01667 -0.25,-0.05c-0.5,-0.33334 -0.98333,-0.56667 -1.45,-0.7c-0.43333,-0.13333 -0.83334,-0.2 -1.2,-0.2c-0.1,0 -0.23334,0 -0.4,0c-0.13333,0 -0.26666,0.01667 -0.4,0.05c-0.13333,0.03333 -0.23334,0.1 -0.3,0.2c-0.1,0.06667 -0.15,0.16667 -0.15,0.3c0,0.16666 0.1,0.3 0.3,0.4c0.23334,0.1 0.48334,0.2 0.75,0.3c0.26666,0.06667 0.51666,0.11667 0.75,0.15c0.26666,0.06667 0.43333,0.1 0.5,0.1c0.36667,0.06667 0.76666,0.16667 1.2,0.3c0.43333,0.13333 0.83334,0.33334 1.2,0.6c0.36667,0.26666 0.68333,0.61666 0.95,1.05c0.23334,0.43333 0.35,0.96667 0.35,1.6c0,0.6 -0.1,1.11666 -0.3,1.55c-0.2,0.43333 -0.48334,0.78334 -0.85,1.05c-0.4,0.3 -0.85,0.51667 -1.35,0.65c-0.53333,0.13333 -1.11667,0.2 -1.75,0.2c-0.53333,0 -1.01666,-0.05 -1.45,-0.15c-0.46667,-0.06667 -0.9,-0.18333 -1.3,-0.35c-0.36667,-0.13333 -0.71666,-0.3 -1.05,-0.5c-0.36667,-0.2 -0.68334,-0.41666 -0.95,-0.65c-0.06667,-0.06667 -0.11667,-0.15 -0.15,-0.25c0,-0.1 0.03334,-0.2 0.1,-0.3l1.15,-1.65c0.06667,-0.1 0.15,-0.15 0.25,-0.15c0.1,-0.03333 0.18333,-0.01666 0.25,0.05zM188.75,175.4c0.03333,-0.06667 0.1,-0.13334 0.2,-0.2c0.1,-0.06667 0.2,-0.1 0.3,-0.1h2.1c0.1,0 0.2,0.03333 0.3,0.1c0.1,0.06667 0.16666,0.13334 0.2,0.2l4.4,10.2c0.03333,0.1 0.01666,0.2 -0.05,0.3c-0.03333,0.1 -0.13333,0.15 -0.3,0.15h-2.55c-0.13333,0 -0.25,-0.03334 -0.35,-0.1c-0.1,-0.06667 -0.16666,-0.15 -0.2,-0.25l-0.4,-0.9c-0.06667,-0.06667 -0.13334,-0.13334 -0.2,-0.2c-0.1,-0.06667 -0.2,-0.1 -0.3,-0.1h-3.2c-0.1,0 -0.2,0.03333 -0.3,0.1c-0.1,0.06667 -0.16667,0.13334 -0.2,0.2l-0.4,0.9c-0.03333,0.1 -0.1,0.18333 -0.2,0.25c-0.1,0.06667 -0.2,0.1 -0.3,0.1h-2.6c-0.03333,0 -0.08333,-0.01667 -0.15,-0.05c-0.06667,0 -0.11667,-0.01667 -0.15,-0.05c-0.03333,-0.06667 -0.05,-0.11666 -0.05,-0.15c0,-0.06667 0.01667,-0.15 0.05,-0.25zM189.65,181.95h1.3c0.1,0 0.18333,-0.03333 0.25,-0.1c0.03333,-0.06667 0.03333,-0.15 0,-0.25c-0.1,-0.23334 -0.23333,-0.51666 -0.4,-0.85c-0.13333,-0.33334 -0.25,-0.65 -0.35,-0.95c-0.06667,-0.1 -0.11666,-0.15 -0.15,-0.15c-0.06667,0 -0.11667,0.05 -0.15,0.15l-0.75,1.8c-0.03333,0.1 -0.03333,0.18333 0,0.25c0.03333,0.06667 0.11667,0.1 0.25,0.1zM154.45,80.7l-7,11.35c-0.1,0.16666 -0.18333,0.38334 -0.25,0.65c-0.06667,0.23333 -0.1,0.43333 -0.1,0.6v6.45c0,0.16666 -0.06667,0.31667 -0.2,0.45c-0.13333,0.13334 -0.3,0.2 -0.5,0.2h-4.25c-0.16666,0 -0.31667,-0.06667 -0.45,-0.2c-0.13333,-0.13334 -0.2,-0.28334 -0.2,-0.45v-6.4c0,-0.2 -0.03333,-0.41666 -0.1,-0.65c-0.06667,-0.26667 -0.15,-0.46667 -0.25,-0.6c-1.1,-1.93333 -2.23334,-3.81666 -3.4,-5.65c-1.16666,-1.86666 -2.33334,-3.78333 -3.5,-5.75c-0.1,-0.13334 -0.11667,-0.3 -0.05,-0.5c0.06667,-0.16666 0.18334,-0.25 0.35,-0.25h5c0.16666,0 0.35,0.05 0.55,0.15c0.2,0.13334 0.35,0.28334 0.45,0.45l3.45,5.95c0.1,0.16666 0.21667,0.25 0.35,0.25c0.1,0 0.2,-0.08334 0.3,-0.25l3.45,-5.95c0.1,-0.16666 0.23334,-0.31667 0.4,-0.45c0.2,-0.1 0.4,-0.15 0.6,-0.15h5.05c0.16666,0 0.3,0.06667 0.4,0.2c0.06667,0.13334 0.03333,0.31667 -0.1,0.55zM69.05,175.5l-3.75,6.1c-0.06667,0.06667 -0.11666,0.16667 -0.15,0.3c-0.03333,0.13333 -0.05,0.25 -0.05,0.35v3.45c0,0.1 -0.03333,0.18333 -0.1,0.25c-0.06667,0.06667 -0.15,0.1 -0.25,0.1h-2.25c-0.1,0 -0.2,-0.03334 -0.3,-0.1c-0.06667,-0.06667 -0.1,-0.15 -0.1,-0.25v-3.45c0,-0.1 -0.01667,-0.21667 -0.05,-0.35c-0.03334,-0.13333 -0.06666,-0.23334 -0.1,-0.3c-0.6,-1.03333 -1.21666,-2.05 -1.85,-3.05c-0.63334,-0.96667 -1.25,-1.98334 -1.85,-3.05c-0.06667,-0.1 -0.08333,-0.2 -0.05,-0.3c0.03334,-0.06667 0.1,-0.1 0.2,-0.1h2.65c0.1,0 0.21666,0.01667 0.35,0.05c0.1,0.06667 0.16667,0.15 0.2,0.25l1.85,3.2c0.06667,0.1 0.13333,0.15 0.2,0.15c0.06667,0 0.11666,-0.05 0.15,-0.15l1.85,-3.2c0.03333,-0.1 0.1,-0.18333 0.2,-0.25c0.13334,-0.03333 0.25,-0.05 0.35,-0.05h2.7c0.1,0 0.16666,0.03333 0.2,0.1c0.03333,0.06667 0.01667,0.16667 -0.05,0.3zM68.75,180.55c0,-0.76666 0.15,-1.5 0.45,-2.2c0.3,-0.7 0.7,-1.3 1.2,-1.8c0.5,-0.53333 1.1,-0.95 1.8,-1.25c0.7,-0.3 1.43333,-0.45 2.2,-0.45c0.76667,0 1.5,0.15 2.2,0.45c0.7,0.3 1.3,0.71667 1.8,1.25c0.53333,0.5 0.95,1.1 1.25,1.8c0.3,0.7 0.45,1.43334 0.45,2.2c0,0.8 -0.15,1.53333 -0.45,2.2c-0.3,0.7 -0.71667,1.31667 -1.25,1.85c-0.5,0.5 -1.1,0.9 -1.8,1.2c-0.7,0.3 -1.43333,0.45 -2.2,0.45c-0.76667,0 -1.5,-0.15 -2.2,-0.45c-0.7,-0.3 -1.3,-0.7 -1.8,-1.2c-0.5,-0.53333 -0.9,-1.15 -1.2,-1.85c-0.3,-0.66666 -0.45,-1.4 -0.45,-2.2zM71.7,180.55c0,0.4 0.06667,0.76666 0.2,1.1c0.13334,0.33334 0.33333,0.63334 0.6,0.9c0.23333,0.26666 0.51666,0.46667 0.85,0.6c0.33334,0.16666 0.68334,0.25 1.05,0.25c0.36666,0 0.71666,-0.08334 1.05,-0.25c0.33334,-0.13333 0.61666,-0.33334 0.85,-0.6c0.26667,-0.26666 0.46667,-0.56667 0.6,-0.9c0.13334,-0.33334 0.2,-0.7 0.2,-1.1c0,-0.36667 -0.06666,-0.71667 -0.2,-1.05c-0.13334,-0.36667 -0.33334,-0.66666 -0.6,-0.9c-0.23333,-0.26666 -0.51666,-0.48334 -0.85,-0.65c-0.33334,-0.13333 -0.68333,-0.2 -1.05,-0.2c-0.36666,0 -0.71667,0.06667 -1.05,0.2c-0.33334,0.16666 -0.61666,0.38334 -0.85,0.65c-0.26667,0.23334 -0.46666,0.53333 -0.6,0.9c-0.13334,0.33334 -0.2,0.68333 -0.2,1.05zM96.75,180.15h1.6c0.1,0 0.21667,-0.03333 0.35,-0.1c0.13334,-0.03333 0.25,-0.1 0.35,-0.2c0.13334,-0.1 0.23333,-0.21667 0.3,-0.35c0.06667,-0.13333 0.1,-0.3 0.1,-0.5c0,-0.1 -0.01667,-0.21667 -0.05,-0.35c-0.03333,-0.13333 -0.1,-0.26667 -0.2,-0.4c-0.06667,-0.1 -0.18334,-0.2 -0.35,-0.3c-0.13334,-0.06667 -0.3,-0.1 -0.5,-0.1h-1.6c-0.1,0 -0.18333,0.03333 -0.25,0.1c-0.06667,0.06667 -0.1,0.15 -0.1,0.25v1.6c0,0.1 0.03333,0.18333 0.1,0.25c0.06667,0.06667 0.15,0.1 0.25,0.1zM96,186.05h-2.2c-0.1,0 -0.18333,-0.03334 -0.25,-0.1c-0.06667,-0.06667 -0.1,-0.15 -0.1,-0.25v-10.25c0,-0.1 0.03333,-0.2 0.1,-0.3c0.06667,-0.06667 0.15,-0.1 0.25,-0.1h4.65c0.56667,0 1.1,0.1 1.6,0.3c0.5,0.2 0.91666,0.48333 1.25,0.85c0.36666,0.33334 0.63334,0.75 0.8,1.25c0.2,0.46667 0.3,0.98334 0.3,1.55c0,0.33334 -0.03334,0.65 -0.1,0.95c-0.06667,0.33334 -0.16666,0.63334 -0.3,0.9c-0.16666,0.3 -0.33334,0.55 -0.5,0.75c-0.2,0.23334 -0.41667,0.43333 -0.65,0.6c-0.1,0.03333 -0.15,0.1 -0.15,0.2c-0.03333,0.1 -0.01667,0.18333 0.05,0.25c0.36666,0.5 0.76667,1.01666 1.2,1.55c0.4,0.53333 0.76666,1.01667 1.1,1.45c0.06667,0.06667 0.08333,0.15 0.05,0.25c-0.03333,0.1 -0.1,0.15 -0.2,0.15h-2.8c-0.1,0 -0.2,-0.03334 -0.3,-0.1c-0.13334,-0.03333 -0.21667,-0.1 -0.25,-0.2c-0.33334,-0.4 -0.65,-0.81667 -0.95,-1.25c-0.33334,-0.43333 -0.65,-0.86667 -0.95,-1.3c-0.06667,-0.1 -0.15,-0.16666 -0.25,-0.2c-0.13334,-0.06667 -0.25,-0.1 -0.35,-0.1h-0.3c-0.1,0 -0.18333,0.03333 -0.25,0.1c-0.06667,0.06667 -0.1,0.15 -0.1,0.25v2.45c0,0.1 -0.03334,0.18333 -0.1,0.25c-0.1,0.06667 -0.2,0.1 -0.3,0.1zM81.6,175.45c0,-0.1 0.03334,-0.18333 0.1,-0.25c0.1,-0.06667 0.18333,-0.1 0.25,-0.1h2.3c0.1,0 0.18333,0.03333 0.25,0.1c0.06667,0.06667 0.1,0.15 0.1,0.25v6.05c0,0.4 0.06667,0.73334 0.2,1c0.1,0.23334 0.25,0.43333 0.45,0.6c0.2,0.13333 0.4,0.23334 0.6,0.3c0.2,0.06667 0.38334,0.1 0.55,0.1c0.16666,0 0.36666,-0.03333 0.6,-0.1c0.2,-0.06667 0.38334,-0.16667 0.55,-0.3c0.2,-0.16666 0.35,-0.36666 0.45,-0.6c0.13334,-0.26666 0.2,-0.6 0.2,-1v-6.05c0,-0.1 0.03333,-0.18333 0.1,-0.25c0.06667,-0.06667 0.15,-0.1 0.25,-0.1h2.3c0.1,0 0.18333,0.03333 0.25,0.1c0.06667,0.06667 0.1,0.15 0.1,0.25v6.05c0,0.73334 -0.11667,1.38333 -0.35,1.95c-0.2,0.6 -0.51666,1.1 -0.95,1.5c-0.43333,0.4 -0.93333,0.71667 -1.5,0.95c-0.6,0.23334 -1.26667,0.35 -2,0.35c-0.7,0 -1.35,-0.11666 -1.95,-0.35c-0.6,-0.23334 -1.1,-0.55 -1.5,-0.95c-0.43333,-0.4 -0.76667,-0.9 -1,-1.5c-0.23333,-0.56667 -0.35,-1.21666 -0.35,-1.95zM130.15,183.15c-0.26666,0.46667 -0.58334,0.88333 -0.95,1.25c-0.33334,0.4 -0.71666,0.73334 -1.15,1c-0.43333,0.26666 -0.91667,0.46667 -1.45,0.6c-0.53333,0.16666 -1.11666,0.25 -1.75,0.25c-0.8,0 -1.55,-0.15 -2.25,-0.45c-0.7,-0.3 -1.31667,-0.7 -1.85,-1.2c-0.53333,-0.53333 -0.95,-1.13333 -1.25,-1.8c-0.3,-0.7 -0.45,-1.43334 -0.45,-2.2c0,-0.8 0.15,-1.55 0.45,-2.25c0.3,-0.66666 0.71667,-1.26666 1.25,-1.8c0.53333,-0.5 1.15,-0.9 1.85,-1.2c0.7,-0.3 1.45,-0.45 2.25,-0.45c0.63334,0 1.21667,0.08334 1.75,0.25c0.53333,0.13333 1.01667,0.33334 1.45,0.6c0.43333,0.26666 0.81666,0.6 1.15,1c0.36667,0.36667 0.68334,0.78333 0.95,1.25c0.06667,0.1 0.08333,0.18333 0.05,0.25c-0.03333,0.1 -0.1,0.16666 -0.2,0.2l-2.1,0.85c-0.1,0.03333 -0.2,0.03333 -0.3,0c-0.1,-0.03333 -0.18333,-0.1 -0.25,-0.2c-0.26667,-0.43333 -0.61666,-0.78333 -1.05,-1.05c-0.4,-0.23334 -0.88334,-0.35 -1.45,-0.35c-0.4,0 -0.76666,0.08334 -1.1,0.25c-0.33334,0.16666 -0.61666,0.36667 -0.85,0.6c-0.26667,0.26666 -0.46667,0.58333 -0.6,0.95c-0.13334,0.33334 -0.2,0.7 -0.2,1.1c0,0.36667 0.06667,0.71667 0.2,1.05c0.13334,0.36667 0.33334,0.66666 0.6,0.9c0.23333,0.26666 0.51666,0.48333 0.85,0.65c0.33334,0.16666 0.7,0.25 1.1,0.25c0.53333,0 1.01667,-0.13333 1.45,-0.4c0.46667,-0.26666 0.83334,-0.61667 1.1,-1.05c0.03333,-0.06667 0.1,-0.11667 0.2,-0.15c0.1,-0.03333 0.2,-0.03333 0.3,0l2.1,0.85c0.1,0.03333 0.16666,0.08334 0.2,0.15c0.03333,0.1 0.01667,0.2 -0.05,0.3zM110.6,182.3c0.53333,0.33334 1.06667,0.6 1.6,0.8c0.53333,0.2 1.03333,0.3 1.5,0.3c0.43333,0 0.76667,-0.06667 1,-0.2c0.23333,-0.1 0.35,-0.28333 0.35,-0.55c0,-0.13333 -0.05,-0.23334 -0.15,-0.3c-0.1,-0.06667 -0.23334,-0.13333 -0.4,-0.2c-0.16666,-0.03333 -0.36666,-0.06667 -0.6,-0.1c-0.2,-0.03333 -0.41667,-0.06667 -0.65,-0.1c-0.23333,-0.06667 -0.48333,-0.11666 -0.75,-0.15c-0.3,-0.06667 -0.61666,-0.15 -0.95,-0.25c-0.3,-0.1 -0.6,-0.23334 -0.9,-0.4c-0.3,-0.16666 -0.56667,-0.36666 -0.8,-0.6c-0.26667,-0.26666 -0.46666,-0.56667 -0.6,-0.9c-0.13334,-0.36667 -0.2,-0.78333 -0.2,-1.25c0,-0.66666 0.13334,-1.23334 0.4,-1.7c0.26667,-0.43333 0.6,-0.78333 1,-1.05c0.43333,-0.26666 0.9,-0.45 1.4,-0.55c0.5,-0.13333 1,-0.2 1.5,-0.2c0.83334,0 1.58334,0.13334 2.25,0.4c0.66666,0.23334 1.3,0.58333 1.9,1.05c0.1,0.06667 0.15,0.15 0.15,0.25c0,0.1 -0.03334,0.2 -0.1,0.3l-1.15,1.65c-0.06667,0.06667 -0.15,0.11666 -0.25,0.15c-0.1,0.03333 -0.18333,0.01667 -0.25,-0.05c-0.5,-0.33334 -0.98333,-0.56667 -1.45,-0.7c-0.43333,-0.13333 -0.83334,-0.2 -1.2,-0.2c-0.1,0 -0.23334,0 -0.4,0c-0.13334,0 -0.26666,0.01667 -0.4,0.05c-0.13334,0.03333 -0.23333,0.1 -0.3,0.2c-0.1,0.06667 -0.15,0.16667 -0.15,0.3c0,0.16666 0.1,0.3 0.3,0.4c0.23333,0.1 0.48333,0.2 0.75,0.3c0.26667,0.06667 0.51667,0.11667 0.75,0.15c0.26667,0.06667 0.43333,0.1 0.5,0.1c0.36666,0.06667 0.76667,0.16667 1.2,0.3c0.43333,0.13333 0.83334,0.33334 1.2,0.6c0.36666,0.26666 0.68333,0.61666 0.95,1.05c0.23333,0.43333 0.35,0.96667 0.35,1.6c0,0.6 -0.1,1.11666 -0.3,1.55c-0.2,0.43333 -0.48334,0.78334 -0.85,1.05c-0.4,0.3 -0.85,0.51667 -1.35,0.65c-0.53333,0.13333 -1.11666,0.2 -1.75,0.2c-0.53333,0 -1.01667,-0.05 -1.45,-0.15c-0.46667,-0.06667 -0.9,-0.18333 -1.3,-0.35c-0.36666,-0.13333 -0.71666,-0.3 -1.05,-0.5c-0.36666,-0.2 -0.68333,-0.41666 -0.95,-0.65c-0.06667,-0.06667 -0.11667,-0.15 -0.15,-0.25c0,-0.1 0.03334,-0.2 0.1,-0.3l1.15,-1.65c0.06667,-0.1 0.15,-0.15 0.25,-0.15c0.1,-0.03333 0.18333,-0.01666 0.25,0.05zM133.8,180.55c0,0.4 0.06667,0.76666 0.2,1.1c0.13333,0.33334 0.33334,0.63334 0.6,0.9c0.23334,0.26666 0.51666,0.46667 0.85,0.6c0.33334,0.16666 0.68333,0.25 1.05,0.25c0.36667,0 0.71667,-0.08334 1.05,-0.25c0.33334,-0.13333 0.61666,-0.33334 0.85,-0.6c0.26666,-0.26666 0.46667,-0.56667 0.6,-0.9c0.13333,-0.33334 0.2,-0.7 0.2,-1.1c0,-0.36667 -0.06667,-0.71667 -0.2,-1.05c-0.13333,-0.36667 -0.33334,-0.66666 -0.6,-0.9c-0.23334,-0.26666 -0.51666,-0.48334 -0.85,-0.65c-0.33334,-0.13333 -0.68333,-0.2 -1.05,-0.2c-0.36667,0 -0.71667,0.06667 -1.05,0.2c-0.33334,0.16666 -0.61666,0.38334 -0.85,0.65c-0.26666,0.23334 -0.46667,0.53333 -0.6,0.9c-0.13333,0.33334 -0.2,0.68333 -0.2,1.05zM130.85,180.55c0,-0.76666 0.15,-1.5 0.45,-2.2c0.3,-0.7 0.7,-1.3 1.2,-1.8c0.5,-0.53333 1.1,-0.95 1.8,-1.25c0.7,-0.3 1.43333,-0.45 2.2,-0.45c0.76666,0 1.5,0.15 2.2,0.45c0.7,0.3 1.3,0.71667 1.8,1.25c0.53333,0.5 0.95,1.1 1.25,1.8c0.3,0.7 0.45,1.43334 0.45,2.2c0,0.8 -0.15,1.53333 -0.45,2.2c-0.3,0.7 -0.71667,1.31667 -1.25,1.85c-0.5,0.5 -1.1,0.9 -1.8,1.2c-0.7,0.3 -1.43333,0.45 -2.2,0.45c-0.76666,0 -1.5,-0.15 -2.2,-0.45c-0.7,-0.3 -1.3,-0.7 -1.8,-1.2c-0.5,-0.53333 -0.9,-1.15 -1.2,-1.85c-0.3,-0.66666 -0.45,-1.4 -0.45,-2.2zM146.3,186.05h-2.2c-0.1,0 -0.18333,-0.03334 -0.25,-0.1c-0.06667,-0.06667 -0.1,-0.15 -0.1,-0.25v-10.25c0,-0.1 0.03333,-0.2 0.1,-0.3c0.06667,-0.06667 0.15,-0.1 0.25,-0.1h4.65c0.56667,0 1.1,0.1 1.6,0.3c0.5,0.2 0.91666,0.48333 1.25,0.85c0.36667,0.33334 0.63334,0.75 0.8,1.25c0.2,0.46667 0.3,0.98334 0.3,1.55c0,0.33334 -0.03333,0.65 -0.1,0.95c-0.06667,0.33334 -0.16666,0.63334 -0.3,0.9c-0.16666,0.3 -0.33334,0.55 -0.5,0.75c-0.2,0.23334 -0.41666,0.43333 -0.65,0.6c-0.1,0.03333 -0.15,0.1 -0.15,0.2c-0.03333,0.1 -0.01666,0.18333 0.05,0.25c0.36667,0.5 0.76666,1.01666 1.2,1.55c0.4,0.53333 0.76666,1.01667 1.1,1.45c0.06667,0.06667 0.08334,0.15 0.05,0.25c-0.03333,0.1 -0.1,0.15 -0.2,0.15h-2.8c-0.1,0 -0.2,-0.03334 -0.3,-0.1c-0.13333,-0.03333 -0.21667,-0.1 -0.25,-0.2c-0.33334,-0.4 -0.65,-0.81667 -0.95,-1.25c-0.33334,-0.43333 -0.65,-0.86667 -0.95,-1.3c-0.06667,-0.1 -0.15,-0.16666 -0.25,-0.2c-0.13333,-0.06667 -0.25,-0.1 -0.35,-0.1h-0.3c-0.1,0 -0.18333,0.03333 -0.25,0.1c-0.06667,0.06667 -0.1,0.15 -0.1,0.25v2.45c0,0.1 -0.03333,0.18333 -0.1,0.25c-0.1,0.06667 -0.2,0.1 -0.3,0.1zM147.05,180.15h1.6c0.1,0 0.21667,-0.03333 0.35,-0.1c0.13333,-0.03333 0.25,-0.1 0.35,-0.2c0.13333,-0.1 0.23334,-0.21667 0.3,-0.35c0.06667,-0.13333 0.1,-0.3 0.1,-0.5c0,-0.1 -0.01667,-0.21667 -0.05,-0.35c-0.03333,-0.13333 -0.1,-0.26667 -0.2,-0.4c-0.06667,-0.1 -0.18333,-0.2 -0.35,-0.3c-0.13333,-0.06667 -0.3,-0.1 -0.5,-0.1h-1.6c-0.1,0 -0.18333,0.03333 -0.25,0.1c-0.06667,0.06667 -0.1,0.15 -0.1,0.25v1.6c0,0.1 0.03334,0.18333 0.1,0.25c0.06667,0.06667 0.15,0.1 0.25,0.1zM137.15,238.4c0.13333,0.1 0.28333,0.21667 0.45,0.35c0.16666,0.1 0.31667,0.25 0.45,0.45c0.13333,0.2 0.25,0.41666 0.35,0.65c0.06667,0.26666 0.1,0.55 0.1,0.85c0,0.66666 -0.1,1.21667 -0.3,1.65c-0.2,0.4 -0.48333,0.73334 -0.85,1c-0.33334,0.26666 -0.73333,0.45 -1.2,0.55c-0.46667,0.1 -0.93333,0.15 -1.4,0.15h-4.8c-0.1,0 -0.18333,-0.03334 -0.25,-0.1c-0.06667,-0.06667 -0.1,-0.15 -0.1,-0.25v-10.25c0,-0.1 0.03333,-0.2 0.1,-0.3c0.06667,-0.06667 0.15,-0.1 0.25,-0.1h4.55c0.46667,0 0.93333,0.06667 1.4,0.2c0.43333,0.1 0.81667,0.26666 1.15,0.5c0.33334,0.23334 0.6,0.55 0.8,0.95c0.2,0.36667 0.3,0.83334 0.3,1.4c0,0.46667 -0.11666,0.85 -0.35,1.15c-0.2,0.33334 -0.43334,0.6 -0.7,0.8c-0.16666,0.13333 -0.15,0.25 0.05,0.35zM116.75,238.55c0,-0.76666 0.15,-1.5 0.45,-2.2c0.3,-0.7 0.7,-1.3 1.2,-1.8c0.5,-0.53333 1.1,-0.95 1.8,-1.25c0.7,-0.3 1.43333,-0.45 2.2,-0.45c0.76667,0 1.5,0.15 2.2,0.45c0.7,0.3 1.3,0.71667 1.8,1.25c0.53333,0.5 0.95,1.1 1.25,1.8c0.3,0.7 0.45,1.43334 0.45,2.2c0,0.8 -0.15,1.53333 -0.45,2.2c-0.3,0.7 -0.71667,1.31667 -1.25,1.85c-0.5,0.5 -1.1,0.9 -1.8,1.2c-0.7,0.3 -1.43333,0.45 -2.2,0.45c-0.76667,0 -1.5,-0.15 -2.2,-0.45c-0.7,-0.3 -1.3,-0.7 -1.8,-1.2c-0.5,-0.53333 -0.9,-1.15 -1.2,-1.85c-0.3,-0.66666 -0.45,-1.4 -0.45,-2.2zM119.7,238.55c0,0.4 0.06667,0.76666 0.2,1.1c0.13334,0.33334 0.33333,0.63334 0.6,0.9c0.23333,0.26666 0.51666,0.46667 0.85,0.6c0.33334,0.16666 0.68334,0.25 1.05,0.25c0.36666,0 0.71666,-0.08334 1.05,-0.25c0.33334,-0.13333 0.61666,-0.33334 0.85,-0.6c0.26667,-0.26666 0.46667,-0.56667 0.6,-0.9c0.13334,-0.33334 0.2,-0.7 0.2,-1.1c0,-0.36667 -0.06666,-0.71667 -0.2,-1.05c-0.13334,-0.36667 -0.33334,-0.66666 -0.6,-0.9c-0.23333,-0.26666 -0.51666,-0.48334 -0.85,-0.65c-0.33334,-0.13333 -0.68333,-0.2 -1.05,-0.2c-0.36666,0 -0.71667,0.06667 -1.05,0.2c-0.33334,0.16666 -0.61666,0.38334 -0.85,0.65c-0.26667,0.23334 -0.46666,0.53333 -0.6,0.9c-0.13334,0.33334 -0.2,0.68333 -0.2,1.05zM132.95,237.25h1.4c0.2,0 0.35,-0.08334 0.45,-0.25c0.13333,-0.13333 0.2,-0.3 0.2,-0.5c0,-0.2 -0.06667,-0.35 -0.2,-0.45c-0.16666,-0.13333 -0.31667,-0.2 -0.45,-0.2h-1.4c-0.1,0 -0.18333,0.03333 -0.25,0.1c-0.06667,0.06667 -0.1,0.15 -0.1,0.25v0.7c0,0.1 0.03333,0.18333 0.1,0.25c0.06667,0.06667 0.15,0.1 0.25,0.1zM134.5,239.7h-1.55c-0.1,0 -0.18333,0.03334 -0.25,0.1c-0.06667,0.1 -0.1,0.18333 -0.1,0.25v0.9c0,0.1 0.03333,0.18333 0.1,0.25c0.06667,0.06667 0.15,0.1 0.25,0.1h1.65c0.2,0 0.38334,-0.08334 0.55,-0.25c0.13333,-0.13333 0.2,-0.3 0.2,-0.5c0,-0.2 -0.06667,-0.38334 -0.2,-0.55c-0.16666,-0.2 -0.38334,-0.3 -0.65,-0.3zM142.85,233.4c0.03333,-0.06667 0.1,-0.13334 0.2,-0.2c0.1,-0.06667 0.2,-0.1 0.3,-0.1h2.1c0.1,0 0.2,0.03333 0.3,0.1c0.1,0.06667 0.16666,0.13334 0.2,0.2l4.4,10.2c0.03333,0.1 0.01667,0.2 -0.05,0.3c-0.03333,0.1 -0.13334,0.15 -0.3,0.15h-2.55c-0.13333,0 -0.25,-0.03334 -0.35,-0.1c-0.1,-0.06667 -0.16666,-0.15 -0.2,-0.25l-0.4,-0.9c-0.06667,-0.06667 -0.13333,-0.13334 -0.2,-0.2c-0.1,-0.06667 -0.2,-0.1 -0.3,-0.1h-3.2c-0.1,0 -0.2,0.03333 -0.3,0.1c-0.1,0.06667 -0.16666,0.13334 -0.2,0.2l-0.4,0.9c-0.03333,0.1 -0.1,0.18333 -0.2,0.25c-0.1,0.06667 -0.2,0.1 -0.3,0.1h-2.6c-0.03333,0 -0.08334,-0.01667 -0.15,-0.05c-0.06667,0 -0.11667,-0.01667 -0.15,-0.05c-0.03333,-0.06667 -0.05,-0.11666 -0.05,-0.15c0,-0.06667 0.01667,-0.15 0.05,-0.25zM159.25,241.65v2.05c0,0.1 -0.03333,0.18333 -0.1,0.25c-0.06667,0.06667 -0.15,0.1 -0.25,0.1h-7.5c-0.1,0 -0.18333,-0.03334 -0.25,-0.1c-0.06667,-0.06667 -0.1,-0.15 -0.1,-0.25v-10.25c0,-0.1 0.03333,-0.2 0.1,-0.3c0.06667,-0.06667 0.15,-0.1 0.25,-0.1h2.25c0.1,0 0.18333,0.03333 0.25,0.1c0.06667,0.1 0.1,0.2 0.1,0.3v7.5c0,0.1 0.03333,0.18333 0.1,0.25c0.06667,0.06667 0.15,0.1 0.25,0.1h4.55c0.1,0 0.18333,0.03333 0.25,0.1c0.06667,0.06667 0.1,0.15 0.1,0.25zM143.75,239.95h1.3c0.1,0 0.18333,-0.03333 0.25,-0.1c0.03333,-0.06667 0.03333,-0.15 0,-0.25c-0.1,-0.23334 -0.23334,-0.51666 -0.4,-0.85c-0.13333,-0.33334 -0.25,-0.65 -0.35,-0.95c-0.06667,-0.1 -0.11667,-0.15 -0.15,-0.15c-0.06667,0 -0.11667,0.05 -0.15,0.15l-0.75,1.8c-0.03333,0.1 -0.03333,0.18333 0,0.25c0.03333,0.06667 0.11667,0.1 0.25,0.1zM101.25,244.25c-0.8,0 -1.55,-0.15 -2.25,-0.45c-0.7,-0.3 -1.31667,-0.7 -1.85,-1.2c-0.53333,-0.53333 -0.95,-1.13333 -1.25,-1.8c-0.3,-0.7 -0.45,-1.43334 -0.45,-2.2c0,-0.8 0.15,-1.55 0.45,-2.25c0.3,-0.66666 0.71667,-1.26666 1.25,-1.8c0.53333,-0.5 1.15,-0.9 1.85,-1.2c0.7,-0.3 1.45,-0.45 2.25,-0.45c1.1,0 2.05,0.21667 2.85,0.65c0.83334,0.46667 1.5,1.08334 2,1.85c0.06667,0.1 0.08334,0.2 0.05,0.3c-0.03333,0.1 -0.08334,0.18333 -0.15,0.25l-1.8,1.15c-0.1,0.03333 -0.2,0.05 -0.3,0.05c-0.1,-0.03333 -0.18333,-0.08334 -0.25,-0.15c-0.3,-0.36667 -0.65,-0.66666 -1.05,-0.9c-0.36666,-0.23334 -0.81667,-0.35 -1.35,-0.35c-0.4,0 -0.76666,0.06667 -1.1,0.2c-0.33334,0.16666 -0.61667,0.38334 -0.85,0.65c-0.26667,0.26666 -0.46666,0.56667 -0.6,0.9c-0.13334,0.33334 -0.2,0.7 -0.2,1.1c0,0.36667 0.06667,0.71667 0.2,1.05c0.13334,0.33334 0.33333,0.63334 0.6,0.9c0.23333,0.26666 0.51667,0.46667 0.85,0.6c0.33334,0.16666 0.7,0.25 1.1,0.25c0.36666,0 0.73333,-0.06667 1.1,-0.2c0.36666,-0.13333 0.66667,-0.36666 0.9,-0.7c0.06667,-0.06667 0.06667,-0.13333 0,-0.2c-0.03333,-0.06667 -0.1,-0.1 -0.2,-0.1h-1.7c-0.1,0 -0.18333,-0.03333 -0.25,-0.1c-0.1,-0.1 -0.15,-0.2 -0.15,-0.3v-1.75c0,-0.1 0.05,-0.18333 0.15,-0.25c0.06667,-0.06667 0.15,-0.1 0.25,-0.1h5.15c0.1,0 0.18333,0.01667 0.25,0.05c0.06667,0.1 0.11667,0.2 0.15,0.3c0,0.16666 0,0.36666 0,0.6c0,0.26666 -0.01667,0.51666 -0.05,0.75c-0.06667,0.7 -0.25,1.35 -0.55,1.95c-0.33334,0.6 -0.75,1.1 -1.25,1.5c-0.5,0.43333 -1.08334,0.78334 -1.75,1.05c-0.63334,0.23334 -1.31667,0.35 -2.05,0.35zM83.5,236.2v0.6c0,0.1 0.03333,0.2 0.1,0.3c0.1,0.06667 0.18333,0.1 0.25,0.1h4.1c0.1,0 0.18333,0.03334 0.25,0.1c0.06667,0.06667 0.1,0.15 0.1,0.25v2.05c0,0.1 -0.03333,0.18333 -0.1,0.25c-0.06667,0.06667 -0.15,0.1 -0.25,0.1h-4.1c-0.06667,0 -0.15,0.03334 -0.25,0.1c-0.06667,0.1 -0.1,0.2 -0.1,0.3v0.55c0,0.1 0.03333,0.18333 0.1,0.25c0.1,0.06667 0.18333,0.1 0.25,0.1h4.7c0.1,0 0.18333,0.03333 0.25,0.1c0.06667,0.06667 0.1,0.15 0.1,0.25v2.1c0,0.1 -0.03334,0.18333 -0.1,0.25c-0.06667,0.06667 -0.15,0.1 -0.25,0.1h-7.65c-0.1,0 -0.18333,-0.03334 -0.25,-0.1c-0.06667,-0.06667 -0.1,-0.15 -0.1,-0.25v-10.25c0,-0.1 0.03334,-0.2 0.1,-0.3c0.06667,-0.06667 0.15,-0.1 0.25,-0.1h7.65c0.1,0 0.18333,0.03333 0.25,0.1c0.06667,0.1 0.1,0.2 0.1,0.3v2c0,0.1 -0.03334,0.2 -0.1,0.3c-0.06667,0.06667 -0.15,0.1 -0.25,0.1h-4.7c-0.06667,0 -0.15,0.03333 -0.25,0.1c-0.06667,0.06667 -0.1,0.15 -0.1,0.25zM116.75,241.65v2.05c0,0.1 -0.03333,0.18333 -0.1,0.25c-0.06667,0.06667 -0.15,0.1 -0.25,0.1h-7.5c-0.1,0 -0.18333,-0.03334 -0.25,-0.1c-0.06667,-0.06667 -0.1,-0.15 -0.1,-0.25v-10.25c0,-0.1 0.03334,-0.2 0.1,-0.3c0.06667,-0.06667 0.15,-0.1 0.25,-0.1h2.25c0.1,0 0.18333,0.03333 0.25,0.1c0.06667,0.1 0.1,0.2 0.1,0.3v7.5c0,0.1 0.03333,0.18333 0.1,0.25c0.06667,0.06667 0.15,0.1 0.25,0.1h4.55c0.1,0 0.18333,0.03333 0.25,0.1c0.06667,0.06667 0.1,0.15 0.1,0.25zM67.2,235.85h-2.1c-0.1,0 -0.2,0.03333 -0.3,0.1c-0.06667,0.06667 -0.1,0.15 -0.1,0.25v7.5c0,0.1 -0.03334,0.18333 -0.1,0.25c-0.06667,0.06667 -0.15,0.1 -0.25,0.1h-2.25c-0.1,0 -0.18333,-0.03334 -0.25,-0.1c-0.06667,-0.06667 -0.1,-0.15 -0.1,-0.25v-7.5c0,-0.1 -0.03334,-0.18333 -0.1,-0.25c-0.06667,-0.06667 -0.15,-0.1 -0.25,-0.1h-2.15c-0.1,0 -0.18333,-0.03333 -0.25,-0.1c-0.06667,-0.1 -0.1,-0.2 -0.1,-0.3v-2c0,-0.1 0.03334,-0.2 0.1,-0.3c0.06667,-0.06667 0.15,-0.1 0.25,-0.1h7.95c0.1,0 0.18333,0.03333 0.25,0.1c0.06667,0.1 0.1,0.2 0.1,0.3v2c0,0.1 -0.03333,0.2 -0.1,0.3c-0.06667,0.06667 -0.15,0.1 -0.25,0.1zM78.5,233.45v10.25c0,0.1 -0.03333,0.18333 -0.1,0.25c-0.06667,0.06667 -0.15,0.1 -0.25,0.1h-2.25c-0.13334,0 -0.23334,-0.03334 -0.3,-0.1c-0.06667,-0.06667 -0.1,-0.15 -0.1,-0.25v-3.2c0,-0.1 -0.03333,-0.2 -0.1,-0.3c-0.06667,-0.06667 -0.15,-0.1 -0.25,-0.1h-3.1c-0.1,0 -0.18333,0.03333 -0.25,0.1c-0.06667,0.1 -0.1,0.2 -0.1,0.3v3.2c0,0.1 -0.03334,0.18333 -0.1,0.25c-0.06667,0.06667 -0.15,0.1 -0.25,0.1h-2.25c-0.1,0 -0.18333,-0.03334 -0.25,-0.1c-0.06667,-0.06667 -0.1,-0.15 -0.1,-0.25v-10.25c0,-0.1 0.03333,-0.2 0.1,-0.3c0.06667,-0.06667 0.15,-0.1 0.25,-0.1h2.25c0.1,0 0.18333,0.03333 0.25,0.1c0.06667,0.1 0.1,0.2 0.1,0.3v3.55c0,0.1 0.03333,0.18333 0.1,0.25c0.06667,0.06667 0.15,0.1 0.25,0.1h3.1c0.1,0 0.18333,-0.03333 0.25,-0.1c0.06667,-0.06667 0.1,-0.15 0.1,-0.25v-3.55c0,-0.1 0.03333,-0.2 0.1,-0.3c0.06667,-0.06667 0.16667,-0.1 0.3,-0.1h2.25c0.1,0 0.18333,0.03333 0.25,0.1c0.06667,0.1 0.1,0.2 0.1,0.3zM254.95,236.2v0.6c0,0.1 0.03334,0.2 0.1,0.3c0.1,0.06667 0.18333,0.1 0.25,0.1h4.1c0.1,0 0.18333,0.03334 0.25,0.1c0.06667,0.06667 0.1,0.15 0.1,0.25v2.05c0,0.1 -0.03334,0.18333 -0.1,0.25c-0.06667,0.06667 -0.15,0.1 -0.25,0.1h-4.1c-0.06667,0 -0.15,0.03334 -0.25,0.1c-0.06667,0.1 -0.1,0.2 -0.1,0.3v0.55c0,0.1 0.03334,0.18333 0.1,0.25c0.1,0.06667 0.18333,0.1 0.25,0.1h4.7c0.1,0 0.18333,0.03333 0.25,0.1c0.06667,0.06667 0.1,0.15 0.1,0.25v2.1c0,0.1 -0.03334,0.18333 -0.1,0.25c-0.06667,0.06667 -0.15,0.1 -0.25,0.1h-7.65c-0.1,0 -0.18333,-0.03334 -0.25,-0.1c-0.06667,-0.06667 -0.1,-0.15 -0.1,-0.25v-10.25c0,-0.1 0.03333,-0.2 0.1,-0.3c0.06667,-0.06667 0.15,-0.1 0.25,-0.1h7.65c0.1,0 0.18333,0.03333 0.25,0.1c0.06667,0.1 0.1,0.2 0.1,0.3v2c0,0.1 -0.03334,0.2 -0.1,0.3c-0.06667,0.06667 -0.15,0.1 -0.25,0.1h-4.7c-0.06667,0 -0.15,0.03333 -0.25,0.1c-0.06667,0.06667 -0.1,0.15 -0.1,0.25zM243.8,244.05h-2.2c-0.1,0 -0.18333,-0.03334 -0.25,-0.1c-0.06667,-0.06667 -0.1,-0.15 -0.1,-0.25v-10.25c0,-0.1 0.03333,-0.2 0.1,-0.3c0.06667,-0.06667 0.15,-0.1 0.25,-0.1h4.65c0.56667,0 1.1,0.1 1.6,0.3c0.5,0.2 0.91666,0.48333 1.25,0.85c0.36667,0.33334 0.63334,0.75 0.8,1.25c0.2,0.46667 0.3,0.98334 0.3,1.55c0,0.33334 -0.03333,0.65 -0.1,0.95c-0.06667,0.33334 -0.16666,0.63334 -0.3,0.9c-0.16666,0.3 -0.33334,0.55 -0.5,0.75c-0.2,0.23334 -0.41666,0.43333 -0.65,0.6c-0.1,0.03333 -0.15,0.1 -0.15,0.2c-0.03333,0.1 -0.01666,0.18333 0.05,0.25c0.36667,0.5 0.76666,1.01666 1.2,1.55c0.4,0.53333 0.76666,1.01667 1.1,1.45c0.06667,0.06667 0.08334,0.15 0.05,0.25c-0.03333,0.1 -0.1,0.15 -0.2,0.15h-2.8c-0.1,0 -0.2,-0.03334 -0.3,-0.1c-0.13333,-0.03333 -0.21667,-0.1 -0.25,-0.2c-0.33334,-0.4 -0.65,-0.81667 -0.95,-1.25c-0.33334,-0.43333 -0.65,-0.86667 -0.95,-1.3c-0.06667,-0.1 -0.15,-0.16666 -0.25,-0.2c-0.13333,-0.06667 -0.25,-0.1 -0.35,-0.1h-0.3c-0.1,0 -0.18333,0.03333 -0.25,0.1c-0.06667,0.06667 -0.1,0.15 -0.1,0.25v2.45c0,0.1 -0.03333,0.18333 -0.1,0.25c-0.1,0.06667 -0.2,0.1 -0.3,0.1zM244.55,238.15h1.6c0.1,0 0.21667,-0.03333 0.35,-0.1c0.13333,-0.03333 0.25,-0.1 0.35,-0.2c0.13333,-0.1 0.23334,-0.21667 0.3,-0.35c0.06667,-0.13333 0.1,-0.3 0.1,-0.5c0,-0.1 -0.01667,-0.21667 -0.05,-0.35c-0.03333,-0.13333 -0.1,-0.26667 -0.2,-0.4c-0.06667,-0.1 -0.18333,-0.2 -0.35,-0.3c-0.13333,-0.06667 -0.3,-0.1 -0.5,-0.1h-1.6c-0.1,0 -0.18333,0.03333 -0.25,0.1c-0.06667,0.06667 -0.1,0.15 -0.1,0.25v1.6c0,0.1 0.03334,0.18333 0.1,0.25c0.06667,0.06667 0.15,0.1 0.25,0.1zM273.75,240.3c0.53334,0.33334 1.06667,0.6 1.6,0.8c0.53334,0.2 1.03334,0.3 1.5,0.3c0.43333,0 0.76666,-0.06667 1,-0.2c0.23334,-0.1 0.35,-0.28333 0.35,-0.55c0,-0.13333 -0.05,-0.23334 -0.15,-0.3c-0.1,-0.06667 -0.23334,-0.13333 -0.4,-0.2c-0.16667,-0.03333 -0.36666,-0.06667 -0.6,-0.1c-0.2,-0.03333 -0.41667,-0.06667 -0.65,-0.1c-0.23334,-0.06667 -0.48334,-0.11666 -0.75,-0.15c-0.3,-0.06667 -0.61667,-0.15 -0.95,-0.25c-0.3,-0.1 -0.6,-0.23334 -0.9,-0.4c-0.3,-0.16666 -0.56667,-0.36666 -0.8,-0.6c-0.26666,-0.26666 -0.46667,-0.56667 -0.6,-0.9c-0.13333,-0.36667 -0.2,-0.78333 -0.2,-1.25c0,-0.66666 0.13334,-1.23334 0.4,-1.7c0.26666,-0.43333 0.6,-0.78333 1,-1.05c0.43333,-0.26666 0.9,-0.45 1.4,-0.55c0.5,-0.13333 1,-0.2 1.5,-0.2c0.83333,0 1.58333,0.13334 2.25,0.4c0.66667,0.23334 1.3,0.58333 1.9,1.05c0.1,0.06667 0.15,0.15 0.15,0.25c0,0.1 -0.03334,0.2 -0.1,0.3l-1.15,1.65c-0.06667,0.06667 -0.15,0.11666 -0.25,0.15c-0.1,0.03333 -0.18333,0.01667 -0.25,-0.05c-0.5,-0.33334 -0.98334,-0.56667 -1.45,-0.7c-0.43333,-0.13333 -0.83334,-0.2 -1.2,-0.2c-0.1,0 -0.23333,0 -0.4,0c-0.13333,0 -0.26666,0.01667 -0.4,0.05c-0.13333,0.03333 -0.23334,0.1 -0.3,0.2c-0.1,0.06667 -0.15,0.16667 -0.15,0.3c0,0.16666 0.1,0.3 0.3,0.4c0.23334,0.1 0.48334,0.2 0.75,0.3c0.26666,0.06667 0.51666,0.11667 0.75,0.15c0.26666,0.06667 0.43333,0.1 0.5,0.1c0.36667,0.06667 0.76666,0.16667 1.2,0.3c0.43333,0.13333 0.83334,0.33334 1.2,0.6c0.36667,0.26666 0.68333,0.61666 0.95,1.05c0.23334,0.43333 0.35,0.96667 0.35,1.6c0,0.6 -0.1,1.11666 -0.3,1.55c-0.2,0.43333 -0.48334,0.78334 -0.85,1.05c-0.4,0.3 -0.85,0.51667 -1.35,0.65c-0.53334,0.13333 -1.11667,0.2 -1.75,0.2c-0.53334,0 -1.01666,-0.05 -1.45,-0.15c-0.46666,-0.06667 -0.9,-0.18333 -1.3,-0.35c-0.36667,-0.13333 -0.71666,-0.3 -1.05,-0.5c-0.36667,-0.2 -0.68334,-0.41666 -0.95,-0.65c-0.06667,-0.06667 -0.11666,-0.15 -0.15,-0.25c0,-0.1 0.03334,-0.2 0.1,-0.3l1.15,-1.65c0.06667,-0.1 0.15,-0.15 0.25,-0.15c0.1,-0.03333 0.18333,-0.01666 0.25,0.05zM270.15,244.05h-2.25c-0.1,0 -0.18333,-0.03334 -0.25,-0.1c-0.06667,-0.06667 -0.1,-0.15 -0.1,-0.25v-10.25c0,-0.1 0.03333,-0.18333 0.1,-0.25c0.06667,-0.06667 0.15,-0.1 0.25,-0.1h2.25c0.1,0 0.18333,0.03333 0.25,0.1c0.06667,0.06667 0.1,0.15 0.1,0.25v10.25c0,0.1 -0.03334,0.18333 -0.1,0.25c-0.06667,0.06667 -0.15,0.1 -0.25,0.1zM227.65,241.15c-0.26666,0.46667 -0.58334,0.88333 -0.95,1.25c-0.33334,0.4 -0.71666,0.73334 -1.15,1c-0.43333,0.26666 -0.91667,0.46667 -1.45,0.6c-0.53333,0.16666 -1.11667,0.25 -1.75,0.25c-0.8,0 -1.55,-0.15 -2.25,-0.45c-0.7,-0.3 -1.31667,-0.7 -1.85,-1.2c-0.53333,-0.53333 -0.95,-1.13333 -1.25,-1.8c-0.3,-0.7 -0.45,-1.43334 -0.45,-2.2c0,-0.8 0.15,-1.55 0.45,-2.25c0.3,-0.66666 0.71667,-1.26666 1.25,-1.8c0.53333,-0.5 1.15,-0.9 1.85,-1.2c0.7,-0.3 1.45,-0.45 2.25,-0.45c0.63333,0 1.21667,0.08334 1.75,0.25c0.53333,0.13333 1.01667,0.33334 1.45,0.6c0.43333,0.26666 0.81666,0.6 1.15,1c0.36667,0.36667 0.68334,0.78333 0.95,1.25c0.06667,0.1 0.08333,0.18333 0.05,0.25c-0.03333,0.1 -0.1,0.16666 -0.2,0.2l-2.1,0.85c-0.1,0.03333 -0.2,0.03333 -0.3,0c-0.1,-0.03333 -0.18333,-0.1 -0.25,-0.2c-0.26666,-0.43333 -0.61666,-0.78333 -1.05,-1.05c-0.4,-0.23334 -0.88334,-0.35 -1.45,-0.35c-0.4,0 -0.76666,0.08334 -1.1,0.25c-0.33334,0.16666 -0.61666,0.36667 -0.85,0.6c-0.26666,0.26666 -0.46667,0.58333 -0.6,0.95c-0.13333,0.33334 -0.2,0.7 -0.2,1.1c0,0.36667 0.06667,0.71667 0.2,1.05c0.13333,0.36667 0.33334,0.66666 0.6,0.9c0.23334,0.26666 0.51666,0.48333 0.85,0.65c0.33334,0.16666 0.7,0.25 1.1,0.25c0.53333,0 1.01667,-0.13333 1.45,-0.4c0.46667,-0.26666 0.83334,-0.61667 1.1,-1.05c0.03333,-0.06667 0.1,-0.11667 0.2,-0.15c0.1,-0.03333 0.2,-0.03333 0.3,0l2.1,0.85c0.1,0.03333 0.16666,0.08334 0.2,0.15c0.03333,0.1 0.01667,0.2 -0.05,0.3zM208.1,240.3c0.53333,0.33334 1.06667,0.6 1.6,0.8c0.53333,0.2 1.03333,0.3 1.5,0.3c0.43333,0 0.76666,-0.06667 1,-0.2c0.23334,-0.1 0.35,-0.28333 0.35,-0.55c0,-0.13333 -0.05,-0.23334 -0.15,-0.3c-0.1,-0.06667 -0.23334,-0.13333 -0.4,-0.2c-0.16666,-0.03333 -0.36666,-0.06667 -0.6,-0.1c-0.2,-0.03333 -0.41666,-0.06667 -0.65,-0.1c-0.23334,-0.06667 -0.48334,-0.11666 -0.75,-0.15c-0.3,-0.06667 -0.61666,-0.15 -0.95,-0.25c-0.3,-0.1 -0.6,-0.23334 -0.9,-0.4c-0.3,-0.16666 -0.56667,-0.36666 -0.8,-0.6c-0.26666,-0.26666 -0.46667,-0.56667 -0.6,-0.9c-0.13333,-0.36667 -0.2,-0.78333 -0.2,-1.25c0,-0.66666 0.13333,-1.23334 0.4,-1.7c0.26666,-0.43333 0.6,-0.78333 1,-1.05c0.43333,-0.26666 0.9,-0.45 1.4,-0.55c0.5,-0.13333 1,-0.2 1.5,-0.2c0.83334,0 1.58334,0.13334 2.25,0.4c0.66666,0.23334 1.3,0.58333 1.9,1.05c0.1,0.06667 0.15,0.15 0.15,0.25c0,0.1 -0.03333,0.2 -0.1,0.3l-1.15,1.65c-0.06667,0.06667 -0.15,0.11666 -0.25,0.15c-0.1,0.03333 -0.18333,0.01667 -0.25,-0.05c-0.5,-0.33334 -0.98334,-0.56667 -1.45,-0.7c-0.43333,-0.13333 -0.83333,-0.2 -1.2,-0.2c-0.1,0 -0.23334,0 -0.4,0c-0.13333,0 -0.26667,0.01667 -0.4,0.05c-0.13333,0.03333 -0.23333,0.1 -0.3,0.2c-0.1,0.06667 -0.15,0.16667 -0.15,0.3c0,0.16666 0.1,0.3 0.3,0.4c0.23334,0.1 0.48334,0.2 0.75,0.3c0.26666,0.06667 0.51666,0.11667 0.75,0.15c0.26666,0.06667 0.43333,0.1 0.5,0.1c0.36667,0.06667 0.76666,0.16667 1.2,0.3c0.43333,0.13333 0.83333,0.33334 1.2,0.6c0.36667,0.26666 0.68334,0.61666 0.95,1.05c0.23334,0.43333 0.35,0.96667 0.35,1.6c0,0.6 -0.1,1.11666 -0.3,1.55c-0.2,0.43333 -0.48333,0.78334 -0.85,1.05c-0.4,0.3 -0.85,0.51667 -1.35,0.65c-0.53333,0.13333 -1.11667,0.2 -1.75,0.2c-0.53333,0 -1.01666,-0.05 -1.45,-0.15c-0.46667,-0.06667 -0.9,-0.18333 -1.3,-0.35c-0.36667,-0.13333 -0.71667,-0.3 -1.05,-0.5c-0.36667,-0.2 -0.68333,-0.41666 -0.95,-0.65c-0.06667,-0.06667 -0.11667,-0.15 -0.15,-0.25c0,-0.1 0.03333,-0.2 0.1,-0.3l1.15,-1.65c0.06667,-0.1 0.15,-0.15 0.25,-0.15c0.1,-0.03333 0.18333,-0.01666 0.25,0.05zM204.65,233.45v10.25c0,0.1 -0.03333,0.18333 -0.1,0.25c-0.06667,0.06667 -0.15,0.1 -0.25,0.1h-2.25c-0.13333,0 -0.23334,-0.03334 -0.3,-0.1c-0.06667,-0.06667 -0.1,-0.15 -0.1,-0.25v-3.2c0,-0.1 -0.03333,-0.2 -0.1,-0.3c-0.06667,-0.06667 -0.15,-0.1 -0.25,-0.1h-3.1c-0.1,0 -0.18333,0.03333 -0.25,0.1c-0.06667,0.1 -0.1,0.2 -0.1,0.3v3.2c0,0.1 -0.03333,0.18333 -0.1,0.25c-0.06667,0.06667 -0.15,0.1 -0.25,0.1h-2.25c-0.1,0 -0.18333,-0.03334 -0.25,-0.1c-0.06667,-0.06667 -0.1,-0.15 -0.1,-0.25v-10.25c0,-0.1 0.03333,-0.2 0.1,-0.3c0.06667,-0.06667 0.15,-0.1 0.25,-0.1h2.25c0.1,0 0.18333,0.03333 0.25,0.1c0.06667,0.1 0.1,0.2 0.1,0.3v3.55c0,0.1 0.03333,0.18333 0.1,0.25c0.06667,0.06667 0.15,0.1 0.25,0.1h3.1c0.1,0 0.18333,-0.03333 0.25,-0.1c0.06667,-0.06667 0.1,-0.15 0.1,-0.25v-3.55c0,-0.1 0.03333,-0.2 0.1,-0.3c0.06667,-0.06667 0.16667,-0.1 0.3,-0.1h2.25c0.1,0 0.18333,0.03333 0.25,0.1c0.06667,0.1 0.1,0.2 0.1,0.3zM228.35,238.55c0,-0.76666 0.15,-1.5 0.45,-2.2c0.3,-0.7 0.7,-1.3 1.2,-1.8c0.5,-0.53333 1.1,-0.95 1.8,-1.25c0.7,-0.3 1.43333,-0.45 2.2,-0.45c0.76666,0 1.5,0.15 2.2,0.45c0.7,0.3 1.3,0.71667 1.8,1.25c0.53333,0.5 0.95,1.1 1.25,1.8c0.3,0.7 0.45,1.43334 0.45,2.2c0,0.8 -0.15,1.53333 -0.45,2.2c-0.3,0.7 -0.71667,1.31667 -1.25,1.85c-0.5,0.5 -1.1,0.9 -1.8,1.2c-0.7,0.3 -1.43333,0.45 -2.2,0.45c-0.76666,0 -1.5,-0.15 -2.2,-0.45c-0.7,-0.3 -1.3,-0.7 -1.8,-1.2c-0.5,-0.53333 -0.9,-1.15 -1.2,-1.85c-0.3,-0.66666 -0.45,-1.4 -0.45,-2.2zM231.3,238.55c0,0.4 0.06667,0.76666 0.2,1.1c0.13333,0.33334 0.33334,0.63334 0.6,0.9c0.23334,0.26666 0.51666,0.46667 0.85,0.6c0.33334,0.16666 0.68333,0.25 1.05,0.25c0.36667,0 0.71667,-0.08334 1.05,-0.25c0.33334,-0.13333 0.61666,-0.33334 0.85,-0.6c0.26666,-0.26666 0.46667,-0.56667 0.6,-0.9c0.13333,-0.33334 0.2,-0.7 0.2,-1.1c0,-0.36667 -0.06667,-0.71667 -0.2,-1.05c-0.13333,-0.36667 -0.33334,-0.66666 -0.6,-0.9c-0.23334,-0.26666 -0.51666,-0.48334 -0.85,-0.65c-0.33334,-0.13333 -0.68333,-0.2 -1.05,-0.2c-0.36667,0 -0.71667,0.06667 -1.05,0.2c-0.33334,0.16666 -0.61666,0.38334 -0.85,0.65c-0.26666,0.23334 -0.46667,0.53333 -0.6,0.9c-0.13333,0.33334 -0.2,0.68333 -0.2,1.05zM175.25,233.45v10.25c0,0.1 -0.03333,0.18333 -0.1,0.25c-0.06667,0.06667 -0.15,0.1 -0.25,0.1h-2.25c-0.13333,0 -0.23334,-0.03334 -0.3,-0.1c-0.06667,-0.06667 -0.1,-0.15 -0.1,-0.25v-3.2c0,-0.1 -0.03333,-0.2 -0.1,-0.3c-0.06667,-0.06667 -0.15,-0.1 -0.25,-0.1h-3.1c-0.1,0 -0.18333,0.03333 -0.25,0.1c-0.06667,0.1 -0.1,0.2 -0.1,0.3v3.2c0,0.1 -0.03333,0.18333 -0.1,0.25c-0.06667,0.06667 -0.15,0.1 -0.25,0.1h-2.25c-0.1,0 -0.18333,-0.03334 -0.25,-0.1c-0.06667,-0.06667 -0.1,-0.15 -0.1,-0.25v-10.25c0,-0.1 0.03333,-0.2 0.1,-0.3c0.06667,-0.06667 0.15,-0.1 0.25,-0.1h2.25c0.1,0 0.18333,0.03333 0.25,0.1c0.06667,0.1 0.1,0.2 0.1,0.3v3.55c0,0.1 0.03334,0.18333 0.1,0.25c0.06667,0.06667 0.15,0.1 0.25,0.1h3.1c0.1,0 0.18333,-0.03333 0.25,-0.1c0.06667,-0.06667 0.1,-0.15 0.1,-0.25v-3.55c0,-0.1 0.03333,-0.2 0.1,-0.3c0.06667,-0.06667 0.16667,-0.1 0.3,-0.1h2.25c0.1,0 0.18333,0.03333 0.25,0.1c0.06667,0.1 0.1,0.2 0.1,0.3zM180.2,244.05h-2.25c-0.1,0 -0.18333,-0.03334 -0.25,-0.1c-0.06667,-0.06667 -0.1,-0.15 -0.1,-0.25v-10.25c0,-0.1 0.03333,-0.18333 0.1,-0.25c0.06667,-0.06667 0.15,-0.1 0.25,-0.1h2.25c0.1,0 0.18333,0.03333 0.25,0.1c0.06667,0.06667 0.1,0.15 0.1,0.25v10.25c0,0.1 -0.03334,0.18333 -0.1,0.25c-0.06667,0.06667 -0.15,0.1 -0.25,0.1zM187.85,244.25c-0.8,0 -1.55,-0.15 -2.25,-0.45c-0.7,-0.3 -1.31667,-0.7 -1.85,-1.2c-0.53333,-0.53333 -0.95,-1.13333 -1.25,-1.8c-0.3,-0.7 -0.45,-1.43334 -0.45,-2.2c0,-0.8 0.15,-1.55 0.45,-2.25c0.3,-0.66666 0.71667,-1.26666 1.25,-1.8c0.53333,-0.5 1.15,-0.9 1.85,-1.2c0.7,-0.3 1.45,-0.45 2.25,-0.45c1.1,0 2.05,0.21667 2.85,0.65c0.83334,0.46667 1.5,1.08334 2,1.85c0.06667,0.1 0.08334,0.2 0.05,0.3c-0.03333,0.1 -0.08334,0.18333 -0.15,0.25l-1.8,1.15c-0.1,0.03333 -0.2,0.05 -0.3,0.05c-0.1,-0.03333 -0.18333,-0.08334 -0.25,-0.15c-0.3,-0.36667 -0.65,-0.66666 -1.05,-0.9c-0.36667,-0.23334 -0.81667,-0.35 -1.35,-0.35c-0.4,0 -0.76666,0.06667 -1.1,0.2c-0.33334,0.16666 -0.61666,0.38334 -0.85,0.65c-0.26666,0.26666 -0.46667,0.56667 -0.6,0.9c-0.13333,0.33334 -0.2,0.7 -0.2,1.1c0,0.36667 0.06667,0.71667 0.2,1.05c0.13333,0.33334 0.33334,0.63334 0.6,0.9c0.23334,0.26666 0.51666,0.46667 0.85,0.6c0.33334,0.16666 0.7,0.25 1.1,0.25c0.36667,0 0.73333,-0.06667 1.1,-0.2c0.36667,-0.13333 0.66666,-0.36666 0.9,-0.7c0.06667,-0.06667 0.06667,-0.13333 0,-0.2c-0.03333,-0.06667 -0.1,-0.1 -0.2,-0.1h-1.7c-0.1,0 -0.18333,-0.03333 -0.25,-0.1c-0.1,-0.1 -0.15,-0.2 -0.15,-0.3v-1.75c0,-0.1 0.05,-0.18333 0.15,-0.25c0.06667,-0.06667 0.15,-0.1 0.25,-0.1h5.15c0.1,0 0.18333,0.01667 0.25,0.05c0.06667,0.1 0.11667,0.2 0.15,0.3c0,0.16666 0,0.36666 0,0.6c0,0.26666 -0.01667,0.51666 -0.05,0.75c-0.06667,0.7 -0.25,1.35 -0.55,1.95c-0.33334,0.6 -0.75,1.1 -1.25,1.5c-0.5,0.43333 -1.08334,0.78334 -1.75,1.05c-0.63333,0.23334 -1.31667,0.35 -2.05,0.35z" fill="none" stroke="#000000" stroke-linecap="round" stroke-linejoin="round"/></g></g></g></svg>