<svg version="1.1" xmlns="http://www.w3.org/2000/svg" xmlns:xlink="http://www.w3.org/1999/xlink" width="76.81122" height="20.23821" viewBox="0,0,76.81122,20.23821"><defs><linearGradient x1="225.11952" y1="185.15075" x2="225.11952" y2="174.84933" gradientUnits="userSpaceOnUse" id="color-1"><stop offset="0" stop-color="#cae7ff"/><stop offset="1" stop-color="#eef4ff"/></linearGradient></defs><g transform="translate(-201.59439,-169.8809)"><g data-paper-data="{&quot;isPaintingLayer&quot;:true}" fill-rule="nonzero" stroke-linecap="butt" stroke-linejoin="miter" stroke-miterlimit="10" stroke-dasharray="" stroke-dashoffset="0" style="mix-blend-mode: normal"><path d="M253.66318,176.81612v-0.00544h0.2919z" fill="url(#color-1)" stroke="none" stroke-width="1"/><path d="M271.67754,171.88091c2.61039,0 4.72807,1.85901 4.72807,4.1526c0,2.41628 0,5.51672 0,7.93301c0,2.29361 -2.11768,4.1526 -4.72807,4.1526c-13.61568,0 -49.7394,0 -63.35508,0c-2.61039,0 -4.72807,-1.85901 -4.72807,-4.1526c0,-2.41628 0,-5.51672 0,-7.93301c0,-2.29361 2.11768,-4.1526 4.72807,-4.1526c13.61568,0 49.7394,0 63.35508,0z" fill="#00d808" stroke="#41a100" stroke-width="4"/><path d="M205.02054,173.01384h69.99191l-0.45444,7.96719c0,0 -0.30417,-1.90413 -1.16244,-3.17758c-0.84165,-1.24878 -2.21614,-1.86783 -4.35918,-1.82145c-1.52444,0.03301 -4.16242,3.1451 -6.09794,2.99485c-2.00972,-0.15603 -4.01679,-2.62467 -6.43914,-2.65141c-1.67208,-0.01846 -4.74437,2.75029 -6.5244,2.68374c-2.02386,-0.07567 -4.76057,-2.82501 -6.84269,-2.84786c-1.87426,-0.02056 -5.29983,2.75513 -7.12942,2.70789c-2.23897,-0.05781 -4.86337,-2.34868 -6.93092,-2.37488c-2.21456,-0.02807 -5.05919,2.45278 -6.95696,2.41014c-3.27979,-0.0737 -6.59961,-2.29592 -8.42702,-2.29592c-1.64888,0 -3.45199,-0.04676 -4.71791,0.69676c-2.51142,1.47506 -3.49503,4.28167 -3.49503,4.28167z" fill="#41a100" stroke="none" stroke-width="0"/></g></g></svg>