<svg version="1.1" xmlns="http://www.w3.org/2000/svg" xmlns:xlink="http://www.w3.org/1999/xlink" width="218.26779" height="130.74186" viewBox="0,0,218.26779,130.74186"><g transform="translate(-130.86611,-114.62907)"><g data-paper-data="{&quot;isPaintingLayer&quot;:true}" fill-rule="nonzero" stroke-width="0" stroke-linecap="butt" stroke-linejoin="miter" stroke-miterlimit="10" stroke-dasharray="" stroke-dashoffset="0" style="mix-blend-mode: normal"><path d="M221.49591,151.5c0,-4.73126 3.83545,-8.56671 8.56671,-8.56671c4.73126,0 8.56671,3.83545 8.56671,8.56671c0,4.73126 -3.83545,8.56671 -8.56671,8.56671c-4.73126,0 -8.56671,-3.83545 -8.56671,-8.56671z" fill="#000000" stroke="none"/><path d="M222.24031,148.9876c0,-2.79145 2.26291,-5.05436 5.05436,-5.05436c2.79145,0 5.05436,2.26291 5.05436,5.05436c0,2.79145 -2.26291,5.05436 -5.05436,5.05436c-2.79145,0 -5.05436,-2.26291 -5.05436,-5.05436z" fill="#ffffff" stroke="none"/><path d="M231.82194,155.65659c0,-1.46669 1.18899,-2.65568 2.65568,-2.65568c1.46669,0 2.65568,1.18899 2.65568,2.65568c0,1.46669 -1.18899,2.65568 -2.65568,2.65568c-1.46669,0 -2.65568,-1.18899 -2.65568,-2.65568z" fill="#ffffff" stroke="none"/><path d="M241.71334,151.5c0,-4.73127 3.83544,-8.56671 8.56671,-8.56671c4.73127,0 8.56671,3.83544 8.56671,8.56671c0,4.73127 -3.83545,8.56671 -8.56671,8.56671c-4.73127,0 -8.56671,-3.83544 -8.56671,-8.56671z" fill="#000000" stroke="none"/><path d="M242.45774,148.9876c0,-2.79145 2.26291,-5.05436 5.05436,-5.05436c2.79145,0 5.05436,2.26291 5.05436,5.05436c0,2.79145 -2.26291,5.05436 -5.05436,5.05436c-2.79145,0 -5.05436,-2.26291 -5.05436,-5.05436z" fill="#ffffff" stroke="none"/><path d="M252.03937,155.65659c0,-1.46669 1.18899,-2.65568 2.65568,-2.65568c1.46669,0 2.65569,1.18899 2.65569,2.65568c0,1.46669 -1.189,2.65568 -2.65569,2.65568c-1.46669,0 -2.65568,-1.18899 -2.65568,-2.65568z" fill="#ffffff" stroke="none"/><path d="M130.86611,245.37093v-130.74186h218.26779v130.74186z" fill="none" stroke="#000000"/></g></g></svg>