<svg version="1.1" xmlns="http://www.w3.org/2000/svg" xmlns:xlink="http://www.w3.org/1999/xlink" width="576.38641" height="355.90745" viewBox="0,0,576.38641,355.90745"><g transform="translate(43.19319,-132.04629)"><g data-paper-data="{&quot;isPaintingLayer&quot;:true}" fill-rule="nonzero" stroke="#000000" stroke-width="0" stroke-linecap="butt" stroke-linejoin="miter" stroke-miterlimit="10" stroke-dasharray="" stroke-dashoffset="0" style="mix-blend-mode: normal"><path d="M209.86294,471.0146c-23.79182,21.76686 -84.38636,10.03169 -119.05612,10.03169c-74.00616,0 -134,-60.44156 -134,-135c0,-74.55844 59.99384,-135 134,-135c74.00616,0 134,60.44156 134,135c0,39.62996 12.05038,100.27157 -14.94388,124.96831z" fill="#41a100"/><path d="M102.80682,444.54629c0,-89.74627 105.0659,-312.5 210,-312.5c104.9341,0 190,72.75373 190,162.5c0,45.80681 53.83934,134.18686 18.18709,163.72581c-34.19885,28.33477 -156.81172,-1.22581 -208.18709,-1.22581c-104.9341,0 -210,77.24627 -210,-12.5z" fill="#00d808"/></g></g></svg>