<svg version="1.1" xmlns="http://www.w3.org/2000/svg" xmlns:xlink="http://www.w3.org/1999/xlink" width="299" height="255" viewBox="0,0,299,255"><g transform="translate(-90.5,-52.5)"><g data-paper-data="{&quot;isPaintingLayer&quot;:true}" fill-rule="nonzero" stroke-linejoin="miter" stroke-miterlimit="10" stroke-dasharray="" stroke-dashoffset="0" style="mix-blend-mode: normal"><path d="M239.52554,203.34794c-0.63329,0 -1.18323,-0.21665 -1.64985,-0.64993c-0.46662,-0.43331 -0.69994,-0.99992 -0.69994,-1.69986c0,-0.19998 0.03334,-0.41664 0.09999,-0.64993c0.09999,-0.23332 0.23332,-0.49996 0.39997,-0.79993l17.34853,-37.44678l-20.09828,-0.8c-0.69994,0 -1.28322,-0.21665 -1.74984,-0.64993c-0.43331,-0.46662 -0.64993,-1.01659 -0.64993,-1.64985c0,-0.63329 0.21665,-1.18323 0.64996,-1.64985c0.46662,-0.46662 1.04993,-0.69994 1.74987,-0.69994h24.29796c0.63329,0 1.16656,0.23332 1.59987,0.69994c0.43331,0.46662 0.64996,1.01659 0.64996,1.64988c0,0.19998 -0.04998,0.41664 -0.14997,0.64996c-0.06665,0.19998 -0.13333,0.39997 -0.19998,0.59995l-19.54835,41.7965c-0.43331,0.86658 -1.11658,1.29989 -2.04981,1.29989z" fill="#ff0000" stroke="#ffffff" stroke-width="17.5" stroke-linecap="square"/><path d="M232.52554,203.34794c-0.63329,0 -1.18323,-0.21665 -1.64985,-0.64993c-0.46662,-0.43331 -0.69994,-0.99992 -0.69994,-1.69986c0,-0.19998 0.03334,-0.41664 0.09999,-0.64993c0.09999,-0.23332 0.23332,-0.49996 0.39997,-0.79993l17.34853,-37.44678l-20.09828,-0.8c-0.69994,0 -1.28322,-0.21665 -1.74984,-0.64993c-0.43331,-0.46662 -0.64993,-1.01659 -0.64993,-1.64985c0,-0.63329 0.21665,-1.18323 0.64996,-1.64985c0.46662,-0.46662 1.04993,-0.69994 1.74987,-0.69994h24.29796c0.63329,0 1.16656,0.23332 1.59987,0.69994c0.43331,0.46662 0.64996,1.01659 0.64996,1.64988c0,0.19998 -0.04998,0.41664 -0.14997,0.64996c-0.06665,0.19998 -0.13333,0.39997 -0.19998,0.59995l-19.54835,41.7965c-0.43331,0.86658 -1.11658,1.29989 -2.04981,1.29989z" fill="#ff0000" stroke="#41a100" stroke-width="17.5" stroke-linecap="square"/><path d="M232.52554,203.34794c-0.63329,0 -1.18323,-0.21665 -1.64985,-0.64993c-0.46662,-0.43331 -0.69994,-0.99992 -0.69994,-1.69986c0,-0.19998 0.03334,-0.41664 0.09999,-0.64993c0.09999,-0.23332 0.23332,-0.49996 0.39997,-0.79993l17.74853,-38.24678h-20.49828c-0.69994,0 -1.28322,-0.21665 -1.74984,-0.64993c-0.43331,-0.46662 -0.64993,-1.01659 -0.64993,-1.64985c0,-0.63329 0.21665,-1.18323 0.64996,-1.64985c0.46662,-0.46662 1.04993,-0.69994 1.74987,-0.69994h24.29796c0.63329,0 1.16656,0.23332 1.59987,0.69994c0.43331,0.46662 0.64996,1.01659 0.64996,1.64988c0,0.19998 -0.04998,0.41664 -0.14997,0.64996c-0.06665,0.19998 -0.13333,0.39997 -0.19998,0.59995l-19.54835,41.7965c-0.43331,0.86658 -1.11658,1.29989 -2.04981,1.29989z" fill="#ff0000" stroke="#00d808" stroke-width="5" stroke-linecap="square"/><path d="M90.5,307.5v-255h299v255z" fill="none" stroke="#ffffff" stroke-width="0" stroke-linecap="butt"/></g></g></svg>