<svg version="1.1" xmlns="http://www.w3.org/2000/svg" xmlns:xlink="http://www.w3.org/1999/xlink" width="322" height="257" viewBox="0,0,322,257"><g transform="translate(-79,-51.5)"><g data-paper-data="{&quot;isPaintingLayer&quot;:true}" fill-rule="nonzero" stroke-linecap="butt" stroke-linejoin="miter" stroke-miterlimit="10" stroke-dasharray="" stroke-dashoffset="0" style="mix-blend-mode: normal"><g fill="#ffffff" stroke="#ffffff" stroke-width="4.5"><path d="M196.017,197.97718c-6.57839,0 -11.92333,-5.34494 -11.92333,-11.92333v-12.33449c0,-6.57839 5.34494,-11.92333 11.92333,-11.92333h92.71422c6.57839,0 11.92333,5.34494 11.92333,11.92333v12.33449c0,6.57839 -5.34494,11.92333 -11.92333,11.92333z"/><path d="M288.834,162.82389h-92.81701c-5.96167,0 -10.89547,4.9338 -10.89547,10.89547v10.27874v2.05574c0,5.96167 4.9338,10.89547 10.89547,10.89547h92.81701c5.96167,0 10.89547,-4.9338 10.89547,-10.89547v-2.05574v-10.27874c0,-5.96167 -4.9338,-10.89547 -10.89547,-10.89547M288.834,160.76815c7.09233,0 12.95121,5.75609 12.84842,12.95121v10.27874v2.05574c0,7.09233 -5.75609,12.95121 -12.95121,12.95121h-92.71422c-7.09233,0 -12.95121,-5.75609 -12.95121,-12.95121v-2.05574v-10.27874c0,-7.09233 5.75609,-12.95121 12.95121,-12.95121z"/></g><g stroke-width="5"><path d="M191.26745,198.20399c-6.57839,0 -11.92333,-5.34494 -11.92333,-11.92333v-12.33449c0,-6.57839 5.34494,-11.92333 11.92333,-11.92333h92.71422c6.57839,0 11.92333,5.34494 11.92333,11.92333v12.33449c0,6.57839 -5.34494,11.92333 -11.92333,11.92333z" fill="#ffffff" stroke="#000000"/><path d="M284.08446,163.05069h-92.81701c-5.96167,0 -10.89547,4.9338 -10.89547,10.89547v10.27874v2.05574c0,5.96167 4.9338,10.89547 10.89547,10.89547h92.81701c5.96167,0 10.89547,-4.9338 10.89547,-10.89547v-2.05574v-10.27874c0,-5.96167 -4.9338,-10.89547 -10.89547,-10.89547M284.08446,160.99495c7.09233,0 12.95121,5.75609 12.84842,12.95121v10.27874v2.05574c0,7.09233 -5.75609,12.95121 -12.95121,12.95121h-92.71422c-7.09233,0 -12.95121,-5.75609 -12.95121,-12.95121v-2.05574v-10.27874c0,-7.09233 5.75609,-12.95121 12.95121,-12.95121z" fill="#41a100" stroke="#41a100"/><path d="M284.12692,163.03509c5.96167,0 10.89798,4.94456 10.89798,10.90623l0.00014,10.28681l-0.00014,2.05734c0,5.96167 -4.93631,10.90623 -10.89798,10.90623h-92.90192c-5.96167,0 -10.89798,-4.94456 -10.89798,-10.90623l-0.00014,-2.05734l0.00014,-10.28681c0,-5.96167 4.93631,-10.90623 10.89798,-10.90623h92.90192" data-paper-data="{&quot;noHover&quot;:false,&quot;origItem&quot;:[&quot;Path&quot;,{&quot;applyMatrix&quot;:true,&quot;segments&quot;:[[291.35493,161.13929],[[188.75722,161.13929],[0,0],[-6.58989,0]],[[176.71363,173.18288],[0,-6.58989],[0,0]],[176.71363,184.54475],[[176.71363,186.81712],[0,0],[0,6.58989]],[[188.75722,198.86071],[-6.58989,0],[0,0]],[[291.35493,198.86071],[0,0],[6.58989,0]],[[303.39852,186.81712],[0,6.58989],[0,0]],[303.39852,184.54475],[[303.39852,173.18288],[0,0],[0,-6.58989]],[[291.35493,161.13929],[6.58989,0],[0,0]]],&quot;fillColor&quot;:[0,0,0,1]}]}" fill="#00d808" stroke="none"/></g><path d="M79,308.5v-257h322v257z" fill="none" stroke="#ffffff" stroke-width="0"/><text transform="translate(211.89462,185.60432) scale(0.48575,0.48575)" font-size="40" xml:space="preserve" fill="#41a100" fill-rule="nonzero" stroke="#41a100" stroke-width="2" stroke-linecap="butt" stroke-linejoin="miter" stroke-miterlimit="10" stroke-dasharray="" stroke-dashoffset="0" font-family="Sans Serif" font-weight="normal" text-anchor="start" style="mix-blend-mode: normal"><tspan x="0" dy="0">START</tspan></text></g></g></svg>