<svg version="1.1" xmlns="http://www.w3.org/2000/svg" xmlns:xlink="http://www.w3.org/1999/xlink" width="69.02737" height="40.20867" viewBox="0,0,69.02737,40.20867"><g transform="translate(-205.48632,-159.89566)"><g data-paper-data="{&quot;isPaintingLayer&quot;:true}" fill="#ffffff" fill-rule="nonzero" stroke="none" stroke-width="0" stroke-linecap="butt" stroke-linejoin="miter" stroke-miterlimit="10" stroke-dasharray="" stroke-dashoffset="0" style="mix-blend-mode: normal"><path d="M238.86513,159.89566c6.76331,0 12.24605,4.46594 12.24605,9.97496c0,5.50902 -5.48274,9.97496 -12.24605,9.97496c-6.76331,0 -12.24605,-4.46595 -12.24605,-9.97496c0,-5.50902 5.48274,-9.97496 12.24605,-9.97496z" data-paper-data="{&quot;index&quot;:null}"/><path d="M239.68549,178.77936c0,6.93547 -6.85841,12.55777 -15.31869,12.55777c-8.46028,0 -15.31869,-5.6223 -15.31869,-12.55777c0,-6.93547 6.85841,-12.55777 15.31869,-12.55777c8.46028,0 15.31869,5.6223 15.31869,12.55777z" data-paper-data="{&quot;index&quot;:null}"/><path d="M226.24197,183.63325c0,-8.98522 10.80599,-16.2692 24.13585,-16.2692c13.32987,0 24.13585,7.28397 24.13585,16.2692c0,8.98522 -10.80599,16.2692 -24.13585,16.2692c-13.32987,0 -24.13585,-7.28397 -24.13585,-16.2692z" data-paper-data="{&quot;index&quot;:null}"/><path d="M223.90207,175.48435c10.17073,0 18.41575,5.51137 18.41575,12.30999c0,6.79862 -8.24501,12.30999 -18.41575,12.30999c-10.17073,0 -18.41575,-5.51137 -18.41575,-12.30999c0,-6.79862 8.24501,-12.30999 18.41575,-12.30999z" data-paper-data="{&quot;index&quot;:null}"/><path d="M222.27828,199.81683v-7.28752h30.23334v7.28752z" data-paper-data="{&quot;index&quot;:null}"/></g></g></svg>