<svg version="1.1" xmlns="http://www.w3.org/2000/svg" xmlns:xlink="http://www.w3.org/1999/xlink" width="63.47222" height="34.56258" viewBox="0,0,63.47222,34.56258"><g transform="translate(-208.26389,-162.71871)"><g data-paper-data="{&quot;isPaintingLayer&quot;:true}" fill="#ffffff" fill-rule="nonzero" stroke="none" stroke-width="0" stroke-linecap="butt" stroke-linejoin="miter" stroke-miterlimit="10" stroke-dasharray="" stroke-dashoffset="0" style="mix-blend-mode: normal"><path d="M246.39777,171.6874c0,4.95327 -4.92964,8.96869 -11.01067,8.96869c-6.08103,0 -11.01067,-4.01542 -11.01067,-8.96869c0,-4.95327 4.92964,-8.96869 11.01067,-8.96869c6.08103,0 11.01067,4.01542 11.01067,8.96869z"/><path d="M253.35197,166.99816c7.60681,0 13.77335,5.05513 13.77335,11.29094c0,6.23582 -6.16654,11.29094 -13.77335,11.29094c-7.60681,0 -13.77335,-5.05513 -13.77335,-11.29094c0,-6.23582 6.16654,-11.29094 13.77335,-11.29094z"/><path d="M229.96492,197.28129c-11.98515,0 -21.70103,-6.54916 -21.70103,-14.62796c0,-8.0788 9.71588,-14.62796 21.70103,-14.62796c11.98515,0 21.70103,6.54916 21.70103,14.62796c0,8.0788 -9.71588,14.62796 -21.70103,14.62796z"/><path d="M271.73611,186.15993c0,6.11278 -7.41325,11.06816 -16.55797,11.06816c-9.14471,0 -16.55797,-4.95538 -16.55797,-11.06816c0,-6.11278 7.41325,-11.06816 16.55797,-11.06816c9.14471,0 16.55797,4.95538 16.55797,11.06816z"/><path d="M228.04638,197.20432v-6.55235h27.18341v6.55235z"/></g></g></svg>