<svg version="1.1" xmlns="http://www.w3.org/2000/svg" xmlns:xlink="http://www.w3.org/1999/xlink" width="218" height="51.75" viewBox="0,0,218,51.75"><g transform="translate(-131.6625,-151.63333)"><g data-paper-data="{&quot;isPaintingLayer&quot;:true}" fill-rule="nonzero" stroke-linecap="butt" stroke-linejoin="miter" stroke-miterlimit="10" stroke-dasharray="" stroke-dashoffset="0" style="mix-blend-mode: normal"><path d="M339.25,183.025c0,4.9 -1.73333,9.08333 -5.2,12.55c-3.46667,3.46667 -7.65,5.2 -12.55,5.2h-174.8c0,-3.93333 -1.98333,-5.9 -5.95,-5.9v-14.9c0,-5.73333 2.01667,-10.63333 6.05,-14.7c4.06667,-4.03333 8.96667,-6.05 14.7,-6.05h160c0,4.9 1.73333,9.1 5.2,12.6c3.5,3.46667 7.68333,5.2 12.55,5.2z" fill="#3c77a6" stroke="none" stroke-width="1"/><path d="M195.2,180.025c0.06667,1.2 0.11667,2.41667 0.15,3.65h-9.85c0.26667,1.56667 1.21667,2.5 2.85,2.8c1.73333,0.26667 3.16667,-0.26667 4.3,-1.6l2.25,2.65c-0.8,1.2 -1.93333,2.05 -3.4,2.55c-0.86667,0.3 -1.81667,0.38333 -2.85,0.25c-4.16667,0 -6.78333,-2.06667 -7.85,-6.2c-0.26667,-1.1 -0.33333,-2.16667 -0.2,-3.2c0.43333,-3.93333 2.56667,-6.25 6.4,-6.95c3.03333,-0.5 5.45,0.58333 7.25,3.25c0.6,0.86667 0.91667,1.8 0.95,2.8M185.95,179.325c-0.16667,0.4 -0.31667,0.81667 -0.45,1.25h5c0.13333,-1.06667 -0.18333,-1.86667 -0.95,-2.4c-0.13333,-0.13333 -0.26667,-0.23333 -0.4,-0.3c-0.36667,-0.06667 -0.71667,-0.13333 -1.05,-0.2c-1,0.1 -1.71667,0.65 -2.15,1.65M163.1,172.075c2.33333,-3.13333 5.56667,-4.28333 9.7,-3.45c3.5,0.7 5.41667,2.83333 5.75,6.4h-5.1c-0.26667,-2.06667 -1.46667,-2.96667 -3.6,-2.7c-0.73333,0.03333 -1.36667,0.35 -1.9,0.95l-0.4,0.75c0.16667,1.6 1.13333,2.6 2.9,3c3.8,0.63333 6.35,2.56667 7.65,5.8c0.56667,1.46667 0.41667,2.95 -0.45,4.45c-0.8,1.36667 -2.03333,2.25 -3.7,2.65c-3.1,0.83333 -6.05,0.45 -8.85,-1.15c-2.13333,-1.23333 -3.25,-3.11667 -3.35,-5.65h5.15c0.46667,3 2.26667,3.98333 5.4,2.95c0.26667,-0.1 0.5,-0.25 0.7,-0.45c0.1,-0.1 0.18333,-0.21667 0.25,-0.35l0.15,-0.9c-0.43333,-1.76667 -1.63333,-2.8 -3.6,-3.1c-4.1,-0.76667 -6.5,-3.08333 -7.2,-6.95c-0.16667,-0.8 0,-1.55 0.5,-2.25M203.1,174.175h2.6v3.45h-2.6l0.2,8.3l2.6,0.45v3.5c-1.66667,0.56667 -3.31667,0.61667 -4.95,0.15c-1.6,-0.53333 -2.45,-1.66667 -2.55,-3.4c-0.13333,-3 -0.21667,-6 -0.25,-9h-2v-3.45h2v-3.95h4.95v3.95M220.05,167.525v7.9c2.26667,-1.96667 4.65,-2 7.15,-0.1c1.13333,0.83333 1.86667,1.91667 2.2,3.25c0.33333,1.26667 0.46667,2.48333 0.4,3.65c0.23333,3.06667 -0.8,5.45 -3.1,7.15c-1.16667,0.83333 -2.55,1.11667 -4.15,0.85c-1.13333,-0.26667 -2.06667,-0.88333 -2.8,-1.85l-0.2,1.65h-4.45v-22.5h4.95M220.05,185.225c0.9,1.26667 2.13333,1.5 3.7,0.7c0.6,-0.36667 0.93333,-0.88333 1,-1.55c0.1,-0.83333 0.13333,-1.65 0.1,-2.45c0.36667,-2.3 -0.48333,-3.63333 -2.55,-4c-1,-0.2 -1.75,0.15 -2.25,1.05v6.25M235.8,174.175l2.5,8.95l2.65,-8.95h5.3c-2.26667,6.4 -4.53333,12.8 -6.8,19.2c-0.06667,0.23333 -0.16667,0.46667 -0.3,0.7c-1.6,2.26667 -3.78333,2.95 -6.55,2.05v-3.5c0.2,0 0.41667,0 0.65,0c0.16667,0 0.35,0 0.55,0c0.13333,-0.03333 0.26667,-0.05 0.4,-0.05c1.06667,-0.4 1.68333,-1.2 1.85,-2.4l-5.5,-16h5.25M269.25,174.175c-2.26667,6.4 -4.51667,12.8 -6.75,19.2c-0.1,0.23333 -0.23333,0.46667 -0.4,0.7c-1.53333,2.26667 -3.7,2.95 -6.5,2.05v-3.5c0.2,0 0.41667,0 0.65,0c0.16667,0 0.35,0 0.55,0c0.13333,-0.03333 0.26667,-0.05 0.4,-0.05c1.1,-0.4 1.71667,-1.2 1.85,-2.4l-5.5,-16h5.25l2.5,8.95l2.65,-8.95h5.3M307.15,185.275c0.76667,0 1.41667,0.23333 1.95,0.7c0.53333,0.5 0.8,1.1 0.8,1.8c0,0.7 -0.26667,1.28333 -0.8,1.75c-0.53333,0.5 -1.18333,0.75 -1.95,0.75c-0.76667,0 -1.41667,-0.25 -1.95,-0.75c-0.53333,-0.46667 -0.8,-1.05 -0.8,-1.75c0,-0.7 0.26667,-1.3 0.8,-1.8c0.53333,-0.46667 1.18333,-0.7 1.95,-0.7M285.2,182.075c0,2.26667 -0.75,4.2 -2.25,5.8c-1.5,1.63333 -3.3,2.45 -5.4,2.45c-2.1,0 -3.9,-0.81667 -5.4,-2.45c-1.5,-1.6 -2.25,-3.53333 -2.25,-5.8c0,-2.26667 0.75,-4.21667 2.25,-5.85c1.5,-1.6 3.3,-2.4 5.4,-2.4c2.1,0 3.9,0.8 5.4,2.4c1.5,1.63333 2.25,3.58333 2.25,5.85M279.45,178.925c-0.53333,-0.86667 -1.16667,-1.3 -1.9,-1.3c-0.73333,0 -1.36667,0.43333 -1.9,1.3c-0.53333,0.86667 -0.8,1.91667 -0.8,3.15c0,1.23333 0.26667,2.28333 0.8,3.15c0.53333,0.86667 1.16667,1.3 1.9,1.3c0.73333,0 1.36667,-0.43333 1.9,-1.3c0.53333,-0.86667 0.8,-1.91667 0.8,-3.15c0,-1.23333 -0.26667,-2.28333 -0.8,-3.15M292.25,174.175c-0.16667,3.63333 0.01667,7.36667 0.55,11.2c0.06667,0.36667 0.3,0.63333 0.7,0.8c1.36667,0.53333 2.41667,0.23333 3.15,-0.9v-11.1h4.95v15.85h-4.65l-0.1,-1.7c-1.8,2 -3.95,2.5 -6.45,1.5c-1.83333,-0.7 -2.78333,-2.03333 -2.85,-4c-0.13333,-3.9 -0.21667,-7.78333 -0.25,-11.65h4.95M309.2,183.275h-4l-0.65,-14.6h5.25z" fill="#ffffff" stroke="none" stroke-width="1"/><path d="M131.6625,203.38333v-51.75h218v51.75z" fill="none" stroke="#000000" stroke-width="0"/></g></g></svg>