<svg version="1.1" xmlns="http://www.w3.org/2000/svg" xmlns:xlink="http://www.w3.org/1999/xlink" width="299" height="255" viewBox="0,0,299,255"><g transform="translate(-90.5,-52.5)"><g data-paper-data="{&quot;isPaintingLayer&quot;:true}" fill-rule="nonzero" stroke-linejoin="miter" stroke-miterlimit="10" stroke-dasharray="" stroke-dashoffset="0" style="mix-blend-mode: normal"><path d="M247.04998,203.49876c-2.66643,0 -5.06623,-0.61662 -7.1994,-1.84983c-2.09982,-1.26655 -3.76634,-2.96641 -4.99958,-5.09957c-1.1999,-2.16647 -1.79985,-4.61629 -1.79985,-7.34937c0,-2.59978 0.59995,-4.9329 1.79985,-6.99935c1.23324,-2.09982 2.89976,-3.73303 4.99958,-4.89959c2.13317,-1.1999 4.53296,-1.79985 7.1994,-1.79985c2.66643,0 5.04959,0.59995 7.14942,1.79985c2.09982,1.16656 3.7497,2.79977 4.9496,4.89959c1.1999,2.06645 1.79985,4.39957 1.79985,6.99935c-0.03334,2.73312 -0.6666,5.18289 -1.89984,7.3494c-1.1999,2.13317 -2.84975,3.83302 -4.94957,5.09957c-2.09982,1.23324 -4.44961,1.84986 -7.04939,1.84986zM247.04998,179.20086c-2.19982,0 -4.18298,-0.49996 -5.94949,-1.49987c-1.7332,-0.99992 -3.09974,-2.34979 -4.09966,-4.04964c-0.99992,-1.7332 -1.49987,-3.68302 -1.49987,-5.84949c0,-2.13317 0.49996,-4.04964 1.49987,-5.7495c0.99992,-1.69986 2.36646,-3.04973 4.09966,-4.04964c1.76651,-0.99992 3.7497,-1.49987 5.94952,-1.49987c2.16647,-0.03334 4.11633,0.43331 5.84953,1.39988c1.76651,0.96658 3.14975,2.31648 4.14967,4.04968c0.99992,1.7332 1.4832,3.68302 1.44989,5.84953c0,2.16647 -0.51663,4.11633 -1.54985,5.84953c-0.99992,1.69986 -2.36646,3.04976 -4.09966,4.04968c-1.7332,0.99992 -3.66635,1.49987 -5.79951,1.49987z" fill="#41a100" stroke="#ffffff" stroke-width="17.5" stroke-linecap="square"/><path d="M240.04998,203.49876c-2.66643,0 -5.06623,-0.61662 -7.1994,-1.84983c-2.09982,-1.26655 -3.76634,-2.96641 -4.99958,-5.09957c-1.1999,-2.16647 -1.79985,-4.61629 -1.79985,-7.34937c0,-2.59978 0.59995,-4.9329 1.79985,-6.99935c1.23324,-2.09982 2.89976,-3.73303 4.99958,-4.89959c2.13317,-1.1999 4.53296,-1.79985 7.1994,-1.79985c2.66643,0 5.04959,0.59995 7.14942,1.79985c2.09982,1.16656 3.7497,2.79977 4.9496,4.89959c1.1999,2.06645 1.79985,4.39957 1.79985,6.99935c-0.03334,2.73312 -0.6666,5.18289 -1.89984,7.3494c-1.1999,2.13317 -2.84975,3.83302 -4.94957,5.09957c-2.09982,1.23324 -4.44961,1.84986 -7.04939,1.84986zM240.04998,179.20086c-2.19982,0 -4.18298,-0.49996 -5.94949,-1.49987c-1.7332,-0.99992 -3.09974,-2.34979 -4.09966,-4.04964c-0.99992,-1.7332 -1.49987,-3.68302 -1.49987,-5.84949c0,-2.13317 0.49996,-4.04964 1.49987,-5.7495c0.99992,-1.69986 2.36646,-3.04973 4.09966,-4.04964c1.76651,-0.99992 3.7497,-1.49987 5.94952,-1.49987c2.16647,-0.03334 4.11633,0.43331 5.84953,1.39988c1.76651,0.96658 3.14975,2.31648 4.14967,4.04968c0.99992,1.7332 1.4832,3.68302 1.44989,5.84953c0,2.16647 -0.51663,4.11633 -1.54985,5.84953c-0.99992,1.69986 -2.36646,3.04976 -4.09966,4.04968c-1.7332,0.99992 -3.66635,1.49987 -5.79951,1.49987z" fill="#41a100" stroke="#41a100" stroke-width="17.5" stroke-linecap="square"/><path d="M240.04998,203.49876c-2.66643,0 -5.06623,-0.61662 -7.1994,-1.84983c-2.09982,-1.26655 -3.76634,-2.96641 -4.99958,-5.09957c-1.1999,-2.16647 -1.79985,-4.61629 -1.79985,-7.34937c0,-2.59978 0.59995,-4.9329 1.79985,-6.99935c1.23324,-2.09982 2.89976,-3.73303 4.99958,-4.89959c2.13317,-1.1999 4.53296,-1.79985 7.1994,-1.79985c2.66643,0 5.04959,0.59995 7.14942,1.79985c2.09982,1.16656 3.7497,2.79977 4.9496,4.89959c1.1999,2.06645 1.79985,4.39957 1.79985,6.99935c-0.03334,2.73312 -0.6666,5.18289 -1.89984,7.3494c-1.1999,2.13317 -2.84975,3.83302 -4.94957,5.09957c-2.09982,1.23324 -4.44961,1.84986 -7.04939,1.84986zM240.04998,199.29911c1.7332,0 3.29972,-0.44995 4.69961,-1.34987c1.39988,-0.89992 2.49979,-2.09982 3.29972,-3.5997c0.83327,-1.49987 1.24991,-3.2164 1.24991,-5.14955c0,-1.83319 -0.39997,-3.46637 -1.1999,-4.89959c-0.79993,-1.4665 -1.89984,-2.61639 -3.29972,-3.44966c-1.39988,-0.83327 -2.98308,-1.24988 -4.74959,-1.24988c-1.79985,0 -3.39972,0.41664 -4.7996,1.24991c-1.39988,0.83327 -2.51646,1.98316 -3.3497,3.44966c-0.79993,1.43322 -1.1999,3.0664 -1.1999,4.89959c0,1.93318 0.39997,3.64971 1.1999,5.14958c0.79993,1.49987 1.89984,2.69977 3.29972,3.5997c1.43322,0.89992 3.04976,1.3499 4.84961,1.3499zM240.04998,179.20086c-2.19982,0 -4.18298,-0.49996 -5.94949,-1.49987c-1.7332,-0.99992 -3.09974,-2.34979 -4.09966,-4.04964c-0.99992,-1.7332 -1.49987,-3.68302 -1.49987,-5.84949c0,-2.13317 0.49996,-4.04964 1.49987,-5.7495c0.99992,-1.69986 2.36646,-3.04973 4.09966,-4.04964c1.76651,-0.99992 3.7497,-1.49987 5.94952,-1.49987c2.16647,-0.03334 4.11633,0.43331 5.84953,1.39988c1.76651,0.96658 3.14975,2.31648 4.14967,4.04968c0.99992,1.7332 1.4832,3.68302 1.44989,5.84953c0,2.16647 -0.51663,4.11633 -1.54985,5.84953c-0.99992,1.69986 -2.36646,3.04976 -4.09966,4.04968c-1.7332,0.99992 -3.66635,1.49987 -5.79951,1.49987zM240.04998,175.20119c1.29989,0 2.46645,-0.33332 3.49971,-0.99992c1.06657,-0.6666 1.91651,-1.56652 2.5498,-2.69977c0.6666,-1.13325 0.99992,-2.38313 0.99992,-3.74967c0.03334,-1.36654 -0.26663,-2.56644 -0.89992,-3.5997c-0.59995,-1.06657 -1.44986,-1.89984 -2.54977,-2.49979c-1.06657,-0.59995 -2.26647,-0.89992 -3.5997,-0.89992c-2.03317,0 -3.71636,0.6666 -5.04956,1.99983c-1.33323,1.33323 -2.0165,2.99975 -2.04981,4.99958c-0.06665,2.09982 0.58328,3.86633 1.94985,5.29956c1.36654,1.43322 3.08307,2.14984 5.14958,2.14984z" fill="#ff0000" stroke="#00d808" stroke-width="5" stroke-linecap="square"/><path d="M90.5,307.5v-255h299v255z" fill="none" stroke="#ffffff" stroke-width="0" stroke-linecap="butt"/></g></g></svg>