<svg version="1.1" xmlns="http://www.w3.org/2000/svg" xmlns:xlink="http://www.w3.org/1999/xlink" width="299" height="255" viewBox="0,0,299,255"><g transform="translate(-90.5,-52.5)"><g data-paper-data="{&quot;isPaintingLayer&quot;:true}" fill-rule="nonzero" stroke-linejoin="miter" stroke-miterlimit="10" stroke-dasharray="" stroke-dashoffset="0" style="mix-blend-mode: normal"><path d="M239.35062,201.40658c-2.09982,-1.8665 -3.69969,-5.36629 -4.7996,-8.83266c-1.06657,-3.49971 -1.4332,-8.19935 -1.4332,-13.09894c0,-4.83294 0.19997,-8.16592 1.26654,-11.66562c1.09991,-3.49971 2.69977,-6.51614 4.7996,-8.38264c2.13317,-1.8665 4.66627,-2.79977 7.59936,-2.79977c3.03309,0 5.58286,0.94994 7.64938,2.84978c2.09982,1.89984 3.69969,4.59961 4.7996,8.09932c1.09991,3.49971 1.64988,7.6327 1.64988,12.39896c0,4.86625 -0.54994,9.04926 -1.64985,12.54896c-1.09991,3.46637 -2.86644,6.1495 -4.96627,8.04934c-2.06648,1.8665 -4.44962,2.79977 -7.48267,2.79977c0,0 -5.2996,-0.1 -7.43277,-1.9665zM246.94999,197.8901c2.16647,0 3.76634,0.0334 5.13289,-1.56647c1.39988,-1.63321 2.43314,-3.84966 3.09974,-6.64943c0.69994,-2.83311 -2.45007,-6.06615 -2.45007,-9.69919c0,-3.5997 3.15005,-6.79943 2.4501,-9.5992c-0.69994,-2.79977 -1.74984,-5.01625 -3.14972,-6.64943c-1.36654,-1.63321 -3.11641,-2.44978 -5.24954,-2.44978c-2.09982,0 -4.16635,0.64993 -5.53289,2.28314c-1.36654,1.59987 -2.56647,3.98302 -3.26641,6.81613c-0.69994,2.79977 -0.88323,6.16616 -0.88323,9.76586c0,3.66635 0.68332,6.73276 1.38326,9.53253c0.69994,2.79977 1.7332,5.01625 3.09974,6.64946c1.36654,1.59987 3.09974,2.3998 5.19956,2.3998z" fill="#ff0000" stroke="#ffffff" stroke-width="17.5" stroke-linecap="square"/><path d="M232.35062,201.40659c-2.09982,-1.8665 -3.69969,-5.36629 -4.7996,-8.83266c-1.06657,-3.49971 -1.4332,-8.19935 -1.4332,-13.09894c0,-4.83294 0.19997,-8.16592 1.26654,-11.66562c1.09991,-3.49971 2.69977,-6.51614 4.7996,-8.38264c2.13317,-1.8665 4.66627,-2.79977 7.59936,-2.79977c3.03309,0 5.58286,0.94994 7.64938,2.84978c2.09982,1.89984 3.69969,4.59961 4.7996,8.09932c1.09991,3.49971 1.64988,7.6327 1.64988,12.39896c0,4.86625 -0.54994,9.04926 -1.64985,12.54896c-1.09991,3.46637 -2.86644,6.1495 -4.96627,8.04934c-2.06648,1.8665 -4.44962,2.79977 -7.48267,2.79977c0,0 -5.2996,-0.1 -7.43277,-1.9665zM239.94999,197.89011c2.16647,0 3.76634,0.0334 5.13289,-1.56647c1.39988,-1.63321 2.43314,-3.84966 3.09974,-6.64943c0.69994,-2.83311 -2.45007,-6.06615 -2.45007,-9.69919c0,-3.5997 3.15005,-6.79943 2.4501,-9.5992c-0.69994,-2.79977 -1.74984,-5.01625 -3.14972,-6.64943c-1.36654,-1.63321 -3.11641,-2.44978 -5.24954,-2.44978c-2.09982,0 -4.16635,0.64993 -5.53289,2.28314c-1.36654,1.59987 -2.56647,3.98302 -3.26641,6.81613c-0.69994,2.79977 -0.88323,6.16616 -0.88323,9.76586c0,3.66635 0.68332,6.73276 1.38326,9.53253c0.69994,2.79977 1.7332,5.01625 3.09974,6.64946c1.36654,1.59987 3.09974,2.3998 5.19956,2.3998z" fill="#ff0000" stroke="#41a100" stroke-width="17.5" stroke-linecap="square"/><path d="M239.94999,203.37302c-2.9331,0 -5.4662,-0.93327 -7.59936,-2.79977c-2.09982,-1.8665 -3.69969,-4.53296 -4.7996,-7.99933c-1.06657,-3.49971 -1.59987,-7.69935 -1.59987,-12.59894c0,-4.83294 0.5333,-8.99925 1.59987,-12.49895c1.09991,-3.49971 2.69977,-6.18281 4.7996,-8.04931c2.13317,-1.8665 4.66627,-2.79977 7.59936,-2.79977c3.03309,0 5.58286,0.94994 7.64938,2.84978c2.09982,1.89984 3.69969,4.59961 4.7996,8.09932c1.09991,3.49971 1.64988,7.6327 1.64988,12.39896c0,4.86625 -0.54994,9.04926 -1.64985,12.54896c-1.09991,3.46637 -2.69977,6.1495 -4.7996,8.04934c-2.06648,1.8665 -4.61629,2.79977 -7.64934,2.79977zM239.94999,198.72343c2.16647,0 3.93301,-0.79993 5.29956,-2.3998c1.39988,-1.63321 2.43314,-3.84966 3.09974,-6.64943c0.69994,-2.83311 1.04993,-6.06615 1.04993,-9.69919c0,-3.5997 -0.34995,-6.79943 -1.0499,-9.5992c-0.69994,-2.79977 -1.74984,-5.01625 -3.14972,-6.64943c-1.36654,-1.63321 -3.11641,-2.44978 -5.24954,-2.44978c-2.09982,0 -3.83302,0.8166 -5.19956,2.44981c-1.36654,1.59987 -2.3998,3.81635 -3.09974,6.64946c-0.69994,2.79977 -1.0499,5.9995 -1.0499,9.5992c0,3.66635 0.34999,6.89942 1.04993,9.69919c0.69994,2.79977 1.7332,5.01625 3.09974,6.64946c1.36654,1.59987 3.09974,2.3998 5.19956,2.3998z" fill="#ff0000" stroke="#00d808" stroke-width="5" stroke-linecap="square"/><path d="M90.5,307.5v-255h299v255z" fill="none" stroke="#ffffff" stroke-width="0" stroke-linecap="butt"/></g></g></svg>