<svg version="1.1" xmlns="http://www.w3.org/2000/svg" xmlns:xlink="http://www.w3.org/1999/xlink" width="191.97672" height="84.59779" viewBox="0,0,191.97672,84.59779"><defs><linearGradient x1="141.19537" y1="192.82617" x2="330.19109" y2="192.82617" gradientUnits="userSpaceOnUse" id="color-1"><stop offset="0" stop-color="#ceff00"/><stop offset="0.31373" stop-color="#00ff1b"/><stop offset="0.66275" stop-color="#442a90"/><stop offset="1" stop-color="#ca1010"/></linearGradient></defs><g transform="translate(-142.13674,-136.29689)"><g data-paper-data="{&quot;isPaintingLayer&quot;:true}" fill-rule="nonzero" stroke="none" stroke-width="1" stroke-linecap="butt" stroke-linejoin="miter" stroke-miterlimit="10" stroke-dasharray="" stroke-dashoffset="0" style="mix-blend-mode: normal"><path d="M161.70155,146.05577l-8.06441,23.33029c-1.23424,3.42031 -3.3314,5.13047 -6.29149,5.13047c-0.65895,0 -1.38591,-0.11506 -2.18084,-0.34517v-3.53014l0.84724,0.04707c1.15057,0 2.02395,-0.20397 2.62015,-0.61189c0.56482,-0.43931 1.01981,-1.15056 1.36498,-2.13377l0.64327,-1.72584l-7.12304,-20.16101h4.9265l4.28324,13.744l4.12634,-13.744h4.84806M179.50913,148.31506c1.70493,1.76769 2.62537,4.10542 2.76135,7.0132l0.01569,1.06689c0,1.9978 -0.37655,3.7864 -1.12964,5.3658c-0.78447,1.56895 -1.88797,2.78228 -3.31048,3.63997c-1.43297,0.86815 -3.0856,1.30223 -4.95788,1.30223c-2.85548,0 -5.14092,-0.95183 -6.85631,-2.85548c-1.72584,-1.91412 -2.58877,-4.45583 -2.58877,-7.6251v-0.21965c0,-1.98734 0.39746,-3.77071 1.1924,-5.35012c0.78447,-1.61079 1.88274,-2.83457 3.2948,-3.67135c1.43297,-0.86815 3.07514,-1.30223 4.9265,-1.30223c2.72997,0 4.94742,0.87861 6.65235,2.63584M172.85678,149.31918c-1.49573,0 -2.67767,0.59621 -3.54582,1.78861c-0.87861,1.17148 -1.31792,2.93394 -1.31792,5.28736c0,2.08148 0.43408,3.71318 1.30223,4.89512c0.8577,1.18194 2.05532,1.77291 3.5929,1.77291c1.53758,0 2.7352,-0.60143 3.5929,-1.80429c0.8577,-1.1924 1.28653,-2.9444 1.28653,-5.25599c0,-2.05009 -0.44454,-3.67135 -1.33361,-4.86374c-0.87861,-1.21332 -2.07102,-1.81998 -3.57721,-1.81998M202.82373,146.05577v20.27083h-4.28324l-0.10982,-1.99257c-1.3493,1.57941 -3.24772,2.36911 -5.69528,2.36911c-2.19653,0 -3.85962,-0.6485 -4.98927,-1.9455c-1.12964,-1.27608 -1.69447,-3.13267 -1.69447,-5.56977v-13.13211h4.53427v13.06935c0,2.57308 1.07212,3.85961 3.21635,3.85961c2.20699,0 3.6975,-0.79494 4.47151,-2.3848v-14.54416h4.54996M229.79398,148.09541l0.20397,-2.03964h4.09495v19.64325c0,2.65676 -0.82631,4.75393 -2.47894,6.29149c-1.66308,1.54803 -3.90145,2.32205 -6.7151,2.32205c-1.47482,0 -2.92348,-0.31379 -4.34599,-0.94137c-1.41206,-0.61712 -2.48417,-1.42252 -3.21635,-2.41619l2.13378,-2.74567c1.41206,1.66308 3.1379,2.49464 5.17754,2.49464c1.51665,0 2.70905,-0.40793 3.57721,-1.22379c0.87861,-0.82631 1.31791,-2.02918 1.31791,-3.60859v-1.36498c-1.31792,1.46436 -3.06991,2.19653 -5.25598,2.19653c-2.37435,0 -4.30938,-0.9466 -5.80512,-2.8398c-1.50619,-1.88274 -2.25929,-4.49242 -2.25929,-7.82906c0,-3.14836 0.74263,-5.65868 2.2279,-7.53096c1.46436,-1.88274 3.42031,-2.82411 5.86787,-2.82411c2.31159,0 4.1368,0.8054 5.47564,2.41619M225.49505,149.41332c-1.50619,0 -2.66721,0.59097 -3.48306,1.77292c-0.84724,1.18194 -1.27085,2.92871 -1.27085,5.2403c0,2.03964 0.42361,3.6452 1.27085,4.81668c0.81585,1.16102 1.96641,1.74153 3.45169,1.74153c1.83044,0 3.1902,-0.7897 4.07927,-2.36911v-8.91164c-0.86815,-1.52712 -2.21746,-2.29066 -4.0479,-2.29066M253.9715,148.31506c1.69447,1.76769 2.60969,4.10542 2.74566,7.0132l0.01569,1.06689c0,1.9978 -0.37655,3.7864 -1.12964,5.3658c-0.77401,1.56895 -1.87751,2.78228 -3.31048,3.63997c-1.42252,0.86815 -3.07514,1.30223 -4.95788,1.30223c-2.85548,0 -5.14093,-0.95183 -6.85631,-2.85548c-1.71538,-1.91412 -2.57308,-4.45583 -2.57308,-7.6251v-0.21965c0,-1.98734 0.39224,-3.77071 1.17671,-5.35012c0.78447,-1.61079 1.88797,-2.83457 3.31049,-3.67135c1.42252,-0.86815 3.05945,-1.30223 4.91081,-1.30223c2.72997,0 4.95266,0.87861 6.66804,2.63584M247.30346,149.31918c-1.49573,0 -2.67767,0.59621 -3.54583,1.78861c-0.86815,1.17148 -1.30223,2.93394 -1.30223,5.28736c0,2.08148 0.42885,3.71318 1.28654,4.89512c0.8577,1.18194 2.05532,1.77291 3.59289,1.77291c1.54803,0 2.75089,-0.60143 3.60859,-1.80429c0.84724,-1.1924 1.27085,-2.9444 1.27085,-5.25599c0,-2.05009 -0.43931,-3.67135 -1.31792,-4.86374c-0.87861,-1.21332 -2.07624,-1.81998 -3.59289,-1.81998M258.42732,146.05577h3.32617v-4.91082h4.54996v4.91082h3.57721v3.37324h-3.57721v11.31213c0,0.77401 0.1569,1.33883 0.47069,1.69447c0.29287,0.33471 0.83155,0.50206 1.61602,0.50206c0.52299,0 1.05642,-0.06276 1.60032,-0.18827v3.51445c-1.03551,0.29287 -2.0344,0.43931 -2.99669,0.43931c-3.49353,0 -5.2403,-1.93504 -5.2403,-5.80512v-11.46903h-3.32617v-3.37324M292.15974,149.42901h-3.57721v11.31213c0,0.77401 0.1569,1.33883 0.47069,1.69447c0.29287,0.33471 0.83677,0.50206 1.63171,0.50206c0.52299,0 1.0512,-0.06276 1.58464,-0.18827v3.51445c-1.02504,0.29287 -2.02395,0.43931 -2.99669,0.43931c-3.49353,0 -5.2403,-1.93504 -5.2403,-5.80512v-11.46903h-3.32617v-3.37324h3.32617v-4.91082h4.54996v4.91082h3.57721v3.37324M304.19359,149.41332c-1.83044,0 -3.1902,0.81062 -4.07927,2.43187v14.48141h-4.54995v-28.77454h4.54995v10.71592c1.48528,-1.72584 3.36278,-2.58877 5.63253,-2.58877c4.31984,0 6.51114,2.46325 6.5739,7.38975v13.25763h-4.54995v-13.08505c0,-1.39113 -0.29811,-2.37435 -0.8943,-2.94963c-0.61712,-0.58575 -1.51143,-0.87861 -2.68291,-0.87861M331.74435,148.31506c1.49573,1.76769 2.2436,4.26232 2.2436,7.48389v1.83567h-13.24194c0.13597,1.67354 0.7008,2.99147 1.69447,3.95376c0.97274,0.98321 2.19653,1.47481 3.67134,1.47481c2.09193,0 3.79686,-0.84199 5.11478,-2.526l2.44756,2.33774c-0.81585,1.21332 -1.8932,2.1547 -3.23203,2.82411c-1.37022,0.66941 -2.89733,1.00413 -4.58133,1.00413c-2.88687,0 -5.21937,-0.91 -6.99752,-2.72997c-1.79906,-1.81998 -2.69859,-4.24139 -2.69859,-7.26423v-0.56482c0,-2.01871 0.39223,-3.81778 1.17671,-5.39719c0.77402,-1.61079 1.86705,-2.85549 3.27911,-3.7341c1.41206,-0.88907 2.98101,-1.33361 4.70685,-1.33361c2.76135,0 4.90035,0.87861 6.417,2.63584M320.82446,154.30845h8.6606v-0.34517c-0.09413,-1.52712 -0.49683,-2.67768 -1.20809,-3.4517c-0.71125,-0.79494 -1.6997,-1.1924 -2.96532,-1.1924c-1.2447,0 -2.24361,0.44454 -2.99669,1.33361c-0.78447,0.86815 -1.28131,2.0867 -1.4905,3.65565z" fill="#000000"/><path d="M151.40924,198.42732c3.39939,0 5.12524,1.93504 5.17754,5.80512v10.40213h-3.57721v-10.26093c0,-1.09826 -0.23534,-1.87228 -0.70602,-2.32205c-0.48114,-0.47069 -1.18194,-0.70603 -2.1024,-0.70603c-1.43297,0 -2.5051,0.63804 -3.21635,1.91411v11.37489h-3.57721v-22.59288h3.57721v8.40957c1.17148,-1.3493 2.6463,-2.02394 4.42444,-2.02394M171.4918,214.63457h-3.57721v-15.90915h3.57721v15.90915M171.20938,195.93269c-0.34517,0.35563 -0.842,0.53345 -1.4905,0.53345c-0.6485,0 -1.14534,-0.17782 -1.49051,-0.53345c-0.35563,-0.35563 -0.53344,-0.8054 -0.53344,-1.3493c0,-0.5439 0.17782,-0.99889 0.53344,-1.36498c0.34517,-0.36609 0.84201,-0.54914 1.49051,-0.54914c0.6485,0 1.14533,0.18304 1.4905,0.54914c0.35563,0.36609 0.53345,0.82108 0.53345,1.36498c0,0.5439 -0.17782,0.99367 -0.53345,1.3493M194.3514,219.09039c-1.30746,1.20286 -3.06468,1.80429 -5.27167,1.80429c-1.17148,0 -2.31159,-0.24057 -3.42031,-0.72172c-1.10872,-0.48114 -1.95596,-1.11396 -2.5417,-1.89843l1.69447,-2.14946c1.09826,1.297 2.45279,1.9455 4.06358,1.9455c1.18194,0 2.11809,-0.31902 2.80843,-0.95706c0.67988,-0.63804 1.01981,-1.57941 1.01981,-2.82411v-1.08257c-1.02505,1.15057 -2.39526,1.72584 -4.11065,1.72584c-1.86182,0 -3.3837,-0.74263 -4.56564,-2.2279c-1.18194,-1.47482 -1.77292,-3.52492 -1.77292,-6.15029c0,-2.46848 0.58051,-4.44013 1.74153,-5.91494c1.16102,-1.47482 2.70382,-2.21222 4.6284,-2.21222c1.80952,0 3.23727,0.6328 4.28324,1.89843l0.15689,-1.60032h3.21635v15.42278c0,2.09194 -0.64327,3.73934 -1.92981,4.94219M189.53473,201.34557c-1.18194,0 -2.09194,0.47069 -2.72997,1.41206c-0.65895,0.93091 -0.98845,2.30113 -0.98845,4.11065c0,1.60032 0.32948,2.86072 0.98845,3.78117c0.63804,0.91 1.53757,1.36498 2.69859,1.36498c1.44343,0 2.51032,-0.61712 3.20066,-1.85136v-6.99752c-0.66941,-1.21332 -1.72584,-1.81998 -3.16927,-1.81998M220.56856,214.63457h-3.57721v-10.26093c0,-1.09826 -0.23534,-1.87228 -0.70603,-2.32205c-0.48114,-0.47069 -1.18194,-0.70603 -2.1024,-0.70603c-1.43297,0 -2.50509,0.63804 -3.21634,1.91411v11.37489h-3.57721v-22.59288h3.57721v8.40957c1.17148,-1.3493 2.64629,-2.02394 4.42443,-2.02394c3.39939,0 5.12524,1.93504 5.17754,5.80512v10.40213M238.43889,205.31501c1.41206,0.30333 2.51555,0.66941 3.31049,1.09826c0.79494,0.41839 1.39114,0.92568 1.78861,1.52188c0.37655,0.60666 0.56482,1.33361 0.56482,2.18085c0,1.43297 -0.59097,2.594 -1.77292,3.48307c-1.18194,0.88907 -2.7352,1.3336 -4.65978,1.3336c-1.30746,0 -2.46848,-0.23534 -3.48307,-0.70602c-1.02505,-0.47069 -1.81998,-1.11919 -2.3848,-1.9455c-0.57528,-0.82631 -0.86292,-1.71538 -0.86292,-2.66721h3.48307c0.04183,0.84724 0.36086,1.50097 0.95706,1.96119c0.58575,0.44977 1.36498,0.67465 2.33774,0.67465c0.94137,0 1.65263,-0.17782 2.13377,-0.53345c0.4916,-0.35563 0.7374,-0.82631 0.7374,-1.41206c0,-0.63804 -0.25626,-1.11918 -0.76878,-1.44343c-0.53345,-0.33471 -1.40683,-0.63281 -2.62015,-0.8943c-1.21332,-0.25103 -2.22791,-0.57528 -3.04377,-0.97275c-1.7886,-0.8577 -2.68291,-2.10762 -2.68291,-3.74979c0,-1.37022 0.58051,-2.51555 1.74153,-3.436c1.15057,-0.92045 2.62015,-1.38068 4.40875,-1.38068c1.90366,0 3.44123,0.47069 4.61272,1.41206c1.17148,0.94137 1.75722,2.15992 1.75722,3.65565h-3.57721c0,-0.67988 -0.25627,-1.2447 -0.76879,-1.69447c-0.50206,-0.46023 -1.17671,-0.69034 -2.02395,-0.69034c-0.78447,0 -1.42252,0.17782 -1.91412,0.53344c-0.50206,0.36609 -0.7531,0.85246 -0.7531,1.45913c0,0.55436 0.23011,0.98321 0.69034,1.28654c0.46023,0.30333 1.39113,0.61189 2.79273,0.92568M265.9269,200.09041c1.18194,1.09826 1.80429,2.5417 1.86705,4.3303h-3.37324c-0.04183,-0.91 -0.3504,-1.65785 -0.92568,-2.2436c-0.58574,-0.58575 -1.33361,-0.87861 -2.2436,-0.87861c-1.15056,0 -2.03963,0.41839 -2.66721,1.25516c-0.62758,0.83677 -0.9466,2.10762 -0.95706,3.81255v0.58051c0,1.72584 0.31379,3.01238 0.94137,3.85961c0.61712,0.84724 1.51142,1.27085 2.6829,1.27085c0.89954,0 1.64218,-0.26149 2.22791,-0.78447c0.58574,-0.51252 0.89954,-1.15579 0.94137,-1.92981h3.37324c-0.04183,0.99367 -0.3504,1.92458 -0.92568,2.79273c-0.58574,0.84724 -1.37022,1.52187 -2.35343,2.02394c-0.99367,0.50206 -2.06579,0.7531 -3.21635,0.7531c-2.22791,0 -3.99036,-0.72171 -5.28736,-2.16515c-1.30746,-1.44343 -1.96119,-3.436 -1.96119,-5.9777v-0.36086c0,-2.42665 0.6485,-4.36168 1.9455,-5.80512c1.297,-1.46436 3.05945,-2.19653 5.28736,-2.19653c1.8932,0 3.44123,0.55436 4.64409,1.66308M289.93183,200.49833c1.33884,1.38068 2.06056,3.21635 2.16515,5.50701l0.01569,0.83155c0,1.56895 -0.29811,2.97055 -0.8943,4.20479c-0.60666,1.23424 -1.46958,2.1913 -2.58876,2.87118c-1.12964,0.67988 -2.42665,1.01982 -3.891,1.01982c-2.24883,0 -4.04789,-0.74787 -5.39719,-2.2436c-1.34929,-1.49573 -2.02395,-3.4883 -2.02395,-5.9777v-0.18827c0,-1.55849 0.30856,-2.96008 0.92568,-4.20479c0.61712,-1.25516 1.48528,-2.21222 2.60445,-2.87118c1.11919,-0.67988 2.40572,-1.01982 3.85962,-1.01982c2.14423,0 3.88577,0.69034 5.22461,2.07101M284.70723,201.2985c-1.17149,0 -2.09716,0.46545 -2.77704,1.39637c-0.69034,0.92045 -1.03551,2.30113 -1.03551,4.14203c0,1.64217 0.33994,2.92871 1.01982,3.85962c0.66942,0.92045 1.61079,1.38067 2.82411,1.38067c1.20286,0 2.14423,-0.47068 2.82411,-1.41205c0.65895,-0.94137 0.98844,-2.32205 0.98844,-4.14203c0,-1.60032 -0.33993,-2.87118 -1.01981,-3.81255c-0.7008,-0.94137 -1.64217,-1.41206 -2.82411,-1.41206M310.97145,201.98884c-0.47069,-0.08367 -0.95706,-0.12552 -1.45913,-0.12552c-1.64217,0 -2.74566,0.62758 -3.31048,1.88274v10.88851h-3.5772v-15.90915h3.42031l0.07845,1.77292c0.86815,-1.38068 2.06578,-2.07101 3.5929,-2.07101c0.51252,0 0.93615,0.06798 1.27085,0.20396l-0.01569,3.35756M327.31991,198.42732c2.16516,0 3.84393,0.69034 5.03633,2.07101c1.17149,1.38068 1.75722,3.33664 1.75722,5.86787v1.44343h-10.38644c0.1046,1.31792 0.5439,2.35865 1.31791,3.12221c0.76355,0.76355 1.73107,1.14533 2.90256,1.14533c1.63171,0 2.96532,-0.66419 4.00083,-1.99256l1.91411,1.85136c-0.63804,0.94137 -1.48527,1.67878 -2.54169,2.21222c-1.06689,0.52299 -2.26452,0.78448 -3.5929,0.78448c-2.25929,0 -4.08973,-0.71125 -5.49132,-2.13377c-1.41206,-1.43297 -2.11808,-3.33664 -2.11808,-5.71098v-0.43931c0,-1.58987 0.30856,-3.00716 0.92568,-4.25186c0.60666,-1.25516 1.46436,-2.23313 2.57308,-2.93393c1.10872,-0.69034 2.34296,-1.03551 3.70272,-1.03551M330.58333,204.92277c-0.07322,-1.1924 -0.39224,-2.09194 -0.95706,-2.6986c-0.55436,-0.61712 -1.32838,-0.92568 -2.32205,-0.92568c-0.97274,0 -1.76245,0.33994 -2.36911,1.01982c-0.60666,0.69034 -0.99367,1.64739 -1.16102,2.87118h6.80924z" fill="#000000"/><path d="M160.43069,144.8006l-8.0644,23.33029c-1.23424,3.42031 -3.3314,5.13046 -6.29148,5.13046c-0.65895,0 -1.38591,-0.11506 -2.18085,-0.34517v-3.53014l0.84724,0.04707c1.15057,0 2.02395,-0.20396 2.62015,-0.61189c0.56482,-0.43931 1.01982,-1.15057 1.36498,-2.13378l0.64326,-1.72584l-7.12303,-20.16101h4.9265l4.28324,13.74401l4.12634,-13.74401h4.84805M178.23828,147.0599c1.70493,1.76769 2.62538,4.10542 2.76136,7.0132l0.01568,1.06689c0,1.9978 -0.37655,3.7864 -1.12964,5.3658c-0.78447,1.56895 -1.88797,2.78227 -3.31048,3.63996c-1.43297,0.86815 -3.0856,1.30223 -4.95788,1.30223c-2.85548,0 -5.14092,-0.95183 -6.85631,-2.85549c-1.72584,-1.91412 -2.58877,-4.45582 -2.58877,-7.6251v-0.21965c0,-1.98734 0.39747,-3.77071 1.19241,-5.35012c0.78447,-1.61079 1.88274,-2.83457 3.29479,-3.67135c1.43297,-0.86815 3.07514,-1.30223 4.9265,-1.30223c2.72997,0 4.94742,0.87861 6.65235,2.63584M171.58593,148.06402c-1.49573,0 -2.67767,0.5962 -3.54582,1.7886c-0.87861,1.17148 -1.31792,2.93394 -1.31792,5.28736c0,2.08148 0.43408,3.71318 1.30223,4.89512c0.8577,1.18194 2.05532,1.77292 3.5929,1.77292c1.53758,0 2.7352,-0.60143 3.59289,-1.80429c0.8577,-1.1924 1.28654,-2.94439 1.28654,-5.25598c0,-2.05009 -0.44454,-3.67135 -1.33361,-4.86375c-0.87861,-1.21332 -2.07102,-1.81998 -3.57721,-1.81998M201.55288,144.8006v20.27084h-4.28323l-0.10983,-1.99256c-1.3493,1.57941 -3.24772,2.36911 -5.69528,2.36911c-2.19653,0 -3.85962,-0.6485 -4.98927,-1.9455c-1.12964,-1.27608 -1.69447,-3.13267 -1.69447,-5.56977v-13.13211h4.53427v13.06936c0,2.57308 1.07212,3.85962 3.21635,3.85962c2.20699,0 3.6975,-0.79494 4.47151,-2.3848v-14.54417h4.54995M228.52313,146.84025l0.20396,-2.03964h4.09496v19.64326c0,2.65676 -0.82632,4.75393 -2.47895,6.29149c-1.66308,1.54803 -3.90145,2.32205 -6.7151,2.32205c-1.47482,0 -2.92348,-0.31379 -4.34599,-0.94137c-1.41206,-0.61712 -2.48417,-1.42251 -3.21634,-2.41618l2.13377,-2.74567c1.41206,1.66308 3.1379,2.49463 5.17753,2.49463c1.51665,0 2.70906,-0.40793 3.57721,-1.22378c0.87861,-0.82631 1.31792,-2.02918 1.31792,-3.60859v-1.36498c-1.31792,1.46436 -3.06992,2.19653 -5.25599,2.19653c-2.37435,0 -4.30938,-0.9466 -5.80512,-2.8398c-1.50619,-1.88274 -2.25929,-4.49242 -2.25929,-7.82906c0,-3.14836 0.74263,-5.65868 2.2279,-7.53096c1.46436,-1.88274 3.42031,-2.82411 5.86787,-2.82411c2.31159,0 4.1368,0.8054 5.47564,2.41619M224.22421,148.15816c-1.50619,0 -2.66722,0.59097 -3.48307,1.77292c-0.84724,1.18194 -1.27085,2.92871 -1.27085,5.2403c0,2.03964 0.42361,3.64519 1.27085,4.81667c0.81585,1.16102 1.96641,1.74153 3.45169,1.74153c1.83044,0 3.1902,-0.7897 4.07927,-2.36911v-8.91163c-0.86815,-1.52712 -2.21745,-2.29066 -4.04789,-2.29066M252.70065,147.0599c1.69447,1.76769 2.60969,4.10542 2.74566,7.0132l0.01569,1.06689c0,1.9978 -0.37655,3.7864 -1.12964,5.3658c-0.77401,1.56895 -1.87751,2.78227 -3.31048,3.63996c-1.42252,0.86815 -3.07514,1.30223 -4.95788,1.30223c-2.85548,0 -5.14093,-0.95183 -6.85631,-2.85549c-1.71538,-1.91412 -2.57308,-4.45582 -2.57308,-7.6251v-0.21965c0,-1.98734 0.39224,-3.77071 1.17671,-5.35012c0.78447,-1.61079 1.88797,-2.83457 3.31049,-3.67135c1.42252,-0.86815 3.05945,-1.30223 4.91081,-1.30223c2.72997,0 4.95266,0.87861 6.66804,2.63584M246.03261,148.06402c-1.49573,0 -2.67767,0.5962 -3.54583,1.7886c-0.86815,1.17148 -1.30223,2.93394 -1.30223,5.28736c0,2.08148 0.42885,3.71318 1.28654,4.89512c0.8577,1.18194 2.05532,1.77292 3.59289,1.77292c1.54803,0 2.75089,-0.60143 3.60859,-1.80429c0.84724,-1.1924 1.27085,-2.94439 1.27085,-5.25598c0,-2.05009 -0.43931,-3.67135 -1.31792,-4.86375c-0.87861,-1.21332 -2.07624,-1.81998 -3.59289,-1.81998M257.15647,144.8006h3.32617v-4.91081h4.54996v4.91081h3.57721v3.37324h-3.57721v11.31213c0,0.77401 0.15689,1.33883 0.47068,1.69447c0.29287,0.33471 0.83155,0.50206 1.61602,0.50206c0.52299,0 1.05643,-0.06276 1.60033,-0.18827v3.51445c-1.03551,0.29287 -2.03441,0.4393 -2.99669,0.4393c-3.49353,0 -5.2403,-1.93504 -5.2403,-5.80512v-11.46902h-3.32617v-3.37324M290.88889,148.17385h-3.57721v11.31213c0,0.77401 0.1569,1.33883 0.47069,1.69447c0.29287,0.33471 0.83677,0.50206 1.63171,0.50206c0.52299,0 1.0512,-0.06276 1.58464,-0.18827v3.51445c-1.02504,0.29287 -2.02395,0.4393 -2.99669,0.4393c-3.49353,0 -5.2403,-1.93504 -5.2403,-5.80512v-11.46902h-3.32617v-3.37324h3.32617v-4.91082h4.54996v4.91082h3.57721v3.37324M302.92274,148.15816c-1.83044,0 -3.1902,0.81062 -4.07927,2.43187v14.4814h-4.54995v-28.77454h4.54995v10.71592c1.48528,-1.72584 3.36279,-2.58876 5.63254,-2.58876c4.31984,0 6.51114,2.46325 6.5739,7.38975v13.25763h-4.54995v-13.08505c0,-1.39113 -0.29811,-2.37435 -0.8943,-2.94963c-0.61712,-0.58575 -1.51142,-0.87861 -2.6829,-0.87861M330.4735,147.0599c1.49573,1.76769 2.2436,4.26232 2.2436,7.48389v1.83567h-13.24194c0.13597,1.67354 0.7008,2.99147 1.69447,3.95376c0.97274,0.98321 2.19653,1.47481 3.67135,1.47481c2.09193,0 3.79685,-0.84199 5.11478,-2.526l2.44756,2.33774c-0.81585,1.21332 -1.8932,2.1547 -3.23203,2.82411c-1.37022,0.66941 -2.89733,1.00413 -4.58133,1.00413c-2.88687,0 -5.21938,-0.91 -6.99752,-2.72997c-1.79906,-1.81998 -2.69859,-4.24139 -2.69859,-7.26424v-0.56482c0,-2.01871 0.39224,-3.81778 1.17672,-5.39719c0.77402,-1.61079 1.86705,-2.85549 3.2791,-3.7341c1.41206,-0.88907 2.98101,-1.33361 4.70685,-1.33361c2.76135,0 4.90036,0.87861 6.41701,2.63584M319.55361,153.05328h8.6606v-0.34516c-0.09413,-1.52712 -0.49683,-2.67768 -1.20809,-3.4517c-0.71125,-0.79494 -1.6997,-1.1924 -2.96532,-1.1924c-1.2447,0 -2.24361,0.44454 -2.99669,1.33361c-0.78447,0.86815 -1.2813,2.0867 -1.4905,3.65565z" fill="#ffffff"/><path d="M150.13839,197.17216c3.39939,0 5.12524,1.93504 5.17754,5.80512v10.40214h-3.57721v-10.26094c0,-1.09826 -0.23534,-1.87228 -0.70603,-2.32205c-0.48114,-0.47069 -1.18194,-0.70603 -2.10239,-0.70603c-1.43297,0 -2.5051,0.63804 -3.21635,1.91412v11.37489h-3.57721v-22.59288h3.57721v8.40957c1.17148,-1.3493 2.6463,-2.02395 4.42444,-2.02395M170.22095,213.37941h-3.57721v-15.90915h3.57721v15.90915M169.93854,194.67753c-0.34517,0.35563 -0.84201,0.53345 -1.49051,0.53345c-0.6485,0 -1.14533,-0.17782 -1.4905,-0.53345c-0.35563,-0.35563 -0.53345,-0.8054 -0.53345,-1.3493c0,-0.5439 0.17782,-0.99889 0.53345,-1.36498c0.34517,-0.36609 0.842,-0.54913 1.4905,-0.54913c0.6485,0 1.14534,0.18304 1.49051,0.54913c0.35563,0.36609 0.53345,0.82108 0.53345,1.36498c0,0.5439 -0.17782,0.99367 -0.53345,1.3493M193.08055,217.83523c-1.30746,1.20286 -3.06468,1.80429 -5.27167,1.80429c-1.17148,0 -2.31159,-0.24057 -3.42031,-0.72171c-1.10872,-0.48114 -1.95596,-1.11396 -2.5417,-1.89843l1.69447,-2.14946c1.09826,1.297 2.45279,1.9455 4.06358,1.9455c1.18194,0 2.11808,-0.31902 2.80842,-0.95706c0.67988,-0.63804 1.01982,-1.57941 1.01982,-2.82411v-1.08257c-1.02505,1.15057 -2.39526,1.72584 -4.11065,1.72584c-1.86182,0 -3.3837,-0.74263 -4.56564,-2.2279c-1.18194,-1.47482 -1.77292,-3.52491 -1.77292,-6.15028c0,-2.46848 0.58051,-4.44013 1.74153,-5.91494c1.16102,-1.47482 2.70382,-2.21221 4.6284,-2.21221c1.80952,0 3.23728,0.6328 4.28324,1.89843l0.15689,-1.60033h3.21635v15.42278c0,2.09194 -0.64327,3.73934 -1.92981,4.94219M188.26387,200.09041c-1.18194,0 -2.09194,0.47069 -2.72997,1.41206c-0.65895,0.93091 -0.98844,2.30113 -0.98844,4.11065c0,1.60032 0.32948,2.86071 0.98844,3.78116c0.63804,0.91 1.53757,1.36499 2.69859,1.36499c1.44343,0 2.51032,-0.61712 3.20066,-1.85137v-6.99751c-0.66941,-1.21332 -1.72584,-1.81998 -3.16927,-1.81998M219.2977,213.37941h-3.57721v-10.26094c0,-1.09826 -0.23534,-1.87228 -0.70603,-2.32205c-0.48114,-0.47069 -1.18194,-0.70603 -2.10239,-0.70603c-1.43297,0 -2.5051,0.63804 -3.21635,1.91412v11.37489h-3.57721v-22.59288h3.57721v8.40957c1.17148,-1.3493 2.64629,-2.02395 4.42444,-2.02395c3.39939,0 5.12523,1.93504 5.17753,5.80512v10.40214M237.16804,204.05985c1.41206,0.30333 2.51555,0.66941 3.31049,1.09826c0.79494,0.41839 1.39114,0.92569 1.78861,1.52188c0.37655,0.60666 0.56482,1.33361 0.56482,2.18085c0,1.43297 -0.59097,2.59399 -1.77292,3.48306c-1.18194,0.88907 -2.7352,1.33361 -4.65978,1.33361c-1.30746,0 -2.46848,-0.23534 -3.48307,-0.70602c-1.02505,-0.47069 -1.81999,-1.11919 -2.3848,-1.9455c-0.57528,-0.82631 -0.86292,-1.71538 -0.86292,-2.66721h3.48307c0.04183,0.84724 0.36086,1.50096 0.95706,1.96119c0.58575,0.44977 1.36498,0.67465 2.33774,0.67465c0.94137,0 1.65263,-0.17782 2.13377,-0.53345c0.4916,-0.35563 0.7374,-0.82631 0.7374,-1.41206c0,-0.63804 -0.25627,-1.11919 -0.76879,-1.44343c-0.53345,-0.33471 -1.40683,-0.63281 -2.62014,-0.8943c-1.21332,-0.25103 -2.22791,-0.57528 -3.04377,-0.97275c-1.7886,-0.8577 -2.68291,-2.10762 -2.68291,-3.74979c0,-1.37022 0.58051,-2.51555 1.74153,-3.436c1.15057,-0.92045 2.62015,-1.38068 4.40875,-1.38068c1.90366,0 3.44123,0.47069 4.61272,1.41206c1.17148,0.94137 1.75722,2.15992 1.75722,3.65565h-3.57721c0,-0.67988 -0.25627,-1.2447 -0.76879,-1.69447c-0.50206,-0.46023 -1.17671,-0.69034 -2.02394,-0.69034c-0.78447,0 -1.42252,0.17782 -1.91412,0.53345c-0.50206,0.36609 -0.7531,0.85247 -0.7531,1.45913c0,0.55436 0.23011,0.9832 0.69034,1.28653c0.46023,0.30333 1.39113,0.61189 2.79273,0.92568M264.65605,198.83525c1.18194,1.09826 1.80429,2.5417 1.86705,4.3303h-3.37324c-0.04183,-0.91 -0.3504,-1.65786 -0.92568,-2.2436c-0.58574,-0.58575 -1.33361,-0.87861 -2.2436,-0.87861c-1.15056,0 -2.03963,0.41839 -2.66721,1.25516c-0.62758,0.83677 -0.9466,2.10762 -0.95706,3.81255v0.58051c0,1.72584 0.31379,3.01238 0.94137,3.85962c0.61712,0.84724 1.51143,1.27085 2.68291,1.27085c0.89954,0 1.64217,-0.26149 2.22791,-0.78448c0.58574,-0.51252 0.89954,-1.15579 0.94137,-1.92981h3.37324c-0.04183,0.99367 -0.3504,1.92458 -0.92568,2.79274c-0.58574,0.84724 -1.37022,1.52187 -2.35343,2.02394c-0.99367,0.50206 -2.06578,0.7531 -3.21634,0.7531c-2.22791,0 -3.99036,-0.72171 -5.28736,-2.16515c-1.30746,-1.44343 -1.96119,-3.436 -1.96119,-5.9777v-0.36086c0,-2.42665 0.6485,-4.36168 1.9455,-5.80512c1.297,-1.46436 3.05945,-2.19653 5.28736,-2.19653c1.8932,0 3.44123,0.55436 4.64409,1.66308M288.66098,199.24317c1.33884,1.38068 2.06055,3.21635 2.16515,5.50701l0.01569,0.83155c0,1.56895 -0.2981,2.97055 -0.8943,4.20479c-0.60666,1.23424 -1.46958,2.1913 -2.58877,2.87118c-1.12964,0.67988 -2.42664,1.01982 -3.891,1.01982c-2.24883,0 -4.0479,-0.74786 -5.39719,-2.2436c-1.34929,-1.49573 -2.02395,-3.4883 -2.02395,-5.9777v-0.18827c0,-1.55849 0.30857,-2.96008 0.92569,-4.20479c0.61712,-1.25516 1.48528,-2.21222 2.60445,-2.87118c1.11919,-0.67988 2.40572,-1.01982 3.85962,-1.01982c2.14423,0 3.88577,0.69034 5.22461,2.07101M283.43638,200.04334c-1.17149,0 -2.09716,0.46545 -2.77704,1.39636c-0.69034,0.92045 -1.03551,2.30113 -1.03551,4.14203c0,1.64217 0.33993,2.92871 1.01981,3.85962c0.66942,0.92045 1.61079,1.38067 2.82411,1.38067c1.20286,0 2.14423,-0.47069 2.82411,-1.41206c0.65895,-0.94137 0.98844,-2.32205 0.98844,-4.14203c0,-1.60032 -0.33993,-2.87118 -1.01981,-3.81255c-0.7008,-0.94137 -1.64217,-1.41205 -2.82411,-1.41205M309.7006,200.73368c-0.47069,-0.08367 -0.95706,-0.12552 -1.45913,-0.12552c-1.64217,0 -2.74566,0.62758 -3.31048,1.88274v10.88852h-3.57721v-15.90915h3.42032l0.07844,1.77291c0.86815,-1.38068 2.06579,-2.07101 3.5929,-2.07101c0.51252,0 0.93614,0.06799 1.27085,0.20397l-0.01569,3.35755M326.04906,197.17216c2.16516,0 3.84393,0.69034 5.03633,2.07101c1.17149,1.38068 1.75722,3.33664 1.75722,5.86787v1.44344h-10.38644c0.1046,1.31792 0.5439,2.35865 1.31792,3.12221c0.76355,0.76355 1.73107,1.14533 2.90255,1.14533c1.63171,0 2.96532,-0.66419 4.00083,-1.99256l1.91411,1.85136c-0.63804,0.94137 -1.48528,1.67878 -2.5417,2.21222c-1.06689,0.52299 -2.26452,0.78447 -3.59289,0.78447c-2.25929,0 -4.08973,-0.71125 -5.49133,-2.13377c-1.41206,-1.43297 -2.11808,-3.33663 -2.11808,-5.71098v-0.43931c0,-1.58987 0.30856,-3.00716 0.92568,-4.25186c0.60666,-1.25516 1.46436,-2.23314 2.57308,-2.93393c1.10872,-0.69034 2.34296,-1.03551 3.70272,-1.03551M329.31248,203.66761c-0.07322,-1.1924 -0.39224,-2.09193 -0.95706,-2.69859c-0.55436,-0.61712 -1.32837,-0.92568 -2.32205,-0.92568c-0.97274,0 -1.76245,0.33994 -2.36911,1.01982c-0.60666,0.69034 -0.99367,1.6474 -1.16103,2.87118h6.80925z" fill="url(#color-1)"/></g></g></svg>