<svg version="1.1" xmlns="http://www.w3.org/2000/svg" xmlns:xlink="http://www.w3.org/1999/xlink" width="299" height="255" viewBox="0,0,299,255"><g transform="translate(-90.5,-52.5)"><g data-paper-data="{&quot;isPaintingLayer&quot;:true}" fill-rule="nonzero" stroke-linejoin="miter" stroke-miterlimit="10" stroke-dasharray="" stroke-dashoffset="0" style="mix-blend-mode: normal"><path d="M235.65078,203.18113c-0.63329,0 -1.01656,-0.04998 -1.48318,-0.48326c-0.43331,-0.43331 -0.64993,-0.99992 -0.64993,-1.69986c0,-0.56661 0.21665,-1.09991 0.64996,-1.59987l17.93181,-21.3482c0.99992,-1.06657 1.78318,-2.26647 2.34982,-3.5997c0.59995,-1.33323 0.89992,-2.58311 0.89992,-3.74967c0,-1.8665 -0.36663,-3.51638 -1.09991,-4.94957c-0.73328,-1.43322 -1.76651,-2.54977 -3.09974,-3.3497c-1.33323,-0.83327 -2.34975,2.08345 -4.0496,2.08345c-1.66652,0 -3.69973,-2.90002 -5.09961,-2.03344c-1.36654,0.83327 -2.43314,1.96649 -3.19973,3.39972c-0.76659,1.43322 -1.14989,3.04976 -1.14989,4.84961c0,0.63329 -0.23332,1.16656 -0.69994,1.59987c-0.43331,0.43331 -0.98325,0.64996 -1.64985,0.64996c-0.63329,0 -1.18323,-0.21665 -1.64985,-0.64993c-0.43331,-0.43331 -0.64993,-0.96658 -0.64993,-1.59987c0,-2.66643 0.58328,-5.04956 1.74987,-7.14939c1.1999,-2.13317 2.81644,-3.81635 4.84961,-5.04956c2.06648,-1.23324 4.39963,-1.84983 6.99941,-1.84983c2.56644,0 4.84961,0.59995 6.84944,1.79985c2.03317,1.1999 3.61637,2.84978 4.74962,4.9496c1.13325,2.09982 1.69986,4.53296 1.69986,7.29939c0,1.29989 -0.21665,2.5498 -0.64993,3.7497c-0.39997,1.1999 -0.96658,2.34982 -1.69986,3.44973c-0.69994,1.09991 -1.46653,2.11649 -2.29981,3.04976l-12.13205,17.4152l15.53176,0.33333c0.63329,0 1.18323,0.25 1.64988,0.74995c0.46662,0.46662 0.69994,0.98325 0.69994,1.54989c0,0.69994 -0.23332,1.26655 -0.69994,1.69986c-0.46662,0.43331 -1.01659,0.64996 -1.64985,0.64996z" fill="#ff0000" stroke="#ffffff" stroke-width="17.5" stroke-linecap="square"/><path d="M228.65078,203.18113c-0.63329,0 -1.01656,-0.04998 -1.48318,-0.48326c-0.43331,-0.43331 -0.64993,-0.99992 -0.64993,-1.69986c0,-0.56661 0.21665,-1.09991 0.64996,-1.59987l17.93181,-21.3482c0.99992,-1.06657 1.78318,-2.26647 2.34982,-3.5997c0.59995,-1.33323 0.89992,-2.58311 0.89992,-3.74967c0,-1.8665 -0.36663,-3.51638 -1.09991,-4.94957c-0.73328,-1.43322 -1.76651,-2.54977 -3.09974,-3.3497c-1.33323,-0.83327 -2.34975,2.08345 -4.0496,2.08345c-1.66652,0 -3.69973,-2.90002 -5.09961,-2.03344c-1.36654,0.83327 -2.43314,1.96649 -3.19973,3.39972c-0.76659,1.43322 -1.14989,3.04976 -1.14989,4.84961c0,0.63329 -0.23332,1.16656 -0.69994,1.59987c-0.43331,0.43331 -0.98325,0.64996 -1.64985,0.64996c-0.63329,0 -1.18323,-0.21665 -1.64985,-0.64993c-0.43331,-0.43331 -0.64993,-0.96658 -0.64993,-1.59987c0,-2.66643 0.58328,-5.04956 1.74987,-7.14939c1.1999,-2.13317 2.81644,-3.81635 4.84961,-5.04956c2.06648,-1.23324 4.39963,-1.84983 6.99941,-1.84983c2.56644,0 4.84961,0.59995 6.84944,1.79985c2.03317,1.1999 3.61637,2.84978 4.74962,4.9496c1.13325,2.09982 1.69986,4.53296 1.69986,7.29939c0,1.29989 -0.21665,2.5498 -0.64993,3.7497c-0.39997,1.1999 -0.96658,2.34982 -1.69986,3.44973c-0.69994,1.09991 -1.46653,2.11649 -2.29981,3.04976l-12.13205,17.4152l15.53176,0.33333c0.63329,0 1.18323,0.25 1.64988,0.74995c0.46662,0.46662 0.69994,0.98325 0.69994,1.54989c0,0.69994 -0.23332,1.26655 -0.69994,1.69986c-0.46662,0.43331 -1.01659,0.64996 -1.64985,0.64996z" fill="#ff0000" stroke="#41a100" stroke-width="17.5" stroke-linecap="square"/><path d="M228.65078,203.3478c-0.63329,0 -1.18323,-0.21665 -1.64985,-0.64993c-0.43331,-0.43331 -0.64993,-0.99992 -0.64993,-1.69986c0,-0.56661 0.21665,-1.09991 0.64996,-1.59987l18.09848,-21.3482c0.99992,-1.06657 1.78318,-2.26647 2.34982,-3.5997c0.59995,-1.33323 0.89992,-2.58311 0.89992,-3.74967c0,-1.8665 -0.36663,-3.51638 -1.09991,-4.94957c-0.73328,-1.43322 -1.76651,-2.54977 -3.09974,-3.3497c-1.33323,-0.83327 -2.84975,-1.24988 -4.5496,-1.24988c-1.66652,0 -3.19973,0.43331 -4.59961,1.29989c-1.36654,0.83327 -2.43314,1.96649 -3.19973,3.39972c-0.76659,1.43322 -1.14989,3.04976 -1.14989,4.84961c0,0.63329 -0.23332,1.16656 -0.69994,1.59987c-0.43331,0.43331 -0.98325,0.64996 -1.64985,0.64996c-0.63329,0 -1.18323,-0.21665 -1.64985,-0.64993c-0.43331,-0.43331 -0.64993,-0.96658 -0.64993,-1.59987c0,-2.66643 0.58328,-5.04956 1.74987,-7.14939c1.1999,-2.13317 2.81644,-3.81635 4.84961,-5.04956c2.06648,-1.23324 4.39963,-1.84983 6.99941,-1.84983c2.56644,0 4.84961,0.59995 6.84944,1.79985c2.03317,1.1999 3.61637,2.84978 4.74962,4.9496c1.13325,2.09982 1.69986,4.53296 1.69986,7.29939c0,1.29989 -0.21665,2.5498 -0.64993,3.7497c-0.39997,1.1999 -0.96658,2.34982 -1.69986,3.44973c-0.69994,1.09991 -1.46653,2.11649 -2.29981,3.04976l-15.29872,17.74853h18.69843c0.63329,0 1.18323,0.25 1.64988,0.74995c0.46662,0.46662 0.69994,0.98325 0.69994,1.54989c0,0.69994 -0.23332,1.26655 -0.69994,1.69986c-0.46662,0.43331 -1.01659,0.64996 -1.64985,0.64996z" fill="#ff0000" stroke="#00d808" stroke-width="5" stroke-linecap="square"/><path d="M90.5,307.5v-255h299v255z" fill="none" stroke="#ffffff" stroke-width="0" stroke-linecap="butt"/></g></g></svg>