<svg version="1.1" xmlns="http://www.w3.org/2000/svg" xmlns:xlink="http://www.w3.org/1999/xlink" width="297" height="211.30435" viewBox="0,0,297,211.30435"><g transform="translate(-91.5,-74.34785)"><g data-paper-data="{&quot;isPaintingLayer&quot;:true}" fill-rule="nonzero" stroke="none" stroke-linecap="butt" stroke-linejoin="miter" stroke-miterlimit="10" stroke-dasharray="" stroke-dashoffset="0" style="mix-blend-mode: normal"><path d="M258.88762,151.64966c5.25156,0 9.50876,4.25721 9.50876,9.51127c0,9.4563 0,28.31644 0,37.77524c0,5.25156 -4.25721,9.50876 -9.50876,9.50876c-9.4563,0 -28.31894,0 -37.77524,0c-5.25156,0 -9.50876,-4.25721 -9.50876,-9.50876c0,-9.4588 0,-28.31894 0,-37.77524c0,-5.25406 4.25721,-9.51127 9.50876,-9.51127c9.4563,0 28.31894,0 37.77524,0z" fill="#d90000" stroke-width="1"/><path d="M226.08108,208.44493c-2.43649,0 -6.45069,0.41741 -9.31942,-1.12904c-3.31447,-1.78673 -5.15804,-5.56465 -5.15804,-8.37972c0,-9.4588 0,-28.31894 0,-37.77525c0,-2.68677 1.95125,-6.8262 5.23014,-8.55563c3.13307,-1.65253 7.53793,-0.95564 10.104,-0.95564c0.85513,0 -3.52772,0.8601 -6.40721,3.19492c-2.32881,1.88831 -3.20016,5.15608 -3.23937,6.46083c-0.14427,4.80154 -0.33499,11.7638 -0.2468,18.51326c0.07577,5.7994 -0.02204,12.97566 0.1175,18.83661c0.08453,3.55038 1.68697,5.52555 3.9134,7.02292c3.15249,2.12018 6.86816,2.76674 5.0058,2.76674z" fill="#a10000" stroke-width="1"/><path d="M91.5,285.6522v-211.30435h297v211.30435z" fill="none" stroke-width="0"/><path d="M221.32458,180c0,-4.73126 3.83545,-8.56671 8.56671,-8.56671c4.73126,0 8.56671,3.83545 8.56671,8.56671c0,4.73126 -3.83545,8.56671 -8.56671,8.56671c-4.73126,0 -8.56671,-3.83545 -8.56671,-8.56671z" fill="#000000" stroke-width="0"/><path d="M222.06898,177.4876c0,-2.79145 2.26291,-5.05436 5.05436,-5.05436c2.79145,0 5.05436,2.26291 5.05436,5.05436c0,2.79145 -2.26291,5.05436 -5.05436,5.05436c-2.79145,0 -5.05436,-2.26291 -5.05436,-5.05436z" fill="#ffffff" stroke-width="0"/><path d="M231.65061,184.15659c0,-1.46669 1.18899,-2.65568 2.65568,-2.65568c1.46669,0 2.65568,1.18899 2.65568,2.65568c0,1.46669 -1.18899,2.65568 -2.65568,2.65568c-1.46669,0 -2.65568,-1.18899 -2.65568,-2.65568z" fill="#ffffff" stroke-width="0"/><path d="M241.54201,180c0,-4.73127 3.83544,-8.56671 8.56671,-8.56671c4.73127,0 8.56671,3.83544 8.56671,8.56671c0,4.73127 -3.83545,8.56671 -8.56671,8.56671c-4.73127,0 -8.56671,-3.83544 -8.56671,-8.56671z" fill="#000000" stroke-width="0"/><path d="M242.28641,177.4876c0,-2.79145 2.26291,-5.05436 5.05436,-5.05436c2.79145,0 5.05436,2.26291 5.05436,5.05436c0,2.79145 -2.26291,5.05436 -5.05436,5.05436c-2.79145,0 -5.05436,-2.26291 -5.05436,-5.05436z" fill="#ffffff" stroke-width="0"/><path d="M251.86804,184.15659c0,-1.46669 1.18899,-2.65568 2.65568,-2.65568c1.46669,0 2.65569,1.18899 2.65569,2.65568c0,1.46669 -1.189,2.65568 -2.65569,2.65568c-1.46669,0 -2.65568,-1.18899 -2.65568,-2.65568z" fill="#ffffff" stroke-width="0"/></g></g></svg>