<svg version="1.1" xmlns="http://www.w3.org/2000/svg" xmlns:xlink="http://www.w3.org/1999/xlink" width="314.2663" height="225" viewBox="0,0,314.2663,225"><g transform="translate(-82.86685,-67.5)"><g data-paper-data="{&quot;isPaintingLayer&quot;:true}" fill-rule="nonzero" stroke-linejoin="miter" stroke-miterlimit="10" stroke-dasharray="" stroke-dashoffset="0" style="mix-blend-mode: normal"><path d="M320.27742,236.37865c-0.6666,0 0.60009,-0.38331 0.13347,-0.8166c-0.43331,-0.43331 -0.64993,-0.99992 -0.64993,-1.69986v-41.94647c0,-0.6666 0.21665,-1.21657 0.64996,-1.64985c0.46662,-0.46662 1.03326,-0.69994 1.69986,-0.69994h11.94901c2.9331,0 5.53288,0.64996 7.79935,1.94985c2.26647,1.29989 4.03301,3.08307 5.29956,5.34957c1.29989,2.26647 1.94985,4.89959 1.94985,7.89934c0,2.89976 -0.64993,5.48287 -1.94982,7.74937c-1.26655,2.23316 -3.03309,3.99966 -5.29956,5.29956c-2.26647,1.26655 -4.86625,1.89984 -7.79935,1.89984h-9.5992v14.14883c0,0.69994 -0.23332,1.26655 -0.69994,1.69986c-0.43331,0.43331 -0.98325,0.64996 -1.64985,0.64996zM324.46057,215.26373h9.5992c2.03317,0 3.83302,-0.44995 5.39955,-1.34987c1.59987,-0.89992 2.84978,-2.13317 3.7497,-3.69969c0.89992,-1.59987 1.3499,-3.41639 1.3499,-5.44953c0,-2.13317 -0.44995,-3.98299 -1.34987,-5.54952c-0.89992,-1.59987 -2.1498,-2.84975 -3.74967,-3.74967c-1.56652,-0.93327 -3.36637,-1.39988 -5.39955,-1.39988h-9.5992z" fill="#ff0000" stroke="#ffffff" stroke-width="17.5" stroke-linecap="square"/><path d="M248.29479,235.87862c-0.63329,0 -1.3499,-0.21665 -1.81652,-0.64993c-0.46662,-0.46662 -0.69994,-1.03326 -0.69994,-1.69986l-0.5,-41.94647c0,-0.6666 0.73332,-1.21657 1.19994,-1.64985c0.46662,-0.46662 1.68326,-0.69994 2.31654,-0.69994c0.96658,0 2.49985,0.39997 2.93315,1.1999l18.59832,39.99665h-2.16649l19.91502,-39.99665c0.46662,-0.79993 1.16656,-1.1999 2.09982,-1.1999c0.63329,0 1.16656,0.23332 1.59987,0.69994c0.43331,0.43331 0.64996,0.98325 0.64996,1.64988v41.9465c0,0.6666 -0.21665,1.23324 -0.64993,1.69986c-0.43331,0.43331 -0.96658,0.64996 -1.59987,0.64996c-0.69994,0 -1.28322,-0.21665 -1.74984,-0.64993c-0.43331,-0.46662 -0.64993,-1.03326 -0.64993,-1.69986v-35.89699l-0.00008,0.05001l-16.59853,35.99698c-0.43331,0.76659 -1.11658,1.14992 -2.04981,1.14992c-0.99992,0 -1.71653,-0.48329 -2.1498,-1.44986l-17.69852,-35.44701l1.1999,-0.29997v35.89699c0,0.6666 -0.23332,1.23324 -0.69994,1.69986c-0.46662,0.43331 -1.01659,0.64996 -1.64985,0.64996z" fill="#00d808" stroke="#ffffff" stroke-width="17.5" stroke-linecap="square"/><path d="M200.2263,239.35362c-3.63304,0 -6.84941,-0.68327 -9.64918,-2.04981c-2.79977,-1.39988 -4.99958,-3.33306 -6.59945,-5.79951c-1.56652,-2.49979 -2.34979,-5.3329 -2.34979,-8.49929v-28.89758c0,-0.6666 0.21665,-1.21657 0.64996,-1.64985c0.46662,-0.46662 1.03326,-0.69994 1.69986,-0.69994c0.6666,0 1.21657,0.23332 1.64988,0.69994c0.46662,0.43331 0.69994,0.98325 0.69994,1.64988v28.89758c0,2.33315 0.58328,4.39963 1.74987,6.19948c1.16656,1.79985 2.79977,3.2164 4.89959,4.24966c2.13317,0.99992 4.54963,1.49987 7.24941,1.49987c2.66643,0 5.03292,-0.49996 7.09941,-1.49987c2.06648,-1.03326 3.68302,-2.44978 4.84961,-4.24963c1.16656,-1.79985 1.74987,-3.86633 1.74987,-6.19948v-28.89758c0,-0.6666 0.21665,-1.21657 0.64996,-1.64985c0.46662,-0.46662 1.03326,-0.69994 1.69986,-0.69994c0.69994,0 1.24991,0.23332 1.64988,0.69994c0.43331,0.43331 0.64996,0.98325 0.64996,1.64988v28.89758c0,3.16639 -0.78326,5.9995 -2.34979,8.49929c-1.56652,2.46645 -3.73303,4.39963 -6.49946,5.79951c-2.76642,1.36654 -5.93285,2.04984 -9.4992,2.04984z" fill="#ff0000" stroke="#ffffff" stroke-width="17.5" stroke-linecap="square"/><path d="M344.68382,164.47873c-0.46662,-0.46662 -0.69994,-1.03326 -0.69994,-1.69986v-14.89875l-16.19864,-25.74783c-0.39997,-0.59995 -0.54994,-1.16656 -0.44995,-1.69986c0.09999,-0.56661 0.33332,-1.03326 0.69994,-1.39988c0.39997,-0.36663 0.89992,-0.54994 1.49987,-0.54994c0.49996,0 0.89992,0.09999 1.1999,0.29997c0.29997,0.19998 0.56661,0.48329 0.79993,0.84994l14.78248,24.52723l0.34579,-0.29411l14.51926,-24.08312c0.29997,-0.46662 0.61662,-0.79993 0.94994,-0.99992c0.33332,-0.19998 0.73328,-0.29997 1.1999,-0.29997c0.56661,0 1.03326,0.19998 1.39988,0.59995c0.39997,0.36663 0.61662,0.83327 0.64996,1.39988c0.06665,0.56661 -0.08332,1.11658 -0.44995,1.64988l-16.29863,25.74786v14.89875c0,0.6666 -0.23332,1.23324 -0.69994,1.69986c-0.43331,0.43331 -0.96658,0.64996 -1.59987,0.64996c0,0 -1.18331,-0.21676 -1.64993,-0.65004z" fill="#ff0000" stroke="#ffffff" stroke-width="17.5" stroke-linecap="square"/><path d="M287.77746,165.62867c-0.63329,0 -1.18323,-0.21665 -1.64985,-0.64993c-0.46662,-0.43331 -0.69994,-0.99992 -0.69994,-1.69986v-41.94647c0,-0.63329 0.23332,-1.18323 0.69994,-1.64985c0.46662,-0.46662 1.01659,-0.69994 1.64988,-0.69994c0.63329,0 1.18323,0.23332 1.64988,0.69994c0.46662,0.46662 0.69994,1.01659 0.69994,1.64988v39.89666h23.29805c0.63329,0 1.18323,0.21665 1.64988,0.64996c0.46662,0.39997 0.69994,0.9166 0.69994,1.54989c0,0.63329 -0.23332,1.16656 -0.69994,1.59987c-0.46662,0.39997 -1.01659,0.59995 -1.64985,0.59995z" fill="#ff0000" stroke="#ffffff" stroke-width="17.5" stroke-linecap="square"/><path d="M233.77746,165.87867c-0.63329,0 -1.18323,-0.21665 -1.64985,-0.64993c-0.46662,-0.43331 -0.69994,-0.99992 -0.69994,-1.69986v-41.94647c0,-0.63329 0.23332,-1.18323 0.69994,-1.64985c0.46662,-0.46662 1.01659,-0.69994 1.64988,-0.69994c0.63329,0 1.18323,0.23332 1.64988,0.69994c0.46662,0.46662 0.69994,1.01659 0.69994,1.64988v39.89666h23.29805c0.63329,0 1.18323,0.21665 1.64988,0.64996c0.46662,0.39997 0.69994,0.9166 0.69994,1.54989c0,0.63329 -0.23332,1.16656 -0.69994,1.59987c-0.46662,0.39997 -1.01659,0.59995 -1.64985,0.59995z" fill="#ff0000" stroke="#ffffff" stroke-width="17.5" stroke-linecap="square"/><path d="M176.3525,165.87862c-0.6666,0 -1.23324,-0.21665 -1.69986,-0.64993c-0.43331,-0.43331 -0.64993,-0.99992 -0.64993,-1.69986v-41.94647c0,-0.6666 0.21665,-1.21657 0.64996,-1.64985c0.46662,-0.46662 1.03326,-0.69994 1.69986,-0.69994h27.99765c0.63329,0 1.18323,0.21665 1.64988,0.64996c0.46662,0.43331 0.69994,0.98325 0.69994,1.64988c0,0.59995 -0.23332,1.11658 -0.69994,1.54989c-0.46662,0.43331 -1.01659,0.64996 -1.64985,0.64996l-23.64784,9.25l-3.5,6.74862l20.14845,0.5c0.69994,0 1.26655,0.21665 1.69986,0.64996c0.43331,0.43331 0.64996,0.96658 0.64996,1.59987c0,0.63329 -0.21665,1.16656 -0.64993,1.59987c-0.43331,0.43331 -0.99992,0.64996 -1.69986,0.64996h-18.64842l3.25,7.14862l22.39787,9.5c0.63329,0 1.18323,0.23332 1.64988,0.69994c0.46662,0.43331 0.69994,0.94994 0.69994,1.54989c0,0.6666 -0.23332,1.21657 -0.69994,1.64988c-0.46662,0.39997 -1.01659,0.59995 -1.64985,0.59995z" fill="#ff0000" stroke="#ffffff" stroke-width="17.5" stroke-linecap="square"/><path d="M127.86112,171.10013l14.5,-57.75l3.5,-1c0,0 8.15004,0.57462 10.56916,6.65726c2.51203,6.31628 1.79462,24.73907 1.68176,29.77481c-0.09986,4.45568 0.07049,17.43115 -7.74302,23.92437c-4.96067,4.12243 -19.2579,3.39356 -19.2579,3.39356z" fill="#ffffff" stroke="none" stroke-width="NaN" stroke-linecap="butt"/><path d="M313.27742,235.37865c-0.6666,0 0.60009,-0.38331 0.13347,-0.8166c-0.43331,-0.43331 -0.64993,-0.99992 -0.64993,-1.69986v-41.94647c0,-0.6666 0.21665,-1.21657 0.64996,-1.64985c0.46662,-0.46662 1.03326,-0.69994 1.69986,-0.69994h11.94901c2.9331,0 5.53288,0.64996 7.79935,1.94985c2.26647,1.29989 4.03301,3.08307 5.29956,5.34957c1.29989,2.26647 1.94985,4.89959 1.94985,7.89934c0,2.89976 -0.64993,5.48287 -1.94982,7.74937c-1.26655,2.23316 -3.03309,3.99966 -5.29956,5.29956c-2.26647,1.26655 -4.86625,1.89984 -7.79935,1.89984h-9.5992v14.14883c0,0.69994 -0.23332,1.26655 -0.69994,1.69986c-0.43331,0.43331 -0.98325,0.64996 -1.64985,0.64996zM317.46057,214.26373h9.5992c2.03317,0 3.83302,-0.44995 5.39955,-1.34987c1.59987,-0.89992 2.84978,-2.13317 3.7497,-3.69969c0.89992,-1.59987 1.3499,-3.41639 1.3499,-5.44953c0,-2.13317 -0.44995,-3.98299 -1.34987,-5.54952c-0.89992,-1.59987 -2.1498,-2.84975 -3.74967,-3.74967c-1.56652,-0.93327 -3.36637,-1.39988 -5.39955,-1.39988h-9.5992z" fill="#ff0000" stroke="#41a100" stroke-width="17.5" stroke-linecap="square"/><path d="M242.29479,235.87862c-0.63329,0 -1.3499,-0.21665 -1.81652,-0.64993c-0.46662,-0.46662 -0.69994,-1.03326 -0.69994,-1.69986l-0.5,-41.94647c0,-0.6666 0.73332,-1.21657 1.19994,-1.64985c0.46662,-0.46662 1.68326,-0.69994 2.31654,-0.69994c0.96658,0 2.49985,0.39997 2.93315,1.1999l18.59832,39.99665h-2.16649l19.91502,-39.99665c0.46662,-0.79993 1.16656,-1.1999 2.09982,-1.1999c0.63329,0 1.16656,0.23332 1.59987,0.69994c0.43331,0.43331 0.64996,0.98325 0.64996,1.64988v41.9465c0,0.6666 -0.21665,1.23324 -0.64993,1.69986c-0.43331,0.43331 -0.96658,0.64996 -1.59987,0.64996c-0.69994,0 -1.28322,-0.21665 -1.74984,-0.64993c-0.43331,-0.46662 -0.64993,-1.03326 -0.64993,-1.69986v-35.89699l-0.00008,0.05001l-16.59853,35.99698c-0.43331,0.76659 -1.11658,1.14992 -2.04981,1.14992c-0.99992,0 -1.71653,-0.48329 -2.1498,-1.44986l-17.69852,-35.44701l1.1999,-0.29997v35.89699c0,0.6666 -0.23332,1.23324 -0.69994,1.69986c-0.46662,0.43331 -1.01659,0.64996 -1.64985,0.64996z" fill="#00d808" stroke="#41a100" stroke-width="17.5" stroke-linecap="square"/><path d="M193.7263,237.85362c-3.63304,0 -6.84941,-0.68327 -9.64918,-2.04981c-2.79977,-1.39988 -4.99958,-3.33306 -6.59945,-5.79951c-1.56652,-2.49979 -2.34979,-5.3329 -2.34979,-8.49929v-28.89758c0,-0.6666 0.21665,-1.21657 0.64996,-1.64985c0.46662,-0.46662 1.03326,-0.69994 1.69986,-0.69994c0.6666,0 1.21657,0.23332 1.64988,0.69994c0.46662,0.43331 0.69994,0.98325 0.69994,1.64988v28.89758c0,2.33315 0.58328,4.39963 1.74987,6.19948c1.16656,1.79985 2.79977,3.2164 4.89959,4.24966c2.13317,0.99992 4.54963,1.49987 7.24941,1.49987c2.66643,0 5.03292,-0.49996 7.09941,-1.49987c2.06648,-1.03326 3.68302,-2.44978 4.84961,-4.24963c1.16656,-1.79985 1.74987,-3.86633 1.74987,-6.19948v-28.89758c0,-0.6666 0.21665,-1.21657 0.64996,-1.64985c0.46662,-0.46662 1.03326,-0.69994 1.69986,-0.69994c0.69994,0 1.24991,0.23332 1.64988,0.69994c0.43331,0.43331 0.64996,0.98325 0.64996,1.64988v28.89758c0,3.16639 -0.78326,5.9995 -2.34979,8.49929c-1.56652,2.46645 -3.73303,4.39963 -6.49946,5.79951c-2.76642,1.36654 -5.93285,2.04984 -9.4992,2.04984z" fill="#ff0000" stroke="#41a100" stroke-width="17.5" stroke-linecap="square"/><path d="M337.93382,164.72873c-0.46662,-0.46662 -0.69994,-1.03326 -0.69994,-1.69986v-14.89875l-16.19864,-25.74783c-0.39997,-0.59995 -0.54994,-1.16656 -0.44995,-1.69986c0.09999,-0.56661 0.33332,-1.03326 0.69994,-1.39988c0.39997,-0.36663 0.89992,-0.54994 1.49987,-0.54994c0.49996,0 0.89992,0.09999 1.1999,0.29997c0.29997,0.19998 0.56661,0.48329 0.79993,0.84994l14.78248,24.52723l0.34579,-0.29411l14.51926,-24.08312c0.29997,-0.46662 0.61662,-0.79993 0.94994,-0.99992c0.33332,-0.19998 0.73328,-0.29997 1.1999,-0.29997c0.56661,0 1.03326,0.19998 1.39988,0.59995c0.39997,0.36663 0.61662,0.83327 0.64996,1.39988c0.06665,0.56661 -0.08332,1.11658 -0.44995,1.64988l-16.29863,25.74786v14.89875c0,0.6666 -0.23332,1.23324 -0.69994,1.69986c-0.43331,0.43331 -0.96658,0.64996 -1.59987,0.64996c0,0 -1.18331,-0.21676 -1.64993,-0.65004z" fill="#ff0000" stroke="#41a100" stroke-width="17.5" stroke-linecap="square"/><path d="M227.77746,165.87867c-0.63329,0 -1.18323,-0.21665 -1.64985,-0.64993c-0.46662,-0.43331 -0.69994,-0.99992 -0.69994,-1.69986v-41.94647c0,-0.63329 0.23332,-1.18323 0.69994,-1.64985c0.46662,-0.46662 1.01659,-0.69994 1.64988,-0.69994c0.63329,0 1.18323,0.23332 1.64988,0.69994c0.46662,0.46662 0.69994,1.01659 0.69994,1.64988v39.89666h23.29805c0.63329,0 1.18323,0.21665 1.64988,0.64996c0.46662,0.39997 0.69994,0.9166 0.69994,1.54989c0,0.63329 -0.23332,1.16656 -0.69994,1.59987c-0.46662,0.39997 -1.01659,0.59995 -1.64985,0.59995z" fill="#ff0000" stroke="#41a100" stroke-width="17.5" stroke-linecap="square"/><path d="M170.6025,165.87862c-0.6666,0 -1.23324,-0.21665 -1.69986,-0.64993c-0.43331,-0.43331 -0.64993,-0.99992 -0.64993,-1.69986v-41.94647c0,-0.6666 0.21665,-1.21657 0.64996,-1.64985c0.46662,-0.46662 1.03326,-0.69994 1.69986,-0.69994h27.99765c0.63329,0 1.18323,0.21665 1.64988,0.64996c0.46662,0.43331 0.69994,0.98325 0.69994,1.64988c0,0.59995 -0.23332,1.11658 -0.69994,1.54989c-0.46662,0.43331 -1.01659,0.64996 -1.64985,0.64996h-25.64784v16.49862h18.64845c0.69994,0 1.26655,0.21665 1.69986,0.64996c0.43331,0.43331 0.64996,0.96658 0.64996,1.59987c0,0.63329 -0.21665,1.16656 -0.64993,1.59987c-0.43331,0.43331 -0.99992,0.64996 -1.69986,0.64996h-18.64842v16.64862h25.64787c0.63329,0 1.18323,0.23332 1.64988,0.69994c0.46662,0.43331 0.69994,0.94994 0.69994,1.54989c0,0.6666 -0.23332,1.21657 -0.69994,1.64988c-0.46662,0.39997 -1.01659,0.59995 -1.64985,0.59995z" fill="#ff0000" stroke="#41a100" stroke-width="17.5" stroke-linecap="square"/><path d="M128.60128,167.67855c-2.66643,0 -5.04956,-0.61662 -7.14939,-1.84983c-2.09982,-1.23324 -3.76634,-2.89976 -4.99958,-4.99958c-1.23324,-2.13317 -1.84983,-4.49962 -1.84983,-7.09941c0,-0.69994 0.21665,-1.26655 0.64996,-1.69986c0.43331,-0.43331 0.98325,-0.64993 1.64988,-0.64993c0.69994,0 1.26655,0.21665 1.69986,0.64996c0.43331,0.43331 0.64996,0.99992 0.64996,1.69986c0,1.76651 0.41664,3.38304 1.24991,4.84961c0.83327,1.43322 1.94985,2.58311 3.34974,3.44973c1.43322,0.83327 3.01642,1.24991 4.74962,1.24991c1.76651,0 3.34974,-0.43331 4.74962,-1.29989c1.43322,-0.86658 2.5498,-2.0165 3.34974,-3.44969c0.83327,-1.43322 1.24991,-3.03309 1.24991,-4.7996v-30.94739c0,-0.6666 0.21665,-1.21657 0.64996,-1.64985c0.43331,-0.46662 0.98325,-0.69994 1.64988,-0.69994c0.6666,0 1.21657,0.23332 1.64988,0.69994c0.46662,0.43331 0.69994,0.98325 0.69994,1.64988v30.94742c0,2.59978 -0.61662,4.96624 -1.84983,7.09941c-1.23324,2.09982 -2.91643,3.76634 -5.04956,4.99958c-2.09982,1.23324 -4.46628,1.84986 -7.09941,1.84986z" fill="#ff0000" stroke="#41a100" stroke-width="17.5" stroke-linecap="square"/><path d="M128.60128,167.67856c-2.66643,0 -5.04956,-0.61662 -7.14939,-1.84983c-2.09982,-1.23324 -3.76634,-2.89976 -4.99958,-4.99958c-1.23324,-2.13317 -1.84983,-4.49962 -1.84983,-7.09941c0,-0.69994 0.21665,-1.26655 0.64996,-1.69986c0.43331,-0.43331 0.98325,-0.64993 1.64988,-0.64993c0.69994,0 1.26655,0.21665 1.69986,0.64996c0.43331,0.43331 0.64996,0.99992 0.64996,1.69986c0,1.76651 0.41664,3.38304 1.24991,4.84961c0.83327,1.43322 1.94985,2.58311 3.34974,3.44973c1.43322,0.83327 3.01642,1.24991 4.74962,1.24991c1.76651,0 3.34974,-0.43331 4.74962,-1.29989c1.43322,-0.86658 2.5498,-2.0165 3.34974,-3.44969c0.83327,-1.43322 1.24991,-3.03309 1.24991,-4.7996v-30.94739c0,-0.6666 0.21665,-1.21657 0.64996,-1.64985c0.43331,-0.46662 0.98325,-0.69994 1.64988,-0.69994c0.6666,0 1.21657,0.23332 1.64988,0.69994c0.46662,0.43331 0.69994,0.98325 0.69994,1.64988v30.94742c0,2.59978 -0.61662,4.96624 -1.84983,7.09941c-1.23324,2.09982 -2.91643,3.76634 -5.04956,4.99958c-2.09982,1.23324 -4.46628,1.84986 -7.09941,1.84986z" fill="#ff0000" stroke="#00d808" stroke-width="5" stroke-linecap="square"/><path d="M170.6025,165.87862c-0.6666,0 -1.23324,-0.21665 -1.69986,-0.64993c-0.43331,-0.43331 -0.64993,-0.99992 -0.64993,-1.69986v-41.94647c0,-0.6666 0.21665,-1.21657 0.64996,-1.64985c0.46662,-0.46662 1.03326,-0.69994 1.69986,-0.69994h27.99765c0.63329,0 1.18323,0.21665 1.64988,0.64996c0.46662,0.43331 0.69994,0.98325 0.69994,1.64988c0,0.59995 -0.23332,1.11658 -0.69994,1.54989c-0.46662,0.43331 -1.01659,0.64996 -1.64985,0.64996h-25.64784v16.49862h18.64845c0.69994,0 1.26655,0.21665 1.69986,0.64996c0.43331,0.43331 0.64996,0.96658 0.64996,1.59987c0,0.63329 -0.21665,1.16656 -0.64993,1.59987c-0.43331,0.43331 -0.99992,0.64996 -1.69986,0.64996h-18.64842v16.64862h25.64787c0.63329,0 1.18323,0.23332 1.64988,0.69994c0.46662,0.43331 0.69994,0.94994 0.69994,1.54989c0,0.6666 -0.23332,1.21657 -0.69994,1.64988c-0.46662,0.39997 -1.01659,0.59995 -1.64985,0.59995z" fill="#ff0000" stroke="#00d808" stroke-width="5" stroke-linecap="square"/><path d="M227.77746,165.87867c-0.63329,0 -1.18323,-0.21665 -1.64985,-0.64993c-0.46662,-0.43331 -0.69994,-0.99992 -0.69994,-1.69986v-41.94647c0,-0.63329 0.23332,-1.18323 0.69994,-1.64985c0.46662,-0.46662 1.01659,-0.69994 1.64988,-0.69994c0.63329,0 1.18323,0.23332 1.64988,0.69994c0.46662,0.46662 0.69994,1.01659 0.69994,1.64988v39.89666h23.29805c0.63329,0 1.18323,0.21665 1.64988,0.64996c0.46662,0.39997 0.69994,0.9166 0.69994,1.54989c0,0.63329 -0.23332,1.16656 -0.69994,1.59987c-0.46662,0.39997 -1.01659,0.59995 -1.64985,0.59995z" fill="#ff0000" stroke="#00d808" stroke-width="5" stroke-linecap="square"/><path d="M339.58367,166.12866c-0.63329,0 -1.18323,-0.21665 -1.64985,-0.64993c-0.46662,-0.46662 -0.69994,-1.03326 -0.69994,-1.69986v-14.89875l-16.19864,-25.74783c-0.39997,-0.59995 -0.54994,-1.16656 -0.44995,-1.69986c0.09999,-0.56661 0.33332,-1.03326 0.69994,-1.39988c0.39997,-0.36663 0.89992,-0.54994 1.49987,-0.54994c0.49996,0 0.89992,0.09999 1.1999,0.29997c0.29997,0.19998 0.56661,0.48329 0.79993,0.84994l15.15748,24.52723l-0.02921,-0.29411l14.51926,-24.08312c0.29997,-0.46662 0.61662,-0.79993 0.94994,-0.99992c0.33332,-0.19998 0.73328,-0.29997 1.1999,-0.29997c0.56661,0 1.03326,0.19998 1.39988,0.59995c0.39997,0.36663 0.61662,0.83327 0.64996,1.39988c0.06665,0.56661 -0.08332,1.11658 -0.44995,1.64988l-16.29863,25.74786v14.89875c0,0.6666 -0.23332,1.23324 -0.69994,1.69986c-0.43331,0.43331 -0.96658,0.64996 -1.59987,0.64996z" fill="#ff0000" stroke="#00d808" stroke-width="5" stroke-linecap="square"/><path d="M193.7263,237.85362c-3.63304,0 -6.84941,-0.68327 -9.64918,-2.04981c-2.79977,-1.39988 -4.99958,-3.33306 -6.59945,-5.79951c-1.56652,-2.49979 -2.34979,-5.3329 -2.34979,-8.49929v-28.89758c0,-0.6666 0.21665,-1.21657 0.64996,-1.64985c0.46662,-0.46662 1.03326,-0.69994 1.69986,-0.69994c0.6666,0 1.21657,0.23332 1.64988,0.69994c0.46662,0.43331 0.69994,0.98325 0.69994,1.64988v28.89758c0,2.33315 0.58328,4.39963 1.74987,6.19948c1.16656,1.79985 2.79977,3.2164 4.89959,4.24966c2.13317,0.99992 4.54963,1.49987 7.24941,1.49987c2.66643,0 5.03292,-0.49996 7.09941,-1.49987c2.06648,-1.03326 3.68302,-2.44978 4.84961,-4.24963c1.16656,-1.79985 1.74987,-3.86633 1.74987,-6.19948v-28.89758c0,-0.6666 0.21665,-1.21657 0.64996,-1.64985c0.46662,-0.46662 1.03326,-0.69994 1.69986,-0.69994c0.69994,0 1.24991,0.23332 1.64988,0.69994c0.43331,0.43331 0.64996,0.98325 0.64996,1.64988v28.89758c0,3.16639 -0.78326,5.9995 -2.34979,8.49929c-1.56652,2.46645 -3.73303,4.39963 -6.49946,5.79951c-2.76642,1.36654 -5.93285,2.04984 -9.4992,2.04984z" fill="#ff0000" stroke="#00d808" stroke-width="5" stroke-linecap="square"/><path d="M241.62813,235.37862c-0.63329,0 -1.18323,-0.21665 -1.64985,-0.64993c-0.46662,-0.46662 -0.69994,-1.03326 -0.69994,-1.69986v-41.94647c0,-0.6666 0.23332,-1.21657 0.69994,-1.64985c0.46662,-0.46662 1.01659,-0.69994 1.64988,-0.69994c0.96658,0 1.83319,0.39997 2.26649,1.1999l19.93166,39.99665h-1.99983l19.74836,-39.99665c0.46662,-0.79993 1.16656,-1.1999 2.09982,-1.1999c0.63329,0 1.16656,0.23332 1.59987,0.69994c0.43331,0.43331 0.64996,0.98325 0.64996,1.64988v41.9465c0,0.6666 -0.21665,1.23324 -0.64993,1.69986c-0.43331,0.43331 -0.96658,0.64996 -1.59987,0.64996c-0.69994,0 -1.28322,-0.21665 -1.74984,-0.64993c-0.43331,-0.46662 -0.64993,-1.03326 -0.64993,-1.69986v-35.89699l0.99992,0.05001l-17.59853,35.99698c-0.43331,0.76659 -1.11658,1.14992 -2.04981,1.14992c-0.99992,0 -1.71653,-0.48329 -2.1498,-1.44986l-17.53185,-35.44701l0.86657,-0.29997c0,0 -0.16317,0.37594 -0.15845,0.88502c0.02973,3.20194 0.32511,35.01197 0.32511,35.01197c0,0.6666 -0.23332,1.23324 -0.69994,1.69986c-0.46662,0.43331 -1.01659,0.64996 -1.64985,0.64996z" fill="#00d808" stroke="#00d808" stroke-width="5" stroke-linecap="square"/><path d="M314.77742,234.87865c-0.6666,0 -1.23324,-0.21665 -1.69986,-0.64993c-0.43331,-0.43331 -0.64993,-0.99992 -0.64993,-1.69986v-41.94647c0,-0.6666 0.21665,-1.21657 0.64996,-1.64985c0.46662,-0.46662 1.03326,-0.69994 1.69986,-0.69994h11.94901c2.9331,0 5.53288,0.64996 7.79935,1.94985c2.26647,1.29989 4.03301,3.08307 5.29956,5.34957c1.29989,2.26647 1.94985,4.89959 1.94985,7.89934c0,2.89976 -0.64993,5.48287 -1.94982,7.74937c-1.26655,2.23316 -3.03309,3.99966 -5.29956,5.29956c-2.26647,1.26655 -4.86625,1.89984 -7.79935,1.89984h-9.5992v14.14883c0,0.69994 -0.23332,1.26655 -0.69994,1.69986c-0.43331,0.43331 -0.98325,0.64996 -1.64985,0.64996zM317.12724,213.93039h9.5992c2.03317,0 3.83302,-0.44995 5.39955,-1.34987c1.59987,-0.89992 2.84978,-2.13317 3.7497,-3.69969c0.89992,-1.59987 1.3499,-3.41639 1.3499,-5.44953c0,-2.13317 -0.44995,-3.98299 -1.34987,-5.54952c-0.89992,-1.59987 -2.1498,-2.84975 -3.74967,-3.74967c-1.56652,-0.93327 -3.36637,-1.39988 -5.39955,-1.39988h-9.5992z" fill="#ff0000" stroke="#00d808" stroke-width="5" stroke-linecap="square"/><path d="M282.02746,165.87867c-0.63329,0 -1.18323,-0.21665 -1.64985,-0.64993c-0.46662,-0.43331 -0.69994,-0.99992 -0.69994,-1.69986v-41.94647c0,-0.63329 0.23332,-1.18323 0.69994,-1.64985c0.46662,-0.46662 1.01659,-0.69994 1.64988,-0.69994c0.63329,0 1.18323,0.23332 1.64988,0.69994c0.46662,0.46662 0.69994,1.01659 0.69994,1.64988v39.89666h23.29805c0.63329,0 1.18323,0.21665 1.64988,0.64996c0.46662,0.39997 0.69994,0.9166 0.69994,1.54989c0,0.63329 -0.23332,1.16656 -0.69994,1.59987c-0.46662,0.39997 -1.01659,0.59995 -1.64985,0.59995z" fill="#ff0000" stroke="#41a100" stroke-width="17.5" stroke-linecap="square"/><path d="M282.02746,165.87867c-0.63329,0 -1.18323,-0.21665 -1.64985,-0.64993c-0.46662,-0.43331 -0.69994,-0.99992 -0.69994,-1.69986v-41.94647c0,-0.63329 0.23332,-1.18323 0.69994,-1.64985c0.46662,-0.46662 1.01659,-0.69994 1.64988,-0.69994c0.63329,0 1.18323,0.23332 1.64988,0.69994c0.46662,0.46662 0.69994,1.01659 0.69994,1.64988v39.89666h23.29805c0.63329,0 1.18323,0.21665 1.64988,0.64996c0.46662,0.39997 0.69994,0.9166 0.69994,1.54989c0,0.63329 -0.23332,1.16656 -0.69994,1.59987c-0.46662,0.39997 -1.01659,0.59995 -1.64985,0.59995z" fill="#ff0000" stroke="#00d808" stroke-width="5" stroke-linecap="square"/><path d="M82.86685,292.5v-225h314.2663v225z" fill="none" stroke="none" stroke-width="NaN" stroke-linecap="butt"/><path d="M131.36112,242.60013l14.5,-57.75l3.5,-1c0,0 8.15004,0.57462 10.56916,6.65726c2.51203,6.31628 1.79462,24.73907 1.68176,29.77481c-0.09986,4.45568 0.07049,17.43115 -7.74302,23.92437c-4.96067,4.12243 -19.2579,3.39356 -19.2579,3.39356z" fill="#ffffff" stroke="none" stroke-width="NaN" stroke-linecap="butt"/><path d="M132.60128,239.17855c-2.66643,0 -5.04956,-0.61662 -7.14939,-1.84983c-2.09982,-1.23324 -3.76634,-2.89976 -4.99958,-4.99958c-1.23324,-2.13317 -1.84983,-4.49962 -1.84983,-7.09941c0,-0.69994 0.21665,-1.26655 0.64996,-1.69986c0.43331,-0.43331 0.98325,-0.64993 1.64988,-0.64993c0.69994,0 1.26655,0.21665 1.69986,0.64996c0.43331,0.43331 0.64996,0.99992 0.64996,1.69986c0,1.76651 0.41664,3.38304 1.24991,4.84961c0.83327,1.43322 1.94985,2.58311 3.34974,3.44973c1.43322,0.83327 3.01642,1.24991 4.74962,1.24991c1.76651,0 3.34974,-0.43331 4.74962,-1.29989c1.43322,-0.86658 2.5498,-2.0165 3.34974,-3.44969c0.83327,-1.43322 1.24991,-3.03309 1.24991,-4.7996v-30.94739c0,-0.6666 0.21665,-1.21657 0.64996,-1.64985c0.43331,-0.46662 0.98325,-0.69994 1.64988,-0.69994c0.6666,0 1.21657,0.23332 1.64988,0.69994c0.46662,0.43331 0.69994,0.98325 0.69994,1.64988v30.94742c0,2.59978 -0.61662,4.96624 -1.84983,7.09941c-1.23324,2.09982 -2.91643,3.76634 -5.04956,4.99958c-2.09982,1.23324 -4.46628,1.84986 -7.09941,1.84986z" fill="#ff0000" stroke="#41a100" stroke-width="17.5" stroke-linecap="square"/><path d="M132.60128,239.17856c-2.66643,0 -5.04956,-0.61662 -7.14939,-1.84983c-2.09982,-1.23324 -3.76634,-2.89976 -4.99958,-4.99958c-1.23324,-2.13317 -1.84983,-4.49962 -1.84983,-7.09941c0,-0.69994 0.21665,-1.26655 0.64996,-1.69986c0.43331,-0.43331 0.98325,-0.64993 1.64988,-0.64993c0.69994,0 1.26655,0.21665 1.69986,0.64996c0.43331,0.43331 0.64996,0.99992 0.64996,1.69986c0,1.76651 0.41664,3.38304 1.24991,4.84961c0.83327,1.43322 1.94985,2.58311 3.34974,3.44973c1.43322,0.83327 3.01642,1.24991 4.74962,1.24991c1.76651,0 3.34974,-0.43331 4.74962,-1.29989c1.43322,-0.86658 2.5498,-2.0165 3.34974,-3.44969c0.83327,-1.43322 1.24991,-3.03309 1.24991,-4.7996v-30.94739c0,-0.6666 0.21665,-1.21657 0.64996,-1.64985c0.43331,-0.46662 0.98325,-0.69994 1.64988,-0.69994c0.6666,0 1.21657,0.23332 1.64988,0.69994c0.46662,0.43331 0.69994,0.98325 0.69994,1.64988v30.94742c0,2.59978 -0.61662,4.96624 -1.84983,7.09941c-1.23324,2.09982 -2.91643,3.76634 -5.04956,4.99958c-2.09982,1.23324 -4.46628,1.84986 -7.09941,1.84986z" fill="#ff0000" stroke="#00d808" stroke-width="5" stroke-linecap="square"/></g></g></svg>