<svg version="1.1" xmlns="http://www.w3.org/2000/svg" xmlns:xlink="http://www.w3.org/1999/xlink" width="299" height="255" viewBox="0,0,299,255"><g transform="translate(-90.5,-52.5)"><g data-paper-data="{&quot;isPaintingLayer&quot;:true}" fill-rule="nonzero" stroke-linejoin="miter" stroke-miterlimit="10" stroke-dasharray="" stroke-dashoffset="0" style="mix-blend-mode: normal"><path d="M246.99994,203.32299c-2.69977,0 -5.11624,-0.59995 -7.24938,-1.79985c-2.09982,-1.23324 -3.74967,-2.89976 -4.94957,-4.99958c-1.1999,-2.09982 -1.79985,-4.51629 -1.79985,-7.24938c0,-2.66643 0.59995,-5.04956 1.79985,-7.14939c1.1999,-2.13317 2.84978,-3.79968 4.9496,-4.99958c2.13317,-1.23324 4.54963,-1.84983 7.24941,-1.84983c2.66643,0 5.04959,0.61662 7.14942,1.84986c2.13317,1.1999 3.79968,2.86642 4.99958,4.99958c1.23324,2.09982 1.84986,4.48295 1.84986,7.14942c0,2.73312 -0.61662,5.14958 -1.84983,7.24941c-1.1999,2.09982 -2.86642,3.76634 -4.99958,4.99958c-2.09982,1.1999 -4.48295,1.79985 -7.14939,1.79985zM239.25097,175.32478l10.19878,-17.34797c0.5333,-0.86658 1.23324,-1.29989 2.09982,-1.29989c0.59995,0 1.11658,0.18331 1.54989,0.54997c0.43331,0.36663 0.69994,0.83327 0.79993,1.39988c0.09999,0.5333 0,1.06657 -0.29997,1.59987l-9.84916,16.04867z" fill="#41a100" stroke="#ffffff" stroke-width="17.5" stroke-linecap="square"/><path d="M239.99994,203.32299c-2.69977,0 -5.11624,-0.59995 -7.24938,-1.79985c-2.09982,-1.23324 -3.74967,-2.89976 -4.94957,-4.99958c-1.1999,-2.09982 -1.79985,-4.51629 -1.79985,-7.24938c0,-2.66643 0.59995,-5.04956 1.79985,-7.14939c1.1999,-2.13317 2.84978,-3.79968 4.9496,-4.99958c2.13317,-1.23324 4.54963,-1.84983 7.24941,-1.84983c2.66643,0 5.04959,0.61662 7.14942,1.84986c2.13317,1.1999 3.79968,2.86642 4.99958,4.99958c1.23324,2.09982 1.84986,4.48295 1.84986,7.14942c0,2.73312 -0.61662,5.14958 -1.84983,7.24941c-1.1999,2.09982 -2.86642,3.76634 -4.99958,4.99958c-2.09982,1.1999 -4.48295,1.79985 -7.14939,1.79985zM232.25097,175.32478l10.19878,-17.34797c0.5333,-0.86658 1.23324,-1.29989 2.09982,-1.29989c0.59995,0 1.11658,0.18331 1.54989,0.54997c0.43331,0.36663 0.69994,0.83327 0.79993,1.39988c0.09999,0.5333 0,1.06657 -0.29997,1.59987l-9.84916,16.04867z" fill="#41a100" stroke="#41a100" stroke-width="17.5" stroke-linecap="square"/><path d="M239.99994,203.32299c-2.69977,0 -5.11624,-0.59995 -7.24938,-1.79985c-2.09982,-1.23324 -3.74967,-2.89976 -4.94957,-4.99958c-1.1999,-2.09982 -1.79985,-4.51629 -1.79985,-7.24938c0,-2.66643 0.59995,-5.04956 1.79985,-7.14939c1.1999,-2.13317 2.84978,-3.79968 4.9496,-4.99958c2.13317,-1.23324 4.54963,-1.84983 7.24941,-1.84983c2.66643,0 5.04959,0.61662 7.14942,1.84986c2.13317,1.1999 3.79968,2.86642 4.99958,4.99958c1.23324,2.09982 1.84986,4.48295 1.84986,7.14942c0,2.73312 -0.61662,5.14958 -1.84983,7.24941c-1.1999,2.09982 -2.86642,3.76634 -4.99958,4.99958c-2.09982,1.1999 -4.48295,1.79985 -7.14939,1.79985zM239.94996,199.02335c1.83319,0 3.46637,-0.41664 4.89959,-1.24988c1.46653,-0.83327 2.61645,-1.98316 3.44973,-3.44969c0.83327,-1.46653 1.24991,-3.14972 1.24991,-5.04956c0,-1.8665 -0.41664,-3.53305 -1.24988,-4.99958c-0.83327,-1.46653 -1.98316,-2.61645 -3.44969,-3.44969c-1.43322,-0.86658 -3.0664,-1.29989 -4.89959,-1.29989c-1.83319,0 -3.46637,0.43331 -4.89959,1.29989c-1.43322,0.83327 -2.56644,1.98316 -3.39972,3.44973c-0.83327,1.46653 -1.24988,3.13308 -1.24988,4.99958c0,1.89984 0.41664,3.58303 1.24991,5.04959c0.83327,1.46653 1.96649,2.61645 3.39972,3.44973c1.43322,0.83327 3.0664,1.24991 4.89959,1.24991zM230.45097,177.92478l11.99878,-19.94797c0.5333,-0.86658 1.23324,-1.29989 2.09982,-1.29989c0.59995,0 1.11658,0.18331 1.54989,0.54997c0.43331,0.36663 0.69994,0.83327 0.79993,1.39988c0.09999,0.5333 0,1.06657 -0.29997,1.59987l-9.84916,16.04867z" fill="#ff0000" stroke="#00d808" stroke-width="5" stroke-linecap="square"/><path d="M90.5,307.5v-255h299v255z" fill="none" stroke="#ffffff" stroke-width="0" stroke-linecap="butt"/></g></g></svg>