<svg version="1.1" xmlns="http://www.w3.org/2000/svg" xmlns:xlink="http://www.w3.org/1999/xlink" width="56.79744" height="56.54185" viewBox="0,0,56.79744,56.54185"><g transform="translate(-211.09256,-151.33666)"><g data-paper-data="{&quot;isPaintingLayer&quot;:true}" fill-rule="nonzero" stroke="none" stroke-linecap="butt" stroke-linejoin="miter" stroke-miterlimit="10" stroke-dasharray="" stroke-dashoffset="0" style="mix-blend-mode: normal"><path d="M234.1923,195.67159l-14.25527,4.9026l4.82718,-14.3307z" fill="#ffffff" stroke-width="0"/><path d="M255.16037,185.11213l4.9026,14.25527l-14.3307,-4.82718z" fill="#ffffff" stroke-width="0"/><path d="M245.48877,164.96009l14.25527,-4.9026l-4.82718,14.3307z" fill="#ffffff" stroke-width="0"/><path d="M224.94496,173.68108l-4.9026,-14.25527l14.3307,4.82718z" fill="#ffffff" stroke-width="0"/><path d="M224.63922,186.97183l-13.54666,-6.61334l13.54666,-6.72z" fill="#ffffff" stroke-width="0"/><path d="M246.93255,194.33184l-6.61333,13.54667l-6.72,-13.54666z" fill="#ffffff" stroke-width="0"/><path d="M254.34334,173.24334l13.54666,6.61334l-13.54666,6.72z" fill="#ffffff" stroke-width="0"/><path d="M233.65,164.88333l6.61333,-13.54667l6.72,13.54667z" fill="#ffffff" stroke-width="0"/><path d="M240.00001,163.36198c0.08878,0 0.17756,0 0.26634,0h0.00416c0.00832,0 0.01803,0 0.02913,0c0.07768,0.00277 0.15537,0.00555 0.23305,0.00832c1.29841,0.03884 2.54134,0.20947 3.72878,0.51187c0.1082,0.02774 0.21502,0.05687 0.32044,0.08739c2.33049,0.64643 4.43903,1.81168 6.32561,3.49573c0.28299,0.24969 0.55904,0.51187 0.82815,0.78654c0.00277,0 0.00555,0.00139 0.00832,0.00416c0.27467,0.27467 0.53823,0.55488 0.7907,0.84064c0.80006,0.90212 1.48257,1.85096 2.0475,2.84653c0.68148,1.19753 1.19336,2.46265 1.53563,3.79537c0.31351,1.22073 0.48552,2.49834 0.51604,3.83282l0.00416,0.1082c0,0.10543 0,0.21224 0,0.32044c0,0.08878 0,0.17756 0,0.26634v0.00416c0,0.00832 0,0.01803 0,0.02913c-0.00277,0.07768 -0.00555,0.15537 -0.00832,0.23305c-0.03884,1.29841 -0.20947,2.54134 -0.51187,3.72878c-0.02774,0.1082 -0.05687,0.21502 -0.08739,0.32044c-0.34369,1.23904 -0.83476,2.41538 -1.4732,3.52903c-0.55965,0.98083 -1.23382,1.91303 -2.02253,2.79659c-0.24969,0.28299 -0.51187,0.55904 -0.78654,0.82815c0,0.00277 -0.00139,0.00555 -0.00416,0.00832c-0.27467,0.27467 -0.55488,0.53823 -0.84064,0.7907c-1.98646,1.76174 -4.20043,2.95611 -6.64189,3.58313c-1.22073,0.31351 -2.49834,0.48552 -3.83282,0.51604l-0.1082,0.00416c-0.10543,0 -0.21224,0 -0.32044,0c-0.08878,0 -0.17756,0 -0.26634,0h-0.00416c-0.00832,0 -0.01803,0 -0.02913,0c-0.07768,-0.00277 -0.15537,-0.00555 -0.23305,-0.00832c-1.29841,-0.03884 -2.54134,-0.20947 -3.72878,-0.51187c-0.1082,-0.02774 -0.21502,-0.05687 -0.32044,-0.08739c-2.33049,-0.64643 -4.43903,-1.81168 -6.32561,-3.49573c-0.28299,-0.24969 -0.55904,-0.51187 -0.82815,-0.78654c-0.00277,0 -0.00555,-0.00139 -0.00832,-0.00416c-0.27467,-0.27467 -0.53823,-0.55488 -0.7907,-0.84064c-1.76174,-1.98646 -2.95611,-4.20043 -3.58313,-6.64189c-0.31351,-1.22073 -0.48552,-2.49834 -0.51604,-3.83282l-0.00416,-0.1082c0,-0.10543 0,-0.21224 0,-0.32044c0,-0.08878 0,-0.17756 0,-0.26634v-0.00416c0,-0.00832 0,-0.01803 0,-0.02913c0.00277,-0.07768 0.00555,-0.15537 0.00832,-0.23305c0.03884,-1.29841 0.20947,-2.54134 0.51187,-3.72878c0.02774,-0.1082 0.05687,-0.21502 0.08739,-0.32044c0.64643,-2.33049 1.81168,-4.43903 3.49573,-6.32561c0.24969,-0.28299 0.51187,-0.55904 0.78654,-0.82815c0,-0.00277 0.00139,-0.00555 0.00416,-0.00832c0.27467,-0.27467 0.55488,-0.53823 0.84064,-0.7907c1.98646,-1.76174 4.20043,-2.95611 6.64189,-3.58313c1.22073,-0.31351 2.49834,-0.48552 3.83282,-0.51604l0.1082,-0.00416c0.10543,0 0.21224,0 0.32044,0" fill="#ff4224" stroke-width="1"/><path d="" fill="#ff0000" stroke-width="1"/><path d="M229.07456,179.99998c0,-2.76786 2.2438,-5.01166 5.01166,-5.01166c2.76786,0 5.01166,2.2438 5.01166,5.01166c0,2.76786 -2.2438,5.01166 -5.01166,5.01166c-2.76786,0 -5.01166,-2.2438 -5.01166,-5.01166z" fill="#000000" stroke-width="0"/><path d="M229.51005,178.5302c0,-1.63304 1.32384,-2.95688 2.95688,-2.95688c1.63304,0 2.95688,1.32384 2.95688,2.95688c0,1.63304 -1.32384,2.95688 -2.95688,2.95688c-1.63304,0 -2.95688,-1.32384 -2.95688,-2.95688z" fill="#ffffff" stroke-width="0"/><path d="M235.11546,182.43165c0,-0.85804 0.69558,-1.55362 1.55362,-1.55362c0.85804,0 1.55362,0.69558 1.55362,1.55362c0,0.85804 -0.69558,1.55362 -1.55362,1.55362c-0.85804,0 -1.55362,-0.69558 -1.55362,-1.55362z" fill="#ffffff" stroke-width="0"/><path d="M240.90209,179.99998c0,-2.76787 2.24379,-5.01166 5.01166,-5.01166c2.76787,0 5.01166,2.24379 5.01166,5.01166c0,2.76787 -2.2438,5.01166 -5.01166,5.01166c-2.76787,0 -5.01166,-2.24379 -5.01166,-5.01166z" fill="#000000" stroke-width="0"/><path d="M241.33757,178.5302c0,-1.63304 1.32384,-2.95688 2.95688,-2.95688c1.63304,0 2.95688,1.32384 2.95688,2.95688c0,1.63304 -1.32384,2.95688 -2.95688,2.95688c-1.63304,0 -2.95688,-1.32384 -2.95688,-2.95688z" fill="#ffffff" stroke-width="0"/><path d="M246.94298,182.43165c0,-0.85804 0.69558,-1.55362 1.55362,-1.55362c0.85804,0 1.55362,0.69558 1.55362,1.55362c0,0.85804 -0.69558,1.55362 -1.55362,1.55362c-0.85804,0 -1.55362,-0.69558 -1.55362,-1.55362z" fill="#ffffff" stroke-width="0"/></g></g></svg>