<svg version="1.1" xmlns="http://www.w3.org/2000/svg" xmlns:xlink="http://www.w3.org/1999/xlink" width="299" height="255" viewBox="0,0,299,255"><g transform="translate(-90.5,-52.5)"><g data-paper-data="{&quot;isPaintingLayer&quot;:true}" fill-rule="nonzero" stroke-linejoin="miter" stroke-miterlimit="10" stroke-dasharray="" stroke-dashoffset="0" style="mix-blend-mode: normal"><path d="M255.30148,203.34795c-0.59995,0 -1.11658,-0.21665 -1.54985,-0.64993c-0.43331,-0.43331 -0.64993,-0.99992 -0.64993,-1.69986v-8.79926h-21.39821c-0.63329,0 -1.16656,-0.19998 -1.59987,-0.59995c-0.39997,-0.43331 -0.63329,-0.93327 -0.69994,-1.49987c-0.03334,-0.56661 0.11666,-1.08324 0.44998,-1.54985l23.64803,-30.94739c0.19998,-0.26663 0.44998,-0.48329 0.74995,-0.64993c0.29997,-0.19998 0.68327,-0.29997 1.14992,-0.29997c0.63329,0 1.14992,0.23332 1.54989,0.69994c0.43331,0.46662 0.64996,1.03326 0.64996,1.69986v28.94759h4.74962c0.63329,0 1.16656,0.16664 1.59987,0.49996c0.43331,0.29997 0.64996,0.84994 0.64996,1.64988c0,0.5333 -0.21665,1.01659 -0.64993,1.44989c-0.43331,0.39997 -0.96658,0.59995 -1.59987,0.59995h-4.74959v8.79926c0,0.69994 -0.21665,1.26655 -0.64993,1.69986c-0.43331,0.43331 -0.98325,0.64996 -1.64985,0.64996zM237.03659,188.79907l-2.4666,-0.29985l18.53168,-0.5l0.16666,-24.26452l0.1999,-0.25009z" fill="#00d808" stroke="#ffffff" stroke-width="17.5" stroke-linecap="square"/><path d="M248.30149,203.34795c-0.59995,0 -1.11658,-0.21665 -1.54985,-0.64993c-0.43331,-0.43331 -0.64993,-0.99992 -0.64993,-1.69986v-8.79926h-21.39821c-0.63329,0 -1.16656,-0.19998 -1.59987,-0.59995c-0.39997,-0.43331 -0.63329,-0.93327 -0.69994,-1.49987c-0.03334,-0.56661 0.11666,-1.08324 0.44998,-1.54985l23.64803,-30.94739c0.19998,-0.26663 0.44998,-0.48329 0.74995,-0.64993c0.29997,-0.19998 0.68327,-0.29997 1.14992,-0.29997c0.63329,0 1.14992,0.23332 1.54989,0.69994c0.43331,0.46662 0.64996,1.03326 0.64996,1.69986v28.94759h4.74962c0.63329,0 1.16656,0.16664 1.59987,0.49996c0.43331,0.29997 0.64996,0.84994 0.64996,1.64988c0,0.5333 -0.21665,1.01659 -0.64993,1.44989c-0.43331,0.39997 -0.96658,0.59995 -1.59987,0.59995h-4.74959v8.79926c0,0.69994 -0.21665,1.26655 -0.64993,1.69986c-0.43331,0.43331 -0.98325,0.64996 -1.64985,0.64996zM230.0366,188.79907l-2.4666,-0.29985l18.53168,-0.5l0.16666,-24.26452l0.1999,-0.25009z" fill="#ffffff" stroke="#41a100" stroke-width="17.5" stroke-linecap="square"/><path d="M248.30149,203.34796c-0.59995,0 -1.11658,-0.21665 -1.54985,-0.64993c-0.43331,-0.43331 -0.64993,-0.99992 -0.64993,-1.69986v-8.79926h-21.39821c-0.63329,0 -1.16656,-0.19998 -1.59987,-0.59995c-0.39997,-0.43331 -0.63329,-0.93327 -0.69994,-1.49987c-0.03334,-0.56661 0.11666,-1.08324 0.44998,-1.54985l23.64803,-30.94739c0.19998,-0.26663 0.44998,-0.48329 0.74995,-0.64993c0.29997,-0.19998 0.68327,-0.29997 1.14992,-0.29997c0.63329,0 1.14992,0.23332 1.54989,0.69994c0.43331,0.46662 0.64996,1.03326 0.64996,1.69986v28.94759h4.74962c0.63329,0 1.16656,0.16664 1.59987,0.49996c0.43331,0.29997 0.64996,0.84994 0.64996,1.64988c0,0.5333 -0.21665,1.01659 -0.64993,1.44989c-0.43331,0.39997 -0.96658,0.59995 -1.59987,0.59995h-4.74959v8.79926c0,0.69994 -0.21665,1.26655 -0.64993,1.69986c-0.43331,0.43331 -0.98325,0.64996 -1.64985,0.64996zM227.20326,189.79908l-0.79993,-1.79985h19.69835l0.16666,-24.26452l1.03324,-0.08343z" fill="#00d808" stroke="#00d808" stroke-width="5" stroke-linecap="square"/><path d="M90.5,307.5v-255h299v255z" fill="none" stroke="#ffffff" stroke-width="0" stroke-linecap="butt"/></g></g></svg>